M48
; DRILL file {KiCad 5.1.6-c6e7f7d~87~ubuntu18.04.1} date Thu Sep 24 13:28:22 2020
; FORMAT={3:3/ absolute / metric / suppress leading zeros}
; #@! TF.CreationDate,2020-09-24T13:28:22+09:00
; #@! TF.GenerationSoftware,Kicad,Pcbnew,5.1.6-c6e7f7d~87~ubuntu18.04.1
FMAT,2
METRIC,TZ
T1C0.300
T2C0.750
T3C0.900
T4C0.950
T5C1.000
T6C1.100
T7C1.200
T8C2.200
T9C3.200
%
G90
G05
T1
X81000Y-103800
X81000Y-112800
X81200Y-121600
X81200Y-131000
X81600Y-95200
X85000Y-138600
X85200Y-91400
X86000Y-103600
X86000Y-111200
X86200Y-121400
X86200Y-127200
X90800Y-91400
X90800Y-138600
X91200Y-96000
X95200Y-98400
X95200Y-110200
X95200Y-121600
X95200Y-136800
X95400Y-128600
X100600Y-133400
X101400Y-96000
X101400Y-98400
X101400Y-104400
X101600Y-112800
X101600Y-117400
X101780Y-97220
X101800Y-139000
X103400Y-104400
X103800Y-130200
X104400Y-98400
X104600Y-104600
X105000Y-121200
X105000Y-126000
X105200Y-91000
X106800Y-124200
X107600Y-94800
X107600Y-116200
X108000Y-112800
X108600Y-139000
X109000Y-104400
X110400Y-104600
X110400Y-110200
X110400Y-131800
X110800Y-118800
X111400Y-95000
X112400Y-118800
X114200Y-127600
X114400Y-123400
X114400Y-113200
X114600Y-101600
X114600Y-105600
X114600Y-111200
X116000Y-115200
X119000Y-91400
X119200Y-138600
X119400Y-115200
X120000Y-120000
X120400Y-102800
X120400Y-105600
X122200Y-125400
X122600Y-112600
X125000Y-91400
X125000Y-138600
X128400Y-95200
X128400Y-134600
X128800Y-99600
X129000Y-109000
X129000Y-116400
X129000Y-122000
X129000Y-129200
X134000Y-99600
X134000Y-105800
X134200Y-108800
X134200Y-117800
X134200Y-122000
X134200Y-129000
X134600Y-95400
X135000Y-137800
X136800Y-102800
X137400Y-111800
X138800Y-99800
X139200Y-106400
X140000Y-124700
X140800Y-110000
X140800Y-131000
X141000Y-91600
X141000Y-96400
X141200Y-114200
X141600Y-127000
X141834Y-106218
X142400Y-92048
X143158Y-113096
X143400Y-138400
X143713Y-113604
X143800Y-130400
X144400Y-103400
X144400Y-124200
X144600Y-102200
X144761Y-107761
X144800Y-113000
X145800Y-107200
X145800Y-126000
X146600Y-112200
X147000Y-127000
X147005Y-108605
X147200Y-109400
X147600Y-133600
X147800Y-93400
X147991Y-120791
X149200Y-102800
X149400Y-115600
X149400Y-117600
X150200Y-96200
X150800Y-112200
X150800Y-138800
X150978Y-103678
X151180Y-116498
X151200Y-90800
X151200Y-109600
X151200Y-119400
X151400Y-96800
X151400Y-98400
X151914Y-109362
X152000Y-129800
X152502Y-103468
X152600Y-122400
X152624Y-109114
X152800Y-127400
X153338Y-108878
X153600Y-104400
X153772Y-102916
X153772Y-126284
X154200Y-118200
X154600Y-114600
X154629Y-110002
X155200Y-136400
X155400Y-111000
X156095Y-108090
X156207Y-116593
X156312Y-112568
X156800Y-125800
X157000Y-98400
X157600Y-99600
X157795Y-111826
X158000Y-90800
X158000Y-92600
X158100Y-117700
X158148Y-109000
X158800Y-99400
X158800Y-118000
X159000Y-122400
X159200Y-95200
X159600Y-102000
X159600Y-129000
X159868Y-126848
X160000Y-106200
X160000Y-120400
X160600Y-100000
X160800Y-136400
X160815Y-96103
X162000Y-105800
X162154Y-126284
X162200Y-95600
X162200Y-96905
X162539Y-117261
X163000Y-94600
X163000Y-97800
X163200Y-128800
X163721Y-98230
X164000Y-99000
X164000Y-112800
X164000Y-124400
X164400Y-126848
X164499Y-99715
X164795Y-100406
X164800Y-90800
X165000Y-130400
X165200Y-97400
X165400Y-115400
X165400Y-138800
X166048Y-121452
X166600Y-104705
X166600Y-117400
X166600Y-119000
X166848Y-126000
X167200Y-93200
X167648Y-103952
X167800Y-111600
X168200Y-133400
X168208Y-103162
X169600Y-131400
X170200Y-104400
X170400Y-103200
X170600Y-122000
X170800Y-93400
X171200Y-124400
X171400Y-127400
X171800Y-125200
X172200Y-102200
X172800Y-138400
X173000Y-100600
X173200Y-98000
X173748Y-128600
X173800Y-91600
X173800Y-95600
X173800Y-120800
X174200Y-133000
X174400Y-104200
X175000Y-110800
X175200Y-115000
X175200Y-130000
X175600Y-123200
X176200Y-125952
X177600Y-97800
X178000Y-91400
X179000Y-113200
X181000Y-138000
X181400Y-95400
X181800Y-114800
X181800Y-122000
X181800Y-129000
X182000Y-100100
X182000Y-111200
T2
X97400Y-135500
X99400Y-135500
T3
X118400Y-121500
X118400Y-125500
X118400Y-129500
X124700Y-111500
X124700Y-114040
T4
X177000Y-101100
X177000Y-103600
X177000Y-106100
X177000Y-108600
X177000Y-111100
X177000Y-113600
T5
X144860Y-95500
X144860Y-98040
X144860Y-100580
X147400Y-95500
X147400Y-98040
X147400Y-100580
X178460Y-124000
X181000Y-124000
X152000Y-132000
X153270Y-134200
X151650Y-93200
X154190Y-93200
X156730Y-93200
X159270Y-93200
X161810Y-93200
X164350Y-93200
X168700Y-95420
X168700Y-97960
X168700Y-100500
X171240Y-95420
X171240Y-97960
X171240Y-100500
X154500Y-130500
X155770Y-132700
X135000Y-127000
X137540Y-127000
X162730Y-134200
X164000Y-132000
X98650Y-93200
X101190Y-93200
X103730Y-93200
X106270Y-93200
X108810Y-93200
X111350Y-93200
X178460Y-127000
X181000Y-127000
X160230Y-132700
X161500Y-130500
X135000Y-124000
X137540Y-124000
X135800Y-110520
X135800Y-113060
X135800Y-115600
T6
X135500Y-98000
X135500Y-104500
X140000Y-98000
X140000Y-104500
T7
X116650Y-119500
X116650Y-131500
X122650Y-119500
X122650Y-131500
T8
X176700Y-93150
X86300Y-93150
X139300Y-93150
X158000Y-137000
X123700Y-93150
X135800Y-120000
X105000Y-137000
X123700Y-136850
X180200Y-120000
X86300Y-136850
T9
X126850Y-136850
X83150Y-136850
X179850Y-93150
X83150Y-93150
X136150Y-93150
X126850Y-93150
T0
M30
