%TF.GenerationSoftware,KiCad,Pcbnew,5.1.6-c6e7f7d~87~ubuntu18.04.1*%
%TF.CreationDate,2020-09-10T12:49:25+09:00*%
%TF.ProjectId,m5mouse,6d356d6f-7573-4652-9e6b-696361645f70,rev?*%
%TF.SameCoordinates,PX4c4b400PY8583b00*%
%TF.FileFunction,Soldermask,Top*%
%TF.FilePolarity,Negative*%
%FSLAX46Y46*%
G04 Gerber Fmt 4.6, Leading zero omitted, Abs format (unit mm)*
G04 Created by KiCad (PCBNEW 5.1.6-c6e7f7d~87~ubuntu18.04.1) date 2020-09-10 12:49:25*
%MOMM*%
%LPD*%
G01*
G04 APERTURE LIST*
%ADD10C,2.300000*%
%ADD11C,3.300000*%
%ADD12R,3.250000X1.100000*%
%ADD13O,2.050000X1.800000*%
%ADD14O,1.800000X1.800000*%
%ADD15R,1.800000X1.800000*%
%ADD16C,2.100000*%
%ADD17C,1.800000*%
%ADD18C,0.100000*%
%ADD19O,1.300000X1.850000*%
G04 APERTURE END LIST*
D10*
%TO.C,MH9*%
X25000000Y3000000D03*
%TD*%
%TO.C,MH10*%
X78000000Y3000000D03*
%TD*%
%TO.C,MH8*%
X59300000Y46850000D03*
D11*
X56150000Y46850000D03*
%TD*%
D10*
%TO.C,MH5*%
X96700000Y46850000D03*
D11*
X99850000Y46850000D03*
%TD*%
D10*
%TO.C,MH2*%
X43700000Y3150000D03*
D11*
X46850000Y3150000D03*
%TD*%
D10*
%TO.C,MH3*%
X6300000Y3150000D03*
D11*
X3150000Y3150000D03*
%TD*%
D10*
%TO.C,MH4*%
X6300000Y46850000D03*
D11*
X3150000Y46850000D03*
%TD*%
D10*
%TO.C,MH1*%
X43700000Y46850000D03*
D11*
X46850000Y46850000D03*
%TD*%
D10*
%TO.C,MH6*%
X100200000Y20000000D03*
%TD*%
%TO.C,MH7*%
X55800000Y20000000D03*
%TD*%
D12*
%TO.C,J2*%
X3675000Y42780000D03*
X8725000Y42780000D03*
X3675000Y40240000D03*
X8725000Y40240000D03*
X3675000Y37700000D03*
X8725000Y37700000D03*
X3675000Y35160000D03*
X8725000Y35160000D03*
X3675000Y32620000D03*
X8725000Y32620000D03*
X3675000Y30080000D03*
X8725000Y30080000D03*
X3675000Y27540000D03*
X8725000Y27540000D03*
X3675000Y25000000D03*
X8725000Y25000000D03*
X3675000Y22460000D03*
X8725000Y22460000D03*
X3675000Y19920000D03*
X8725000Y19920000D03*
X3675000Y17380000D03*
X8725000Y17380000D03*
X3675000Y14840000D03*
X8725000Y14840000D03*
X3675000Y12300000D03*
X8725000Y12300000D03*
X3675000Y9760000D03*
X8725000Y9760000D03*
X3675000Y7220000D03*
X8725000Y7220000D03*
%TD*%
%TO.C,J3*%
G36*
G01*
X99239706Y41900000D02*
X100760294Y41900000D01*
G75*
G02*
X101025000Y41635294I0J-264706D01*
G01*
X101025000Y40364706D01*
G75*
G02*
X100760294Y40100000I-264706J0D01*
G01*
X99239706Y40100000D01*
G75*
G02*
X98975000Y40364706I0J264706D01*
G01*
X98975000Y41635294D01*
G75*
G02*
X99239706Y41900000I264706J0D01*
G01*
G37*
D13*
X100000000Y38500000D03*
X100000000Y36000000D03*
X100000000Y33500000D03*
X100000000Y31000000D03*
X100000000Y28500000D03*
%TD*%
D14*
%TO.C,J4*%
X91240000Y44580000D03*
X88700000Y44580000D03*
X91240000Y42040000D03*
X88700000Y42040000D03*
X91240000Y39500000D03*
D15*
X88700000Y39500000D03*
%TD*%
%TO.C,J5*%
X67400000Y44500000D03*
D14*
X64860000Y44500000D03*
X67400000Y41960000D03*
X64860000Y41960000D03*
X67400000Y39420000D03*
X64860000Y39420000D03*
%TD*%
D15*
%TO.C,J6*%
X55800000Y24400000D03*
D14*
X55800000Y26940000D03*
X55800000Y29480000D03*
%TD*%
D15*
%TO.C,J7*%
X18650000Y46800000D03*
D14*
X21190000Y46800000D03*
X23730000Y46800000D03*
X26270000Y46800000D03*
X28810000Y46800000D03*
X31350000Y46800000D03*
%TD*%
D15*
%TO.C,J8*%
X71650000Y46800000D03*
D14*
X74190000Y46800000D03*
X76730000Y46800000D03*
X79270000Y46800000D03*
X81810000Y46800000D03*
X84350000Y46800000D03*
%TD*%
D16*
%TO.C,SW1*%
X37250000Y20500000D03*
X37250000Y8500000D03*
X43250000Y8500000D03*
X43250000Y20500000D03*
D17*
X39000000Y18500000D03*
X39000000Y14500000D03*
X39000000Y10500000D03*
%TD*%
D16*
%TO.C,SW2*%
X55500000Y35500000D03*
X60000000Y35500000D03*
X55500000Y42000000D03*
X60000000Y42000000D03*
%TD*%
D14*
%TO.C,D2*%
X98460000Y16000000D03*
D15*
X101000000Y16000000D03*
%TD*%
D18*
%TO.C,D3*%
G36*
X82729423Y9829423D02*
G01*
X81829423Y8270577D01*
X80270577Y9170577D01*
X81170577Y10729423D01*
X82729423Y9829423D01*
G37*
G36*
G01*
X81009423Y6850295D02*
X81009423Y6850295D01*
G75*
G02*
X79780000Y6520872I-779423J450000D01*
G01*
X79780000Y6520872D01*
G75*
G02*
X79450577Y7750295I450000J779423D01*
G01*
X79450577Y7750295D01*
G75*
G02*
X80680000Y8079718I779423J-450000D01*
G01*
X80680000Y8079718D01*
G75*
G02*
X81009423Y6850295I-450000J-779423D01*
G01*
G37*
%TD*%
%TO.C,D4*%
G36*
G01*
X76549423Y7750295D02*
X76549423Y7750295D01*
G75*
G02*
X76220000Y6520872I-779423J-450000D01*
G01*
X76220000Y6520872D01*
G75*
G02*
X74990577Y6850295I-450000J779423D01*
G01*
X74990577Y6850295D01*
G75*
G02*
X75320000Y8079718I779423J450000D01*
G01*
X75320000Y8079718D01*
G75*
G02*
X76549423Y7750295I450000J-779423D01*
G01*
G37*
G36*
X74829423Y10729423D02*
G01*
X75729423Y9170577D01*
X74170577Y8270577D01*
X73270577Y9829423D01*
X74829423Y10729423D01*
G37*
%TD*%
D15*
%TO.C,D5*%
X55000000Y16000000D03*
D14*
X57540000Y16000000D03*
%TD*%
D15*
%TO.C,Q2*%
X101000000Y13000000D03*
D14*
X98460000Y13000000D03*
%TD*%
%TO.C,Q4*%
G36*
G01*
X83509423Y5350295D02*
X83509423Y5350295D01*
G75*
G02*
X82280000Y5020872I-779423J450000D01*
G01*
X82280000Y5020872D01*
G75*
G02*
X81950577Y6250295I450000J779423D01*
G01*
X81950577Y6250295D01*
G75*
G02*
X83180000Y6579718I779423J-450000D01*
G01*
X83180000Y6579718D01*
G75*
G02*
X83509423Y5350295I-450000J-779423D01*
G01*
G37*
D18*
G36*
X85229423Y8329423D02*
G01*
X84329423Y6770577D01*
X82770577Y7670577D01*
X83670577Y9229423D01*
X85229423Y8329423D01*
G37*
%TD*%
%TO.C,Q6*%
G36*
X72329423Y9229423D02*
G01*
X73229423Y7670577D01*
X71670577Y6770577D01*
X70770577Y8329423D01*
X72329423Y9229423D01*
G37*
G36*
G01*
X74049423Y6250295D02*
X74049423Y6250295D01*
G75*
G02*
X73720000Y5020872I-779423J-450000D01*
G01*
X73720000Y5020872D01*
G75*
G02*
X72490577Y5350295I-450000J779423D01*
G01*
X72490577Y5350295D01*
G75*
G02*
X72820000Y6579718I779423J450000D01*
G01*
X72820000Y6579718D01*
G75*
G02*
X74049423Y6250295I450000J-779423D01*
G01*
G37*
%TD*%
D14*
%TO.C,Q8*%
X57540000Y13000000D03*
D15*
X55000000Y13000000D03*
%TD*%
%TO.C,J1*%
G36*
G01*
X16750000Y3845832D02*
X16750000Y5154168D01*
G75*
G02*
X17020832Y5425000I270832J0D01*
G01*
X17779168Y5425000D01*
G75*
G02*
X18050000Y5154168I0J-270832D01*
G01*
X18050000Y3845832D01*
G75*
G02*
X17779168Y3575000I-270832J0D01*
G01*
X17020832Y3575000D01*
G75*
G02*
X16750000Y3845832I0J270832D01*
G01*
G37*
D19*
X19400000Y4500000D03*
%TD*%
M02*
