M48
; DRILL file {KiCad 5.1.6-c6e7f7d~87~ubuntu18.04.1} date Thu Sep 10 12:50:04 2020
; FORMAT={-:-/ absolute / inch / decimal}
; #@! TF.CreationDate,2020-09-10T12:50:04+09:00
; #@! TF.GenerationSoftware,Kicad,Pcbnew,5.1.6-c6e7f7d~87~ubuntu18.04.1
FMAT,2
INCH
T1C0.0118
T2C0.0295
T3C0.0354
T4C0.0374
T5C0.0394
T6C0.0433
T7C0.0472
T8C0.0866
T9C0.1260
%
G90
G05
T1
X0.0394Y1.4252
X0.0394Y1.0709
X0.0472Y0.7244
X0.0472Y0.3543
X0.063Y1.7638
X0.1969Y0.0551
X0.2047Y1.9134
X0.2362Y1.4331
X0.2362Y1.1339
X0.2441Y0.7323
X0.2441Y0.5039
X0.4252Y1.9134
X0.4252Y0.0551
X0.4409Y1.7323
X0.5984Y1.6378
X0.5984Y1.1732
X0.5984Y0.7244
X0.5984Y0.126
X0.6063Y0.4488
X0.811Y0.2598
X0.8425Y1.7323
X0.8425Y1.6378
X0.8425Y1.4882
X0.8504Y1.0709
X0.8504Y0.8898
X0.8575Y1.6843
X0.8583Y0.0394
X0.937Y1.6378
X0.937Y1.3937
X0.937Y0.3858
X0.9843Y0.7323
X0.9843Y0.5669
X0.9921Y1.9291
X1.0866Y1.7795
X1.0866Y0.937
X1.1024Y1.0709
X1.126Y0.0394
X1.1339Y0.6693
X1.1417Y1.4016
X1.1969Y1.3937
X1.1969Y1.1732
X1.1969Y0.3228
X1.2126Y0.8346
X1.2362Y1.7717
X1.2756Y0.8346
X1.3465Y0.4882
X1.3543Y0.6535
X1.3622Y1.5118
X1.3622Y1.3543
X1.3701Y1.0787
X1.4173Y0.9764
X1.5354Y1.9134
X1.5433Y0.0551
X1.5906Y1.4646
X1.5906Y1.3543
X1.622Y0.8898
X1.6614Y0.5748
X1.7717Y1.9134
X1.7717Y0.0551
X1.8189Y1.4173
X1.9055Y1.7638
X1.9055Y0.2126
X1.9213Y1.5906
X1.9291Y1.2205
X1.9291Y0.9291
X1.9291Y0.7087
X1.9291Y0.4252
X2.126Y1.5906
X2.126Y1.3465
X2.1339Y1.2283
X2.1339Y0.874
X2.1339Y0.7087
X2.1339Y0.4252
X2.1496Y1.7559
X2.1654Y0.0866
X2.2362Y1.4646
X2.2598Y1.1102
X2.315Y1.5827
X2.3307Y1.3228
X2.3622Y0.6024
X2.378Y1.0
X2.3937Y1.1811
X2.3937Y0.3543
X2.4016Y1.9055
X2.4016Y1.7165
X2.4252Y0.5118
X2.4344Y1.33
X2.4567Y1.8879
X2.4866Y1.0592
X2.4961Y0.063
X2.5084Y1.0392
X2.5118Y0.378
X2.5354Y1.4409
X2.5354Y0.622
X2.5433Y1.4882
X2.5497Y1.2692
X2.5512Y1.063
X2.5906Y1.2913
X2.5906Y0.5512
X2.622Y1.0945
X2.6378Y0.5118
X2.638Y1.236
X2.6457Y1.2047
X2.6614Y0.252
X2.6693Y1.8346
X2.6768Y0.7563
X2.7244Y1.4646
X2.7244Y0.9606
X2.7244Y0.874
X2.7638Y1.7244
X2.7874Y1.0945
X2.7874Y0.0472
X2.7944Y1.43
X2.8023Y0.9253
X2.8031Y1.937
X2.8031Y1.1969
X2.8031Y0.748
X2.811Y1.7008
X2.811Y1.6378
X2.8313Y1.2062
X2.8346Y0.4016
X2.8544Y1.4383
X2.8583Y0.6929
X2.8592Y1.216
X2.8661Y0.4961
X2.8873Y1.2253
X2.8976Y1.4016
X2.9044Y1.46
X2.9044Y0.54
X2.9213Y0.8583
X2.937Y1.0
X2.9382Y1.181
X2.9606Y0.1417
X2.9685Y1.1417
X2.9959Y1.2563
X3.0003Y0.9215
X3.0044Y1.08
X3.0236Y0.5512
X3.0472Y1.5669
X3.0628Y1.1092
X3.0709Y1.937
X3.0709Y1.8661
X3.0709Y1.6063
X3.0748Y0.878
X3.0767Y1.2205
X3.1024Y0.8661
X3.1034Y1.6214
X3.1102Y0.6929
X3.1339Y1.4961
X3.1339Y0.4331
X3.1444Y0.5178
X3.1457Y1.2835
X3.1496Y0.7717
X3.1732Y1.5748
X3.1811Y0.1417
X3.189Y1.7323
X3.2087Y1.3465
X3.2344Y0.54
X3.2362Y1.7008
X3.2496Y0.8952
X3.2677Y1.7559
X3.2677Y1.6614
X3.2756Y0.4409
X3.2961Y1.6445
X3.3071Y1.6142
X3.3071Y0.6142
X3.3228Y1.063
X3.3228Y0.5178
X3.3267Y1.586
X3.3384Y1.5588
X3.3386Y1.937
X3.3465Y0.378
X3.3543Y1.6772
X3.3622Y0.0472
X3.3877Y0.7302
X3.4094Y1.3896
X3.4192Y0.5512
X3.4331Y1.8425
X3.4331Y0.8504
X3.4507Y1.4192
X3.4567Y1.1181
X3.4724Y0.2598
X3.4727Y1.4503
X3.4961Y1.3701
X3.5276Y0.3386
X3.5551Y1.1654
X3.563Y0.7165
X3.5748Y1.8346
X3.5906Y0.6142
X3.5984Y0.4961
X3.6142Y0.5827
X3.6535Y0.063
X3.6614Y1.5906
X3.6908Y0.4488
X3.6929Y1.9055
X3.6929Y0.7559
X3.7008Y1.6929
X3.7087Y0.2756
X3.7323Y0.8504
X3.748Y0.3937
X3.7874Y0.5531
X3.8425Y1.0315
X3.8504Y1.6614
X3.8504Y1.5669
X3.8543Y1.4094
X3.8583Y1.9134
X3.8583Y1.2677
X3.8976Y0.874
X3.9764Y0.0787
X3.9921Y1.7559
X4.0079Y0.9921
X4.0079Y0.7087
X4.0079Y0.4016
X4.0157Y1.5709
X4.0157Y1.1339
T2
X0.685Y0.1772
X0.7638Y0.1772
T3
X1.5354Y0.7283
X1.5354Y0.5709
X1.5354Y0.4134
T4
X3.937Y1.6142
X3.937Y1.5157
X3.937Y1.4173
X3.937Y1.3189
X3.937Y1.2205
X3.937Y1.122
T5
X3.4921Y1.7551
X3.4921Y1.6551
X3.4921Y1.5551
X3.5921Y1.7551
X3.5921Y1.6551
X3.5921Y1.5551
X3.1587Y0.2874
X3.2087Y0.374
X3.2571Y0.2284
X3.3071Y0.315
X2.8209Y1.8425
X2.9209Y1.8425
X3.0209Y1.8425
X3.1209Y1.8425
X3.2209Y1.8425
X3.3209Y1.8425
X2.1969Y1.1606
X2.1969Y1.0606
X2.1969Y0.9606
X2.1654Y0.5118
X2.2654Y0.5118
X3.8764Y0.5118
X3.9764Y0.5118
X2.1654Y0.6299
X2.2654Y0.6299
X0.7343Y1.8425
X0.8343Y1.8425
X0.9343Y1.8425
X1.0343Y1.8425
X1.1343Y1.8425
X1.2343Y1.8425
X2.5535Y1.752
X2.5535Y1.652
X2.5535Y1.552
X2.6535Y1.752
X2.6535Y1.652
X2.6535Y1.552
X2.9331Y0.374
X2.9831Y0.2874
X3.8764Y0.6299
X3.9764Y0.6299
X2.8346Y0.315
X2.8846Y0.2284
T6
X2.185Y1.6535
X2.185Y1.3976
X2.3622Y1.6535
X2.3622Y1.3976
T7
X1.4665Y0.8071
X1.4665Y0.3346
X1.7028Y0.8071
X1.7028Y0.3346
T8
X0.248Y1.8445
X1.7205Y1.8445
X3.8071Y1.8445
X3.9449Y0.7874
X1.7205Y0.124
X0.248Y0.124
X0.9843Y0.1181
X2.1969Y0.7874
X2.3346Y1.8445
X3.0709Y0.1181
T9
X0.124Y1.8445
X1.8445Y1.8445
X3.9311Y1.8445
X1.8445Y0.124
X0.124Y0.124
X2.2106Y1.8445
T0
M30
