G04 #@! TF.GenerationSoftware,KiCad,Pcbnew,5.1.6-c6e7f7d~87~ubuntu18.04.1*
G04 #@! TF.CreationDate,2020-09-29T12:46:08+09:00*
G04 #@! TF.ProjectId,m5mouse,6d356d6f-7573-4652-9e6b-696361645f70,rev?*
G04 #@! TF.SameCoordinates,Original*
G04 #@! TF.FileFunction,Legend,Top*
G04 #@! TF.FilePolarity,Positive*
%FSLAX46Y46*%
G04 Gerber Fmt 4.6, Leading zero omitted, Abs format (unit mm)*
G04 Created by KiCad (PCBNEW 5.1.6-c6e7f7d~87~ubuntu18.04.1) date 2020-09-29 12:46:08*
%MOMM*%
%LPD*%
G01*
G04 APERTURE LIST*
%ADD10C,0.150000*%
%ADD11C,0.100000*%
%ADD12C,0.120000*%
G04 APERTURE END LIST*
D10*
X95690476Y-126627380D02*
X95690476Y-125627380D01*
X96023809Y-126341666D01*
X96357142Y-125627380D01*
X96357142Y-126627380D01*
X97309523Y-125627380D02*
X96833333Y-125627380D01*
X96785714Y-126103571D01*
X96833333Y-126055952D01*
X96928571Y-126008333D01*
X97166666Y-126008333D01*
X97261904Y-126055952D01*
X97309523Y-126103571D01*
X97357142Y-126198809D01*
X97357142Y-126436904D01*
X97309523Y-126532142D01*
X97261904Y-126579761D01*
X97166666Y-126627380D01*
X96928571Y-126627380D01*
X96833333Y-126579761D01*
X96785714Y-126532142D01*
X97785714Y-126627380D02*
X97785714Y-125627380D01*
X98119047Y-126341666D01*
X98452380Y-125627380D01*
X98452380Y-126627380D01*
X99071428Y-126627380D02*
X98976190Y-126579761D01*
X98928571Y-126532142D01*
X98880952Y-126436904D01*
X98880952Y-126151190D01*
X98928571Y-126055952D01*
X98976190Y-126008333D01*
X99071428Y-125960714D01*
X99214285Y-125960714D01*
X99309523Y-126008333D01*
X99357142Y-126055952D01*
X99404761Y-126151190D01*
X99404761Y-126436904D01*
X99357142Y-126532142D01*
X99309523Y-126579761D01*
X99214285Y-126627380D01*
X99071428Y-126627380D01*
X100261904Y-125960714D02*
X100261904Y-126627380D01*
X99833333Y-125960714D02*
X99833333Y-126484523D01*
X99880952Y-126579761D01*
X99976190Y-126627380D01*
X100119047Y-126627380D01*
X100214285Y-126579761D01*
X100261904Y-126532142D01*
X100690476Y-126579761D02*
X100785714Y-126627380D01*
X100976190Y-126627380D01*
X101071428Y-126579761D01*
X101119047Y-126484523D01*
X101119047Y-126436904D01*
X101071428Y-126341666D01*
X100976190Y-126294047D01*
X100833333Y-126294047D01*
X100738095Y-126246428D01*
X100690476Y-126151190D01*
X100690476Y-126103571D01*
X100738095Y-126008333D01*
X100833333Y-125960714D01*
X100976190Y-125960714D01*
X101071428Y-126008333D01*
X101928571Y-126579761D02*
X101833333Y-126627380D01*
X101642857Y-126627380D01*
X101547619Y-126579761D01*
X101500000Y-126484523D01*
X101500000Y-126103571D01*
X101547619Y-126008333D01*
X101642857Y-125960714D01*
X101833333Y-125960714D01*
X101928571Y-126008333D01*
X101976190Y-126103571D01*
X101976190Y-126198809D01*
X101500000Y-126294047D01*
X103119047Y-125579761D02*
X102261904Y-126865476D01*
X103452380Y-126627380D02*
X103452380Y-125627380D01*
X103833333Y-125627380D01*
X103928571Y-125675000D01*
X103976190Y-125722619D01*
X104023809Y-125817857D01*
X104023809Y-125960714D01*
X103976190Y-126055952D01*
X103928571Y-126103571D01*
X103833333Y-126151190D01*
X103452380Y-126151190D01*
X104595238Y-126627380D02*
X104500000Y-126579761D01*
X104452380Y-126532142D01*
X104404761Y-126436904D01*
X104404761Y-126151190D01*
X104452380Y-126055952D01*
X104500000Y-126008333D01*
X104595238Y-125960714D01*
X104738095Y-125960714D01*
X104833333Y-126008333D01*
X104880952Y-126055952D01*
X104928571Y-126151190D01*
X104928571Y-126436904D01*
X104880952Y-126532142D01*
X104833333Y-126579761D01*
X104738095Y-126627380D01*
X104595238Y-126627380D01*
X105261904Y-125960714D02*
X105452380Y-126627380D01*
X105642857Y-126151190D01*
X105833333Y-126627380D01*
X106023809Y-125960714D01*
X106785714Y-126579761D02*
X106690476Y-126627380D01*
X106500000Y-126627380D01*
X106404761Y-126579761D01*
X106357142Y-126484523D01*
X106357142Y-126103571D01*
X106404761Y-126008333D01*
X106500000Y-125960714D01*
X106690476Y-125960714D01*
X106785714Y-126008333D01*
X106833333Y-126103571D01*
X106833333Y-126198809D01*
X106357142Y-126294047D01*
X107261904Y-126627380D02*
X107261904Y-125960714D01*
X107261904Y-126151190D02*
X107309523Y-126055952D01*
X107357142Y-126008333D01*
X107452380Y-125960714D01*
X107547619Y-125960714D01*
X107880952Y-125627380D02*
X107880952Y-126436904D01*
X107928571Y-126532142D01*
X107976190Y-126579761D01*
X108071428Y-126627380D01*
X108261904Y-126627380D01*
X108357142Y-126579761D01*
X108404761Y-126532142D01*
X108452380Y-126436904D01*
X108452380Y-125627380D01*
X108928571Y-125960714D02*
X108928571Y-126627380D01*
X108928571Y-126055952D02*
X108976190Y-126008333D01*
X109071428Y-125960714D01*
X109214285Y-125960714D01*
X109309523Y-126008333D01*
X109357142Y-126103571D01*
X109357142Y-126627380D01*
X109833333Y-126627380D02*
X109833333Y-125960714D01*
X109833333Y-125627380D02*
X109785714Y-125675000D01*
X109833333Y-125722619D01*
X109880952Y-125675000D01*
X109833333Y-125627380D01*
X109833333Y-125722619D01*
X110166666Y-125960714D02*
X110547619Y-125960714D01*
X110309523Y-125627380D02*
X110309523Y-126484523D01*
X110357142Y-126579761D01*
X110452380Y-126627380D01*
X110547619Y-126627380D01*
X111547619Y-125960714D02*
X111785714Y-126627380D01*
X112023809Y-125960714D01*
X112595238Y-125627380D02*
X112690476Y-125627380D01*
X112785714Y-125675000D01*
X112833333Y-125722619D01*
X112880952Y-125817857D01*
X112928571Y-126008333D01*
X112928571Y-126246428D01*
X112880952Y-126436904D01*
X112833333Y-126532142D01*
X112785714Y-126579761D01*
X112690476Y-126627380D01*
X112595238Y-126627380D01*
X112500000Y-126579761D01*
X112452380Y-126532142D01*
X112404761Y-126436904D01*
X112357142Y-126246428D01*
X112357142Y-126008333D01*
X112404761Y-125817857D01*
X112452380Y-125722619D01*
X112500000Y-125675000D01*
X112595238Y-125627380D01*
X113357142Y-126532142D02*
X113404761Y-126579761D01*
X113357142Y-126627380D01*
X113309523Y-126579761D01*
X113357142Y-126532142D01*
X113357142Y-126627380D01*
X114357142Y-126627380D02*
X113785714Y-126627380D01*
X114071428Y-126627380D02*
X114071428Y-125627380D01*
X113976190Y-125770238D01*
X113880952Y-125865476D01*
X113785714Y-125913095D01*
X100238095Y-127801190D02*
X100190476Y-127753571D01*
X100095238Y-127705952D01*
X100000000Y-127705952D01*
X99904761Y-127753571D01*
X99857142Y-127801190D01*
X99809523Y-127896428D01*
X99809523Y-127991666D01*
X99857142Y-128086904D01*
X99904761Y-128134523D01*
X100000000Y-128182142D01*
X100095238Y-128182142D01*
X100190476Y-128134523D01*
X100238095Y-128086904D01*
X100238095Y-127705952D02*
X100238095Y-128086904D01*
X100285714Y-128134523D01*
X100333333Y-128134523D01*
X100428571Y-128086904D01*
X100476190Y-127991666D01*
X100476190Y-127753571D01*
X100380952Y-127610714D01*
X100238095Y-127515476D01*
X100047619Y-127467857D01*
X99857142Y-127515476D01*
X99714285Y-127610714D01*
X99619047Y-127753571D01*
X99571428Y-127944047D01*
X99619047Y-128134523D01*
X99714285Y-128277380D01*
X99857142Y-128372619D01*
X100047619Y-128420238D01*
X100238095Y-128372619D01*
X100380952Y-128277380D01*
X100904761Y-128277380D02*
X100904761Y-127610714D01*
X100904761Y-127705952D02*
X100952380Y-127658333D01*
X101047619Y-127610714D01*
X101190476Y-127610714D01*
X101285714Y-127658333D01*
X101333333Y-127753571D01*
X101333333Y-128277380D01*
X101333333Y-127753571D02*
X101380952Y-127658333D01*
X101476190Y-127610714D01*
X101619047Y-127610714D01*
X101714285Y-127658333D01*
X101761904Y-127753571D01*
X101761904Y-128277380D01*
X102619047Y-128229761D02*
X102523809Y-128277380D01*
X102333333Y-128277380D01*
X102238095Y-128229761D01*
X102190476Y-128134523D01*
X102190476Y-127753571D01*
X102238095Y-127658333D01*
X102333333Y-127610714D01*
X102523809Y-127610714D01*
X102619047Y-127658333D01*
X102666666Y-127753571D01*
X102666666Y-127848809D01*
X102190476Y-127944047D01*
X103523809Y-127610714D02*
X103523809Y-128420238D01*
X103476190Y-128515476D01*
X103428571Y-128563095D01*
X103333333Y-128610714D01*
X103190476Y-128610714D01*
X103095238Y-128563095D01*
X103523809Y-128229761D02*
X103428571Y-128277380D01*
X103238095Y-128277380D01*
X103142857Y-128229761D01*
X103095238Y-128182142D01*
X103047619Y-128086904D01*
X103047619Y-127801190D01*
X103095238Y-127705952D01*
X103142857Y-127658333D01*
X103238095Y-127610714D01*
X103428571Y-127610714D01*
X103523809Y-127658333D01*
X104428571Y-128277380D02*
X104428571Y-127753571D01*
X104380952Y-127658333D01*
X104285714Y-127610714D01*
X104095238Y-127610714D01*
X104000000Y-127658333D01*
X104428571Y-128229761D02*
X104333333Y-128277380D01*
X104095238Y-128277380D01*
X104000000Y-128229761D01*
X103952380Y-128134523D01*
X103952380Y-128039285D01*
X104000000Y-127944047D01*
X104095238Y-127896428D01*
X104333333Y-127896428D01*
X104428571Y-127848809D01*
X104904761Y-127610714D02*
X104904761Y-128277380D01*
X104904761Y-127705952D02*
X104952380Y-127658333D01*
X105047619Y-127610714D01*
X105190476Y-127610714D01*
X105285714Y-127658333D01*
X105333333Y-127753571D01*
X105333333Y-128277380D01*
X106190476Y-128229761D02*
X106095238Y-128277380D01*
X105904761Y-128277380D01*
X105809523Y-128229761D01*
X105761904Y-128134523D01*
X105761904Y-127753571D01*
X105809523Y-127658333D01*
X105904761Y-127610714D01*
X106095238Y-127610714D01*
X106190476Y-127658333D01*
X106238095Y-127753571D01*
X106238095Y-127848809D01*
X105761904Y-127944047D01*
X106523809Y-127610714D02*
X106904761Y-127610714D01*
X106666666Y-127277380D02*
X106666666Y-128134523D01*
X106714285Y-128229761D01*
X106809523Y-128277380D01*
X106904761Y-128277380D01*
X107666666Y-128277380D02*
X107666666Y-127753571D01*
X107619047Y-127658333D01*
X107523809Y-127610714D01*
X107333333Y-127610714D01*
X107238095Y-127658333D01*
X107666666Y-128229761D02*
X107571428Y-128277380D01*
X107333333Y-128277380D01*
X107238095Y-128229761D01*
X107190476Y-128134523D01*
X107190476Y-128039285D01*
X107238095Y-127944047D01*
X107333333Y-127896428D01*
X107571428Y-127896428D01*
X107666666Y-127848809D01*
X108571428Y-128277380D02*
X108571428Y-127753571D01*
X108523809Y-127658333D01*
X108428571Y-127610714D01*
X108238095Y-127610714D01*
X108142857Y-127658333D01*
X108571428Y-128229761D02*
X108476190Y-128277380D01*
X108238095Y-128277380D01*
X108142857Y-128229761D01*
X108095238Y-128134523D01*
X108095238Y-128039285D01*
X108142857Y-127944047D01*
X108238095Y-127896428D01*
X108476190Y-127896428D01*
X108571428Y-127848809D01*
X109476190Y-128277380D02*
X109476190Y-127753571D01*
X109428571Y-127658333D01*
X109333333Y-127610714D01*
X109142857Y-127610714D01*
X109047619Y-127658333D01*
X109476190Y-128229761D02*
X109380952Y-128277380D01*
X109142857Y-128277380D01*
X109047619Y-128229761D01*
X109000000Y-128134523D01*
X109000000Y-128039285D01*
X109047619Y-127944047D01*
X109142857Y-127896428D01*
X109380952Y-127896428D01*
X109476190Y-127848809D01*
X109952380Y-127610714D02*
X109952380Y-128277380D01*
X109952380Y-127705952D02*
X110000000Y-127658333D01*
X110095238Y-127610714D01*
X110238095Y-127610714D01*
X110333333Y-127658333D01*
X110380952Y-127753571D01*
X110380952Y-128277380D01*
X148595238Y-126427380D02*
X148595238Y-125427380D01*
X148928571Y-126141666D01*
X149261904Y-125427380D01*
X149261904Y-126427380D01*
X150214285Y-125427380D02*
X149738095Y-125427380D01*
X149690476Y-125903571D01*
X149738095Y-125855952D01*
X149833333Y-125808333D01*
X150071428Y-125808333D01*
X150166666Y-125855952D01*
X150214285Y-125903571D01*
X150261904Y-125998809D01*
X150261904Y-126236904D01*
X150214285Y-126332142D01*
X150166666Y-126379761D01*
X150071428Y-126427380D01*
X149833333Y-126427380D01*
X149738095Y-126379761D01*
X149690476Y-126332142D01*
X150690476Y-126427380D02*
X150690476Y-125427380D01*
X151023809Y-126141666D01*
X151357142Y-125427380D01*
X151357142Y-126427380D01*
X151976190Y-126427380D02*
X151880952Y-126379761D01*
X151833333Y-126332142D01*
X151785714Y-126236904D01*
X151785714Y-125951190D01*
X151833333Y-125855952D01*
X151880952Y-125808333D01*
X151976190Y-125760714D01*
X152119047Y-125760714D01*
X152214285Y-125808333D01*
X152261904Y-125855952D01*
X152309523Y-125951190D01*
X152309523Y-126236904D01*
X152261904Y-126332142D01*
X152214285Y-126379761D01*
X152119047Y-126427380D01*
X151976190Y-126427380D01*
X153166666Y-125760714D02*
X153166666Y-126427380D01*
X152738095Y-125760714D02*
X152738095Y-126284523D01*
X152785714Y-126379761D01*
X152880952Y-126427380D01*
X153023809Y-126427380D01*
X153119047Y-126379761D01*
X153166666Y-126332142D01*
X153595238Y-126379761D02*
X153690476Y-126427380D01*
X153880952Y-126427380D01*
X153976190Y-126379761D01*
X154023809Y-126284523D01*
X154023809Y-126236904D01*
X153976190Y-126141666D01*
X153880952Y-126094047D01*
X153738095Y-126094047D01*
X153642857Y-126046428D01*
X153595238Y-125951190D01*
X153595238Y-125903571D01*
X153642857Y-125808333D01*
X153738095Y-125760714D01*
X153880952Y-125760714D01*
X153976190Y-125808333D01*
X154833333Y-126379761D02*
X154738095Y-126427380D01*
X154547619Y-126427380D01*
X154452380Y-126379761D01*
X154404761Y-126284523D01*
X154404761Y-125903571D01*
X154452380Y-125808333D01*
X154547619Y-125760714D01*
X154738095Y-125760714D01*
X154833333Y-125808333D01*
X154880952Y-125903571D01*
X154880952Y-125998809D01*
X154404761Y-126094047D01*
X156023809Y-125379761D02*
X155166666Y-126665476D01*
X156357142Y-126427380D02*
X156357142Y-125427380D01*
X156690476Y-126141666D01*
X157023809Y-125427380D01*
X157023809Y-126427380D01*
X157642857Y-126427380D02*
X157547619Y-126379761D01*
X157500000Y-126332142D01*
X157452380Y-126236904D01*
X157452380Y-125951190D01*
X157500000Y-125855952D01*
X157547619Y-125808333D01*
X157642857Y-125760714D01*
X157785714Y-125760714D01*
X157880952Y-125808333D01*
X157928571Y-125855952D01*
X157976190Y-125951190D01*
X157976190Y-126236904D01*
X157928571Y-126332142D01*
X157880952Y-126379761D01*
X157785714Y-126427380D01*
X157642857Y-126427380D01*
X158833333Y-125760714D02*
X158833333Y-126427380D01*
X158404761Y-125760714D02*
X158404761Y-126284523D01*
X158452380Y-126379761D01*
X158547619Y-126427380D01*
X158690476Y-126427380D01*
X158785714Y-126379761D01*
X158833333Y-126332142D01*
X159261904Y-126379761D02*
X159357142Y-126427380D01*
X159547619Y-126427380D01*
X159642857Y-126379761D01*
X159690476Y-126284523D01*
X159690476Y-126236904D01*
X159642857Y-126141666D01*
X159547619Y-126094047D01*
X159404761Y-126094047D01*
X159309523Y-126046428D01*
X159261904Y-125951190D01*
X159261904Y-125903571D01*
X159309523Y-125808333D01*
X159404761Y-125760714D01*
X159547619Y-125760714D01*
X159642857Y-125808333D01*
X160500000Y-126379761D02*
X160404761Y-126427380D01*
X160214285Y-126427380D01*
X160119047Y-126379761D01*
X160071428Y-126284523D01*
X160071428Y-125903571D01*
X160119047Y-125808333D01*
X160214285Y-125760714D01*
X160404761Y-125760714D01*
X160500000Y-125808333D01*
X160547619Y-125903571D01*
X160547619Y-125998809D01*
X160071428Y-126094047D01*
X160976190Y-125427380D02*
X160976190Y-126236904D01*
X161023809Y-126332142D01*
X161071428Y-126379761D01*
X161166666Y-126427380D01*
X161357142Y-126427380D01*
X161452380Y-126379761D01*
X161500000Y-126332142D01*
X161547619Y-126236904D01*
X161547619Y-125427380D01*
X162023809Y-125760714D02*
X162023809Y-126427380D01*
X162023809Y-125855952D02*
X162071428Y-125808333D01*
X162166666Y-125760714D01*
X162309523Y-125760714D01*
X162404761Y-125808333D01*
X162452380Y-125903571D01*
X162452380Y-126427380D01*
X162928571Y-126427380D02*
X162928571Y-125760714D01*
X162928571Y-125427380D02*
X162880952Y-125475000D01*
X162928571Y-125522619D01*
X162976190Y-125475000D01*
X162928571Y-125427380D01*
X162928571Y-125522619D01*
X163261904Y-125760714D02*
X163642857Y-125760714D01*
X163404761Y-125427380D02*
X163404761Y-126284523D01*
X163452380Y-126379761D01*
X163547619Y-126427380D01*
X163642857Y-126427380D01*
X164642857Y-125760714D02*
X164880952Y-126427380D01*
X165119047Y-125760714D01*
X165690476Y-125427380D02*
X165785714Y-125427380D01*
X165880952Y-125475000D01*
X165928571Y-125522619D01*
X165976190Y-125617857D01*
X166023809Y-125808333D01*
X166023809Y-126046428D01*
X165976190Y-126236904D01*
X165928571Y-126332142D01*
X165880952Y-126379761D01*
X165785714Y-126427380D01*
X165690476Y-126427380D01*
X165595238Y-126379761D01*
X165547619Y-126332142D01*
X165500000Y-126236904D01*
X165452380Y-126046428D01*
X165452380Y-125808333D01*
X165500000Y-125617857D01*
X165547619Y-125522619D01*
X165595238Y-125475000D01*
X165690476Y-125427380D01*
X166452380Y-126332142D02*
X166500000Y-126379761D01*
X166452380Y-126427380D01*
X166404761Y-126379761D01*
X166452380Y-126332142D01*
X166452380Y-126427380D01*
X167452380Y-126427380D02*
X166880952Y-126427380D01*
X167166666Y-126427380D02*
X167166666Y-125427380D01*
X167071428Y-125570238D01*
X166976190Y-125665476D01*
X166880952Y-125713095D01*
X153238095Y-127601190D02*
X153190476Y-127553571D01*
X153095238Y-127505952D01*
X153000000Y-127505952D01*
X152904761Y-127553571D01*
X152857142Y-127601190D01*
X152809523Y-127696428D01*
X152809523Y-127791666D01*
X152857142Y-127886904D01*
X152904761Y-127934523D01*
X153000000Y-127982142D01*
X153095238Y-127982142D01*
X153190476Y-127934523D01*
X153238095Y-127886904D01*
X153238095Y-127505952D02*
X153238095Y-127886904D01*
X153285714Y-127934523D01*
X153333333Y-127934523D01*
X153428571Y-127886904D01*
X153476190Y-127791666D01*
X153476190Y-127553571D01*
X153380952Y-127410714D01*
X153238095Y-127315476D01*
X153047619Y-127267857D01*
X152857142Y-127315476D01*
X152714285Y-127410714D01*
X152619047Y-127553571D01*
X152571428Y-127744047D01*
X152619047Y-127934523D01*
X152714285Y-128077380D01*
X152857142Y-128172619D01*
X153047619Y-128220238D01*
X153238095Y-128172619D01*
X153380952Y-128077380D01*
X153904761Y-128077380D02*
X153904761Y-127410714D01*
X153904761Y-127505952D02*
X153952380Y-127458333D01*
X154047619Y-127410714D01*
X154190476Y-127410714D01*
X154285714Y-127458333D01*
X154333333Y-127553571D01*
X154333333Y-128077380D01*
X154333333Y-127553571D02*
X154380952Y-127458333D01*
X154476190Y-127410714D01*
X154619047Y-127410714D01*
X154714285Y-127458333D01*
X154761904Y-127553571D01*
X154761904Y-128077380D01*
X155619047Y-128029761D02*
X155523809Y-128077380D01*
X155333333Y-128077380D01*
X155238095Y-128029761D01*
X155190476Y-127934523D01*
X155190476Y-127553571D01*
X155238095Y-127458333D01*
X155333333Y-127410714D01*
X155523809Y-127410714D01*
X155619047Y-127458333D01*
X155666666Y-127553571D01*
X155666666Y-127648809D01*
X155190476Y-127744047D01*
X156523809Y-127410714D02*
X156523809Y-128220238D01*
X156476190Y-128315476D01*
X156428571Y-128363095D01*
X156333333Y-128410714D01*
X156190476Y-128410714D01*
X156095238Y-128363095D01*
X156523809Y-128029761D02*
X156428571Y-128077380D01*
X156238095Y-128077380D01*
X156142857Y-128029761D01*
X156095238Y-127982142D01*
X156047619Y-127886904D01*
X156047619Y-127601190D01*
X156095238Y-127505952D01*
X156142857Y-127458333D01*
X156238095Y-127410714D01*
X156428571Y-127410714D01*
X156523809Y-127458333D01*
X157428571Y-128077380D02*
X157428571Y-127553571D01*
X157380952Y-127458333D01*
X157285714Y-127410714D01*
X157095238Y-127410714D01*
X157000000Y-127458333D01*
X157428571Y-128029761D02*
X157333333Y-128077380D01*
X157095238Y-128077380D01*
X157000000Y-128029761D01*
X156952380Y-127934523D01*
X156952380Y-127839285D01*
X157000000Y-127744047D01*
X157095238Y-127696428D01*
X157333333Y-127696428D01*
X157428571Y-127648809D01*
X157904761Y-127410714D02*
X157904761Y-128077380D01*
X157904761Y-127505952D02*
X157952380Y-127458333D01*
X158047619Y-127410714D01*
X158190476Y-127410714D01*
X158285714Y-127458333D01*
X158333333Y-127553571D01*
X158333333Y-128077380D01*
X159190476Y-128029761D02*
X159095238Y-128077380D01*
X158904761Y-128077380D01*
X158809523Y-128029761D01*
X158761904Y-127934523D01*
X158761904Y-127553571D01*
X158809523Y-127458333D01*
X158904761Y-127410714D01*
X159095238Y-127410714D01*
X159190476Y-127458333D01*
X159238095Y-127553571D01*
X159238095Y-127648809D01*
X158761904Y-127744047D01*
X159523809Y-127410714D02*
X159904761Y-127410714D01*
X159666666Y-127077380D02*
X159666666Y-127934523D01*
X159714285Y-128029761D01*
X159809523Y-128077380D01*
X159904761Y-128077380D01*
X160666666Y-128077380D02*
X160666666Y-127553571D01*
X160619047Y-127458333D01*
X160523809Y-127410714D01*
X160333333Y-127410714D01*
X160238095Y-127458333D01*
X160666666Y-128029761D02*
X160571428Y-128077380D01*
X160333333Y-128077380D01*
X160238095Y-128029761D01*
X160190476Y-127934523D01*
X160190476Y-127839285D01*
X160238095Y-127744047D01*
X160333333Y-127696428D01*
X160571428Y-127696428D01*
X160666666Y-127648809D01*
X161571428Y-128077380D02*
X161571428Y-127553571D01*
X161523809Y-127458333D01*
X161428571Y-127410714D01*
X161238095Y-127410714D01*
X161142857Y-127458333D01*
X161571428Y-128029761D02*
X161476190Y-128077380D01*
X161238095Y-128077380D01*
X161142857Y-128029761D01*
X161095238Y-127934523D01*
X161095238Y-127839285D01*
X161142857Y-127744047D01*
X161238095Y-127696428D01*
X161476190Y-127696428D01*
X161571428Y-127648809D01*
X162476190Y-128077380D02*
X162476190Y-127553571D01*
X162428571Y-127458333D01*
X162333333Y-127410714D01*
X162142857Y-127410714D01*
X162047619Y-127458333D01*
X162476190Y-128029761D02*
X162380952Y-128077380D01*
X162142857Y-128077380D01*
X162047619Y-128029761D01*
X162000000Y-127934523D01*
X162000000Y-127839285D01*
X162047619Y-127744047D01*
X162142857Y-127696428D01*
X162380952Y-127696428D01*
X162476190Y-127648809D01*
X162952380Y-127410714D02*
X162952380Y-128077380D01*
X162952380Y-127505952D02*
X163000000Y-127458333D01*
X163095238Y-127410714D01*
X163238095Y-127410714D01*
X163333333Y-127458333D01*
X163380952Y-127553571D01*
X163380952Y-128077380D01*
D11*
G36*
X113158570Y-115432371D02*
G01*
X113040795Y-115762767D01*
X112810205Y-116042764D01*
X112481124Y-116233442D01*
X112459238Y-116240968D01*
X112059148Y-116314125D01*
X111573894Y-116314095D01*
X111068573Y-116245769D01*
X110608280Y-116114038D01*
X110570921Y-116099089D01*
X110118842Y-115912931D01*
X110174849Y-116910299D01*
X110195910Y-117400129D01*
X110192825Y-117787834D01*
X110161018Y-118139489D01*
X110095915Y-118521165D01*
X110047191Y-118754334D01*
X109946836Y-119313381D01*
X109871874Y-119926370D01*
X109824452Y-120550635D01*
X109806715Y-121143512D01*
X109820809Y-121662338D01*
X109868880Y-122064446D01*
X109878469Y-122109109D01*
X110102723Y-122746376D01*
X110469479Y-123307581D01*
X110719715Y-123576350D01*
X110962941Y-123856970D01*
X111053470Y-124099830D01*
X110993076Y-124336541D01*
X110783535Y-124598712D01*
X110777467Y-124604800D01*
X110594459Y-124770510D01*
X110427210Y-124856705D01*
X110206555Y-124888815D01*
X109994300Y-124892733D01*
X109662451Y-124874965D01*
X109249679Y-124828083D01*
X108839877Y-124761819D01*
X108801396Y-124754324D01*
X108634246Y-124723301D01*
X108634246Y-105569210D01*
X108599180Y-105224175D01*
X108453456Y-104905327D01*
X108200116Y-104648356D01*
X107882724Y-104499514D01*
X107528931Y-104481229D01*
X107177902Y-104597717D01*
X106875808Y-104820073D01*
X106668815Y-105119394D01*
X106614533Y-105293477D01*
X106625886Y-105651149D01*
X106768439Y-106002774D01*
X107013559Y-106286389D01*
X107102072Y-106348496D01*
X107426759Y-106492012D01*
X107744164Y-106498861D01*
X108045080Y-106404551D01*
X108360237Y-106195087D01*
X108555612Y-105904743D01*
X108634246Y-105569210D01*
X108634246Y-124723301D01*
X108443344Y-124687870D01*
X108189427Y-124659379D01*
X107978756Y-124668848D01*
X107750446Y-124716274D01*
X107610508Y-124754258D01*
X107103238Y-124847361D01*
X106493735Y-124881666D01*
X105838318Y-124857836D01*
X105193305Y-124776535D01*
X104927000Y-124722655D01*
X104290494Y-124560386D01*
X103800944Y-124400777D01*
X103466959Y-124246881D01*
X103350863Y-124164128D01*
X103235088Y-124084019D01*
X103118456Y-124099361D01*
X102969246Y-124187524D01*
X102664162Y-124303954D01*
X102259593Y-124341885D01*
X101804881Y-124303591D01*
X101349366Y-124191347D01*
X101124037Y-124102446D01*
X100665871Y-123871935D01*
X100340569Y-123653018D01*
X100115958Y-123419379D01*
X99963672Y-123153372D01*
X99869119Y-122892279D01*
X99847859Y-122653526D01*
X99887919Y-122360125D01*
X99995849Y-121932376D01*
X100141188Y-121649627D01*
X100345340Y-121488304D01*
X100629712Y-121424830D01*
X100740309Y-121421334D01*
X100922349Y-121406677D01*
X100976759Y-121338915D01*
X100958101Y-121230834D01*
X100809384Y-120474154D01*
X100748124Y-119664934D01*
X100756345Y-119213243D01*
X100809014Y-118725716D01*
X100918231Y-118278475D01*
X101099720Y-117835311D01*
X101369200Y-117360011D01*
X101742395Y-116816365D01*
X101874578Y-116637667D01*
X102098055Y-116340098D01*
X102268623Y-116107934D01*
X102401474Y-115910846D01*
X102511805Y-115718509D01*
X102614811Y-115500596D01*
X102725686Y-115226781D01*
X102859626Y-114866735D01*
X103031826Y-114390134D01*
X103111848Y-114168299D01*
X103476808Y-113129493D01*
X103785154Y-112191912D01*
X104032575Y-111369643D01*
X104214762Y-110676775D01*
X104299009Y-110287667D01*
X104340161Y-110003067D01*
X104373872Y-109639812D01*
X104398963Y-109235777D01*
X104414254Y-108828837D01*
X104418565Y-108456868D01*
X104410717Y-108157745D01*
X104389532Y-107969343D01*
X104372507Y-107927348D01*
X104283211Y-107944397D01*
X104073301Y-108024950D01*
X103773344Y-108156242D01*
X103413910Y-108325508D01*
X103383118Y-108340495D01*
X102811140Y-108615571D01*
X102351256Y-108821423D01*
X101965279Y-108966860D01*
X101615020Y-109060689D01*
X101262292Y-109111717D01*
X100868906Y-109128753D01*
X100396674Y-109120604D01*
X100058667Y-109107249D01*
X99152402Y-109056064D01*
X98359409Y-108986813D01*
X97688960Y-108901233D01*
X97150329Y-108801056D01*
X96752787Y-108688017D01*
X96505608Y-108563848D01*
X96418064Y-108430285D01*
X96418000Y-108426506D01*
X96477577Y-108171303D01*
X96644148Y-107827634D01*
X96899478Y-107421010D01*
X97225328Y-106976943D01*
X97603461Y-106520942D01*
X98015640Y-106078520D01*
X98278683Y-105823716D01*
X99054118Y-105178843D01*
X99829308Y-104691290D01*
X100629203Y-104350931D01*
X101478756Y-104147638D01*
X102402918Y-104071284D01*
X102598667Y-104070353D01*
X102980395Y-104081995D01*
X103358441Y-104108128D01*
X103636645Y-104141081D01*
X103864763Y-104175292D01*
X104000095Y-104189066D01*
X104017645Y-104185666D01*
X103938089Y-104141854D01*
X103735509Y-104037034D01*
X103438409Y-103885787D01*
X103075291Y-103702693D01*
X102979667Y-103654719D01*
X102334533Y-103323070D01*
X101822674Y-103038393D01*
X101420441Y-102784034D01*
X101104185Y-102543341D01*
X100850254Y-102299660D01*
X100634999Y-102036340D01*
X100588087Y-101970692D01*
X100260725Y-101458618D01*
X99963471Y-100911165D01*
X99707907Y-100358089D01*
X99505612Y-99829142D01*
X99368165Y-99354076D01*
X99307146Y-98962646D01*
X99323270Y-98720863D01*
X99459720Y-98495751D01*
X99724121Y-98363773D01*
X100103985Y-98323459D01*
X100586821Y-98373340D01*
X101160140Y-98511946D01*
X101811453Y-98737807D01*
X102528268Y-99049453D01*
X102661547Y-99113695D01*
X103177296Y-99380848D01*
X103586769Y-99632350D01*
X103944815Y-99904628D01*
X104210602Y-100142503D01*
X104739602Y-100701617D01*
X105204206Y-101310539D01*
X105583735Y-101935348D01*
X105857511Y-102542122D01*
X106002555Y-103081925D01*
X106078933Y-103268535D01*
X106245693Y-103352811D01*
X106521696Y-103338871D01*
X106826675Y-103261946D01*
X107139947Y-103177723D01*
X107391122Y-103147765D01*
X107664197Y-103167951D01*
X107908722Y-103208855D01*
X108467467Y-103347533D01*
X108966164Y-103557154D01*
X109447392Y-103861396D01*
X109953728Y-104283939D01*
X110115874Y-104436335D01*
X110411698Y-104730196D01*
X110670012Y-105004916D01*
X110860329Y-105226959D01*
X110945999Y-105349490D01*
X111045298Y-105685529D01*
X111063453Y-106108912D01*
X111003652Y-106560141D01*
X110869086Y-106979721D01*
X110857228Y-107005770D01*
X110589256Y-107453514D01*
X110219107Y-107902579D01*
X109800070Y-108294777D01*
X109459580Y-108531863D01*
X109239471Y-108658019D01*
X109090337Y-108743968D01*
X109053608Y-108765515D01*
X109078104Y-108842666D01*
X109161623Y-109040136D01*
X109290054Y-109325519D01*
X109406510Y-109575948D01*
X109571878Y-109953460D01*
X109765950Y-110437757D01*
X109967578Y-110973794D01*
X110155612Y-111506528D01*
X110205792Y-111656212D01*
X110360488Y-112115444D01*
X110507469Y-112535806D01*
X110634236Y-112882695D01*
X110728291Y-113121509D01*
X110760837Y-113192880D01*
X110889019Y-113376454D01*
X111086101Y-113592838D01*
X111310232Y-113803366D01*
X111519559Y-113969370D01*
X111672229Y-114052184D01*
X111694407Y-114055400D01*
X111872337Y-114100412D01*
X112136121Y-114216368D01*
X112434453Y-114374912D01*
X112716024Y-114547690D01*
X112929529Y-114706346D01*
X112998378Y-114776066D01*
X113149206Y-115090497D01*
X113158570Y-115432371D01*
G37*
X113158570Y-115432371D02*
X113040795Y-115762767D01*
X112810205Y-116042764D01*
X112481124Y-116233442D01*
X112459238Y-116240968D01*
X112059148Y-116314125D01*
X111573894Y-116314095D01*
X111068573Y-116245769D01*
X110608280Y-116114038D01*
X110570921Y-116099089D01*
X110118842Y-115912931D01*
X110174849Y-116910299D01*
X110195910Y-117400129D01*
X110192825Y-117787834D01*
X110161018Y-118139489D01*
X110095915Y-118521165D01*
X110047191Y-118754334D01*
X109946836Y-119313381D01*
X109871874Y-119926370D01*
X109824452Y-120550635D01*
X109806715Y-121143512D01*
X109820809Y-121662338D01*
X109868880Y-122064446D01*
X109878469Y-122109109D01*
X110102723Y-122746376D01*
X110469479Y-123307581D01*
X110719715Y-123576350D01*
X110962941Y-123856970D01*
X111053470Y-124099830D01*
X110993076Y-124336541D01*
X110783535Y-124598712D01*
X110777467Y-124604800D01*
X110594459Y-124770510D01*
X110427210Y-124856705D01*
X110206555Y-124888815D01*
X109994300Y-124892733D01*
X109662451Y-124874965D01*
X109249679Y-124828083D01*
X108839877Y-124761819D01*
X108801396Y-124754324D01*
X108634246Y-124723301D01*
X108634246Y-105569210D01*
X108599180Y-105224175D01*
X108453456Y-104905327D01*
X108200116Y-104648356D01*
X107882724Y-104499514D01*
X107528931Y-104481229D01*
X107177902Y-104597717D01*
X106875808Y-104820073D01*
X106668815Y-105119394D01*
X106614533Y-105293477D01*
X106625886Y-105651149D01*
X106768439Y-106002774D01*
X107013559Y-106286389D01*
X107102072Y-106348496D01*
X107426759Y-106492012D01*
X107744164Y-106498861D01*
X108045080Y-106404551D01*
X108360237Y-106195087D01*
X108555612Y-105904743D01*
X108634246Y-105569210D01*
X108634246Y-124723301D01*
X108443344Y-124687870D01*
X108189427Y-124659379D01*
X107978756Y-124668848D01*
X107750446Y-124716274D01*
X107610508Y-124754258D01*
X107103238Y-124847361D01*
X106493735Y-124881666D01*
X105838318Y-124857836D01*
X105193305Y-124776535D01*
X104927000Y-124722655D01*
X104290494Y-124560386D01*
X103800944Y-124400777D01*
X103466959Y-124246881D01*
X103350863Y-124164128D01*
X103235088Y-124084019D01*
X103118456Y-124099361D01*
X102969246Y-124187524D01*
X102664162Y-124303954D01*
X102259593Y-124341885D01*
X101804881Y-124303591D01*
X101349366Y-124191347D01*
X101124037Y-124102446D01*
X100665871Y-123871935D01*
X100340569Y-123653018D01*
X100115958Y-123419379D01*
X99963672Y-123153372D01*
X99869119Y-122892279D01*
X99847859Y-122653526D01*
X99887919Y-122360125D01*
X99995849Y-121932376D01*
X100141188Y-121649627D01*
X100345340Y-121488304D01*
X100629712Y-121424830D01*
X100740309Y-121421334D01*
X100922349Y-121406677D01*
X100976759Y-121338915D01*
X100958101Y-121230834D01*
X100809384Y-120474154D01*
X100748124Y-119664934D01*
X100756345Y-119213243D01*
X100809014Y-118725716D01*
X100918231Y-118278475D01*
X101099720Y-117835311D01*
X101369200Y-117360011D01*
X101742395Y-116816365D01*
X101874578Y-116637667D01*
X102098055Y-116340098D01*
X102268623Y-116107934D01*
X102401474Y-115910846D01*
X102511805Y-115718509D01*
X102614811Y-115500596D01*
X102725686Y-115226781D01*
X102859626Y-114866735D01*
X103031826Y-114390134D01*
X103111848Y-114168299D01*
X103476808Y-113129493D01*
X103785154Y-112191912D01*
X104032575Y-111369643D01*
X104214762Y-110676775D01*
X104299009Y-110287667D01*
X104340161Y-110003067D01*
X104373872Y-109639812D01*
X104398963Y-109235777D01*
X104414254Y-108828837D01*
X104418565Y-108456868D01*
X104410717Y-108157745D01*
X104389532Y-107969343D01*
X104372507Y-107927348D01*
X104283211Y-107944397D01*
X104073301Y-108024950D01*
X103773344Y-108156242D01*
X103413910Y-108325508D01*
X103383118Y-108340495D01*
X102811140Y-108615571D01*
X102351256Y-108821423D01*
X101965279Y-108966860D01*
X101615020Y-109060689D01*
X101262292Y-109111717D01*
X100868906Y-109128753D01*
X100396674Y-109120604D01*
X100058667Y-109107249D01*
X99152402Y-109056064D01*
X98359409Y-108986813D01*
X97688960Y-108901233D01*
X97150329Y-108801056D01*
X96752787Y-108688017D01*
X96505608Y-108563848D01*
X96418064Y-108430285D01*
X96418000Y-108426506D01*
X96477577Y-108171303D01*
X96644148Y-107827634D01*
X96899478Y-107421010D01*
X97225328Y-106976943D01*
X97603461Y-106520942D01*
X98015640Y-106078520D01*
X98278683Y-105823716D01*
X99054118Y-105178843D01*
X99829308Y-104691290D01*
X100629203Y-104350931D01*
X101478756Y-104147638D01*
X102402918Y-104071284D01*
X102598667Y-104070353D01*
X102980395Y-104081995D01*
X103358441Y-104108128D01*
X103636645Y-104141081D01*
X103864763Y-104175292D01*
X104000095Y-104189066D01*
X104017645Y-104185666D01*
X103938089Y-104141854D01*
X103735509Y-104037034D01*
X103438409Y-103885787D01*
X103075291Y-103702693D01*
X102979667Y-103654719D01*
X102334533Y-103323070D01*
X101822674Y-103038393D01*
X101420441Y-102784034D01*
X101104185Y-102543341D01*
X100850254Y-102299660D01*
X100634999Y-102036340D01*
X100588087Y-101970692D01*
X100260725Y-101458618D01*
X99963471Y-100911165D01*
X99707907Y-100358089D01*
X99505612Y-99829142D01*
X99368165Y-99354076D01*
X99307146Y-98962646D01*
X99323270Y-98720863D01*
X99459720Y-98495751D01*
X99724121Y-98363773D01*
X100103985Y-98323459D01*
X100586821Y-98373340D01*
X101160140Y-98511946D01*
X101811453Y-98737807D01*
X102528268Y-99049453D01*
X102661547Y-99113695D01*
X103177296Y-99380848D01*
X103586769Y-99632350D01*
X103944815Y-99904628D01*
X104210602Y-100142503D01*
X104739602Y-100701617D01*
X105204206Y-101310539D01*
X105583735Y-101935348D01*
X105857511Y-102542122D01*
X106002555Y-103081925D01*
X106078933Y-103268535D01*
X106245693Y-103352811D01*
X106521696Y-103338871D01*
X106826675Y-103261946D01*
X107139947Y-103177723D01*
X107391122Y-103147765D01*
X107664197Y-103167951D01*
X107908722Y-103208855D01*
X108467467Y-103347533D01*
X108966164Y-103557154D01*
X109447392Y-103861396D01*
X109953728Y-104283939D01*
X110115874Y-104436335D01*
X110411698Y-104730196D01*
X110670012Y-105004916D01*
X110860329Y-105226959D01*
X110945999Y-105349490D01*
X111045298Y-105685529D01*
X111063453Y-106108912D01*
X111003652Y-106560141D01*
X110869086Y-106979721D01*
X110857228Y-107005770D01*
X110589256Y-107453514D01*
X110219107Y-107902579D01*
X109800070Y-108294777D01*
X109459580Y-108531863D01*
X109239471Y-108658019D01*
X109090337Y-108743968D01*
X109053608Y-108765515D01*
X109078104Y-108842666D01*
X109161623Y-109040136D01*
X109290054Y-109325519D01*
X109406510Y-109575948D01*
X109571878Y-109953460D01*
X109765950Y-110437757D01*
X109967578Y-110973794D01*
X110155612Y-111506528D01*
X110205792Y-111656212D01*
X110360488Y-112115444D01*
X110507469Y-112535806D01*
X110634236Y-112882695D01*
X110728291Y-113121509D01*
X110760837Y-113192880D01*
X110889019Y-113376454D01*
X111086101Y-113592838D01*
X111310232Y-113803366D01*
X111519559Y-113969370D01*
X111672229Y-114052184D01*
X111694407Y-114055400D01*
X111872337Y-114100412D01*
X112136121Y-114216368D01*
X112434453Y-114374912D01*
X112716024Y-114547690D01*
X112929529Y-114706346D01*
X112998378Y-114776066D01*
X113149206Y-115090497D01*
X113158570Y-115432371D01*
G36*
X164958570Y-115232371D02*
G01*
X164840795Y-115562767D01*
X164610205Y-115842764D01*
X164281124Y-116033442D01*
X164259238Y-116040968D01*
X163859148Y-116114125D01*
X163373894Y-116114095D01*
X162868573Y-116045769D01*
X162408280Y-115914038D01*
X162370921Y-115899089D01*
X161918842Y-115712931D01*
X161974849Y-116710299D01*
X161995910Y-117200129D01*
X161992825Y-117587834D01*
X161961018Y-117939489D01*
X161895915Y-118321165D01*
X161847191Y-118554334D01*
X161746836Y-119113381D01*
X161671874Y-119726370D01*
X161624452Y-120350635D01*
X161606715Y-120943512D01*
X161620809Y-121462338D01*
X161668880Y-121864446D01*
X161678469Y-121909109D01*
X161902723Y-122546376D01*
X162269479Y-123107581D01*
X162519715Y-123376350D01*
X162762941Y-123656970D01*
X162853470Y-123899830D01*
X162793076Y-124136541D01*
X162583535Y-124398712D01*
X162577467Y-124404800D01*
X162394459Y-124570510D01*
X162227210Y-124656705D01*
X162006555Y-124688815D01*
X161794300Y-124692733D01*
X161462451Y-124674965D01*
X161049679Y-124628083D01*
X160639877Y-124561819D01*
X160601396Y-124554324D01*
X160434246Y-124523301D01*
X160434246Y-105369210D01*
X160399180Y-105024175D01*
X160253456Y-104705327D01*
X160000116Y-104448356D01*
X159682724Y-104299514D01*
X159328931Y-104281229D01*
X158977902Y-104397717D01*
X158675808Y-104620073D01*
X158468815Y-104919394D01*
X158414533Y-105093477D01*
X158425886Y-105451149D01*
X158568439Y-105802774D01*
X158813559Y-106086389D01*
X158902072Y-106148496D01*
X159226759Y-106292012D01*
X159544164Y-106298861D01*
X159845080Y-106204551D01*
X160160237Y-105995087D01*
X160355612Y-105704743D01*
X160434246Y-105369210D01*
X160434246Y-124523301D01*
X160243344Y-124487870D01*
X159989427Y-124459379D01*
X159778756Y-124468848D01*
X159550446Y-124516274D01*
X159410508Y-124554258D01*
X158903238Y-124647361D01*
X158293735Y-124681666D01*
X157638318Y-124657836D01*
X156993305Y-124576535D01*
X156727000Y-124522655D01*
X156090494Y-124360386D01*
X155600944Y-124200777D01*
X155266959Y-124046881D01*
X155150863Y-123964128D01*
X155035088Y-123884019D01*
X154918456Y-123899361D01*
X154769246Y-123987524D01*
X154464162Y-124103954D01*
X154059593Y-124141885D01*
X153604881Y-124103591D01*
X153149366Y-123991347D01*
X152924037Y-123902446D01*
X152465871Y-123671935D01*
X152140569Y-123453018D01*
X151915958Y-123219379D01*
X151763672Y-122953372D01*
X151669119Y-122692279D01*
X151647859Y-122453526D01*
X151687919Y-122160125D01*
X151795849Y-121732376D01*
X151941188Y-121449627D01*
X152145340Y-121288304D01*
X152429712Y-121224830D01*
X152540309Y-121221334D01*
X152722349Y-121206677D01*
X152776759Y-121138915D01*
X152758101Y-121030834D01*
X152609384Y-120274154D01*
X152548124Y-119464934D01*
X152556345Y-119013243D01*
X152609014Y-118525716D01*
X152718231Y-118078475D01*
X152899720Y-117635311D01*
X153169200Y-117160011D01*
X153542395Y-116616365D01*
X153674578Y-116437667D01*
X153898055Y-116140098D01*
X154068623Y-115907934D01*
X154201474Y-115710846D01*
X154311805Y-115518509D01*
X154414811Y-115300596D01*
X154525686Y-115026781D01*
X154659626Y-114666735D01*
X154831826Y-114190134D01*
X154911848Y-113968299D01*
X155276808Y-112929493D01*
X155585154Y-111991912D01*
X155832575Y-111169643D01*
X156014762Y-110476775D01*
X156099009Y-110087667D01*
X156140161Y-109803067D01*
X156173872Y-109439812D01*
X156198963Y-109035777D01*
X156214254Y-108628837D01*
X156218565Y-108256868D01*
X156210717Y-107957745D01*
X156189532Y-107769343D01*
X156172507Y-107727348D01*
X156083211Y-107744397D01*
X155873301Y-107824950D01*
X155573344Y-107956242D01*
X155213910Y-108125508D01*
X155183118Y-108140495D01*
X154611140Y-108415571D01*
X154151256Y-108621423D01*
X153765279Y-108766860D01*
X153415020Y-108860689D01*
X153062292Y-108911717D01*
X152668906Y-108928753D01*
X152196674Y-108920604D01*
X151858667Y-108907249D01*
X150952402Y-108856064D01*
X150159409Y-108786813D01*
X149488960Y-108701233D01*
X148950329Y-108601056D01*
X148552787Y-108488017D01*
X148305608Y-108363848D01*
X148218064Y-108230285D01*
X148218000Y-108226506D01*
X148277577Y-107971303D01*
X148444148Y-107627634D01*
X148699478Y-107221010D01*
X149025328Y-106776943D01*
X149403461Y-106320942D01*
X149815640Y-105878520D01*
X150078683Y-105623716D01*
X150854118Y-104978843D01*
X151629308Y-104491290D01*
X152429203Y-104150931D01*
X153278756Y-103947638D01*
X154202918Y-103871284D01*
X154398667Y-103870353D01*
X154780395Y-103881995D01*
X155158441Y-103908128D01*
X155436645Y-103941081D01*
X155664763Y-103975292D01*
X155800095Y-103989066D01*
X155817645Y-103985666D01*
X155738089Y-103941854D01*
X155535509Y-103837034D01*
X155238409Y-103685787D01*
X154875291Y-103502693D01*
X154779667Y-103454719D01*
X154134533Y-103123070D01*
X153622674Y-102838393D01*
X153220441Y-102584034D01*
X152904185Y-102343341D01*
X152650254Y-102099660D01*
X152434999Y-101836340D01*
X152388087Y-101770692D01*
X152060725Y-101258618D01*
X151763471Y-100711165D01*
X151507907Y-100158089D01*
X151305612Y-99629142D01*
X151168165Y-99154076D01*
X151107146Y-98762646D01*
X151123270Y-98520863D01*
X151259720Y-98295751D01*
X151524121Y-98163773D01*
X151903985Y-98123459D01*
X152386821Y-98173340D01*
X152960140Y-98311946D01*
X153611453Y-98537807D01*
X154328268Y-98849453D01*
X154461547Y-98913695D01*
X154977296Y-99180848D01*
X155386769Y-99432350D01*
X155744815Y-99704628D01*
X156010602Y-99942503D01*
X156539602Y-100501617D01*
X157004206Y-101110539D01*
X157383735Y-101735348D01*
X157657511Y-102342122D01*
X157802555Y-102881925D01*
X157878933Y-103068535D01*
X158045693Y-103152811D01*
X158321696Y-103138871D01*
X158626675Y-103061946D01*
X158939947Y-102977723D01*
X159191122Y-102947765D01*
X159464197Y-102967951D01*
X159708722Y-103008855D01*
X160267467Y-103147533D01*
X160766164Y-103357154D01*
X161247392Y-103661396D01*
X161753728Y-104083939D01*
X161915874Y-104236335D01*
X162211698Y-104530196D01*
X162470012Y-104804916D01*
X162660329Y-105026959D01*
X162745999Y-105149490D01*
X162845298Y-105485529D01*
X162863453Y-105908912D01*
X162803652Y-106360141D01*
X162669086Y-106779721D01*
X162657228Y-106805770D01*
X162389256Y-107253514D01*
X162019107Y-107702579D01*
X161600070Y-108094777D01*
X161259580Y-108331863D01*
X161039471Y-108458019D01*
X160890337Y-108543968D01*
X160853608Y-108565515D01*
X160878104Y-108642666D01*
X160961623Y-108840136D01*
X161090054Y-109125519D01*
X161206510Y-109375948D01*
X161371878Y-109753460D01*
X161565950Y-110237757D01*
X161767578Y-110773794D01*
X161955612Y-111306528D01*
X162005792Y-111456212D01*
X162160488Y-111915444D01*
X162307469Y-112335806D01*
X162434236Y-112682695D01*
X162528291Y-112921509D01*
X162560837Y-112992880D01*
X162689019Y-113176454D01*
X162886101Y-113392838D01*
X163110232Y-113603366D01*
X163319559Y-113769370D01*
X163472229Y-113852184D01*
X163494407Y-113855400D01*
X163672337Y-113900412D01*
X163936121Y-114016368D01*
X164234453Y-114174912D01*
X164516024Y-114347690D01*
X164729529Y-114506346D01*
X164798378Y-114576066D01*
X164949206Y-114890497D01*
X164958570Y-115232371D01*
G37*
X164958570Y-115232371D02*
X164840795Y-115562767D01*
X164610205Y-115842764D01*
X164281124Y-116033442D01*
X164259238Y-116040968D01*
X163859148Y-116114125D01*
X163373894Y-116114095D01*
X162868573Y-116045769D01*
X162408280Y-115914038D01*
X162370921Y-115899089D01*
X161918842Y-115712931D01*
X161974849Y-116710299D01*
X161995910Y-117200129D01*
X161992825Y-117587834D01*
X161961018Y-117939489D01*
X161895915Y-118321165D01*
X161847191Y-118554334D01*
X161746836Y-119113381D01*
X161671874Y-119726370D01*
X161624452Y-120350635D01*
X161606715Y-120943512D01*
X161620809Y-121462338D01*
X161668880Y-121864446D01*
X161678469Y-121909109D01*
X161902723Y-122546376D01*
X162269479Y-123107581D01*
X162519715Y-123376350D01*
X162762941Y-123656970D01*
X162853470Y-123899830D01*
X162793076Y-124136541D01*
X162583535Y-124398712D01*
X162577467Y-124404800D01*
X162394459Y-124570510D01*
X162227210Y-124656705D01*
X162006555Y-124688815D01*
X161794300Y-124692733D01*
X161462451Y-124674965D01*
X161049679Y-124628083D01*
X160639877Y-124561819D01*
X160601396Y-124554324D01*
X160434246Y-124523301D01*
X160434246Y-105369210D01*
X160399180Y-105024175D01*
X160253456Y-104705327D01*
X160000116Y-104448356D01*
X159682724Y-104299514D01*
X159328931Y-104281229D01*
X158977902Y-104397717D01*
X158675808Y-104620073D01*
X158468815Y-104919394D01*
X158414533Y-105093477D01*
X158425886Y-105451149D01*
X158568439Y-105802774D01*
X158813559Y-106086389D01*
X158902072Y-106148496D01*
X159226759Y-106292012D01*
X159544164Y-106298861D01*
X159845080Y-106204551D01*
X160160237Y-105995087D01*
X160355612Y-105704743D01*
X160434246Y-105369210D01*
X160434246Y-124523301D01*
X160243344Y-124487870D01*
X159989427Y-124459379D01*
X159778756Y-124468848D01*
X159550446Y-124516274D01*
X159410508Y-124554258D01*
X158903238Y-124647361D01*
X158293735Y-124681666D01*
X157638318Y-124657836D01*
X156993305Y-124576535D01*
X156727000Y-124522655D01*
X156090494Y-124360386D01*
X155600944Y-124200777D01*
X155266959Y-124046881D01*
X155150863Y-123964128D01*
X155035088Y-123884019D01*
X154918456Y-123899361D01*
X154769246Y-123987524D01*
X154464162Y-124103954D01*
X154059593Y-124141885D01*
X153604881Y-124103591D01*
X153149366Y-123991347D01*
X152924037Y-123902446D01*
X152465871Y-123671935D01*
X152140569Y-123453018D01*
X151915958Y-123219379D01*
X151763672Y-122953372D01*
X151669119Y-122692279D01*
X151647859Y-122453526D01*
X151687919Y-122160125D01*
X151795849Y-121732376D01*
X151941188Y-121449627D01*
X152145340Y-121288304D01*
X152429712Y-121224830D01*
X152540309Y-121221334D01*
X152722349Y-121206677D01*
X152776759Y-121138915D01*
X152758101Y-121030834D01*
X152609384Y-120274154D01*
X152548124Y-119464934D01*
X152556345Y-119013243D01*
X152609014Y-118525716D01*
X152718231Y-118078475D01*
X152899720Y-117635311D01*
X153169200Y-117160011D01*
X153542395Y-116616365D01*
X153674578Y-116437667D01*
X153898055Y-116140098D01*
X154068623Y-115907934D01*
X154201474Y-115710846D01*
X154311805Y-115518509D01*
X154414811Y-115300596D01*
X154525686Y-115026781D01*
X154659626Y-114666735D01*
X154831826Y-114190134D01*
X154911848Y-113968299D01*
X155276808Y-112929493D01*
X155585154Y-111991912D01*
X155832575Y-111169643D01*
X156014762Y-110476775D01*
X156099009Y-110087667D01*
X156140161Y-109803067D01*
X156173872Y-109439812D01*
X156198963Y-109035777D01*
X156214254Y-108628837D01*
X156218565Y-108256868D01*
X156210717Y-107957745D01*
X156189532Y-107769343D01*
X156172507Y-107727348D01*
X156083211Y-107744397D01*
X155873301Y-107824950D01*
X155573344Y-107956242D01*
X155213910Y-108125508D01*
X155183118Y-108140495D01*
X154611140Y-108415571D01*
X154151256Y-108621423D01*
X153765279Y-108766860D01*
X153415020Y-108860689D01*
X153062292Y-108911717D01*
X152668906Y-108928753D01*
X152196674Y-108920604D01*
X151858667Y-108907249D01*
X150952402Y-108856064D01*
X150159409Y-108786813D01*
X149488960Y-108701233D01*
X148950329Y-108601056D01*
X148552787Y-108488017D01*
X148305608Y-108363848D01*
X148218064Y-108230285D01*
X148218000Y-108226506D01*
X148277577Y-107971303D01*
X148444148Y-107627634D01*
X148699478Y-107221010D01*
X149025328Y-106776943D01*
X149403461Y-106320942D01*
X149815640Y-105878520D01*
X150078683Y-105623716D01*
X150854118Y-104978843D01*
X151629308Y-104491290D01*
X152429203Y-104150931D01*
X153278756Y-103947638D01*
X154202918Y-103871284D01*
X154398667Y-103870353D01*
X154780395Y-103881995D01*
X155158441Y-103908128D01*
X155436645Y-103941081D01*
X155664763Y-103975292D01*
X155800095Y-103989066D01*
X155817645Y-103985666D01*
X155738089Y-103941854D01*
X155535509Y-103837034D01*
X155238409Y-103685787D01*
X154875291Y-103502693D01*
X154779667Y-103454719D01*
X154134533Y-103123070D01*
X153622674Y-102838393D01*
X153220441Y-102584034D01*
X152904185Y-102343341D01*
X152650254Y-102099660D01*
X152434999Y-101836340D01*
X152388087Y-101770692D01*
X152060725Y-101258618D01*
X151763471Y-100711165D01*
X151507907Y-100158089D01*
X151305612Y-99629142D01*
X151168165Y-99154076D01*
X151107146Y-98762646D01*
X151123270Y-98520863D01*
X151259720Y-98295751D01*
X151524121Y-98163773D01*
X151903985Y-98123459D01*
X152386821Y-98173340D01*
X152960140Y-98311946D01*
X153611453Y-98537807D01*
X154328268Y-98849453D01*
X154461547Y-98913695D01*
X154977296Y-99180848D01*
X155386769Y-99432350D01*
X155744815Y-99704628D01*
X156010602Y-99942503D01*
X156539602Y-100501617D01*
X157004206Y-101110539D01*
X157383735Y-101735348D01*
X157657511Y-102342122D01*
X157802555Y-102881925D01*
X157878933Y-103068535D01*
X158045693Y-103152811D01*
X158321696Y-103138871D01*
X158626675Y-103061946D01*
X158939947Y-102977723D01*
X159191122Y-102947765D01*
X159464197Y-102967951D01*
X159708722Y-103008855D01*
X160267467Y-103147533D01*
X160766164Y-103357154D01*
X161247392Y-103661396D01*
X161753728Y-104083939D01*
X161915874Y-104236335D01*
X162211698Y-104530196D01*
X162470012Y-104804916D01*
X162660329Y-105026959D01*
X162745999Y-105149490D01*
X162845298Y-105485529D01*
X162863453Y-105908912D01*
X162803652Y-106360141D01*
X162669086Y-106779721D01*
X162657228Y-106805770D01*
X162389256Y-107253514D01*
X162019107Y-107702579D01*
X161600070Y-108094777D01*
X161259580Y-108331863D01*
X161039471Y-108458019D01*
X160890337Y-108543968D01*
X160853608Y-108565515D01*
X160878104Y-108642666D01*
X160961623Y-108840136D01*
X161090054Y-109125519D01*
X161206510Y-109375948D01*
X161371878Y-109753460D01*
X161565950Y-110237757D01*
X161767578Y-110773794D01*
X161955612Y-111306528D01*
X162005792Y-111456212D01*
X162160488Y-111915444D01*
X162307469Y-112335806D01*
X162434236Y-112682695D01*
X162528291Y-112921509D01*
X162560837Y-112992880D01*
X162689019Y-113176454D01*
X162886101Y-113392838D01*
X163110232Y-113603366D01*
X163319559Y-113769370D01*
X163472229Y-113852184D01*
X163494407Y-113855400D01*
X163672337Y-113900412D01*
X163936121Y-114016368D01*
X164234453Y-114174912D01*
X164516024Y-114347690D01*
X164729529Y-114506346D01*
X164798378Y-114576066D01*
X164949206Y-114890497D01*
X164958570Y-115232371D01*
D12*
X88800000Y-131000000D02*
X88800000Y-132020000D01*
X83600000Y-131000000D02*
X83600000Y-132020000D01*
X88800000Y-128460000D02*
X88800000Y-129480000D01*
X83600000Y-128460000D02*
X83600000Y-129480000D01*
X88800000Y-125920000D02*
X88800000Y-126940000D01*
X83600000Y-125920000D02*
X83600000Y-126940000D01*
X88800000Y-123380000D02*
X88800000Y-124400000D01*
X83600000Y-123380000D02*
X83600000Y-124400000D01*
X88800000Y-120840000D02*
X88800000Y-121860000D01*
X83600000Y-120840000D02*
X83600000Y-121860000D01*
X88800000Y-118300000D02*
X88800000Y-119320000D01*
X83600000Y-118300000D02*
X83600000Y-119320000D01*
X88800000Y-115760000D02*
X88800000Y-116780000D01*
X83600000Y-115760000D02*
X83600000Y-116780000D01*
X88800000Y-113220000D02*
X88800000Y-114240000D01*
X83600000Y-113220000D02*
X83600000Y-114240000D01*
X88800000Y-110680000D02*
X88800000Y-111700000D01*
X83600000Y-110680000D02*
X83600000Y-111700000D01*
X88800000Y-108140000D02*
X88800000Y-109160000D01*
X83600000Y-108140000D02*
X83600000Y-109160000D01*
X88800000Y-105600000D02*
X88800000Y-106620000D01*
X83600000Y-105600000D02*
X83600000Y-106620000D01*
X88800000Y-103060000D02*
X88800000Y-104080000D01*
X83600000Y-103060000D02*
X83600000Y-104080000D01*
X88800000Y-100520000D02*
X88800000Y-101540000D01*
X83600000Y-100520000D02*
X83600000Y-101540000D01*
X88800000Y-97980000D02*
X88800000Y-99000000D01*
X83600000Y-97980000D02*
X83600000Y-99000000D01*
X88800000Y-133540000D02*
X88800000Y-134110000D01*
X83600000Y-133540000D02*
X83600000Y-134110000D01*
X88800000Y-95890000D02*
X88800000Y-96460000D01*
X83600000Y-95890000D02*
X83600000Y-96460000D01*
X82160000Y-96460000D02*
X83600000Y-96460000D01*
X83600000Y-134110000D02*
X88800000Y-134110000D01*
X83600000Y-95890000D02*
X88800000Y-95890000D01*
X150320000Y-94530000D02*
X150320000Y-93200000D01*
X151650000Y-94530000D02*
X150320000Y-94530000D01*
X152920000Y-94530000D02*
X152920000Y-91870000D01*
X152920000Y-91870000D02*
X165680000Y-91870000D01*
X152920000Y-94530000D02*
X165680000Y-94530000D01*
X165680000Y-94530000D02*
X165680000Y-91870000D01*
D10*
X90166666Y-93452380D02*
X90166666Y-94166666D01*
X90119047Y-94309523D01*
X90023809Y-94404761D01*
X89880952Y-94452380D01*
X89785714Y-94452380D01*
X90595238Y-93547619D02*
X90642857Y-93500000D01*
X90738095Y-93452380D01*
X90976190Y-93452380D01*
X91071428Y-93500000D01*
X91119047Y-93547619D01*
X91166666Y-93642857D01*
X91166666Y-93738095D01*
X91119047Y-93880952D01*
X90547619Y-94452380D01*
X91166666Y-94452380D01*
X157316666Y-95152380D02*
X157316666Y-95866666D01*
X157269047Y-96009523D01*
X157173809Y-96104761D01*
X157030952Y-96152380D01*
X156935714Y-96152380D01*
X157935714Y-95580952D02*
X157840476Y-95533333D01*
X157792857Y-95485714D01*
X157745238Y-95390476D01*
X157745238Y-95342857D01*
X157792857Y-95247619D01*
X157840476Y-95200000D01*
X157935714Y-95152380D01*
X158126190Y-95152380D01*
X158221428Y-95200000D01*
X158269047Y-95247619D01*
X158316666Y-95342857D01*
X158316666Y-95390476D01*
X158269047Y-95485714D01*
X158221428Y-95533333D01*
X158126190Y-95580952D01*
X157935714Y-95580952D01*
X157840476Y-95628571D01*
X157792857Y-95676190D01*
X157745238Y-95771428D01*
X157745238Y-95961904D01*
X157792857Y-96057142D01*
X157840476Y-96104761D01*
X157935714Y-96152380D01*
X158126190Y-96152380D01*
X158221428Y-96104761D01*
X158269047Y-96057142D01*
X158316666Y-95961904D01*
X158316666Y-95771428D01*
X158269047Y-95676190D01*
X158221428Y-95628571D01*
X158126190Y-95580952D01*
M02*
