M48
; DRILL file {KiCad 5.1.6-c6e7f7d~87~ubuntu18.04.1} date Tue Sep  1 11:59:19 2020
; FORMAT={-:-/ absolute / inch / decimal}
; #@! TF.CreationDate,2020-09-01T11:59:19+09:00
; #@! TF.GenerationSoftware,Kicad,Pcbnew,5.1.6-c6e7f7d~87~ubuntu18.04.1
FMAT,2
INCH
T1C0.0118
T2C0.0295
T3C0.0354
T4C0.0374
T5C0.0394
T6C0.0433
T7C0.0472
T8C0.0866
T9C0.1260
%
G90
G05
T1
X0.0394Y1.4252
X0.0394Y1.0709
X0.0472Y0.7244
X0.0472Y0.3543
X0.0551Y1.7323
X0.2362Y1.4331
X0.2362Y1.1339
X0.2441Y0.7323
X0.2441Y0.5039
X0.3858Y0.0551
X0.4882Y1.9213
X0.5276Y0.6929
X0.5354Y1.5906
X0.5354Y1.1732
X0.5354Y0.2756
X0.8268Y1.4016
X0.8346Y1.6063
X0.8504Y1.0709
X0.8504Y0.8898
X0.8583Y0.0551
X0.937Y0.3858
X0.9843Y0.7323
X0.9843Y0.5669
X0.9921Y1.9291
X1.0394Y1.6299
X1.0945Y0.7008
X1.1024Y1.0709
X1.1102Y1.4488
X1.126Y0.063
X1.1425Y1.6843
X1.1969Y0.3228
X1.2126Y1.1732
X1.2126Y0.8346
X1.2205Y1.4016
X1.2756Y0.8346
X1.3937Y0.9449
X1.4016Y0.7087
X1.5118Y1.9291
X1.5433Y0.0709
X1.5512Y1.2126
X1.5591Y1.5276
X1.8189Y1.4173
X1.874Y0.4803
X1.9291Y1.5669
X1.9291Y1.2205
X1.9291Y0.9291
X2.4094Y0.4252
X2.4173Y1.5276
X2.4173Y1.2283
X2.4252Y0.874
X2.4567Y0.0866
X2.5512Y1.5276
X2.6614Y1.3228
X2.6693Y1.7323
X2.6929Y0.8819
X2.6948Y1.2763
X2.7165Y0.0709
X2.7323Y1.8879
X2.7621Y1.0592
X2.784Y1.0392
X2.811Y1.4331
X2.8189Y1.4882
X2.8249Y1.2774
X2.8268Y1.063
X2.8661Y0.7165
X2.8738Y0.8738
X2.874Y1.2992
X2.9134Y1.3543
X2.9134Y1.2362
X2.9213Y1.2047
X2.9291Y0.9606
X2.9528Y0.5039
X2.9843Y0.7874
X2.9921Y1.188
X3.0Y1.4646
X3.0079Y1.8346
X3.0236Y0.378
X3.0394Y1.7244
X3.0394Y0.0472
X3.06Y1.2
X3.07Y1.43
X3.0787Y1.937
X3.0866Y0.7874
X3.0866Y0.5197
X3.09Y1.2
X3.1204Y1.2
X3.13Y1.4383
X3.1417Y0.7874
X3.15Y1.2
X3.1575Y1.6693
X3.1614Y0.8228
X3.18Y1.46
X3.189Y0.8583
X3.21Y1.37
X3.2126Y0.5118
X3.2137Y1.181
X3.2441Y1.126
X3.252Y1.0079
X3.2756Y0.9055
X3.2883Y1.2545
X3.31Y1.58
X3.3174Y1.0746
X3.3386Y0.6142
X3.3458Y1.1092
X3.3465Y1.937
X3.3465Y1.8661
X3.35Y1.56
X3.3543Y0.4803
X3.3603Y0.8819
X3.378Y1.1417
X3.4Y1.59
X3.4252Y0.8425
X3.4252Y0.8013
X3.4548Y1.5454
X3.4646Y1.7323
X3.4724Y0.5118
X3.5118Y1.7008
X3.5197Y1.3701
X3.5433Y1.7559
X3.5433Y1.6614
X3.5433Y0.8268
X3.5669Y1.0
X3.5717Y1.6445
X3.5827Y1.6142
X3.5827Y0.9291
X3.5827Y0.6142
X3.5984Y1.1496
X3.6044Y1.5817
X3.61Y0.49
X3.6142Y1.937
X3.6233Y1.5588
X3.6299Y1.6772
X3.6378Y0.0551
X3.6948Y0.5452
X3.7087Y1.1811
X3.7224Y1.3896
X3.7323Y1.4192
X3.7446Y1.4488
X3.76Y0.39
X3.8189Y0.9685
X3.8386Y0.7165
X3.8391Y0.6337
X3.8425Y0.5984
X3.9449Y1.1024
X3.9528Y0.063
X3.9764Y1.8976
X3.9764Y0.5669
X4.0315Y1.7244
X4.0315Y1.5512
X4.0551Y0.4094
X4.0709Y1.2598
X4.0709Y0.8031
X4.2441Y1.7402
X4.252Y0.0787
X4.2756Y0.9921
X4.2835Y0.4016
X4.2913Y1.5709
X4.2913Y1.1339
T2
X0.685Y0.1772
X0.7638Y0.1772
T3
X1.5748Y0.7283
X1.5748Y0.5709
X1.5748Y0.4134
T4
X4.2126Y1.6142
X4.2126Y1.5157
X4.2126Y1.4173
X4.2126Y1.3189
X4.2126Y1.2205
X4.2126Y1.122
T5
X4.152Y0.5118
X4.252Y0.5118
X3.5327Y0.2284
X3.5827Y0.315
X3.0965Y1.8425
X3.1965Y1.8425
X3.2965Y1.8425
X3.3965Y1.8425
X3.4965Y1.8425
X3.5965Y1.8425
X4.152Y0.6299
X4.252Y0.6299
X3.1102Y0.315
X3.1602Y0.2284
X3.7677Y1.7551
X3.7677Y1.6551
X3.7677Y1.5551
X3.8677Y1.7551
X3.8677Y1.6551
X3.8677Y1.5551
X2.4409Y0.6299
X2.5409Y0.6299
X2.4724Y1.1606
X2.4724Y1.0606
X2.4724Y0.9606
X2.4409Y0.5118
X2.5409Y0.5118
X0.7343Y1.8425
X0.8343Y1.8425
X0.9343Y1.8425
X1.0343Y1.8425
X1.1343Y1.8425
X1.2343Y1.8425
X3.2087Y0.374
X3.2587Y0.2874
X3.4343Y0.2874
X3.4843Y0.374
X2.8291Y1.752
X2.8291Y1.652
X2.8291Y1.552
X2.9291Y1.752
X2.9291Y1.652
X2.9291Y1.552
T6
X2.4606Y1.6535
X2.4606Y1.3976
X2.6378Y1.6535
X2.6378Y1.3976
T7
X1.5059Y0.8071
X1.5059Y0.3346
X1.7421Y0.8071
X1.7421Y0.3346
T8
X0.248Y1.8445
X2.6102Y1.8445
X3.3465Y0.1181
X0.248Y0.124
X0.9843Y0.1181
X1.7205Y0.124
X4.0827Y1.8445
X1.7205Y1.8445
X4.2205Y0.7874
X2.4724Y0.7874
T9
X1.8445Y1.8445
X0.124Y1.8445
X0.124Y0.124
X1.8445Y0.124
X4.2067Y1.8445
X2.4862Y1.8445
T0
M30
