M48
; DRILL file {KiCad 5.1.7-a382d34a8~88~ubuntu18.04.1} date Mon Jan 25 19:44:23 2021
; FORMAT={3:3/ absolute / metric / suppress leading zeros}
; #@! TF.CreationDate,2021-01-25T19:44:23+09:00
; #@! TF.GenerationSoftware,Kicad,Pcbnew,5.1.7-a382d34a8~88~ubuntu18.04.1
FMAT,2
METRIC,TZ
T1C0.300
T2C0.750
T3C0.900
T4C0.950
T5C0.990
T6C1.000
T7C1.300
T8C1.500
T9C2.200
T10C3.200
%
G90
G05
T1
X81000Y-103800
X81000Y-112800
X81200Y-121600
X81200Y-131000
X81400Y-135000
X81600Y-95200
X85000Y-138600
X85200Y-91400
X86000Y-103600
X86200Y-110200
X86200Y-114600
X86200Y-121400
X86200Y-127200
X90800Y-91400
X90800Y-100000
X90800Y-138600
X91200Y-96000
X91600Y-125000
X91600Y-134800
X92000Y-123600
X93000Y-112800
X96000Y-139000
X101800Y-139000
X105200Y-91000
X108600Y-139000
X113200Y-94000
X116800Y-97000
X117000Y-109200
X117000Y-122400
X117000Y-133800
X119000Y-91400
X119000Y-131800
X119200Y-96000
X119200Y-117000
X119200Y-138600
X119400Y-112000
X120400Y-103400
X121200Y-113900
X121318Y-104518
X123500Y-113500
X123550Y-100950
X124000Y-131200
X124223Y-107177
X125000Y-91400
X125000Y-94800
X125000Y-135200
X125000Y-138600
X127200Y-106800
X127300Y-105000
X128000Y-95800
X128400Y-131600
X128400Y-134600
X129000Y-118400
X129000Y-122000
X129050Y-113900
X129150Y-106650
X129150Y-109150
X133950Y-104050
X134000Y-99600
X134000Y-108700
X134200Y-117800
X134200Y-122000
X134200Y-129000
X134600Y-95400
X135000Y-137800
X137200Y-115200
X138400Y-111200
X140000Y-124700
X140800Y-131000
X141000Y-91600
X141000Y-97600
X141200Y-114200
X141600Y-127000
X141800Y-108400
X142400Y-92048
X143158Y-113096
X143400Y-138400
X143600Y-120000
X143713Y-113604
X143800Y-123600
X143800Y-130400
X144400Y-103400
X144600Y-102200
X144800Y-113000
X145800Y-126000
X146000Y-124600
X146600Y-112200
X147000Y-127000
X147005Y-108605
X147200Y-109400
X147200Y-120400
X147400Y-116200
X147600Y-133600
X147800Y-93400
X149200Y-102800
X149341Y-120541
X149400Y-115600
X150200Y-96200
X150800Y-112200
X150800Y-138800
X150978Y-103678
X151180Y-116498
X151200Y-90800
X151200Y-109600
X151200Y-120000
X151400Y-96800
X151400Y-98400
X151914Y-109362
X152000Y-129800
X152502Y-103468
X152600Y-122400
X152624Y-109114
X152800Y-127400
X153338Y-108878
X153600Y-104400
X153772Y-102916
X153772Y-126284
X154400Y-118200
X154600Y-114600
X154629Y-110002
X155200Y-136400
X155400Y-111000
X156095Y-108090
X156207Y-116593
X156400Y-112400
X156800Y-125800
X157000Y-98400
X157600Y-99600
X157795Y-111826
X157850Y-108700
X158000Y-90800
X158000Y-92600
X158100Y-117700
X158800Y-99400
X158800Y-118000
X159000Y-122400
X159200Y-95200
X159600Y-102000
X159600Y-129000
X159868Y-126848
X160000Y-106200
X160000Y-120400
X160600Y-100000
X160800Y-136400
X160815Y-96103
X162000Y-105800
X162154Y-126284
X162200Y-95600
X162200Y-96905
X162539Y-117261
X163000Y-94600
X163000Y-97800
X163200Y-128800
X163721Y-98230
X164000Y-99000
X164000Y-112800
X164000Y-124400
X164400Y-126848
X164499Y-99715
X164795Y-100406
X164800Y-90800
X165000Y-130400
X165200Y-97400
X165400Y-115400
X165400Y-138800
X166048Y-121452
X166600Y-104705
X166600Y-117400
X166600Y-119000
X166848Y-126000
X167200Y-93200
X167648Y-103952
X167800Y-111600
X168200Y-133400
X168208Y-103162
X169600Y-131400
X170200Y-104400
X170400Y-103200
X170600Y-122000
X170800Y-93400
X171200Y-124400
X171400Y-127400
X171800Y-125200
X172200Y-102200
X172800Y-138400
X173200Y-98000
X173748Y-128600
X173800Y-91600
X173800Y-95600
X173800Y-120800
X174200Y-133000
X174400Y-104200
X175000Y-110800
X175200Y-130000
X175600Y-123200
X176200Y-125952
X178000Y-91400
X179000Y-113200
X181000Y-138000
X181600Y-95200
X181800Y-114800
X181800Y-122000
X181800Y-129000
X182000Y-100100
X182000Y-111200
T2
X118500Y-124500
X120500Y-124500
T3
X126200Y-127000
X126200Y-129000
X126200Y-131000
X124800Y-119500
X124800Y-122040
T4
X177000Y-98400
X177000Y-100900
X177000Y-103400
X177000Y-105900
X177000Y-108400
X177000Y-110900
T5
X135800Y-99000
X135800Y-103500
T6
X151650Y-93200
X154190Y-93200
X156730Y-93200
X159270Y-93200
X161810Y-93200
X164350Y-93200
X168700Y-95420
X168700Y-97960
X168700Y-100500
X171240Y-95420
X171240Y-97960
X171240Y-100500
X178460Y-127000
X181000Y-127000
X98650Y-93200
X101190Y-93200
X103730Y-93200
X106270Y-93200
X108810Y-93200
X111350Y-93200
X175600Y-115700
X178140Y-115700
X180680Y-115700
X162730Y-134200
X164000Y-132000
X92500Y-116420
X92500Y-118960
X92500Y-121500
X160230Y-132700
X161500Y-130500
X122600Y-115750
X125140Y-115750
X127680Y-115750
X152000Y-132000
X153270Y-134200
X154500Y-130500
X155770Y-132700
X145500Y-116420
X145500Y-118960
X145500Y-121500
X135000Y-127000
X137540Y-127000
X144860Y-95500
X144860Y-98040
X144860Y-100580
X147400Y-95500
X147400Y-98040
X147400Y-100580
X178460Y-124000
X181000Y-124000
X135000Y-124000
X137540Y-124000
T7
X138290Y-97750
X138290Y-104760
T8
X126200Y-124900
X126200Y-133100
T9
X123700Y-93150
X86300Y-93150
X86300Y-136850
X180200Y-120000
X135800Y-120000
X139300Y-93150
X123700Y-136850
X176700Y-93150
X158000Y-137000
T10
X126850Y-93150
X83150Y-93150
X83150Y-136850
X136150Y-93150
X126850Y-136850
X179850Y-93150
T0
M30
