%TF.GenerationSoftware,KiCad,Pcbnew,5.1.6-c6e7f7d~87~ubuntu18.04.1*%
%TF.CreationDate,2020-09-01T11:59:09+09:00*%
%TF.ProjectId,m5mouse,6d356d6f-7573-4652-9e6b-696361645f70,rev?*%
%TF.SameCoordinates,PX4c4b400PY8583b00*%
%TF.FileFunction,Paste,Bot*%
%TF.FilePolarity,Positive*%
%FSLAX46Y46*%
G04 Gerber Fmt 4.6, Leading zero omitted, Abs format (unit mm)*
G04 Created by KiCad (PCBNEW 5.1.6-c6e7f7d~87~ubuntu18.04.1) date 2020-09-01 11:59:09*
%MOMM*%
%LPD*%
G01*
G04 APERTURE LIST*
%ADD10R,3.250000X2.150000*%
%ADD11R,0.950000X2.150000*%
%ADD12R,0.800000X0.900000*%
%ADD13R,0.650000X1.060000*%
%ADD14R,0.250000X0.500000*%
%ADD15R,1.170000X0.950000*%
%ADD16R,1.700000X0.500000*%
%ADD17R,1.400000X1.800000*%
%ADD18C,0.100000*%
G04 APERTURE END LIST*
%TO.C,C1*%
G36*
G01*
X24675000Y15327500D02*
X24675000Y15672500D01*
G75*
G02*
X24822500Y15820000I147500J0D01*
G01*
X25117500Y15820000D01*
G75*
G02*
X25265000Y15672500I0J-147500D01*
G01*
X25265000Y15327500D01*
G75*
G02*
X25117500Y15180000I-147500J0D01*
G01*
X24822500Y15180000D01*
G75*
G02*
X24675000Y15327500I0J147500D01*
G01*
G37*
G36*
G01*
X23705000Y15327500D02*
X23705000Y15672500D01*
G75*
G02*
X23852500Y15820000I147500J0D01*
G01*
X24147500Y15820000D01*
G75*
G02*
X24295000Y15672500I0J-147500D01*
G01*
X24295000Y15327500D01*
G75*
G02*
X24147500Y15180000I-147500J0D01*
G01*
X23852500Y15180000D01*
G75*
G02*
X23705000Y15327500I0J147500D01*
G01*
G37*
%TD*%
%TO.C,C2*%
G36*
G01*
X24690000Y16327500D02*
X24690000Y16672500D01*
G75*
G02*
X24837500Y16820000I147500J0D01*
G01*
X25132500Y16820000D01*
G75*
G02*
X25280000Y16672500I0J-147500D01*
G01*
X25280000Y16327500D01*
G75*
G02*
X25132500Y16180000I-147500J0D01*
G01*
X24837500Y16180000D01*
G75*
G02*
X24690000Y16327500I0J147500D01*
G01*
G37*
G36*
G01*
X23720000Y16327500D02*
X23720000Y16672500D01*
G75*
G02*
X23867500Y16820000I147500J0D01*
G01*
X24162500Y16820000D01*
G75*
G02*
X24310000Y16672500I0J-147500D01*
G01*
X24310000Y16327500D01*
G75*
G02*
X24162500Y16180000I-147500J0D01*
G01*
X23867500Y16180000D01*
G75*
G02*
X23720000Y16327500I0J147500D01*
G01*
G37*
%TD*%
%TO.C,C3*%
G36*
G01*
X23720000Y17327500D02*
X23720000Y17672500D01*
G75*
G02*
X23867500Y17820000I147500J0D01*
G01*
X24162500Y17820000D01*
G75*
G02*
X24310000Y17672500I0J-147500D01*
G01*
X24310000Y17327500D01*
G75*
G02*
X24162500Y17180000I-147500J0D01*
G01*
X23867500Y17180000D01*
G75*
G02*
X23720000Y17327500I0J147500D01*
G01*
G37*
G36*
G01*
X24690000Y17327500D02*
X24690000Y17672500D01*
G75*
G02*
X24837500Y17820000I147500J0D01*
G01*
X25132500Y17820000D01*
G75*
G02*
X25280000Y17672500I0J-147500D01*
G01*
X25280000Y17327500D01*
G75*
G02*
X25132500Y17180000I-147500J0D01*
G01*
X24837500Y17180000D01*
G75*
G02*
X24690000Y17327500I0J147500D01*
G01*
G37*
%TD*%
%TO.C,C4*%
G36*
G01*
X27672500Y22190000D02*
X27327500Y22190000D01*
G75*
G02*
X27180000Y22337500I0J147500D01*
G01*
X27180000Y22632500D01*
G75*
G02*
X27327500Y22780000I147500J0D01*
G01*
X27672500Y22780000D01*
G75*
G02*
X27820000Y22632500I0J-147500D01*
G01*
X27820000Y22337500D01*
G75*
G02*
X27672500Y22190000I-147500J0D01*
G01*
G37*
G36*
G01*
X27672500Y21220000D02*
X27327500Y21220000D01*
G75*
G02*
X27180000Y21367500I0J147500D01*
G01*
X27180000Y21662500D01*
G75*
G02*
X27327500Y21810000I147500J0D01*
G01*
X27672500Y21810000D01*
G75*
G02*
X27820000Y21662500I0J-147500D01*
G01*
X27820000Y21367500D01*
G75*
G02*
X27672500Y21220000I-147500J0D01*
G01*
G37*
%TD*%
%TO.C,C5*%
G36*
G01*
X28327500Y15780000D02*
X28672500Y15780000D01*
G75*
G02*
X28820000Y15632500I0J-147500D01*
G01*
X28820000Y15337500D01*
G75*
G02*
X28672500Y15190000I-147500J0D01*
G01*
X28327500Y15190000D01*
G75*
G02*
X28180000Y15337500I0J147500D01*
G01*
X28180000Y15632500D01*
G75*
G02*
X28327500Y15780000I147500J0D01*
G01*
G37*
G36*
G01*
X28327500Y14810000D02*
X28672500Y14810000D01*
G75*
G02*
X28820000Y14662500I0J-147500D01*
G01*
X28820000Y14367500D01*
G75*
G02*
X28672500Y14220000I-147500J0D01*
G01*
X28327500Y14220000D01*
G75*
G02*
X28180000Y14367500I0J147500D01*
G01*
X28180000Y14662500D01*
G75*
G02*
X28327500Y14810000I147500J0D01*
G01*
G37*
%TD*%
%TO.C,C6*%
G36*
G01*
X27327500Y15780000D02*
X27672500Y15780000D01*
G75*
G02*
X27820000Y15632500I0J-147500D01*
G01*
X27820000Y15337500D01*
G75*
G02*
X27672500Y15190000I-147500J0D01*
G01*
X27327500Y15190000D01*
G75*
G02*
X27180000Y15337500I0J147500D01*
G01*
X27180000Y15632500D01*
G75*
G02*
X27327500Y15780000I147500J0D01*
G01*
G37*
G36*
G01*
X27327500Y14810000D02*
X27672500Y14810000D01*
G75*
G02*
X27820000Y14662500I0J-147500D01*
G01*
X27820000Y14367500D01*
G75*
G02*
X27672500Y14220000I-147500J0D01*
G01*
X27327500Y14220000D01*
G75*
G02*
X27180000Y14367500I0J147500D01*
G01*
X27180000Y14662500D01*
G75*
G02*
X27327500Y14810000I147500J0D01*
G01*
G37*
%TD*%
%TO.C,C7*%
G36*
G01*
X26327500Y15780000D02*
X26672500Y15780000D01*
G75*
G02*
X26820000Y15632500I0J-147500D01*
G01*
X26820000Y15337500D01*
G75*
G02*
X26672500Y15190000I-147500J0D01*
G01*
X26327500Y15190000D01*
G75*
G02*
X26180000Y15337500I0J147500D01*
G01*
X26180000Y15632500D01*
G75*
G02*
X26327500Y15780000I147500J0D01*
G01*
G37*
G36*
G01*
X26327500Y14810000D02*
X26672500Y14810000D01*
G75*
G02*
X26820000Y14662500I0J-147500D01*
G01*
X26820000Y14367500D01*
G75*
G02*
X26672500Y14220000I-147500J0D01*
G01*
X26327500Y14220000D01*
G75*
G02*
X26180000Y14367500I0J147500D01*
G01*
X26180000Y14662500D01*
G75*
G02*
X26327500Y14810000I147500J0D01*
G01*
G37*
%TD*%
%TO.C,C8*%
G36*
G01*
X100227500Y23010000D02*
X100572500Y23010000D01*
G75*
G02*
X100720000Y22862500I0J-147500D01*
G01*
X100720000Y22567500D01*
G75*
G02*
X100572500Y22420000I-147500J0D01*
G01*
X100227500Y22420000D01*
G75*
G02*
X100080000Y22567500I0J147500D01*
G01*
X100080000Y22862500D01*
G75*
G02*
X100227500Y23010000I147500J0D01*
G01*
G37*
G36*
G01*
X100227500Y23980000D02*
X100572500Y23980000D01*
G75*
G02*
X100720000Y23832500I0J-147500D01*
G01*
X100720000Y23537500D01*
G75*
G02*
X100572500Y23390000I-147500J0D01*
G01*
X100227500Y23390000D01*
G75*
G02*
X100080000Y23537500I0J147500D01*
G01*
X100080000Y23832500D01*
G75*
G02*
X100227500Y23980000I147500J0D01*
G01*
G37*
%TD*%
%TO.C,C9*%
G36*
G01*
X99227500Y23980000D02*
X99572500Y23980000D01*
G75*
G02*
X99720000Y23832500I0J-147500D01*
G01*
X99720000Y23537500D01*
G75*
G02*
X99572500Y23390000I-147500J0D01*
G01*
X99227500Y23390000D01*
G75*
G02*
X99080000Y23537500I0J147500D01*
G01*
X99080000Y23832500D01*
G75*
G02*
X99227500Y23980000I147500J0D01*
G01*
G37*
G36*
G01*
X99227500Y23010000D02*
X99572500Y23010000D01*
G75*
G02*
X99720000Y22862500I0J-147500D01*
G01*
X99720000Y22567500D01*
G75*
G02*
X99572500Y22420000I-147500J0D01*
G01*
X99227500Y22420000D01*
G75*
G02*
X99080000Y22567500I0J147500D01*
G01*
X99080000Y22862500D01*
G75*
G02*
X99227500Y23010000I147500J0D01*
G01*
G37*
%TD*%
%TO.C,C10*%
G36*
G01*
X92210000Y41172500D02*
X92210000Y40827500D01*
G75*
G02*
X92062500Y40680000I-147500J0D01*
G01*
X91767500Y40680000D01*
G75*
G02*
X91620000Y40827500I0J147500D01*
G01*
X91620000Y41172500D01*
G75*
G02*
X91767500Y41320000I147500J0D01*
G01*
X92062500Y41320000D01*
G75*
G02*
X92210000Y41172500I0J-147500D01*
G01*
G37*
G36*
G01*
X93180000Y41172500D02*
X93180000Y40827500D01*
G75*
G02*
X93032500Y40680000I-147500J0D01*
G01*
X92737500Y40680000D01*
G75*
G02*
X92590000Y40827500I0J147500D01*
G01*
X92590000Y41172500D01*
G75*
G02*
X92737500Y41320000I147500J0D01*
G01*
X93032500Y41320000D01*
G75*
G02*
X93180000Y41172500I0J-147500D01*
G01*
G37*
%TD*%
%TO.C,C11*%
G36*
G01*
X81680000Y28572500D02*
X81680000Y28227500D01*
G75*
G02*
X81532500Y28080000I-147500J0D01*
G01*
X81237500Y28080000D01*
G75*
G02*
X81090000Y28227500I0J147500D01*
G01*
X81090000Y28572500D01*
G75*
G02*
X81237500Y28720000I147500J0D01*
G01*
X81532500Y28720000D01*
G75*
G02*
X81680000Y28572500I0J-147500D01*
G01*
G37*
G36*
G01*
X80710000Y28572500D02*
X80710000Y28227500D01*
G75*
G02*
X80562500Y28080000I-147500J0D01*
G01*
X80267500Y28080000D01*
G75*
G02*
X80120000Y28227500I0J147500D01*
G01*
X80120000Y28572500D01*
G75*
G02*
X80267500Y28720000I147500J0D01*
G01*
X80562500Y28720000D01*
G75*
G02*
X80710000Y28572500I0J-147500D01*
G01*
G37*
%TD*%
%TO.C,C12*%
G36*
G01*
X74820000Y34827500D02*
X74820000Y35172500D01*
G75*
G02*
X74967500Y35320000I147500J0D01*
G01*
X75262500Y35320000D01*
G75*
G02*
X75410000Y35172500I0J-147500D01*
G01*
X75410000Y34827500D01*
G75*
G02*
X75262500Y34680000I-147500J0D01*
G01*
X74967500Y34680000D01*
G75*
G02*
X74820000Y34827500I0J147500D01*
G01*
G37*
G36*
G01*
X75790000Y34827500D02*
X75790000Y35172500D01*
G75*
G02*
X75937500Y35320000I147500J0D01*
G01*
X76232500Y35320000D01*
G75*
G02*
X76380000Y35172500I0J-147500D01*
G01*
X76380000Y34827500D01*
G75*
G02*
X76232500Y34680000I-147500J0D01*
G01*
X75937500Y34680000D01*
G75*
G02*
X75790000Y34827500I0J147500D01*
G01*
G37*
%TD*%
%TO.C,C13*%
G36*
G01*
X80990000Y44227500D02*
X80990000Y44572500D01*
G75*
G02*
X81137500Y44720000I147500J0D01*
G01*
X81432500Y44720000D01*
G75*
G02*
X81580000Y44572500I0J-147500D01*
G01*
X81580000Y44227500D01*
G75*
G02*
X81432500Y44080000I-147500J0D01*
G01*
X81137500Y44080000D01*
G75*
G02*
X80990000Y44227500I0J147500D01*
G01*
G37*
G36*
G01*
X80020000Y44227500D02*
X80020000Y44572500D01*
G75*
G02*
X80167500Y44720000I147500J0D01*
G01*
X80462500Y44720000D01*
G75*
G02*
X80610000Y44572500I0J-147500D01*
G01*
X80610000Y44227500D01*
G75*
G02*
X80462500Y44080000I-147500J0D01*
G01*
X80167500Y44080000D01*
G75*
G02*
X80020000Y44227500I0J147500D01*
G01*
G37*
%TD*%
%TO.C,C14*%
G36*
G01*
X91620000Y41827500D02*
X91620000Y42172500D01*
G75*
G02*
X91767500Y42320000I147500J0D01*
G01*
X92062500Y42320000D01*
G75*
G02*
X92210000Y42172500I0J-147500D01*
G01*
X92210000Y41827500D01*
G75*
G02*
X92062500Y41680000I-147500J0D01*
G01*
X91767500Y41680000D01*
G75*
G02*
X91620000Y41827500I0J147500D01*
G01*
G37*
G36*
G01*
X92590000Y41827500D02*
X92590000Y42172500D01*
G75*
G02*
X92737500Y42320000I147500J0D01*
G01*
X93032500Y42320000D01*
G75*
G02*
X93180000Y42172500I0J-147500D01*
G01*
X93180000Y41827500D01*
G75*
G02*
X93032500Y41680000I-147500J0D01*
G01*
X92737500Y41680000D01*
G75*
G02*
X92590000Y41827500I0J147500D01*
G01*
G37*
%TD*%
%TO.C,C15*%
G36*
G01*
X90080000Y29572500D02*
X90080000Y29227500D01*
G75*
G02*
X89932500Y29080000I-147500J0D01*
G01*
X89637500Y29080000D01*
G75*
G02*
X89490000Y29227500I0J147500D01*
G01*
X89490000Y29572500D01*
G75*
G02*
X89637500Y29720000I147500J0D01*
G01*
X89932500Y29720000D01*
G75*
G02*
X90080000Y29572500I0J-147500D01*
G01*
G37*
G36*
G01*
X89110000Y29572500D02*
X89110000Y29227500D01*
G75*
G02*
X88962500Y29080000I-147500J0D01*
G01*
X88667500Y29080000D01*
G75*
G02*
X88520000Y29227500I0J147500D01*
G01*
X88520000Y29572500D01*
G75*
G02*
X88667500Y29720000I147500J0D01*
G01*
X88962500Y29720000D01*
G75*
G02*
X89110000Y29572500I0J-147500D01*
G01*
G37*
%TD*%
%TO.C,C16*%
G36*
G01*
X90080000Y28572500D02*
X90080000Y28227500D01*
G75*
G02*
X89932500Y28080000I-147500J0D01*
G01*
X89637500Y28080000D01*
G75*
G02*
X89490000Y28227500I0J147500D01*
G01*
X89490000Y28572500D01*
G75*
G02*
X89637500Y28720000I147500J0D01*
G01*
X89932500Y28720000D01*
G75*
G02*
X90080000Y28572500I0J-147500D01*
G01*
G37*
G36*
G01*
X89110000Y28572500D02*
X89110000Y28227500D01*
G75*
G02*
X88962500Y28080000I-147500J0D01*
G01*
X88667500Y28080000D01*
G75*
G02*
X88520000Y28227500I0J147500D01*
G01*
X88520000Y28572500D01*
G75*
G02*
X88667500Y28720000I147500J0D01*
G01*
X88962500Y28720000D01*
G75*
G02*
X89110000Y28572500I0J-147500D01*
G01*
G37*
%TD*%
%TO.C,C17*%
G36*
G01*
X90080000Y27572500D02*
X90080000Y27227500D01*
G75*
G02*
X89932500Y27080000I-147500J0D01*
G01*
X89637500Y27080000D01*
G75*
G02*
X89490000Y27227500I0J147500D01*
G01*
X89490000Y27572500D01*
G75*
G02*
X89637500Y27720000I147500J0D01*
G01*
X89932500Y27720000D01*
G75*
G02*
X90080000Y27572500I0J-147500D01*
G01*
G37*
G36*
G01*
X89110000Y27572500D02*
X89110000Y27227500D01*
G75*
G02*
X88962500Y27080000I-147500J0D01*
G01*
X88667500Y27080000D01*
G75*
G02*
X88520000Y27227500I0J147500D01*
G01*
X88520000Y27572500D01*
G75*
G02*
X88667500Y27720000I147500J0D01*
G01*
X88962500Y27720000D01*
G75*
G02*
X89110000Y27572500I0J-147500D01*
G01*
G37*
%TD*%
%TO.C,C18*%
G36*
G01*
X75627500Y27610000D02*
X75972500Y27610000D01*
G75*
G02*
X76120000Y27462500I0J-147500D01*
G01*
X76120000Y27167500D01*
G75*
G02*
X75972500Y27020000I-147500J0D01*
G01*
X75627500Y27020000D01*
G75*
G02*
X75480000Y27167500I0J147500D01*
G01*
X75480000Y27462500D01*
G75*
G02*
X75627500Y27610000I147500J0D01*
G01*
G37*
G36*
G01*
X75627500Y28580000D02*
X75972500Y28580000D01*
G75*
G02*
X76120000Y28432500I0J-147500D01*
G01*
X76120000Y28137500D01*
G75*
G02*
X75972500Y27990000I-147500J0D01*
G01*
X75627500Y27990000D01*
G75*
G02*
X75480000Y28137500I0J147500D01*
G01*
X75480000Y28432500D01*
G75*
G02*
X75627500Y28580000I147500J0D01*
G01*
G37*
%TD*%
%TO.C,C19*%
G36*
G01*
X76110000Y25572500D02*
X76110000Y25227500D01*
G75*
G02*
X75962500Y25080000I-147500J0D01*
G01*
X75667500Y25080000D01*
G75*
G02*
X75520000Y25227500I0J147500D01*
G01*
X75520000Y25572500D01*
G75*
G02*
X75667500Y25720000I147500J0D01*
G01*
X75962500Y25720000D01*
G75*
G02*
X76110000Y25572500I0J-147500D01*
G01*
G37*
G36*
G01*
X77080000Y25572500D02*
X77080000Y25227500D01*
G75*
G02*
X76932500Y25080000I-147500J0D01*
G01*
X76637500Y25080000D01*
G75*
G02*
X76490000Y25227500I0J147500D01*
G01*
X76490000Y25572500D01*
G75*
G02*
X76637500Y25720000I147500J0D01*
G01*
X76932500Y25720000D01*
G75*
G02*
X77080000Y25572500I0J-147500D01*
G01*
G37*
%TD*%
%TO.C,C20*%
G36*
G01*
X67810000Y30072500D02*
X67810000Y29727500D01*
G75*
G02*
X67662500Y29580000I-147500J0D01*
G01*
X67367500Y29580000D01*
G75*
G02*
X67220000Y29727500I0J147500D01*
G01*
X67220000Y30072500D01*
G75*
G02*
X67367500Y30220000I147500J0D01*
G01*
X67662500Y30220000D01*
G75*
G02*
X67810000Y30072500I0J-147500D01*
G01*
G37*
G36*
G01*
X68780000Y30072500D02*
X68780000Y29727500D01*
G75*
G02*
X68632500Y29580000I-147500J0D01*
G01*
X68337500Y29580000D01*
G75*
G02*
X68190000Y29727500I0J147500D01*
G01*
X68190000Y30072500D01*
G75*
G02*
X68337500Y30220000I147500J0D01*
G01*
X68632500Y30220000D01*
G75*
G02*
X68780000Y30072500I0J-147500D01*
G01*
G37*
%TD*%
%TO.C,C21*%
G36*
G01*
X67810000Y28572500D02*
X67810000Y28227500D01*
G75*
G02*
X67662500Y28080000I-147500J0D01*
G01*
X67367500Y28080000D01*
G75*
G02*
X67220000Y28227500I0J147500D01*
G01*
X67220000Y28572500D01*
G75*
G02*
X67367500Y28720000I147500J0D01*
G01*
X67662500Y28720000D01*
G75*
G02*
X67810000Y28572500I0J-147500D01*
G01*
G37*
G36*
G01*
X68780000Y28572500D02*
X68780000Y28227500D01*
G75*
G02*
X68632500Y28080000I-147500J0D01*
G01*
X68337500Y28080000D01*
G75*
G02*
X68190000Y28227500I0J147500D01*
G01*
X68190000Y28572500D01*
G75*
G02*
X68337500Y28720000I147500J0D01*
G01*
X68632500Y28720000D01*
G75*
G02*
X68780000Y28572500I0J-147500D01*
G01*
G37*
%TD*%
%TO.C,C22*%
G36*
G01*
X96627500Y23980000D02*
X96972500Y23980000D01*
G75*
G02*
X97120000Y23832500I0J-147500D01*
G01*
X97120000Y23537500D01*
G75*
G02*
X96972500Y23390000I-147500J0D01*
G01*
X96627500Y23390000D01*
G75*
G02*
X96480000Y23537500I0J147500D01*
G01*
X96480000Y23832500D01*
G75*
G02*
X96627500Y23980000I147500J0D01*
G01*
G37*
G36*
G01*
X96627500Y23010000D02*
X96972500Y23010000D01*
G75*
G02*
X97120000Y22862500I0J-147500D01*
G01*
X97120000Y22567500D01*
G75*
G02*
X96972500Y22420000I-147500J0D01*
G01*
X96627500Y22420000D01*
G75*
G02*
X96480000Y22567500I0J147500D01*
G01*
X96480000Y22862500D01*
G75*
G02*
X96627500Y23010000I147500J0D01*
G01*
G37*
%TD*%
%TO.C,C23*%
G36*
G01*
X75410000Y34172500D02*
X75410000Y33827500D01*
G75*
G02*
X75262500Y33680000I-147500J0D01*
G01*
X74967500Y33680000D01*
G75*
G02*
X74820000Y33827500I0J147500D01*
G01*
X74820000Y34172500D01*
G75*
G02*
X74967500Y34320000I147500J0D01*
G01*
X75262500Y34320000D01*
G75*
G02*
X75410000Y34172500I0J-147500D01*
G01*
G37*
G36*
G01*
X76380000Y34172500D02*
X76380000Y33827500D01*
G75*
G02*
X76232500Y33680000I-147500J0D01*
G01*
X75937500Y33680000D01*
G75*
G02*
X75790000Y33827500I0J147500D01*
G01*
X75790000Y34172500D01*
G75*
G02*
X75937500Y34320000I147500J0D01*
G01*
X76232500Y34320000D01*
G75*
G02*
X76380000Y34172500I0J-147500D01*
G01*
G37*
%TD*%
%TO.C,C24*%
G36*
G01*
X81580000Y43572500D02*
X81580000Y43227500D01*
G75*
G02*
X81432500Y43080000I-147500J0D01*
G01*
X81137500Y43080000D01*
G75*
G02*
X80990000Y43227500I0J147500D01*
G01*
X80990000Y43572500D01*
G75*
G02*
X81137500Y43720000I147500J0D01*
G01*
X81432500Y43720000D01*
G75*
G02*
X81580000Y43572500I0J-147500D01*
G01*
G37*
G36*
G01*
X80610000Y43572500D02*
X80610000Y43227500D01*
G75*
G02*
X80462500Y43080000I-147500J0D01*
G01*
X80167500Y43080000D01*
G75*
G02*
X80020000Y43227500I0J147500D01*
G01*
X80020000Y43572500D01*
G75*
G02*
X80167500Y43720000I147500J0D01*
G01*
X80462500Y43720000D01*
G75*
G02*
X80610000Y43572500I0J-147500D01*
G01*
G37*
%TD*%
%TO.C,C25*%
G36*
G01*
X68780000Y31072500D02*
X68780000Y30727500D01*
G75*
G02*
X68632500Y30580000I-147500J0D01*
G01*
X68337500Y30580000D01*
G75*
G02*
X68190000Y30727500I0J147500D01*
G01*
X68190000Y31072500D01*
G75*
G02*
X68337500Y31220000I147500J0D01*
G01*
X68632500Y31220000D01*
G75*
G02*
X68780000Y31072500I0J-147500D01*
G01*
G37*
G36*
G01*
X67810000Y31072500D02*
X67810000Y30727500D01*
G75*
G02*
X67662500Y30580000I-147500J0D01*
G01*
X67367500Y30580000D01*
G75*
G02*
X67220000Y30727500I0J147500D01*
G01*
X67220000Y31072500D01*
G75*
G02*
X67367500Y31220000I147500J0D01*
G01*
X67662500Y31220000D01*
G75*
G02*
X67810000Y31072500I0J-147500D01*
G01*
G37*
%TD*%
%TO.C,C26*%
G36*
G01*
X26610000Y30472500D02*
X26610000Y30127500D01*
G75*
G02*
X26462500Y29980000I-147500J0D01*
G01*
X26167500Y29980000D01*
G75*
G02*
X26020000Y30127500I0J147500D01*
G01*
X26020000Y30472500D01*
G75*
G02*
X26167500Y30620000I147500J0D01*
G01*
X26462500Y30620000D01*
G75*
G02*
X26610000Y30472500I0J-147500D01*
G01*
G37*
G36*
G01*
X27580000Y30472500D02*
X27580000Y30127500D01*
G75*
G02*
X27432500Y29980000I-147500J0D01*
G01*
X27137500Y29980000D01*
G75*
G02*
X26990000Y30127500I0J147500D01*
G01*
X26990000Y30472500D01*
G75*
G02*
X27137500Y30620000I147500J0D01*
G01*
X27432500Y30620000D01*
G75*
G02*
X27580000Y30472500I0J-147500D01*
G01*
G37*
%TD*%
%TO.C,C27*%
G36*
G01*
X23990000Y30127500D02*
X23990000Y30472500D01*
G75*
G02*
X24137500Y30620000I147500J0D01*
G01*
X24432500Y30620000D01*
G75*
G02*
X24580000Y30472500I0J-147500D01*
G01*
X24580000Y30127500D01*
G75*
G02*
X24432500Y29980000I-147500J0D01*
G01*
X24137500Y29980000D01*
G75*
G02*
X23990000Y30127500I0J147500D01*
G01*
G37*
G36*
G01*
X23020000Y30127500D02*
X23020000Y30472500D01*
G75*
G02*
X23167500Y30620000I147500J0D01*
G01*
X23462500Y30620000D01*
G75*
G02*
X23610000Y30472500I0J-147500D01*
G01*
X23610000Y30127500D01*
G75*
G02*
X23462500Y29980000I-147500J0D01*
G01*
X23167500Y29980000D01*
G75*
G02*
X23020000Y30127500I0J147500D01*
G01*
G37*
%TD*%
%TO.C,C28*%
G36*
G01*
X94190000Y33027500D02*
X94190000Y33372500D01*
G75*
G02*
X94337500Y33520000I147500J0D01*
G01*
X94632500Y33520000D01*
G75*
G02*
X94780000Y33372500I0J-147500D01*
G01*
X94780000Y33027500D01*
G75*
G02*
X94632500Y32880000I-147500J0D01*
G01*
X94337500Y32880000D01*
G75*
G02*
X94190000Y33027500I0J147500D01*
G01*
G37*
G36*
G01*
X93220000Y33027500D02*
X93220000Y33372500D01*
G75*
G02*
X93367500Y33520000I147500J0D01*
G01*
X93662500Y33520000D01*
G75*
G02*
X93810000Y33372500I0J-147500D01*
G01*
X93810000Y33027500D01*
G75*
G02*
X93662500Y32880000I-147500J0D01*
G01*
X93367500Y32880000D01*
G75*
G02*
X93220000Y33027500I0J147500D01*
G01*
G37*
%TD*%
%TO.C,D1*%
G36*
G01*
X47756250Y28850000D02*
X47243750Y28850000D01*
G75*
G02*
X47025000Y29068750I0J218750D01*
G01*
X47025000Y29506250D01*
G75*
G02*
X47243750Y29725000I218750J0D01*
G01*
X47756250Y29725000D01*
G75*
G02*
X47975000Y29506250I0J-218750D01*
G01*
X47975000Y29068750D01*
G75*
G02*
X47756250Y28850000I-218750J0D01*
G01*
G37*
G36*
G01*
X47756250Y27275000D02*
X47243750Y27275000D01*
G75*
G02*
X47025000Y27493750I0J218750D01*
G01*
X47025000Y27931250D01*
G75*
G02*
X47243750Y28150000I218750J0D01*
G01*
X47756250Y28150000D01*
G75*
G02*
X47975000Y27931250I0J-218750D01*
G01*
X47975000Y27493750D01*
G75*
G02*
X47756250Y27275000I-218750J0D01*
G01*
G37*
%TD*%
%TO.C,D6*%
G36*
G01*
X97275000Y48243750D02*
X97275000Y48756250D01*
G75*
G02*
X97493750Y48975000I218750J0D01*
G01*
X97931250Y48975000D01*
G75*
G02*
X98150000Y48756250I0J-218750D01*
G01*
X98150000Y48243750D01*
G75*
G02*
X97931250Y48025000I-218750J0D01*
G01*
X97493750Y48025000D01*
G75*
G02*
X97275000Y48243750I0J218750D01*
G01*
G37*
G36*
G01*
X98850000Y48243750D02*
X98850000Y48756250D01*
G75*
G02*
X99068750Y48975000I218750J0D01*
G01*
X99506250Y48975000D01*
G75*
G02*
X99725000Y48756250I0J-218750D01*
G01*
X99725000Y48243750D01*
G75*
G02*
X99506250Y48025000I-218750J0D01*
G01*
X99068750Y48025000D01*
G75*
G02*
X98850000Y48243750I0J218750D01*
G01*
G37*
%TD*%
%TO.C,D7*%
G36*
G01*
X72725000Y48756250D02*
X72725000Y48243750D01*
G75*
G02*
X72506250Y48025000I-218750J0D01*
G01*
X72068750Y48025000D01*
G75*
G02*
X71850000Y48243750I0J218750D01*
G01*
X71850000Y48756250D01*
G75*
G02*
X72068750Y48975000I218750J0D01*
G01*
X72506250Y48975000D01*
G75*
G02*
X72725000Y48756250I0J-218750D01*
G01*
G37*
G36*
G01*
X71150000Y48756250D02*
X71150000Y48243750D01*
G75*
G02*
X70931250Y48025000I-218750J0D01*
G01*
X70493750Y48025000D01*
G75*
G02*
X70275000Y48243750I0J218750D01*
G01*
X70275000Y48756250D01*
G75*
G02*
X70493750Y48975000I218750J0D01*
G01*
X70931250Y48975000D01*
G75*
G02*
X71150000Y48756250I0J-218750D01*
G01*
G37*
%TD*%
D10*
%TO.C,IC1*%
X25300000Y39200000D03*
D11*
X25300000Y33400000D03*
X27600000Y33400000D03*
X23000000Y33400000D03*
%TD*%
%TO.C,L1*%
G36*
G01*
X24300000Y11650000D02*
X24300000Y13350000D01*
G75*
G02*
X24550000Y13600000I250000J0D01*
G01*
X25300000Y13600000D01*
G75*
G02*
X25550000Y13350000I0J-250000D01*
G01*
X25550000Y11650000D01*
G75*
G02*
X25300000Y11400000I-250000J0D01*
G01*
X24550000Y11400000D01*
G75*
G02*
X24300000Y11650000I0J250000D01*
G01*
G37*
G36*
G01*
X26450000Y11650000D02*
X26450000Y13350000D01*
G75*
G02*
X26700000Y13600000I250000J0D01*
G01*
X27450000Y13600000D01*
G75*
G02*
X27700000Y13350000I0J-250000D01*
G01*
X27700000Y11650000D01*
G75*
G02*
X27450000Y11400000I-250000J0D01*
G01*
X26700000Y11400000D01*
G75*
G02*
X26450000Y11650000I0J250000D01*
G01*
G37*
%TD*%
D12*
%TO.C,Q1*%
X94050000Y16000000D03*
X95950000Y16000000D03*
X95000000Y14000000D03*
%TD*%
%TO.C,Q3*%
X88200000Y14000000D03*
X89150000Y16000000D03*
X87250000Y16000000D03*
%TD*%
%TO.C,Q5*%
X80750000Y16000000D03*
X82650000Y16000000D03*
X81700000Y14000000D03*
%TD*%
%TO.C,Q7*%
X75100000Y14000000D03*
X76050000Y16000000D03*
X74150000Y16000000D03*
%TD*%
%TO.C,R1*%
G36*
G01*
X29650000Y26256250D02*
X29650000Y25743750D01*
G75*
G02*
X29431250Y25525000I-218750J0D01*
G01*
X28993750Y25525000D01*
G75*
G02*
X28775000Y25743750I0J218750D01*
G01*
X28775000Y26256250D01*
G75*
G02*
X28993750Y26475000I218750J0D01*
G01*
X29431250Y26475000D01*
G75*
G02*
X29650000Y26256250I0J-218750D01*
G01*
G37*
G36*
G01*
X31225000Y26256250D02*
X31225000Y25743750D01*
G75*
G02*
X31006250Y25525000I-218750J0D01*
G01*
X30568750Y25525000D01*
G75*
G02*
X30350000Y25743750I0J218750D01*
G01*
X30350000Y26256250D01*
G75*
G02*
X30568750Y26475000I218750J0D01*
G01*
X31006250Y26475000D01*
G75*
G02*
X31225000Y26256250I0J-218750D01*
G01*
G37*
%TD*%
%TO.C,R2*%
G36*
G01*
X26225000Y27256250D02*
X26225000Y26743750D01*
G75*
G02*
X26006250Y26525000I-218750J0D01*
G01*
X25568750Y26525000D01*
G75*
G02*
X25350000Y26743750I0J218750D01*
G01*
X25350000Y27256250D01*
G75*
G02*
X25568750Y27475000I218750J0D01*
G01*
X26006250Y27475000D01*
G75*
G02*
X26225000Y27256250I0J-218750D01*
G01*
G37*
G36*
G01*
X24650000Y27256250D02*
X24650000Y26743750D01*
G75*
G02*
X24431250Y26525000I-218750J0D01*
G01*
X23993750Y26525000D01*
G75*
G02*
X23775000Y26743750I0J218750D01*
G01*
X23775000Y27256250D01*
G75*
G02*
X23993750Y27475000I218750J0D01*
G01*
X24431250Y27475000D01*
G75*
G02*
X24650000Y27256250I0J-218750D01*
G01*
G37*
%TD*%
%TO.C,R3*%
G36*
G01*
X25350000Y24743750D02*
X25350000Y25256250D01*
G75*
G02*
X25568750Y25475000I218750J0D01*
G01*
X26006250Y25475000D01*
G75*
G02*
X26225000Y25256250I0J-218750D01*
G01*
X26225000Y24743750D01*
G75*
G02*
X26006250Y24525000I-218750J0D01*
G01*
X25568750Y24525000D01*
G75*
G02*
X25350000Y24743750I0J218750D01*
G01*
G37*
G36*
G01*
X23775000Y24743750D02*
X23775000Y25256250D01*
G75*
G02*
X23993750Y25475000I218750J0D01*
G01*
X24431250Y25475000D01*
G75*
G02*
X24650000Y25256250I0J-218750D01*
G01*
X24650000Y24743750D01*
G75*
G02*
X24431250Y24525000I-218750J0D01*
G01*
X23993750Y24525000D01*
G75*
G02*
X23775000Y24743750I0J218750D01*
G01*
G37*
%TD*%
%TO.C,R4*%
G36*
G01*
X96056250Y24575000D02*
X95543750Y24575000D01*
G75*
G02*
X95325000Y24793750I0J218750D01*
G01*
X95325000Y25231250D01*
G75*
G02*
X95543750Y25450000I218750J0D01*
G01*
X96056250Y25450000D01*
G75*
G02*
X96275000Y25231250I0J-218750D01*
G01*
X96275000Y24793750D01*
G75*
G02*
X96056250Y24575000I-218750J0D01*
G01*
G37*
G36*
G01*
X96056250Y26150000D02*
X95543750Y26150000D01*
G75*
G02*
X95325000Y26368750I0J218750D01*
G01*
X95325000Y26806250D01*
G75*
G02*
X95543750Y27025000I218750J0D01*
G01*
X96056250Y27025000D01*
G75*
G02*
X96275000Y26806250I0J-218750D01*
G01*
X96275000Y26368750D01*
G75*
G02*
X96056250Y26150000I-218750J0D01*
G01*
G37*
%TD*%
%TO.C,R5*%
G36*
G01*
X77456250Y27850000D02*
X76943750Y27850000D01*
G75*
G02*
X76725000Y28068750I0J218750D01*
G01*
X76725000Y28506250D01*
G75*
G02*
X76943750Y28725000I218750J0D01*
G01*
X77456250Y28725000D01*
G75*
G02*
X77675000Y28506250I0J-218750D01*
G01*
X77675000Y28068750D01*
G75*
G02*
X77456250Y27850000I-218750J0D01*
G01*
G37*
G36*
G01*
X77456250Y26275000D02*
X76943750Y26275000D01*
G75*
G02*
X76725000Y26493750I0J218750D01*
G01*
X76725000Y26931250D01*
G75*
G02*
X76943750Y27150000I218750J0D01*
G01*
X77456250Y27150000D01*
G75*
G02*
X77675000Y26931250I0J-218750D01*
G01*
X77675000Y26493750D01*
G75*
G02*
X77456250Y26275000I-218750J0D01*
G01*
G37*
%TD*%
%TO.C,R6*%
G36*
G01*
X93775000Y17743750D02*
X93775000Y18256250D01*
G75*
G02*
X93993750Y18475000I218750J0D01*
G01*
X94431250Y18475000D01*
G75*
G02*
X94650000Y18256250I0J-218750D01*
G01*
X94650000Y17743750D01*
G75*
G02*
X94431250Y17525000I-218750J0D01*
G01*
X93993750Y17525000D01*
G75*
G02*
X93775000Y17743750I0J218750D01*
G01*
G37*
G36*
G01*
X95350000Y17743750D02*
X95350000Y18256250D01*
G75*
G02*
X95568750Y18475000I218750J0D01*
G01*
X96006250Y18475000D01*
G75*
G02*
X96225000Y18256250I0J-218750D01*
G01*
X96225000Y17743750D01*
G75*
G02*
X96006250Y17525000I-218750J0D01*
G01*
X95568750Y17525000D01*
G75*
G02*
X95350000Y17743750I0J218750D01*
G01*
G37*
%TD*%
%TO.C,R7*%
G36*
G01*
X103625000Y12256250D02*
X103625000Y11743750D01*
G75*
G02*
X103406250Y11525000I-218750J0D01*
G01*
X102968750Y11525000D01*
G75*
G02*
X102750000Y11743750I0J218750D01*
G01*
X102750000Y12256250D01*
G75*
G02*
X102968750Y12475000I218750J0D01*
G01*
X103406250Y12475000D01*
G75*
G02*
X103625000Y12256250I0J-218750D01*
G01*
G37*
G36*
G01*
X102050000Y12256250D02*
X102050000Y11743750D01*
G75*
G02*
X101831250Y11525000I-218750J0D01*
G01*
X101393750Y11525000D01*
G75*
G02*
X101175000Y11743750I0J218750D01*
G01*
X101175000Y12256250D01*
G75*
G02*
X101393750Y12475000I218750J0D01*
G01*
X101831250Y12475000D01*
G75*
G02*
X102050000Y12256250I0J-218750D01*
G01*
G37*
%TD*%
%TO.C,R8*%
G36*
G01*
X88550000Y17743750D02*
X88550000Y18256250D01*
G75*
G02*
X88768750Y18475000I218750J0D01*
G01*
X89206250Y18475000D01*
G75*
G02*
X89425000Y18256250I0J-218750D01*
G01*
X89425000Y17743750D01*
G75*
G02*
X89206250Y17525000I-218750J0D01*
G01*
X88768750Y17525000D01*
G75*
G02*
X88550000Y17743750I0J218750D01*
G01*
G37*
G36*
G01*
X86975000Y17743750D02*
X86975000Y18256250D01*
G75*
G02*
X87193750Y18475000I218750J0D01*
G01*
X87631250Y18475000D01*
G75*
G02*
X87850000Y18256250I0J-218750D01*
G01*
X87850000Y17743750D01*
G75*
G02*
X87631250Y17525000I-218750J0D01*
G01*
X87193750Y17525000D01*
G75*
G02*
X86975000Y17743750I0J218750D01*
G01*
G37*
%TD*%
%TO.C,R9*%
G36*
G01*
X88943750Y3825000D02*
X89456250Y3825000D01*
G75*
G02*
X89675000Y3606250I0J-218750D01*
G01*
X89675000Y3168750D01*
G75*
G02*
X89456250Y2950000I-218750J0D01*
G01*
X88943750Y2950000D01*
G75*
G02*
X88725000Y3168750I0J218750D01*
G01*
X88725000Y3606250D01*
G75*
G02*
X88943750Y3825000I218750J0D01*
G01*
G37*
G36*
G01*
X88943750Y2250000D02*
X89456250Y2250000D01*
G75*
G02*
X89675000Y2031250I0J-218750D01*
G01*
X89675000Y1593750D01*
G75*
G02*
X89456250Y1375000I-218750J0D01*
G01*
X88943750Y1375000D01*
G75*
G02*
X88725000Y1593750I0J218750D01*
G01*
X88725000Y2031250D01*
G75*
G02*
X88943750Y2250000I218750J0D01*
G01*
G37*
%TD*%
%TO.C,R10*%
G36*
G01*
X82050000Y17743750D02*
X82050000Y18256250D01*
G75*
G02*
X82268750Y18475000I218750J0D01*
G01*
X82706250Y18475000D01*
G75*
G02*
X82925000Y18256250I0J-218750D01*
G01*
X82925000Y17743750D01*
G75*
G02*
X82706250Y17525000I-218750J0D01*
G01*
X82268750Y17525000D01*
G75*
G02*
X82050000Y17743750I0J218750D01*
G01*
G37*
G36*
G01*
X80475000Y17743750D02*
X80475000Y18256250D01*
G75*
G02*
X80693750Y18475000I218750J0D01*
G01*
X81131250Y18475000D01*
G75*
G02*
X81350000Y18256250I0J-218750D01*
G01*
X81350000Y17743750D01*
G75*
G02*
X81131250Y17525000I-218750J0D01*
G01*
X80693750Y17525000D01*
G75*
G02*
X80475000Y17743750I0J218750D01*
G01*
G37*
%TD*%
%TO.C,R11*%
G36*
G01*
X80543750Y3825000D02*
X81056250Y3825000D01*
G75*
G02*
X81275000Y3606250I0J-218750D01*
G01*
X81275000Y3168750D01*
G75*
G02*
X81056250Y2950000I-218750J0D01*
G01*
X80543750Y2950000D01*
G75*
G02*
X80325000Y3168750I0J218750D01*
G01*
X80325000Y3606250D01*
G75*
G02*
X80543750Y3825000I218750J0D01*
G01*
G37*
G36*
G01*
X80543750Y2250000D02*
X81056250Y2250000D01*
G75*
G02*
X81275000Y2031250I0J-218750D01*
G01*
X81275000Y1593750D01*
G75*
G02*
X81056250Y1375000I-218750J0D01*
G01*
X80543750Y1375000D01*
G75*
G02*
X80325000Y1593750I0J218750D01*
G01*
X80325000Y2031250D01*
G75*
G02*
X80543750Y2250000I218750J0D01*
G01*
G37*
%TD*%
%TO.C,R12*%
G36*
G01*
X75450000Y17743750D02*
X75450000Y18256250D01*
G75*
G02*
X75668750Y18475000I218750J0D01*
G01*
X76106250Y18475000D01*
G75*
G02*
X76325000Y18256250I0J-218750D01*
G01*
X76325000Y17743750D01*
G75*
G02*
X76106250Y17525000I-218750J0D01*
G01*
X75668750Y17525000D01*
G75*
G02*
X75450000Y17743750I0J218750D01*
G01*
G37*
G36*
G01*
X73875000Y17743750D02*
X73875000Y18256250D01*
G75*
G02*
X74093750Y18475000I218750J0D01*
G01*
X74531250Y18475000D01*
G75*
G02*
X74750000Y18256250I0J-218750D01*
G01*
X74750000Y17743750D01*
G75*
G02*
X74531250Y17525000I-218750J0D01*
G01*
X74093750Y17525000D01*
G75*
G02*
X73875000Y17743750I0J218750D01*
G01*
G37*
%TD*%
%TO.C,R13*%
G36*
G01*
X66275000Y12343750D02*
X66275000Y12856250D01*
G75*
G02*
X66493750Y13075000I218750J0D01*
G01*
X66931250Y13075000D01*
G75*
G02*
X67150000Y12856250I0J-218750D01*
G01*
X67150000Y12343750D01*
G75*
G02*
X66931250Y12125000I-218750J0D01*
G01*
X66493750Y12125000D01*
G75*
G02*
X66275000Y12343750I0J218750D01*
G01*
G37*
G36*
G01*
X67850000Y12343750D02*
X67850000Y12856250D01*
G75*
G02*
X68068750Y13075000I218750J0D01*
G01*
X68506250Y13075000D01*
G75*
G02*
X68725000Y12856250I0J-218750D01*
G01*
X68725000Y12343750D01*
G75*
G02*
X68506250Y12125000I-218750J0D01*
G01*
X68068750Y12125000D01*
G75*
G02*
X67850000Y12343750I0J218750D01*
G01*
G37*
%TD*%
%TO.C,R14*%
G36*
G01*
X62850000Y32543750D02*
X62850000Y33056250D01*
G75*
G02*
X63068750Y33275000I218750J0D01*
G01*
X63506250Y33275000D01*
G75*
G02*
X63725000Y33056250I0J-218750D01*
G01*
X63725000Y32543750D01*
G75*
G02*
X63506250Y32325000I-218750J0D01*
G01*
X63068750Y32325000D01*
G75*
G02*
X62850000Y32543750I0J218750D01*
G01*
G37*
G36*
G01*
X61275000Y32543750D02*
X61275000Y33056250D01*
G75*
G02*
X61493750Y33275000I218750J0D01*
G01*
X61931250Y33275000D01*
G75*
G02*
X62150000Y33056250I0J-218750D01*
G01*
X62150000Y32543750D01*
G75*
G02*
X61931250Y32325000I-218750J0D01*
G01*
X61493750Y32325000D01*
G75*
G02*
X61275000Y32543750I0J218750D01*
G01*
G37*
%TD*%
%TO.C,R15*%
G36*
G01*
X96525000Y48756250D02*
X96525000Y48243750D01*
G75*
G02*
X96306250Y48025000I-218750J0D01*
G01*
X95868750Y48025000D01*
G75*
G02*
X95650000Y48243750I0J218750D01*
G01*
X95650000Y48756250D01*
G75*
G02*
X95868750Y48975000I218750J0D01*
G01*
X96306250Y48975000D01*
G75*
G02*
X96525000Y48756250I0J-218750D01*
G01*
G37*
G36*
G01*
X94950000Y48756250D02*
X94950000Y48243750D01*
G75*
G02*
X94731250Y48025000I-218750J0D01*
G01*
X94293750Y48025000D01*
G75*
G02*
X94075000Y48243750I0J218750D01*
G01*
X94075000Y48756250D01*
G75*
G02*
X94293750Y48975000I218750J0D01*
G01*
X94731250Y48975000D01*
G75*
G02*
X94950000Y48756250I0J-218750D01*
G01*
G37*
%TD*%
%TO.C,R16*%
G36*
G01*
X75050000Y48243750D02*
X75050000Y48756250D01*
G75*
G02*
X75268750Y48975000I218750J0D01*
G01*
X75706250Y48975000D01*
G75*
G02*
X75925000Y48756250I0J-218750D01*
G01*
X75925000Y48243750D01*
G75*
G02*
X75706250Y48025000I-218750J0D01*
G01*
X75268750Y48025000D01*
G75*
G02*
X75050000Y48243750I0J218750D01*
G01*
G37*
G36*
G01*
X73475000Y48243750D02*
X73475000Y48756250D01*
G75*
G02*
X73693750Y48975000I218750J0D01*
G01*
X74131250Y48975000D01*
G75*
G02*
X74350000Y48756250I0J-218750D01*
G01*
X74350000Y48243750D01*
G75*
G02*
X74131250Y48025000I-218750J0D01*
G01*
X73693750Y48025000D01*
G75*
G02*
X73475000Y48243750I0J218750D01*
G01*
G37*
%TD*%
%TO.C,R17*%
G36*
G01*
X33256250Y25775000D02*
X32743750Y25775000D01*
G75*
G02*
X32525000Y25993750I0J218750D01*
G01*
X32525000Y26431250D01*
G75*
G02*
X32743750Y26650000I218750J0D01*
G01*
X33256250Y26650000D01*
G75*
G02*
X33475000Y26431250I0J-218750D01*
G01*
X33475000Y25993750D01*
G75*
G02*
X33256250Y25775000I-218750J0D01*
G01*
G37*
G36*
G01*
X33256250Y27350000D02*
X32743750Y27350000D01*
G75*
G02*
X32525000Y27568750I0J218750D01*
G01*
X32525000Y28006250D01*
G75*
G02*
X32743750Y28225000I218750J0D01*
G01*
X33256250Y28225000D01*
G75*
G02*
X33475000Y28006250I0J-218750D01*
G01*
X33475000Y27568750D01*
G75*
G02*
X33256250Y27350000I-218750J0D01*
G01*
G37*
%TD*%
%TO.C,R18*%
G36*
G01*
X75850000Y31656250D02*
X75850000Y31143750D01*
G75*
G02*
X75631250Y30925000I-218750J0D01*
G01*
X75193750Y30925000D01*
G75*
G02*
X74975000Y31143750I0J218750D01*
G01*
X74975000Y31656250D01*
G75*
G02*
X75193750Y31875000I218750J0D01*
G01*
X75631250Y31875000D01*
G75*
G02*
X75850000Y31656250I0J-218750D01*
G01*
G37*
G36*
G01*
X77425000Y31656250D02*
X77425000Y31143750D01*
G75*
G02*
X77206250Y30925000I-218750J0D01*
G01*
X76768750Y30925000D01*
G75*
G02*
X76550000Y31143750I0J218750D01*
G01*
X76550000Y31656250D01*
G75*
G02*
X76768750Y31875000I218750J0D01*
G01*
X77206250Y31875000D01*
G75*
G02*
X77425000Y31656250I0J-218750D01*
G01*
G37*
%TD*%
%TO.C,R19*%
G36*
G01*
X29650000Y28256250D02*
X29650000Y27743750D01*
G75*
G02*
X29431250Y27525000I-218750J0D01*
G01*
X28993750Y27525000D01*
G75*
G02*
X28775000Y27743750I0J218750D01*
G01*
X28775000Y28256250D01*
G75*
G02*
X28993750Y28475000I218750J0D01*
G01*
X29431250Y28475000D01*
G75*
G02*
X29650000Y28256250I0J-218750D01*
G01*
G37*
G36*
G01*
X31225000Y28256250D02*
X31225000Y27743750D01*
G75*
G02*
X31006250Y27525000I-218750J0D01*
G01*
X30568750Y27525000D01*
G75*
G02*
X30350000Y27743750I0J218750D01*
G01*
X30350000Y28256250D01*
G75*
G02*
X30568750Y28475000I218750J0D01*
G01*
X31006250Y28475000D01*
G75*
G02*
X31225000Y28256250I0J-218750D01*
G01*
G37*
%TD*%
%TO.C,R20*%
G36*
G01*
X47243750Y33225000D02*
X47756250Y33225000D01*
G75*
G02*
X47975000Y33006250I0J-218750D01*
G01*
X47975000Y32568750D01*
G75*
G02*
X47756250Y32350000I-218750J0D01*
G01*
X47243750Y32350000D01*
G75*
G02*
X47025000Y32568750I0J218750D01*
G01*
X47025000Y33006250D01*
G75*
G02*
X47243750Y33225000I218750J0D01*
G01*
G37*
G36*
G01*
X47243750Y31650000D02*
X47756250Y31650000D01*
G75*
G02*
X47975000Y31431250I0J-218750D01*
G01*
X47975000Y30993750D01*
G75*
G02*
X47756250Y30775000I-218750J0D01*
G01*
X47243750Y30775000D01*
G75*
G02*
X47025000Y30993750I0J218750D01*
G01*
X47025000Y31431250D01*
G75*
G02*
X47243750Y31650000I218750J0D01*
G01*
G37*
%TD*%
D13*
%TO.C,U1*%
X25950000Y19900000D03*
X25000000Y19900000D03*
X24050000Y19900000D03*
X24050000Y22100000D03*
X25950000Y22100000D03*
X25000000Y22100000D03*
%TD*%
%TO.C,U2*%
G36*
G01*
X92265522Y34543844D02*
X92159456Y34437778D01*
G75*
G02*
X92053390Y34437778I-53033J53033D01*
G01*
X91063440Y35427728D01*
G75*
G02*
X91063440Y35533794I53033J53033D01*
G01*
X91169506Y35639860D01*
G75*
G02*
X91275572Y35639860I53033J-53033D01*
G01*
X92265522Y34649910D01*
G75*
G02*
X92265522Y34543844I-53033J-53033D01*
G01*
G37*
G36*
G01*
X91911969Y34190291D02*
X91805903Y34084225D01*
G75*
G02*
X91699837Y34084225I-53033J53033D01*
G01*
X90709887Y35074175D01*
G75*
G02*
X90709887Y35180241I53033J53033D01*
G01*
X90815953Y35286307D01*
G75*
G02*
X90922019Y35286307I53033J-53033D01*
G01*
X91911969Y34296357D01*
G75*
G02*
X91911969Y34190291I-53033J-53033D01*
G01*
G37*
G36*
G01*
X91558416Y33836738D02*
X91452350Y33730672D01*
G75*
G02*
X91346284Y33730672I-53033J53033D01*
G01*
X90356334Y34720622D01*
G75*
G02*
X90356334Y34826688I53033J53033D01*
G01*
X90462400Y34932754D01*
G75*
G02*
X90568466Y34932754I53033J-53033D01*
G01*
X91558416Y33942804D01*
G75*
G02*
X91558416Y33836738I-53033J-53033D01*
G01*
G37*
G36*
G01*
X91204862Y33483184D02*
X91098796Y33377118D01*
G75*
G02*
X90992730Y33377118I-53033J53033D01*
G01*
X90002780Y34367068D01*
G75*
G02*
X90002780Y34473134I53033J53033D01*
G01*
X90108846Y34579200D01*
G75*
G02*
X90214912Y34579200I53033J-53033D01*
G01*
X91204862Y33589250D01*
G75*
G02*
X91204862Y33483184I-53033J-53033D01*
G01*
G37*
G36*
G01*
X90851309Y33129631D02*
X90745243Y33023565D01*
G75*
G02*
X90639177Y33023565I-53033J53033D01*
G01*
X89649227Y34013515D01*
G75*
G02*
X89649227Y34119581I53033J53033D01*
G01*
X89755293Y34225647D01*
G75*
G02*
X89861359Y34225647I53033J-53033D01*
G01*
X90851309Y33235697D01*
G75*
G02*
X90851309Y33129631I-53033J-53033D01*
G01*
G37*
G36*
G01*
X90497755Y32776077D02*
X90391689Y32670011D01*
G75*
G02*
X90285623Y32670011I-53033J53033D01*
G01*
X89295673Y33659961D01*
G75*
G02*
X89295673Y33766027I53033J53033D01*
G01*
X89401739Y33872093D01*
G75*
G02*
X89507805Y33872093I53033J-53033D01*
G01*
X90497755Y32882143D01*
G75*
G02*
X90497755Y32776077I-53033J-53033D01*
G01*
G37*
G36*
G01*
X90144202Y32422524D02*
X90038136Y32316458D01*
G75*
G02*
X89932070Y32316458I-53033J53033D01*
G01*
X88942120Y33306408D01*
G75*
G02*
X88942120Y33412474I53033J53033D01*
G01*
X89048186Y33518540D01*
G75*
G02*
X89154252Y33518540I53033J-53033D01*
G01*
X90144202Y32528590D01*
G75*
G02*
X90144202Y32422524I-53033J-53033D01*
G01*
G37*
G36*
G01*
X89790649Y32068971D02*
X89684583Y31962905D01*
G75*
G02*
X89578517Y31962905I-53033J53033D01*
G01*
X88588567Y32952855D01*
G75*
G02*
X88588567Y33058921I53033J53033D01*
G01*
X88694633Y33164987D01*
G75*
G02*
X88800699Y33164987I53033J-53033D01*
G01*
X89790649Y32175037D01*
G75*
G02*
X89790649Y32068971I-53033J-53033D01*
G01*
G37*
G36*
G01*
X89437095Y31715417D02*
X89331029Y31609351D01*
G75*
G02*
X89224963Y31609351I-53033J53033D01*
G01*
X88235013Y32599301D01*
G75*
G02*
X88235013Y32705367I53033J53033D01*
G01*
X88341079Y32811433D01*
G75*
G02*
X88447145Y32811433I53033J-53033D01*
G01*
X89437095Y31821483D01*
G75*
G02*
X89437095Y31715417I-53033J-53033D01*
G01*
G37*
G36*
G01*
X89083542Y31361864D02*
X88977476Y31255798D01*
G75*
G02*
X88871410Y31255798I-53033J53033D01*
G01*
X87881460Y32245748D01*
G75*
G02*
X87881460Y32351814I53033J53033D01*
G01*
X87987526Y32457880D01*
G75*
G02*
X88093592Y32457880I53033J-53033D01*
G01*
X89083542Y31467930D01*
G75*
G02*
X89083542Y31361864I-53033J-53033D01*
G01*
G37*
G36*
G01*
X88729989Y31008311D02*
X88623923Y30902245D01*
G75*
G02*
X88517857Y30902245I-53033J53033D01*
G01*
X87527907Y31892195D01*
G75*
G02*
X87527907Y31998261I53033J53033D01*
G01*
X87633973Y32104327D01*
G75*
G02*
X87740039Y32104327I53033J-53033D01*
G01*
X88729989Y31114377D01*
G75*
G02*
X88729989Y31008311I-53033J-53033D01*
G01*
G37*
G36*
G01*
X88376435Y30654757D02*
X88270369Y30548691D01*
G75*
G02*
X88164303Y30548691I-53033J53033D01*
G01*
X87174353Y31538641D01*
G75*
G02*
X87174353Y31644707I53033J53033D01*
G01*
X87280419Y31750773D01*
G75*
G02*
X87386485Y31750773I53033J-53033D01*
G01*
X88376435Y30760823D01*
G75*
G02*
X88376435Y30654757I-53033J-53033D01*
G01*
G37*
G36*
G01*
X88022882Y30301204D02*
X87916816Y30195138D01*
G75*
G02*
X87810750Y30195138I-53033J53033D01*
G01*
X86820800Y31185088D01*
G75*
G02*
X86820800Y31291154I53033J53033D01*
G01*
X86926866Y31397220D01*
G75*
G02*
X87032932Y31397220I53033J-53033D01*
G01*
X88022882Y30407270D01*
G75*
G02*
X88022882Y30301204I-53033J-53033D01*
G01*
G37*
G36*
G01*
X87669328Y29947650D02*
X87563262Y29841584D01*
G75*
G02*
X87457196Y29841584I-53033J53033D01*
G01*
X86467246Y30831534D01*
G75*
G02*
X86467246Y30937600I53033J53033D01*
G01*
X86573312Y31043666D01*
G75*
G02*
X86679378Y31043666I53033J-53033D01*
G01*
X87669328Y30053716D01*
G75*
G02*
X87669328Y29947650I-53033J-53033D01*
G01*
G37*
G36*
G01*
X87315775Y29594097D02*
X87209709Y29488031D01*
G75*
G02*
X87103643Y29488031I-53033J53033D01*
G01*
X86113693Y30477981D01*
G75*
G02*
X86113693Y30584047I53033J53033D01*
G01*
X86219759Y30690113D01*
G75*
G02*
X86325825Y30690113I53033J-53033D01*
G01*
X87315775Y29700163D01*
G75*
G02*
X87315775Y29594097I-53033J-53033D01*
G01*
G37*
G36*
G01*
X86962222Y29240544D02*
X86856156Y29134478D01*
G75*
G02*
X86750090Y29134478I-53033J53033D01*
G01*
X85760140Y30124428D01*
G75*
G02*
X85760140Y30230494I53033J53033D01*
G01*
X85866206Y30336560D01*
G75*
G02*
X85972272Y30336560I53033J-53033D01*
G01*
X86962222Y29346610D01*
G75*
G02*
X86962222Y29240544I-53033J-53033D01*
G01*
G37*
G36*
G01*
X84239860Y30124428D02*
X83249910Y29134478D01*
G75*
G02*
X83143844Y29134478I-53033J53033D01*
G01*
X83037778Y29240544D01*
G75*
G02*
X83037778Y29346610I53033J53033D01*
G01*
X84027728Y30336560D01*
G75*
G02*
X84133794Y30336560I53033J-53033D01*
G01*
X84239860Y30230494D01*
G75*
G02*
X84239860Y30124428I-53033J-53033D01*
G01*
G37*
G36*
G01*
X83886307Y30477981D02*
X82896357Y29488031D01*
G75*
G02*
X82790291Y29488031I-53033J53033D01*
G01*
X82684225Y29594097D01*
G75*
G02*
X82684225Y29700163I53033J53033D01*
G01*
X83674175Y30690113D01*
G75*
G02*
X83780241Y30690113I53033J-53033D01*
G01*
X83886307Y30584047D01*
G75*
G02*
X83886307Y30477981I-53033J-53033D01*
G01*
G37*
G36*
G01*
X83532754Y30831534D02*
X82542804Y29841584D01*
G75*
G02*
X82436738Y29841584I-53033J53033D01*
G01*
X82330672Y29947650D01*
G75*
G02*
X82330672Y30053716I53033J53033D01*
G01*
X83320622Y31043666D01*
G75*
G02*
X83426688Y31043666I53033J-53033D01*
G01*
X83532754Y30937600D01*
G75*
G02*
X83532754Y30831534I-53033J-53033D01*
G01*
G37*
G36*
G01*
X83179200Y31185088D02*
X82189250Y30195138D01*
G75*
G02*
X82083184Y30195138I-53033J53033D01*
G01*
X81977118Y30301204D01*
G75*
G02*
X81977118Y30407270I53033J53033D01*
G01*
X82967068Y31397220D01*
G75*
G02*
X83073134Y31397220I53033J-53033D01*
G01*
X83179200Y31291154D01*
G75*
G02*
X83179200Y31185088I-53033J-53033D01*
G01*
G37*
G36*
G01*
X82825647Y31538641D02*
X81835697Y30548691D01*
G75*
G02*
X81729631Y30548691I-53033J53033D01*
G01*
X81623565Y30654757D01*
G75*
G02*
X81623565Y30760823I53033J53033D01*
G01*
X82613515Y31750773D01*
G75*
G02*
X82719581Y31750773I53033J-53033D01*
G01*
X82825647Y31644707D01*
G75*
G02*
X82825647Y31538641I-53033J-53033D01*
G01*
G37*
G36*
G01*
X82472093Y31892195D02*
X81482143Y30902245D01*
G75*
G02*
X81376077Y30902245I-53033J53033D01*
G01*
X81270011Y31008311D01*
G75*
G02*
X81270011Y31114377I53033J53033D01*
G01*
X82259961Y32104327D01*
G75*
G02*
X82366027Y32104327I53033J-53033D01*
G01*
X82472093Y31998261D01*
G75*
G02*
X82472093Y31892195I-53033J-53033D01*
G01*
G37*
G36*
G01*
X82118540Y32245748D02*
X81128590Y31255798D01*
G75*
G02*
X81022524Y31255798I-53033J53033D01*
G01*
X80916458Y31361864D01*
G75*
G02*
X80916458Y31467930I53033J53033D01*
G01*
X81906408Y32457880D01*
G75*
G02*
X82012474Y32457880I53033J-53033D01*
G01*
X82118540Y32351814D01*
G75*
G02*
X82118540Y32245748I-53033J-53033D01*
G01*
G37*
G36*
G01*
X81764987Y32599301D02*
X80775037Y31609351D01*
G75*
G02*
X80668971Y31609351I-53033J53033D01*
G01*
X80562905Y31715417D01*
G75*
G02*
X80562905Y31821483I53033J53033D01*
G01*
X81552855Y32811433D01*
G75*
G02*
X81658921Y32811433I53033J-53033D01*
G01*
X81764987Y32705367D01*
G75*
G02*
X81764987Y32599301I-53033J-53033D01*
G01*
G37*
G36*
G01*
X81411433Y32952855D02*
X80421483Y31962905D01*
G75*
G02*
X80315417Y31962905I-53033J53033D01*
G01*
X80209351Y32068971D01*
G75*
G02*
X80209351Y32175037I53033J53033D01*
G01*
X81199301Y33164987D01*
G75*
G02*
X81305367Y33164987I53033J-53033D01*
G01*
X81411433Y33058921D01*
G75*
G02*
X81411433Y32952855I-53033J-53033D01*
G01*
G37*
G36*
G01*
X81057880Y33306408D02*
X80067930Y32316458D01*
G75*
G02*
X79961864Y32316458I-53033J53033D01*
G01*
X79855798Y32422524D01*
G75*
G02*
X79855798Y32528590I53033J53033D01*
G01*
X80845748Y33518540D01*
G75*
G02*
X80951814Y33518540I53033J-53033D01*
G01*
X81057880Y33412474D01*
G75*
G02*
X81057880Y33306408I-53033J-53033D01*
G01*
G37*
G36*
G01*
X80704327Y33659961D02*
X79714377Y32670011D01*
G75*
G02*
X79608311Y32670011I-53033J53033D01*
G01*
X79502245Y32776077D01*
G75*
G02*
X79502245Y32882143I53033J53033D01*
G01*
X80492195Y33872093D01*
G75*
G02*
X80598261Y33872093I53033J-53033D01*
G01*
X80704327Y33766027D01*
G75*
G02*
X80704327Y33659961I-53033J-53033D01*
G01*
G37*
G36*
G01*
X80350773Y34013515D02*
X79360823Y33023565D01*
G75*
G02*
X79254757Y33023565I-53033J53033D01*
G01*
X79148691Y33129631D01*
G75*
G02*
X79148691Y33235697I53033J53033D01*
G01*
X80138641Y34225647D01*
G75*
G02*
X80244707Y34225647I53033J-53033D01*
G01*
X80350773Y34119581D01*
G75*
G02*
X80350773Y34013515I-53033J-53033D01*
G01*
G37*
G36*
G01*
X79997220Y34367068D02*
X79007270Y33377118D01*
G75*
G02*
X78901204Y33377118I-53033J53033D01*
G01*
X78795138Y33483184D01*
G75*
G02*
X78795138Y33589250I53033J53033D01*
G01*
X79785088Y34579200D01*
G75*
G02*
X79891154Y34579200I53033J-53033D01*
G01*
X79997220Y34473134D01*
G75*
G02*
X79997220Y34367068I-53033J-53033D01*
G01*
G37*
G36*
G01*
X79643666Y34720622D02*
X78653716Y33730672D01*
G75*
G02*
X78547650Y33730672I-53033J53033D01*
G01*
X78441584Y33836738D01*
G75*
G02*
X78441584Y33942804I53033J53033D01*
G01*
X79431534Y34932754D01*
G75*
G02*
X79537600Y34932754I53033J-53033D01*
G01*
X79643666Y34826688D01*
G75*
G02*
X79643666Y34720622I-53033J-53033D01*
G01*
G37*
G36*
G01*
X79290113Y35074175D02*
X78300163Y34084225D01*
G75*
G02*
X78194097Y34084225I-53033J53033D01*
G01*
X78088031Y34190291D01*
G75*
G02*
X78088031Y34296357I53033J53033D01*
G01*
X79077981Y35286307D01*
G75*
G02*
X79184047Y35286307I53033J-53033D01*
G01*
X79290113Y35180241D01*
G75*
G02*
X79290113Y35074175I-53033J-53033D01*
G01*
G37*
G36*
G01*
X78936560Y35427728D02*
X77946610Y34437778D01*
G75*
G02*
X77840544Y34437778I-53033J53033D01*
G01*
X77734478Y34543844D01*
G75*
G02*
X77734478Y34649910I53033J53033D01*
G01*
X78724428Y35639860D01*
G75*
G02*
X78830494Y35639860I53033J-53033D01*
G01*
X78936560Y35533794D01*
G75*
G02*
X78936560Y35427728I-53033J-53033D01*
G01*
G37*
G36*
G01*
X78936560Y37266206D02*
X78830494Y37160140D01*
G75*
G02*
X78724428Y37160140I-53033J53033D01*
G01*
X77734478Y38150090D01*
G75*
G02*
X77734478Y38256156I53033J53033D01*
G01*
X77840544Y38362222D01*
G75*
G02*
X77946610Y38362222I53033J-53033D01*
G01*
X78936560Y37372272D01*
G75*
G02*
X78936560Y37266206I-53033J-53033D01*
G01*
G37*
G36*
G01*
X79290113Y37619759D02*
X79184047Y37513693D01*
G75*
G02*
X79077981Y37513693I-53033J53033D01*
G01*
X78088031Y38503643D01*
G75*
G02*
X78088031Y38609709I53033J53033D01*
G01*
X78194097Y38715775D01*
G75*
G02*
X78300163Y38715775I53033J-53033D01*
G01*
X79290113Y37725825D01*
G75*
G02*
X79290113Y37619759I-53033J-53033D01*
G01*
G37*
G36*
G01*
X79643666Y37973312D02*
X79537600Y37867246D01*
G75*
G02*
X79431534Y37867246I-53033J53033D01*
G01*
X78441584Y38857196D01*
G75*
G02*
X78441584Y38963262I53033J53033D01*
G01*
X78547650Y39069328D01*
G75*
G02*
X78653716Y39069328I53033J-53033D01*
G01*
X79643666Y38079378D01*
G75*
G02*
X79643666Y37973312I-53033J-53033D01*
G01*
G37*
G36*
G01*
X79997220Y38326866D02*
X79891154Y38220800D01*
G75*
G02*
X79785088Y38220800I-53033J53033D01*
G01*
X78795138Y39210750D01*
G75*
G02*
X78795138Y39316816I53033J53033D01*
G01*
X78901204Y39422882D01*
G75*
G02*
X79007270Y39422882I53033J-53033D01*
G01*
X79997220Y38432932D01*
G75*
G02*
X79997220Y38326866I-53033J-53033D01*
G01*
G37*
G36*
G01*
X80350773Y38680419D02*
X80244707Y38574353D01*
G75*
G02*
X80138641Y38574353I-53033J53033D01*
G01*
X79148691Y39564303D01*
G75*
G02*
X79148691Y39670369I53033J53033D01*
G01*
X79254757Y39776435D01*
G75*
G02*
X79360823Y39776435I53033J-53033D01*
G01*
X80350773Y38786485D01*
G75*
G02*
X80350773Y38680419I-53033J-53033D01*
G01*
G37*
G36*
G01*
X80704327Y39033973D02*
X80598261Y38927907D01*
G75*
G02*
X80492195Y38927907I-53033J53033D01*
G01*
X79502245Y39917857D01*
G75*
G02*
X79502245Y40023923I53033J53033D01*
G01*
X79608311Y40129989D01*
G75*
G02*
X79714377Y40129989I53033J-53033D01*
G01*
X80704327Y39140039D01*
G75*
G02*
X80704327Y39033973I-53033J-53033D01*
G01*
G37*
G36*
G01*
X81057880Y39387526D02*
X80951814Y39281460D01*
G75*
G02*
X80845748Y39281460I-53033J53033D01*
G01*
X79855798Y40271410D01*
G75*
G02*
X79855798Y40377476I53033J53033D01*
G01*
X79961864Y40483542D01*
G75*
G02*
X80067930Y40483542I53033J-53033D01*
G01*
X81057880Y39493592D01*
G75*
G02*
X81057880Y39387526I-53033J-53033D01*
G01*
G37*
G36*
G01*
X81411433Y39741079D02*
X81305367Y39635013D01*
G75*
G02*
X81199301Y39635013I-53033J53033D01*
G01*
X80209351Y40624963D01*
G75*
G02*
X80209351Y40731029I53033J53033D01*
G01*
X80315417Y40837095D01*
G75*
G02*
X80421483Y40837095I53033J-53033D01*
G01*
X81411433Y39847145D01*
G75*
G02*
X81411433Y39741079I-53033J-53033D01*
G01*
G37*
G36*
G01*
X81764987Y40094633D02*
X81658921Y39988567D01*
G75*
G02*
X81552855Y39988567I-53033J53033D01*
G01*
X80562905Y40978517D01*
G75*
G02*
X80562905Y41084583I53033J53033D01*
G01*
X80668971Y41190649D01*
G75*
G02*
X80775037Y41190649I53033J-53033D01*
G01*
X81764987Y40200699D01*
G75*
G02*
X81764987Y40094633I-53033J-53033D01*
G01*
G37*
G36*
G01*
X82118540Y40448186D02*
X82012474Y40342120D01*
G75*
G02*
X81906408Y40342120I-53033J53033D01*
G01*
X80916458Y41332070D01*
G75*
G02*
X80916458Y41438136I53033J53033D01*
G01*
X81022524Y41544202D01*
G75*
G02*
X81128590Y41544202I53033J-53033D01*
G01*
X82118540Y40554252D01*
G75*
G02*
X82118540Y40448186I-53033J-53033D01*
G01*
G37*
G36*
G01*
X82472093Y40801739D02*
X82366027Y40695673D01*
G75*
G02*
X82259961Y40695673I-53033J53033D01*
G01*
X81270011Y41685623D01*
G75*
G02*
X81270011Y41791689I53033J53033D01*
G01*
X81376077Y41897755D01*
G75*
G02*
X81482143Y41897755I53033J-53033D01*
G01*
X82472093Y40907805D01*
G75*
G02*
X82472093Y40801739I-53033J-53033D01*
G01*
G37*
G36*
G01*
X82825647Y41155293D02*
X82719581Y41049227D01*
G75*
G02*
X82613515Y41049227I-53033J53033D01*
G01*
X81623565Y42039177D01*
G75*
G02*
X81623565Y42145243I53033J53033D01*
G01*
X81729631Y42251309D01*
G75*
G02*
X81835697Y42251309I53033J-53033D01*
G01*
X82825647Y41261359D01*
G75*
G02*
X82825647Y41155293I-53033J-53033D01*
G01*
G37*
G36*
G01*
X83179200Y41508846D02*
X83073134Y41402780D01*
G75*
G02*
X82967068Y41402780I-53033J53033D01*
G01*
X81977118Y42392730D01*
G75*
G02*
X81977118Y42498796I53033J53033D01*
G01*
X82083184Y42604862D01*
G75*
G02*
X82189250Y42604862I53033J-53033D01*
G01*
X83179200Y41614912D01*
G75*
G02*
X83179200Y41508846I-53033J-53033D01*
G01*
G37*
G36*
G01*
X83532754Y41862400D02*
X83426688Y41756334D01*
G75*
G02*
X83320622Y41756334I-53033J53033D01*
G01*
X82330672Y42746284D01*
G75*
G02*
X82330672Y42852350I53033J53033D01*
G01*
X82436738Y42958416D01*
G75*
G02*
X82542804Y42958416I53033J-53033D01*
G01*
X83532754Y41968466D01*
G75*
G02*
X83532754Y41862400I-53033J-53033D01*
G01*
G37*
G36*
G01*
X83886307Y42215953D02*
X83780241Y42109887D01*
G75*
G02*
X83674175Y42109887I-53033J53033D01*
G01*
X82684225Y43099837D01*
G75*
G02*
X82684225Y43205903I53033J53033D01*
G01*
X82790291Y43311969D01*
G75*
G02*
X82896357Y43311969I53033J-53033D01*
G01*
X83886307Y42322019D01*
G75*
G02*
X83886307Y42215953I-53033J-53033D01*
G01*
G37*
G36*
G01*
X84239860Y42569506D02*
X84133794Y42463440D01*
G75*
G02*
X84027728Y42463440I-53033J53033D01*
G01*
X83037778Y43453390D01*
G75*
G02*
X83037778Y43559456I53033J53033D01*
G01*
X83143844Y43665522D01*
G75*
G02*
X83249910Y43665522I53033J-53033D01*
G01*
X84239860Y42675572D01*
G75*
G02*
X84239860Y42569506I-53033J-53033D01*
G01*
G37*
G36*
G01*
X86962222Y43453390D02*
X85972272Y42463440D01*
G75*
G02*
X85866206Y42463440I-53033J53033D01*
G01*
X85760140Y42569506D01*
G75*
G02*
X85760140Y42675572I53033J53033D01*
G01*
X86750090Y43665522D01*
G75*
G02*
X86856156Y43665522I53033J-53033D01*
G01*
X86962222Y43559456D01*
G75*
G02*
X86962222Y43453390I-53033J-53033D01*
G01*
G37*
G36*
G01*
X87315775Y43099837D02*
X86325825Y42109887D01*
G75*
G02*
X86219759Y42109887I-53033J53033D01*
G01*
X86113693Y42215953D01*
G75*
G02*
X86113693Y42322019I53033J53033D01*
G01*
X87103643Y43311969D01*
G75*
G02*
X87209709Y43311969I53033J-53033D01*
G01*
X87315775Y43205903D01*
G75*
G02*
X87315775Y43099837I-53033J-53033D01*
G01*
G37*
G36*
G01*
X87669328Y42746284D02*
X86679378Y41756334D01*
G75*
G02*
X86573312Y41756334I-53033J53033D01*
G01*
X86467246Y41862400D01*
G75*
G02*
X86467246Y41968466I53033J53033D01*
G01*
X87457196Y42958416D01*
G75*
G02*
X87563262Y42958416I53033J-53033D01*
G01*
X87669328Y42852350D01*
G75*
G02*
X87669328Y42746284I-53033J-53033D01*
G01*
G37*
G36*
G01*
X88022882Y42392730D02*
X87032932Y41402780D01*
G75*
G02*
X86926866Y41402780I-53033J53033D01*
G01*
X86820800Y41508846D01*
G75*
G02*
X86820800Y41614912I53033J53033D01*
G01*
X87810750Y42604862D01*
G75*
G02*
X87916816Y42604862I53033J-53033D01*
G01*
X88022882Y42498796D01*
G75*
G02*
X88022882Y42392730I-53033J-53033D01*
G01*
G37*
G36*
G01*
X88376435Y42039177D02*
X87386485Y41049227D01*
G75*
G02*
X87280419Y41049227I-53033J53033D01*
G01*
X87174353Y41155293D01*
G75*
G02*
X87174353Y41261359I53033J53033D01*
G01*
X88164303Y42251309D01*
G75*
G02*
X88270369Y42251309I53033J-53033D01*
G01*
X88376435Y42145243D01*
G75*
G02*
X88376435Y42039177I-53033J-53033D01*
G01*
G37*
G36*
G01*
X88729989Y41685623D02*
X87740039Y40695673D01*
G75*
G02*
X87633973Y40695673I-53033J53033D01*
G01*
X87527907Y40801739D01*
G75*
G02*
X87527907Y40907805I53033J53033D01*
G01*
X88517857Y41897755D01*
G75*
G02*
X88623923Y41897755I53033J-53033D01*
G01*
X88729989Y41791689D01*
G75*
G02*
X88729989Y41685623I-53033J-53033D01*
G01*
G37*
G36*
G01*
X89083542Y41332070D02*
X88093592Y40342120D01*
G75*
G02*
X87987526Y40342120I-53033J53033D01*
G01*
X87881460Y40448186D01*
G75*
G02*
X87881460Y40554252I53033J53033D01*
G01*
X88871410Y41544202D01*
G75*
G02*
X88977476Y41544202I53033J-53033D01*
G01*
X89083542Y41438136D01*
G75*
G02*
X89083542Y41332070I-53033J-53033D01*
G01*
G37*
G36*
G01*
X89437095Y40978517D02*
X88447145Y39988567D01*
G75*
G02*
X88341079Y39988567I-53033J53033D01*
G01*
X88235013Y40094633D01*
G75*
G02*
X88235013Y40200699I53033J53033D01*
G01*
X89224963Y41190649D01*
G75*
G02*
X89331029Y41190649I53033J-53033D01*
G01*
X89437095Y41084583D01*
G75*
G02*
X89437095Y40978517I-53033J-53033D01*
G01*
G37*
G36*
G01*
X89790649Y40624963D02*
X88800699Y39635013D01*
G75*
G02*
X88694633Y39635013I-53033J53033D01*
G01*
X88588567Y39741079D01*
G75*
G02*
X88588567Y39847145I53033J53033D01*
G01*
X89578517Y40837095D01*
G75*
G02*
X89684583Y40837095I53033J-53033D01*
G01*
X89790649Y40731029D01*
G75*
G02*
X89790649Y40624963I-53033J-53033D01*
G01*
G37*
G36*
G01*
X90144202Y40271410D02*
X89154252Y39281460D01*
G75*
G02*
X89048186Y39281460I-53033J53033D01*
G01*
X88942120Y39387526D01*
G75*
G02*
X88942120Y39493592I53033J53033D01*
G01*
X89932070Y40483542D01*
G75*
G02*
X90038136Y40483542I53033J-53033D01*
G01*
X90144202Y40377476D01*
G75*
G02*
X90144202Y40271410I-53033J-53033D01*
G01*
G37*
G36*
G01*
X90497755Y39917857D02*
X89507805Y38927907D01*
G75*
G02*
X89401739Y38927907I-53033J53033D01*
G01*
X89295673Y39033973D01*
G75*
G02*
X89295673Y39140039I53033J53033D01*
G01*
X90285623Y40129989D01*
G75*
G02*
X90391689Y40129989I53033J-53033D01*
G01*
X90497755Y40023923D01*
G75*
G02*
X90497755Y39917857I-53033J-53033D01*
G01*
G37*
G36*
G01*
X90851309Y39564303D02*
X89861359Y38574353D01*
G75*
G02*
X89755293Y38574353I-53033J53033D01*
G01*
X89649227Y38680419D01*
G75*
G02*
X89649227Y38786485I53033J53033D01*
G01*
X90639177Y39776435D01*
G75*
G02*
X90745243Y39776435I53033J-53033D01*
G01*
X90851309Y39670369D01*
G75*
G02*
X90851309Y39564303I-53033J-53033D01*
G01*
G37*
G36*
G01*
X91204862Y39210750D02*
X90214912Y38220800D01*
G75*
G02*
X90108846Y38220800I-53033J53033D01*
G01*
X90002780Y38326866D01*
G75*
G02*
X90002780Y38432932I53033J53033D01*
G01*
X90992730Y39422882D01*
G75*
G02*
X91098796Y39422882I53033J-53033D01*
G01*
X91204862Y39316816D01*
G75*
G02*
X91204862Y39210750I-53033J-53033D01*
G01*
G37*
G36*
G01*
X91558416Y38857196D02*
X90568466Y37867246D01*
G75*
G02*
X90462400Y37867246I-53033J53033D01*
G01*
X90356334Y37973312D01*
G75*
G02*
X90356334Y38079378I53033J53033D01*
G01*
X91346284Y39069328D01*
G75*
G02*
X91452350Y39069328I53033J-53033D01*
G01*
X91558416Y38963262D01*
G75*
G02*
X91558416Y38857196I-53033J-53033D01*
G01*
G37*
G36*
G01*
X91911969Y38503643D02*
X90922019Y37513693D01*
G75*
G02*
X90815953Y37513693I-53033J53033D01*
G01*
X90709887Y37619759D01*
G75*
G02*
X90709887Y37725825I53033J53033D01*
G01*
X91699837Y38715775D01*
G75*
G02*
X91805903Y38715775I53033J-53033D01*
G01*
X91911969Y38609709D01*
G75*
G02*
X91911969Y38503643I-53033J-53033D01*
G01*
G37*
G36*
G01*
X92265522Y38150090D02*
X91275572Y37160140D01*
G75*
G02*
X91169506Y37160140I-53033J53033D01*
G01*
X91063440Y37266206D01*
G75*
G02*
X91063440Y37372272I53033J53033D01*
G01*
X92053390Y38362222D01*
G75*
G02*
X92159456Y38362222I53033J-53033D01*
G01*
X92265522Y38256156D01*
G75*
G02*
X92265522Y38150090I-53033J-53033D01*
G01*
G37*
%TD*%
D14*
%TO.C,U3*%
X69850000Y29950000D03*
X70350000Y29950000D03*
X70850000Y29950000D03*
X71350000Y29950000D03*
X71850000Y29950000D03*
X72350000Y29950000D03*
X72350000Y28050000D03*
X71850000Y28050000D03*
X71350000Y28050000D03*
X70850000Y28050000D03*
X70350000Y28050000D03*
X69850000Y28050000D03*
D15*
X71785000Y29000000D03*
X70415000Y29000000D03*
%TD*%
D16*
%TO.C,Y1*%
X96150000Y30700000D03*
X96150000Y29600000D03*
X96150000Y28500000D03*
%TD*%
D17*
%TO.C,Y2*%
X99000000Y25800000D03*
X101400000Y25800000D03*
X101400000Y30200000D03*
X99000000Y30200000D03*
%TD*%
%TO.C,FB1*%
G36*
G01*
X91343750Y28425000D02*
X91856250Y28425000D01*
G75*
G02*
X92075000Y28206250I0J-218750D01*
G01*
X92075000Y27768750D01*
G75*
G02*
X91856250Y27550000I-218750J0D01*
G01*
X91343750Y27550000D01*
G75*
G02*
X91125000Y27768750I0J218750D01*
G01*
X91125000Y28206250D01*
G75*
G02*
X91343750Y28425000I218750J0D01*
G01*
G37*
G36*
G01*
X91343750Y26850000D02*
X91856250Y26850000D01*
G75*
G02*
X92075000Y26631250I0J-218750D01*
G01*
X92075000Y26193750D01*
G75*
G02*
X91856250Y25975000I-218750J0D01*
G01*
X91343750Y25975000D01*
G75*
G02*
X91125000Y26193750I0J218750D01*
G01*
X91125000Y26631250D01*
G75*
G02*
X91343750Y26850000I218750J0D01*
G01*
G37*
%TD*%
%TO.C,C29*%
G36*
G01*
X85827500Y20810000D02*
X86172500Y20810000D01*
G75*
G02*
X86320000Y20662500I0J-147500D01*
G01*
X86320000Y20367500D01*
G75*
G02*
X86172500Y20220000I-147500J0D01*
G01*
X85827500Y20220000D01*
G75*
G02*
X85680000Y20367500I0J147500D01*
G01*
X85680000Y20662500D01*
G75*
G02*
X85827500Y20810000I147500J0D01*
G01*
G37*
G36*
G01*
X85827500Y21780000D02*
X86172500Y21780000D01*
G75*
G02*
X86320000Y21632500I0J-147500D01*
G01*
X86320000Y21337500D01*
G75*
G02*
X86172500Y21190000I-147500J0D01*
G01*
X85827500Y21190000D01*
G75*
G02*
X85680000Y21337500I0J147500D01*
G01*
X85680000Y21632500D01*
G75*
G02*
X85827500Y21780000I147500J0D01*
G01*
G37*
%TD*%
%TO.C,C30*%
G36*
G01*
X84627500Y21780000D02*
X84972500Y21780000D01*
G75*
G02*
X85120000Y21632500I0J-147500D01*
G01*
X85120000Y21337500D01*
G75*
G02*
X84972500Y21190000I-147500J0D01*
G01*
X84627500Y21190000D01*
G75*
G02*
X84480000Y21337500I0J147500D01*
G01*
X84480000Y21632500D01*
G75*
G02*
X84627500Y21780000I147500J0D01*
G01*
G37*
G36*
G01*
X84627500Y20810000D02*
X84972500Y20810000D01*
G75*
G02*
X85120000Y20662500I0J-147500D01*
G01*
X85120000Y20367500D01*
G75*
G02*
X84972500Y20220000I-147500J0D01*
G01*
X84627500Y20220000D01*
G75*
G02*
X84480000Y20367500I0J147500D01*
G01*
X84480000Y20662500D01*
G75*
G02*
X84627500Y20810000I147500J0D01*
G01*
G37*
%TD*%
%TO.C,C31*%
G36*
G01*
X81827500Y25180000D02*
X82172500Y25180000D01*
G75*
G02*
X82320000Y25032500I0J-147500D01*
G01*
X82320000Y24737500D01*
G75*
G02*
X82172500Y24590000I-147500J0D01*
G01*
X81827500Y24590000D01*
G75*
G02*
X81680000Y24737500I0J147500D01*
G01*
X81680000Y25032500D01*
G75*
G02*
X81827500Y25180000I147500J0D01*
G01*
G37*
G36*
G01*
X81827500Y24210000D02*
X82172500Y24210000D01*
G75*
G02*
X82320000Y24062500I0J-147500D01*
G01*
X82320000Y23767500D01*
G75*
G02*
X82172500Y23620000I-147500J0D01*
G01*
X81827500Y23620000D01*
G75*
G02*
X81680000Y23767500I0J147500D01*
G01*
X81680000Y24062500D01*
G75*
G02*
X81827500Y24210000I147500J0D01*
G01*
G37*
%TD*%
D18*
%TO.C,U4*%
G36*
X86157196Y25900769D02*
G01*
X86149693Y25903045D01*
X86142777Y25906741D01*
X86136716Y25911716D01*
X86131741Y25917777D01*
X86128045Y25924693D01*
X86125769Y25932196D01*
X86125000Y25940000D01*
X86125000Y25963431D01*
X86125769Y25971235D01*
X86128045Y25978738D01*
X86131741Y25985654D01*
X86136716Y25991715D01*
X86233285Y26088284D01*
X86239346Y26093259D01*
X86246262Y26096955D01*
X86253765Y26099231D01*
X86261569Y26100000D01*
X86835000Y26100000D01*
X86842804Y26099231D01*
X86850307Y26096955D01*
X86857223Y26093259D01*
X86863284Y26088284D01*
X86868259Y26082223D01*
X86871955Y26075307D01*
X86874231Y26067804D01*
X86875000Y26060000D01*
X86875000Y25940000D01*
X86874231Y25932196D01*
X86871955Y25924693D01*
X86868259Y25917777D01*
X86863284Y25911716D01*
X86857223Y25906741D01*
X86850307Y25903045D01*
X86842804Y25900769D01*
X86835000Y25900000D01*
X86165000Y25900000D01*
X86157196Y25900769D01*
G37*
G36*
G01*
X86875000Y25650000D02*
X86875000Y25550000D01*
G75*
G02*
X86825000Y25500000I-50000J0D01*
G01*
X86175000Y25500000D01*
G75*
G02*
X86125000Y25550000I0J50000D01*
G01*
X86125000Y25650000D01*
G75*
G02*
X86175000Y25700000I50000J0D01*
G01*
X86825000Y25700000D01*
G75*
G02*
X86875000Y25650000I0J-50000D01*
G01*
G37*
G36*
G01*
X86875000Y25250000D02*
X86875000Y25150000D01*
G75*
G02*
X86825000Y25100000I-50000J0D01*
G01*
X86175000Y25100000D01*
G75*
G02*
X86125000Y25150000I0J50000D01*
G01*
X86125000Y25250000D01*
G75*
G02*
X86175000Y25300000I50000J0D01*
G01*
X86825000Y25300000D01*
G75*
G02*
X86875000Y25250000I0J-50000D01*
G01*
G37*
G36*
G01*
X86875000Y24850000D02*
X86875000Y24750000D01*
G75*
G02*
X86825000Y24700000I-50000J0D01*
G01*
X86175000Y24700000D01*
G75*
G02*
X86125000Y24750000I0J50000D01*
G01*
X86125000Y24850000D01*
G75*
G02*
X86175000Y24900000I50000J0D01*
G01*
X86825000Y24900000D01*
G75*
G02*
X86875000Y24850000I0J-50000D01*
G01*
G37*
G36*
G01*
X86875000Y24450000D02*
X86875000Y24350000D01*
G75*
G02*
X86825000Y24300000I-50000J0D01*
G01*
X86175000Y24300000D01*
G75*
G02*
X86125000Y24350000I0J50000D01*
G01*
X86125000Y24450000D01*
G75*
G02*
X86175000Y24500000I50000J0D01*
G01*
X86825000Y24500000D01*
G75*
G02*
X86875000Y24450000I0J-50000D01*
G01*
G37*
G36*
X86253765Y23900769D02*
G01*
X86246262Y23903045D01*
X86239346Y23906741D01*
X86233285Y23911716D01*
X86136716Y24008285D01*
X86131741Y24014346D01*
X86128045Y24021262D01*
X86125769Y24028765D01*
X86125000Y24036569D01*
X86125000Y24060000D01*
X86125769Y24067804D01*
X86128045Y24075307D01*
X86131741Y24082223D01*
X86136716Y24088284D01*
X86142777Y24093259D01*
X86149693Y24096955D01*
X86157196Y24099231D01*
X86165000Y24100000D01*
X86835000Y24100000D01*
X86842804Y24099231D01*
X86850307Y24096955D01*
X86857223Y24093259D01*
X86863284Y24088284D01*
X86868259Y24082223D01*
X86871955Y24075307D01*
X86874231Y24067804D01*
X86875000Y24060000D01*
X86875000Y23940000D01*
X86874231Y23932196D01*
X86871955Y23924693D01*
X86868259Y23917777D01*
X86863284Y23911716D01*
X86857223Y23906741D01*
X86850307Y23903045D01*
X86842804Y23900769D01*
X86835000Y23900000D01*
X86261569Y23900000D01*
X86253765Y23900769D01*
G37*
G36*
X85932196Y23125769D02*
G01*
X85924693Y23128045D01*
X85917777Y23131741D01*
X85911716Y23136716D01*
X85906741Y23142777D01*
X85903045Y23149693D01*
X85900769Y23157196D01*
X85900000Y23165000D01*
X85900000Y23835000D01*
X85900769Y23842804D01*
X85903045Y23850307D01*
X85906741Y23857223D01*
X85911716Y23863284D01*
X85917777Y23868259D01*
X85924693Y23871955D01*
X85932196Y23874231D01*
X85940000Y23875000D01*
X85963431Y23875000D01*
X85971235Y23874231D01*
X85978738Y23871955D01*
X85985654Y23868259D01*
X85991715Y23863284D01*
X86088284Y23766715D01*
X86093259Y23760654D01*
X86096955Y23753738D01*
X86099231Y23746235D01*
X86100000Y23738431D01*
X86100000Y23165000D01*
X86099231Y23157196D01*
X86096955Y23149693D01*
X86093259Y23142777D01*
X86088284Y23136716D01*
X86082223Y23131741D01*
X86075307Y23128045D01*
X86067804Y23125769D01*
X86060000Y23125000D01*
X85940000Y23125000D01*
X85932196Y23125769D01*
G37*
G36*
G01*
X85700000Y23825000D02*
X85700000Y23175000D01*
G75*
G02*
X85650000Y23125000I-50000J0D01*
G01*
X85550000Y23125000D01*
G75*
G02*
X85500000Y23175000I0J50000D01*
G01*
X85500000Y23825000D01*
G75*
G02*
X85550000Y23875000I50000J0D01*
G01*
X85650000Y23875000D01*
G75*
G02*
X85700000Y23825000I0J-50000D01*
G01*
G37*
G36*
G01*
X85300000Y23825000D02*
X85300000Y23175000D01*
G75*
G02*
X85250000Y23125000I-50000J0D01*
G01*
X85150000Y23125000D01*
G75*
G02*
X85100000Y23175000I0J50000D01*
G01*
X85100000Y23825000D01*
G75*
G02*
X85150000Y23875000I50000J0D01*
G01*
X85250000Y23875000D01*
G75*
G02*
X85300000Y23825000I0J-50000D01*
G01*
G37*
G36*
G01*
X84900000Y23825000D02*
X84900000Y23175000D01*
G75*
G02*
X84850000Y23125000I-50000J0D01*
G01*
X84750000Y23125000D01*
G75*
G02*
X84700000Y23175000I0J50000D01*
G01*
X84700000Y23825000D01*
G75*
G02*
X84750000Y23875000I50000J0D01*
G01*
X84850000Y23875000D01*
G75*
G02*
X84900000Y23825000I0J-50000D01*
G01*
G37*
G36*
G01*
X84500000Y23825000D02*
X84500000Y23175000D01*
G75*
G02*
X84450000Y23125000I-50000J0D01*
G01*
X84350000Y23125000D01*
G75*
G02*
X84300000Y23175000I0J50000D01*
G01*
X84300000Y23825000D01*
G75*
G02*
X84350000Y23875000I50000J0D01*
G01*
X84450000Y23875000D01*
G75*
G02*
X84500000Y23825000I0J-50000D01*
G01*
G37*
G36*
X83932196Y23125769D02*
G01*
X83924693Y23128045D01*
X83917777Y23131741D01*
X83911716Y23136716D01*
X83906741Y23142777D01*
X83903045Y23149693D01*
X83900769Y23157196D01*
X83900000Y23165000D01*
X83900000Y23738431D01*
X83900769Y23746235D01*
X83903045Y23753738D01*
X83906741Y23760654D01*
X83911716Y23766715D01*
X84008285Y23863284D01*
X84014346Y23868259D01*
X84021262Y23871955D01*
X84028765Y23874231D01*
X84036569Y23875000D01*
X84060000Y23875000D01*
X84067804Y23874231D01*
X84075307Y23871955D01*
X84082223Y23868259D01*
X84088284Y23863284D01*
X84093259Y23857223D01*
X84096955Y23850307D01*
X84099231Y23842804D01*
X84100000Y23835000D01*
X84100000Y23165000D01*
X84099231Y23157196D01*
X84096955Y23149693D01*
X84093259Y23142777D01*
X84088284Y23136716D01*
X84082223Y23131741D01*
X84075307Y23128045D01*
X84067804Y23125769D01*
X84060000Y23125000D01*
X83940000Y23125000D01*
X83932196Y23125769D01*
G37*
G36*
X83157196Y23900769D02*
G01*
X83149693Y23903045D01*
X83142777Y23906741D01*
X83136716Y23911716D01*
X83131741Y23917777D01*
X83128045Y23924693D01*
X83125769Y23932196D01*
X83125000Y23940000D01*
X83125000Y24060000D01*
X83125769Y24067804D01*
X83128045Y24075307D01*
X83131741Y24082223D01*
X83136716Y24088284D01*
X83142777Y24093259D01*
X83149693Y24096955D01*
X83157196Y24099231D01*
X83165000Y24100000D01*
X83835000Y24100000D01*
X83842804Y24099231D01*
X83850307Y24096955D01*
X83857223Y24093259D01*
X83863284Y24088284D01*
X83868259Y24082223D01*
X83871955Y24075307D01*
X83874231Y24067804D01*
X83875000Y24060000D01*
X83875000Y24036569D01*
X83874231Y24028765D01*
X83871955Y24021262D01*
X83868259Y24014346D01*
X83863284Y24008285D01*
X83766715Y23911716D01*
X83760654Y23906741D01*
X83753738Y23903045D01*
X83746235Y23900769D01*
X83738431Y23900000D01*
X83165000Y23900000D01*
X83157196Y23900769D01*
G37*
G36*
G01*
X83875000Y24450000D02*
X83875000Y24350000D01*
G75*
G02*
X83825000Y24300000I-50000J0D01*
G01*
X83175000Y24300000D01*
G75*
G02*
X83125000Y24350000I0J50000D01*
G01*
X83125000Y24450000D01*
G75*
G02*
X83175000Y24500000I50000J0D01*
G01*
X83825000Y24500000D01*
G75*
G02*
X83875000Y24450000I0J-50000D01*
G01*
G37*
G36*
G01*
X83875000Y24850000D02*
X83875000Y24750000D01*
G75*
G02*
X83825000Y24700000I-50000J0D01*
G01*
X83175000Y24700000D01*
G75*
G02*
X83125000Y24750000I0J50000D01*
G01*
X83125000Y24850000D01*
G75*
G02*
X83175000Y24900000I50000J0D01*
G01*
X83825000Y24900000D01*
G75*
G02*
X83875000Y24850000I0J-50000D01*
G01*
G37*
G36*
G01*
X83875000Y25250000D02*
X83875000Y25150000D01*
G75*
G02*
X83825000Y25100000I-50000J0D01*
G01*
X83175000Y25100000D01*
G75*
G02*
X83125000Y25150000I0J50000D01*
G01*
X83125000Y25250000D01*
G75*
G02*
X83175000Y25300000I50000J0D01*
G01*
X83825000Y25300000D01*
G75*
G02*
X83875000Y25250000I0J-50000D01*
G01*
G37*
G36*
G01*
X83875000Y25650000D02*
X83875000Y25550000D01*
G75*
G02*
X83825000Y25500000I-50000J0D01*
G01*
X83175000Y25500000D01*
G75*
G02*
X83125000Y25550000I0J50000D01*
G01*
X83125000Y25650000D01*
G75*
G02*
X83175000Y25700000I50000J0D01*
G01*
X83825000Y25700000D01*
G75*
G02*
X83875000Y25650000I0J-50000D01*
G01*
G37*
G36*
X83157196Y25900769D02*
G01*
X83149693Y25903045D01*
X83142777Y25906741D01*
X83136716Y25911716D01*
X83131741Y25917777D01*
X83128045Y25924693D01*
X83125769Y25932196D01*
X83125000Y25940000D01*
X83125000Y26060000D01*
X83125769Y26067804D01*
X83128045Y26075307D01*
X83131741Y26082223D01*
X83136716Y26088284D01*
X83142777Y26093259D01*
X83149693Y26096955D01*
X83157196Y26099231D01*
X83165000Y26100000D01*
X83738431Y26100000D01*
X83746235Y26099231D01*
X83753738Y26096955D01*
X83760654Y26093259D01*
X83766715Y26088284D01*
X83863284Y25991715D01*
X83868259Y25985654D01*
X83871955Y25978738D01*
X83874231Y25971235D01*
X83875000Y25963431D01*
X83875000Y25940000D01*
X83874231Y25932196D01*
X83871955Y25924693D01*
X83868259Y25917777D01*
X83863284Y25911716D01*
X83857223Y25906741D01*
X83850307Y25903045D01*
X83842804Y25900769D01*
X83835000Y25900000D01*
X83165000Y25900000D01*
X83157196Y25900769D01*
G37*
G36*
X84028765Y26125769D02*
G01*
X84021262Y26128045D01*
X84014346Y26131741D01*
X84008285Y26136716D01*
X83911716Y26233285D01*
X83906741Y26239346D01*
X83903045Y26246262D01*
X83900769Y26253765D01*
X83900000Y26261569D01*
X83900000Y26835000D01*
X83900769Y26842804D01*
X83903045Y26850307D01*
X83906741Y26857223D01*
X83911716Y26863284D01*
X83917777Y26868259D01*
X83924693Y26871955D01*
X83932196Y26874231D01*
X83940000Y26875000D01*
X84060000Y26875000D01*
X84067804Y26874231D01*
X84075307Y26871955D01*
X84082223Y26868259D01*
X84088284Y26863284D01*
X84093259Y26857223D01*
X84096955Y26850307D01*
X84099231Y26842804D01*
X84100000Y26835000D01*
X84100000Y26165000D01*
X84099231Y26157196D01*
X84096955Y26149693D01*
X84093259Y26142777D01*
X84088284Y26136716D01*
X84082223Y26131741D01*
X84075307Y26128045D01*
X84067804Y26125769D01*
X84060000Y26125000D01*
X84036569Y26125000D01*
X84028765Y26125769D01*
G37*
G36*
G01*
X84500000Y26825000D02*
X84500000Y26175000D01*
G75*
G02*
X84450000Y26125000I-50000J0D01*
G01*
X84350000Y26125000D01*
G75*
G02*
X84300000Y26175000I0J50000D01*
G01*
X84300000Y26825000D01*
G75*
G02*
X84350000Y26875000I50000J0D01*
G01*
X84450000Y26875000D01*
G75*
G02*
X84500000Y26825000I0J-50000D01*
G01*
G37*
G36*
G01*
X84900000Y26825000D02*
X84900000Y26175000D01*
G75*
G02*
X84850000Y26125000I-50000J0D01*
G01*
X84750000Y26125000D01*
G75*
G02*
X84700000Y26175000I0J50000D01*
G01*
X84700000Y26825000D01*
G75*
G02*
X84750000Y26875000I50000J0D01*
G01*
X84850000Y26875000D01*
G75*
G02*
X84900000Y26825000I0J-50000D01*
G01*
G37*
G36*
G01*
X85300000Y26825000D02*
X85300000Y26175000D01*
G75*
G02*
X85250000Y26125000I-50000J0D01*
G01*
X85150000Y26125000D01*
G75*
G02*
X85100000Y26175000I0J50000D01*
G01*
X85100000Y26825000D01*
G75*
G02*
X85150000Y26875000I50000J0D01*
G01*
X85250000Y26875000D01*
G75*
G02*
X85300000Y26825000I0J-50000D01*
G01*
G37*
G36*
G01*
X85700000Y26825000D02*
X85700000Y26175000D01*
G75*
G02*
X85650000Y26125000I-50000J0D01*
G01*
X85550000Y26125000D01*
G75*
G02*
X85500000Y26175000I0J50000D01*
G01*
X85500000Y26825000D01*
G75*
G02*
X85550000Y26875000I50000J0D01*
G01*
X85650000Y26875000D01*
G75*
G02*
X85700000Y26825000I0J-50000D01*
G01*
G37*
G36*
X85932196Y26125769D02*
G01*
X85924693Y26128045D01*
X85917777Y26131741D01*
X85911716Y26136716D01*
X85906741Y26142777D01*
X85903045Y26149693D01*
X85900769Y26157196D01*
X85900000Y26165000D01*
X85900000Y26835000D01*
X85900769Y26842804D01*
X85903045Y26850307D01*
X85906741Y26857223D01*
X85911716Y26863284D01*
X85917777Y26868259D01*
X85924693Y26871955D01*
X85932196Y26874231D01*
X85940000Y26875000D01*
X86060000Y26875000D01*
X86067804Y26874231D01*
X86075307Y26871955D01*
X86082223Y26868259D01*
X86088284Y26863284D01*
X86093259Y26857223D01*
X86096955Y26850307D01*
X86099231Y26842804D01*
X86100000Y26835000D01*
X86100000Y26261569D01*
X86099231Y26253765D01*
X86096955Y26246262D01*
X86093259Y26239346D01*
X86088284Y26233285D01*
X85991715Y26136716D01*
X85985654Y26131741D01*
X85978738Y26128045D01*
X85971235Y26125769D01*
X85963431Y26125000D01*
X85940000Y26125000D01*
X85932196Y26125769D01*
G37*
G36*
G01*
X85795000Y25560000D02*
X85795000Y25240000D01*
G75*
G02*
X85635000Y25080000I-160000J0D01*
G01*
X85245000Y25080000D01*
G75*
G02*
X85085000Y25240000I0J160000D01*
G01*
X85085000Y25560000D01*
G75*
G02*
X85245000Y25720000I160000J0D01*
G01*
X85635000Y25720000D01*
G75*
G02*
X85795000Y25560000I0J-160000D01*
G01*
G37*
G36*
G01*
X85795000Y24760000D02*
X85795000Y24440000D01*
G75*
G02*
X85635000Y24280000I-160000J0D01*
G01*
X85245000Y24280000D01*
G75*
G02*
X85085000Y24440000I0J160000D01*
G01*
X85085000Y24760000D01*
G75*
G02*
X85245000Y24920000I160000J0D01*
G01*
X85635000Y24920000D01*
G75*
G02*
X85795000Y24760000I0J-160000D01*
G01*
G37*
G36*
G01*
X84915000Y25560000D02*
X84915000Y25240000D01*
G75*
G02*
X84755000Y25080000I-160000J0D01*
G01*
X84365000Y25080000D01*
G75*
G02*
X84205000Y25240000I0J160000D01*
G01*
X84205000Y25560000D01*
G75*
G02*
X84365000Y25720000I160000J0D01*
G01*
X84755000Y25720000D01*
G75*
G02*
X84915000Y25560000I0J-160000D01*
G01*
G37*
G36*
G01*
X84915000Y24760000D02*
X84915000Y24440000D01*
G75*
G02*
X84755000Y24280000I-160000J0D01*
G01*
X84365000Y24280000D01*
G75*
G02*
X84205000Y24440000I0J160000D01*
G01*
X84205000Y24760000D01*
G75*
G02*
X84365000Y24920000I160000J0D01*
G01*
X84755000Y24920000D01*
G75*
G02*
X84915000Y24760000I0J-160000D01*
G01*
G37*
%TD*%
%TO.C,FB2*%
G36*
G01*
X99867000Y7871750D02*
X99867000Y8384250D01*
G75*
G02*
X100085750Y8603000I218750J0D01*
G01*
X100523250Y8603000D01*
G75*
G02*
X100742000Y8384250I0J-218750D01*
G01*
X100742000Y7871750D01*
G75*
G02*
X100523250Y7653000I-218750J0D01*
G01*
X100085750Y7653000D01*
G75*
G02*
X99867000Y7871750I0J218750D01*
G01*
G37*
G36*
G01*
X101442000Y7871750D02*
X101442000Y8384250D01*
G75*
G02*
X101660750Y8603000I218750J0D01*
G01*
X102098250Y8603000D01*
G75*
G02*
X102317000Y8384250I0J-218750D01*
G01*
X102317000Y7871750D01*
G75*
G02*
X102098250Y7653000I-218750J0D01*
G01*
X101660750Y7653000D01*
G75*
G02*
X101442000Y7871750I0J218750D01*
G01*
G37*
%TD*%
M02*
