%TF.GenerationSoftware,KiCad,Pcbnew,5.1.6-c6e7f7d~87~ubuntu18.04.1*%
%TF.CreationDate,2020-09-01T11:59:09+09:00*%
%TF.ProjectId,m5mouse,6d356d6f-7573-4652-9e6b-696361645f70,rev?*%
%TF.SameCoordinates,PX4c4b400PY8583b00*%
%TF.FileFunction,Legend,Top*%
%TF.FilePolarity,Positive*%
%FSLAX46Y46*%
G04 Gerber Fmt 4.6, Leading zero omitted, Abs format (unit mm)*
G04 Created by KiCad (PCBNEW 5.1.6-c6e7f7d~87~ubuntu18.04.1) date 2020-09-01 11:59:09*
%MOMM*%
%LPD*%
G01*
G04 APERTURE LIST*
%ADD10C,0.150000*%
%ADD11C,0.100000*%
%ADD12C,0.120000*%
G04 APERTURE END LIST*
D10*
X15690476Y13372620D02*
X15690476Y14372620D01*
X16023809Y13658334D01*
X16357142Y14372620D01*
X16357142Y13372620D01*
X17309523Y14372620D02*
X16833333Y14372620D01*
X16785714Y13896429D01*
X16833333Y13944048D01*
X16928571Y13991667D01*
X17166666Y13991667D01*
X17261904Y13944048D01*
X17309523Y13896429D01*
X17357142Y13801191D01*
X17357142Y13563096D01*
X17309523Y13467858D01*
X17261904Y13420239D01*
X17166666Y13372620D01*
X16928571Y13372620D01*
X16833333Y13420239D01*
X16785714Y13467858D01*
X17785714Y13372620D02*
X17785714Y14372620D01*
X18119047Y13658334D01*
X18452380Y14372620D01*
X18452380Y13372620D01*
X19071428Y13372620D02*
X18976190Y13420239D01*
X18928571Y13467858D01*
X18880952Y13563096D01*
X18880952Y13848810D01*
X18928571Y13944048D01*
X18976190Y13991667D01*
X19071428Y14039286D01*
X19214285Y14039286D01*
X19309523Y13991667D01*
X19357142Y13944048D01*
X19404761Y13848810D01*
X19404761Y13563096D01*
X19357142Y13467858D01*
X19309523Y13420239D01*
X19214285Y13372620D01*
X19071428Y13372620D01*
X20261904Y14039286D02*
X20261904Y13372620D01*
X19833333Y14039286D02*
X19833333Y13515477D01*
X19880952Y13420239D01*
X19976190Y13372620D01*
X20119047Y13372620D01*
X20214285Y13420239D01*
X20261904Y13467858D01*
X20690476Y13420239D02*
X20785714Y13372620D01*
X20976190Y13372620D01*
X21071428Y13420239D01*
X21119047Y13515477D01*
X21119047Y13563096D01*
X21071428Y13658334D01*
X20976190Y13705953D01*
X20833333Y13705953D01*
X20738095Y13753572D01*
X20690476Y13848810D01*
X20690476Y13896429D01*
X20738095Y13991667D01*
X20833333Y14039286D01*
X20976190Y14039286D01*
X21071428Y13991667D01*
X21928571Y13420239D02*
X21833333Y13372620D01*
X21642857Y13372620D01*
X21547619Y13420239D01*
X21500000Y13515477D01*
X21500000Y13896429D01*
X21547619Y13991667D01*
X21642857Y14039286D01*
X21833333Y14039286D01*
X21928571Y13991667D01*
X21976190Y13896429D01*
X21976190Y13801191D01*
X21500000Y13705953D01*
X23119047Y14420239D02*
X22261904Y13134524D01*
X23452380Y13372620D02*
X23452380Y14372620D01*
X23833333Y14372620D01*
X23928571Y14325000D01*
X23976190Y14277381D01*
X24023809Y14182143D01*
X24023809Y14039286D01*
X23976190Y13944048D01*
X23928571Y13896429D01*
X23833333Y13848810D01*
X23452380Y13848810D01*
X24595238Y13372620D02*
X24500000Y13420239D01*
X24452380Y13467858D01*
X24404761Y13563096D01*
X24404761Y13848810D01*
X24452380Y13944048D01*
X24500000Y13991667D01*
X24595238Y14039286D01*
X24738095Y14039286D01*
X24833333Y13991667D01*
X24880952Y13944048D01*
X24928571Y13848810D01*
X24928571Y13563096D01*
X24880952Y13467858D01*
X24833333Y13420239D01*
X24738095Y13372620D01*
X24595238Y13372620D01*
X25261904Y14039286D02*
X25452380Y13372620D01*
X25642857Y13848810D01*
X25833333Y13372620D01*
X26023809Y14039286D01*
X26785714Y13420239D02*
X26690476Y13372620D01*
X26500000Y13372620D01*
X26404761Y13420239D01*
X26357142Y13515477D01*
X26357142Y13896429D01*
X26404761Y13991667D01*
X26500000Y14039286D01*
X26690476Y14039286D01*
X26785714Y13991667D01*
X26833333Y13896429D01*
X26833333Y13801191D01*
X26357142Y13705953D01*
X27261904Y13372620D02*
X27261904Y14039286D01*
X27261904Y13848810D02*
X27309523Y13944048D01*
X27357142Y13991667D01*
X27452380Y14039286D01*
X27547619Y14039286D01*
X27880952Y14372620D02*
X27880952Y13563096D01*
X27928571Y13467858D01*
X27976190Y13420239D01*
X28071428Y13372620D01*
X28261904Y13372620D01*
X28357142Y13420239D01*
X28404761Y13467858D01*
X28452380Y13563096D01*
X28452380Y14372620D01*
X28928571Y14039286D02*
X28928571Y13372620D01*
X28928571Y13944048D02*
X28976190Y13991667D01*
X29071428Y14039286D01*
X29214285Y14039286D01*
X29309523Y13991667D01*
X29357142Y13896429D01*
X29357142Y13372620D01*
X29833333Y13372620D02*
X29833333Y14039286D01*
X29833333Y14372620D02*
X29785714Y14325000D01*
X29833333Y14277381D01*
X29880952Y14325000D01*
X29833333Y14372620D01*
X29833333Y14277381D01*
X30166666Y14039286D02*
X30547619Y14039286D01*
X30309523Y14372620D02*
X30309523Y13515477D01*
X30357142Y13420239D01*
X30452380Y13372620D01*
X30547619Y13372620D01*
X31547619Y14039286D02*
X31785714Y13372620D01*
X32023809Y14039286D01*
X32595238Y14372620D02*
X32690476Y14372620D01*
X32785714Y14325000D01*
X32833333Y14277381D01*
X32880952Y14182143D01*
X32928571Y13991667D01*
X32928571Y13753572D01*
X32880952Y13563096D01*
X32833333Y13467858D01*
X32785714Y13420239D01*
X32690476Y13372620D01*
X32595238Y13372620D01*
X32500000Y13420239D01*
X32452380Y13467858D01*
X32404761Y13563096D01*
X32357142Y13753572D01*
X32357142Y13991667D01*
X32404761Y14182143D01*
X32452380Y14277381D01*
X32500000Y14325000D01*
X32595238Y14372620D01*
X33357142Y13467858D02*
X33404761Y13420239D01*
X33357142Y13372620D01*
X33309523Y13420239D01*
X33357142Y13467858D01*
X33357142Y13372620D01*
X34357142Y13372620D02*
X33785714Y13372620D01*
X34071428Y13372620D02*
X34071428Y14372620D01*
X33976190Y14229762D01*
X33880952Y14134524D01*
X33785714Y14086905D01*
X20238095Y12198810D02*
X20190476Y12246429D01*
X20095238Y12294048D01*
X20000000Y12294048D01*
X19904761Y12246429D01*
X19857142Y12198810D01*
X19809523Y12103572D01*
X19809523Y12008334D01*
X19857142Y11913096D01*
X19904761Y11865477D01*
X20000000Y11817858D01*
X20095238Y11817858D01*
X20190476Y11865477D01*
X20238095Y11913096D01*
X20238095Y12294048D02*
X20238095Y11913096D01*
X20285714Y11865477D01*
X20333333Y11865477D01*
X20428571Y11913096D01*
X20476190Y12008334D01*
X20476190Y12246429D01*
X20380952Y12389286D01*
X20238095Y12484524D01*
X20047619Y12532143D01*
X19857142Y12484524D01*
X19714285Y12389286D01*
X19619047Y12246429D01*
X19571428Y12055953D01*
X19619047Y11865477D01*
X19714285Y11722620D01*
X19857142Y11627381D01*
X20047619Y11579762D01*
X20238095Y11627381D01*
X20380952Y11722620D01*
X20904761Y11722620D02*
X20904761Y12389286D01*
X20904761Y12294048D02*
X20952380Y12341667D01*
X21047619Y12389286D01*
X21190476Y12389286D01*
X21285714Y12341667D01*
X21333333Y12246429D01*
X21333333Y11722620D01*
X21333333Y12246429D02*
X21380952Y12341667D01*
X21476190Y12389286D01*
X21619047Y12389286D01*
X21714285Y12341667D01*
X21761904Y12246429D01*
X21761904Y11722620D01*
X22619047Y11770239D02*
X22523809Y11722620D01*
X22333333Y11722620D01*
X22238095Y11770239D01*
X22190476Y11865477D01*
X22190476Y12246429D01*
X22238095Y12341667D01*
X22333333Y12389286D01*
X22523809Y12389286D01*
X22619047Y12341667D01*
X22666666Y12246429D01*
X22666666Y12151191D01*
X22190476Y12055953D01*
X23523809Y12389286D02*
X23523809Y11579762D01*
X23476190Y11484524D01*
X23428571Y11436905D01*
X23333333Y11389286D01*
X23190476Y11389286D01*
X23095238Y11436905D01*
X23523809Y11770239D02*
X23428571Y11722620D01*
X23238095Y11722620D01*
X23142857Y11770239D01*
X23095238Y11817858D01*
X23047619Y11913096D01*
X23047619Y12198810D01*
X23095238Y12294048D01*
X23142857Y12341667D01*
X23238095Y12389286D01*
X23428571Y12389286D01*
X23523809Y12341667D01*
X24428571Y11722620D02*
X24428571Y12246429D01*
X24380952Y12341667D01*
X24285714Y12389286D01*
X24095238Y12389286D01*
X24000000Y12341667D01*
X24428571Y11770239D02*
X24333333Y11722620D01*
X24095238Y11722620D01*
X24000000Y11770239D01*
X23952380Y11865477D01*
X23952380Y11960715D01*
X24000000Y12055953D01*
X24095238Y12103572D01*
X24333333Y12103572D01*
X24428571Y12151191D01*
X24904761Y12389286D02*
X24904761Y11722620D01*
X24904761Y12294048D02*
X24952380Y12341667D01*
X25047619Y12389286D01*
X25190476Y12389286D01*
X25285714Y12341667D01*
X25333333Y12246429D01*
X25333333Y11722620D01*
X26190476Y11770239D02*
X26095238Y11722620D01*
X25904761Y11722620D01*
X25809523Y11770239D01*
X25761904Y11865477D01*
X25761904Y12246429D01*
X25809523Y12341667D01*
X25904761Y12389286D01*
X26095238Y12389286D01*
X26190476Y12341667D01*
X26238095Y12246429D01*
X26238095Y12151191D01*
X25761904Y12055953D01*
X26523809Y12389286D02*
X26904761Y12389286D01*
X26666666Y12722620D02*
X26666666Y11865477D01*
X26714285Y11770239D01*
X26809523Y11722620D01*
X26904761Y11722620D01*
X27666666Y11722620D02*
X27666666Y12246429D01*
X27619047Y12341667D01*
X27523809Y12389286D01*
X27333333Y12389286D01*
X27238095Y12341667D01*
X27666666Y11770239D02*
X27571428Y11722620D01*
X27333333Y11722620D01*
X27238095Y11770239D01*
X27190476Y11865477D01*
X27190476Y11960715D01*
X27238095Y12055953D01*
X27333333Y12103572D01*
X27571428Y12103572D01*
X27666666Y12151191D01*
X28571428Y11722620D02*
X28571428Y12246429D01*
X28523809Y12341667D01*
X28428571Y12389286D01*
X28238095Y12389286D01*
X28142857Y12341667D01*
X28571428Y11770239D02*
X28476190Y11722620D01*
X28238095Y11722620D01*
X28142857Y11770239D01*
X28095238Y11865477D01*
X28095238Y11960715D01*
X28142857Y12055953D01*
X28238095Y12103572D01*
X28476190Y12103572D01*
X28571428Y12151191D01*
X29476190Y11722620D02*
X29476190Y12246429D01*
X29428571Y12341667D01*
X29333333Y12389286D01*
X29142857Y12389286D01*
X29047619Y12341667D01*
X29476190Y11770239D02*
X29380952Y11722620D01*
X29142857Y11722620D01*
X29047619Y11770239D01*
X29000000Y11865477D01*
X29000000Y11960715D01*
X29047619Y12055953D01*
X29142857Y12103572D01*
X29380952Y12103572D01*
X29476190Y12151191D01*
X29952380Y12389286D02*
X29952380Y11722620D01*
X29952380Y12294048D02*
X30000000Y12341667D01*
X30095238Y12389286D01*
X30238095Y12389286D01*
X30333333Y12341667D01*
X30380952Y12246429D01*
X30380952Y11722620D01*
X75595238Y13572620D02*
X75595238Y14572620D01*
X75928571Y13858334D01*
X76261904Y14572620D01*
X76261904Y13572620D01*
X77214285Y14572620D02*
X76738095Y14572620D01*
X76690476Y14096429D01*
X76738095Y14144048D01*
X76833333Y14191667D01*
X77071428Y14191667D01*
X77166666Y14144048D01*
X77214285Y14096429D01*
X77261904Y14001191D01*
X77261904Y13763096D01*
X77214285Y13667858D01*
X77166666Y13620239D01*
X77071428Y13572620D01*
X76833333Y13572620D01*
X76738095Y13620239D01*
X76690476Y13667858D01*
X77690476Y13572620D02*
X77690476Y14572620D01*
X78023809Y13858334D01*
X78357142Y14572620D01*
X78357142Y13572620D01*
X78976190Y13572620D02*
X78880952Y13620239D01*
X78833333Y13667858D01*
X78785714Y13763096D01*
X78785714Y14048810D01*
X78833333Y14144048D01*
X78880952Y14191667D01*
X78976190Y14239286D01*
X79119047Y14239286D01*
X79214285Y14191667D01*
X79261904Y14144048D01*
X79309523Y14048810D01*
X79309523Y13763096D01*
X79261904Y13667858D01*
X79214285Y13620239D01*
X79119047Y13572620D01*
X78976190Y13572620D01*
X80166666Y14239286D02*
X80166666Y13572620D01*
X79738095Y14239286D02*
X79738095Y13715477D01*
X79785714Y13620239D01*
X79880952Y13572620D01*
X80023809Y13572620D01*
X80119047Y13620239D01*
X80166666Y13667858D01*
X80595238Y13620239D02*
X80690476Y13572620D01*
X80880952Y13572620D01*
X80976190Y13620239D01*
X81023809Y13715477D01*
X81023809Y13763096D01*
X80976190Y13858334D01*
X80880952Y13905953D01*
X80738095Y13905953D01*
X80642857Y13953572D01*
X80595238Y14048810D01*
X80595238Y14096429D01*
X80642857Y14191667D01*
X80738095Y14239286D01*
X80880952Y14239286D01*
X80976190Y14191667D01*
X81833333Y13620239D02*
X81738095Y13572620D01*
X81547619Y13572620D01*
X81452380Y13620239D01*
X81404761Y13715477D01*
X81404761Y14096429D01*
X81452380Y14191667D01*
X81547619Y14239286D01*
X81738095Y14239286D01*
X81833333Y14191667D01*
X81880952Y14096429D01*
X81880952Y14001191D01*
X81404761Y13905953D01*
X83023809Y14620239D02*
X82166666Y13334524D01*
X83357142Y13572620D02*
X83357142Y14572620D01*
X83690476Y13858334D01*
X84023809Y14572620D01*
X84023809Y13572620D01*
X84642857Y13572620D02*
X84547619Y13620239D01*
X84500000Y13667858D01*
X84452380Y13763096D01*
X84452380Y14048810D01*
X84500000Y14144048D01*
X84547619Y14191667D01*
X84642857Y14239286D01*
X84785714Y14239286D01*
X84880952Y14191667D01*
X84928571Y14144048D01*
X84976190Y14048810D01*
X84976190Y13763096D01*
X84928571Y13667858D01*
X84880952Y13620239D01*
X84785714Y13572620D01*
X84642857Y13572620D01*
X85833333Y14239286D02*
X85833333Y13572620D01*
X85404761Y14239286D02*
X85404761Y13715477D01*
X85452380Y13620239D01*
X85547619Y13572620D01*
X85690476Y13572620D01*
X85785714Y13620239D01*
X85833333Y13667858D01*
X86261904Y13620239D02*
X86357142Y13572620D01*
X86547619Y13572620D01*
X86642857Y13620239D01*
X86690476Y13715477D01*
X86690476Y13763096D01*
X86642857Y13858334D01*
X86547619Y13905953D01*
X86404761Y13905953D01*
X86309523Y13953572D01*
X86261904Y14048810D01*
X86261904Y14096429D01*
X86309523Y14191667D01*
X86404761Y14239286D01*
X86547619Y14239286D01*
X86642857Y14191667D01*
X87500000Y13620239D02*
X87404761Y13572620D01*
X87214285Y13572620D01*
X87119047Y13620239D01*
X87071428Y13715477D01*
X87071428Y14096429D01*
X87119047Y14191667D01*
X87214285Y14239286D01*
X87404761Y14239286D01*
X87500000Y14191667D01*
X87547619Y14096429D01*
X87547619Y14001191D01*
X87071428Y13905953D01*
X87976190Y14572620D02*
X87976190Y13763096D01*
X88023809Y13667858D01*
X88071428Y13620239D01*
X88166666Y13572620D01*
X88357142Y13572620D01*
X88452380Y13620239D01*
X88500000Y13667858D01*
X88547619Y13763096D01*
X88547619Y14572620D01*
X89023809Y14239286D02*
X89023809Y13572620D01*
X89023809Y14144048D02*
X89071428Y14191667D01*
X89166666Y14239286D01*
X89309523Y14239286D01*
X89404761Y14191667D01*
X89452380Y14096429D01*
X89452380Y13572620D01*
X89928571Y13572620D02*
X89928571Y14239286D01*
X89928571Y14572620D02*
X89880952Y14525000D01*
X89928571Y14477381D01*
X89976190Y14525000D01*
X89928571Y14572620D01*
X89928571Y14477381D01*
X90261904Y14239286D02*
X90642857Y14239286D01*
X90404761Y14572620D02*
X90404761Y13715477D01*
X90452380Y13620239D01*
X90547619Y13572620D01*
X90642857Y13572620D01*
X91642857Y14239286D02*
X91880952Y13572620D01*
X92119047Y14239286D01*
X92690476Y14572620D02*
X92785714Y14572620D01*
X92880952Y14525000D01*
X92928571Y14477381D01*
X92976190Y14382143D01*
X93023809Y14191667D01*
X93023809Y13953572D01*
X92976190Y13763096D01*
X92928571Y13667858D01*
X92880952Y13620239D01*
X92785714Y13572620D01*
X92690476Y13572620D01*
X92595238Y13620239D01*
X92547619Y13667858D01*
X92500000Y13763096D01*
X92452380Y13953572D01*
X92452380Y14191667D01*
X92500000Y14382143D01*
X92547619Y14477381D01*
X92595238Y14525000D01*
X92690476Y14572620D01*
X93452380Y13667858D02*
X93500000Y13620239D01*
X93452380Y13572620D01*
X93404761Y13620239D01*
X93452380Y13667858D01*
X93452380Y13572620D01*
X94452380Y13572620D02*
X93880952Y13572620D01*
X94166666Y13572620D02*
X94166666Y14572620D01*
X94071428Y14429762D01*
X93976190Y14334524D01*
X93880952Y14286905D01*
X80238095Y12398810D02*
X80190476Y12446429D01*
X80095238Y12494048D01*
X80000000Y12494048D01*
X79904761Y12446429D01*
X79857142Y12398810D01*
X79809523Y12303572D01*
X79809523Y12208334D01*
X79857142Y12113096D01*
X79904761Y12065477D01*
X80000000Y12017858D01*
X80095238Y12017858D01*
X80190476Y12065477D01*
X80238095Y12113096D01*
X80238095Y12494048D02*
X80238095Y12113096D01*
X80285714Y12065477D01*
X80333333Y12065477D01*
X80428571Y12113096D01*
X80476190Y12208334D01*
X80476190Y12446429D01*
X80380952Y12589286D01*
X80238095Y12684524D01*
X80047619Y12732143D01*
X79857142Y12684524D01*
X79714285Y12589286D01*
X79619047Y12446429D01*
X79571428Y12255953D01*
X79619047Y12065477D01*
X79714285Y11922620D01*
X79857142Y11827381D01*
X80047619Y11779762D01*
X80238095Y11827381D01*
X80380952Y11922620D01*
X80904761Y11922620D02*
X80904761Y12589286D01*
X80904761Y12494048D02*
X80952380Y12541667D01*
X81047619Y12589286D01*
X81190476Y12589286D01*
X81285714Y12541667D01*
X81333333Y12446429D01*
X81333333Y11922620D01*
X81333333Y12446429D02*
X81380952Y12541667D01*
X81476190Y12589286D01*
X81619047Y12589286D01*
X81714285Y12541667D01*
X81761904Y12446429D01*
X81761904Y11922620D01*
X82619047Y11970239D02*
X82523809Y11922620D01*
X82333333Y11922620D01*
X82238095Y11970239D01*
X82190476Y12065477D01*
X82190476Y12446429D01*
X82238095Y12541667D01*
X82333333Y12589286D01*
X82523809Y12589286D01*
X82619047Y12541667D01*
X82666666Y12446429D01*
X82666666Y12351191D01*
X82190476Y12255953D01*
X83523809Y12589286D02*
X83523809Y11779762D01*
X83476190Y11684524D01*
X83428571Y11636905D01*
X83333333Y11589286D01*
X83190476Y11589286D01*
X83095238Y11636905D01*
X83523809Y11970239D02*
X83428571Y11922620D01*
X83238095Y11922620D01*
X83142857Y11970239D01*
X83095238Y12017858D01*
X83047619Y12113096D01*
X83047619Y12398810D01*
X83095238Y12494048D01*
X83142857Y12541667D01*
X83238095Y12589286D01*
X83428571Y12589286D01*
X83523809Y12541667D01*
X84428571Y11922620D02*
X84428571Y12446429D01*
X84380952Y12541667D01*
X84285714Y12589286D01*
X84095238Y12589286D01*
X84000000Y12541667D01*
X84428571Y11970239D02*
X84333333Y11922620D01*
X84095238Y11922620D01*
X84000000Y11970239D01*
X83952380Y12065477D01*
X83952380Y12160715D01*
X84000000Y12255953D01*
X84095238Y12303572D01*
X84333333Y12303572D01*
X84428571Y12351191D01*
X84904761Y12589286D02*
X84904761Y11922620D01*
X84904761Y12494048D02*
X84952380Y12541667D01*
X85047619Y12589286D01*
X85190476Y12589286D01*
X85285714Y12541667D01*
X85333333Y12446429D01*
X85333333Y11922620D01*
X86190476Y11970239D02*
X86095238Y11922620D01*
X85904761Y11922620D01*
X85809523Y11970239D01*
X85761904Y12065477D01*
X85761904Y12446429D01*
X85809523Y12541667D01*
X85904761Y12589286D01*
X86095238Y12589286D01*
X86190476Y12541667D01*
X86238095Y12446429D01*
X86238095Y12351191D01*
X85761904Y12255953D01*
X86523809Y12589286D02*
X86904761Y12589286D01*
X86666666Y12922620D02*
X86666666Y12065477D01*
X86714285Y11970239D01*
X86809523Y11922620D01*
X86904761Y11922620D01*
X87666666Y11922620D02*
X87666666Y12446429D01*
X87619047Y12541667D01*
X87523809Y12589286D01*
X87333333Y12589286D01*
X87238095Y12541667D01*
X87666666Y11970239D02*
X87571428Y11922620D01*
X87333333Y11922620D01*
X87238095Y11970239D01*
X87190476Y12065477D01*
X87190476Y12160715D01*
X87238095Y12255953D01*
X87333333Y12303572D01*
X87571428Y12303572D01*
X87666666Y12351191D01*
X88571428Y11922620D02*
X88571428Y12446429D01*
X88523809Y12541667D01*
X88428571Y12589286D01*
X88238095Y12589286D01*
X88142857Y12541667D01*
X88571428Y11970239D02*
X88476190Y11922620D01*
X88238095Y11922620D01*
X88142857Y11970239D01*
X88095238Y12065477D01*
X88095238Y12160715D01*
X88142857Y12255953D01*
X88238095Y12303572D01*
X88476190Y12303572D01*
X88571428Y12351191D01*
X89476190Y11922620D02*
X89476190Y12446429D01*
X89428571Y12541667D01*
X89333333Y12589286D01*
X89142857Y12589286D01*
X89047619Y12541667D01*
X89476190Y11970239D02*
X89380952Y11922620D01*
X89142857Y11922620D01*
X89047619Y11970239D01*
X89000000Y12065477D01*
X89000000Y12160715D01*
X89047619Y12255953D01*
X89142857Y12303572D01*
X89380952Y12303572D01*
X89476190Y12351191D01*
X89952380Y12589286D02*
X89952380Y11922620D01*
X89952380Y12494048D02*
X90000000Y12541667D01*
X90095238Y12589286D01*
X90238095Y12589286D01*
X90333333Y12541667D01*
X90380952Y12446429D01*
X90380952Y11922620D01*
D11*
%TO.C,G\u002A\u002A\u002A*%
G36*
X33158570Y24567629D02*
G01*
X33040795Y24237233D01*
X32810205Y23957236D01*
X32481124Y23766558D01*
X32459238Y23759032D01*
X32059148Y23685875D01*
X31573894Y23685905D01*
X31068573Y23754231D01*
X30608280Y23885962D01*
X30570921Y23900911D01*
X30118842Y24087069D01*
X30174849Y23089701D01*
X30195910Y22599871D01*
X30192825Y22212166D01*
X30161018Y21860511D01*
X30095915Y21478835D01*
X30047191Y21245666D01*
X29946836Y20686619D01*
X29871874Y20073630D01*
X29824452Y19449365D01*
X29806715Y18856488D01*
X29820809Y18337662D01*
X29868880Y17935554D01*
X29878469Y17890891D01*
X30102723Y17253624D01*
X30469479Y16692419D01*
X30719715Y16423650D01*
X30962941Y16143030D01*
X31053470Y15900170D01*
X30993076Y15663459D01*
X30783535Y15401288D01*
X30777467Y15395200D01*
X30594459Y15229490D01*
X30427210Y15143295D01*
X30206555Y15111185D01*
X29994300Y15107267D01*
X29662451Y15125035D01*
X29249679Y15171917D01*
X28839877Y15238181D01*
X28801396Y15245676D01*
X28634246Y15276699D01*
X28634246Y34430790D01*
X28599180Y34775825D01*
X28453456Y35094673D01*
X28200116Y35351644D01*
X27882724Y35500486D01*
X27528931Y35518771D01*
X27177902Y35402283D01*
X26875808Y35179927D01*
X26668815Y34880606D01*
X26614533Y34706523D01*
X26625886Y34348851D01*
X26768439Y33997226D01*
X27013559Y33713611D01*
X27102072Y33651504D01*
X27426759Y33507988D01*
X27744164Y33501139D01*
X28045080Y33595449D01*
X28360237Y33804913D01*
X28555612Y34095257D01*
X28634246Y34430790D01*
X28634246Y15276699D01*
X28443344Y15312130D01*
X28189427Y15340621D01*
X27978756Y15331152D01*
X27750446Y15283726D01*
X27610508Y15245742D01*
X27103238Y15152639D01*
X26493735Y15118334D01*
X25838318Y15142164D01*
X25193305Y15223465D01*
X24927000Y15277345D01*
X24290494Y15439614D01*
X23800944Y15599223D01*
X23466959Y15753119D01*
X23350863Y15835872D01*
X23235088Y15915981D01*
X23118456Y15900639D01*
X22969246Y15812476D01*
X22664162Y15696046D01*
X22259593Y15658115D01*
X21804881Y15696409D01*
X21349366Y15808653D01*
X21124037Y15897554D01*
X20665871Y16128065D01*
X20340569Y16346982D01*
X20115958Y16580621D01*
X19963672Y16846628D01*
X19869119Y17107721D01*
X19847859Y17346474D01*
X19887919Y17639875D01*
X19995849Y18067624D01*
X20141188Y18350373D01*
X20345340Y18511696D01*
X20629712Y18575170D01*
X20740309Y18578666D01*
X20922349Y18593323D01*
X20976759Y18661085D01*
X20958101Y18769166D01*
X20809384Y19525846D01*
X20748124Y20335066D01*
X20756345Y20786757D01*
X20809014Y21274284D01*
X20918231Y21721525D01*
X21099720Y22164689D01*
X21369200Y22639989D01*
X21742395Y23183635D01*
X21874578Y23362333D01*
X22098055Y23659902D01*
X22268623Y23892066D01*
X22401474Y24089154D01*
X22511805Y24281491D01*
X22614811Y24499404D01*
X22725686Y24773219D01*
X22859626Y25133265D01*
X23031826Y25609866D01*
X23111848Y25831701D01*
X23476808Y26870507D01*
X23785154Y27808088D01*
X24032575Y28630357D01*
X24214762Y29323225D01*
X24299009Y29712333D01*
X24340161Y29996933D01*
X24373872Y30360188D01*
X24398963Y30764223D01*
X24414254Y31171163D01*
X24418565Y31543132D01*
X24410717Y31842255D01*
X24389532Y32030657D01*
X24372507Y32072652D01*
X24283211Y32055603D01*
X24073301Y31975050D01*
X23773344Y31843758D01*
X23413910Y31674492D01*
X23383118Y31659505D01*
X22811140Y31384429D01*
X22351256Y31178577D01*
X21965279Y31033140D01*
X21615020Y30939311D01*
X21262292Y30888283D01*
X20868906Y30871247D01*
X20396674Y30879396D01*
X20058667Y30892751D01*
X19152402Y30943936D01*
X18359409Y31013187D01*
X17688960Y31098767D01*
X17150329Y31198944D01*
X16752787Y31311983D01*
X16505608Y31436152D01*
X16418064Y31569715D01*
X16418000Y31573494D01*
X16477577Y31828697D01*
X16644148Y32172366D01*
X16899478Y32578990D01*
X17225328Y33023057D01*
X17603461Y33479058D01*
X18015640Y33921480D01*
X18278683Y34176284D01*
X19054118Y34821157D01*
X19829308Y35308710D01*
X20629203Y35649069D01*
X21478756Y35852362D01*
X22402918Y35928716D01*
X22598667Y35929647D01*
X22980395Y35918005D01*
X23358441Y35891872D01*
X23636645Y35858919D01*
X23864763Y35824708D01*
X24000095Y35810934D01*
X24017645Y35814334D01*
X23938089Y35858146D01*
X23735509Y35962966D01*
X23438409Y36114213D01*
X23075291Y36297307D01*
X22979667Y36345281D01*
X22334533Y36676930D01*
X21822674Y36961607D01*
X21420441Y37215966D01*
X21104185Y37456659D01*
X20850254Y37700340D01*
X20634999Y37963660D01*
X20588087Y38029308D01*
X20260725Y38541382D01*
X19963471Y39088835D01*
X19707907Y39641911D01*
X19505612Y40170858D01*
X19368165Y40645924D01*
X19307146Y41037354D01*
X19323270Y41279137D01*
X19459720Y41504249D01*
X19724121Y41636227D01*
X20103985Y41676541D01*
X20586821Y41626660D01*
X21160140Y41488054D01*
X21811453Y41262193D01*
X22528268Y40950547D01*
X22661547Y40886305D01*
X23177296Y40619152D01*
X23586769Y40367650D01*
X23944815Y40095372D01*
X24210602Y39857497D01*
X24739602Y39298383D01*
X25204206Y38689461D01*
X25583735Y38064652D01*
X25857511Y37457878D01*
X26002555Y36918075D01*
X26078933Y36731465D01*
X26245693Y36647189D01*
X26521696Y36661129D01*
X26826675Y36738054D01*
X27139947Y36822277D01*
X27391122Y36852235D01*
X27664197Y36832049D01*
X27908722Y36791145D01*
X28467467Y36652467D01*
X28966164Y36442846D01*
X29447392Y36138604D01*
X29953728Y35716061D01*
X30115874Y35563665D01*
X30411698Y35269804D01*
X30670012Y34995084D01*
X30860329Y34773041D01*
X30945999Y34650510D01*
X31045298Y34314471D01*
X31063453Y33891088D01*
X31003652Y33439859D01*
X30869086Y33020279D01*
X30857228Y32994230D01*
X30589256Y32546486D01*
X30219107Y32097421D01*
X29800070Y31705223D01*
X29459580Y31468137D01*
X29239471Y31341981D01*
X29090337Y31256032D01*
X29053608Y31234485D01*
X29078104Y31157334D01*
X29161623Y30959864D01*
X29290054Y30674481D01*
X29406510Y30424052D01*
X29571878Y30046540D01*
X29765950Y29562243D01*
X29967578Y29026206D01*
X30155612Y28493472D01*
X30205792Y28343788D01*
X30360488Y27884556D01*
X30507469Y27464194D01*
X30634236Y27117305D01*
X30728291Y26878491D01*
X30760837Y26807120D01*
X30889019Y26623546D01*
X31086101Y26407162D01*
X31310232Y26196634D01*
X31519559Y26030630D01*
X31672229Y25947816D01*
X31694407Y25944600D01*
X31872337Y25899588D01*
X32136121Y25783632D01*
X32434453Y25625088D01*
X32716024Y25452310D01*
X32929529Y25293654D01*
X32998378Y25223934D01*
X33149206Y24909503D01*
X33158570Y24567629D01*
G37*
X33158570Y24567629D02*
X33040795Y24237233D01*
X32810205Y23957236D01*
X32481124Y23766558D01*
X32459238Y23759032D01*
X32059148Y23685875D01*
X31573894Y23685905D01*
X31068573Y23754231D01*
X30608280Y23885962D01*
X30570921Y23900911D01*
X30118842Y24087069D01*
X30174849Y23089701D01*
X30195910Y22599871D01*
X30192825Y22212166D01*
X30161018Y21860511D01*
X30095915Y21478835D01*
X30047191Y21245666D01*
X29946836Y20686619D01*
X29871874Y20073630D01*
X29824452Y19449365D01*
X29806715Y18856488D01*
X29820809Y18337662D01*
X29868880Y17935554D01*
X29878469Y17890891D01*
X30102723Y17253624D01*
X30469479Y16692419D01*
X30719715Y16423650D01*
X30962941Y16143030D01*
X31053470Y15900170D01*
X30993076Y15663459D01*
X30783535Y15401288D01*
X30777467Y15395200D01*
X30594459Y15229490D01*
X30427210Y15143295D01*
X30206555Y15111185D01*
X29994300Y15107267D01*
X29662451Y15125035D01*
X29249679Y15171917D01*
X28839877Y15238181D01*
X28801396Y15245676D01*
X28634246Y15276699D01*
X28634246Y34430790D01*
X28599180Y34775825D01*
X28453456Y35094673D01*
X28200116Y35351644D01*
X27882724Y35500486D01*
X27528931Y35518771D01*
X27177902Y35402283D01*
X26875808Y35179927D01*
X26668815Y34880606D01*
X26614533Y34706523D01*
X26625886Y34348851D01*
X26768439Y33997226D01*
X27013559Y33713611D01*
X27102072Y33651504D01*
X27426759Y33507988D01*
X27744164Y33501139D01*
X28045080Y33595449D01*
X28360237Y33804913D01*
X28555612Y34095257D01*
X28634246Y34430790D01*
X28634246Y15276699D01*
X28443344Y15312130D01*
X28189427Y15340621D01*
X27978756Y15331152D01*
X27750446Y15283726D01*
X27610508Y15245742D01*
X27103238Y15152639D01*
X26493735Y15118334D01*
X25838318Y15142164D01*
X25193305Y15223465D01*
X24927000Y15277345D01*
X24290494Y15439614D01*
X23800944Y15599223D01*
X23466959Y15753119D01*
X23350863Y15835872D01*
X23235088Y15915981D01*
X23118456Y15900639D01*
X22969246Y15812476D01*
X22664162Y15696046D01*
X22259593Y15658115D01*
X21804881Y15696409D01*
X21349366Y15808653D01*
X21124037Y15897554D01*
X20665871Y16128065D01*
X20340569Y16346982D01*
X20115958Y16580621D01*
X19963672Y16846628D01*
X19869119Y17107721D01*
X19847859Y17346474D01*
X19887919Y17639875D01*
X19995849Y18067624D01*
X20141188Y18350373D01*
X20345340Y18511696D01*
X20629712Y18575170D01*
X20740309Y18578666D01*
X20922349Y18593323D01*
X20976759Y18661085D01*
X20958101Y18769166D01*
X20809384Y19525846D01*
X20748124Y20335066D01*
X20756345Y20786757D01*
X20809014Y21274284D01*
X20918231Y21721525D01*
X21099720Y22164689D01*
X21369200Y22639989D01*
X21742395Y23183635D01*
X21874578Y23362333D01*
X22098055Y23659902D01*
X22268623Y23892066D01*
X22401474Y24089154D01*
X22511805Y24281491D01*
X22614811Y24499404D01*
X22725686Y24773219D01*
X22859626Y25133265D01*
X23031826Y25609866D01*
X23111848Y25831701D01*
X23476808Y26870507D01*
X23785154Y27808088D01*
X24032575Y28630357D01*
X24214762Y29323225D01*
X24299009Y29712333D01*
X24340161Y29996933D01*
X24373872Y30360188D01*
X24398963Y30764223D01*
X24414254Y31171163D01*
X24418565Y31543132D01*
X24410717Y31842255D01*
X24389532Y32030657D01*
X24372507Y32072652D01*
X24283211Y32055603D01*
X24073301Y31975050D01*
X23773344Y31843758D01*
X23413910Y31674492D01*
X23383118Y31659505D01*
X22811140Y31384429D01*
X22351256Y31178577D01*
X21965279Y31033140D01*
X21615020Y30939311D01*
X21262292Y30888283D01*
X20868906Y30871247D01*
X20396674Y30879396D01*
X20058667Y30892751D01*
X19152402Y30943936D01*
X18359409Y31013187D01*
X17688960Y31098767D01*
X17150329Y31198944D01*
X16752787Y31311983D01*
X16505608Y31436152D01*
X16418064Y31569715D01*
X16418000Y31573494D01*
X16477577Y31828697D01*
X16644148Y32172366D01*
X16899478Y32578990D01*
X17225328Y33023057D01*
X17603461Y33479058D01*
X18015640Y33921480D01*
X18278683Y34176284D01*
X19054118Y34821157D01*
X19829308Y35308710D01*
X20629203Y35649069D01*
X21478756Y35852362D01*
X22402918Y35928716D01*
X22598667Y35929647D01*
X22980395Y35918005D01*
X23358441Y35891872D01*
X23636645Y35858919D01*
X23864763Y35824708D01*
X24000095Y35810934D01*
X24017645Y35814334D01*
X23938089Y35858146D01*
X23735509Y35962966D01*
X23438409Y36114213D01*
X23075291Y36297307D01*
X22979667Y36345281D01*
X22334533Y36676930D01*
X21822674Y36961607D01*
X21420441Y37215966D01*
X21104185Y37456659D01*
X20850254Y37700340D01*
X20634999Y37963660D01*
X20588087Y38029308D01*
X20260725Y38541382D01*
X19963471Y39088835D01*
X19707907Y39641911D01*
X19505612Y40170858D01*
X19368165Y40645924D01*
X19307146Y41037354D01*
X19323270Y41279137D01*
X19459720Y41504249D01*
X19724121Y41636227D01*
X20103985Y41676541D01*
X20586821Y41626660D01*
X21160140Y41488054D01*
X21811453Y41262193D01*
X22528268Y40950547D01*
X22661547Y40886305D01*
X23177296Y40619152D01*
X23586769Y40367650D01*
X23944815Y40095372D01*
X24210602Y39857497D01*
X24739602Y39298383D01*
X25204206Y38689461D01*
X25583735Y38064652D01*
X25857511Y37457878D01*
X26002555Y36918075D01*
X26078933Y36731465D01*
X26245693Y36647189D01*
X26521696Y36661129D01*
X26826675Y36738054D01*
X27139947Y36822277D01*
X27391122Y36852235D01*
X27664197Y36832049D01*
X27908722Y36791145D01*
X28467467Y36652467D01*
X28966164Y36442846D01*
X29447392Y36138604D01*
X29953728Y35716061D01*
X30115874Y35563665D01*
X30411698Y35269804D01*
X30670012Y34995084D01*
X30860329Y34773041D01*
X30945999Y34650510D01*
X31045298Y34314471D01*
X31063453Y33891088D01*
X31003652Y33439859D01*
X30869086Y33020279D01*
X30857228Y32994230D01*
X30589256Y32546486D01*
X30219107Y32097421D01*
X29800070Y31705223D01*
X29459580Y31468137D01*
X29239471Y31341981D01*
X29090337Y31256032D01*
X29053608Y31234485D01*
X29078104Y31157334D01*
X29161623Y30959864D01*
X29290054Y30674481D01*
X29406510Y30424052D01*
X29571878Y30046540D01*
X29765950Y29562243D01*
X29967578Y29026206D01*
X30155612Y28493472D01*
X30205792Y28343788D01*
X30360488Y27884556D01*
X30507469Y27464194D01*
X30634236Y27117305D01*
X30728291Y26878491D01*
X30760837Y26807120D01*
X30889019Y26623546D01*
X31086101Y26407162D01*
X31310232Y26196634D01*
X31519559Y26030630D01*
X31672229Y25947816D01*
X31694407Y25944600D01*
X31872337Y25899588D01*
X32136121Y25783632D01*
X32434453Y25625088D01*
X32716024Y25452310D01*
X32929529Y25293654D01*
X32998378Y25223934D01*
X33149206Y24909503D01*
X33158570Y24567629D01*
G36*
X91958570Y24767629D02*
G01*
X91840795Y24437233D01*
X91610205Y24157236D01*
X91281124Y23966558D01*
X91259238Y23959032D01*
X90859148Y23885875D01*
X90373894Y23885905D01*
X89868573Y23954231D01*
X89408280Y24085962D01*
X89370921Y24100911D01*
X88918842Y24287069D01*
X88974849Y23289701D01*
X88995910Y22799871D01*
X88992825Y22412166D01*
X88961018Y22060511D01*
X88895915Y21678835D01*
X88847191Y21445666D01*
X88746836Y20886619D01*
X88671874Y20273630D01*
X88624452Y19649365D01*
X88606715Y19056488D01*
X88620809Y18537662D01*
X88668880Y18135554D01*
X88678469Y18090891D01*
X88902723Y17453624D01*
X89269479Y16892419D01*
X89519715Y16623650D01*
X89762941Y16343030D01*
X89853470Y16100170D01*
X89793076Y15863459D01*
X89583535Y15601288D01*
X89577467Y15595200D01*
X89394459Y15429490D01*
X89227210Y15343295D01*
X89006555Y15311185D01*
X88794300Y15307267D01*
X88462451Y15325035D01*
X88049679Y15371917D01*
X87639877Y15438181D01*
X87601396Y15445676D01*
X87434246Y15476699D01*
X87434246Y34630790D01*
X87399180Y34975825D01*
X87253456Y35294673D01*
X87000116Y35551644D01*
X86682724Y35700486D01*
X86328931Y35718771D01*
X85977902Y35602283D01*
X85675808Y35379927D01*
X85468815Y35080606D01*
X85414533Y34906523D01*
X85425886Y34548851D01*
X85568439Y34197226D01*
X85813559Y33913611D01*
X85902072Y33851504D01*
X86226759Y33707988D01*
X86544164Y33701139D01*
X86845080Y33795449D01*
X87160237Y34004913D01*
X87355612Y34295257D01*
X87434246Y34630790D01*
X87434246Y15476699D01*
X87243344Y15512130D01*
X86989427Y15540621D01*
X86778756Y15531152D01*
X86550446Y15483726D01*
X86410508Y15445742D01*
X85903238Y15352639D01*
X85293735Y15318334D01*
X84638318Y15342164D01*
X83993305Y15423465D01*
X83727000Y15477345D01*
X83090494Y15639614D01*
X82600944Y15799223D01*
X82266959Y15953119D01*
X82150863Y16035872D01*
X82035088Y16115981D01*
X81918456Y16100639D01*
X81769246Y16012476D01*
X81464162Y15896046D01*
X81059593Y15858115D01*
X80604881Y15896409D01*
X80149366Y16008653D01*
X79924037Y16097554D01*
X79465871Y16328065D01*
X79140569Y16546982D01*
X78915958Y16780621D01*
X78763672Y17046628D01*
X78669119Y17307721D01*
X78647859Y17546474D01*
X78687919Y17839875D01*
X78795849Y18267624D01*
X78941188Y18550373D01*
X79145340Y18711696D01*
X79429712Y18775170D01*
X79540309Y18778666D01*
X79722349Y18793323D01*
X79776759Y18861085D01*
X79758101Y18969166D01*
X79609384Y19725846D01*
X79548124Y20535066D01*
X79556345Y20986757D01*
X79609014Y21474284D01*
X79718231Y21921525D01*
X79899720Y22364689D01*
X80169200Y22839989D01*
X80542395Y23383635D01*
X80674578Y23562333D01*
X80898055Y23859902D01*
X81068623Y24092066D01*
X81201474Y24289154D01*
X81311805Y24481491D01*
X81414811Y24699404D01*
X81525686Y24973219D01*
X81659626Y25333265D01*
X81831826Y25809866D01*
X81911848Y26031701D01*
X82276808Y27070507D01*
X82585154Y28008088D01*
X82832575Y28830357D01*
X83014762Y29523225D01*
X83099009Y29912333D01*
X83140161Y30196933D01*
X83173872Y30560188D01*
X83198963Y30964223D01*
X83214254Y31371163D01*
X83218565Y31743132D01*
X83210717Y32042255D01*
X83189532Y32230657D01*
X83172507Y32272652D01*
X83083211Y32255603D01*
X82873301Y32175050D01*
X82573344Y32043758D01*
X82213910Y31874492D01*
X82183118Y31859505D01*
X81611140Y31584429D01*
X81151256Y31378577D01*
X80765279Y31233140D01*
X80415020Y31139311D01*
X80062292Y31088283D01*
X79668906Y31071247D01*
X79196674Y31079396D01*
X78858667Y31092751D01*
X77952402Y31143936D01*
X77159409Y31213187D01*
X76488960Y31298767D01*
X75950329Y31398944D01*
X75552787Y31511983D01*
X75305608Y31636152D01*
X75218064Y31769715D01*
X75218000Y31773494D01*
X75277577Y32028697D01*
X75444148Y32372366D01*
X75699478Y32778990D01*
X76025328Y33223057D01*
X76403461Y33679058D01*
X76815640Y34121480D01*
X77078683Y34376284D01*
X77854118Y35021157D01*
X78629308Y35508710D01*
X79429203Y35849069D01*
X80278756Y36052362D01*
X81202918Y36128716D01*
X81398667Y36129647D01*
X81780395Y36118005D01*
X82158441Y36091872D01*
X82436645Y36058919D01*
X82664763Y36024708D01*
X82800095Y36010934D01*
X82817645Y36014334D01*
X82738089Y36058146D01*
X82535509Y36162966D01*
X82238409Y36314213D01*
X81875291Y36497307D01*
X81779667Y36545281D01*
X81134533Y36876930D01*
X80622674Y37161607D01*
X80220441Y37415966D01*
X79904185Y37656659D01*
X79650254Y37900340D01*
X79434999Y38163660D01*
X79388087Y38229308D01*
X79060725Y38741382D01*
X78763471Y39288835D01*
X78507907Y39841911D01*
X78305612Y40370858D01*
X78168165Y40845924D01*
X78107146Y41237354D01*
X78123270Y41479137D01*
X78259720Y41704249D01*
X78524121Y41836227D01*
X78903985Y41876541D01*
X79386821Y41826660D01*
X79960140Y41688054D01*
X80611453Y41462193D01*
X81328268Y41150547D01*
X81461547Y41086305D01*
X81977296Y40819152D01*
X82386769Y40567650D01*
X82744815Y40295372D01*
X83010602Y40057497D01*
X83539602Y39498383D01*
X84004206Y38889461D01*
X84383735Y38264652D01*
X84657511Y37657878D01*
X84802555Y37118075D01*
X84878933Y36931465D01*
X85045693Y36847189D01*
X85321696Y36861129D01*
X85626675Y36938054D01*
X85939947Y37022277D01*
X86191122Y37052235D01*
X86464197Y37032049D01*
X86708722Y36991145D01*
X87267467Y36852467D01*
X87766164Y36642846D01*
X88247392Y36338604D01*
X88753728Y35916061D01*
X88915874Y35763665D01*
X89211698Y35469804D01*
X89470012Y35195084D01*
X89660329Y34973041D01*
X89745999Y34850510D01*
X89845298Y34514471D01*
X89863453Y34091088D01*
X89803652Y33639859D01*
X89669086Y33220279D01*
X89657228Y33194230D01*
X89389256Y32746486D01*
X89019107Y32297421D01*
X88600070Y31905223D01*
X88259580Y31668137D01*
X88039471Y31541981D01*
X87890337Y31456032D01*
X87853608Y31434485D01*
X87878104Y31357334D01*
X87961623Y31159864D01*
X88090054Y30874481D01*
X88206510Y30624052D01*
X88371878Y30246540D01*
X88565950Y29762243D01*
X88767578Y29226206D01*
X88955612Y28693472D01*
X89005792Y28543788D01*
X89160488Y28084556D01*
X89307469Y27664194D01*
X89434236Y27317305D01*
X89528291Y27078491D01*
X89560837Y27007120D01*
X89689019Y26823546D01*
X89886101Y26607162D01*
X90110232Y26396634D01*
X90319559Y26230630D01*
X90472229Y26147816D01*
X90494407Y26144600D01*
X90672337Y26099588D01*
X90936121Y25983632D01*
X91234453Y25825088D01*
X91516024Y25652310D01*
X91729529Y25493654D01*
X91798378Y25423934D01*
X91949206Y25109503D01*
X91958570Y24767629D01*
G37*
X91958570Y24767629D02*
X91840795Y24437233D01*
X91610205Y24157236D01*
X91281124Y23966558D01*
X91259238Y23959032D01*
X90859148Y23885875D01*
X90373894Y23885905D01*
X89868573Y23954231D01*
X89408280Y24085962D01*
X89370921Y24100911D01*
X88918842Y24287069D01*
X88974849Y23289701D01*
X88995910Y22799871D01*
X88992825Y22412166D01*
X88961018Y22060511D01*
X88895915Y21678835D01*
X88847191Y21445666D01*
X88746836Y20886619D01*
X88671874Y20273630D01*
X88624452Y19649365D01*
X88606715Y19056488D01*
X88620809Y18537662D01*
X88668880Y18135554D01*
X88678469Y18090891D01*
X88902723Y17453624D01*
X89269479Y16892419D01*
X89519715Y16623650D01*
X89762941Y16343030D01*
X89853470Y16100170D01*
X89793076Y15863459D01*
X89583535Y15601288D01*
X89577467Y15595200D01*
X89394459Y15429490D01*
X89227210Y15343295D01*
X89006555Y15311185D01*
X88794300Y15307267D01*
X88462451Y15325035D01*
X88049679Y15371917D01*
X87639877Y15438181D01*
X87601396Y15445676D01*
X87434246Y15476699D01*
X87434246Y34630790D01*
X87399180Y34975825D01*
X87253456Y35294673D01*
X87000116Y35551644D01*
X86682724Y35700486D01*
X86328931Y35718771D01*
X85977902Y35602283D01*
X85675808Y35379927D01*
X85468815Y35080606D01*
X85414533Y34906523D01*
X85425886Y34548851D01*
X85568439Y34197226D01*
X85813559Y33913611D01*
X85902072Y33851504D01*
X86226759Y33707988D01*
X86544164Y33701139D01*
X86845080Y33795449D01*
X87160237Y34004913D01*
X87355612Y34295257D01*
X87434246Y34630790D01*
X87434246Y15476699D01*
X87243344Y15512130D01*
X86989427Y15540621D01*
X86778756Y15531152D01*
X86550446Y15483726D01*
X86410508Y15445742D01*
X85903238Y15352639D01*
X85293735Y15318334D01*
X84638318Y15342164D01*
X83993305Y15423465D01*
X83727000Y15477345D01*
X83090494Y15639614D01*
X82600944Y15799223D01*
X82266959Y15953119D01*
X82150863Y16035872D01*
X82035088Y16115981D01*
X81918456Y16100639D01*
X81769246Y16012476D01*
X81464162Y15896046D01*
X81059593Y15858115D01*
X80604881Y15896409D01*
X80149366Y16008653D01*
X79924037Y16097554D01*
X79465871Y16328065D01*
X79140569Y16546982D01*
X78915958Y16780621D01*
X78763672Y17046628D01*
X78669119Y17307721D01*
X78647859Y17546474D01*
X78687919Y17839875D01*
X78795849Y18267624D01*
X78941188Y18550373D01*
X79145340Y18711696D01*
X79429712Y18775170D01*
X79540309Y18778666D01*
X79722349Y18793323D01*
X79776759Y18861085D01*
X79758101Y18969166D01*
X79609384Y19725846D01*
X79548124Y20535066D01*
X79556345Y20986757D01*
X79609014Y21474284D01*
X79718231Y21921525D01*
X79899720Y22364689D01*
X80169200Y22839989D01*
X80542395Y23383635D01*
X80674578Y23562333D01*
X80898055Y23859902D01*
X81068623Y24092066D01*
X81201474Y24289154D01*
X81311805Y24481491D01*
X81414811Y24699404D01*
X81525686Y24973219D01*
X81659626Y25333265D01*
X81831826Y25809866D01*
X81911848Y26031701D01*
X82276808Y27070507D01*
X82585154Y28008088D01*
X82832575Y28830357D01*
X83014762Y29523225D01*
X83099009Y29912333D01*
X83140161Y30196933D01*
X83173872Y30560188D01*
X83198963Y30964223D01*
X83214254Y31371163D01*
X83218565Y31743132D01*
X83210717Y32042255D01*
X83189532Y32230657D01*
X83172507Y32272652D01*
X83083211Y32255603D01*
X82873301Y32175050D01*
X82573344Y32043758D01*
X82213910Y31874492D01*
X82183118Y31859505D01*
X81611140Y31584429D01*
X81151256Y31378577D01*
X80765279Y31233140D01*
X80415020Y31139311D01*
X80062292Y31088283D01*
X79668906Y31071247D01*
X79196674Y31079396D01*
X78858667Y31092751D01*
X77952402Y31143936D01*
X77159409Y31213187D01*
X76488960Y31298767D01*
X75950329Y31398944D01*
X75552787Y31511983D01*
X75305608Y31636152D01*
X75218064Y31769715D01*
X75218000Y31773494D01*
X75277577Y32028697D01*
X75444148Y32372366D01*
X75699478Y32778990D01*
X76025328Y33223057D01*
X76403461Y33679058D01*
X76815640Y34121480D01*
X77078683Y34376284D01*
X77854118Y35021157D01*
X78629308Y35508710D01*
X79429203Y35849069D01*
X80278756Y36052362D01*
X81202918Y36128716D01*
X81398667Y36129647D01*
X81780395Y36118005D01*
X82158441Y36091872D01*
X82436645Y36058919D01*
X82664763Y36024708D01*
X82800095Y36010934D01*
X82817645Y36014334D01*
X82738089Y36058146D01*
X82535509Y36162966D01*
X82238409Y36314213D01*
X81875291Y36497307D01*
X81779667Y36545281D01*
X81134533Y36876930D01*
X80622674Y37161607D01*
X80220441Y37415966D01*
X79904185Y37656659D01*
X79650254Y37900340D01*
X79434999Y38163660D01*
X79388087Y38229308D01*
X79060725Y38741382D01*
X78763471Y39288835D01*
X78507907Y39841911D01*
X78305612Y40370858D01*
X78168165Y40845924D01*
X78107146Y41237354D01*
X78123270Y41479137D01*
X78259720Y41704249D01*
X78524121Y41836227D01*
X78903985Y41876541D01*
X79386821Y41826660D01*
X79960140Y41688054D01*
X80611453Y41462193D01*
X81328268Y41150547D01*
X81461547Y41086305D01*
X81977296Y40819152D01*
X82386769Y40567650D01*
X82744815Y40295372D01*
X83010602Y40057497D01*
X83539602Y39498383D01*
X84004206Y38889461D01*
X84383735Y38264652D01*
X84657511Y37657878D01*
X84802555Y37118075D01*
X84878933Y36931465D01*
X85045693Y36847189D01*
X85321696Y36861129D01*
X85626675Y36938054D01*
X85939947Y37022277D01*
X86191122Y37052235D01*
X86464197Y37032049D01*
X86708722Y36991145D01*
X87267467Y36852467D01*
X87766164Y36642846D01*
X88247392Y36338604D01*
X88753728Y35916061D01*
X88915874Y35763665D01*
X89211698Y35469804D01*
X89470012Y35195084D01*
X89660329Y34973041D01*
X89745999Y34850510D01*
X89845298Y34514471D01*
X89863453Y34091088D01*
X89803652Y33639859D01*
X89669086Y33220279D01*
X89657228Y33194230D01*
X89389256Y32746486D01*
X89019107Y32297421D01*
X88600070Y31905223D01*
X88259580Y31668137D01*
X88039471Y31541981D01*
X87890337Y31456032D01*
X87853608Y31434485D01*
X87878104Y31357334D01*
X87961623Y31159864D01*
X88090054Y30874481D01*
X88206510Y30624052D01*
X88371878Y30246540D01*
X88565950Y29762243D01*
X88767578Y29226206D01*
X88955612Y28693472D01*
X89005792Y28543788D01*
X89160488Y28084556D01*
X89307469Y27664194D01*
X89434236Y27317305D01*
X89528291Y27078491D01*
X89560837Y27007120D01*
X89689019Y26823546D01*
X89886101Y26607162D01*
X90110232Y26396634D01*
X90319559Y26230630D01*
X90472229Y26147816D01*
X90494407Y26144600D01*
X90672337Y26099588D01*
X90936121Y25983632D01*
X91234453Y25825088D01*
X91516024Y25652310D01*
X91729529Y25493654D01*
X91798378Y25423934D01*
X91949206Y25109503D01*
X91958570Y24767629D01*
D12*
%TO.C,J2*%
X3600000Y44110000D02*
X8800000Y44110000D01*
X3600000Y5890000D02*
X8800000Y5890000D01*
X2160000Y43540000D02*
X3600000Y43540000D01*
X3600000Y44110000D02*
X3600000Y43540000D01*
X8800000Y44110000D02*
X8800000Y43540000D01*
X3600000Y6460000D02*
X3600000Y5890000D01*
X8800000Y6460000D02*
X8800000Y5890000D01*
X3600000Y42020000D02*
X3600000Y41000000D01*
X8800000Y42020000D02*
X8800000Y41000000D01*
X3600000Y39480000D02*
X3600000Y38460000D01*
X8800000Y39480000D02*
X8800000Y38460000D01*
X3600000Y36940000D02*
X3600000Y35920000D01*
X8800000Y36940000D02*
X8800000Y35920000D01*
X3600000Y34400000D02*
X3600000Y33380000D01*
X8800000Y34400000D02*
X8800000Y33380000D01*
X3600000Y31860000D02*
X3600000Y30840000D01*
X8800000Y31860000D02*
X8800000Y30840000D01*
X3600000Y29320000D02*
X3600000Y28300000D01*
X8800000Y29320000D02*
X8800000Y28300000D01*
X3600000Y26780000D02*
X3600000Y25760000D01*
X8800000Y26780000D02*
X8800000Y25760000D01*
X3600000Y24240000D02*
X3600000Y23220000D01*
X8800000Y24240000D02*
X8800000Y23220000D01*
X3600000Y21700000D02*
X3600000Y20680000D01*
X8800000Y21700000D02*
X8800000Y20680000D01*
X3600000Y19160000D02*
X3600000Y18140000D01*
X8800000Y19160000D02*
X8800000Y18140000D01*
X3600000Y16620000D02*
X3600000Y15600000D01*
X8800000Y16620000D02*
X8800000Y15600000D01*
X3600000Y14080000D02*
X3600000Y13060000D01*
X8800000Y14080000D02*
X8800000Y13060000D01*
X3600000Y11540000D02*
X3600000Y10520000D01*
X8800000Y11540000D02*
X8800000Y10520000D01*
X3600000Y9000000D02*
X3600000Y7980000D01*
X8800000Y9000000D02*
X8800000Y7980000D01*
%TO.C,J8*%
X92680000Y45470000D02*
X92680000Y48130000D01*
X79920000Y45470000D02*
X92680000Y45470000D01*
X79920000Y48130000D02*
X92680000Y48130000D01*
X79920000Y45470000D02*
X79920000Y48130000D01*
X78650000Y45470000D02*
X77320000Y45470000D01*
X77320000Y45470000D02*
X77320000Y46800000D01*
%TO.C,J2*%
D10*
X10166666Y46547620D02*
X10166666Y45833334D01*
X10119047Y45690477D01*
X10023809Y45595239D01*
X9880952Y45547620D01*
X9785714Y45547620D01*
X10595238Y46452381D02*
X10642857Y46500000D01*
X10738095Y46547620D01*
X10976190Y46547620D01*
X11071428Y46500000D01*
X11119047Y46452381D01*
X11166666Y46357143D01*
X11166666Y46261905D01*
X11119047Y46119048D01*
X10547619Y45547620D01*
X11166666Y45547620D01*
%TO.C,J8*%
X84316666Y44847620D02*
X84316666Y44133334D01*
X84269047Y43990477D01*
X84173809Y43895239D01*
X84030952Y43847620D01*
X83935714Y43847620D01*
X84935714Y44419048D02*
X84840476Y44466667D01*
X84792857Y44514286D01*
X84745238Y44609524D01*
X84745238Y44657143D01*
X84792857Y44752381D01*
X84840476Y44800000D01*
X84935714Y44847620D01*
X85126190Y44847620D01*
X85221428Y44800000D01*
X85269047Y44752381D01*
X85316666Y44657143D01*
X85316666Y44609524D01*
X85269047Y44514286D01*
X85221428Y44466667D01*
X85126190Y44419048D01*
X84935714Y44419048D01*
X84840476Y44371429D01*
X84792857Y44323810D01*
X84745238Y44228572D01*
X84745238Y44038096D01*
X84792857Y43942858D01*
X84840476Y43895239D01*
X84935714Y43847620D01*
X85126190Y43847620D01*
X85221428Y43895239D01*
X85269047Y43942858D01*
X85316666Y44038096D01*
X85316666Y44228572D01*
X85269047Y44323810D01*
X85221428Y44371429D01*
X85126190Y44419048D01*
%TD*%
M02*
