G04 #@! TF.GenerationSoftware,KiCad,Pcbnew,5.1.7-a382d34a8~88~ubuntu18.04.1*
G04 #@! TF.CreationDate,2021-01-25T19:44:07+09:00*
G04 #@! TF.ProjectId,m5mouse,6d356d6f-7573-4652-9e6b-696361645f70,rev?*
G04 #@! TF.SameCoordinates,Original*
G04 #@! TF.FileFunction,Soldermask,Bot*
G04 #@! TF.FilePolarity,Negative*
%FSLAX46Y46*%
G04 Gerber Fmt 4.6, Leading zero omitted, Abs format (unit mm)*
G04 Created by KiCad (PCBNEW 5.1.7-a382d34a8~88~ubuntu18.04.1) date 2021-01-25 19:44:07*
%MOMM*%
%LPD*%
G01*
G04 APERTURE LIST*
%ADD10C,2.300000*%
%ADD11C,3.300000*%
%ADD12O,1.800000X1.800000*%
%ADD13C,0.152000*%
%ADD14C,1.900000*%
%ADD15O,2.050000X1.800000*%
%ADD16O,2.600000X1.600000*%
%ADD17O,3.600000X2.300000*%
%ADD18C,2.200000*%
%ADD19C,1.850000*%
%ADD20O,1.300000X1.850000*%
G04 APERTURE END LIST*
D10*
X158000000Y-137000000D03*
X139300000Y-93150000D03*
D11*
X136150000Y-93150000D03*
D10*
X176700000Y-93150000D03*
D11*
X179850000Y-93150000D03*
D10*
X123700000Y-136850000D03*
D11*
X126850000Y-136850000D03*
D10*
X86300000Y-136850000D03*
D11*
X83150000Y-136850000D03*
D10*
X86300000Y-93150000D03*
D11*
X83150000Y-93150000D03*
D10*
X123700000Y-93150000D03*
D11*
X126850000Y-93150000D03*
D10*
X180200000Y-120000000D03*
X135800000Y-120000000D03*
G36*
G01*
X118170000Y-112997500D02*
X118170000Y-112602500D01*
G75*
G02*
X118342500Y-112430000I172500J0D01*
G01*
X118687500Y-112430000D01*
G75*
G02*
X118860000Y-112602500I0J-172500D01*
G01*
X118860000Y-112997500D01*
G75*
G02*
X118687500Y-113170000I-172500J0D01*
G01*
X118342500Y-113170000D01*
G75*
G02*
X118170000Y-112997500I0J172500D01*
G01*
G37*
G36*
G01*
X119140000Y-112997500D02*
X119140000Y-112602500D01*
G75*
G02*
X119312500Y-112430000I172500J0D01*
G01*
X119657500Y-112430000D01*
G75*
G02*
X119830000Y-112602500I0J-172500D01*
G01*
X119830000Y-112997500D01*
G75*
G02*
X119657500Y-113170000I-172500J0D01*
G01*
X119312500Y-113170000D01*
G75*
G02*
X119140000Y-112997500I0J172500D01*
G01*
G37*
G36*
G01*
X123297500Y-105960000D02*
X122902500Y-105960000D01*
G75*
G02*
X122730000Y-105787500I0J172500D01*
G01*
X122730000Y-105442500D01*
G75*
G02*
X122902500Y-105270000I172500J0D01*
G01*
X123297500Y-105270000D01*
G75*
G02*
X123470000Y-105442500I0J-172500D01*
G01*
X123470000Y-105787500D01*
G75*
G02*
X123297500Y-105960000I-172500J0D01*
G01*
G37*
G36*
G01*
X123297500Y-106930000D02*
X122902500Y-106930000D01*
G75*
G02*
X122730000Y-106757500I0J172500D01*
G01*
X122730000Y-106412500D01*
G75*
G02*
X122902500Y-106240000I172500J0D01*
G01*
X123297500Y-106240000D01*
G75*
G02*
X123470000Y-106412500I0J-172500D01*
G01*
X123470000Y-106757500D01*
G75*
G02*
X123297500Y-106930000I-172500J0D01*
G01*
G37*
G36*
G01*
X165260000Y-98802500D02*
X165260000Y-99197500D01*
G75*
G02*
X165087500Y-99370000I-172500J0D01*
G01*
X164742500Y-99370000D01*
G75*
G02*
X164570000Y-99197500I0J172500D01*
G01*
X164570000Y-98802500D01*
G75*
G02*
X164742500Y-98630000I172500J0D01*
G01*
X165087500Y-98630000D01*
G75*
G02*
X165260000Y-98802500I0J-172500D01*
G01*
G37*
G36*
G01*
X166230000Y-98802500D02*
X166230000Y-99197500D01*
G75*
G02*
X166057500Y-99370000I-172500J0D01*
G01*
X165712500Y-99370000D01*
G75*
G02*
X165540000Y-99197500I0J172500D01*
G01*
X165540000Y-98802500D01*
G75*
G02*
X165712500Y-98630000I172500J0D01*
G01*
X166057500Y-98630000D01*
G75*
G02*
X166230000Y-98802500I0J-172500D01*
G01*
G37*
G36*
G01*
X154730000Y-111402500D02*
X154730000Y-111797500D01*
G75*
G02*
X154557500Y-111970000I-172500J0D01*
G01*
X154212500Y-111970000D01*
G75*
G02*
X154040000Y-111797500I0J172500D01*
G01*
X154040000Y-111402500D01*
G75*
G02*
X154212500Y-111230000I172500J0D01*
G01*
X154557500Y-111230000D01*
G75*
G02*
X154730000Y-111402500I0J-172500D01*
G01*
G37*
G36*
G01*
X153760000Y-111402500D02*
X153760000Y-111797500D01*
G75*
G02*
X153587500Y-111970000I-172500J0D01*
G01*
X153242500Y-111970000D01*
G75*
G02*
X153070000Y-111797500I0J172500D01*
G01*
X153070000Y-111402500D01*
G75*
G02*
X153242500Y-111230000I172500J0D01*
G01*
X153587500Y-111230000D01*
G75*
G02*
X153760000Y-111402500I0J-172500D01*
G01*
G37*
G36*
G01*
X147770000Y-105197500D02*
X147770000Y-104802500D01*
G75*
G02*
X147942500Y-104630000I172500J0D01*
G01*
X148287500Y-104630000D01*
G75*
G02*
X148460000Y-104802500I0J-172500D01*
G01*
X148460000Y-105197500D01*
G75*
G02*
X148287500Y-105370000I-172500J0D01*
G01*
X147942500Y-105370000D01*
G75*
G02*
X147770000Y-105197500I0J172500D01*
G01*
G37*
G36*
G01*
X148740000Y-105197500D02*
X148740000Y-104802500D01*
G75*
G02*
X148912500Y-104630000I172500J0D01*
G01*
X149257500Y-104630000D01*
G75*
G02*
X149430000Y-104802500I0J-172500D01*
G01*
X149430000Y-105197500D01*
G75*
G02*
X149257500Y-105370000I-172500J0D01*
G01*
X148912500Y-105370000D01*
G75*
G02*
X148740000Y-105197500I0J172500D01*
G01*
G37*
G36*
G01*
X153940000Y-95797500D02*
X153940000Y-95402500D01*
G75*
G02*
X154112500Y-95230000I172500J0D01*
G01*
X154457500Y-95230000D01*
G75*
G02*
X154630000Y-95402500I0J-172500D01*
G01*
X154630000Y-95797500D01*
G75*
G02*
X154457500Y-95970000I-172500J0D01*
G01*
X154112500Y-95970000D01*
G75*
G02*
X153940000Y-95797500I0J172500D01*
G01*
G37*
G36*
G01*
X152970000Y-95797500D02*
X152970000Y-95402500D01*
G75*
G02*
X153142500Y-95230000I172500J0D01*
G01*
X153487500Y-95230000D01*
G75*
G02*
X153660000Y-95402500I0J-172500D01*
G01*
X153660000Y-95797500D01*
G75*
G02*
X153487500Y-95970000I-172500J0D01*
G01*
X153142500Y-95970000D01*
G75*
G02*
X152970000Y-95797500I0J172500D01*
G01*
G37*
G36*
G01*
X164570000Y-98197500D02*
X164570000Y-97802500D01*
G75*
G02*
X164742500Y-97630000I172500J0D01*
G01*
X165087500Y-97630000D01*
G75*
G02*
X165260000Y-97802500I0J-172500D01*
G01*
X165260000Y-98197500D01*
G75*
G02*
X165087500Y-98370000I-172500J0D01*
G01*
X164742500Y-98370000D01*
G75*
G02*
X164570000Y-98197500I0J172500D01*
G01*
G37*
G36*
G01*
X165540000Y-98197500D02*
X165540000Y-97802500D01*
G75*
G02*
X165712500Y-97630000I172500J0D01*
G01*
X166057500Y-97630000D01*
G75*
G02*
X166230000Y-97802500I0J-172500D01*
G01*
X166230000Y-98197500D01*
G75*
G02*
X166057500Y-98370000I-172500J0D01*
G01*
X165712500Y-98370000D01*
G75*
G02*
X165540000Y-98197500I0J172500D01*
G01*
G37*
G36*
G01*
X163130000Y-110402500D02*
X163130000Y-110797500D01*
G75*
G02*
X162957500Y-110970000I-172500J0D01*
G01*
X162612500Y-110970000D01*
G75*
G02*
X162440000Y-110797500I0J172500D01*
G01*
X162440000Y-110402500D01*
G75*
G02*
X162612500Y-110230000I172500J0D01*
G01*
X162957500Y-110230000D01*
G75*
G02*
X163130000Y-110402500I0J-172500D01*
G01*
G37*
G36*
G01*
X162160000Y-110402500D02*
X162160000Y-110797500D01*
G75*
G02*
X161987500Y-110970000I-172500J0D01*
G01*
X161642500Y-110970000D01*
G75*
G02*
X161470000Y-110797500I0J172500D01*
G01*
X161470000Y-110402500D01*
G75*
G02*
X161642500Y-110230000I172500J0D01*
G01*
X161987500Y-110230000D01*
G75*
G02*
X162160000Y-110402500I0J-172500D01*
G01*
G37*
G36*
G01*
X163130000Y-111402500D02*
X163130000Y-111797500D01*
G75*
G02*
X162957500Y-111970000I-172500J0D01*
G01*
X162612500Y-111970000D01*
G75*
G02*
X162440000Y-111797500I0J172500D01*
G01*
X162440000Y-111402500D01*
G75*
G02*
X162612500Y-111230000I172500J0D01*
G01*
X162957500Y-111230000D01*
G75*
G02*
X163130000Y-111402500I0J-172500D01*
G01*
G37*
G36*
G01*
X162160000Y-111402500D02*
X162160000Y-111797500D01*
G75*
G02*
X161987500Y-111970000I-172500J0D01*
G01*
X161642500Y-111970000D01*
G75*
G02*
X161470000Y-111797500I0J172500D01*
G01*
X161470000Y-111402500D01*
G75*
G02*
X161642500Y-111230000I172500J0D01*
G01*
X161987500Y-111230000D01*
G75*
G02*
X162160000Y-111402500I0J-172500D01*
G01*
G37*
G36*
G01*
X163130000Y-112402500D02*
X163130000Y-112797500D01*
G75*
G02*
X162957500Y-112970000I-172500J0D01*
G01*
X162612500Y-112970000D01*
G75*
G02*
X162440000Y-112797500I0J172500D01*
G01*
X162440000Y-112402500D01*
G75*
G02*
X162612500Y-112230000I172500J0D01*
G01*
X162957500Y-112230000D01*
G75*
G02*
X163130000Y-112402500I0J-172500D01*
G01*
G37*
G36*
G01*
X162160000Y-112402500D02*
X162160000Y-112797500D01*
G75*
G02*
X161987500Y-112970000I-172500J0D01*
G01*
X161642500Y-112970000D01*
G75*
G02*
X161470000Y-112797500I0J172500D01*
G01*
X161470000Y-112402500D01*
G75*
G02*
X161642500Y-112230000I172500J0D01*
G01*
X161987500Y-112230000D01*
G75*
G02*
X162160000Y-112402500I0J-172500D01*
G01*
G37*
G36*
G01*
X156876500Y-119940000D02*
X157271500Y-119940000D01*
G75*
G02*
X157444000Y-120112500I0J-172500D01*
G01*
X157444000Y-120457500D01*
G75*
G02*
X157271500Y-120630000I-172500J0D01*
G01*
X156876500Y-120630000D01*
G75*
G02*
X156704000Y-120457500I0J172500D01*
G01*
X156704000Y-120112500D01*
G75*
G02*
X156876500Y-119940000I172500J0D01*
G01*
G37*
G36*
G01*
X156876500Y-118970000D02*
X157271500Y-118970000D01*
G75*
G02*
X157444000Y-119142500I0J-172500D01*
G01*
X157444000Y-119487500D01*
G75*
G02*
X157271500Y-119660000I-172500J0D01*
G01*
X156876500Y-119660000D01*
G75*
G02*
X156704000Y-119487500I0J172500D01*
G01*
X156704000Y-119142500D01*
G75*
G02*
X156876500Y-118970000I172500J0D01*
G01*
G37*
G36*
G01*
X157271500Y-121660000D02*
X156876500Y-121660000D01*
G75*
G02*
X156704000Y-121487500I0J172500D01*
G01*
X156704000Y-121142500D01*
G75*
G02*
X156876500Y-120970000I172500J0D01*
G01*
X157271500Y-120970000D01*
G75*
G02*
X157444000Y-121142500I0J-172500D01*
G01*
X157444000Y-121487500D01*
G75*
G02*
X157271500Y-121660000I-172500J0D01*
G01*
G37*
G36*
G01*
X157271500Y-122630000D02*
X156876500Y-122630000D01*
G75*
G02*
X156704000Y-122457500I0J172500D01*
G01*
X156704000Y-122112500D01*
G75*
G02*
X156876500Y-121940000I172500J0D01*
G01*
X157271500Y-121940000D01*
G75*
G02*
X157444000Y-122112500I0J-172500D01*
G01*
X157444000Y-122457500D01*
G75*
G02*
X157271500Y-122630000I-172500J0D01*
G01*
G37*
G36*
G01*
X136940000Y-112021500D02*
X136940000Y-111626500D01*
G75*
G02*
X137112500Y-111454000I172500J0D01*
G01*
X137457500Y-111454000D01*
G75*
G02*
X137630000Y-111626500I0J-172500D01*
G01*
X137630000Y-112021500D01*
G75*
G02*
X137457500Y-112194000I-172500J0D01*
G01*
X137112500Y-112194000D01*
G75*
G02*
X136940000Y-112021500I0J172500D01*
G01*
G37*
G36*
G01*
X135970000Y-112021500D02*
X135970000Y-111626500D01*
G75*
G02*
X136142500Y-111454000I172500J0D01*
G01*
X136487500Y-111454000D01*
G75*
G02*
X136660000Y-111626500I0J-172500D01*
G01*
X136660000Y-112021500D01*
G75*
G02*
X136487500Y-112194000I-172500J0D01*
G01*
X136142500Y-112194000D01*
G75*
G02*
X135970000Y-112021500I0J172500D01*
G01*
G37*
G36*
G01*
X140860000Y-112624500D02*
X140860000Y-113019500D01*
G75*
G02*
X140687500Y-113192000I-172500J0D01*
G01*
X140342500Y-113192000D01*
G75*
G02*
X140170000Y-113019500I0J172500D01*
G01*
X140170000Y-112624500D01*
G75*
G02*
X140342500Y-112452000I172500J0D01*
G01*
X140687500Y-112452000D01*
G75*
G02*
X140860000Y-112624500I0J-172500D01*
G01*
G37*
G36*
G01*
X141830000Y-112624500D02*
X141830000Y-113019500D01*
G75*
G02*
X141657500Y-113192000I-172500J0D01*
G01*
X141312500Y-113192000D01*
G75*
G02*
X141140000Y-113019500I0J172500D01*
G01*
X141140000Y-112624500D01*
G75*
G02*
X141312500Y-112452000I172500J0D01*
G01*
X141657500Y-112452000D01*
G75*
G02*
X141830000Y-112624500I0J-172500D01*
G01*
G37*
G36*
G01*
X171202500Y-102970000D02*
X171597500Y-102970000D01*
G75*
G02*
X171770000Y-103142500I0J-172500D01*
G01*
X171770000Y-103487500D01*
G75*
G02*
X171597500Y-103660000I-172500J0D01*
G01*
X171202500Y-103660000D01*
G75*
G02*
X171030000Y-103487500I0J172500D01*
G01*
X171030000Y-103142500D01*
G75*
G02*
X171202500Y-102970000I172500J0D01*
G01*
G37*
G36*
G01*
X171202500Y-103940000D02*
X171597500Y-103940000D01*
G75*
G02*
X171770000Y-104112500I0J-172500D01*
G01*
X171770000Y-104457500D01*
G75*
G02*
X171597500Y-104630000I-172500J0D01*
G01*
X171202500Y-104630000D01*
G75*
G02*
X171030000Y-104457500I0J172500D01*
G01*
X171030000Y-104112500D01*
G75*
G02*
X171202500Y-103940000I172500J0D01*
G01*
G37*
G36*
G01*
X148460000Y-105802500D02*
X148460000Y-106197500D01*
G75*
G02*
X148287500Y-106370000I-172500J0D01*
G01*
X147942500Y-106370000D01*
G75*
G02*
X147770000Y-106197500I0J172500D01*
G01*
X147770000Y-105802500D01*
G75*
G02*
X147942500Y-105630000I172500J0D01*
G01*
X148287500Y-105630000D01*
G75*
G02*
X148460000Y-105802500I0J-172500D01*
G01*
G37*
G36*
G01*
X149430000Y-105802500D02*
X149430000Y-106197500D01*
G75*
G02*
X149257500Y-106370000I-172500J0D01*
G01*
X148912500Y-106370000D01*
G75*
G02*
X148740000Y-106197500I0J172500D01*
G01*
X148740000Y-105802500D01*
G75*
G02*
X148912500Y-105630000I172500J0D01*
G01*
X149257500Y-105630000D01*
G75*
G02*
X149430000Y-105802500I0J-172500D01*
G01*
G37*
G36*
G01*
X154630000Y-96402500D02*
X154630000Y-96797500D01*
G75*
G02*
X154457500Y-96970000I-172500J0D01*
G01*
X154112500Y-96970000D01*
G75*
G02*
X153940000Y-96797500I0J172500D01*
G01*
X153940000Y-96402500D01*
G75*
G02*
X154112500Y-96230000I172500J0D01*
G01*
X154457500Y-96230000D01*
G75*
G02*
X154630000Y-96402500I0J-172500D01*
G01*
G37*
G36*
G01*
X153660000Y-96402500D02*
X153660000Y-96797500D01*
G75*
G02*
X153487500Y-96970000I-172500J0D01*
G01*
X153142500Y-96970000D01*
G75*
G02*
X152970000Y-96797500I0J172500D01*
G01*
X152970000Y-96402500D01*
G75*
G02*
X153142500Y-96230000I172500J0D01*
G01*
X153487500Y-96230000D01*
G75*
G02*
X153660000Y-96402500I0J-172500D01*
G01*
G37*
G36*
G01*
X135970000Y-113021500D02*
X135970000Y-112626500D01*
G75*
G02*
X136142500Y-112454000I172500J0D01*
G01*
X136487500Y-112454000D01*
G75*
G02*
X136660000Y-112626500I0J-172500D01*
G01*
X136660000Y-113021500D01*
G75*
G02*
X136487500Y-113194000I-172500J0D01*
G01*
X136142500Y-113194000D01*
G75*
G02*
X135970000Y-113021500I0J172500D01*
G01*
G37*
G36*
G01*
X136940000Y-113021500D02*
X136940000Y-112626500D01*
G75*
G02*
X137112500Y-112454000I172500J0D01*
G01*
X137457500Y-112454000D01*
G75*
G02*
X137630000Y-112626500I0J-172500D01*
G01*
X137630000Y-113021500D01*
G75*
G02*
X137457500Y-113194000I-172500J0D01*
G01*
X137112500Y-113194000D01*
G75*
G02*
X136940000Y-113021500I0J172500D01*
G01*
G37*
G36*
G01*
X118260000Y-103002500D02*
X118260000Y-103397500D01*
G75*
G02*
X118087500Y-103570000I-172500J0D01*
G01*
X117742500Y-103570000D01*
G75*
G02*
X117570000Y-103397500I0J172500D01*
G01*
X117570000Y-103002500D01*
G75*
G02*
X117742500Y-102830000I172500J0D01*
G01*
X118087500Y-102830000D01*
G75*
G02*
X118260000Y-103002500I0J-172500D01*
G01*
G37*
G36*
G01*
X119230000Y-103002500D02*
X119230000Y-103397500D01*
G75*
G02*
X119057500Y-103570000I-172500J0D01*
G01*
X118712500Y-103570000D01*
G75*
G02*
X118540000Y-103397500I0J172500D01*
G01*
X118540000Y-103002500D01*
G75*
G02*
X118712500Y-102830000I172500J0D01*
G01*
X119057500Y-102830000D01*
G75*
G02*
X119230000Y-103002500I0J-172500D01*
G01*
G37*
G36*
G01*
X167140000Y-105797500D02*
X167140000Y-105402500D01*
G75*
G02*
X167312500Y-105230000I172500J0D01*
G01*
X167657500Y-105230000D01*
G75*
G02*
X167830000Y-105402500I0J-172500D01*
G01*
X167830000Y-105797500D01*
G75*
G02*
X167657500Y-105970000I-172500J0D01*
G01*
X167312500Y-105970000D01*
G75*
G02*
X167140000Y-105797500I0J172500D01*
G01*
G37*
G36*
G01*
X166170000Y-105797500D02*
X166170000Y-105402500D01*
G75*
G02*
X166342500Y-105230000I172500J0D01*
G01*
X166687500Y-105230000D01*
G75*
G02*
X166860000Y-105402500I0J-172500D01*
G01*
X166860000Y-105797500D01*
G75*
G02*
X166687500Y-105970000I-172500J0D01*
G01*
X166342500Y-105970000D01*
G75*
G02*
X166170000Y-105797500I0J172500D01*
G01*
G37*
G36*
G01*
X170225000Y-91781250D02*
X170225000Y-91218750D01*
G75*
G02*
X170468750Y-90975000I243750J0D01*
G01*
X170956250Y-90975000D01*
G75*
G02*
X171200000Y-91218750I0J-243750D01*
G01*
X171200000Y-91781250D01*
G75*
G02*
X170956250Y-92025000I-243750J0D01*
G01*
X170468750Y-92025000D01*
G75*
G02*
X170225000Y-91781250I0J243750D01*
G01*
G37*
G36*
G01*
X171800000Y-91781250D02*
X171800000Y-91218750D01*
G75*
G02*
X172043750Y-90975000I243750J0D01*
G01*
X172531250Y-90975000D01*
G75*
G02*
X172775000Y-91218750I0J-243750D01*
G01*
X172775000Y-91781250D01*
G75*
G02*
X172531250Y-92025000I-243750J0D01*
G01*
X172043750Y-92025000D01*
G75*
G02*
X171800000Y-91781250I0J243750D01*
G01*
G37*
G36*
G01*
X145775000Y-91218750D02*
X145775000Y-91781250D01*
G75*
G02*
X145531250Y-92025000I-243750J0D01*
G01*
X145043750Y-92025000D01*
G75*
G02*
X144800000Y-91781250I0J243750D01*
G01*
X144800000Y-91218750D01*
G75*
G02*
X145043750Y-90975000I243750J0D01*
G01*
X145531250Y-90975000D01*
G75*
G02*
X145775000Y-91218750I0J-243750D01*
G01*
G37*
G36*
G01*
X144200000Y-91218750D02*
X144200000Y-91781250D01*
G75*
G02*
X143956250Y-92025000I-243750J0D01*
G01*
X143468750Y-92025000D01*
G75*
G02*
X143225000Y-91781250I0J243750D01*
G01*
X143225000Y-91218750D01*
G75*
G02*
X143468750Y-90975000I243750J0D01*
G01*
X143956250Y-90975000D01*
G75*
G02*
X144200000Y-91218750I0J-243750D01*
G01*
G37*
G36*
G01*
X128375000Y-101375000D02*
X126225000Y-101375000D01*
G75*
G02*
X126175000Y-101325000I0J50000D01*
G01*
X126175000Y-98075000D01*
G75*
G02*
X126225000Y-98025000I50000J0D01*
G01*
X128375000Y-98025000D01*
G75*
G02*
X128425000Y-98075000I0J-50000D01*
G01*
X128425000Y-101325000D01*
G75*
G02*
X128375000Y-101375000I-50000J0D01*
G01*
G37*
G36*
G01*
X122575000Y-100225000D02*
X120425000Y-100225000D01*
G75*
G02*
X120375000Y-100175000I0J50000D01*
G01*
X120375000Y-99225000D01*
G75*
G02*
X120425000Y-99175000I50000J0D01*
G01*
X122575000Y-99175000D01*
G75*
G02*
X122625000Y-99225000I0J-50000D01*
G01*
X122625000Y-100175000D01*
G75*
G02*
X122575000Y-100225000I-50000J0D01*
G01*
G37*
G36*
G01*
X122575000Y-102525000D02*
X120425000Y-102525000D01*
G75*
G02*
X120375000Y-102475000I0J50000D01*
G01*
X120375000Y-101525000D01*
G75*
G02*
X120425000Y-101475000I50000J0D01*
G01*
X122575000Y-101475000D01*
G75*
G02*
X122625000Y-101525000I0J-50000D01*
G01*
X122625000Y-102475000D01*
G75*
G02*
X122575000Y-102525000I-50000J0D01*
G01*
G37*
G36*
G01*
X122575000Y-97925000D02*
X120425000Y-97925000D01*
G75*
G02*
X120375000Y-97875000I0J50000D01*
G01*
X120375000Y-96925000D01*
G75*
G02*
X120425000Y-96875000I50000J0D01*
G01*
X122575000Y-96875000D01*
G75*
G02*
X122625000Y-96925000I0J-50000D01*
G01*
X122625000Y-97875000D01*
G75*
G02*
X122575000Y-97925000I-50000J0D01*
G01*
G37*
D12*
X171240000Y-95420000D03*
X168700000Y-95420000D03*
X171240000Y-97960000D03*
X168700000Y-97960000D03*
X171240000Y-100500000D03*
G36*
G01*
X167800000Y-101350000D02*
X167800000Y-99650000D01*
G75*
G02*
X167850000Y-99600000I50000J0D01*
G01*
X169550000Y-99600000D01*
G75*
G02*
X169600000Y-99650000I0J-50000D01*
G01*
X169600000Y-101350000D01*
G75*
G02*
X169550000Y-101400000I-50000J0D01*
G01*
X167850000Y-101400000D01*
G75*
G02*
X167800000Y-101350000I0J50000D01*
G01*
G37*
G36*
G01*
X148300000Y-94650000D02*
X148300000Y-96350000D01*
G75*
G02*
X148250000Y-96400000I-50000J0D01*
G01*
X146550000Y-96400000D01*
G75*
G02*
X146500000Y-96350000I0J50000D01*
G01*
X146500000Y-94650000D01*
G75*
G02*
X146550000Y-94600000I50000J0D01*
G01*
X148250000Y-94600000D01*
G75*
G02*
X148300000Y-94650000I0J-50000D01*
G01*
G37*
X144860000Y-95500000D03*
X147400000Y-98040000D03*
X144860000Y-98040000D03*
X147400000Y-100580000D03*
X144860000Y-100580000D03*
G36*
G01*
X97800000Y-92300000D02*
X99500000Y-92300000D01*
G75*
G02*
X99550000Y-92350000I0J-50000D01*
G01*
X99550000Y-94050000D01*
G75*
G02*
X99500000Y-94100000I-50000J0D01*
G01*
X97800000Y-94100000D01*
G75*
G02*
X97750000Y-94050000I0J50000D01*
G01*
X97750000Y-92350000D01*
G75*
G02*
X97800000Y-92300000I50000J0D01*
G01*
G37*
X101190000Y-93200000D03*
X103730000Y-93200000D03*
X106270000Y-93200000D03*
X108810000Y-93200000D03*
X111350000Y-93200000D03*
G36*
G01*
X152500000Y-94100000D02*
X150800000Y-94100000D01*
G75*
G02*
X150750000Y-94050000I0J50000D01*
G01*
X150750000Y-92350000D01*
G75*
G02*
X150800000Y-92300000I50000J0D01*
G01*
X152500000Y-92300000D01*
G75*
G02*
X152550000Y-92350000I0J-50000D01*
G01*
X152550000Y-94050000D01*
G75*
G02*
X152500000Y-94100000I-50000J0D01*
G01*
G37*
X154190000Y-93200000D03*
X156730000Y-93200000D03*
X159270000Y-93200000D03*
X161810000Y-93200000D03*
X164350000Y-93200000D03*
G36*
G01*
X118950000Y-120480000D02*
X118950000Y-118720000D01*
G75*
G02*
X119220000Y-118450000I270000J0D01*
G01*
X120030000Y-118450000D01*
G75*
G02*
X120300000Y-118720000I0J-270000D01*
G01*
X120300000Y-120480000D01*
G75*
G02*
X120030000Y-120750000I-270000J0D01*
G01*
X119220000Y-120750000D01*
G75*
G02*
X118950000Y-120480000I0J270000D01*
G01*
G37*
G36*
G01*
X121100000Y-120480000D02*
X121100000Y-118720000D01*
G75*
G02*
X121370000Y-118450000I270000J0D01*
G01*
X122180000Y-118450000D01*
G75*
G02*
X122450000Y-118720000I0J-270000D01*
G01*
X122450000Y-120480000D01*
G75*
G02*
X122180000Y-120750000I-270000J0D01*
G01*
X121370000Y-120750000D01*
G75*
G02*
X121100000Y-120480000I0J270000D01*
G01*
G37*
G36*
G01*
X166650000Y-123500000D02*
X167450000Y-123500000D01*
G75*
G02*
X167500000Y-123550000I0J-50000D01*
G01*
X167500000Y-124450000D01*
G75*
G02*
X167450000Y-124500000I-50000J0D01*
G01*
X166650000Y-124500000D01*
G75*
G02*
X166600000Y-124450000I0J50000D01*
G01*
X166600000Y-123550000D01*
G75*
G02*
X166650000Y-123500000I50000J0D01*
G01*
G37*
G36*
G01*
X168550000Y-123500000D02*
X169350000Y-123500000D01*
G75*
G02*
X169400000Y-123550000I0J-50000D01*
G01*
X169400000Y-124450000D01*
G75*
G02*
X169350000Y-124500000I-50000J0D01*
G01*
X168550000Y-124500000D01*
G75*
G02*
X168500000Y-124450000I0J50000D01*
G01*
X168500000Y-123550000D01*
G75*
G02*
X168550000Y-123500000I50000J0D01*
G01*
G37*
G36*
G01*
X167600000Y-125500000D02*
X168400000Y-125500000D01*
G75*
G02*
X168450000Y-125550000I0J-50000D01*
G01*
X168450000Y-126450000D01*
G75*
G02*
X168400000Y-126500000I-50000J0D01*
G01*
X167600000Y-126500000D01*
G75*
G02*
X167550000Y-126450000I0J50000D01*
G01*
X167550000Y-125550000D01*
G75*
G02*
X167600000Y-125500000I50000J0D01*
G01*
G37*
G36*
G01*
X160800000Y-125500000D02*
X161600000Y-125500000D01*
G75*
G02*
X161650000Y-125550000I0J-50000D01*
G01*
X161650000Y-126450000D01*
G75*
G02*
X161600000Y-126500000I-50000J0D01*
G01*
X160800000Y-126500000D01*
G75*
G02*
X160750000Y-126450000I0J50000D01*
G01*
X160750000Y-125550000D01*
G75*
G02*
X160800000Y-125500000I50000J0D01*
G01*
G37*
G36*
G01*
X161750000Y-123500000D02*
X162550000Y-123500000D01*
G75*
G02*
X162600000Y-123550000I0J-50000D01*
G01*
X162600000Y-124450000D01*
G75*
G02*
X162550000Y-124500000I-50000J0D01*
G01*
X161750000Y-124500000D01*
G75*
G02*
X161700000Y-124450000I0J50000D01*
G01*
X161700000Y-123550000D01*
G75*
G02*
X161750000Y-123500000I50000J0D01*
G01*
G37*
G36*
G01*
X159850000Y-123500000D02*
X160650000Y-123500000D01*
G75*
G02*
X160700000Y-123550000I0J-50000D01*
G01*
X160700000Y-124450000D01*
G75*
G02*
X160650000Y-124500000I-50000J0D01*
G01*
X159850000Y-124500000D01*
G75*
G02*
X159800000Y-124450000I0J50000D01*
G01*
X159800000Y-123550000D01*
G75*
G02*
X159850000Y-123500000I50000J0D01*
G01*
G37*
G36*
G01*
X153350000Y-123500000D02*
X154150000Y-123500000D01*
G75*
G02*
X154200000Y-123550000I0J-50000D01*
G01*
X154200000Y-124450000D01*
G75*
G02*
X154150000Y-124500000I-50000J0D01*
G01*
X153350000Y-124500000D01*
G75*
G02*
X153300000Y-124450000I0J50000D01*
G01*
X153300000Y-123550000D01*
G75*
G02*
X153350000Y-123500000I50000J0D01*
G01*
G37*
G36*
G01*
X155250000Y-123500000D02*
X156050000Y-123500000D01*
G75*
G02*
X156100000Y-123550000I0J-50000D01*
G01*
X156100000Y-124450000D01*
G75*
G02*
X156050000Y-124500000I-50000J0D01*
G01*
X155250000Y-124500000D01*
G75*
G02*
X155200000Y-124450000I0J50000D01*
G01*
X155200000Y-123550000D01*
G75*
G02*
X155250000Y-123500000I50000J0D01*
G01*
G37*
G36*
G01*
X154300000Y-125500000D02*
X155100000Y-125500000D01*
G75*
G02*
X155150000Y-125550000I0J-50000D01*
G01*
X155150000Y-126450000D01*
G75*
G02*
X155100000Y-126500000I-50000J0D01*
G01*
X154300000Y-126500000D01*
G75*
G02*
X154250000Y-126450000I0J50000D01*
G01*
X154250000Y-125550000D01*
G75*
G02*
X154300000Y-125500000I50000J0D01*
G01*
G37*
G36*
G01*
X147700000Y-125500000D02*
X148500000Y-125500000D01*
G75*
G02*
X148550000Y-125550000I0J-50000D01*
G01*
X148550000Y-126450000D01*
G75*
G02*
X148500000Y-126500000I-50000J0D01*
G01*
X147700000Y-126500000D01*
G75*
G02*
X147650000Y-126450000I0J50000D01*
G01*
X147650000Y-125550000D01*
G75*
G02*
X147700000Y-125500000I50000J0D01*
G01*
G37*
G36*
G01*
X148650000Y-123500000D02*
X149450000Y-123500000D01*
G75*
G02*
X149500000Y-123550000I0J-50000D01*
G01*
X149500000Y-124450000D01*
G75*
G02*
X149450000Y-124500000I-50000J0D01*
G01*
X148650000Y-124500000D01*
G75*
G02*
X148600000Y-124450000I0J50000D01*
G01*
X148600000Y-123550000D01*
G75*
G02*
X148650000Y-123500000I50000J0D01*
G01*
G37*
G36*
G01*
X146750000Y-123500000D02*
X147550000Y-123500000D01*
G75*
G02*
X147600000Y-123550000I0J-50000D01*
G01*
X147600000Y-124450000D01*
G75*
G02*
X147550000Y-124500000I-50000J0D01*
G01*
X146750000Y-124500000D01*
G75*
G02*
X146700000Y-124450000I0J50000D01*
G01*
X146700000Y-123550000D01*
G75*
G02*
X146750000Y-123500000I50000J0D01*
G01*
G37*
G36*
G01*
X125200000Y-105418750D02*
X125200000Y-105981250D01*
G75*
G02*
X124956250Y-106225000I-243750J0D01*
G01*
X124468750Y-106225000D01*
G75*
G02*
X124225000Y-105981250I0J243750D01*
G01*
X124225000Y-105418750D01*
G75*
G02*
X124468750Y-105175000I243750J0D01*
G01*
X124956250Y-105175000D01*
G75*
G02*
X125200000Y-105418750I0J-243750D01*
G01*
G37*
G36*
G01*
X126775000Y-105418750D02*
X126775000Y-105981250D01*
G75*
G02*
X126531250Y-106225000I-243750J0D01*
G01*
X126043750Y-106225000D01*
G75*
G02*
X125800000Y-105981250I0J243750D01*
G01*
X125800000Y-105418750D01*
G75*
G02*
X126043750Y-105175000I243750J0D01*
G01*
X126531250Y-105175000D01*
G75*
G02*
X126775000Y-105418750I0J-243750D01*
G01*
G37*
G36*
G01*
X120118750Y-104325000D02*
X120681250Y-104325000D01*
G75*
G02*
X120925000Y-104568750I0J-243750D01*
G01*
X120925000Y-105056250D01*
G75*
G02*
X120681250Y-105300000I-243750J0D01*
G01*
X120118750Y-105300000D01*
G75*
G02*
X119875000Y-105056250I0J243750D01*
G01*
X119875000Y-104568750D01*
G75*
G02*
X120118750Y-104325000I243750J0D01*
G01*
G37*
G36*
G01*
X120118750Y-105900000D02*
X120681250Y-105900000D01*
G75*
G02*
X120925000Y-106143750I0J-243750D01*
G01*
X120925000Y-106631250D01*
G75*
G02*
X120681250Y-106875000I-243750J0D01*
G01*
X120118750Y-106875000D01*
G75*
G02*
X119875000Y-106631250I0J243750D01*
G01*
X119875000Y-106143750D01*
G75*
G02*
X120118750Y-105900000I243750J0D01*
G01*
G37*
G36*
G01*
X118881250Y-105300000D02*
X118318750Y-105300000D01*
G75*
G02*
X118075000Y-105056250I0J243750D01*
G01*
X118075000Y-104568750D01*
G75*
G02*
X118318750Y-104325000I243750J0D01*
G01*
X118881250Y-104325000D01*
G75*
G02*
X119125000Y-104568750I0J-243750D01*
G01*
X119125000Y-105056250D01*
G75*
G02*
X118881250Y-105300000I-243750J0D01*
G01*
G37*
G36*
G01*
X118881250Y-106875000D02*
X118318750Y-106875000D01*
G75*
G02*
X118075000Y-106631250I0J243750D01*
G01*
X118075000Y-106143750D01*
G75*
G02*
X118318750Y-105900000I243750J0D01*
G01*
X118881250Y-105900000D01*
G75*
G02*
X119125000Y-106143750I0J-243750D01*
G01*
X119125000Y-106631250D01*
G75*
G02*
X118881250Y-106875000I-243750J0D01*
G01*
G37*
G36*
G01*
X164099565Y-111297313D02*
X164497313Y-110899565D01*
G75*
G02*
X164842027Y-110899565I172357J-172357D01*
G01*
X165186741Y-111244279D01*
G75*
G02*
X165186741Y-111588993I-172357J-172357D01*
G01*
X164788993Y-111986741D01*
G75*
G02*
X164444279Y-111986741I-172357J172357D01*
G01*
X164099565Y-111642027D01*
G75*
G02*
X164099565Y-111297313I172357J172357D01*
G01*
G37*
G36*
G01*
X165213259Y-112411007D02*
X165611007Y-112013259D01*
G75*
G02*
X165955721Y-112013259I172357J-172357D01*
G01*
X166300435Y-112357973D01*
G75*
G02*
X166300435Y-112702687I-172357J-172357D01*
G01*
X165902687Y-113100435D01*
G75*
G02*
X165557973Y-113100435I-172357J172357D01*
G01*
X165213259Y-112755721D01*
G75*
G02*
X165213259Y-112411007I172357J172357D01*
G01*
G37*
G36*
G01*
X158863250Y-120396000D02*
X158300750Y-120396000D01*
G75*
G02*
X158057000Y-120152250I0J243750D01*
G01*
X158057000Y-119664750D01*
G75*
G02*
X158300750Y-119421000I243750J0D01*
G01*
X158863250Y-119421000D01*
G75*
G02*
X159107000Y-119664750I0J-243750D01*
G01*
X159107000Y-120152250D01*
G75*
G02*
X158863250Y-120396000I-243750J0D01*
G01*
G37*
G36*
G01*
X158863250Y-121971000D02*
X158300750Y-121971000D01*
G75*
G02*
X158057000Y-121727250I0J243750D01*
G01*
X158057000Y-121239750D01*
G75*
G02*
X158300750Y-120996000I243750J0D01*
G01*
X158863250Y-120996000D01*
G75*
G02*
X159107000Y-121239750I0J-243750D01*
G01*
X159107000Y-121727250D01*
G75*
G02*
X158863250Y-121971000I-243750J0D01*
G01*
G37*
G36*
G01*
X166725000Y-122281250D02*
X166725000Y-121718750D01*
G75*
G02*
X166968750Y-121475000I243750J0D01*
G01*
X167456250Y-121475000D01*
G75*
G02*
X167700000Y-121718750I0J-243750D01*
G01*
X167700000Y-122281250D01*
G75*
G02*
X167456250Y-122525000I-243750J0D01*
G01*
X166968750Y-122525000D01*
G75*
G02*
X166725000Y-122281250I0J243750D01*
G01*
G37*
G36*
G01*
X168300000Y-122281250D02*
X168300000Y-121718750D01*
G75*
G02*
X168543750Y-121475000I243750J0D01*
G01*
X169031250Y-121475000D01*
G75*
G02*
X169275000Y-121718750I0J-243750D01*
G01*
X169275000Y-122281250D01*
G75*
G02*
X169031250Y-122525000I-243750J0D01*
G01*
X168543750Y-122525000D01*
G75*
G02*
X168300000Y-122281250I0J243750D01*
G01*
G37*
G36*
G01*
X175918750Y-126525000D02*
X176481250Y-126525000D01*
G75*
G02*
X176725000Y-126768750I0J-243750D01*
G01*
X176725000Y-127256250D01*
G75*
G02*
X176481250Y-127500000I-243750J0D01*
G01*
X175918750Y-127500000D01*
G75*
G02*
X175675000Y-127256250I0J243750D01*
G01*
X175675000Y-126768750D01*
G75*
G02*
X175918750Y-126525000I243750J0D01*
G01*
G37*
G36*
G01*
X175918750Y-128100000D02*
X176481250Y-128100000D01*
G75*
G02*
X176725000Y-128343750I0J-243750D01*
G01*
X176725000Y-128831250D01*
G75*
G02*
X176481250Y-129075000I-243750J0D01*
G01*
X175918750Y-129075000D01*
G75*
G02*
X175675000Y-128831250I0J243750D01*
G01*
X175675000Y-128343750D01*
G75*
G02*
X175918750Y-128100000I243750J0D01*
G01*
G37*
G36*
G01*
X161500000Y-122281250D02*
X161500000Y-121718750D01*
G75*
G02*
X161743750Y-121475000I243750J0D01*
G01*
X162231250Y-121475000D01*
G75*
G02*
X162475000Y-121718750I0J-243750D01*
G01*
X162475000Y-122281250D01*
G75*
G02*
X162231250Y-122525000I-243750J0D01*
G01*
X161743750Y-122525000D01*
G75*
G02*
X161500000Y-122281250I0J243750D01*
G01*
G37*
G36*
G01*
X159925000Y-122281250D02*
X159925000Y-121718750D01*
G75*
G02*
X160168750Y-121475000I243750J0D01*
G01*
X160656250Y-121475000D01*
G75*
G02*
X160900000Y-121718750I0J-243750D01*
G01*
X160900000Y-122281250D01*
G75*
G02*
X160656250Y-122525000I-243750J0D01*
G01*
X160168750Y-122525000D01*
G75*
G02*
X159925000Y-122281250I0J243750D01*
G01*
G37*
G36*
G01*
X161918750Y-136125000D02*
X162481250Y-136125000D01*
G75*
G02*
X162725000Y-136368750I0J-243750D01*
G01*
X162725000Y-136856250D01*
G75*
G02*
X162481250Y-137100000I-243750J0D01*
G01*
X161918750Y-137100000D01*
G75*
G02*
X161675000Y-136856250I0J243750D01*
G01*
X161675000Y-136368750D01*
G75*
G02*
X161918750Y-136125000I243750J0D01*
G01*
G37*
G36*
G01*
X161918750Y-137700000D02*
X162481250Y-137700000D01*
G75*
G02*
X162725000Y-137943750I0J-243750D01*
G01*
X162725000Y-138431250D01*
G75*
G02*
X162481250Y-138675000I-243750J0D01*
G01*
X161918750Y-138675000D01*
G75*
G02*
X161675000Y-138431250I0J243750D01*
G01*
X161675000Y-137943750D01*
G75*
G02*
X161918750Y-137700000I243750J0D01*
G01*
G37*
G36*
G01*
X155000000Y-122281250D02*
X155000000Y-121718750D01*
G75*
G02*
X155243750Y-121475000I243750J0D01*
G01*
X155731250Y-121475000D01*
G75*
G02*
X155975000Y-121718750I0J-243750D01*
G01*
X155975000Y-122281250D01*
G75*
G02*
X155731250Y-122525000I-243750J0D01*
G01*
X155243750Y-122525000D01*
G75*
G02*
X155000000Y-122281250I0J243750D01*
G01*
G37*
G36*
G01*
X153425000Y-122281250D02*
X153425000Y-121718750D01*
G75*
G02*
X153668750Y-121475000I243750J0D01*
G01*
X154156250Y-121475000D01*
G75*
G02*
X154400000Y-121718750I0J-243750D01*
G01*
X154400000Y-122281250D01*
G75*
G02*
X154156250Y-122525000I-243750J0D01*
G01*
X153668750Y-122525000D01*
G75*
G02*
X153425000Y-122281250I0J243750D01*
G01*
G37*
G36*
G01*
X153518750Y-136125000D02*
X154081250Y-136125000D01*
G75*
G02*
X154325000Y-136368750I0J-243750D01*
G01*
X154325000Y-136856250D01*
G75*
G02*
X154081250Y-137100000I-243750J0D01*
G01*
X153518750Y-137100000D01*
G75*
G02*
X153275000Y-136856250I0J243750D01*
G01*
X153275000Y-136368750D01*
G75*
G02*
X153518750Y-136125000I243750J0D01*
G01*
G37*
G36*
G01*
X153518750Y-137700000D02*
X154081250Y-137700000D01*
G75*
G02*
X154325000Y-137943750I0J-243750D01*
G01*
X154325000Y-138431250D01*
G75*
G02*
X154081250Y-138675000I-243750J0D01*
G01*
X153518750Y-138675000D01*
G75*
G02*
X153275000Y-138431250I0J243750D01*
G01*
X153275000Y-137943750D01*
G75*
G02*
X153518750Y-137700000I243750J0D01*
G01*
G37*
G36*
G01*
X148400000Y-122281250D02*
X148400000Y-121718750D01*
G75*
G02*
X148643750Y-121475000I243750J0D01*
G01*
X149131250Y-121475000D01*
G75*
G02*
X149375000Y-121718750I0J-243750D01*
G01*
X149375000Y-122281250D01*
G75*
G02*
X149131250Y-122525000I-243750J0D01*
G01*
X148643750Y-122525000D01*
G75*
G02*
X148400000Y-122281250I0J243750D01*
G01*
G37*
G36*
G01*
X146825000Y-122281250D02*
X146825000Y-121718750D01*
G75*
G02*
X147068750Y-121475000I243750J0D01*
G01*
X147556250Y-121475000D01*
G75*
G02*
X147800000Y-121718750I0J-243750D01*
G01*
X147800000Y-122281250D01*
G75*
G02*
X147556250Y-122525000I-243750J0D01*
G01*
X147068750Y-122525000D01*
G75*
G02*
X146825000Y-122281250I0J243750D01*
G01*
G37*
G36*
G01*
X139718750Y-126525000D02*
X140281250Y-126525000D01*
G75*
G02*
X140525000Y-126768750I0J-243750D01*
G01*
X140525000Y-127256250D01*
G75*
G02*
X140281250Y-127500000I-243750J0D01*
G01*
X139718750Y-127500000D01*
G75*
G02*
X139475000Y-127256250I0J243750D01*
G01*
X139475000Y-126768750D01*
G75*
G02*
X139718750Y-126525000I243750J0D01*
G01*
G37*
G36*
G01*
X139718750Y-128100000D02*
X140281250Y-128100000D01*
G75*
G02*
X140525000Y-128343750I0J-243750D01*
G01*
X140525000Y-128831250D01*
G75*
G02*
X140281250Y-129075000I-243750J0D01*
G01*
X139718750Y-129075000D01*
G75*
G02*
X139475000Y-128831250I0J243750D01*
G01*
X139475000Y-128343750D01*
G75*
G02*
X139718750Y-128100000I243750J0D01*
G01*
G37*
G36*
G01*
X135800000Y-107481250D02*
X135800000Y-106918750D01*
G75*
G02*
X136043750Y-106675000I243750J0D01*
G01*
X136531250Y-106675000D01*
G75*
G02*
X136775000Y-106918750I0J-243750D01*
G01*
X136775000Y-107481250D01*
G75*
G02*
X136531250Y-107725000I-243750J0D01*
G01*
X136043750Y-107725000D01*
G75*
G02*
X135800000Y-107481250I0J243750D01*
G01*
G37*
G36*
G01*
X134225000Y-107481250D02*
X134225000Y-106918750D01*
G75*
G02*
X134468750Y-106675000I243750J0D01*
G01*
X134956250Y-106675000D01*
G75*
G02*
X135200000Y-106918750I0J-243750D01*
G01*
X135200000Y-107481250D01*
G75*
G02*
X134956250Y-107725000I-243750J0D01*
G01*
X134468750Y-107725000D01*
G75*
G02*
X134225000Y-107481250I0J243750D01*
G01*
G37*
G36*
G01*
X169575000Y-91218750D02*
X169575000Y-91781250D01*
G75*
G02*
X169331250Y-92025000I-243750J0D01*
G01*
X168843750Y-92025000D01*
G75*
G02*
X168600000Y-91781250I0J243750D01*
G01*
X168600000Y-91218750D01*
G75*
G02*
X168843750Y-90975000I243750J0D01*
G01*
X169331250Y-90975000D01*
G75*
G02*
X169575000Y-91218750I0J-243750D01*
G01*
G37*
G36*
G01*
X168000000Y-91218750D02*
X168000000Y-91781250D01*
G75*
G02*
X167756250Y-92025000I-243750J0D01*
G01*
X167268750Y-92025000D01*
G75*
G02*
X167025000Y-91781250I0J243750D01*
G01*
X167025000Y-91218750D01*
G75*
G02*
X167268750Y-90975000I243750J0D01*
G01*
X167756250Y-90975000D01*
G75*
G02*
X168000000Y-91218750I0J-243750D01*
G01*
G37*
G36*
G01*
X148000000Y-91781250D02*
X148000000Y-91218750D01*
G75*
G02*
X148243750Y-90975000I243750J0D01*
G01*
X148731250Y-90975000D01*
G75*
G02*
X148975000Y-91218750I0J-243750D01*
G01*
X148975000Y-91781250D01*
G75*
G02*
X148731250Y-92025000I-243750J0D01*
G01*
X148243750Y-92025000D01*
G75*
G02*
X148000000Y-91781250I0J243750D01*
G01*
G37*
G36*
G01*
X146425000Y-91781250D02*
X146425000Y-91218750D01*
G75*
G02*
X146668750Y-90975000I243750J0D01*
G01*
X147156250Y-90975000D01*
G75*
G02*
X147400000Y-91218750I0J-243750D01*
G01*
X147400000Y-91781250D01*
G75*
G02*
X147156250Y-92025000I-243750J0D01*
G01*
X146668750Y-92025000D01*
G75*
G02*
X146425000Y-91781250I0J243750D01*
G01*
G37*
G36*
G01*
X128281250Y-106275000D02*
X127718750Y-106275000D01*
G75*
G02*
X127475000Y-106031250I0J243750D01*
G01*
X127475000Y-105543750D01*
G75*
G02*
X127718750Y-105300000I243750J0D01*
G01*
X128281250Y-105300000D01*
G75*
G02*
X128525000Y-105543750I0J-243750D01*
G01*
X128525000Y-106031250D01*
G75*
G02*
X128281250Y-106275000I-243750J0D01*
G01*
G37*
G36*
G01*
X128281250Y-104700000D02*
X127718750Y-104700000D01*
G75*
G02*
X127475000Y-104456250I0J243750D01*
G01*
X127475000Y-103968750D01*
G75*
G02*
X127718750Y-103725000I243750J0D01*
G01*
X128281250Y-103725000D01*
G75*
G02*
X128525000Y-103968750I0J-243750D01*
G01*
X128525000Y-104456250D01*
G75*
G02*
X128281250Y-104700000I-243750J0D01*
G01*
G37*
G36*
G01*
X148900000Y-108318750D02*
X148900000Y-108881250D01*
G75*
G02*
X148656250Y-109125000I-243750J0D01*
G01*
X148168750Y-109125000D01*
G75*
G02*
X147925000Y-108881250I0J243750D01*
G01*
X147925000Y-108318750D01*
G75*
G02*
X148168750Y-108075000I243750J0D01*
G01*
X148656250Y-108075000D01*
G75*
G02*
X148900000Y-108318750I0J-243750D01*
G01*
G37*
G36*
G01*
X150475000Y-108318750D02*
X150475000Y-108881250D01*
G75*
G02*
X150231250Y-109125000I-243750J0D01*
G01*
X149743750Y-109125000D01*
G75*
G02*
X149500000Y-108881250I0J243750D01*
G01*
X149500000Y-108318750D01*
G75*
G02*
X149743750Y-108075000I243750J0D01*
G01*
X150231250Y-108075000D01*
G75*
G02*
X150475000Y-108318750I0J-243750D01*
G01*
G37*
G36*
G01*
X125200000Y-103918750D02*
X125200000Y-104481250D01*
G75*
G02*
X124956250Y-104725000I-243750J0D01*
G01*
X124468750Y-104725000D01*
G75*
G02*
X124225000Y-104481250I0J243750D01*
G01*
X124225000Y-103918750D01*
G75*
G02*
X124468750Y-103675000I243750J0D01*
G01*
X124956250Y-103675000D01*
G75*
G02*
X125200000Y-103918750I0J-243750D01*
G01*
G37*
G36*
G01*
X126775000Y-103918750D02*
X126775000Y-104481250D01*
G75*
G02*
X126531250Y-104725000I-243750J0D01*
G01*
X126043750Y-104725000D01*
G75*
G02*
X125800000Y-104481250I0J243750D01*
G01*
X125800000Y-103918750D01*
G75*
G02*
X126043750Y-103675000I243750J0D01*
G01*
X126531250Y-103675000D01*
G75*
G02*
X126775000Y-103918750I0J-243750D01*
G01*
G37*
G36*
G01*
X126225000Y-108081250D02*
X126225000Y-107518750D01*
G75*
G02*
X126468750Y-107275000I243750J0D01*
G01*
X126956250Y-107275000D01*
G75*
G02*
X127200000Y-107518750I0J-243750D01*
G01*
X127200000Y-108081250D01*
G75*
G02*
X126956250Y-108325000I-243750J0D01*
G01*
X126468750Y-108325000D01*
G75*
G02*
X126225000Y-108081250I0J243750D01*
G01*
G37*
G36*
G01*
X127800000Y-108081250D02*
X127800000Y-107518750D01*
G75*
G02*
X128043750Y-107275000I243750J0D01*
G01*
X128531250Y-107275000D01*
G75*
G02*
X128775000Y-107518750I0J-243750D01*
G01*
X128775000Y-108081250D01*
G75*
G02*
X128531250Y-108325000I-243750J0D01*
G01*
X128043750Y-108325000D01*
G75*
G02*
X127800000Y-108081250I0J243750D01*
G01*
G37*
G36*
G01*
X120775000Y-111480000D02*
X120125000Y-111480000D01*
G75*
G02*
X120075000Y-111430000I0J50000D01*
G01*
X120075000Y-110370000D01*
G75*
G02*
X120125000Y-110320000I50000J0D01*
G01*
X120775000Y-110320000D01*
G75*
G02*
X120825000Y-110370000I0J-50000D01*
G01*
X120825000Y-111430000D01*
G75*
G02*
X120775000Y-111480000I-50000J0D01*
G01*
G37*
G36*
G01*
X119825000Y-111480000D02*
X119175000Y-111480000D01*
G75*
G02*
X119125000Y-111430000I0J50000D01*
G01*
X119125000Y-110370000D01*
G75*
G02*
X119175000Y-110320000I50000J0D01*
G01*
X119825000Y-110320000D01*
G75*
G02*
X119875000Y-110370000I0J-50000D01*
G01*
X119875000Y-111430000D01*
G75*
G02*
X119825000Y-111480000I-50000J0D01*
G01*
G37*
G36*
G01*
X118875000Y-111480000D02*
X118225000Y-111480000D01*
G75*
G02*
X118175000Y-111430000I0J50000D01*
G01*
X118175000Y-110370000D01*
G75*
G02*
X118225000Y-110320000I50000J0D01*
G01*
X118875000Y-110320000D01*
G75*
G02*
X118925000Y-110370000I0J-50000D01*
G01*
X118925000Y-111430000D01*
G75*
G02*
X118875000Y-111480000I-50000J0D01*
G01*
G37*
G36*
G01*
X118875000Y-109280000D02*
X118225000Y-109280000D01*
G75*
G02*
X118175000Y-109230000I0J50000D01*
G01*
X118175000Y-108170000D01*
G75*
G02*
X118225000Y-108120000I50000J0D01*
G01*
X118875000Y-108120000D01*
G75*
G02*
X118925000Y-108170000I0J-50000D01*
G01*
X118925000Y-109230000D01*
G75*
G02*
X118875000Y-109280000I-50000J0D01*
G01*
G37*
G36*
G01*
X120775000Y-109280000D02*
X120125000Y-109280000D01*
G75*
G02*
X120075000Y-109230000I0J50000D01*
G01*
X120075000Y-108170000D01*
G75*
G02*
X120125000Y-108120000I50000J0D01*
G01*
X120775000Y-108120000D01*
G75*
G02*
X120825000Y-108170000I0J-50000D01*
G01*
X120825000Y-109230000D01*
G75*
G02*
X120775000Y-109280000I-50000J0D01*
G01*
G37*
G36*
G01*
X119825000Y-109280000D02*
X119175000Y-109280000D01*
G75*
G02*
X119125000Y-109230000I0J50000D01*
G01*
X119125000Y-108170000D01*
G75*
G02*
X119175000Y-108120000I50000J0D01*
G01*
X119825000Y-108120000D01*
G75*
G02*
X119875000Y-108170000I0J-50000D01*
G01*
X119875000Y-109230000D01*
G75*
G02*
X119825000Y-109280000I-50000J0D01*
G01*
G37*
G36*
G01*
X165318555Y-105473834D02*
X165177134Y-105615255D01*
G75*
G02*
X165035712Y-105615255I-70711J70711D01*
G01*
X164010407Y-104589950D01*
G75*
G02*
X164010407Y-104448528I70711J70711D01*
G01*
X164151828Y-104307107D01*
G75*
G02*
X164293250Y-104307107I70711J-70711D01*
G01*
X165318555Y-105332412D01*
G75*
G02*
X165318555Y-105473834I-70711J-70711D01*
G01*
G37*
G36*
G01*
X164965002Y-105827387D02*
X164823581Y-105968808D01*
G75*
G02*
X164682159Y-105968808I-70711J70711D01*
G01*
X163656854Y-104943503D01*
G75*
G02*
X163656854Y-104802081I70711J70711D01*
G01*
X163798275Y-104660660D01*
G75*
G02*
X163939697Y-104660660I70711J-70711D01*
G01*
X164965002Y-105685965D01*
G75*
G02*
X164965002Y-105827387I-70711J-70711D01*
G01*
G37*
G36*
G01*
X164611449Y-106180940D02*
X164470028Y-106322361D01*
G75*
G02*
X164328606Y-106322361I-70711J70711D01*
G01*
X163303301Y-105297056D01*
G75*
G02*
X163303301Y-105155634I70711J70711D01*
G01*
X163444722Y-105014213D01*
G75*
G02*
X163586144Y-105014213I70711J-70711D01*
G01*
X164611449Y-106039518D01*
G75*
G02*
X164611449Y-106180940I-70711J-70711D01*
G01*
G37*
G36*
G01*
X164257895Y-106534494D02*
X164116474Y-106675915D01*
G75*
G02*
X163975052Y-106675915I-70711J70711D01*
G01*
X162949747Y-105650610D01*
G75*
G02*
X162949747Y-105509188I70711J70711D01*
G01*
X163091168Y-105367767D01*
G75*
G02*
X163232590Y-105367767I70711J-70711D01*
G01*
X164257895Y-106393072D01*
G75*
G02*
X164257895Y-106534494I-70711J-70711D01*
G01*
G37*
G36*
G01*
X163904342Y-106888047D02*
X163762921Y-107029468D01*
G75*
G02*
X163621499Y-107029468I-70711J70711D01*
G01*
X162596194Y-106004163D01*
G75*
G02*
X162596194Y-105862741I70711J70711D01*
G01*
X162737615Y-105721320D01*
G75*
G02*
X162879037Y-105721320I70711J-70711D01*
G01*
X163904342Y-106746625D01*
G75*
G02*
X163904342Y-106888047I-70711J-70711D01*
G01*
G37*
G36*
G01*
X163550788Y-107241601D02*
X163409367Y-107383022D01*
G75*
G02*
X163267945Y-107383022I-70711J70711D01*
G01*
X162242640Y-106357717D01*
G75*
G02*
X162242640Y-106216295I70711J70711D01*
G01*
X162384061Y-106074874D01*
G75*
G02*
X162525483Y-106074874I70711J-70711D01*
G01*
X163550788Y-107100179D01*
G75*
G02*
X163550788Y-107241601I-70711J-70711D01*
G01*
G37*
G36*
G01*
X163197235Y-107595154D02*
X163055814Y-107736575D01*
G75*
G02*
X162914392Y-107736575I-70711J70711D01*
G01*
X161889087Y-106711270D01*
G75*
G02*
X161889087Y-106569848I70711J70711D01*
G01*
X162030508Y-106428427D01*
G75*
G02*
X162171930Y-106428427I70711J-70711D01*
G01*
X163197235Y-107453732D01*
G75*
G02*
X163197235Y-107595154I-70711J-70711D01*
G01*
G37*
G36*
G01*
X162843682Y-107948707D02*
X162702261Y-108090128D01*
G75*
G02*
X162560839Y-108090128I-70711J70711D01*
G01*
X161535534Y-107064823D01*
G75*
G02*
X161535534Y-106923401I70711J70711D01*
G01*
X161676955Y-106781980D01*
G75*
G02*
X161818377Y-106781980I70711J-70711D01*
G01*
X162843682Y-107807285D01*
G75*
G02*
X162843682Y-107948707I-70711J-70711D01*
G01*
G37*
G36*
G01*
X162490128Y-108302261D02*
X162348707Y-108443682D01*
G75*
G02*
X162207285Y-108443682I-70711J70711D01*
G01*
X161181980Y-107418377D01*
G75*
G02*
X161181980Y-107276955I70711J70711D01*
G01*
X161323401Y-107135534D01*
G75*
G02*
X161464823Y-107135534I70711J-70711D01*
G01*
X162490128Y-108160839D01*
G75*
G02*
X162490128Y-108302261I-70711J-70711D01*
G01*
G37*
G36*
G01*
X162136575Y-108655814D02*
X161995154Y-108797235D01*
G75*
G02*
X161853732Y-108797235I-70711J70711D01*
G01*
X160828427Y-107771930D01*
G75*
G02*
X160828427Y-107630508I70711J70711D01*
G01*
X160969848Y-107489087D01*
G75*
G02*
X161111270Y-107489087I70711J-70711D01*
G01*
X162136575Y-108514392D01*
G75*
G02*
X162136575Y-108655814I-70711J-70711D01*
G01*
G37*
G36*
G01*
X161783022Y-109009367D02*
X161641601Y-109150788D01*
G75*
G02*
X161500179Y-109150788I-70711J70711D01*
G01*
X160474874Y-108125483D01*
G75*
G02*
X160474874Y-107984061I70711J70711D01*
G01*
X160616295Y-107842640D01*
G75*
G02*
X160757717Y-107842640I70711J-70711D01*
G01*
X161783022Y-108867945D01*
G75*
G02*
X161783022Y-109009367I-70711J-70711D01*
G01*
G37*
G36*
G01*
X161429468Y-109362921D02*
X161288047Y-109504342D01*
G75*
G02*
X161146625Y-109504342I-70711J70711D01*
G01*
X160121320Y-108479037D01*
G75*
G02*
X160121320Y-108337615I70711J70711D01*
G01*
X160262741Y-108196194D01*
G75*
G02*
X160404163Y-108196194I70711J-70711D01*
G01*
X161429468Y-109221499D01*
G75*
G02*
X161429468Y-109362921I-70711J-70711D01*
G01*
G37*
G36*
G01*
X161075915Y-109716474D02*
X160934494Y-109857895D01*
G75*
G02*
X160793072Y-109857895I-70711J70711D01*
G01*
X159767767Y-108832590D01*
G75*
G02*
X159767767Y-108691168I70711J70711D01*
G01*
X159909188Y-108549747D01*
G75*
G02*
X160050610Y-108549747I70711J-70711D01*
G01*
X161075915Y-109575052D01*
G75*
G02*
X161075915Y-109716474I-70711J-70711D01*
G01*
G37*
G36*
G01*
X160722361Y-110070028D02*
X160580940Y-110211449D01*
G75*
G02*
X160439518Y-110211449I-70711J70711D01*
G01*
X159414213Y-109186144D01*
G75*
G02*
X159414213Y-109044722I70711J70711D01*
G01*
X159555634Y-108903301D01*
G75*
G02*
X159697056Y-108903301I70711J-70711D01*
G01*
X160722361Y-109928606D01*
G75*
G02*
X160722361Y-110070028I-70711J-70711D01*
G01*
G37*
G36*
G01*
X160368808Y-110423581D02*
X160227387Y-110565002D01*
G75*
G02*
X160085965Y-110565002I-70711J70711D01*
G01*
X159060660Y-109539697D01*
G75*
G02*
X159060660Y-109398275I70711J70711D01*
G01*
X159202081Y-109256854D01*
G75*
G02*
X159343503Y-109256854I70711J-70711D01*
G01*
X160368808Y-110282159D01*
G75*
G02*
X160368808Y-110423581I-70711J-70711D01*
G01*
G37*
G36*
G01*
X160015255Y-110777134D02*
X159873834Y-110918555D01*
G75*
G02*
X159732412Y-110918555I-70711J70711D01*
G01*
X158707107Y-109893250D01*
G75*
G02*
X158707107Y-109751828I70711J70711D01*
G01*
X158848528Y-109610407D01*
G75*
G02*
X158989950Y-109610407I70711J-70711D01*
G01*
X160015255Y-110635712D01*
G75*
G02*
X160015255Y-110777134I-70711J-70711D01*
G01*
G37*
G36*
G01*
X157292893Y-109893250D02*
X156267588Y-110918555D01*
G75*
G02*
X156126166Y-110918555I-70711J70711D01*
G01*
X155984745Y-110777134D01*
G75*
G02*
X155984745Y-110635712I70711J70711D01*
G01*
X157010050Y-109610407D01*
G75*
G02*
X157151472Y-109610407I70711J-70711D01*
G01*
X157292893Y-109751828D01*
G75*
G02*
X157292893Y-109893250I-70711J-70711D01*
G01*
G37*
G36*
G01*
X156939340Y-109539697D02*
X155914035Y-110565002D01*
G75*
G02*
X155772613Y-110565002I-70711J70711D01*
G01*
X155631192Y-110423581D01*
G75*
G02*
X155631192Y-110282159I70711J70711D01*
G01*
X156656497Y-109256854D01*
G75*
G02*
X156797919Y-109256854I70711J-70711D01*
G01*
X156939340Y-109398275D01*
G75*
G02*
X156939340Y-109539697I-70711J-70711D01*
G01*
G37*
G36*
G01*
X156585787Y-109186144D02*
X155560482Y-110211449D01*
G75*
G02*
X155419060Y-110211449I-70711J70711D01*
G01*
X155277639Y-110070028D01*
G75*
G02*
X155277639Y-109928606I70711J70711D01*
G01*
X156302944Y-108903301D01*
G75*
G02*
X156444366Y-108903301I70711J-70711D01*
G01*
X156585787Y-109044722D01*
G75*
G02*
X156585787Y-109186144I-70711J-70711D01*
G01*
G37*
G36*
G01*
X156232233Y-108832590D02*
X155206928Y-109857895D01*
G75*
G02*
X155065506Y-109857895I-70711J70711D01*
G01*
X154924085Y-109716474D01*
G75*
G02*
X154924085Y-109575052I70711J70711D01*
G01*
X155949390Y-108549747D01*
G75*
G02*
X156090812Y-108549747I70711J-70711D01*
G01*
X156232233Y-108691168D01*
G75*
G02*
X156232233Y-108832590I-70711J-70711D01*
G01*
G37*
G36*
G01*
X155878680Y-108479037D02*
X154853375Y-109504342D01*
G75*
G02*
X154711953Y-109504342I-70711J70711D01*
G01*
X154570532Y-109362921D01*
G75*
G02*
X154570532Y-109221499I70711J70711D01*
G01*
X155595837Y-108196194D01*
G75*
G02*
X155737259Y-108196194I70711J-70711D01*
G01*
X155878680Y-108337615D01*
G75*
G02*
X155878680Y-108479037I-70711J-70711D01*
G01*
G37*
G36*
G01*
X155525126Y-108125483D02*
X154499821Y-109150788D01*
G75*
G02*
X154358399Y-109150788I-70711J70711D01*
G01*
X154216978Y-109009367D01*
G75*
G02*
X154216978Y-108867945I70711J70711D01*
G01*
X155242283Y-107842640D01*
G75*
G02*
X155383705Y-107842640I70711J-70711D01*
G01*
X155525126Y-107984061D01*
G75*
G02*
X155525126Y-108125483I-70711J-70711D01*
G01*
G37*
G36*
G01*
X155171573Y-107771930D02*
X154146268Y-108797235D01*
G75*
G02*
X154004846Y-108797235I-70711J70711D01*
G01*
X153863425Y-108655814D01*
G75*
G02*
X153863425Y-108514392I70711J70711D01*
G01*
X154888730Y-107489087D01*
G75*
G02*
X155030152Y-107489087I70711J-70711D01*
G01*
X155171573Y-107630508D01*
G75*
G02*
X155171573Y-107771930I-70711J-70711D01*
G01*
G37*
G36*
G01*
X154818020Y-107418377D02*
X153792715Y-108443682D01*
G75*
G02*
X153651293Y-108443682I-70711J70711D01*
G01*
X153509872Y-108302261D01*
G75*
G02*
X153509872Y-108160839I70711J70711D01*
G01*
X154535177Y-107135534D01*
G75*
G02*
X154676599Y-107135534I70711J-70711D01*
G01*
X154818020Y-107276955D01*
G75*
G02*
X154818020Y-107418377I-70711J-70711D01*
G01*
G37*
G36*
G01*
X154464466Y-107064823D02*
X153439161Y-108090128D01*
G75*
G02*
X153297739Y-108090128I-70711J70711D01*
G01*
X153156318Y-107948707D01*
G75*
G02*
X153156318Y-107807285I70711J70711D01*
G01*
X154181623Y-106781980D01*
G75*
G02*
X154323045Y-106781980I70711J-70711D01*
G01*
X154464466Y-106923401D01*
G75*
G02*
X154464466Y-107064823I-70711J-70711D01*
G01*
G37*
G36*
G01*
X154110913Y-106711270D02*
X153085608Y-107736575D01*
G75*
G02*
X152944186Y-107736575I-70711J70711D01*
G01*
X152802765Y-107595154D01*
G75*
G02*
X152802765Y-107453732I70711J70711D01*
G01*
X153828070Y-106428427D01*
G75*
G02*
X153969492Y-106428427I70711J-70711D01*
G01*
X154110913Y-106569848D01*
G75*
G02*
X154110913Y-106711270I-70711J-70711D01*
G01*
G37*
G36*
G01*
X153757360Y-106357717D02*
X152732055Y-107383022D01*
G75*
G02*
X152590633Y-107383022I-70711J70711D01*
G01*
X152449212Y-107241601D01*
G75*
G02*
X152449212Y-107100179I70711J70711D01*
G01*
X153474517Y-106074874D01*
G75*
G02*
X153615939Y-106074874I70711J-70711D01*
G01*
X153757360Y-106216295D01*
G75*
G02*
X153757360Y-106357717I-70711J-70711D01*
G01*
G37*
G36*
G01*
X153403806Y-106004163D02*
X152378501Y-107029468D01*
G75*
G02*
X152237079Y-107029468I-70711J70711D01*
G01*
X152095658Y-106888047D01*
G75*
G02*
X152095658Y-106746625I70711J70711D01*
G01*
X153120963Y-105721320D01*
G75*
G02*
X153262385Y-105721320I70711J-70711D01*
G01*
X153403806Y-105862741D01*
G75*
G02*
X153403806Y-106004163I-70711J-70711D01*
G01*
G37*
G36*
G01*
X153050253Y-105650610D02*
X152024948Y-106675915D01*
G75*
G02*
X151883526Y-106675915I-70711J70711D01*
G01*
X151742105Y-106534494D01*
G75*
G02*
X151742105Y-106393072I70711J70711D01*
G01*
X152767410Y-105367767D01*
G75*
G02*
X152908832Y-105367767I70711J-70711D01*
G01*
X153050253Y-105509188D01*
G75*
G02*
X153050253Y-105650610I-70711J-70711D01*
G01*
G37*
G36*
G01*
X152696699Y-105297056D02*
X151671394Y-106322361D01*
G75*
G02*
X151529972Y-106322361I-70711J70711D01*
G01*
X151388551Y-106180940D01*
G75*
G02*
X151388551Y-106039518I70711J70711D01*
G01*
X152413856Y-105014213D01*
G75*
G02*
X152555278Y-105014213I70711J-70711D01*
G01*
X152696699Y-105155634D01*
G75*
G02*
X152696699Y-105297056I-70711J-70711D01*
G01*
G37*
G36*
G01*
X152343146Y-104943503D02*
X151317841Y-105968808D01*
G75*
G02*
X151176419Y-105968808I-70711J70711D01*
G01*
X151034998Y-105827387D01*
G75*
G02*
X151034998Y-105685965I70711J70711D01*
G01*
X152060303Y-104660660D01*
G75*
G02*
X152201725Y-104660660I70711J-70711D01*
G01*
X152343146Y-104802081D01*
G75*
G02*
X152343146Y-104943503I-70711J-70711D01*
G01*
G37*
G36*
G01*
X151989593Y-104589950D02*
X150964288Y-105615255D01*
G75*
G02*
X150822866Y-105615255I-70711J70711D01*
G01*
X150681445Y-105473834D01*
G75*
G02*
X150681445Y-105332412I70711J70711D01*
G01*
X151706750Y-104307107D01*
G75*
G02*
X151848172Y-104307107I70711J-70711D01*
G01*
X151989593Y-104448528D01*
G75*
G02*
X151989593Y-104589950I-70711J-70711D01*
G01*
G37*
G36*
G01*
X151989593Y-102751472D02*
X151848172Y-102892893D01*
G75*
G02*
X151706750Y-102892893I-70711J70711D01*
G01*
X150681445Y-101867588D01*
G75*
G02*
X150681445Y-101726166I70711J70711D01*
G01*
X150822866Y-101584745D01*
G75*
G02*
X150964288Y-101584745I70711J-70711D01*
G01*
X151989593Y-102610050D01*
G75*
G02*
X151989593Y-102751472I-70711J-70711D01*
G01*
G37*
G36*
G01*
X152343146Y-102397919D02*
X152201725Y-102539340D01*
G75*
G02*
X152060303Y-102539340I-70711J70711D01*
G01*
X151034998Y-101514035D01*
G75*
G02*
X151034998Y-101372613I70711J70711D01*
G01*
X151176419Y-101231192D01*
G75*
G02*
X151317841Y-101231192I70711J-70711D01*
G01*
X152343146Y-102256497D01*
G75*
G02*
X152343146Y-102397919I-70711J-70711D01*
G01*
G37*
G36*
G01*
X152696699Y-102044366D02*
X152555278Y-102185787D01*
G75*
G02*
X152413856Y-102185787I-70711J70711D01*
G01*
X151388551Y-101160482D01*
G75*
G02*
X151388551Y-101019060I70711J70711D01*
G01*
X151529972Y-100877639D01*
G75*
G02*
X151671394Y-100877639I70711J-70711D01*
G01*
X152696699Y-101902944D01*
G75*
G02*
X152696699Y-102044366I-70711J-70711D01*
G01*
G37*
G36*
G01*
X153050253Y-101690812D02*
X152908832Y-101832233D01*
G75*
G02*
X152767410Y-101832233I-70711J70711D01*
G01*
X151742105Y-100806928D01*
G75*
G02*
X151742105Y-100665506I70711J70711D01*
G01*
X151883526Y-100524085D01*
G75*
G02*
X152024948Y-100524085I70711J-70711D01*
G01*
X153050253Y-101549390D01*
G75*
G02*
X153050253Y-101690812I-70711J-70711D01*
G01*
G37*
G36*
G01*
X153403806Y-101337259D02*
X153262385Y-101478680D01*
G75*
G02*
X153120963Y-101478680I-70711J70711D01*
G01*
X152095658Y-100453375D01*
G75*
G02*
X152095658Y-100311953I70711J70711D01*
G01*
X152237079Y-100170532D01*
G75*
G02*
X152378501Y-100170532I70711J-70711D01*
G01*
X153403806Y-101195837D01*
G75*
G02*
X153403806Y-101337259I-70711J-70711D01*
G01*
G37*
G36*
G01*
X153757360Y-100983705D02*
X153615939Y-101125126D01*
G75*
G02*
X153474517Y-101125126I-70711J70711D01*
G01*
X152449212Y-100099821D01*
G75*
G02*
X152449212Y-99958399I70711J70711D01*
G01*
X152590633Y-99816978D01*
G75*
G02*
X152732055Y-99816978I70711J-70711D01*
G01*
X153757360Y-100842283D01*
G75*
G02*
X153757360Y-100983705I-70711J-70711D01*
G01*
G37*
G36*
G01*
X154110913Y-100630152D02*
X153969492Y-100771573D01*
G75*
G02*
X153828070Y-100771573I-70711J70711D01*
G01*
X152802765Y-99746268D01*
G75*
G02*
X152802765Y-99604846I70711J70711D01*
G01*
X152944186Y-99463425D01*
G75*
G02*
X153085608Y-99463425I70711J-70711D01*
G01*
X154110913Y-100488730D01*
G75*
G02*
X154110913Y-100630152I-70711J-70711D01*
G01*
G37*
G36*
G01*
X154464466Y-100276599D02*
X154323045Y-100418020D01*
G75*
G02*
X154181623Y-100418020I-70711J70711D01*
G01*
X153156318Y-99392715D01*
G75*
G02*
X153156318Y-99251293I70711J70711D01*
G01*
X153297739Y-99109872D01*
G75*
G02*
X153439161Y-99109872I70711J-70711D01*
G01*
X154464466Y-100135177D01*
G75*
G02*
X154464466Y-100276599I-70711J-70711D01*
G01*
G37*
G36*
G01*
X154818020Y-99923045D02*
X154676599Y-100064466D01*
G75*
G02*
X154535177Y-100064466I-70711J70711D01*
G01*
X153509872Y-99039161D01*
G75*
G02*
X153509872Y-98897739I70711J70711D01*
G01*
X153651293Y-98756318D01*
G75*
G02*
X153792715Y-98756318I70711J-70711D01*
G01*
X154818020Y-99781623D01*
G75*
G02*
X154818020Y-99923045I-70711J-70711D01*
G01*
G37*
G36*
G01*
X155171573Y-99569492D02*
X155030152Y-99710913D01*
G75*
G02*
X154888730Y-99710913I-70711J70711D01*
G01*
X153863425Y-98685608D01*
G75*
G02*
X153863425Y-98544186I70711J70711D01*
G01*
X154004846Y-98402765D01*
G75*
G02*
X154146268Y-98402765I70711J-70711D01*
G01*
X155171573Y-99428070D01*
G75*
G02*
X155171573Y-99569492I-70711J-70711D01*
G01*
G37*
G36*
G01*
X155525126Y-99215939D02*
X155383705Y-99357360D01*
G75*
G02*
X155242283Y-99357360I-70711J70711D01*
G01*
X154216978Y-98332055D01*
G75*
G02*
X154216978Y-98190633I70711J70711D01*
G01*
X154358399Y-98049212D01*
G75*
G02*
X154499821Y-98049212I70711J-70711D01*
G01*
X155525126Y-99074517D01*
G75*
G02*
X155525126Y-99215939I-70711J-70711D01*
G01*
G37*
G36*
G01*
X155878680Y-98862385D02*
X155737259Y-99003806D01*
G75*
G02*
X155595837Y-99003806I-70711J70711D01*
G01*
X154570532Y-97978501D01*
G75*
G02*
X154570532Y-97837079I70711J70711D01*
G01*
X154711953Y-97695658D01*
G75*
G02*
X154853375Y-97695658I70711J-70711D01*
G01*
X155878680Y-98720963D01*
G75*
G02*
X155878680Y-98862385I-70711J-70711D01*
G01*
G37*
G36*
G01*
X156232233Y-98508832D02*
X156090812Y-98650253D01*
G75*
G02*
X155949390Y-98650253I-70711J70711D01*
G01*
X154924085Y-97624948D01*
G75*
G02*
X154924085Y-97483526I70711J70711D01*
G01*
X155065506Y-97342105D01*
G75*
G02*
X155206928Y-97342105I70711J-70711D01*
G01*
X156232233Y-98367410D01*
G75*
G02*
X156232233Y-98508832I-70711J-70711D01*
G01*
G37*
G36*
G01*
X156585787Y-98155278D02*
X156444366Y-98296699D01*
G75*
G02*
X156302944Y-98296699I-70711J70711D01*
G01*
X155277639Y-97271394D01*
G75*
G02*
X155277639Y-97129972I70711J70711D01*
G01*
X155419060Y-96988551D01*
G75*
G02*
X155560482Y-96988551I70711J-70711D01*
G01*
X156585787Y-98013856D01*
G75*
G02*
X156585787Y-98155278I-70711J-70711D01*
G01*
G37*
G36*
G01*
X156939340Y-97801725D02*
X156797919Y-97943146D01*
G75*
G02*
X156656497Y-97943146I-70711J70711D01*
G01*
X155631192Y-96917841D01*
G75*
G02*
X155631192Y-96776419I70711J70711D01*
G01*
X155772613Y-96634998D01*
G75*
G02*
X155914035Y-96634998I70711J-70711D01*
G01*
X156939340Y-97660303D01*
G75*
G02*
X156939340Y-97801725I-70711J-70711D01*
G01*
G37*
G36*
G01*
X157292893Y-97448172D02*
X157151472Y-97589593D01*
G75*
G02*
X157010050Y-97589593I-70711J70711D01*
G01*
X155984745Y-96564288D01*
G75*
G02*
X155984745Y-96422866I70711J70711D01*
G01*
X156126166Y-96281445D01*
G75*
G02*
X156267588Y-96281445I70711J-70711D01*
G01*
X157292893Y-97306750D01*
G75*
G02*
X157292893Y-97448172I-70711J-70711D01*
G01*
G37*
G36*
G01*
X160015255Y-96564288D02*
X158989950Y-97589593D01*
G75*
G02*
X158848528Y-97589593I-70711J70711D01*
G01*
X158707107Y-97448172D01*
G75*
G02*
X158707107Y-97306750I70711J70711D01*
G01*
X159732412Y-96281445D01*
G75*
G02*
X159873834Y-96281445I70711J-70711D01*
G01*
X160015255Y-96422866D01*
G75*
G02*
X160015255Y-96564288I-70711J-70711D01*
G01*
G37*
G36*
G01*
X160368808Y-96917841D02*
X159343503Y-97943146D01*
G75*
G02*
X159202081Y-97943146I-70711J70711D01*
G01*
X159060660Y-97801725D01*
G75*
G02*
X159060660Y-97660303I70711J70711D01*
G01*
X160085965Y-96634998D01*
G75*
G02*
X160227387Y-96634998I70711J-70711D01*
G01*
X160368808Y-96776419D01*
G75*
G02*
X160368808Y-96917841I-70711J-70711D01*
G01*
G37*
G36*
G01*
X160722361Y-97271394D02*
X159697056Y-98296699D01*
G75*
G02*
X159555634Y-98296699I-70711J70711D01*
G01*
X159414213Y-98155278D01*
G75*
G02*
X159414213Y-98013856I70711J70711D01*
G01*
X160439518Y-96988551D01*
G75*
G02*
X160580940Y-96988551I70711J-70711D01*
G01*
X160722361Y-97129972D01*
G75*
G02*
X160722361Y-97271394I-70711J-70711D01*
G01*
G37*
G36*
G01*
X161075915Y-97624948D02*
X160050610Y-98650253D01*
G75*
G02*
X159909188Y-98650253I-70711J70711D01*
G01*
X159767767Y-98508832D01*
G75*
G02*
X159767767Y-98367410I70711J70711D01*
G01*
X160793072Y-97342105D01*
G75*
G02*
X160934494Y-97342105I70711J-70711D01*
G01*
X161075915Y-97483526D01*
G75*
G02*
X161075915Y-97624948I-70711J-70711D01*
G01*
G37*
G36*
G01*
X161429468Y-97978501D02*
X160404163Y-99003806D01*
G75*
G02*
X160262741Y-99003806I-70711J70711D01*
G01*
X160121320Y-98862385D01*
G75*
G02*
X160121320Y-98720963I70711J70711D01*
G01*
X161146625Y-97695658D01*
G75*
G02*
X161288047Y-97695658I70711J-70711D01*
G01*
X161429468Y-97837079D01*
G75*
G02*
X161429468Y-97978501I-70711J-70711D01*
G01*
G37*
G36*
G01*
X161783022Y-98332055D02*
X160757717Y-99357360D01*
G75*
G02*
X160616295Y-99357360I-70711J70711D01*
G01*
X160474874Y-99215939D01*
G75*
G02*
X160474874Y-99074517I70711J70711D01*
G01*
X161500179Y-98049212D01*
G75*
G02*
X161641601Y-98049212I70711J-70711D01*
G01*
X161783022Y-98190633D01*
G75*
G02*
X161783022Y-98332055I-70711J-70711D01*
G01*
G37*
G36*
G01*
X162136575Y-98685608D02*
X161111270Y-99710913D01*
G75*
G02*
X160969848Y-99710913I-70711J70711D01*
G01*
X160828427Y-99569492D01*
G75*
G02*
X160828427Y-99428070I70711J70711D01*
G01*
X161853732Y-98402765D01*
G75*
G02*
X161995154Y-98402765I70711J-70711D01*
G01*
X162136575Y-98544186D01*
G75*
G02*
X162136575Y-98685608I-70711J-70711D01*
G01*
G37*
G36*
G01*
X162490128Y-99039161D02*
X161464823Y-100064466D01*
G75*
G02*
X161323401Y-100064466I-70711J70711D01*
G01*
X161181980Y-99923045D01*
G75*
G02*
X161181980Y-99781623I70711J70711D01*
G01*
X162207285Y-98756318D01*
G75*
G02*
X162348707Y-98756318I70711J-70711D01*
G01*
X162490128Y-98897739D01*
G75*
G02*
X162490128Y-99039161I-70711J-70711D01*
G01*
G37*
G36*
G01*
X162843682Y-99392715D02*
X161818377Y-100418020D01*
G75*
G02*
X161676955Y-100418020I-70711J70711D01*
G01*
X161535534Y-100276599D01*
G75*
G02*
X161535534Y-100135177I70711J70711D01*
G01*
X162560839Y-99109872D01*
G75*
G02*
X162702261Y-99109872I70711J-70711D01*
G01*
X162843682Y-99251293D01*
G75*
G02*
X162843682Y-99392715I-70711J-70711D01*
G01*
G37*
G36*
G01*
X163197235Y-99746268D02*
X162171930Y-100771573D01*
G75*
G02*
X162030508Y-100771573I-70711J70711D01*
G01*
X161889087Y-100630152D01*
G75*
G02*
X161889087Y-100488730I70711J70711D01*
G01*
X162914392Y-99463425D01*
G75*
G02*
X163055814Y-99463425I70711J-70711D01*
G01*
X163197235Y-99604846D01*
G75*
G02*
X163197235Y-99746268I-70711J-70711D01*
G01*
G37*
G36*
G01*
X163550788Y-100099821D02*
X162525483Y-101125126D01*
G75*
G02*
X162384061Y-101125126I-70711J70711D01*
G01*
X162242640Y-100983705D01*
G75*
G02*
X162242640Y-100842283I70711J70711D01*
G01*
X163267945Y-99816978D01*
G75*
G02*
X163409367Y-99816978I70711J-70711D01*
G01*
X163550788Y-99958399D01*
G75*
G02*
X163550788Y-100099821I-70711J-70711D01*
G01*
G37*
G36*
G01*
X163904342Y-100453375D02*
X162879037Y-101478680D01*
G75*
G02*
X162737615Y-101478680I-70711J70711D01*
G01*
X162596194Y-101337259D01*
G75*
G02*
X162596194Y-101195837I70711J70711D01*
G01*
X163621499Y-100170532D01*
G75*
G02*
X163762921Y-100170532I70711J-70711D01*
G01*
X163904342Y-100311953D01*
G75*
G02*
X163904342Y-100453375I-70711J-70711D01*
G01*
G37*
G36*
G01*
X164257895Y-100806928D02*
X163232590Y-101832233D01*
G75*
G02*
X163091168Y-101832233I-70711J70711D01*
G01*
X162949747Y-101690812D01*
G75*
G02*
X162949747Y-101549390I70711J70711D01*
G01*
X163975052Y-100524085D01*
G75*
G02*
X164116474Y-100524085I70711J-70711D01*
G01*
X164257895Y-100665506D01*
G75*
G02*
X164257895Y-100806928I-70711J-70711D01*
G01*
G37*
G36*
G01*
X164611449Y-101160482D02*
X163586144Y-102185787D01*
G75*
G02*
X163444722Y-102185787I-70711J70711D01*
G01*
X163303301Y-102044366D01*
G75*
G02*
X163303301Y-101902944I70711J70711D01*
G01*
X164328606Y-100877639D01*
G75*
G02*
X164470028Y-100877639I70711J-70711D01*
G01*
X164611449Y-101019060D01*
G75*
G02*
X164611449Y-101160482I-70711J-70711D01*
G01*
G37*
G36*
G01*
X164965002Y-101514035D02*
X163939697Y-102539340D01*
G75*
G02*
X163798275Y-102539340I-70711J70711D01*
G01*
X163656854Y-102397919D01*
G75*
G02*
X163656854Y-102256497I70711J70711D01*
G01*
X164682159Y-101231192D01*
G75*
G02*
X164823581Y-101231192I70711J-70711D01*
G01*
X164965002Y-101372613D01*
G75*
G02*
X164965002Y-101514035I-70711J-70711D01*
G01*
G37*
G36*
G01*
X165318555Y-101867588D02*
X164293250Y-102892893D01*
G75*
G02*
X164151828Y-102892893I-70711J70711D01*
G01*
X164010407Y-102751472D01*
G75*
G02*
X164010407Y-102610050I70711J70711D01*
G01*
X165035712Y-101584745D01*
G75*
G02*
X165177134Y-101584745I70711J-70711D01*
G01*
X165318555Y-101726166D01*
G75*
G02*
X165318555Y-101867588I-70711J-70711D01*
G01*
G37*
G36*
G01*
X142775000Y-110450000D02*
X145425000Y-110450000D01*
G75*
G02*
X145475000Y-110500000I0J-50000D01*
G01*
X145475000Y-111500000D01*
G75*
G02*
X145425000Y-111550000I-50000J0D01*
G01*
X142775000Y-111550000D01*
G75*
G02*
X142725000Y-111500000I0J50000D01*
G01*
X142725000Y-110500000D01*
G75*
G02*
X142775000Y-110450000I50000J0D01*
G01*
G37*
G36*
G01*
X142725000Y-111650000D02*
X142975000Y-111650000D01*
G75*
G02*
X143025000Y-111700000I0J-50000D01*
G01*
X143025000Y-112200000D01*
G75*
G02*
X142975000Y-112250000I-50000J0D01*
G01*
X142725000Y-112250000D01*
G75*
G02*
X142675000Y-112200000I0J50000D01*
G01*
X142675000Y-111700000D01*
G75*
G02*
X142725000Y-111650000I50000J0D01*
G01*
G37*
G36*
G01*
X143225000Y-111650000D02*
X143475000Y-111650000D01*
G75*
G02*
X143525000Y-111700000I0J-50000D01*
G01*
X143525000Y-112200000D01*
G75*
G02*
X143475000Y-112250000I-50000J0D01*
G01*
X143225000Y-112250000D01*
G75*
G02*
X143175000Y-112200000I0J50000D01*
G01*
X143175000Y-111700000D01*
G75*
G02*
X143225000Y-111650000I50000J0D01*
G01*
G37*
G36*
G01*
X143725000Y-111650000D02*
X143975000Y-111650000D01*
G75*
G02*
X144025000Y-111700000I0J-50000D01*
G01*
X144025000Y-112200000D01*
G75*
G02*
X143975000Y-112250000I-50000J0D01*
G01*
X143725000Y-112250000D01*
G75*
G02*
X143675000Y-112200000I0J50000D01*
G01*
X143675000Y-111700000D01*
G75*
G02*
X143725000Y-111650000I50000J0D01*
G01*
G37*
G36*
G01*
X144225000Y-111650000D02*
X144475000Y-111650000D01*
G75*
G02*
X144525000Y-111700000I0J-50000D01*
G01*
X144525000Y-112200000D01*
G75*
G02*
X144475000Y-112250000I-50000J0D01*
G01*
X144225000Y-112250000D01*
G75*
G02*
X144175000Y-112200000I0J50000D01*
G01*
X144175000Y-111700000D01*
G75*
G02*
X144225000Y-111650000I50000J0D01*
G01*
G37*
G36*
G01*
X144725000Y-111650000D02*
X144975000Y-111650000D01*
G75*
G02*
X145025000Y-111700000I0J-50000D01*
G01*
X145025000Y-112200000D01*
G75*
G02*
X144975000Y-112250000I-50000J0D01*
G01*
X144725000Y-112250000D01*
G75*
G02*
X144675000Y-112200000I0J50000D01*
G01*
X144675000Y-111700000D01*
G75*
G02*
X144725000Y-111650000I50000J0D01*
G01*
G37*
G36*
G01*
X145225000Y-111650000D02*
X145475000Y-111650000D01*
G75*
G02*
X145525000Y-111700000I0J-50000D01*
G01*
X145525000Y-112200000D01*
G75*
G02*
X145475000Y-112250000I-50000J0D01*
G01*
X145225000Y-112250000D01*
G75*
G02*
X145175000Y-112200000I0J50000D01*
G01*
X145175000Y-111700000D01*
G75*
G02*
X145225000Y-111650000I50000J0D01*
G01*
G37*
G36*
G01*
X145225000Y-109750000D02*
X145475000Y-109750000D01*
G75*
G02*
X145525000Y-109800000I0J-50000D01*
G01*
X145525000Y-110300000D01*
G75*
G02*
X145475000Y-110350000I-50000J0D01*
G01*
X145225000Y-110350000D01*
G75*
G02*
X145175000Y-110300000I0J50000D01*
G01*
X145175000Y-109800000D01*
G75*
G02*
X145225000Y-109750000I50000J0D01*
G01*
G37*
G36*
G01*
X144725000Y-109750000D02*
X144975000Y-109750000D01*
G75*
G02*
X145025000Y-109800000I0J-50000D01*
G01*
X145025000Y-110300000D01*
G75*
G02*
X144975000Y-110350000I-50000J0D01*
G01*
X144725000Y-110350000D01*
G75*
G02*
X144675000Y-110300000I0J50000D01*
G01*
X144675000Y-109800000D01*
G75*
G02*
X144725000Y-109750000I50000J0D01*
G01*
G37*
G36*
G01*
X144225000Y-109750000D02*
X144475000Y-109750000D01*
G75*
G02*
X144525000Y-109800000I0J-50000D01*
G01*
X144525000Y-110300000D01*
G75*
G02*
X144475000Y-110350000I-50000J0D01*
G01*
X144225000Y-110350000D01*
G75*
G02*
X144175000Y-110300000I0J50000D01*
G01*
X144175000Y-109800000D01*
G75*
G02*
X144225000Y-109750000I50000J0D01*
G01*
G37*
G36*
G01*
X143725000Y-109750000D02*
X143975000Y-109750000D01*
G75*
G02*
X144025000Y-109800000I0J-50000D01*
G01*
X144025000Y-110300000D01*
G75*
G02*
X143975000Y-110350000I-50000J0D01*
G01*
X143725000Y-110350000D01*
G75*
G02*
X143675000Y-110300000I0J50000D01*
G01*
X143675000Y-109800000D01*
G75*
G02*
X143725000Y-109750000I50000J0D01*
G01*
G37*
G36*
G01*
X143225000Y-109750000D02*
X143475000Y-109750000D01*
G75*
G02*
X143525000Y-109800000I0J-50000D01*
G01*
X143525000Y-110300000D01*
G75*
G02*
X143475000Y-110350000I-50000J0D01*
G01*
X143225000Y-110350000D01*
G75*
G02*
X143175000Y-110300000I0J50000D01*
G01*
X143175000Y-109800000D01*
G75*
G02*
X143225000Y-109750000I50000J0D01*
G01*
G37*
G36*
G01*
X142725000Y-109750000D02*
X142975000Y-109750000D01*
G75*
G02*
X143025000Y-109800000I0J-50000D01*
G01*
X143025000Y-110300000D01*
G75*
G02*
X142975000Y-110350000I-50000J0D01*
G01*
X142725000Y-110350000D01*
G75*
G02*
X142675000Y-110300000I0J50000D01*
G01*
X142675000Y-109800000D01*
G75*
G02*
X142725000Y-109750000I50000J0D01*
G01*
G37*
G36*
G01*
X167197918Y-108080762D02*
X168399999Y-109282843D01*
G75*
G02*
X168399999Y-109353553I-35355J-35355D01*
G01*
X168046446Y-109707106D01*
G75*
G02*
X167975736Y-109707106I-35355J35355D01*
G01*
X166773655Y-108505025D01*
G75*
G02*
X166773655Y-108434315I35355J35355D01*
G01*
X167127208Y-108080762D01*
G75*
G02*
X167197918Y-108080762I35355J-35355D01*
G01*
G37*
G36*
G01*
X166420101Y-108858579D02*
X167622182Y-110060660D01*
G75*
G02*
X167622182Y-110131370I-35355J-35355D01*
G01*
X167268629Y-110484923D01*
G75*
G02*
X167197919Y-110484923I-35355J35355D01*
G01*
X165995838Y-109282842D01*
G75*
G02*
X165995838Y-109212132I35355J35355D01*
G01*
X166349391Y-108858579D01*
G75*
G02*
X166420101Y-108858579I35355J-35355D01*
G01*
G37*
G36*
G01*
X165642283Y-109636397D02*
X166844364Y-110838478D01*
G75*
G02*
X166844364Y-110909188I-35355J-35355D01*
G01*
X166490811Y-111262741D01*
G75*
G02*
X166420101Y-111262741I-35355J35355D01*
G01*
X165218020Y-110060660D01*
G75*
G02*
X165218020Y-109989950I35355J35355D01*
G01*
X165571573Y-109636397D01*
G75*
G02*
X165642283Y-109636397I35355J-35355D01*
G01*
G37*
G36*
G01*
X159802500Y-118540000D02*
X160197500Y-118540000D01*
G75*
G02*
X160370000Y-118712500I0J-172500D01*
G01*
X160370000Y-119057500D01*
G75*
G02*
X160197500Y-119230000I-172500J0D01*
G01*
X159802500Y-119230000D01*
G75*
G02*
X159630000Y-119057500I0J172500D01*
G01*
X159630000Y-118712500D01*
G75*
G02*
X159802500Y-118540000I172500J0D01*
G01*
G37*
G36*
G01*
X159802500Y-117570000D02*
X160197500Y-117570000D01*
G75*
G02*
X160370000Y-117742500I0J-172500D01*
G01*
X160370000Y-118087500D01*
G75*
G02*
X160197500Y-118260000I-172500J0D01*
G01*
X159802500Y-118260000D01*
G75*
G02*
X159630000Y-118087500I0J172500D01*
G01*
X159630000Y-117742500D01*
G75*
G02*
X159802500Y-117570000I172500J0D01*
G01*
G37*
G36*
G01*
X157430000Y-117802500D02*
X157430000Y-118197500D01*
G75*
G02*
X157257500Y-118370000I-172500J0D01*
G01*
X156912500Y-118370000D01*
G75*
G02*
X156740000Y-118197500I0J172500D01*
G01*
X156740000Y-117802500D01*
G75*
G02*
X156912500Y-117630000I172500J0D01*
G01*
X157257500Y-117630000D01*
G75*
G02*
X157430000Y-117802500I0J-172500D01*
G01*
G37*
G36*
G01*
X156460000Y-117802500D02*
X156460000Y-118197500D01*
G75*
G02*
X156287500Y-118370000I-172500J0D01*
G01*
X155942500Y-118370000D01*
G75*
G02*
X155770000Y-118197500I0J172500D01*
G01*
X155770000Y-117802500D01*
G75*
G02*
X155942500Y-117630000I172500J0D01*
G01*
X156287500Y-117630000D01*
G75*
G02*
X156460000Y-117802500I0J-172500D01*
G01*
G37*
G36*
G01*
X154802500Y-115370000D02*
X155197500Y-115370000D01*
G75*
G02*
X155370000Y-115542500I0J-172500D01*
G01*
X155370000Y-115887500D01*
G75*
G02*
X155197500Y-116060000I-172500J0D01*
G01*
X154802500Y-116060000D01*
G75*
G02*
X154630000Y-115887500I0J172500D01*
G01*
X154630000Y-115542500D01*
G75*
G02*
X154802500Y-115370000I172500J0D01*
G01*
G37*
G36*
G01*
X154802500Y-116340000D02*
X155197500Y-116340000D01*
G75*
G02*
X155370000Y-116512500I0J-172500D01*
G01*
X155370000Y-116857500D01*
G75*
G02*
X155197500Y-117030000I-172500J0D01*
G01*
X154802500Y-117030000D01*
G75*
G02*
X154630000Y-116857500I0J172500D01*
G01*
X154630000Y-116512500D01*
G75*
G02*
X154802500Y-116340000I172500J0D01*
G01*
G37*
D13*
G36*
X159160097Y-114149759D02*
G01*
X159152293Y-114148990D01*
X159142682Y-114147078D01*
X159135179Y-114144802D01*
X159126127Y-114141053D01*
X159119211Y-114137357D01*
X159111054Y-114131907D01*
X159104993Y-114126932D01*
X159098068Y-114120007D01*
X159093093Y-114113946D01*
X159087643Y-114105789D01*
X159083947Y-114098873D01*
X159080198Y-114089821D01*
X159077922Y-114082318D01*
X159076010Y-114072707D01*
X159075241Y-114064903D01*
X159075000Y-114060000D01*
X159075000Y-114036569D01*
X159075241Y-114031666D01*
X159076010Y-114023862D01*
X159077922Y-114014251D01*
X159080198Y-114006748D01*
X159083947Y-113997696D01*
X159087643Y-113990780D01*
X159093093Y-113982623D01*
X159098068Y-113976562D01*
X159101361Y-113972930D01*
X159197930Y-113876361D01*
X159201562Y-113873068D01*
X159207623Y-113868093D01*
X159215780Y-113862643D01*
X159222696Y-113858947D01*
X159231748Y-113855198D01*
X159239251Y-113852922D01*
X159248862Y-113851010D01*
X159256666Y-113850241D01*
X159261569Y-113850000D01*
X159835000Y-113850000D01*
X159839903Y-113850241D01*
X159847707Y-113851010D01*
X159857318Y-113852922D01*
X159864821Y-113855198D01*
X159873873Y-113858947D01*
X159880789Y-113862643D01*
X159888946Y-113868093D01*
X159895007Y-113873068D01*
X159901932Y-113879993D01*
X159906907Y-113886054D01*
X159912357Y-113894211D01*
X159916053Y-113901127D01*
X159919802Y-113910179D01*
X159922078Y-113917682D01*
X159923990Y-113927293D01*
X159924759Y-113935097D01*
X159925000Y-113940000D01*
X159925000Y-114060000D01*
X159924759Y-114064903D01*
X159923990Y-114072707D01*
X159922078Y-114082318D01*
X159919802Y-114089821D01*
X159916053Y-114098873D01*
X159912357Y-114105789D01*
X159906907Y-114113946D01*
X159901932Y-114120007D01*
X159895007Y-114126932D01*
X159888946Y-114131907D01*
X159880789Y-114137357D01*
X159873873Y-114141053D01*
X159864821Y-114144802D01*
X159857318Y-114147078D01*
X159847707Y-114148990D01*
X159839903Y-114149759D01*
X159835000Y-114150000D01*
X159165000Y-114150000D01*
X159160097Y-114149759D01*
G37*
G36*
G01*
X159925000Y-114325000D02*
X159925000Y-114475000D01*
G75*
G02*
X159850000Y-114550000I-75000J0D01*
G01*
X159150000Y-114550000D01*
G75*
G02*
X159075000Y-114475000I0J75000D01*
G01*
X159075000Y-114325000D01*
G75*
G02*
X159150000Y-114250000I75000J0D01*
G01*
X159850000Y-114250000D01*
G75*
G02*
X159925000Y-114325000I0J-75000D01*
G01*
G37*
G36*
G01*
X159925000Y-114725000D02*
X159925000Y-114875000D01*
G75*
G02*
X159850000Y-114950000I-75000J0D01*
G01*
X159150000Y-114950000D01*
G75*
G02*
X159075000Y-114875000I0J75000D01*
G01*
X159075000Y-114725000D01*
G75*
G02*
X159150000Y-114650000I75000J0D01*
G01*
X159850000Y-114650000D01*
G75*
G02*
X159925000Y-114725000I0J-75000D01*
G01*
G37*
G36*
G01*
X159925000Y-115125000D02*
X159925000Y-115275000D01*
G75*
G02*
X159850000Y-115350000I-75000J0D01*
G01*
X159150000Y-115350000D01*
G75*
G02*
X159075000Y-115275000I0J75000D01*
G01*
X159075000Y-115125000D01*
G75*
G02*
X159150000Y-115050000I75000J0D01*
G01*
X159850000Y-115050000D01*
G75*
G02*
X159925000Y-115125000I0J-75000D01*
G01*
G37*
G36*
G01*
X159925000Y-115525000D02*
X159925000Y-115675000D01*
G75*
G02*
X159850000Y-115750000I-75000J0D01*
G01*
X159150000Y-115750000D01*
G75*
G02*
X159075000Y-115675000I0J75000D01*
G01*
X159075000Y-115525000D01*
G75*
G02*
X159150000Y-115450000I75000J0D01*
G01*
X159850000Y-115450000D01*
G75*
G02*
X159925000Y-115525000I0J-75000D01*
G01*
G37*
G36*
X159256666Y-116149759D02*
G01*
X159248862Y-116148990D01*
X159239251Y-116147078D01*
X159231748Y-116144802D01*
X159222696Y-116141053D01*
X159215780Y-116137357D01*
X159207623Y-116131907D01*
X159201562Y-116126932D01*
X159197930Y-116123639D01*
X159101361Y-116027070D01*
X159098068Y-116023438D01*
X159093093Y-116017377D01*
X159087643Y-116009220D01*
X159083947Y-116002304D01*
X159080198Y-115993252D01*
X159077922Y-115985749D01*
X159076010Y-115976138D01*
X159075241Y-115968334D01*
X159075000Y-115963431D01*
X159075000Y-115940000D01*
X159075241Y-115935097D01*
X159076010Y-115927293D01*
X159077922Y-115917682D01*
X159080198Y-115910179D01*
X159083947Y-115901127D01*
X159087643Y-115894211D01*
X159093093Y-115886054D01*
X159098068Y-115879993D01*
X159104993Y-115873068D01*
X159111054Y-115868093D01*
X159119211Y-115862643D01*
X159126127Y-115858947D01*
X159135179Y-115855198D01*
X159142682Y-115852922D01*
X159152293Y-115851010D01*
X159160097Y-115850241D01*
X159165000Y-115850000D01*
X159835000Y-115850000D01*
X159839903Y-115850241D01*
X159847707Y-115851010D01*
X159857318Y-115852922D01*
X159864821Y-115855198D01*
X159873873Y-115858947D01*
X159880789Y-115862643D01*
X159888946Y-115868093D01*
X159895007Y-115873068D01*
X159901932Y-115879993D01*
X159906907Y-115886054D01*
X159912357Y-115894211D01*
X159916053Y-115901127D01*
X159919802Y-115910179D01*
X159922078Y-115917682D01*
X159923990Y-115927293D01*
X159924759Y-115935097D01*
X159925000Y-115940000D01*
X159925000Y-116060000D01*
X159924759Y-116064903D01*
X159923990Y-116072707D01*
X159922078Y-116082318D01*
X159919802Y-116089821D01*
X159916053Y-116098873D01*
X159912357Y-116105789D01*
X159906907Y-116113946D01*
X159901932Y-116120007D01*
X159895007Y-116126932D01*
X159888946Y-116131907D01*
X159880789Y-116137357D01*
X159873873Y-116141053D01*
X159864821Y-116144802D01*
X159857318Y-116147078D01*
X159847707Y-116148990D01*
X159839903Y-116149759D01*
X159835000Y-116150000D01*
X159261569Y-116150000D01*
X159256666Y-116149759D01*
G37*
G36*
X158935097Y-116924759D02*
G01*
X158927293Y-116923990D01*
X158917682Y-116922078D01*
X158910179Y-116919802D01*
X158901127Y-116916053D01*
X158894211Y-116912357D01*
X158886054Y-116906907D01*
X158879993Y-116901932D01*
X158873068Y-116895007D01*
X158868093Y-116888946D01*
X158862643Y-116880789D01*
X158858947Y-116873873D01*
X158855198Y-116864821D01*
X158852922Y-116857318D01*
X158851010Y-116847707D01*
X158850241Y-116839903D01*
X158850000Y-116835000D01*
X158850000Y-116165000D01*
X158850241Y-116160097D01*
X158851010Y-116152293D01*
X158852922Y-116142682D01*
X158855198Y-116135179D01*
X158858947Y-116126127D01*
X158862643Y-116119211D01*
X158868093Y-116111054D01*
X158873068Y-116104993D01*
X158879993Y-116098068D01*
X158886054Y-116093093D01*
X158894211Y-116087643D01*
X158901127Y-116083947D01*
X158910179Y-116080198D01*
X158917682Y-116077922D01*
X158927293Y-116076010D01*
X158935097Y-116075241D01*
X158940000Y-116075000D01*
X158963431Y-116075000D01*
X158968334Y-116075241D01*
X158976138Y-116076010D01*
X158985749Y-116077922D01*
X158993252Y-116080198D01*
X159002304Y-116083947D01*
X159009220Y-116087643D01*
X159017377Y-116093093D01*
X159023438Y-116098068D01*
X159027070Y-116101361D01*
X159123639Y-116197930D01*
X159126932Y-116201562D01*
X159131907Y-116207623D01*
X159137357Y-116215780D01*
X159141053Y-116222696D01*
X159144802Y-116231748D01*
X159147078Y-116239251D01*
X159148990Y-116248862D01*
X159149759Y-116256666D01*
X159150000Y-116261569D01*
X159150000Y-116835000D01*
X159149759Y-116839903D01*
X159148990Y-116847707D01*
X159147078Y-116857318D01*
X159144802Y-116864821D01*
X159141053Y-116873873D01*
X159137357Y-116880789D01*
X159131907Y-116888946D01*
X159126932Y-116895007D01*
X159120007Y-116901932D01*
X159113946Y-116906907D01*
X159105789Y-116912357D01*
X159098873Y-116916053D01*
X159089821Y-116919802D01*
X159082318Y-116922078D01*
X159072707Y-116923990D01*
X159064903Y-116924759D01*
X159060000Y-116925000D01*
X158940000Y-116925000D01*
X158935097Y-116924759D01*
G37*
G36*
G01*
X158750000Y-116150000D02*
X158750000Y-116850000D01*
G75*
G02*
X158675000Y-116925000I-75000J0D01*
G01*
X158525000Y-116925000D01*
G75*
G02*
X158450000Y-116850000I0J75000D01*
G01*
X158450000Y-116150000D01*
G75*
G02*
X158525000Y-116075000I75000J0D01*
G01*
X158675000Y-116075000D01*
G75*
G02*
X158750000Y-116150000I0J-75000D01*
G01*
G37*
G36*
G01*
X158350000Y-116150000D02*
X158350000Y-116850000D01*
G75*
G02*
X158275000Y-116925000I-75000J0D01*
G01*
X158125000Y-116925000D01*
G75*
G02*
X158050000Y-116850000I0J75000D01*
G01*
X158050000Y-116150000D01*
G75*
G02*
X158125000Y-116075000I75000J0D01*
G01*
X158275000Y-116075000D01*
G75*
G02*
X158350000Y-116150000I0J-75000D01*
G01*
G37*
G36*
G01*
X157950000Y-116150000D02*
X157950000Y-116850000D01*
G75*
G02*
X157875000Y-116925000I-75000J0D01*
G01*
X157725000Y-116925000D01*
G75*
G02*
X157650000Y-116850000I0J75000D01*
G01*
X157650000Y-116150000D01*
G75*
G02*
X157725000Y-116075000I75000J0D01*
G01*
X157875000Y-116075000D01*
G75*
G02*
X157950000Y-116150000I0J-75000D01*
G01*
G37*
G36*
G01*
X157550000Y-116150000D02*
X157550000Y-116850000D01*
G75*
G02*
X157475000Y-116925000I-75000J0D01*
G01*
X157325000Y-116925000D01*
G75*
G02*
X157250000Y-116850000I0J75000D01*
G01*
X157250000Y-116150000D01*
G75*
G02*
X157325000Y-116075000I75000J0D01*
G01*
X157475000Y-116075000D01*
G75*
G02*
X157550000Y-116150000I0J-75000D01*
G01*
G37*
G36*
X156935097Y-116924759D02*
G01*
X156927293Y-116923990D01*
X156917682Y-116922078D01*
X156910179Y-116919802D01*
X156901127Y-116916053D01*
X156894211Y-116912357D01*
X156886054Y-116906907D01*
X156879993Y-116901932D01*
X156873068Y-116895007D01*
X156868093Y-116888946D01*
X156862643Y-116880789D01*
X156858947Y-116873873D01*
X156855198Y-116864821D01*
X156852922Y-116857318D01*
X156851010Y-116847707D01*
X156850241Y-116839903D01*
X156850000Y-116835000D01*
X156850000Y-116261569D01*
X156850241Y-116256666D01*
X156851010Y-116248862D01*
X156852922Y-116239251D01*
X156855198Y-116231748D01*
X156858947Y-116222696D01*
X156862643Y-116215780D01*
X156868093Y-116207623D01*
X156873068Y-116201562D01*
X156876361Y-116197930D01*
X156972930Y-116101361D01*
X156976562Y-116098068D01*
X156982623Y-116093093D01*
X156990780Y-116087643D01*
X156997696Y-116083947D01*
X157006748Y-116080198D01*
X157014251Y-116077922D01*
X157023862Y-116076010D01*
X157031666Y-116075241D01*
X157036569Y-116075000D01*
X157060000Y-116075000D01*
X157064903Y-116075241D01*
X157072707Y-116076010D01*
X157082318Y-116077922D01*
X157089821Y-116080198D01*
X157098873Y-116083947D01*
X157105789Y-116087643D01*
X157113946Y-116093093D01*
X157120007Y-116098068D01*
X157126932Y-116104993D01*
X157131907Y-116111054D01*
X157137357Y-116119211D01*
X157141053Y-116126127D01*
X157144802Y-116135179D01*
X157147078Y-116142682D01*
X157148990Y-116152293D01*
X157149759Y-116160097D01*
X157150000Y-116165000D01*
X157150000Y-116835000D01*
X157149759Y-116839903D01*
X157148990Y-116847707D01*
X157147078Y-116857318D01*
X157144802Y-116864821D01*
X157141053Y-116873873D01*
X157137357Y-116880789D01*
X157131907Y-116888946D01*
X157126932Y-116895007D01*
X157120007Y-116901932D01*
X157113946Y-116906907D01*
X157105789Y-116912357D01*
X157098873Y-116916053D01*
X157089821Y-116919802D01*
X157082318Y-116922078D01*
X157072707Y-116923990D01*
X157064903Y-116924759D01*
X157060000Y-116925000D01*
X156940000Y-116925000D01*
X156935097Y-116924759D01*
G37*
G36*
X156160097Y-116149759D02*
G01*
X156152293Y-116148990D01*
X156142682Y-116147078D01*
X156135179Y-116144802D01*
X156126127Y-116141053D01*
X156119211Y-116137357D01*
X156111054Y-116131907D01*
X156104993Y-116126932D01*
X156098068Y-116120007D01*
X156093093Y-116113946D01*
X156087643Y-116105789D01*
X156083947Y-116098873D01*
X156080198Y-116089821D01*
X156077922Y-116082318D01*
X156076010Y-116072707D01*
X156075241Y-116064903D01*
X156075000Y-116060000D01*
X156075000Y-115940000D01*
X156075241Y-115935097D01*
X156076010Y-115927293D01*
X156077922Y-115917682D01*
X156080198Y-115910179D01*
X156083947Y-115901127D01*
X156087643Y-115894211D01*
X156093093Y-115886054D01*
X156098068Y-115879993D01*
X156104993Y-115873068D01*
X156111054Y-115868093D01*
X156119211Y-115862643D01*
X156126127Y-115858947D01*
X156135179Y-115855198D01*
X156142682Y-115852922D01*
X156152293Y-115851010D01*
X156160097Y-115850241D01*
X156165000Y-115850000D01*
X156835000Y-115850000D01*
X156839903Y-115850241D01*
X156847707Y-115851010D01*
X156857318Y-115852922D01*
X156864821Y-115855198D01*
X156873873Y-115858947D01*
X156880789Y-115862643D01*
X156888946Y-115868093D01*
X156895007Y-115873068D01*
X156901932Y-115879993D01*
X156906907Y-115886054D01*
X156912357Y-115894211D01*
X156916053Y-115901127D01*
X156919802Y-115910179D01*
X156922078Y-115917682D01*
X156923990Y-115927293D01*
X156924759Y-115935097D01*
X156925000Y-115940000D01*
X156925000Y-115963431D01*
X156924759Y-115968334D01*
X156923990Y-115976138D01*
X156922078Y-115985749D01*
X156919802Y-115993252D01*
X156916053Y-116002304D01*
X156912357Y-116009220D01*
X156906907Y-116017377D01*
X156901932Y-116023438D01*
X156898639Y-116027070D01*
X156802070Y-116123639D01*
X156798438Y-116126932D01*
X156792377Y-116131907D01*
X156784220Y-116137357D01*
X156777304Y-116141053D01*
X156768252Y-116144802D01*
X156760749Y-116147078D01*
X156751138Y-116148990D01*
X156743334Y-116149759D01*
X156738431Y-116150000D01*
X156165000Y-116150000D01*
X156160097Y-116149759D01*
G37*
G36*
G01*
X156925000Y-115525000D02*
X156925000Y-115675000D01*
G75*
G02*
X156850000Y-115750000I-75000J0D01*
G01*
X156150000Y-115750000D01*
G75*
G02*
X156075000Y-115675000I0J75000D01*
G01*
X156075000Y-115525000D01*
G75*
G02*
X156150000Y-115450000I75000J0D01*
G01*
X156850000Y-115450000D01*
G75*
G02*
X156925000Y-115525000I0J-75000D01*
G01*
G37*
G36*
G01*
X156925000Y-115125000D02*
X156925000Y-115275000D01*
G75*
G02*
X156850000Y-115350000I-75000J0D01*
G01*
X156150000Y-115350000D01*
G75*
G02*
X156075000Y-115275000I0J75000D01*
G01*
X156075000Y-115125000D01*
G75*
G02*
X156150000Y-115050000I75000J0D01*
G01*
X156850000Y-115050000D01*
G75*
G02*
X156925000Y-115125000I0J-75000D01*
G01*
G37*
G36*
G01*
X156925000Y-114725000D02*
X156925000Y-114875000D01*
G75*
G02*
X156850000Y-114950000I-75000J0D01*
G01*
X156150000Y-114950000D01*
G75*
G02*
X156075000Y-114875000I0J75000D01*
G01*
X156075000Y-114725000D01*
G75*
G02*
X156150000Y-114650000I75000J0D01*
G01*
X156850000Y-114650000D01*
G75*
G02*
X156925000Y-114725000I0J-75000D01*
G01*
G37*
G36*
G01*
X156925000Y-114325000D02*
X156925000Y-114475000D01*
G75*
G02*
X156850000Y-114550000I-75000J0D01*
G01*
X156150000Y-114550000D01*
G75*
G02*
X156075000Y-114475000I0J75000D01*
G01*
X156075000Y-114325000D01*
G75*
G02*
X156150000Y-114250000I75000J0D01*
G01*
X156850000Y-114250000D01*
G75*
G02*
X156925000Y-114325000I0J-75000D01*
G01*
G37*
G36*
X156160097Y-114149759D02*
G01*
X156152293Y-114148990D01*
X156142682Y-114147078D01*
X156135179Y-114144802D01*
X156126127Y-114141053D01*
X156119211Y-114137357D01*
X156111054Y-114131907D01*
X156104993Y-114126932D01*
X156098068Y-114120007D01*
X156093093Y-114113946D01*
X156087643Y-114105789D01*
X156083947Y-114098873D01*
X156080198Y-114089821D01*
X156077922Y-114082318D01*
X156076010Y-114072707D01*
X156075241Y-114064903D01*
X156075000Y-114060000D01*
X156075000Y-113940000D01*
X156075241Y-113935097D01*
X156076010Y-113927293D01*
X156077922Y-113917682D01*
X156080198Y-113910179D01*
X156083947Y-113901127D01*
X156087643Y-113894211D01*
X156093093Y-113886054D01*
X156098068Y-113879993D01*
X156104993Y-113873068D01*
X156111054Y-113868093D01*
X156119211Y-113862643D01*
X156126127Y-113858947D01*
X156135179Y-113855198D01*
X156142682Y-113852922D01*
X156152293Y-113851010D01*
X156160097Y-113850241D01*
X156165000Y-113850000D01*
X156738431Y-113850000D01*
X156743334Y-113850241D01*
X156751138Y-113851010D01*
X156760749Y-113852922D01*
X156768252Y-113855198D01*
X156777304Y-113858947D01*
X156784220Y-113862643D01*
X156792377Y-113868093D01*
X156798438Y-113873068D01*
X156802070Y-113876361D01*
X156898639Y-113972930D01*
X156901932Y-113976562D01*
X156906907Y-113982623D01*
X156912357Y-113990780D01*
X156916053Y-113997696D01*
X156919802Y-114006748D01*
X156922078Y-114014251D01*
X156923990Y-114023862D01*
X156924759Y-114031666D01*
X156925000Y-114036569D01*
X156925000Y-114060000D01*
X156924759Y-114064903D01*
X156923990Y-114072707D01*
X156922078Y-114082318D01*
X156919802Y-114089821D01*
X156916053Y-114098873D01*
X156912357Y-114105789D01*
X156906907Y-114113946D01*
X156901932Y-114120007D01*
X156895007Y-114126932D01*
X156888946Y-114131907D01*
X156880789Y-114137357D01*
X156873873Y-114141053D01*
X156864821Y-114144802D01*
X156857318Y-114147078D01*
X156847707Y-114148990D01*
X156839903Y-114149759D01*
X156835000Y-114150000D01*
X156165000Y-114150000D01*
X156160097Y-114149759D01*
G37*
G36*
X157031666Y-113924759D02*
G01*
X157023862Y-113923990D01*
X157014251Y-113922078D01*
X157006748Y-113919802D01*
X156997696Y-113916053D01*
X156990780Y-113912357D01*
X156982623Y-113906907D01*
X156976562Y-113901932D01*
X156972930Y-113898639D01*
X156876361Y-113802070D01*
X156873068Y-113798438D01*
X156868093Y-113792377D01*
X156862643Y-113784220D01*
X156858947Y-113777304D01*
X156855198Y-113768252D01*
X156852922Y-113760749D01*
X156851010Y-113751138D01*
X156850241Y-113743334D01*
X156850000Y-113738431D01*
X156850000Y-113165000D01*
X156850241Y-113160097D01*
X156851010Y-113152293D01*
X156852922Y-113142682D01*
X156855198Y-113135179D01*
X156858947Y-113126127D01*
X156862643Y-113119211D01*
X156868093Y-113111054D01*
X156873068Y-113104993D01*
X156879993Y-113098068D01*
X156886054Y-113093093D01*
X156894211Y-113087643D01*
X156901127Y-113083947D01*
X156910179Y-113080198D01*
X156917682Y-113077922D01*
X156927293Y-113076010D01*
X156935097Y-113075241D01*
X156940000Y-113075000D01*
X157060000Y-113075000D01*
X157064903Y-113075241D01*
X157072707Y-113076010D01*
X157082318Y-113077922D01*
X157089821Y-113080198D01*
X157098873Y-113083947D01*
X157105789Y-113087643D01*
X157113946Y-113093093D01*
X157120007Y-113098068D01*
X157126932Y-113104993D01*
X157131907Y-113111054D01*
X157137357Y-113119211D01*
X157141053Y-113126127D01*
X157144802Y-113135179D01*
X157147078Y-113142682D01*
X157148990Y-113152293D01*
X157149759Y-113160097D01*
X157150000Y-113165000D01*
X157150000Y-113835000D01*
X157149759Y-113839903D01*
X157148990Y-113847707D01*
X157147078Y-113857318D01*
X157144802Y-113864821D01*
X157141053Y-113873873D01*
X157137357Y-113880789D01*
X157131907Y-113888946D01*
X157126932Y-113895007D01*
X157120007Y-113901932D01*
X157113946Y-113906907D01*
X157105789Y-113912357D01*
X157098873Y-113916053D01*
X157089821Y-113919802D01*
X157082318Y-113922078D01*
X157072707Y-113923990D01*
X157064903Y-113924759D01*
X157060000Y-113925000D01*
X157036569Y-113925000D01*
X157031666Y-113924759D01*
G37*
G36*
G01*
X157550000Y-113150000D02*
X157550000Y-113850000D01*
G75*
G02*
X157475000Y-113925000I-75000J0D01*
G01*
X157325000Y-113925000D01*
G75*
G02*
X157250000Y-113850000I0J75000D01*
G01*
X157250000Y-113150000D01*
G75*
G02*
X157325000Y-113075000I75000J0D01*
G01*
X157475000Y-113075000D01*
G75*
G02*
X157550000Y-113150000I0J-75000D01*
G01*
G37*
G36*
G01*
X157950000Y-113150000D02*
X157950000Y-113850000D01*
G75*
G02*
X157875000Y-113925000I-75000J0D01*
G01*
X157725000Y-113925000D01*
G75*
G02*
X157650000Y-113850000I0J75000D01*
G01*
X157650000Y-113150000D01*
G75*
G02*
X157725000Y-113075000I75000J0D01*
G01*
X157875000Y-113075000D01*
G75*
G02*
X157950000Y-113150000I0J-75000D01*
G01*
G37*
G36*
G01*
X158350000Y-113150000D02*
X158350000Y-113850000D01*
G75*
G02*
X158275000Y-113925000I-75000J0D01*
G01*
X158125000Y-113925000D01*
G75*
G02*
X158050000Y-113850000I0J75000D01*
G01*
X158050000Y-113150000D01*
G75*
G02*
X158125000Y-113075000I75000J0D01*
G01*
X158275000Y-113075000D01*
G75*
G02*
X158350000Y-113150000I0J-75000D01*
G01*
G37*
G36*
G01*
X158750000Y-113150000D02*
X158750000Y-113850000D01*
G75*
G02*
X158675000Y-113925000I-75000J0D01*
G01*
X158525000Y-113925000D01*
G75*
G02*
X158450000Y-113850000I0J75000D01*
G01*
X158450000Y-113150000D01*
G75*
G02*
X158525000Y-113075000I75000J0D01*
G01*
X158675000Y-113075000D01*
G75*
G02*
X158750000Y-113150000I0J-75000D01*
G01*
G37*
G36*
X158935097Y-113924759D02*
G01*
X158927293Y-113923990D01*
X158917682Y-113922078D01*
X158910179Y-113919802D01*
X158901127Y-113916053D01*
X158894211Y-113912357D01*
X158886054Y-113906907D01*
X158879993Y-113901932D01*
X158873068Y-113895007D01*
X158868093Y-113888946D01*
X158862643Y-113880789D01*
X158858947Y-113873873D01*
X158855198Y-113864821D01*
X158852922Y-113857318D01*
X158851010Y-113847707D01*
X158850241Y-113839903D01*
X158850000Y-113835000D01*
X158850000Y-113165000D01*
X158850241Y-113160097D01*
X158851010Y-113152293D01*
X158852922Y-113142682D01*
X158855198Y-113135179D01*
X158858947Y-113126127D01*
X158862643Y-113119211D01*
X158868093Y-113111054D01*
X158873068Y-113104993D01*
X158879993Y-113098068D01*
X158886054Y-113093093D01*
X158894211Y-113087643D01*
X158901127Y-113083947D01*
X158910179Y-113080198D01*
X158917682Y-113077922D01*
X158927293Y-113076010D01*
X158935097Y-113075241D01*
X158940000Y-113075000D01*
X159060000Y-113075000D01*
X159064903Y-113075241D01*
X159072707Y-113076010D01*
X159082318Y-113077922D01*
X159089821Y-113080198D01*
X159098873Y-113083947D01*
X159105789Y-113087643D01*
X159113946Y-113093093D01*
X159120007Y-113098068D01*
X159126932Y-113104993D01*
X159131907Y-113111054D01*
X159137357Y-113119211D01*
X159141053Y-113126127D01*
X159144802Y-113135179D01*
X159147078Y-113142682D01*
X159148990Y-113152293D01*
X159149759Y-113160097D01*
X159150000Y-113165000D01*
X159150000Y-113738431D01*
X159149759Y-113743334D01*
X159148990Y-113751138D01*
X159147078Y-113760749D01*
X159144802Y-113768252D01*
X159141053Y-113777304D01*
X159137357Y-113784220D01*
X159131907Y-113792377D01*
X159126932Y-113798438D01*
X159123639Y-113802070D01*
X159027070Y-113898639D01*
X159023438Y-113901932D01*
X159017377Y-113906907D01*
X159009220Y-113912357D01*
X159002304Y-113916053D01*
X158993252Y-113919802D01*
X158985749Y-113922078D01*
X158976138Y-113923990D01*
X158968334Y-113924759D01*
X158963431Y-113925000D01*
X158940000Y-113925000D01*
X158935097Y-113924759D01*
G37*
G36*
G01*
X158925000Y-114200000D02*
X158925000Y-115800000D01*
G75*
G02*
X158875000Y-115850000I-50000J0D01*
G01*
X157125000Y-115850000D01*
G75*
G02*
X157075000Y-115800000I0J50000D01*
G01*
X157075000Y-114200000D01*
G75*
G02*
X157125000Y-114150000I50000J0D01*
G01*
X158875000Y-114150000D01*
G75*
G02*
X158925000Y-114200000I0J-50000D01*
G01*
G37*
D12*
X178460000Y-124000000D03*
G36*
G01*
X181850000Y-124900000D02*
X180150000Y-124900000D01*
G75*
G02*
X180100000Y-124850000I0J50000D01*
G01*
X180100000Y-123150000D01*
G75*
G02*
X180150000Y-123100000I50000J0D01*
G01*
X181850000Y-123100000D01*
G75*
G02*
X181900000Y-123150000I0J-50000D01*
G01*
X181900000Y-124850000D01*
G75*
G02*
X181850000Y-124900000I-50000J0D01*
G01*
G37*
G36*
G01*
X162704423Y-130213878D02*
X161854423Y-131686122D01*
G75*
G02*
X161786122Y-131704423I-43301J25000D01*
G01*
X160313878Y-130854423D01*
G75*
G02*
X160295577Y-130786122I25000J43301D01*
G01*
X161145577Y-129313878D01*
G75*
G02*
X161213878Y-129295577I43301J-25000D01*
G01*
X162686122Y-130145577D01*
G75*
G02*
X162704423Y-130213878I-25000J-43301D01*
G01*
G37*
G36*
G01*
X161009423Y-133149705D02*
X161009423Y-133149705D01*
G75*
G02*
X159780000Y-133479128I-779423J450000D01*
G01*
X159780000Y-133479128D01*
G75*
G02*
X159450577Y-132249705I450000J779423D01*
G01*
X159450577Y-132249705D01*
G75*
G02*
X160680000Y-131920282I779423J-450000D01*
G01*
X160680000Y-131920282D01*
G75*
G02*
X161009423Y-133149705I-450000J-779423D01*
G01*
G37*
G36*
G01*
X156549423Y-132249705D02*
X156549423Y-132249705D01*
G75*
G02*
X156220000Y-133479128I-779423J-450000D01*
G01*
X156220000Y-133479128D01*
G75*
G02*
X154990577Y-133149705I-450000J779423D01*
G01*
X154990577Y-133149705D01*
G75*
G02*
X155320000Y-131920282I779423J450000D01*
G01*
X155320000Y-131920282D01*
G75*
G02*
X156549423Y-132249705I450000J-779423D01*
G01*
G37*
G36*
G01*
X154854423Y-129313878D02*
X155704423Y-130786122D01*
G75*
G02*
X155686122Y-130854423I-43301J-25000D01*
G01*
X154213878Y-131704423D01*
G75*
G02*
X154145577Y-131686122I-25000J43301D01*
G01*
X153295577Y-130213878D01*
G75*
G02*
X153313878Y-130145577I43301J25000D01*
G01*
X154786122Y-129295577D01*
G75*
G02*
X154854423Y-129313878I25000J-43301D01*
G01*
G37*
G36*
G01*
X134150000Y-123100000D02*
X135850000Y-123100000D01*
G75*
G02*
X135900000Y-123150000I0J-50000D01*
G01*
X135900000Y-124850000D01*
G75*
G02*
X135850000Y-124900000I-50000J0D01*
G01*
X134150000Y-124900000D01*
G75*
G02*
X134100000Y-124850000I0J50000D01*
G01*
X134100000Y-123150000D01*
G75*
G02*
X134150000Y-123100000I50000J0D01*
G01*
G37*
X137540000Y-124000000D03*
G36*
G01*
X181850000Y-127900000D02*
X180150000Y-127900000D01*
G75*
G02*
X180100000Y-127850000I0J50000D01*
G01*
X180100000Y-126150000D01*
G75*
G02*
X180150000Y-126100000I50000J0D01*
G01*
X181850000Y-126100000D01*
G75*
G02*
X181900000Y-126150000I0J-50000D01*
G01*
X181900000Y-127850000D01*
G75*
G02*
X181850000Y-127900000I-50000J0D01*
G01*
G37*
X178460000Y-127000000D03*
G36*
G01*
X163509423Y-134649705D02*
X163509423Y-134649705D01*
G75*
G02*
X162280000Y-134979128I-779423J450000D01*
G01*
X162280000Y-134979128D01*
G75*
G02*
X161950577Y-133749705I450000J779423D01*
G01*
X161950577Y-133749705D01*
G75*
G02*
X163180000Y-133420282I779423J-450000D01*
G01*
X163180000Y-133420282D01*
G75*
G02*
X163509423Y-134649705I-450000J-779423D01*
G01*
G37*
G36*
G01*
X165204423Y-131713878D02*
X164354423Y-133186122D01*
G75*
G02*
X164286122Y-133204423I-43301J25000D01*
G01*
X162813878Y-132354423D01*
G75*
G02*
X162795577Y-132286122I25000J43301D01*
G01*
X163645577Y-130813878D01*
G75*
G02*
X163713878Y-130795577I43301J-25000D01*
G01*
X165186122Y-131645577D01*
G75*
G02*
X165204423Y-131713878I-25000J-43301D01*
G01*
G37*
G36*
G01*
X152354423Y-130813878D02*
X153204423Y-132286122D01*
G75*
G02*
X153186122Y-132354423I-43301J-25000D01*
G01*
X151713878Y-133204423D01*
G75*
G02*
X151645577Y-133186122I-25000J43301D01*
G01*
X150795577Y-131713878D01*
G75*
G02*
X150813878Y-131645577I43301J25000D01*
G01*
X152286122Y-130795577D01*
G75*
G02*
X152354423Y-130813878I25000J-43301D01*
G01*
G37*
G36*
G01*
X154049423Y-133749705D02*
X154049423Y-133749705D01*
G75*
G02*
X153720000Y-134979128I-779423J-450000D01*
G01*
X153720000Y-134979128D01*
G75*
G02*
X152490577Y-134649705I-450000J779423D01*
G01*
X152490577Y-134649705D01*
G75*
G02*
X152820000Y-133420282I779423J450000D01*
G01*
X152820000Y-133420282D01*
G75*
G02*
X154049423Y-133749705I450000J-779423D01*
G01*
G37*
X137540000Y-127000000D03*
G36*
G01*
X134150000Y-126100000D02*
X135850000Y-126100000D01*
G75*
G02*
X135900000Y-126150000I0J-50000D01*
G01*
X135900000Y-127850000D01*
G75*
G02*
X135850000Y-127900000I-50000J0D01*
G01*
X134150000Y-127900000D01*
G75*
G02*
X134100000Y-127850000I0J50000D01*
G01*
X134100000Y-126150000D01*
G75*
G02*
X134150000Y-126100000I50000J0D01*
G01*
G37*
G36*
G01*
X117710000Y-116081250D02*
X117710000Y-115518750D01*
G75*
G02*
X117953750Y-115275000I243750J0D01*
G01*
X118441250Y-115275000D01*
G75*
G02*
X118685000Y-115518750I0J-243750D01*
G01*
X118685000Y-116081250D01*
G75*
G02*
X118441250Y-116325000I-243750J0D01*
G01*
X117953750Y-116325000D01*
G75*
G02*
X117710000Y-116081250I0J243750D01*
G01*
G37*
G36*
G01*
X119285000Y-116081250D02*
X119285000Y-115518750D01*
G75*
G02*
X119528750Y-115275000I243750J0D01*
G01*
X120016250Y-115275000D01*
G75*
G02*
X120260000Y-115518750I0J-243750D01*
G01*
X120260000Y-116081250D01*
G75*
G02*
X120016250Y-116325000I-243750J0D01*
G01*
X119528750Y-116325000D01*
G75*
G02*
X119285000Y-116081250I0J243750D01*
G01*
G37*
G36*
G01*
X119300000Y-114481250D02*
X119300000Y-113918750D01*
G75*
G02*
X119543750Y-113675000I243750J0D01*
G01*
X120031250Y-113675000D01*
G75*
G02*
X120275000Y-113918750I0J-243750D01*
G01*
X120275000Y-114481250D01*
G75*
G02*
X120031250Y-114725000I-243750J0D01*
G01*
X119543750Y-114725000D01*
G75*
G02*
X119300000Y-114481250I0J243750D01*
G01*
G37*
G36*
G01*
X117725000Y-114481250D02*
X117725000Y-113918750D01*
G75*
G02*
X117968750Y-113675000I243750J0D01*
G01*
X118456250Y-113675000D01*
G75*
G02*
X118700000Y-113918750I0J-243750D01*
G01*
X118700000Y-114481250D01*
G75*
G02*
X118456250Y-114725000I-243750J0D01*
G01*
X117968750Y-114725000D01*
G75*
G02*
X117725000Y-114481250I0J243750D01*
G01*
G37*
G36*
G01*
X122825000Y-108481250D02*
X122825000Y-107518750D01*
G75*
G02*
X123093750Y-107250000I268750J0D01*
G01*
X123631250Y-107250000D01*
G75*
G02*
X123900000Y-107518750I0J-268750D01*
G01*
X123900000Y-108481250D01*
G75*
G02*
X123631250Y-108750000I-268750J0D01*
G01*
X123093750Y-108750000D01*
G75*
G02*
X122825000Y-108481250I0J268750D01*
G01*
G37*
G36*
G01*
X124700000Y-108481250D02*
X124700000Y-107518750D01*
G75*
G02*
X124968750Y-107250000I268750J0D01*
G01*
X125506250Y-107250000D01*
G75*
G02*
X125775000Y-107518750I0J-268750D01*
G01*
X125775000Y-108481250D01*
G75*
G02*
X125506250Y-108750000I-268750J0D01*
G01*
X124968750Y-108750000D01*
G75*
G02*
X124700000Y-108481250I0J268750D01*
G01*
G37*
G36*
G01*
X124700000Y-110381250D02*
X124700000Y-109418750D01*
G75*
G02*
X124968750Y-109150000I268750J0D01*
G01*
X125506250Y-109150000D01*
G75*
G02*
X125775000Y-109418750I0J-268750D01*
G01*
X125775000Y-110381250D01*
G75*
G02*
X125506250Y-110650000I-268750J0D01*
G01*
X124968750Y-110650000D01*
G75*
G02*
X124700000Y-110381250I0J268750D01*
G01*
G37*
G36*
G01*
X122825000Y-110381250D02*
X122825000Y-109418750D01*
G75*
G02*
X123093750Y-109150000I268750J0D01*
G01*
X123631250Y-109150000D01*
G75*
G02*
X123900000Y-109418750I0J-268750D01*
G01*
X123900000Y-110381250D01*
G75*
G02*
X123631250Y-110650000I-268750J0D01*
G01*
X123093750Y-110650000D01*
G75*
G02*
X122825000Y-110381250I0J268750D01*
G01*
G37*
G36*
G01*
X122825000Y-112381250D02*
X122825000Y-111418750D01*
G75*
G02*
X123093750Y-111150000I268750J0D01*
G01*
X123631250Y-111150000D01*
G75*
G02*
X123900000Y-111418750I0J-268750D01*
G01*
X123900000Y-112381250D01*
G75*
G02*
X123631250Y-112650000I-268750J0D01*
G01*
X123093750Y-112650000D01*
G75*
G02*
X122825000Y-112381250I0J268750D01*
G01*
G37*
G36*
G01*
X124700000Y-112381250D02*
X124700000Y-111418750D01*
G75*
G02*
X124968750Y-111150000I268750J0D01*
G01*
X125506250Y-111150000D01*
G75*
G02*
X125775000Y-111418750I0J-268750D01*
G01*
X125775000Y-112381250D01*
G75*
G02*
X125506250Y-112650000I-268750J0D01*
G01*
X124968750Y-112650000D01*
G75*
G02*
X124700000Y-112381250I0J268750D01*
G01*
G37*
G36*
G01*
X117845000Y-96825000D02*
X119155000Y-96825000D01*
G75*
G02*
X119425000Y-97095000I0J-270000D01*
G01*
X119425000Y-97905000D01*
G75*
G02*
X119155000Y-98175000I-270000J0D01*
G01*
X117845000Y-98175000D01*
G75*
G02*
X117575000Y-97905000I0J270000D01*
G01*
X117575000Y-97095000D01*
G75*
G02*
X117845000Y-96825000I270000J0D01*
G01*
G37*
G36*
G01*
X117845000Y-99625000D02*
X119155000Y-99625000D01*
G75*
G02*
X119425000Y-99895000I0J-270000D01*
G01*
X119425000Y-100705000D01*
G75*
G02*
X119155000Y-100975000I-270000J0D01*
G01*
X117845000Y-100975000D01*
G75*
G02*
X117575000Y-100705000I0J270000D01*
G01*
X117575000Y-99895000D01*
G75*
G02*
X117845000Y-99625000I270000J0D01*
G01*
G37*
G36*
G01*
X123900000Y-118550000D02*
X125700000Y-118550000D01*
G75*
G02*
X125750000Y-118600000I0J-50000D01*
G01*
X125750000Y-120400000D01*
G75*
G02*
X125700000Y-120450000I-50000J0D01*
G01*
X123900000Y-120450000D01*
G75*
G02*
X123850000Y-120400000I0J50000D01*
G01*
X123850000Y-118600000D01*
G75*
G02*
X123900000Y-118550000I50000J0D01*
G01*
G37*
D14*
X124800000Y-122040000D03*
G36*
G01*
X173850000Y-130537500D02*
X173850000Y-131062500D01*
G75*
G02*
X173587500Y-131325000I-262500J0D01*
G01*
X172962500Y-131325000D01*
G75*
G02*
X172700000Y-131062500I0J262500D01*
G01*
X172700000Y-130537500D01*
G75*
G02*
X172962500Y-130275000I262500J0D01*
G01*
X173587500Y-130275000D01*
G75*
G02*
X173850000Y-130537500I0J-262500D01*
G01*
G37*
G36*
G01*
X172100000Y-130537500D02*
X172100000Y-131062500D01*
G75*
G02*
X171837500Y-131325000I-262500J0D01*
G01*
X171212500Y-131325000D01*
G75*
G02*
X170950000Y-131062500I0J262500D01*
G01*
X170950000Y-130537500D01*
G75*
G02*
X171212500Y-130275000I262500J0D01*
G01*
X171837500Y-130275000D01*
G75*
G02*
X172100000Y-130537500I0J-262500D01*
G01*
G37*
D15*
X177000000Y-98400000D03*
X177000000Y-100900000D03*
X177000000Y-103400000D03*
X177000000Y-105900000D03*
X177000000Y-108400000D03*
G36*
G01*
X177760295Y-111800000D02*
X176239705Y-111800000D01*
G75*
G02*
X175975000Y-111535295I0J264705D01*
G01*
X175975000Y-110264705D01*
G75*
G02*
X176239705Y-110000000I264705J0D01*
G01*
X177760295Y-110000000D01*
G75*
G02*
X178025000Y-110264705I0J-264705D01*
G01*
X178025000Y-111535295D01*
G75*
G02*
X177760295Y-111800000I-264705J0D01*
G01*
G37*
G36*
G01*
X169387868Y-107482843D02*
X169564645Y-107306066D01*
G75*
G02*
X169635355Y-107306066I35355J-35355D01*
G01*
X169918198Y-107588909D01*
G75*
G02*
X169918198Y-107659619I-35355J-35355D01*
G01*
X169741421Y-107836396D01*
G75*
G02*
X169670711Y-107836396I-35355J35355D01*
G01*
X169387868Y-107553553D01*
G75*
G02*
X169387868Y-107482843I35355J35355D01*
G01*
G37*
G36*
G01*
X169706066Y-107164645D02*
X169882843Y-106987868D01*
G75*
G02*
X169953553Y-106987868I35355J-35355D01*
G01*
X170236396Y-107270711D01*
G75*
G02*
X170236396Y-107341421I-35355J-35355D01*
G01*
X170059619Y-107518198D01*
G75*
G02*
X169988909Y-107518198I-35355J35355D01*
G01*
X169706066Y-107235355D01*
G75*
G02*
X169706066Y-107164645I35355J35355D01*
G01*
G37*
G36*
G01*
X169281802Y-106740381D02*
X169458579Y-106563604D01*
G75*
G02*
X169529289Y-106563604I35355J-35355D01*
G01*
X169812132Y-106846447D01*
G75*
G02*
X169812132Y-106917157I-35355J-35355D01*
G01*
X169635355Y-107093934D01*
G75*
G02*
X169564645Y-107093934I-35355J35355D01*
G01*
X169281802Y-106811091D01*
G75*
G02*
X169281802Y-106740381I35355J35355D01*
G01*
G37*
G36*
G01*
X168963604Y-107058579D02*
X169140381Y-106881802D01*
G75*
G02*
X169211091Y-106881802I35355J-35355D01*
G01*
X169493934Y-107164645D01*
G75*
G02*
X169493934Y-107235355I-35355J-35355D01*
G01*
X169317157Y-107412132D01*
G75*
G02*
X169246447Y-107412132I-35355J35355D01*
G01*
X168963604Y-107129289D01*
G75*
G02*
X168963604Y-107058579I35355J35355D01*
G01*
G37*
G36*
G01*
X169116673Y-106260104D02*
X168939896Y-106083327D01*
G75*
G02*
X168939896Y-105906551I88388J88388D01*
G01*
X169159099Y-105687348D01*
G75*
G02*
X169335875Y-105687348I88388J-88388D01*
G01*
X169512652Y-105864125D01*
G75*
G02*
X169512652Y-106040901I-88388J-88388D01*
G01*
X169293449Y-106260104D01*
G75*
G02*
X169116673Y-106260104I-88388J88388D01*
G01*
G37*
G36*
G01*
X168664125Y-106712652D02*
X168487348Y-106535875D01*
G75*
G02*
X168487348Y-106359099I88388J88388D01*
G01*
X168706551Y-106139896D01*
G75*
G02*
X168883327Y-106139896I88388J-88388D01*
G01*
X169060104Y-106316673D01*
G75*
G02*
X169060104Y-106493449I-88388J-88388D01*
G01*
X168840901Y-106712652D01*
G75*
G02*
X168664125Y-106712652I-88388J88388D01*
G01*
G37*
G36*
G01*
X168087348Y-107464125D02*
X168264125Y-107287348D01*
G75*
G02*
X168440901Y-107287348I88388J-88388D01*
G01*
X168660104Y-107506551D01*
G75*
G02*
X168660104Y-107683327I-88388J-88388D01*
G01*
X168483327Y-107860104D01*
G75*
G02*
X168306551Y-107860104I-88388J88388D01*
G01*
X168087348Y-107640901D01*
G75*
G02*
X168087348Y-107464125I88388J88388D01*
G01*
G37*
G36*
G01*
X168539896Y-107916673D02*
X168716673Y-107739896D01*
G75*
G02*
X168893449Y-107739896I88388J-88388D01*
G01*
X169112652Y-107959099D01*
G75*
G02*
X169112652Y-108135875I-88388J-88388D01*
G01*
X168935875Y-108312652D01*
G75*
G02*
X168759099Y-108312652I-88388J88388D01*
G01*
X168539896Y-108093449D01*
G75*
G02*
X168539896Y-107916673I88388J88388D01*
G01*
G37*
G36*
G01*
X162325000Y-118481250D02*
X162325000Y-117918750D01*
G75*
G02*
X162568750Y-117675000I243750J0D01*
G01*
X163056250Y-117675000D01*
G75*
G02*
X163300000Y-117918750I0J-243750D01*
G01*
X163300000Y-118481250D01*
G75*
G02*
X163056250Y-118725000I-243750J0D01*
G01*
X162568750Y-118725000D01*
G75*
G02*
X162325000Y-118481250I0J243750D01*
G01*
G37*
G36*
G01*
X163900000Y-118481250D02*
X163900000Y-117918750D01*
G75*
G02*
X164143750Y-117675000I243750J0D01*
G01*
X164631250Y-117675000D01*
G75*
G02*
X164875000Y-117918750I0J-243750D01*
G01*
X164875000Y-118481250D01*
G75*
G02*
X164631250Y-118725000I-243750J0D01*
G01*
X164143750Y-118725000D01*
G75*
G02*
X163900000Y-118481250I0J243750D01*
G01*
G37*
G36*
G01*
X124950000Y-126200000D02*
X127450000Y-126200000D01*
G75*
G02*
X127500000Y-126250000I0J-50000D01*
G01*
X127500000Y-127750000D01*
G75*
G02*
X127450000Y-127800000I-50000J0D01*
G01*
X124950000Y-127800000D01*
G75*
G02*
X124900000Y-127750000I0J50000D01*
G01*
X124900000Y-126250000D01*
G75*
G02*
X124950000Y-126200000I50000J0D01*
G01*
G37*
D16*
X126200000Y-129000000D03*
X126200000Y-131000000D03*
D17*
X126200000Y-124900000D03*
X126200000Y-133100000D03*
D18*
X138290000Y-104760000D03*
D19*
X135800000Y-103500000D03*
X135800000Y-99000000D03*
D18*
X138290000Y-97750000D03*
G36*
G01*
X146400000Y-120650000D02*
X146400000Y-122350000D01*
G75*
G02*
X146350000Y-122400000I-50000J0D01*
G01*
X144650000Y-122400000D01*
G75*
G02*
X144600000Y-122350000I0J50000D01*
G01*
X144600000Y-120650000D01*
G75*
G02*
X144650000Y-120600000I50000J0D01*
G01*
X146350000Y-120600000D01*
G75*
G02*
X146400000Y-120650000I0J-50000D01*
G01*
G37*
D12*
X145500000Y-118960000D03*
X145500000Y-116420000D03*
X180680000Y-115700000D03*
X178140000Y-115700000D03*
G36*
G01*
X176450000Y-116600000D02*
X174750000Y-116600000D01*
G75*
G02*
X174700000Y-116550000I0J50000D01*
G01*
X174700000Y-114850000D01*
G75*
G02*
X174750000Y-114800000I50000J0D01*
G01*
X176450000Y-114800000D01*
G75*
G02*
X176500000Y-114850000I0J-50000D01*
G01*
X176500000Y-116550000D01*
G75*
G02*
X176450000Y-116600000I-50000J0D01*
G01*
G37*
G36*
G01*
X121150000Y-123845832D02*
X121150000Y-125154168D01*
G75*
G02*
X120879168Y-125425000I-270832J0D01*
G01*
X120120832Y-125425000D01*
G75*
G02*
X119850000Y-125154168I0J270832D01*
G01*
X119850000Y-123845832D01*
G75*
G02*
X120120832Y-123575000I270832J0D01*
G01*
X120879168Y-123575000D01*
G75*
G02*
X121150000Y-123845832I0J-270832D01*
G01*
G37*
D20*
X118500000Y-124500000D03*
D12*
X92500000Y-116420000D03*
X92500000Y-118960000D03*
G36*
G01*
X91600000Y-122350000D02*
X91600000Y-120650000D01*
G75*
G02*
X91650000Y-120600000I50000J0D01*
G01*
X93350000Y-120600000D01*
G75*
G02*
X93400000Y-120650000I0J-50000D01*
G01*
X93400000Y-122350000D01*
G75*
G02*
X93350000Y-122400000I-50000J0D01*
G01*
X91650000Y-122400000D01*
G75*
G02*
X91600000Y-122350000I0J50000D01*
G01*
G37*
G36*
G01*
X121750000Y-114850000D02*
X123450000Y-114850000D01*
G75*
G02*
X123500000Y-114900000I0J-50000D01*
G01*
X123500000Y-116600000D01*
G75*
G02*
X123450000Y-116650000I-50000J0D01*
G01*
X121750000Y-116650000D01*
G75*
G02*
X121700000Y-116600000I0J50000D01*
G01*
X121700000Y-114900000D01*
G75*
G02*
X121750000Y-114850000I50000J0D01*
G01*
G37*
X125140000Y-115750000D03*
X127680000Y-115750000D03*
M02*
