%TF.GenerationSoftware,KiCad,Pcbnew,5.1.6-c6e7f7d~87~ubuntu18.04.1*%
%TF.CreationDate,2020-09-10T12:49:25+09:00*%
%TF.ProjectId,m5mouse,6d356d6f-7573-4652-9e6b-696361645f70,rev?*%
%TF.SameCoordinates,PX4c4b400PY8583b00*%
%TF.FileFunction,Soldermask,Bot*%
%TF.FilePolarity,Negative*%
%FSLAX46Y46*%
G04 Gerber Fmt 4.6, Leading zero omitted, Abs format (unit mm)*
G04 Created by KiCad (PCBNEW 5.1.6-c6e7f7d~87~ubuntu18.04.1) date 2020-09-10 12:49:25*
%MOMM*%
%LPD*%
G01*
G04 APERTURE LIST*
%ADD10C,2.300000*%
%ADD11C,3.300000*%
%ADD12R,3.350000X2.250000*%
%ADD13R,1.050000X2.250000*%
%ADD14O,2.050000X1.800000*%
%ADD15O,1.800000X1.800000*%
%ADD16R,1.800000X1.800000*%
%ADD17R,0.900000X1.000000*%
%ADD18C,2.100000*%
%ADD19C,1.800000*%
%ADD20R,0.750000X1.160000*%
%ADD21R,0.350000X0.600000*%
%ADD22R,2.750000X1.100000*%
%ADD23C,0.100000*%
%ADD24R,1.500000X1.900000*%
%ADD25R,1.850000X1.700000*%
%ADD26O,1.300000X1.850000*%
G04 APERTURE END LIST*
D10*
%TO.C,MH9*%
X25000000Y3000000D03*
%TD*%
%TO.C,MH10*%
X78000000Y3000000D03*
%TD*%
%TO.C,MH8*%
X59300000Y46850000D03*
D11*
X56150000Y46850000D03*
%TD*%
D10*
%TO.C,MH5*%
X96700000Y46850000D03*
D11*
X99850000Y46850000D03*
%TD*%
D10*
%TO.C,MH2*%
X43700000Y3150000D03*
D11*
X46850000Y3150000D03*
%TD*%
D10*
%TO.C,MH3*%
X6300000Y3150000D03*
D11*
X3150000Y3150000D03*
%TD*%
D10*
%TO.C,MH4*%
X6300000Y46850000D03*
D11*
X3150000Y46850000D03*
%TD*%
D10*
%TO.C,MH1*%
X43700000Y46850000D03*
D11*
X46850000Y46850000D03*
%TD*%
D10*
%TO.C,MH6*%
X100200000Y20000000D03*
%TD*%
%TO.C,MH7*%
X55800000Y20000000D03*
%TD*%
%TO.C,C1*%
G36*
G01*
X24625000Y15302500D02*
X24625000Y15697500D01*
G75*
G02*
X24797500Y15870000I172500J0D01*
G01*
X25142500Y15870000D01*
G75*
G02*
X25315000Y15697500I0J-172500D01*
G01*
X25315000Y15302500D01*
G75*
G02*
X25142500Y15130000I-172500J0D01*
G01*
X24797500Y15130000D01*
G75*
G02*
X24625000Y15302500I0J172500D01*
G01*
G37*
G36*
G01*
X23655000Y15302500D02*
X23655000Y15697500D01*
G75*
G02*
X23827500Y15870000I172500J0D01*
G01*
X24172500Y15870000D01*
G75*
G02*
X24345000Y15697500I0J-172500D01*
G01*
X24345000Y15302500D01*
G75*
G02*
X24172500Y15130000I-172500J0D01*
G01*
X23827500Y15130000D01*
G75*
G02*
X23655000Y15302500I0J172500D01*
G01*
G37*
%TD*%
%TO.C,C2*%
G36*
G01*
X24640000Y16302500D02*
X24640000Y16697500D01*
G75*
G02*
X24812500Y16870000I172500J0D01*
G01*
X25157500Y16870000D01*
G75*
G02*
X25330000Y16697500I0J-172500D01*
G01*
X25330000Y16302500D01*
G75*
G02*
X25157500Y16130000I-172500J0D01*
G01*
X24812500Y16130000D01*
G75*
G02*
X24640000Y16302500I0J172500D01*
G01*
G37*
G36*
G01*
X23670000Y16302500D02*
X23670000Y16697500D01*
G75*
G02*
X23842500Y16870000I172500J0D01*
G01*
X24187500Y16870000D01*
G75*
G02*
X24360000Y16697500I0J-172500D01*
G01*
X24360000Y16302500D01*
G75*
G02*
X24187500Y16130000I-172500J0D01*
G01*
X23842500Y16130000D01*
G75*
G02*
X23670000Y16302500I0J172500D01*
G01*
G37*
%TD*%
%TO.C,C3*%
G36*
G01*
X23670000Y17302500D02*
X23670000Y17697500D01*
G75*
G02*
X23842500Y17870000I172500J0D01*
G01*
X24187500Y17870000D01*
G75*
G02*
X24360000Y17697500I0J-172500D01*
G01*
X24360000Y17302500D01*
G75*
G02*
X24187500Y17130000I-172500J0D01*
G01*
X23842500Y17130000D01*
G75*
G02*
X23670000Y17302500I0J172500D01*
G01*
G37*
G36*
G01*
X24640000Y17302500D02*
X24640000Y17697500D01*
G75*
G02*
X24812500Y17870000I172500J0D01*
G01*
X25157500Y17870000D01*
G75*
G02*
X25330000Y17697500I0J-172500D01*
G01*
X25330000Y17302500D01*
G75*
G02*
X25157500Y17130000I-172500J0D01*
G01*
X24812500Y17130000D01*
G75*
G02*
X24640000Y17302500I0J172500D01*
G01*
G37*
%TD*%
%TO.C,C4*%
G36*
G01*
X27697500Y22140000D02*
X27302500Y22140000D01*
G75*
G02*
X27130000Y22312500I0J172500D01*
G01*
X27130000Y22657500D01*
G75*
G02*
X27302500Y22830000I172500J0D01*
G01*
X27697500Y22830000D01*
G75*
G02*
X27870000Y22657500I0J-172500D01*
G01*
X27870000Y22312500D01*
G75*
G02*
X27697500Y22140000I-172500J0D01*
G01*
G37*
G36*
G01*
X27697500Y21170000D02*
X27302500Y21170000D01*
G75*
G02*
X27130000Y21342500I0J172500D01*
G01*
X27130000Y21687500D01*
G75*
G02*
X27302500Y21860000I172500J0D01*
G01*
X27697500Y21860000D01*
G75*
G02*
X27870000Y21687500I0J-172500D01*
G01*
X27870000Y21342500D01*
G75*
G02*
X27697500Y21170000I-172500J0D01*
G01*
G37*
%TD*%
%TO.C,C5*%
G36*
G01*
X28302500Y15830000D02*
X28697500Y15830000D01*
G75*
G02*
X28870000Y15657500I0J-172500D01*
G01*
X28870000Y15312500D01*
G75*
G02*
X28697500Y15140000I-172500J0D01*
G01*
X28302500Y15140000D01*
G75*
G02*
X28130000Y15312500I0J172500D01*
G01*
X28130000Y15657500D01*
G75*
G02*
X28302500Y15830000I172500J0D01*
G01*
G37*
G36*
G01*
X28302500Y14860000D02*
X28697500Y14860000D01*
G75*
G02*
X28870000Y14687500I0J-172500D01*
G01*
X28870000Y14342500D01*
G75*
G02*
X28697500Y14170000I-172500J0D01*
G01*
X28302500Y14170000D01*
G75*
G02*
X28130000Y14342500I0J172500D01*
G01*
X28130000Y14687500D01*
G75*
G02*
X28302500Y14860000I172500J0D01*
G01*
G37*
%TD*%
%TO.C,C6*%
G36*
G01*
X27302500Y15830000D02*
X27697500Y15830000D01*
G75*
G02*
X27870000Y15657500I0J-172500D01*
G01*
X27870000Y15312500D01*
G75*
G02*
X27697500Y15140000I-172500J0D01*
G01*
X27302500Y15140000D01*
G75*
G02*
X27130000Y15312500I0J172500D01*
G01*
X27130000Y15657500D01*
G75*
G02*
X27302500Y15830000I172500J0D01*
G01*
G37*
G36*
G01*
X27302500Y14860000D02*
X27697500Y14860000D01*
G75*
G02*
X27870000Y14687500I0J-172500D01*
G01*
X27870000Y14342500D01*
G75*
G02*
X27697500Y14170000I-172500J0D01*
G01*
X27302500Y14170000D01*
G75*
G02*
X27130000Y14342500I0J172500D01*
G01*
X27130000Y14687500D01*
G75*
G02*
X27302500Y14860000I172500J0D01*
G01*
G37*
%TD*%
%TO.C,C7*%
G36*
G01*
X26302500Y15830000D02*
X26697500Y15830000D01*
G75*
G02*
X26870000Y15657500I0J-172500D01*
G01*
X26870000Y15312500D01*
G75*
G02*
X26697500Y15140000I-172500J0D01*
G01*
X26302500Y15140000D01*
G75*
G02*
X26130000Y15312500I0J172500D01*
G01*
X26130000Y15657500D01*
G75*
G02*
X26302500Y15830000I172500J0D01*
G01*
G37*
G36*
G01*
X26302500Y14860000D02*
X26697500Y14860000D01*
G75*
G02*
X26870000Y14687500I0J-172500D01*
G01*
X26870000Y14342500D01*
G75*
G02*
X26697500Y14170000I-172500J0D01*
G01*
X26302500Y14170000D01*
G75*
G02*
X26130000Y14342500I0J172500D01*
G01*
X26130000Y14687500D01*
G75*
G02*
X26302500Y14860000I172500J0D01*
G01*
G37*
%TD*%
%TO.C,C8*%
G36*
G01*
X93940000Y33602500D02*
X93940000Y33997500D01*
G75*
G02*
X94112500Y34170000I172500J0D01*
G01*
X94457500Y34170000D01*
G75*
G02*
X94630000Y33997500I0J-172500D01*
G01*
X94630000Y33602500D01*
G75*
G02*
X94457500Y33430000I-172500J0D01*
G01*
X94112500Y33430000D01*
G75*
G02*
X93940000Y33602500I0J172500D01*
G01*
G37*
G36*
G01*
X92970000Y33602500D02*
X92970000Y33997500D01*
G75*
G02*
X93142500Y34170000I172500J0D01*
G01*
X93487500Y34170000D01*
G75*
G02*
X93660000Y33997500I0J-172500D01*
G01*
X93660000Y33602500D01*
G75*
G02*
X93487500Y33430000I-172500J0D01*
G01*
X93142500Y33430000D01*
G75*
G02*
X92970000Y33602500I0J172500D01*
G01*
G37*
%TD*%
%TO.C,Ce*%
G36*
G01*
X88802500Y29430000D02*
X89197500Y29430000D01*
G75*
G02*
X89370000Y29257500I0J-172500D01*
G01*
X89370000Y28912500D01*
G75*
G02*
X89197500Y28740000I-172500J0D01*
G01*
X88802500Y28740000D01*
G75*
G02*
X88630000Y28912500I0J172500D01*
G01*
X88630000Y29257500D01*
G75*
G02*
X88802500Y29430000I172500J0D01*
G01*
G37*
G36*
G01*
X88802500Y28460000D02*
X89197500Y28460000D01*
G75*
G02*
X89370000Y28287500I0J-172500D01*
G01*
X89370000Y27942500D01*
G75*
G02*
X89197500Y27770000I-172500J0D01*
G01*
X88802500Y27770000D01*
G75*
G02*
X88630000Y27942500I0J172500D01*
G01*
X88630000Y28287500D01*
G75*
G02*
X88802500Y28460000I172500J0D01*
G01*
G37*
%TD*%
%TO.C,C10*%
G36*
G01*
X85260000Y41197500D02*
X85260000Y40802500D01*
G75*
G02*
X85087500Y40630000I-172500J0D01*
G01*
X84742500Y40630000D01*
G75*
G02*
X84570000Y40802500I0J172500D01*
G01*
X84570000Y41197500D01*
G75*
G02*
X84742500Y41370000I172500J0D01*
G01*
X85087500Y41370000D01*
G75*
G02*
X85260000Y41197500I0J-172500D01*
G01*
G37*
G36*
G01*
X86230000Y41197500D02*
X86230000Y40802500D01*
G75*
G02*
X86057500Y40630000I-172500J0D01*
G01*
X85712500Y40630000D01*
G75*
G02*
X85540000Y40802500I0J172500D01*
G01*
X85540000Y41197500D01*
G75*
G02*
X85712500Y41370000I172500J0D01*
G01*
X86057500Y41370000D01*
G75*
G02*
X86230000Y41197500I0J-172500D01*
G01*
G37*
%TD*%
%TO.C,C11*%
G36*
G01*
X74730000Y28597500D02*
X74730000Y28202500D01*
G75*
G02*
X74557500Y28030000I-172500J0D01*
G01*
X74212500Y28030000D01*
G75*
G02*
X74040000Y28202500I0J172500D01*
G01*
X74040000Y28597500D01*
G75*
G02*
X74212500Y28770000I172500J0D01*
G01*
X74557500Y28770000D01*
G75*
G02*
X74730000Y28597500I0J-172500D01*
G01*
G37*
G36*
G01*
X73760000Y28597500D02*
X73760000Y28202500D01*
G75*
G02*
X73587500Y28030000I-172500J0D01*
G01*
X73242500Y28030000D01*
G75*
G02*
X73070000Y28202500I0J172500D01*
G01*
X73070000Y28597500D01*
G75*
G02*
X73242500Y28770000I172500J0D01*
G01*
X73587500Y28770000D01*
G75*
G02*
X73760000Y28597500I0J-172500D01*
G01*
G37*
%TD*%
%TO.C,C12*%
G36*
G01*
X67770000Y34802500D02*
X67770000Y35197500D01*
G75*
G02*
X67942500Y35370000I172500J0D01*
G01*
X68287500Y35370000D01*
G75*
G02*
X68460000Y35197500I0J-172500D01*
G01*
X68460000Y34802500D01*
G75*
G02*
X68287500Y34630000I-172500J0D01*
G01*
X67942500Y34630000D01*
G75*
G02*
X67770000Y34802500I0J172500D01*
G01*
G37*
G36*
G01*
X68740000Y34802500D02*
X68740000Y35197500D01*
G75*
G02*
X68912500Y35370000I172500J0D01*
G01*
X69257500Y35370000D01*
G75*
G02*
X69430000Y35197500I0J-172500D01*
G01*
X69430000Y34802500D01*
G75*
G02*
X69257500Y34630000I-172500J0D01*
G01*
X68912500Y34630000D01*
G75*
G02*
X68740000Y34802500I0J172500D01*
G01*
G37*
%TD*%
%TO.C,C13*%
G36*
G01*
X73940000Y44202500D02*
X73940000Y44597500D01*
G75*
G02*
X74112500Y44770000I172500J0D01*
G01*
X74457500Y44770000D01*
G75*
G02*
X74630000Y44597500I0J-172500D01*
G01*
X74630000Y44202500D01*
G75*
G02*
X74457500Y44030000I-172500J0D01*
G01*
X74112500Y44030000D01*
G75*
G02*
X73940000Y44202500I0J172500D01*
G01*
G37*
G36*
G01*
X72970000Y44202500D02*
X72970000Y44597500D01*
G75*
G02*
X73142500Y44770000I172500J0D01*
G01*
X73487500Y44770000D01*
G75*
G02*
X73660000Y44597500I0J-172500D01*
G01*
X73660000Y44202500D01*
G75*
G02*
X73487500Y44030000I-172500J0D01*
G01*
X73142500Y44030000D01*
G75*
G02*
X72970000Y44202500I0J172500D01*
G01*
G37*
%TD*%
%TO.C,C14*%
G36*
G01*
X84570000Y41802500D02*
X84570000Y42197500D01*
G75*
G02*
X84742500Y42370000I172500J0D01*
G01*
X85087500Y42370000D01*
G75*
G02*
X85260000Y42197500I0J-172500D01*
G01*
X85260000Y41802500D01*
G75*
G02*
X85087500Y41630000I-172500J0D01*
G01*
X84742500Y41630000D01*
G75*
G02*
X84570000Y41802500I0J172500D01*
G01*
G37*
G36*
G01*
X85540000Y41802500D02*
X85540000Y42197500D01*
G75*
G02*
X85712500Y42370000I172500J0D01*
G01*
X86057500Y42370000D01*
G75*
G02*
X86230000Y42197500I0J-172500D01*
G01*
X86230000Y41802500D01*
G75*
G02*
X86057500Y41630000I-172500J0D01*
G01*
X85712500Y41630000D01*
G75*
G02*
X85540000Y41802500I0J172500D01*
G01*
G37*
%TD*%
%TO.C,C15*%
G36*
G01*
X83130000Y29597500D02*
X83130000Y29202500D01*
G75*
G02*
X82957500Y29030000I-172500J0D01*
G01*
X82612500Y29030000D01*
G75*
G02*
X82440000Y29202500I0J172500D01*
G01*
X82440000Y29597500D01*
G75*
G02*
X82612500Y29770000I172500J0D01*
G01*
X82957500Y29770000D01*
G75*
G02*
X83130000Y29597500I0J-172500D01*
G01*
G37*
G36*
G01*
X82160000Y29597500D02*
X82160000Y29202500D01*
G75*
G02*
X81987500Y29030000I-172500J0D01*
G01*
X81642500Y29030000D01*
G75*
G02*
X81470000Y29202500I0J172500D01*
G01*
X81470000Y29597500D01*
G75*
G02*
X81642500Y29770000I172500J0D01*
G01*
X81987500Y29770000D01*
G75*
G02*
X82160000Y29597500I0J-172500D01*
G01*
G37*
%TD*%
%TO.C,C16*%
G36*
G01*
X83130000Y28597500D02*
X83130000Y28202500D01*
G75*
G02*
X82957500Y28030000I-172500J0D01*
G01*
X82612500Y28030000D01*
G75*
G02*
X82440000Y28202500I0J172500D01*
G01*
X82440000Y28597500D01*
G75*
G02*
X82612500Y28770000I172500J0D01*
G01*
X82957500Y28770000D01*
G75*
G02*
X83130000Y28597500I0J-172500D01*
G01*
G37*
G36*
G01*
X82160000Y28597500D02*
X82160000Y28202500D01*
G75*
G02*
X81987500Y28030000I-172500J0D01*
G01*
X81642500Y28030000D01*
G75*
G02*
X81470000Y28202500I0J172500D01*
G01*
X81470000Y28597500D01*
G75*
G02*
X81642500Y28770000I172500J0D01*
G01*
X81987500Y28770000D01*
G75*
G02*
X82160000Y28597500I0J-172500D01*
G01*
G37*
%TD*%
%TO.C,C17*%
G36*
G01*
X83130000Y27597500D02*
X83130000Y27202500D01*
G75*
G02*
X82957500Y27030000I-172500J0D01*
G01*
X82612500Y27030000D01*
G75*
G02*
X82440000Y27202500I0J172500D01*
G01*
X82440000Y27597500D01*
G75*
G02*
X82612500Y27770000I172500J0D01*
G01*
X82957500Y27770000D01*
G75*
G02*
X83130000Y27597500I0J-172500D01*
G01*
G37*
G36*
G01*
X82160000Y27597500D02*
X82160000Y27202500D01*
G75*
G02*
X81987500Y27030000I-172500J0D01*
G01*
X81642500Y27030000D01*
G75*
G02*
X81470000Y27202500I0J172500D01*
G01*
X81470000Y27597500D01*
G75*
G02*
X81642500Y27770000I172500J0D01*
G01*
X81987500Y27770000D01*
G75*
G02*
X82160000Y27597500I0J-172500D01*
G01*
G37*
%TD*%
%TO.C,C18*%
G36*
G01*
X76876500Y20060000D02*
X77271500Y20060000D01*
G75*
G02*
X77444000Y19887500I0J-172500D01*
G01*
X77444000Y19542500D01*
G75*
G02*
X77271500Y19370000I-172500J0D01*
G01*
X76876500Y19370000D01*
G75*
G02*
X76704000Y19542500I0J172500D01*
G01*
X76704000Y19887500D01*
G75*
G02*
X76876500Y20060000I172500J0D01*
G01*
G37*
G36*
G01*
X76876500Y21030000D02*
X77271500Y21030000D01*
G75*
G02*
X77444000Y20857500I0J-172500D01*
G01*
X77444000Y20512500D01*
G75*
G02*
X77271500Y20340000I-172500J0D01*
G01*
X76876500Y20340000D01*
G75*
G02*
X76704000Y20512500I0J172500D01*
G01*
X76704000Y20857500D01*
G75*
G02*
X76876500Y21030000I172500J0D01*
G01*
G37*
%TD*%
%TO.C,C19*%
G36*
G01*
X77271500Y18340000D02*
X76876500Y18340000D01*
G75*
G02*
X76704000Y18512500I0J172500D01*
G01*
X76704000Y18857500D01*
G75*
G02*
X76876500Y19030000I172500J0D01*
G01*
X77271500Y19030000D01*
G75*
G02*
X77444000Y18857500I0J-172500D01*
G01*
X77444000Y18512500D01*
G75*
G02*
X77271500Y18340000I-172500J0D01*
G01*
G37*
G36*
G01*
X77271500Y17370000D02*
X76876500Y17370000D01*
G75*
G02*
X76704000Y17542500I0J172500D01*
G01*
X76704000Y17887500D01*
G75*
G02*
X76876500Y18060000I172500J0D01*
G01*
X77271500Y18060000D01*
G75*
G02*
X77444000Y17887500I0J-172500D01*
G01*
X77444000Y17542500D01*
G75*
G02*
X77271500Y17370000I-172500J0D01*
G01*
G37*
%TD*%
%TO.C,C20*%
G36*
G01*
X60860000Y31621500D02*
X60860000Y31226500D01*
G75*
G02*
X60687500Y31054000I-172500J0D01*
G01*
X60342500Y31054000D01*
G75*
G02*
X60170000Y31226500I0J172500D01*
G01*
X60170000Y31621500D01*
G75*
G02*
X60342500Y31794000I172500J0D01*
G01*
X60687500Y31794000D01*
G75*
G02*
X60860000Y31621500I0J-172500D01*
G01*
G37*
G36*
G01*
X61830000Y31621500D02*
X61830000Y31226500D01*
G75*
G02*
X61657500Y31054000I-172500J0D01*
G01*
X61312500Y31054000D01*
G75*
G02*
X61140000Y31226500I0J172500D01*
G01*
X61140000Y31621500D01*
G75*
G02*
X61312500Y31794000I172500J0D01*
G01*
X61657500Y31794000D01*
G75*
G02*
X61830000Y31621500I0J-172500D01*
G01*
G37*
%TD*%
%TO.C,C21*%
G36*
G01*
X60860000Y27375500D02*
X60860000Y26980500D01*
G75*
G02*
X60687500Y26808000I-172500J0D01*
G01*
X60342500Y26808000D01*
G75*
G02*
X60170000Y26980500I0J172500D01*
G01*
X60170000Y27375500D01*
G75*
G02*
X60342500Y27548000I172500J0D01*
G01*
X60687500Y27548000D01*
G75*
G02*
X60860000Y27375500I0J-172500D01*
G01*
G37*
G36*
G01*
X61830000Y27375500D02*
X61830000Y26980500D01*
G75*
G02*
X61657500Y26808000I-172500J0D01*
G01*
X61312500Y26808000D01*
G75*
G02*
X61140000Y26980500I0J172500D01*
G01*
X61140000Y27375500D01*
G75*
G02*
X61312500Y27548000I172500J0D01*
G01*
X61657500Y27548000D01*
G75*
G02*
X61830000Y27375500I0J-172500D01*
G01*
G37*
%TD*%
%TO.C,C22*%
G36*
G01*
X99630000Y24997500D02*
X99630000Y24602500D01*
G75*
G02*
X99457500Y24430000I-172500J0D01*
G01*
X99112500Y24430000D01*
G75*
G02*
X98940000Y24602500I0J172500D01*
G01*
X98940000Y24997500D01*
G75*
G02*
X99112500Y25170000I172500J0D01*
G01*
X99457500Y25170000D01*
G75*
G02*
X99630000Y24997500I0J-172500D01*
G01*
G37*
G36*
G01*
X98660000Y24997500D02*
X98660000Y24602500D01*
G75*
G02*
X98487500Y24430000I-172500J0D01*
G01*
X98142500Y24430000D01*
G75*
G02*
X97970000Y24602500I0J172500D01*
G01*
X97970000Y24997500D01*
G75*
G02*
X98142500Y25170000I172500J0D01*
G01*
X98487500Y25170000D01*
G75*
G02*
X98660000Y24997500I0J-172500D01*
G01*
G37*
%TD*%
%TO.C,C23*%
G36*
G01*
X68460000Y34197500D02*
X68460000Y33802500D01*
G75*
G02*
X68287500Y33630000I-172500J0D01*
G01*
X67942500Y33630000D01*
G75*
G02*
X67770000Y33802500I0J172500D01*
G01*
X67770000Y34197500D01*
G75*
G02*
X67942500Y34370000I172500J0D01*
G01*
X68287500Y34370000D01*
G75*
G02*
X68460000Y34197500I0J-172500D01*
G01*
G37*
G36*
G01*
X69430000Y34197500D02*
X69430000Y33802500D01*
G75*
G02*
X69257500Y33630000I-172500J0D01*
G01*
X68912500Y33630000D01*
G75*
G02*
X68740000Y33802500I0J172500D01*
G01*
X68740000Y34197500D01*
G75*
G02*
X68912500Y34370000I172500J0D01*
G01*
X69257500Y34370000D01*
G75*
G02*
X69430000Y34197500I0J-172500D01*
G01*
G37*
%TD*%
%TO.C,C24*%
G36*
G01*
X74630000Y43597500D02*
X74630000Y43202500D01*
G75*
G02*
X74457500Y43030000I-172500J0D01*
G01*
X74112500Y43030000D01*
G75*
G02*
X73940000Y43202500I0J172500D01*
G01*
X73940000Y43597500D01*
G75*
G02*
X74112500Y43770000I172500J0D01*
G01*
X74457500Y43770000D01*
G75*
G02*
X74630000Y43597500I0J-172500D01*
G01*
G37*
G36*
G01*
X73660000Y43597500D02*
X73660000Y43202500D01*
G75*
G02*
X73487500Y43030000I-172500J0D01*
G01*
X73142500Y43030000D01*
G75*
G02*
X72970000Y43202500I0J172500D01*
G01*
X72970000Y43597500D01*
G75*
G02*
X73142500Y43770000I172500J0D01*
G01*
X73487500Y43770000D01*
G75*
G02*
X73660000Y43597500I0J-172500D01*
G01*
G37*
%TD*%
%TO.C,C25*%
G36*
G01*
X61830000Y32621500D02*
X61830000Y32226500D01*
G75*
G02*
X61657500Y32054000I-172500J0D01*
G01*
X61312500Y32054000D01*
G75*
G02*
X61140000Y32226500I0J172500D01*
G01*
X61140000Y32621500D01*
G75*
G02*
X61312500Y32794000I172500J0D01*
G01*
X61657500Y32794000D01*
G75*
G02*
X61830000Y32621500I0J-172500D01*
G01*
G37*
G36*
G01*
X60860000Y32621500D02*
X60860000Y32226500D01*
G75*
G02*
X60687500Y32054000I-172500J0D01*
G01*
X60342500Y32054000D01*
G75*
G02*
X60170000Y32226500I0J172500D01*
G01*
X60170000Y32621500D01*
G75*
G02*
X60342500Y32794000I172500J0D01*
G01*
X60687500Y32794000D01*
G75*
G02*
X60860000Y32621500I0J-172500D01*
G01*
G37*
%TD*%
%TO.C,C26*%
G36*
G01*
X26660000Y30497500D02*
X26660000Y30102500D01*
G75*
G02*
X26487500Y29930000I-172500J0D01*
G01*
X26142500Y29930000D01*
G75*
G02*
X25970000Y30102500I0J172500D01*
G01*
X25970000Y30497500D01*
G75*
G02*
X26142500Y30670000I172500J0D01*
G01*
X26487500Y30670000D01*
G75*
G02*
X26660000Y30497500I0J-172500D01*
G01*
G37*
G36*
G01*
X27630000Y30497500D02*
X27630000Y30102500D01*
G75*
G02*
X27457500Y29930000I-172500J0D01*
G01*
X27112500Y29930000D01*
G75*
G02*
X26940000Y30102500I0J172500D01*
G01*
X26940000Y30497500D01*
G75*
G02*
X27112500Y30670000I172500J0D01*
G01*
X27457500Y30670000D01*
G75*
G02*
X27630000Y30497500I0J-172500D01*
G01*
G37*
%TD*%
%TO.C,C27*%
G36*
G01*
X23940000Y30102500D02*
X23940000Y30497500D01*
G75*
G02*
X24112500Y30670000I172500J0D01*
G01*
X24457500Y30670000D01*
G75*
G02*
X24630000Y30497500I0J-172500D01*
G01*
X24630000Y30102500D01*
G75*
G02*
X24457500Y29930000I-172500J0D01*
G01*
X24112500Y29930000D01*
G75*
G02*
X23940000Y30102500I0J172500D01*
G01*
G37*
G36*
G01*
X22970000Y30102500D02*
X22970000Y30497500D01*
G75*
G02*
X23142500Y30670000I172500J0D01*
G01*
X23487500Y30670000D01*
G75*
G02*
X23660000Y30497500I0J-172500D01*
G01*
X23660000Y30102500D01*
G75*
G02*
X23487500Y29930000I-172500J0D01*
G01*
X23142500Y29930000D01*
G75*
G02*
X22970000Y30102500I0J172500D01*
G01*
G37*
%TD*%
%TO.C,C28*%
G36*
G01*
X87140000Y34002500D02*
X87140000Y34397500D01*
G75*
G02*
X87312500Y34570000I172500J0D01*
G01*
X87657500Y34570000D01*
G75*
G02*
X87830000Y34397500I0J-172500D01*
G01*
X87830000Y34002500D01*
G75*
G02*
X87657500Y33830000I-172500J0D01*
G01*
X87312500Y33830000D01*
G75*
G02*
X87140000Y34002500I0J172500D01*
G01*
G37*
G36*
G01*
X86170000Y34002500D02*
X86170000Y34397500D01*
G75*
G02*
X86342500Y34570000I172500J0D01*
G01*
X86687500Y34570000D01*
G75*
G02*
X86860000Y34397500I0J-172500D01*
G01*
X86860000Y34002500D01*
G75*
G02*
X86687500Y33830000I-172500J0D01*
G01*
X86342500Y33830000D01*
G75*
G02*
X86170000Y34002500I0J172500D01*
G01*
G37*
%TD*%
%TO.C,D1*%
G36*
G01*
X47781250Y28800000D02*
X47218750Y28800000D01*
G75*
G02*
X46975000Y29043750I0J243750D01*
G01*
X46975000Y29531250D01*
G75*
G02*
X47218750Y29775000I243750J0D01*
G01*
X47781250Y29775000D01*
G75*
G02*
X48025000Y29531250I0J-243750D01*
G01*
X48025000Y29043750D01*
G75*
G02*
X47781250Y28800000I-243750J0D01*
G01*
G37*
G36*
G01*
X47781250Y27225000D02*
X47218750Y27225000D01*
G75*
G02*
X46975000Y27468750I0J243750D01*
G01*
X46975000Y27956250D01*
G75*
G02*
X47218750Y28200000I243750J0D01*
G01*
X47781250Y28200000D01*
G75*
G02*
X48025000Y27956250I0J-243750D01*
G01*
X48025000Y27468750D01*
G75*
G02*
X47781250Y27225000I-243750J0D01*
G01*
G37*
%TD*%
%TO.C,D6*%
G36*
G01*
X90225000Y48218750D02*
X90225000Y48781250D01*
G75*
G02*
X90468750Y49025000I243750J0D01*
G01*
X90956250Y49025000D01*
G75*
G02*
X91200000Y48781250I0J-243750D01*
G01*
X91200000Y48218750D01*
G75*
G02*
X90956250Y47975000I-243750J0D01*
G01*
X90468750Y47975000D01*
G75*
G02*
X90225000Y48218750I0J243750D01*
G01*
G37*
G36*
G01*
X91800000Y48218750D02*
X91800000Y48781250D01*
G75*
G02*
X92043750Y49025000I243750J0D01*
G01*
X92531250Y49025000D01*
G75*
G02*
X92775000Y48781250I0J-243750D01*
G01*
X92775000Y48218750D01*
G75*
G02*
X92531250Y47975000I-243750J0D01*
G01*
X92043750Y47975000D01*
G75*
G02*
X91800000Y48218750I0J243750D01*
G01*
G37*
%TD*%
%TO.C,D7*%
G36*
G01*
X65775000Y48781250D02*
X65775000Y48218750D01*
G75*
G02*
X65531250Y47975000I-243750J0D01*
G01*
X65043750Y47975000D01*
G75*
G02*
X64800000Y48218750I0J243750D01*
G01*
X64800000Y48781250D01*
G75*
G02*
X65043750Y49025000I243750J0D01*
G01*
X65531250Y49025000D01*
G75*
G02*
X65775000Y48781250I0J-243750D01*
G01*
G37*
G36*
G01*
X64200000Y48781250D02*
X64200000Y48218750D01*
G75*
G02*
X63956250Y47975000I-243750J0D01*
G01*
X63468750Y47975000D01*
G75*
G02*
X63225000Y48218750I0J243750D01*
G01*
X63225000Y48781250D01*
G75*
G02*
X63468750Y49025000I243750J0D01*
G01*
X63956250Y49025000D01*
G75*
G02*
X64200000Y48781250I0J-243750D01*
G01*
G37*
%TD*%
D12*
%TO.C,IC1*%
X25300000Y39200000D03*
D13*
X25300000Y33400000D03*
X27600000Y33400000D03*
X23000000Y33400000D03*
%TD*%
%TO.C,J3*%
G36*
G01*
X99239706Y41900000D02*
X100760294Y41900000D01*
G75*
G02*
X101025000Y41635294I0J-264706D01*
G01*
X101025000Y40364706D01*
G75*
G02*
X100760294Y40100000I-264706J0D01*
G01*
X99239706Y40100000D01*
G75*
G02*
X98975000Y40364706I0J264706D01*
G01*
X98975000Y41635294D01*
G75*
G02*
X99239706Y41900000I264706J0D01*
G01*
G37*
D14*
X100000000Y38500000D03*
X100000000Y36000000D03*
X100000000Y33500000D03*
X100000000Y31000000D03*
X100000000Y28500000D03*
%TD*%
D15*
%TO.C,J4*%
X91240000Y44580000D03*
X88700000Y44580000D03*
X91240000Y42040000D03*
X88700000Y42040000D03*
X91240000Y39500000D03*
D16*
X88700000Y39500000D03*
%TD*%
%TO.C,J5*%
X67400000Y44500000D03*
D15*
X64860000Y44500000D03*
X67400000Y41960000D03*
X64860000Y41960000D03*
X67400000Y39420000D03*
X64860000Y39420000D03*
%TD*%
D16*
%TO.C,J6*%
X55800000Y24400000D03*
D15*
X55800000Y26940000D03*
X55800000Y29480000D03*
%TD*%
D16*
%TO.C,J7*%
X18650000Y46800000D03*
D15*
X21190000Y46800000D03*
X23730000Y46800000D03*
X26270000Y46800000D03*
X28810000Y46800000D03*
X31350000Y46800000D03*
%TD*%
D16*
%TO.C,J8*%
X71650000Y46800000D03*
D15*
X74190000Y46800000D03*
X76730000Y46800000D03*
X79270000Y46800000D03*
X81810000Y46800000D03*
X84350000Y46800000D03*
%TD*%
%TO.C,L1*%
G36*
G01*
X24250000Y11620000D02*
X24250000Y13380000D01*
G75*
G02*
X24520000Y13650000I270000J0D01*
G01*
X25330000Y13650000D01*
G75*
G02*
X25600000Y13380000I0J-270000D01*
G01*
X25600000Y11620000D01*
G75*
G02*
X25330000Y11350000I-270000J0D01*
G01*
X24520000Y11350000D01*
G75*
G02*
X24250000Y11620000I0J270000D01*
G01*
G37*
G36*
G01*
X26400000Y11620000D02*
X26400000Y13380000D01*
G75*
G02*
X26670000Y13650000I270000J0D01*
G01*
X27480000Y13650000D01*
G75*
G02*
X27750000Y13380000I0J-270000D01*
G01*
X27750000Y11620000D01*
G75*
G02*
X27480000Y11350000I-270000J0D01*
G01*
X26670000Y11350000D01*
G75*
G02*
X26400000Y11620000I0J270000D01*
G01*
G37*
%TD*%
D17*
%TO.C,Q1*%
X87050000Y16000000D03*
X88950000Y16000000D03*
X88000000Y14000000D03*
%TD*%
%TO.C,Q3*%
X81200000Y14000000D03*
X82150000Y16000000D03*
X80250000Y16000000D03*
%TD*%
%TO.C,Q5*%
X73750000Y16000000D03*
X75650000Y16000000D03*
X74700000Y14000000D03*
%TD*%
%TO.C,Q7*%
X68100000Y14000000D03*
X69050000Y16000000D03*
X67150000Y16000000D03*
%TD*%
%TO.C,R1*%
G36*
G01*
X29700000Y26281250D02*
X29700000Y25718750D01*
G75*
G02*
X29456250Y25475000I-243750J0D01*
G01*
X28968750Y25475000D01*
G75*
G02*
X28725000Y25718750I0J243750D01*
G01*
X28725000Y26281250D01*
G75*
G02*
X28968750Y26525000I243750J0D01*
G01*
X29456250Y26525000D01*
G75*
G02*
X29700000Y26281250I0J-243750D01*
G01*
G37*
G36*
G01*
X31275000Y26281250D02*
X31275000Y25718750D01*
G75*
G02*
X31031250Y25475000I-243750J0D01*
G01*
X30543750Y25475000D01*
G75*
G02*
X30300000Y25718750I0J243750D01*
G01*
X30300000Y26281250D01*
G75*
G02*
X30543750Y26525000I243750J0D01*
G01*
X31031250Y26525000D01*
G75*
G02*
X31275000Y26281250I0J-243750D01*
G01*
G37*
%TD*%
%TO.C,R2*%
G36*
G01*
X26275000Y27281250D02*
X26275000Y26718750D01*
G75*
G02*
X26031250Y26475000I-243750J0D01*
G01*
X25543750Y26475000D01*
G75*
G02*
X25300000Y26718750I0J243750D01*
G01*
X25300000Y27281250D01*
G75*
G02*
X25543750Y27525000I243750J0D01*
G01*
X26031250Y27525000D01*
G75*
G02*
X26275000Y27281250I0J-243750D01*
G01*
G37*
G36*
G01*
X24700000Y27281250D02*
X24700000Y26718750D01*
G75*
G02*
X24456250Y26475000I-243750J0D01*
G01*
X23968750Y26475000D01*
G75*
G02*
X23725000Y26718750I0J243750D01*
G01*
X23725000Y27281250D01*
G75*
G02*
X23968750Y27525000I243750J0D01*
G01*
X24456250Y27525000D01*
G75*
G02*
X24700000Y27281250I0J-243750D01*
G01*
G37*
%TD*%
%TO.C,R3*%
G36*
G01*
X25300000Y24718750D02*
X25300000Y25281250D01*
G75*
G02*
X25543750Y25525000I243750J0D01*
G01*
X26031250Y25525000D01*
G75*
G02*
X26275000Y25281250I0J-243750D01*
G01*
X26275000Y24718750D01*
G75*
G02*
X26031250Y24475000I-243750J0D01*
G01*
X25543750Y24475000D01*
G75*
G02*
X25300000Y24718750I0J243750D01*
G01*
G37*
G36*
G01*
X23725000Y24718750D02*
X23725000Y25281250D01*
G75*
G02*
X23968750Y25525000I243750J0D01*
G01*
X24456250Y25525000D01*
G75*
G02*
X24700000Y25281250I0J-243750D01*
G01*
X24700000Y24718750D01*
G75*
G02*
X24456250Y24475000I-243750J0D01*
G01*
X23968750Y24475000D01*
G75*
G02*
X23725000Y24718750I0J243750D01*
G01*
G37*
%TD*%
%TO.C,R4*%
G36*
G01*
X84099565Y28702688D02*
X84497313Y29100435D01*
G75*
G02*
X84842027Y29100435I172357J-172357D01*
G01*
X85186741Y28755721D01*
G75*
G02*
X85186741Y28411007I-172357J-172357D01*
G01*
X84788993Y28013259D01*
G75*
G02*
X84444279Y28013259I-172357J172357D01*
G01*
X84099565Y28357973D01*
G75*
G02*
X84099565Y28702687I172357J172357D01*
G01*
G37*
G36*
G01*
X85213259Y27588994D02*
X85611007Y27986741D01*
G75*
G02*
X85955721Y27986741I172357J-172357D01*
G01*
X86300435Y27642027D01*
G75*
G02*
X86300435Y27297313I-172357J-172357D01*
G01*
X85902687Y26899565D01*
G75*
G02*
X85557973Y26899565I-172357J172357D01*
G01*
X85213259Y27244279D01*
G75*
G02*
X85213259Y27588993I172357J172357D01*
G01*
G37*
%TD*%
%TO.C,R5*%
G36*
G01*
X78863250Y19604000D02*
X78300750Y19604000D01*
G75*
G02*
X78057000Y19847750I0J243750D01*
G01*
X78057000Y20335250D01*
G75*
G02*
X78300750Y20579000I243750J0D01*
G01*
X78863250Y20579000D01*
G75*
G02*
X79107000Y20335250I0J-243750D01*
G01*
X79107000Y19847750D01*
G75*
G02*
X78863250Y19604000I-243750J0D01*
G01*
G37*
G36*
G01*
X78863250Y18029000D02*
X78300750Y18029000D01*
G75*
G02*
X78057000Y18272750I0J243750D01*
G01*
X78057000Y18760250D01*
G75*
G02*
X78300750Y19004000I243750J0D01*
G01*
X78863250Y19004000D01*
G75*
G02*
X79107000Y18760250I0J-243750D01*
G01*
X79107000Y18272750D01*
G75*
G02*
X78863250Y18029000I-243750J0D01*
G01*
G37*
%TD*%
%TO.C,R6*%
G36*
G01*
X86725000Y17718750D02*
X86725000Y18281250D01*
G75*
G02*
X86968750Y18525000I243750J0D01*
G01*
X87456250Y18525000D01*
G75*
G02*
X87700000Y18281250I0J-243750D01*
G01*
X87700000Y17718750D01*
G75*
G02*
X87456250Y17475000I-243750J0D01*
G01*
X86968750Y17475000D01*
G75*
G02*
X86725000Y17718750I0J243750D01*
G01*
G37*
G36*
G01*
X88300000Y17718750D02*
X88300000Y18281250D01*
G75*
G02*
X88543750Y18525000I243750J0D01*
G01*
X89031250Y18525000D01*
G75*
G02*
X89275000Y18281250I0J-243750D01*
G01*
X89275000Y17718750D01*
G75*
G02*
X89031250Y17475000I-243750J0D01*
G01*
X88543750Y17475000D01*
G75*
G02*
X88300000Y17718750I0J243750D01*
G01*
G37*
%TD*%
%TO.C,R7*%
G36*
G01*
X95918750Y13475000D02*
X96481250Y13475000D01*
G75*
G02*
X96725000Y13231250I0J-243750D01*
G01*
X96725000Y12743750D01*
G75*
G02*
X96481250Y12500000I-243750J0D01*
G01*
X95918750Y12500000D01*
G75*
G02*
X95675000Y12743750I0J243750D01*
G01*
X95675000Y13231250D01*
G75*
G02*
X95918750Y13475000I243750J0D01*
G01*
G37*
G36*
G01*
X95918750Y11900000D02*
X96481250Y11900000D01*
G75*
G02*
X96725000Y11656250I0J-243750D01*
G01*
X96725000Y11168750D01*
G75*
G02*
X96481250Y10925000I-243750J0D01*
G01*
X95918750Y10925000D01*
G75*
G02*
X95675000Y11168750I0J243750D01*
G01*
X95675000Y11656250D01*
G75*
G02*
X95918750Y11900000I243750J0D01*
G01*
G37*
%TD*%
%TO.C,R8*%
G36*
G01*
X81500000Y17718750D02*
X81500000Y18281250D01*
G75*
G02*
X81743750Y18525000I243750J0D01*
G01*
X82231250Y18525000D01*
G75*
G02*
X82475000Y18281250I0J-243750D01*
G01*
X82475000Y17718750D01*
G75*
G02*
X82231250Y17475000I-243750J0D01*
G01*
X81743750Y17475000D01*
G75*
G02*
X81500000Y17718750I0J243750D01*
G01*
G37*
G36*
G01*
X79925000Y17718750D02*
X79925000Y18281250D01*
G75*
G02*
X80168750Y18525000I243750J0D01*
G01*
X80656250Y18525000D01*
G75*
G02*
X80900000Y18281250I0J-243750D01*
G01*
X80900000Y17718750D01*
G75*
G02*
X80656250Y17475000I-243750J0D01*
G01*
X80168750Y17475000D01*
G75*
G02*
X79925000Y17718750I0J243750D01*
G01*
G37*
%TD*%
%TO.C,R9*%
G36*
G01*
X81918750Y3875000D02*
X82481250Y3875000D01*
G75*
G02*
X82725000Y3631250I0J-243750D01*
G01*
X82725000Y3143750D01*
G75*
G02*
X82481250Y2900000I-243750J0D01*
G01*
X81918750Y2900000D01*
G75*
G02*
X81675000Y3143750I0J243750D01*
G01*
X81675000Y3631250D01*
G75*
G02*
X81918750Y3875000I243750J0D01*
G01*
G37*
G36*
G01*
X81918750Y2300000D02*
X82481250Y2300000D01*
G75*
G02*
X82725000Y2056250I0J-243750D01*
G01*
X82725000Y1568750D01*
G75*
G02*
X82481250Y1325000I-243750J0D01*
G01*
X81918750Y1325000D01*
G75*
G02*
X81675000Y1568750I0J243750D01*
G01*
X81675000Y2056250D01*
G75*
G02*
X81918750Y2300000I243750J0D01*
G01*
G37*
%TD*%
%TO.C,R10*%
G36*
G01*
X75000000Y17718750D02*
X75000000Y18281250D01*
G75*
G02*
X75243750Y18525000I243750J0D01*
G01*
X75731250Y18525000D01*
G75*
G02*
X75975000Y18281250I0J-243750D01*
G01*
X75975000Y17718750D01*
G75*
G02*
X75731250Y17475000I-243750J0D01*
G01*
X75243750Y17475000D01*
G75*
G02*
X75000000Y17718750I0J243750D01*
G01*
G37*
G36*
G01*
X73425000Y17718750D02*
X73425000Y18281250D01*
G75*
G02*
X73668750Y18525000I243750J0D01*
G01*
X74156250Y18525000D01*
G75*
G02*
X74400000Y18281250I0J-243750D01*
G01*
X74400000Y17718750D01*
G75*
G02*
X74156250Y17475000I-243750J0D01*
G01*
X73668750Y17475000D01*
G75*
G02*
X73425000Y17718750I0J243750D01*
G01*
G37*
%TD*%
%TO.C,R11*%
G36*
G01*
X73518750Y3875000D02*
X74081250Y3875000D01*
G75*
G02*
X74325000Y3631250I0J-243750D01*
G01*
X74325000Y3143750D01*
G75*
G02*
X74081250Y2900000I-243750J0D01*
G01*
X73518750Y2900000D01*
G75*
G02*
X73275000Y3143750I0J243750D01*
G01*
X73275000Y3631250D01*
G75*
G02*
X73518750Y3875000I243750J0D01*
G01*
G37*
G36*
G01*
X73518750Y2300000D02*
X74081250Y2300000D01*
G75*
G02*
X74325000Y2056250I0J-243750D01*
G01*
X74325000Y1568750D01*
G75*
G02*
X74081250Y1325000I-243750J0D01*
G01*
X73518750Y1325000D01*
G75*
G02*
X73275000Y1568750I0J243750D01*
G01*
X73275000Y2056250D01*
G75*
G02*
X73518750Y2300000I243750J0D01*
G01*
G37*
%TD*%
%TO.C,R12*%
G36*
G01*
X68400000Y17718750D02*
X68400000Y18281250D01*
G75*
G02*
X68643750Y18525000I243750J0D01*
G01*
X69131250Y18525000D01*
G75*
G02*
X69375000Y18281250I0J-243750D01*
G01*
X69375000Y17718750D01*
G75*
G02*
X69131250Y17475000I-243750J0D01*
G01*
X68643750Y17475000D01*
G75*
G02*
X68400000Y17718750I0J243750D01*
G01*
G37*
G36*
G01*
X66825000Y17718750D02*
X66825000Y18281250D01*
G75*
G02*
X67068750Y18525000I243750J0D01*
G01*
X67556250Y18525000D01*
G75*
G02*
X67800000Y18281250I0J-243750D01*
G01*
X67800000Y17718750D01*
G75*
G02*
X67556250Y17475000I-243750J0D01*
G01*
X67068750Y17475000D01*
G75*
G02*
X66825000Y17718750I0J243750D01*
G01*
G37*
%TD*%
%TO.C,R13*%
G36*
G01*
X59718750Y13475000D02*
X60281250Y13475000D01*
G75*
G02*
X60525000Y13231250I0J-243750D01*
G01*
X60525000Y12743750D01*
G75*
G02*
X60281250Y12500000I-243750J0D01*
G01*
X59718750Y12500000D01*
G75*
G02*
X59475000Y12743750I0J243750D01*
G01*
X59475000Y13231250D01*
G75*
G02*
X59718750Y13475000I243750J0D01*
G01*
G37*
G36*
G01*
X59718750Y11900000D02*
X60281250Y11900000D01*
G75*
G02*
X60525000Y11656250I0J-243750D01*
G01*
X60525000Y11168750D01*
G75*
G02*
X60281250Y10925000I-243750J0D01*
G01*
X59718750Y10925000D01*
G75*
G02*
X59475000Y11168750I0J243750D01*
G01*
X59475000Y11656250D01*
G75*
G02*
X59718750Y11900000I243750J0D01*
G01*
G37*
%TD*%
%TO.C,R14*%
G36*
G01*
X55800000Y32518750D02*
X55800000Y33081250D01*
G75*
G02*
X56043750Y33325000I243750J0D01*
G01*
X56531250Y33325000D01*
G75*
G02*
X56775000Y33081250I0J-243750D01*
G01*
X56775000Y32518750D01*
G75*
G02*
X56531250Y32275000I-243750J0D01*
G01*
X56043750Y32275000D01*
G75*
G02*
X55800000Y32518750I0J243750D01*
G01*
G37*
G36*
G01*
X54225000Y32518750D02*
X54225000Y33081250D01*
G75*
G02*
X54468750Y33325000I243750J0D01*
G01*
X54956250Y33325000D01*
G75*
G02*
X55200000Y33081250I0J-243750D01*
G01*
X55200000Y32518750D01*
G75*
G02*
X54956250Y32275000I-243750J0D01*
G01*
X54468750Y32275000D01*
G75*
G02*
X54225000Y32518750I0J243750D01*
G01*
G37*
%TD*%
%TO.C,R15*%
G36*
G01*
X89575000Y48781250D02*
X89575000Y48218750D01*
G75*
G02*
X89331250Y47975000I-243750J0D01*
G01*
X88843750Y47975000D01*
G75*
G02*
X88600000Y48218750I0J243750D01*
G01*
X88600000Y48781250D01*
G75*
G02*
X88843750Y49025000I243750J0D01*
G01*
X89331250Y49025000D01*
G75*
G02*
X89575000Y48781250I0J-243750D01*
G01*
G37*
G36*
G01*
X88000000Y48781250D02*
X88000000Y48218750D01*
G75*
G02*
X87756250Y47975000I-243750J0D01*
G01*
X87268750Y47975000D01*
G75*
G02*
X87025000Y48218750I0J243750D01*
G01*
X87025000Y48781250D01*
G75*
G02*
X87268750Y49025000I243750J0D01*
G01*
X87756250Y49025000D01*
G75*
G02*
X88000000Y48781250I0J-243750D01*
G01*
G37*
%TD*%
%TO.C,R16*%
G36*
G01*
X68000000Y48218750D02*
X68000000Y48781250D01*
G75*
G02*
X68243750Y49025000I243750J0D01*
G01*
X68731250Y49025000D01*
G75*
G02*
X68975000Y48781250I0J-243750D01*
G01*
X68975000Y48218750D01*
G75*
G02*
X68731250Y47975000I-243750J0D01*
G01*
X68243750Y47975000D01*
G75*
G02*
X68000000Y48218750I0J243750D01*
G01*
G37*
G36*
G01*
X66425000Y48218750D02*
X66425000Y48781250D01*
G75*
G02*
X66668750Y49025000I243750J0D01*
G01*
X67156250Y49025000D01*
G75*
G02*
X67400000Y48781250I0J-243750D01*
G01*
X67400000Y48218750D01*
G75*
G02*
X67156250Y47975000I-243750J0D01*
G01*
X66668750Y47975000D01*
G75*
G02*
X66425000Y48218750I0J243750D01*
G01*
G37*
%TD*%
%TO.C,R17*%
G36*
G01*
X33281250Y25725000D02*
X32718750Y25725000D01*
G75*
G02*
X32475000Y25968750I0J243750D01*
G01*
X32475000Y26456250D01*
G75*
G02*
X32718750Y26700000I243750J0D01*
G01*
X33281250Y26700000D01*
G75*
G02*
X33525000Y26456250I0J-243750D01*
G01*
X33525000Y25968750D01*
G75*
G02*
X33281250Y25725000I-243750J0D01*
G01*
G37*
G36*
G01*
X33281250Y27300000D02*
X32718750Y27300000D01*
G75*
G02*
X32475000Y27543750I0J243750D01*
G01*
X32475000Y28031250D01*
G75*
G02*
X32718750Y28275000I243750J0D01*
G01*
X33281250Y28275000D01*
G75*
G02*
X33525000Y28031250I0J-243750D01*
G01*
X33525000Y27543750D01*
G75*
G02*
X33281250Y27300000I-243750J0D01*
G01*
G37*
%TD*%
%TO.C,R18*%
G36*
G01*
X68900000Y31681250D02*
X68900000Y31118750D01*
G75*
G02*
X68656250Y30875000I-243750J0D01*
G01*
X68168750Y30875000D01*
G75*
G02*
X67925000Y31118750I0J243750D01*
G01*
X67925000Y31681250D01*
G75*
G02*
X68168750Y31925000I243750J0D01*
G01*
X68656250Y31925000D01*
G75*
G02*
X68900000Y31681250I0J-243750D01*
G01*
G37*
G36*
G01*
X70475000Y31681250D02*
X70475000Y31118750D01*
G75*
G02*
X70231250Y30875000I-243750J0D01*
G01*
X69743750Y30875000D01*
G75*
G02*
X69500000Y31118750I0J243750D01*
G01*
X69500000Y31681250D01*
G75*
G02*
X69743750Y31925000I243750J0D01*
G01*
X70231250Y31925000D01*
G75*
G02*
X70475000Y31681250I0J-243750D01*
G01*
G37*
%TD*%
%TO.C,R19*%
G36*
G01*
X29700000Y28281250D02*
X29700000Y27718750D01*
G75*
G02*
X29456250Y27475000I-243750J0D01*
G01*
X28968750Y27475000D01*
G75*
G02*
X28725000Y27718750I0J243750D01*
G01*
X28725000Y28281250D01*
G75*
G02*
X28968750Y28525000I243750J0D01*
G01*
X29456250Y28525000D01*
G75*
G02*
X29700000Y28281250I0J-243750D01*
G01*
G37*
G36*
G01*
X31275000Y28281250D02*
X31275000Y27718750D01*
G75*
G02*
X31031250Y27475000I-243750J0D01*
G01*
X30543750Y27475000D01*
G75*
G02*
X30300000Y27718750I0J243750D01*
G01*
X30300000Y28281250D01*
G75*
G02*
X30543750Y28525000I243750J0D01*
G01*
X31031250Y28525000D01*
G75*
G02*
X31275000Y28281250I0J-243750D01*
G01*
G37*
%TD*%
%TO.C,R20*%
G36*
G01*
X47218750Y33275000D02*
X47781250Y33275000D01*
G75*
G02*
X48025000Y33031250I0J-243750D01*
G01*
X48025000Y32543750D01*
G75*
G02*
X47781250Y32300000I-243750J0D01*
G01*
X47218750Y32300000D01*
G75*
G02*
X46975000Y32543750I0J243750D01*
G01*
X46975000Y33031250D01*
G75*
G02*
X47218750Y33275000I243750J0D01*
G01*
G37*
G36*
G01*
X47218750Y31700000D02*
X47781250Y31700000D01*
G75*
G02*
X48025000Y31456250I0J-243750D01*
G01*
X48025000Y30968750D01*
G75*
G02*
X47781250Y30725000I-243750J0D01*
G01*
X47218750Y30725000D01*
G75*
G02*
X46975000Y30968750I0J243750D01*
G01*
X46975000Y31456250D01*
G75*
G02*
X47218750Y31700000I243750J0D01*
G01*
G37*
%TD*%
D18*
%TO.C,SW1*%
X37250000Y20500000D03*
X37250000Y8500000D03*
X43250000Y8500000D03*
X43250000Y20500000D03*
D19*
X39000000Y18500000D03*
X39000000Y14500000D03*
X39000000Y10500000D03*
%TD*%
D18*
%TO.C,SW2*%
X55500000Y35500000D03*
X60000000Y35500000D03*
X55500000Y42000000D03*
X60000000Y42000000D03*
%TD*%
D20*
%TO.C,U1*%
X25950000Y19900000D03*
X25000000Y19900000D03*
X24050000Y19900000D03*
X24050000Y22100000D03*
X25950000Y22100000D03*
X25000000Y22100000D03*
%TD*%
%TO.C,U2*%
G36*
G01*
X85318555Y34526167D02*
X85177134Y34384745D01*
G75*
G02*
X85035712Y34384745I-70711J70711D01*
G01*
X84010407Y35410050D01*
G75*
G02*
X84010407Y35551472I70711J70711D01*
G01*
X84151828Y35692893D01*
G75*
G02*
X84293250Y35692893I70711J-70711D01*
G01*
X85318555Y34667588D01*
G75*
G02*
X85318555Y34526166I-70711J-70711D01*
G01*
G37*
G36*
G01*
X84965002Y34172614D02*
X84823581Y34031192D01*
G75*
G02*
X84682159Y34031192I-70711J70711D01*
G01*
X83656854Y35056497D01*
G75*
G02*
X83656854Y35197919I70711J70711D01*
G01*
X83798275Y35339340D01*
G75*
G02*
X83939697Y35339340I70711J-70711D01*
G01*
X84965002Y34314035D01*
G75*
G02*
X84965002Y34172613I-70711J-70711D01*
G01*
G37*
G36*
G01*
X84611449Y33819061D02*
X84470028Y33677639D01*
G75*
G02*
X84328606Y33677639I-70711J70711D01*
G01*
X83303301Y34702944D01*
G75*
G02*
X83303301Y34844366I70711J70711D01*
G01*
X83444722Y34985787D01*
G75*
G02*
X83586144Y34985787I70711J-70711D01*
G01*
X84611449Y33960482D01*
G75*
G02*
X84611449Y33819060I-70711J-70711D01*
G01*
G37*
G36*
G01*
X84257895Y33465507D02*
X84116474Y33324085D01*
G75*
G02*
X83975052Y33324085I-70711J70711D01*
G01*
X82949747Y34349390D01*
G75*
G02*
X82949747Y34490812I70711J70711D01*
G01*
X83091168Y34632233D01*
G75*
G02*
X83232590Y34632233I70711J-70711D01*
G01*
X84257895Y33606928D01*
G75*
G02*
X84257895Y33465506I-70711J-70711D01*
G01*
G37*
G36*
G01*
X83904342Y33111954D02*
X83762921Y32970532D01*
G75*
G02*
X83621499Y32970532I-70711J70711D01*
G01*
X82596194Y33995837D01*
G75*
G02*
X82596194Y34137259I70711J70711D01*
G01*
X82737615Y34278680D01*
G75*
G02*
X82879037Y34278680I70711J-70711D01*
G01*
X83904342Y33253375D01*
G75*
G02*
X83904342Y33111953I-70711J-70711D01*
G01*
G37*
G36*
G01*
X83550788Y32758400D02*
X83409367Y32616978D01*
G75*
G02*
X83267945Y32616978I-70711J70711D01*
G01*
X82242640Y33642283D01*
G75*
G02*
X82242640Y33783705I70711J70711D01*
G01*
X82384061Y33925126D01*
G75*
G02*
X82525483Y33925126I70711J-70711D01*
G01*
X83550788Y32899821D01*
G75*
G02*
X83550788Y32758399I-70711J-70711D01*
G01*
G37*
G36*
G01*
X83197235Y32404847D02*
X83055814Y32263425D01*
G75*
G02*
X82914392Y32263425I-70711J70711D01*
G01*
X81889087Y33288730D01*
G75*
G02*
X81889087Y33430152I70711J70711D01*
G01*
X82030508Y33571573D01*
G75*
G02*
X82171930Y33571573I70711J-70711D01*
G01*
X83197235Y32546268D01*
G75*
G02*
X83197235Y32404846I-70711J-70711D01*
G01*
G37*
G36*
G01*
X82843682Y32051294D02*
X82702261Y31909872D01*
G75*
G02*
X82560839Y31909872I-70711J70711D01*
G01*
X81535534Y32935177D01*
G75*
G02*
X81535534Y33076599I70711J70711D01*
G01*
X81676955Y33218020D01*
G75*
G02*
X81818377Y33218020I70711J-70711D01*
G01*
X82843682Y32192715D01*
G75*
G02*
X82843682Y32051293I-70711J-70711D01*
G01*
G37*
G36*
G01*
X82490128Y31697740D02*
X82348707Y31556318D01*
G75*
G02*
X82207285Y31556318I-70711J70711D01*
G01*
X81181980Y32581623D01*
G75*
G02*
X81181980Y32723045I70711J70711D01*
G01*
X81323401Y32864466D01*
G75*
G02*
X81464823Y32864466I70711J-70711D01*
G01*
X82490128Y31839161D01*
G75*
G02*
X82490128Y31697739I-70711J-70711D01*
G01*
G37*
G36*
G01*
X82136575Y31344187D02*
X81995154Y31202765D01*
G75*
G02*
X81853732Y31202765I-70711J70711D01*
G01*
X80828427Y32228070D01*
G75*
G02*
X80828427Y32369492I70711J70711D01*
G01*
X80969848Y32510913D01*
G75*
G02*
X81111270Y32510913I70711J-70711D01*
G01*
X82136575Y31485608D01*
G75*
G02*
X82136575Y31344186I-70711J-70711D01*
G01*
G37*
G36*
G01*
X81783022Y30990634D02*
X81641601Y30849212D01*
G75*
G02*
X81500179Y30849212I-70711J70711D01*
G01*
X80474874Y31874517D01*
G75*
G02*
X80474874Y32015939I70711J70711D01*
G01*
X80616295Y32157360D01*
G75*
G02*
X80757717Y32157360I70711J-70711D01*
G01*
X81783022Y31132055D01*
G75*
G02*
X81783022Y30990633I-70711J-70711D01*
G01*
G37*
G36*
G01*
X81429468Y30637080D02*
X81288047Y30495658D01*
G75*
G02*
X81146625Y30495658I-70711J70711D01*
G01*
X80121320Y31520963D01*
G75*
G02*
X80121320Y31662385I70711J70711D01*
G01*
X80262741Y31803806D01*
G75*
G02*
X80404163Y31803806I70711J-70711D01*
G01*
X81429468Y30778501D01*
G75*
G02*
X81429468Y30637079I-70711J-70711D01*
G01*
G37*
G36*
G01*
X81075915Y30283527D02*
X80934494Y30142105D01*
G75*
G02*
X80793072Y30142105I-70711J70711D01*
G01*
X79767767Y31167410D01*
G75*
G02*
X79767767Y31308832I70711J70711D01*
G01*
X79909188Y31450253D01*
G75*
G02*
X80050610Y31450253I70711J-70711D01*
G01*
X81075915Y30424948D01*
G75*
G02*
X81075915Y30283526I-70711J-70711D01*
G01*
G37*
G36*
G01*
X80722361Y29929973D02*
X80580940Y29788551D01*
G75*
G02*
X80439518Y29788551I-70711J70711D01*
G01*
X79414213Y30813856D01*
G75*
G02*
X79414213Y30955278I70711J70711D01*
G01*
X79555634Y31096699D01*
G75*
G02*
X79697056Y31096699I70711J-70711D01*
G01*
X80722361Y30071394D01*
G75*
G02*
X80722361Y29929972I-70711J-70711D01*
G01*
G37*
G36*
G01*
X80368808Y29576420D02*
X80227387Y29434998D01*
G75*
G02*
X80085965Y29434998I-70711J70711D01*
G01*
X79060660Y30460303D01*
G75*
G02*
X79060660Y30601725I70711J70711D01*
G01*
X79202081Y30743146D01*
G75*
G02*
X79343503Y30743146I70711J-70711D01*
G01*
X80368808Y29717841D01*
G75*
G02*
X80368808Y29576419I-70711J-70711D01*
G01*
G37*
G36*
G01*
X80015255Y29222867D02*
X79873834Y29081445D01*
G75*
G02*
X79732412Y29081445I-70711J70711D01*
G01*
X78707107Y30106750D01*
G75*
G02*
X78707107Y30248172I70711J70711D01*
G01*
X78848528Y30389593D01*
G75*
G02*
X78989950Y30389593I70711J-70711D01*
G01*
X80015255Y29364288D01*
G75*
G02*
X80015255Y29222866I-70711J-70711D01*
G01*
G37*
G36*
G01*
X77292893Y30106750D02*
X76267588Y29081445D01*
G75*
G02*
X76126166Y29081445I-70711J70711D01*
G01*
X75984745Y29222866D01*
G75*
G02*
X75984745Y29364288I70711J70711D01*
G01*
X77010050Y30389593D01*
G75*
G02*
X77151472Y30389593I70711J-70711D01*
G01*
X77292893Y30248172D01*
G75*
G02*
X77292893Y30106750I-70711J-70711D01*
G01*
G37*
G36*
G01*
X76939340Y30460303D02*
X75914035Y29434998D01*
G75*
G02*
X75772613Y29434998I-70711J70711D01*
G01*
X75631192Y29576419D01*
G75*
G02*
X75631192Y29717841I70711J70711D01*
G01*
X76656497Y30743146D01*
G75*
G02*
X76797919Y30743146I70711J-70711D01*
G01*
X76939340Y30601725D01*
G75*
G02*
X76939340Y30460303I-70711J-70711D01*
G01*
G37*
G36*
G01*
X76585787Y30813856D02*
X75560482Y29788551D01*
G75*
G02*
X75419060Y29788551I-70711J70711D01*
G01*
X75277639Y29929972D01*
G75*
G02*
X75277639Y30071394I70711J70711D01*
G01*
X76302944Y31096699D01*
G75*
G02*
X76444366Y31096699I70711J-70711D01*
G01*
X76585787Y30955278D01*
G75*
G02*
X76585787Y30813856I-70711J-70711D01*
G01*
G37*
G36*
G01*
X76232233Y31167410D02*
X75206928Y30142105D01*
G75*
G02*
X75065506Y30142105I-70711J70711D01*
G01*
X74924085Y30283526D01*
G75*
G02*
X74924085Y30424948I70711J70711D01*
G01*
X75949390Y31450253D01*
G75*
G02*
X76090812Y31450253I70711J-70711D01*
G01*
X76232233Y31308832D01*
G75*
G02*
X76232233Y31167410I-70711J-70711D01*
G01*
G37*
G36*
G01*
X75878680Y31520963D02*
X74853375Y30495658D01*
G75*
G02*
X74711953Y30495658I-70711J70711D01*
G01*
X74570532Y30637079D01*
G75*
G02*
X74570532Y30778501I70711J70711D01*
G01*
X75595837Y31803806D01*
G75*
G02*
X75737259Y31803806I70711J-70711D01*
G01*
X75878680Y31662385D01*
G75*
G02*
X75878680Y31520963I-70711J-70711D01*
G01*
G37*
G36*
G01*
X75525126Y31874517D02*
X74499821Y30849212D01*
G75*
G02*
X74358399Y30849212I-70711J70711D01*
G01*
X74216978Y30990633D01*
G75*
G02*
X74216978Y31132055I70711J70711D01*
G01*
X75242283Y32157360D01*
G75*
G02*
X75383705Y32157360I70711J-70711D01*
G01*
X75525126Y32015939D01*
G75*
G02*
X75525126Y31874517I-70711J-70711D01*
G01*
G37*
G36*
G01*
X75171573Y32228070D02*
X74146268Y31202765D01*
G75*
G02*
X74004846Y31202765I-70711J70711D01*
G01*
X73863425Y31344186D01*
G75*
G02*
X73863425Y31485608I70711J70711D01*
G01*
X74888730Y32510913D01*
G75*
G02*
X75030152Y32510913I70711J-70711D01*
G01*
X75171573Y32369492D01*
G75*
G02*
X75171573Y32228070I-70711J-70711D01*
G01*
G37*
G36*
G01*
X74818020Y32581623D02*
X73792715Y31556318D01*
G75*
G02*
X73651293Y31556318I-70711J70711D01*
G01*
X73509872Y31697739D01*
G75*
G02*
X73509872Y31839161I70711J70711D01*
G01*
X74535177Y32864466D01*
G75*
G02*
X74676599Y32864466I70711J-70711D01*
G01*
X74818020Y32723045D01*
G75*
G02*
X74818020Y32581623I-70711J-70711D01*
G01*
G37*
G36*
G01*
X74464466Y32935177D02*
X73439161Y31909872D01*
G75*
G02*
X73297739Y31909872I-70711J70711D01*
G01*
X73156318Y32051293D01*
G75*
G02*
X73156318Y32192715I70711J70711D01*
G01*
X74181623Y33218020D01*
G75*
G02*
X74323045Y33218020I70711J-70711D01*
G01*
X74464466Y33076599D01*
G75*
G02*
X74464466Y32935177I-70711J-70711D01*
G01*
G37*
G36*
G01*
X74110913Y33288730D02*
X73085608Y32263425D01*
G75*
G02*
X72944186Y32263425I-70711J70711D01*
G01*
X72802765Y32404846D01*
G75*
G02*
X72802765Y32546268I70711J70711D01*
G01*
X73828070Y33571573D01*
G75*
G02*
X73969492Y33571573I70711J-70711D01*
G01*
X74110913Y33430152D01*
G75*
G02*
X74110913Y33288730I-70711J-70711D01*
G01*
G37*
G36*
G01*
X73757360Y33642283D02*
X72732055Y32616978D01*
G75*
G02*
X72590633Y32616978I-70711J70711D01*
G01*
X72449212Y32758399D01*
G75*
G02*
X72449212Y32899821I70711J70711D01*
G01*
X73474517Y33925126D01*
G75*
G02*
X73615939Y33925126I70711J-70711D01*
G01*
X73757360Y33783705D01*
G75*
G02*
X73757360Y33642283I-70711J-70711D01*
G01*
G37*
G36*
G01*
X73403806Y33995837D02*
X72378501Y32970532D01*
G75*
G02*
X72237079Y32970532I-70711J70711D01*
G01*
X72095658Y33111953D01*
G75*
G02*
X72095658Y33253375I70711J70711D01*
G01*
X73120963Y34278680D01*
G75*
G02*
X73262385Y34278680I70711J-70711D01*
G01*
X73403806Y34137259D01*
G75*
G02*
X73403806Y33995837I-70711J-70711D01*
G01*
G37*
G36*
G01*
X73050253Y34349390D02*
X72024948Y33324085D01*
G75*
G02*
X71883526Y33324085I-70711J70711D01*
G01*
X71742105Y33465506D01*
G75*
G02*
X71742105Y33606928I70711J70711D01*
G01*
X72767410Y34632233D01*
G75*
G02*
X72908832Y34632233I70711J-70711D01*
G01*
X73050253Y34490812D01*
G75*
G02*
X73050253Y34349390I-70711J-70711D01*
G01*
G37*
G36*
G01*
X72696699Y34702944D02*
X71671394Y33677639D01*
G75*
G02*
X71529972Y33677639I-70711J70711D01*
G01*
X71388551Y33819060D01*
G75*
G02*
X71388551Y33960482I70711J70711D01*
G01*
X72413856Y34985787D01*
G75*
G02*
X72555278Y34985787I70711J-70711D01*
G01*
X72696699Y34844366D01*
G75*
G02*
X72696699Y34702944I-70711J-70711D01*
G01*
G37*
G36*
G01*
X72343146Y35056497D02*
X71317841Y34031192D01*
G75*
G02*
X71176419Y34031192I-70711J70711D01*
G01*
X71034998Y34172613D01*
G75*
G02*
X71034998Y34314035I70711J70711D01*
G01*
X72060303Y35339340D01*
G75*
G02*
X72201725Y35339340I70711J-70711D01*
G01*
X72343146Y35197919D01*
G75*
G02*
X72343146Y35056497I-70711J-70711D01*
G01*
G37*
G36*
G01*
X71989593Y35410050D02*
X70964288Y34384745D01*
G75*
G02*
X70822866Y34384745I-70711J70711D01*
G01*
X70681445Y34526166D01*
G75*
G02*
X70681445Y34667588I70711J70711D01*
G01*
X71706750Y35692893D01*
G75*
G02*
X71848172Y35692893I70711J-70711D01*
G01*
X71989593Y35551472D01*
G75*
G02*
X71989593Y35410050I-70711J-70711D01*
G01*
G37*
G36*
G01*
X71989593Y37248529D02*
X71848172Y37107107D01*
G75*
G02*
X71706750Y37107107I-70711J70711D01*
G01*
X70681445Y38132412D01*
G75*
G02*
X70681445Y38273834I70711J70711D01*
G01*
X70822866Y38415255D01*
G75*
G02*
X70964288Y38415255I70711J-70711D01*
G01*
X71989593Y37389950D01*
G75*
G02*
X71989593Y37248528I-70711J-70711D01*
G01*
G37*
G36*
G01*
X72343146Y37602082D02*
X72201725Y37460660D01*
G75*
G02*
X72060303Y37460660I-70711J70711D01*
G01*
X71034998Y38485965D01*
G75*
G02*
X71034998Y38627387I70711J70711D01*
G01*
X71176419Y38768808D01*
G75*
G02*
X71317841Y38768808I70711J-70711D01*
G01*
X72343146Y37743503D01*
G75*
G02*
X72343146Y37602081I-70711J-70711D01*
G01*
G37*
G36*
G01*
X72696699Y37955635D02*
X72555278Y37814213D01*
G75*
G02*
X72413856Y37814213I-70711J70711D01*
G01*
X71388551Y38839518D01*
G75*
G02*
X71388551Y38980940I70711J70711D01*
G01*
X71529972Y39122361D01*
G75*
G02*
X71671394Y39122361I70711J-70711D01*
G01*
X72696699Y38097056D01*
G75*
G02*
X72696699Y37955634I-70711J-70711D01*
G01*
G37*
G36*
G01*
X73050253Y38309189D02*
X72908832Y38167767D01*
G75*
G02*
X72767410Y38167767I-70711J70711D01*
G01*
X71742105Y39193072D01*
G75*
G02*
X71742105Y39334494I70711J70711D01*
G01*
X71883526Y39475915D01*
G75*
G02*
X72024948Y39475915I70711J-70711D01*
G01*
X73050253Y38450610D01*
G75*
G02*
X73050253Y38309188I-70711J-70711D01*
G01*
G37*
G36*
G01*
X73403806Y38662742D02*
X73262385Y38521320D01*
G75*
G02*
X73120963Y38521320I-70711J70711D01*
G01*
X72095658Y39546625D01*
G75*
G02*
X72095658Y39688047I70711J70711D01*
G01*
X72237079Y39829468D01*
G75*
G02*
X72378501Y39829468I70711J-70711D01*
G01*
X73403806Y38804163D01*
G75*
G02*
X73403806Y38662741I-70711J-70711D01*
G01*
G37*
G36*
G01*
X73757360Y39016296D02*
X73615939Y38874874D01*
G75*
G02*
X73474517Y38874874I-70711J70711D01*
G01*
X72449212Y39900179D01*
G75*
G02*
X72449212Y40041601I70711J70711D01*
G01*
X72590633Y40183022D01*
G75*
G02*
X72732055Y40183022I70711J-70711D01*
G01*
X73757360Y39157717D01*
G75*
G02*
X73757360Y39016295I-70711J-70711D01*
G01*
G37*
G36*
G01*
X74110913Y39369849D02*
X73969492Y39228427D01*
G75*
G02*
X73828070Y39228427I-70711J70711D01*
G01*
X72802765Y40253732D01*
G75*
G02*
X72802765Y40395154I70711J70711D01*
G01*
X72944186Y40536575D01*
G75*
G02*
X73085608Y40536575I70711J-70711D01*
G01*
X74110913Y39511270D01*
G75*
G02*
X74110913Y39369848I-70711J-70711D01*
G01*
G37*
G36*
G01*
X74464466Y39723402D02*
X74323045Y39581980D01*
G75*
G02*
X74181623Y39581980I-70711J70711D01*
G01*
X73156318Y40607285D01*
G75*
G02*
X73156318Y40748707I70711J70711D01*
G01*
X73297739Y40890128D01*
G75*
G02*
X73439161Y40890128I70711J-70711D01*
G01*
X74464466Y39864823D01*
G75*
G02*
X74464466Y39723401I-70711J-70711D01*
G01*
G37*
G36*
G01*
X74818020Y40076956D02*
X74676599Y39935534D01*
G75*
G02*
X74535177Y39935534I-70711J70711D01*
G01*
X73509872Y40960839D01*
G75*
G02*
X73509872Y41102261I70711J70711D01*
G01*
X73651293Y41243682D01*
G75*
G02*
X73792715Y41243682I70711J-70711D01*
G01*
X74818020Y40218377D01*
G75*
G02*
X74818020Y40076955I-70711J-70711D01*
G01*
G37*
G36*
G01*
X75171573Y40430509D02*
X75030152Y40289087D01*
G75*
G02*
X74888730Y40289087I-70711J70711D01*
G01*
X73863425Y41314392D01*
G75*
G02*
X73863425Y41455814I70711J70711D01*
G01*
X74004846Y41597235D01*
G75*
G02*
X74146268Y41597235I70711J-70711D01*
G01*
X75171573Y40571930D01*
G75*
G02*
X75171573Y40430508I-70711J-70711D01*
G01*
G37*
G36*
G01*
X75525126Y40784062D02*
X75383705Y40642640D01*
G75*
G02*
X75242283Y40642640I-70711J70711D01*
G01*
X74216978Y41667945D01*
G75*
G02*
X74216978Y41809367I70711J70711D01*
G01*
X74358399Y41950788D01*
G75*
G02*
X74499821Y41950788I70711J-70711D01*
G01*
X75525126Y40925483D01*
G75*
G02*
X75525126Y40784061I-70711J-70711D01*
G01*
G37*
G36*
G01*
X75878680Y41137616D02*
X75737259Y40996194D01*
G75*
G02*
X75595837Y40996194I-70711J70711D01*
G01*
X74570532Y42021499D01*
G75*
G02*
X74570532Y42162921I70711J70711D01*
G01*
X74711953Y42304342D01*
G75*
G02*
X74853375Y42304342I70711J-70711D01*
G01*
X75878680Y41279037D01*
G75*
G02*
X75878680Y41137615I-70711J-70711D01*
G01*
G37*
G36*
G01*
X76232233Y41491169D02*
X76090812Y41349747D01*
G75*
G02*
X75949390Y41349747I-70711J70711D01*
G01*
X74924085Y42375052D01*
G75*
G02*
X74924085Y42516474I70711J70711D01*
G01*
X75065506Y42657895D01*
G75*
G02*
X75206928Y42657895I70711J-70711D01*
G01*
X76232233Y41632590D01*
G75*
G02*
X76232233Y41491168I-70711J-70711D01*
G01*
G37*
G36*
G01*
X76585787Y41844723D02*
X76444366Y41703301D01*
G75*
G02*
X76302944Y41703301I-70711J70711D01*
G01*
X75277639Y42728606D01*
G75*
G02*
X75277639Y42870028I70711J70711D01*
G01*
X75419060Y43011449D01*
G75*
G02*
X75560482Y43011449I70711J-70711D01*
G01*
X76585787Y41986144D01*
G75*
G02*
X76585787Y41844722I-70711J-70711D01*
G01*
G37*
G36*
G01*
X76939340Y42198276D02*
X76797919Y42056854D01*
G75*
G02*
X76656497Y42056854I-70711J70711D01*
G01*
X75631192Y43082159D01*
G75*
G02*
X75631192Y43223581I70711J70711D01*
G01*
X75772613Y43365002D01*
G75*
G02*
X75914035Y43365002I70711J-70711D01*
G01*
X76939340Y42339697D01*
G75*
G02*
X76939340Y42198275I-70711J-70711D01*
G01*
G37*
G36*
G01*
X77292893Y42551829D02*
X77151472Y42410407D01*
G75*
G02*
X77010050Y42410407I-70711J70711D01*
G01*
X75984745Y43435712D01*
G75*
G02*
X75984745Y43577134I70711J70711D01*
G01*
X76126166Y43718555D01*
G75*
G02*
X76267588Y43718555I70711J-70711D01*
G01*
X77292893Y42693250D01*
G75*
G02*
X77292893Y42551828I-70711J-70711D01*
G01*
G37*
G36*
G01*
X80015255Y43435712D02*
X78989950Y42410407D01*
G75*
G02*
X78848528Y42410407I-70711J70711D01*
G01*
X78707107Y42551828D01*
G75*
G02*
X78707107Y42693250I70711J70711D01*
G01*
X79732412Y43718555D01*
G75*
G02*
X79873834Y43718555I70711J-70711D01*
G01*
X80015255Y43577134D01*
G75*
G02*
X80015255Y43435712I-70711J-70711D01*
G01*
G37*
G36*
G01*
X80368808Y43082159D02*
X79343503Y42056854D01*
G75*
G02*
X79202081Y42056854I-70711J70711D01*
G01*
X79060660Y42198275D01*
G75*
G02*
X79060660Y42339697I70711J70711D01*
G01*
X80085965Y43365002D01*
G75*
G02*
X80227387Y43365002I70711J-70711D01*
G01*
X80368808Y43223581D01*
G75*
G02*
X80368808Y43082159I-70711J-70711D01*
G01*
G37*
G36*
G01*
X80722361Y42728606D02*
X79697056Y41703301D01*
G75*
G02*
X79555634Y41703301I-70711J70711D01*
G01*
X79414213Y41844722D01*
G75*
G02*
X79414213Y41986144I70711J70711D01*
G01*
X80439518Y43011449D01*
G75*
G02*
X80580940Y43011449I70711J-70711D01*
G01*
X80722361Y42870028D01*
G75*
G02*
X80722361Y42728606I-70711J-70711D01*
G01*
G37*
G36*
G01*
X81075915Y42375052D02*
X80050610Y41349747D01*
G75*
G02*
X79909188Y41349747I-70711J70711D01*
G01*
X79767767Y41491168D01*
G75*
G02*
X79767767Y41632590I70711J70711D01*
G01*
X80793072Y42657895D01*
G75*
G02*
X80934494Y42657895I70711J-70711D01*
G01*
X81075915Y42516474D01*
G75*
G02*
X81075915Y42375052I-70711J-70711D01*
G01*
G37*
G36*
G01*
X81429468Y42021499D02*
X80404163Y40996194D01*
G75*
G02*
X80262741Y40996194I-70711J70711D01*
G01*
X80121320Y41137615D01*
G75*
G02*
X80121320Y41279037I70711J70711D01*
G01*
X81146625Y42304342D01*
G75*
G02*
X81288047Y42304342I70711J-70711D01*
G01*
X81429468Y42162921D01*
G75*
G02*
X81429468Y42021499I-70711J-70711D01*
G01*
G37*
G36*
G01*
X81783022Y41667945D02*
X80757717Y40642640D01*
G75*
G02*
X80616295Y40642640I-70711J70711D01*
G01*
X80474874Y40784061D01*
G75*
G02*
X80474874Y40925483I70711J70711D01*
G01*
X81500179Y41950788D01*
G75*
G02*
X81641601Y41950788I70711J-70711D01*
G01*
X81783022Y41809367D01*
G75*
G02*
X81783022Y41667945I-70711J-70711D01*
G01*
G37*
G36*
G01*
X82136575Y41314392D02*
X81111270Y40289087D01*
G75*
G02*
X80969848Y40289087I-70711J70711D01*
G01*
X80828427Y40430508D01*
G75*
G02*
X80828427Y40571930I70711J70711D01*
G01*
X81853732Y41597235D01*
G75*
G02*
X81995154Y41597235I70711J-70711D01*
G01*
X82136575Y41455814D01*
G75*
G02*
X82136575Y41314392I-70711J-70711D01*
G01*
G37*
G36*
G01*
X82490128Y40960839D02*
X81464823Y39935534D01*
G75*
G02*
X81323401Y39935534I-70711J70711D01*
G01*
X81181980Y40076955D01*
G75*
G02*
X81181980Y40218377I70711J70711D01*
G01*
X82207285Y41243682D01*
G75*
G02*
X82348707Y41243682I70711J-70711D01*
G01*
X82490128Y41102261D01*
G75*
G02*
X82490128Y40960839I-70711J-70711D01*
G01*
G37*
G36*
G01*
X82843682Y40607285D02*
X81818377Y39581980D01*
G75*
G02*
X81676955Y39581980I-70711J70711D01*
G01*
X81535534Y39723401D01*
G75*
G02*
X81535534Y39864823I70711J70711D01*
G01*
X82560839Y40890128D01*
G75*
G02*
X82702261Y40890128I70711J-70711D01*
G01*
X82843682Y40748707D01*
G75*
G02*
X82843682Y40607285I-70711J-70711D01*
G01*
G37*
G36*
G01*
X83197235Y40253732D02*
X82171930Y39228427D01*
G75*
G02*
X82030508Y39228427I-70711J70711D01*
G01*
X81889087Y39369848D01*
G75*
G02*
X81889087Y39511270I70711J70711D01*
G01*
X82914392Y40536575D01*
G75*
G02*
X83055814Y40536575I70711J-70711D01*
G01*
X83197235Y40395154D01*
G75*
G02*
X83197235Y40253732I-70711J-70711D01*
G01*
G37*
G36*
G01*
X83550788Y39900179D02*
X82525483Y38874874D01*
G75*
G02*
X82384061Y38874874I-70711J70711D01*
G01*
X82242640Y39016295D01*
G75*
G02*
X82242640Y39157717I70711J70711D01*
G01*
X83267945Y40183022D01*
G75*
G02*
X83409367Y40183022I70711J-70711D01*
G01*
X83550788Y40041601D01*
G75*
G02*
X83550788Y39900179I-70711J-70711D01*
G01*
G37*
G36*
G01*
X83904342Y39546625D02*
X82879037Y38521320D01*
G75*
G02*
X82737615Y38521320I-70711J70711D01*
G01*
X82596194Y38662741D01*
G75*
G02*
X82596194Y38804163I70711J70711D01*
G01*
X83621499Y39829468D01*
G75*
G02*
X83762921Y39829468I70711J-70711D01*
G01*
X83904342Y39688047D01*
G75*
G02*
X83904342Y39546625I-70711J-70711D01*
G01*
G37*
G36*
G01*
X84257895Y39193072D02*
X83232590Y38167767D01*
G75*
G02*
X83091168Y38167767I-70711J70711D01*
G01*
X82949747Y38309188D01*
G75*
G02*
X82949747Y38450610I70711J70711D01*
G01*
X83975052Y39475915D01*
G75*
G02*
X84116474Y39475915I70711J-70711D01*
G01*
X84257895Y39334494D01*
G75*
G02*
X84257895Y39193072I-70711J-70711D01*
G01*
G37*
G36*
G01*
X84611449Y38839518D02*
X83586144Y37814213D01*
G75*
G02*
X83444722Y37814213I-70711J70711D01*
G01*
X83303301Y37955634D01*
G75*
G02*
X83303301Y38097056I70711J70711D01*
G01*
X84328606Y39122361D01*
G75*
G02*
X84470028Y39122361I70711J-70711D01*
G01*
X84611449Y38980940D01*
G75*
G02*
X84611449Y38839518I-70711J-70711D01*
G01*
G37*
G36*
G01*
X84965002Y38485965D02*
X83939697Y37460660D01*
G75*
G02*
X83798275Y37460660I-70711J70711D01*
G01*
X83656854Y37602081D01*
G75*
G02*
X83656854Y37743503I70711J70711D01*
G01*
X84682159Y38768808D01*
G75*
G02*
X84823581Y38768808I70711J-70711D01*
G01*
X84965002Y38627387D01*
G75*
G02*
X84965002Y38485965I-70711J-70711D01*
G01*
G37*
G36*
G01*
X85318555Y38132412D02*
X84293250Y37107107D01*
G75*
G02*
X84151828Y37107107I-70711J70711D01*
G01*
X84010407Y37248528D01*
G75*
G02*
X84010407Y37389950I70711J70711D01*
G01*
X85035712Y38415255D01*
G75*
G02*
X85177134Y38415255I70711J-70711D01*
G01*
X85318555Y38273834D01*
G75*
G02*
X85318555Y38132412I-70711J-70711D01*
G01*
G37*
%TD*%
D21*
%TO.C,U3*%
X62850000Y29950000D03*
X63350000Y29950000D03*
X63850000Y29950000D03*
X64350000Y29950000D03*
X64850000Y29950000D03*
X65350000Y29950000D03*
X65350000Y28050000D03*
X64850000Y28050000D03*
X64350000Y28050000D03*
X63850000Y28050000D03*
X63350000Y28050000D03*
X62850000Y28050000D03*
D22*
X64100000Y29000000D03*
%TD*%
D23*
%TO.C,Y1*%
G36*
X87162563Y31954594D02*
G01*
X88435355Y30681802D01*
X88011091Y30257538D01*
X86738299Y31530330D01*
X87162563Y31954594D01*
G37*
G36*
X86384746Y31176777D02*
G01*
X87657538Y29903985D01*
X87233274Y29479721D01*
X85960482Y30752513D01*
X86384746Y31176777D01*
G37*
G36*
X85606928Y30398959D02*
G01*
X86879720Y29126167D01*
X86455456Y28701903D01*
X85182664Y29974695D01*
X85606928Y30398959D01*
G37*
%TD*%
D24*
%TO.C,Y2*%
X91000000Y27200000D03*
X93400000Y27200000D03*
X93400000Y31600000D03*
X91000000Y31600000D03*
%TD*%
%TO.C,FB1*%
G36*
G01*
X82325000Y21518750D02*
X82325000Y22081250D01*
G75*
G02*
X82568750Y22325000I243750J0D01*
G01*
X83056250Y22325000D01*
G75*
G02*
X83300000Y22081250I0J-243750D01*
G01*
X83300000Y21518750D01*
G75*
G02*
X83056250Y21275000I-243750J0D01*
G01*
X82568750Y21275000D01*
G75*
G02*
X82325000Y21518750I0J243750D01*
G01*
G37*
G36*
G01*
X83900000Y21518750D02*
X83900000Y22081250D01*
G75*
G02*
X84143750Y22325000I243750J0D01*
G01*
X84631250Y22325000D01*
G75*
G02*
X84875000Y22081250I0J-243750D01*
G01*
X84875000Y21518750D01*
G75*
G02*
X84631250Y21275000I-243750J0D01*
G01*
X84143750Y21275000D01*
G75*
G02*
X83900000Y21518750I0J243750D01*
G01*
G37*
%TD*%
%TO.C,C29*%
G36*
G01*
X79802500Y21460000D02*
X80197500Y21460000D01*
G75*
G02*
X80370000Y21287500I0J-172500D01*
G01*
X80370000Y20942500D01*
G75*
G02*
X80197500Y20770000I-172500J0D01*
G01*
X79802500Y20770000D01*
G75*
G02*
X79630000Y20942500I0J172500D01*
G01*
X79630000Y21287500D01*
G75*
G02*
X79802500Y21460000I172500J0D01*
G01*
G37*
G36*
G01*
X79802500Y22430000D02*
X80197500Y22430000D01*
G75*
G02*
X80370000Y22257500I0J-172500D01*
G01*
X80370000Y21912500D01*
G75*
G02*
X80197500Y21740000I-172500J0D01*
G01*
X79802500Y21740000D01*
G75*
G02*
X79630000Y21912500I0J172500D01*
G01*
X79630000Y22257500D01*
G75*
G02*
X79802500Y22430000I172500J0D01*
G01*
G37*
%TD*%
%TO.C,C30*%
G36*
G01*
X77430000Y22197500D02*
X77430000Y21802500D01*
G75*
G02*
X77257500Y21630000I-172500J0D01*
G01*
X76912500Y21630000D01*
G75*
G02*
X76740000Y21802500I0J172500D01*
G01*
X76740000Y22197500D01*
G75*
G02*
X76912500Y22370000I172500J0D01*
G01*
X77257500Y22370000D01*
G75*
G02*
X77430000Y22197500I0J-172500D01*
G01*
G37*
G36*
G01*
X76460000Y22197500D02*
X76460000Y21802500D01*
G75*
G02*
X76287500Y21630000I-172500J0D01*
G01*
X75942500Y21630000D01*
G75*
G02*
X75770000Y21802500I0J172500D01*
G01*
X75770000Y22197500D01*
G75*
G02*
X75942500Y22370000I172500J0D01*
G01*
X76287500Y22370000D01*
G75*
G02*
X76460000Y22197500I0J-172500D01*
G01*
G37*
%TD*%
%TO.C,C31*%
G36*
G01*
X74802500Y24630000D02*
X75197500Y24630000D01*
G75*
G02*
X75370000Y24457500I0J-172500D01*
G01*
X75370000Y24112500D01*
G75*
G02*
X75197500Y23940000I-172500J0D01*
G01*
X74802500Y23940000D01*
G75*
G02*
X74630000Y24112500I0J172500D01*
G01*
X74630000Y24457500D01*
G75*
G02*
X74802500Y24630000I172500J0D01*
G01*
G37*
G36*
G01*
X74802500Y23660000D02*
X75197500Y23660000D01*
G75*
G02*
X75370000Y23487500I0J-172500D01*
G01*
X75370000Y23142500D01*
G75*
G02*
X75197500Y22970000I-172500J0D01*
G01*
X74802500Y22970000D01*
G75*
G02*
X74630000Y23142500I0J172500D01*
G01*
X74630000Y23487500D01*
G75*
G02*
X74802500Y23660000I172500J0D01*
G01*
G37*
%TD*%
D23*
%TO.C,U4*%
G36*
X79160097Y25850241D02*
G01*
X79152293Y25851010D01*
X79142682Y25852922D01*
X79135179Y25855198D01*
X79126127Y25858947D01*
X79119211Y25862643D01*
X79111054Y25868093D01*
X79104993Y25873068D01*
X79098068Y25879993D01*
X79093093Y25886054D01*
X79087643Y25894211D01*
X79083947Y25901127D01*
X79080198Y25910179D01*
X79077922Y25917682D01*
X79076010Y25927293D01*
X79075241Y25935097D01*
X79075000Y25940000D01*
X79075000Y25963431D01*
X79075241Y25968334D01*
X79076010Y25976138D01*
X79077922Y25985749D01*
X79080198Y25993252D01*
X79083947Y26002304D01*
X79087643Y26009220D01*
X79093093Y26017377D01*
X79098068Y26023438D01*
X79101361Y26027070D01*
X79197930Y26123639D01*
X79201562Y26126932D01*
X79207623Y26131907D01*
X79215780Y26137357D01*
X79222696Y26141053D01*
X79231748Y26144802D01*
X79239251Y26147078D01*
X79248862Y26148990D01*
X79256666Y26149759D01*
X79261569Y26150000D01*
X79835000Y26150000D01*
X79839903Y26149759D01*
X79847707Y26148990D01*
X79857318Y26147078D01*
X79864821Y26144802D01*
X79873873Y26141053D01*
X79880789Y26137357D01*
X79888946Y26131907D01*
X79895007Y26126932D01*
X79901932Y26120007D01*
X79906907Y26113946D01*
X79912357Y26105789D01*
X79916053Y26098873D01*
X79919802Y26089821D01*
X79922078Y26082318D01*
X79923990Y26072707D01*
X79924759Y26064903D01*
X79925000Y26060000D01*
X79925000Y25940000D01*
X79924759Y25935097D01*
X79923990Y25927293D01*
X79922078Y25917682D01*
X79919802Y25910179D01*
X79916053Y25901127D01*
X79912357Y25894211D01*
X79906907Y25886054D01*
X79901932Y25879993D01*
X79895007Y25873068D01*
X79888946Y25868093D01*
X79880789Y25862643D01*
X79873873Y25858947D01*
X79864821Y25855198D01*
X79857318Y25852922D01*
X79847707Y25851010D01*
X79839903Y25850241D01*
X79835000Y25850000D01*
X79165000Y25850000D01*
X79160097Y25850241D01*
G37*
G36*
G01*
X79925000Y25675000D02*
X79925000Y25525000D01*
G75*
G02*
X79850000Y25450000I-75000J0D01*
G01*
X79150000Y25450000D01*
G75*
G02*
X79075000Y25525000I0J75000D01*
G01*
X79075000Y25675000D01*
G75*
G02*
X79150000Y25750000I75000J0D01*
G01*
X79850000Y25750000D01*
G75*
G02*
X79925000Y25675000I0J-75000D01*
G01*
G37*
G36*
G01*
X79925000Y25275000D02*
X79925000Y25125000D01*
G75*
G02*
X79850000Y25050000I-75000J0D01*
G01*
X79150000Y25050000D01*
G75*
G02*
X79075000Y25125000I0J75000D01*
G01*
X79075000Y25275000D01*
G75*
G02*
X79150000Y25350000I75000J0D01*
G01*
X79850000Y25350000D01*
G75*
G02*
X79925000Y25275000I0J-75000D01*
G01*
G37*
G36*
G01*
X79925000Y24875000D02*
X79925000Y24725000D01*
G75*
G02*
X79850000Y24650000I-75000J0D01*
G01*
X79150000Y24650000D01*
G75*
G02*
X79075000Y24725000I0J75000D01*
G01*
X79075000Y24875000D01*
G75*
G02*
X79150000Y24950000I75000J0D01*
G01*
X79850000Y24950000D01*
G75*
G02*
X79925000Y24875000I0J-75000D01*
G01*
G37*
G36*
G01*
X79925000Y24475000D02*
X79925000Y24325000D01*
G75*
G02*
X79850000Y24250000I-75000J0D01*
G01*
X79150000Y24250000D01*
G75*
G02*
X79075000Y24325000I0J75000D01*
G01*
X79075000Y24475000D01*
G75*
G02*
X79150000Y24550000I75000J0D01*
G01*
X79850000Y24550000D01*
G75*
G02*
X79925000Y24475000I0J-75000D01*
G01*
G37*
G36*
X79256666Y23850241D02*
G01*
X79248862Y23851010D01*
X79239251Y23852922D01*
X79231748Y23855198D01*
X79222696Y23858947D01*
X79215780Y23862643D01*
X79207623Y23868093D01*
X79201562Y23873068D01*
X79197930Y23876361D01*
X79101361Y23972930D01*
X79098068Y23976562D01*
X79093093Y23982623D01*
X79087643Y23990780D01*
X79083947Y23997696D01*
X79080198Y24006748D01*
X79077922Y24014251D01*
X79076010Y24023862D01*
X79075241Y24031666D01*
X79075000Y24036569D01*
X79075000Y24060000D01*
X79075241Y24064903D01*
X79076010Y24072707D01*
X79077922Y24082318D01*
X79080198Y24089821D01*
X79083947Y24098873D01*
X79087643Y24105789D01*
X79093093Y24113946D01*
X79098068Y24120007D01*
X79104993Y24126932D01*
X79111054Y24131907D01*
X79119211Y24137357D01*
X79126127Y24141053D01*
X79135179Y24144802D01*
X79142682Y24147078D01*
X79152293Y24148990D01*
X79160097Y24149759D01*
X79165000Y24150000D01*
X79835000Y24150000D01*
X79839903Y24149759D01*
X79847707Y24148990D01*
X79857318Y24147078D01*
X79864821Y24144802D01*
X79873873Y24141053D01*
X79880789Y24137357D01*
X79888946Y24131907D01*
X79895007Y24126932D01*
X79901932Y24120007D01*
X79906907Y24113946D01*
X79912357Y24105789D01*
X79916053Y24098873D01*
X79919802Y24089821D01*
X79922078Y24082318D01*
X79923990Y24072707D01*
X79924759Y24064903D01*
X79925000Y24060000D01*
X79925000Y23940000D01*
X79924759Y23935097D01*
X79923990Y23927293D01*
X79922078Y23917682D01*
X79919802Y23910179D01*
X79916053Y23901127D01*
X79912357Y23894211D01*
X79906907Y23886054D01*
X79901932Y23879993D01*
X79895007Y23873068D01*
X79888946Y23868093D01*
X79880789Y23862643D01*
X79873873Y23858947D01*
X79864821Y23855198D01*
X79857318Y23852922D01*
X79847707Y23851010D01*
X79839903Y23850241D01*
X79835000Y23850000D01*
X79261569Y23850000D01*
X79256666Y23850241D01*
G37*
G36*
X78935097Y23075241D02*
G01*
X78927293Y23076010D01*
X78917682Y23077922D01*
X78910179Y23080198D01*
X78901127Y23083947D01*
X78894211Y23087643D01*
X78886054Y23093093D01*
X78879993Y23098068D01*
X78873068Y23104993D01*
X78868093Y23111054D01*
X78862643Y23119211D01*
X78858947Y23126127D01*
X78855198Y23135179D01*
X78852922Y23142682D01*
X78851010Y23152293D01*
X78850241Y23160097D01*
X78850000Y23165000D01*
X78850000Y23835000D01*
X78850241Y23839903D01*
X78851010Y23847707D01*
X78852922Y23857318D01*
X78855198Y23864821D01*
X78858947Y23873873D01*
X78862643Y23880789D01*
X78868093Y23888946D01*
X78873068Y23895007D01*
X78879993Y23901932D01*
X78886054Y23906907D01*
X78894211Y23912357D01*
X78901127Y23916053D01*
X78910179Y23919802D01*
X78917682Y23922078D01*
X78927293Y23923990D01*
X78935097Y23924759D01*
X78940000Y23925000D01*
X78963431Y23925000D01*
X78968334Y23924759D01*
X78976138Y23923990D01*
X78985749Y23922078D01*
X78993252Y23919802D01*
X79002304Y23916053D01*
X79009220Y23912357D01*
X79017377Y23906907D01*
X79023438Y23901932D01*
X79027070Y23898639D01*
X79123639Y23802070D01*
X79126932Y23798438D01*
X79131907Y23792377D01*
X79137357Y23784220D01*
X79141053Y23777304D01*
X79144802Y23768252D01*
X79147078Y23760749D01*
X79148990Y23751138D01*
X79149759Y23743334D01*
X79150000Y23738431D01*
X79150000Y23165000D01*
X79149759Y23160097D01*
X79148990Y23152293D01*
X79147078Y23142682D01*
X79144802Y23135179D01*
X79141053Y23126127D01*
X79137357Y23119211D01*
X79131907Y23111054D01*
X79126932Y23104993D01*
X79120007Y23098068D01*
X79113946Y23093093D01*
X79105789Y23087643D01*
X79098873Y23083947D01*
X79089821Y23080198D01*
X79082318Y23077922D01*
X79072707Y23076010D01*
X79064903Y23075241D01*
X79060000Y23075000D01*
X78940000Y23075000D01*
X78935097Y23075241D01*
G37*
G36*
G01*
X78750000Y23850000D02*
X78750000Y23150000D01*
G75*
G02*
X78675000Y23075000I-75000J0D01*
G01*
X78525000Y23075000D01*
G75*
G02*
X78450000Y23150000I0J75000D01*
G01*
X78450000Y23850000D01*
G75*
G02*
X78525000Y23925000I75000J0D01*
G01*
X78675000Y23925000D01*
G75*
G02*
X78750000Y23850000I0J-75000D01*
G01*
G37*
G36*
G01*
X78350000Y23850000D02*
X78350000Y23150000D01*
G75*
G02*
X78275000Y23075000I-75000J0D01*
G01*
X78125000Y23075000D01*
G75*
G02*
X78050000Y23150000I0J75000D01*
G01*
X78050000Y23850000D01*
G75*
G02*
X78125000Y23925000I75000J0D01*
G01*
X78275000Y23925000D01*
G75*
G02*
X78350000Y23850000I0J-75000D01*
G01*
G37*
G36*
G01*
X77950000Y23850000D02*
X77950000Y23150000D01*
G75*
G02*
X77875000Y23075000I-75000J0D01*
G01*
X77725000Y23075000D01*
G75*
G02*
X77650000Y23150000I0J75000D01*
G01*
X77650000Y23850000D01*
G75*
G02*
X77725000Y23925000I75000J0D01*
G01*
X77875000Y23925000D01*
G75*
G02*
X77950000Y23850000I0J-75000D01*
G01*
G37*
G36*
G01*
X77550000Y23850000D02*
X77550000Y23150000D01*
G75*
G02*
X77475000Y23075000I-75000J0D01*
G01*
X77325000Y23075000D01*
G75*
G02*
X77250000Y23150000I0J75000D01*
G01*
X77250000Y23850000D01*
G75*
G02*
X77325000Y23925000I75000J0D01*
G01*
X77475000Y23925000D01*
G75*
G02*
X77550000Y23850000I0J-75000D01*
G01*
G37*
G36*
X76935097Y23075241D02*
G01*
X76927293Y23076010D01*
X76917682Y23077922D01*
X76910179Y23080198D01*
X76901127Y23083947D01*
X76894211Y23087643D01*
X76886054Y23093093D01*
X76879993Y23098068D01*
X76873068Y23104993D01*
X76868093Y23111054D01*
X76862643Y23119211D01*
X76858947Y23126127D01*
X76855198Y23135179D01*
X76852922Y23142682D01*
X76851010Y23152293D01*
X76850241Y23160097D01*
X76850000Y23165000D01*
X76850000Y23738431D01*
X76850241Y23743334D01*
X76851010Y23751138D01*
X76852922Y23760749D01*
X76855198Y23768252D01*
X76858947Y23777304D01*
X76862643Y23784220D01*
X76868093Y23792377D01*
X76873068Y23798438D01*
X76876361Y23802070D01*
X76972930Y23898639D01*
X76976562Y23901932D01*
X76982623Y23906907D01*
X76990780Y23912357D01*
X76997696Y23916053D01*
X77006748Y23919802D01*
X77014251Y23922078D01*
X77023862Y23923990D01*
X77031666Y23924759D01*
X77036569Y23925000D01*
X77060000Y23925000D01*
X77064903Y23924759D01*
X77072707Y23923990D01*
X77082318Y23922078D01*
X77089821Y23919802D01*
X77098873Y23916053D01*
X77105789Y23912357D01*
X77113946Y23906907D01*
X77120007Y23901932D01*
X77126932Y23895007D01*
X77131907Y23888946D01*
X77137357Y23880789D01*
X77141053Y23873873D01*
X77144802Y23864821D01*
X77147078Y23857318D01*
X77148990Y23847707D01*
X77149759Y23839903D01*
X77150000Y23835000D01*
X77150000Y23165000D01*
X77149759Y23160097D01*
X77148990Y23152293D01*
X77147078Y23142682D01*
X77144802Y23135179D01*
X77141053Y23126127D01*
X77137357Y23119211D01*
X77131907Y23111054D01*
X77126932Y23104993D01*
X77120007Y23098068D01*
X77113946Y23093093D01*
X77105789Y23087643D01*
X77098873Y23083947D01*
X77089821Y23080198D01*
X77082318Y23077922D01*
X77072707Y23076010D01*
X77064903Y23075241D01*
X77060000Y23075000D01*
X76940000Y23075000D01*
X76935097Y23075241D01*
G37*
G36*
X76160097Y23850241D02*
G01*
X76152293Y23851010D01*
X76142682Y23852922D01*
X76135179Y23855198D01*
X76126127Y23858947D01*
X76119211Y23862643D01*
X76111054Y23868093D01*
X76104993Y23873068D01*
X76098068Y23879993D01*
X76093093Y23886054D01*
X76087643Y23894211D01*
X76083947Y23901127D01*
X76080198Y23910179D01*
X76077922Y23917682D01*
X76076010Y23927293D01*
X76075241Y23935097D01*
X76075000Y23940000D01*
X76075000Y24060000D01*
X76075241Y24064903D01*
X76076010Y24072707D01*
X76077922Y24082318D01*
X76080198Y24089821D01*
X76083947Y24098873D01*
X76087643Y24105789D01*
X76093093Y24113946D01*
X76098068Y24120007D01*
X76104993Y24126932D01*
X76111054Y24131907D01*
X76119211Y24137357D01*
X76126127Y24141053D01*
X76135179Y24144802D01*
X76142682Y24147078D01*
X76152293Y24148990D01*
X76160097Y24149759D01*
X76165000Y24150000D01*
X76835000Y24150000D01*
X76839903Y24149759D01*
X76847707Y24148990D01*
X76857318Y24147078D01*
X76864821Y24144802D01*
X76873873Y24141053D01*
X76880789Y24137357D01*
X76888946Y24131907D01*
X76895007Y24126932D01*
X76901932Y24120007D01*
X76906907Y24113946D01*
X76912357Y24105789D01*
X76916053Y24098873D01*
X76919802Y24089821D01*
X76922078Y24082318D01*
X76923990Y24072707D01*
X76924759Y24064903D01*
X76925000Y24060000D01*
X76925000Y24036569D01*
X76924759Y24031666D01*
X76923990Y24023862D01*
X76922078Y24014251D01*
X76919802Y24006748D01*
X76916053Y23997696D01*
X76912357Y23990780D01*
X76906907Y23982623D01*
X76901932Y23976562D01*
X76898639Y23972930D01*
X76802070Y23876361D01*
X76798438Y23873068D01*
X76792377Y23868093D01*
X76784220Y23862643D01*
X76777304Y23858947D01*
X76768252Y23855198D01*
X76760749Y23852922D01*
X76751138Y23851010D01*
X76743334Y23850241D01*
X76738431Y23850000D01*
X76165000Y23850000D01*
X76160097Y23850241D01*
G37*
G36*
G01*
X76925000Y24475000D02*
X76925000Y24325000D01*
G75*
G02*
X76850000Y24250000I-75000J0D01*
G01*
X76150000Y24250000D01*
G75*
G02*
X76075000Y24325000I0J75000D01*
G01*
X76075000Y24475000D01*
G75*
G02*
X76150000Y24550000I75000J0D01*
G01*
X76850000Y24550000D01*
G75*
G02*
X76925000Y24475000I0J-75000D01*
G01*
G37*
G36*
G01*
X76925000Y24875000D02*
X76925000Y24725000D01*
G75*
G02*
X76850000Y24650000I-75000J0D01*
G01*
X76150000Y24650000D01*
G75*
G02*
X76075000Y24725000I0J75000D01*
G01*
X76075000Y24875000D01*
G75*
G02*
X76150000Y24950000I75000J0D01*
G01*
X76850000Y24950000D01*
G75*
G02*
X76925000Y24875000I0J-75000D01*
G01*
G37*
G36*
G01*
X76925000Y25275000D02*
X76925000Y25125000D01*
G75*
G02*
X76850000Y25050000I-75000J0D01*
G01*
X76150000Y25050000D01*
G75*
G02*
X76075000Y25125000I0J75000D01*
G01*
X76075000Y25275000D01*
G75*
G02*
X76150000Y25350000I75000J0D01*
G01*
X76850000Y25350000D01*
G75*
G02*
X76925000Y25275000I0J-75000D01*
G01*
G37*
G36*
G01*
X76925000Y25675000D02*
X76925000Y25525000D01*
G75*
G02*
X76850000Y25450000I-75000J0D01*
G01*
X76150000Y25450000D01*
G75*
G02*
X76075000Y25525000I0J75000D01*
G01*
X76075000Y25675000D01*
G75*
G02*
X76150000Y25750000I75000J0D01*
G01*
X76850000Y25750000D01*
G75*
G02*
X76925000Y25675000I0J-75000D01*
G01*
G37*
G36*
X76160097Y25850241D02*
G01*
X76152293Y25851010D01*
X76142682Y25852922D01*
X76135179Y25855198D01*
X76126127Y25858947D01*
X76119211Y25862643D01*
X76111054Y25868093D01*
X76104993Y25873068D01*
X76098068Y25879993D01*
X76093093Y25886054D01*
X76087643Y25894211D01*
X76083947Y25901127D01*
X76080198Y25910179D01*
X76077922Y25917682D01*
X76076010Y25927293D01*
X76075241Y25935097D01*
X76075000Y25940000D01*
X76075000Y26060000D01*
X76075241Y26064903D01*
X76076010Y26072707D01*
X76077922Y26082318D01*
X76080198Y26089821D01*
X76083947Y26098873D01*
X76087643Y26105789D01*
X76093093Y26113946D01*
X76098068Y26120007D01*
X76104993Y26126932D01*
X76111054Y26131907D01*
X76119211Y26137357D01*
X76126127Y26141053D01*
X76135179Y26144802D01*
X76142682Y26147078D01*
X76152293Y26148990D01*
X76160097Y26149759D01*
X76165000Y26150000D01*
X76738431Y26150000D01*
X76743334Y26149759D01*
X76751138Y26148990D01*
X76760749Y26147078D01*
X76768252Y26144802D01*
X76777304Y26141053D01*
X76784220Y26137357D01*
X76792377Y26131907D01*
X76798438Y26126932D01*
X76802070Y26123639D01*
X76898639Y26027070D01*
X76901932Y26023438D01*
X76906907Y26017377D01*
X76912357Y26009220D01*
X76916053Y26002304D01*
X76919802Y25993252D01*
X76922078Y25985749D01*
X76923990Y25976138D01*
X76924759Y25968334D01*
X76925000Y25963431D01*
X76925000Y25940000D01*
X76924759Y25935097D01*
X76923990Y25927293D01*
X76922078Y25917682D01*
X76919802Y25910179D01*
X76916053Y25901127D01*
X76912357Y25894211D01*
X76906907Y25886054D01*
X76901932Y25879993D01*
X76895007Y25873068D01*
X76888946Y25868093D01*
X76880789Y25862643D01*
X76873873Y25858947D01*
X76864821Y25855198D01*
X76857318Y25852922D01*
X76847707Y25851010D01*
X76839903Y25850241D01*
X76835000Y25850000D01*
X76165000Y25850000D01*
X76160097Y25850241D01*
G37*
G36*
X77031666Y26075241D02*
G01*
X77023862Y26076010D01*
X77014251Y26077922D01*
X77006748Y26080198D01*
X76997696Y26083947D01*
X76990780Y26087643D01*
X76982623Y26093093D01*
X76976562Y26098068D01*
X76972930Y26101361D01*
X76876361Y26197930D01*
X76873068Y26201562D01*
X76868093Y26207623D01*
X76862643Y26215780D01*
X76858947Y26222696D01*
X76855198Y26231748D01*
X76852922Y26239251D01*
X76851010Y26248862D01*
X76850241Y26256666D01*
X76850000Y26261569D01*
X76850000Y26835000D01*
X76850241Y26839903D01*
X76851010Y26847707D01*
X76852922Y26857318D01*
X76855198Y26864821D01*
X76858947Y26873873D01*
X76862643Y26880789D01*
X76868093Y26888946D01*
X76873068Y26895007D01*
X76879993Y26901932D01*
X76886054Y26906907D01*
X76894211Y26912357D01*
X76901127Y26916053D01*
X76910179Y26919802D01*
X76917682Y26922078D01*
X76927293Y26923990D01*
X76935097Y26924759D01*
X76940000Y26925000D01*
X77060000Y26925000D01*
X77064903Y26924759D01*
X77072707Y26923990D01*
X77082318Y26922078D01*
X77089821Y26919802D01*
X77098873Y26916053D01*
X77105789Y26912357D01*
X77113946Y26906907D01*
X77120007Y26901932D01*
X77126932Y26895007D01*
X77131907Y26888946D01*
X77137357Y26880789D01*
X77141053Y26873873D01*
X77144802Y26864821D01*
X77147078Y26857318D01*
X77148990Y26847707D01*
X77149759Y26839903D01*
X77150000Y26835000D01*
X77150000Y26165000D01*
X77149759Y26160097D01*
X77148990Y26152293D01*
X77147078Y26142682D01*
X77144802Y26135179D01*
X77141053Y26126127D01*
X77137357Y26119211D01*
X77131907Y26111054D01*
X77126932Y26104993D01*
X77120007Y26098068D01*
X77113946Y26093093D01*
X77105789Y26087643D01*
X77098873Y26083947D01*
X77089821Y26080198D01*
X77082318Y26077922D01*
X77072707Y26076010D01*
X77064903Y26075241D01*
X77060000Y26075000D01*
X77036569Y26075000D01*
X77031666Y26075241D01*
G37*
G36*
G01*
X77550000Y26850000D02*
X77550000Y26150000D01*
G75*
G02*
X77475000Y26075000I-75000J0D01*
G01*
X77325000Y26075000D01*
G75*
G02*
X77250000Y26150000I0J75000D01*
G01*
X77250000Y26850000D01*
G75*
G02*
X77325000Y26925000I75000J0D01*
G01*
X77475000Y26925000D01*
G75*
G02*
X77550000Y26850000I0J-75000D01*
G01*
G37*
G36*
G01*
X77950000Y26850000D02*
X77950000Y26150000D01*
G75*
G02*
X77875000Y26075000I-75000J0D01*
G01*
X77725000Y26075000D01*
G75*
G02*
X77650000Y26150000I0J75000D01*
G01*
X77650000Y26850000D01*
G75*
G02*
X77725000Y26925000I75000J0D01*
G01*
X77875000Y26925000D01*
G75*
G02*
X77950000Y26850000I0J-75000D01*
G01*
G37*
G36*
G01*
X78350000Y26850000D02*
X78350000Y26150000D01*
G75*
G02*
X78275000Y26075000I-75000J0D01*
G01*
X78125000Y26075000D01*
G75*
G02*
X78050000Y26150000I0J75000D01*
G01*
X78050000Y26850000D01*
G75*
G02*
X78125000Y26925000I75000J0D01*
G01*
X78275000Y26925000D01*
G75*
G02*
X78350000Y26850000I0J-75000D01*
G01*
G37*
G36*
G01*
X78750000Y26850000D02*
X78750000Y26150000D01*
G75*
G02*
X78675000Y26075000I-75000J0D01*
G01*
X78525000Y26075000D01*
G75*
G02*
X78450000Y26150000I0J75000D01*
G01*
X78450000Y26850000D01*
G75*
G02*
X78525000Y26925000I75000J0D01*
G01*
X78675000Y26925000D01*
G75*
G02*
X78750000Y26850000I0J-75000D01*
G01*
G37*
G36*
X78935097Y26075241D02*
G01*
X78927293Y26076010D01*
X78917682Y26077922D01*
X78910179Y26080198D01*
X78901127Y26083947D01*
X78894211Y26087643D01*
X78886054Y26093093D01*
X78879993Y26098068D01*
X78873068Y26104993D01*
X78868093Y26111054D01*
X78862643Y26119211D01*
X78858947Y26126127D01*
X78855198Y26135179D01*
X78852922Y26142682D01*
X78851010Y26152293D01*
X78850241Y26160097D01*
X78850000Y26165000D01*
X78850000Y26835000D01*
X78850241Y26839903D01*
X78851010Y26847707D01*
X78852922Y26857318D01*
X78855198Y26864821D01*
X78858947Y26873873D01*
X78862643Y26880789D01*
X78868093Y26888946D01*
X78873068Y26895007D01*
X78879993Y26901932D01*
X78886054Y26906907D01*
X78894211Y26912357D01*
X78901127Y26916053D01*
X78910179Y26919802D01*
X78917682Y26922078D01*
X78927293Y26923990D01*
X78935097Y26924759D01*
X78940000Y26925000D01*
X79060000Y26925000D01*
X79064903Y26924759D01*
X79072707Y26923990D01*
X79082318Y26922078D01*
X79089821Y26919802D01*
X79098873Y26916053D01*
X79105789Y26912357D01*
X79113946Y26906907D01*
X79120007Y26901932D01*
X79126932Y26895007D01*
X79131907Y26888946D01*
X79137357Y26880789D01*
X79141053Y26873873D01*
X79144802Y26864821D01*
X79147078Y26857318D01*
X79148990Y26847707D01*
X79149759Y26839903D01*
X79150000Y26835000D01*
X79150000Y26261569D01*
X79149759Y26256666D01*
X79148990Y26248862D01*
X79147078Y26239251D01*
X79144802Y26231748D01*
X79141053Y26222696D01*
X79137357Y26215780D01*
X79131907Y26207623D01*
X79126932Y26201562D01*
X79123639Y26197930D01*
X79027070Y26101361D01*
X79023438Y26098068D01*
X79017377Y26093093D01*
X79009220Y26087643D01*
X79002304Y26083947D01*
X78993252Y26080198D01*
X78985749Y26077922D01*
X78976138Y26076010D01*
X78968334Y26075241D01*
X78963431Y26075000D01*
X78940000Y26075000D01*
X78935097Y26075241D01*
G37*
D25*
X78000000Y25000000D03*
%TD*%
D15*
%TO.C,D2*%
X98460000Y16000000D03*
D16*
X101000000Y16000000D03*
%TD*%
D23*
%TO.C,D3*%
G36*
X82729423Y9829423D02*
G01*
X81829423Y8270577D01*
X80270577Y9170577D01*
X81170577Y10729423D01*
X82729423Y9829423D01*
G37*
G36*
G01*
X81009423Y6850295D02*
X81009423Y6850295D01*
G75*
G02*
X79780000Y6520872I-779423J450000D01*
G01*
X79780000Y6520872D01*
G75*
G02*
X79450577Y7750295I450000J779423D01*
G01*
X79450577Y7750295D01*
G75*
G02*
X80680000Y8079718I779423J-450000D01*
G01*
X80680000Y8079718D01*
G75*
G02*
X81009423Y6850295I-450000J-779423D01*
G01*
G37*
%TD*%
%TO.C,D4*%
G36*
G01*
X76549423Y7750295D02*
X76549423Y7750295D01*
G75*
G02*
X76220000Y6520872I-779423J-450000D01*
G01*
X76220000Y6520872D01*
G75*
G02*
X74990577Y6850295I-450000J779423D01*
G01*
X74990577Y6850295D01*
G75*
G02*
X75320000Y8079718I779423J450000D01*
G01*
X75320000Y8079718D01*
G75*
G02*
X76549423Y7750295I450000J-779423D01*
G01*
G37*
G36*
X74829423Y10729423D02*
G01*
X75729423Y9170577D01*
X74170577Y8270577D01*
X73270577Y9829423D01*
X74829423Y10729423D01*
G37*
%TD*%
D16*
%TO.C,D5*%
X55000000Y16000000D03*
D15*
X57540000Y16000000D03*
%TD*%
D16*
%TO.C,Q2*%
X101000000Y13000000D03*
D15*
X98460000Y13000000D03*
%TD*%
%TO.C,Q4*%
G36*
G01*
X83509423Y5350295D02*
X83509423Y5350295D01*
G75*
G02*
X82280000Y5020872I-779423J450000D01*
G01*
X82280000Y5020872D01*
G75*
G02*
X81950577Y6250295I450000J779423D01*
G01*
X81950577Y6250295D01*
G75*
G02*
X83180000Y6579718I779423J-450000D01*
G01*
X83180000Y6579718D01*
G75*
G02*
X83509423Y5350295I-450000J-779423D01*
G01*
G37*
D23*
G36*
X85229423Y8329423D02*
G01*
X84329423Y6770577D01*
X82770577Y7670577D01*
X83670577Y9229423D01*
X85229423Y8329423D01*
G37*
%TD*%
%TO.C,Q6*%
G36*
X72329423Y9229423D02*
G01*
X73229423Y7670577D01*
X71670577Y6770577D01*
X70770577Y8329423D01*
X72329423Y9229423D01*
G37*
G36*
G01*
X74049423Y6250295D02*
X74049423Y6250295D01*
G75*
G02*
X73720000Y5020872I-779423J-450000D01*
G01*
X73720000Y5020872D01*
G75*
G02*
X72490577Y5350295I-450000J779423D01*
G01*
X72490577Y5350295D01*
G75*
G02*
X72820000Y6579718I779423J450000D01*
G01*
X72820000Y6579718D01*
G75*
G02*
X74049423Y6250295I450000J-779423D01*
G01*
G37*
%TD*%
D15*
%TO.C,Q8*%
X57540000Y13000000D03*
D16*
X55000000Y13000000D03*
%TD*%
%TO.C,J1*%
G36*
G01*
X16750000Y3845832D02*
X16750000Y5154168D01*
G75*
G02*
X17020832Y5425000I270832J0D01*
G01*
X17779168Y5425000D01*
G75*
G02*
X18050000Y5154168I0J-270832D01*
G01*
X18050000Y3845832D01*
G75*
G02*
X17779168Y3575000I-270832J0D01*
G01*
X17020832Y3575000D01*
G75*
G02*
X16750000Y3845832I0J270832D01*
G01*
G37*
D26*
X19400000Y4500000D03*
%TD*%
%TO.C,FB2*%
G36*
G01*
X91125000Y8918750D02*
X91125000Y9481250D01*
G75*
G02*
X91368750Y9725000I243750J0D01*
G01*
X91856250Y9725000D01*
G75*
G02*
X92100000Y9481250I0J-243750D01*
G01*
X92100000Y8918750D01*
G75*
G02*
X91856250Y8675000I-243750J0D01*
G01*
X91368750Y8675000D01*
G75*
G02*
X91125000Y8918750I0J243750D01*
G01*
G37*
G36*
G01*
X92700000Y8918750D02*
X92700000Y9481250D01*
G75*
G02*
X92943750Y9725000I243750J0D01*
G01*
X93431250Y9725000D01*
G75*
G02*
X93675000Y9481250I0J-243750D01*
G01*
X93675000Y8918750D01*
G75*
G02*
X93431250Y8675000I-243750J0D01*
G01*
X92943750Y8675000D01*
G75*
G02*
X92700000Y8918750I0J243750D01*
G01*
G37*
%TD*%
M02*
