%TF.GenerationSoftware,KiCad,Pcbnew,5.1.6-c6e7f7d~87~ubuntu18.04.1*%
%TF.CreationDate,2020-09-01T11:59:09+09:00*%
%TF.ProjectId,m5mouse,6d356d6f-7573-4652-9e6b-696361645f70,rev?*%
%TF.SameCoordinates,PX4c4b400PY8583b00*%
%TF.FileFunction,Legend,Bot*%
%TF.FilePolarity,Positive*%
%FSLAX46Y46*%
G04 Gerber Fmt 4.6, Leading zero omitted, Abs format (unit mm)*
G04 Created by KiCad (PCBNEW 5.1.6-c6e7f7d~87~ubuntu18.04.1) date 2020-09-01 11:59:09*
%MOMM*%
%LPD*%
G01*
G04 APERTURE LIST*
%ADD10C,0.120000*%
%ADD11C,0.150000*%
G04 APERTURE END LIST*
D10*
%TO.C,D1*%
X46765000Y27015000D02*
X46765000Y29300000D01*
X48235000Y27015000D02*
X46765000Y27015000D01*
X48235000Y29300000D02*
X48235000Y27015000D01*
%TO.C,D6*%
X99300000Y47765000D02*
X97015000Y47765000D01*
X97015000Y47765000D02*
X97015000Y49235000D01*
X97015000Y49235000D02*
X99300000Y49235000D01*
%TO.C,D7*%
X70700000Y49235000D02*
X72985000Y49235000D01*
X72985000Y49235000D02*
X72985000Y47765000D01*
X72985000Y47765000D02*
X70700000Y47765000D01*
%TO.C,IC1*%
X28650000Y34450000D02*
X28650000Y38150000D01*
X21950000Y34450000D02*
X28650000Y34450000D01*
X21950000Y38150000D02*
X21950000Y34450000D01*
X28650000Y38150000D02*
X21950000Y38150000D01*
%TO.C,J3*%
X105290000Y43610000D02*
X109310000Y43610000D01*
X109310000Y43610000D02*
X109310000Y25890000D01*
X109310000Y25890000D02*
X105290000Y25890000D01*
X105290000Y25890000D02*
X105290000Y43610000D01*
X107000000Y43610000D02*
X107000000Y43110000D01*
X107000000Y43110000D02*
X105790000Y43110000D01*
X105790000Y43110000D02*
X105790000Y26390000D01*
X105790000Y26390000D02*
X107000000Y26390000D01*
X107000000Y26390000D02*
X107000000Y25890000D01*
X107810000Y43610000D02*
X107810000Y42610000D01*
X107810000Y42610000D02*
X109310000Y42610000D01*
X107810000Y25890000D02*
X107810000Y26890000D01*
X107810000Y26890000D02*
X109310000Y26890000D01*
X107110000Y43910000D02*
X109610000Y43910000D01*
X109610000Y43910000D02*
X109610000Y41410000D01*
%TO.C,J4*%
X94370000Y38170000D02*
X95700000Y38170000D01*
X94370000Y39500000D02*
X94370000Y38170000D01*
X96970000Y38170000D02*
X99570000Y38170000D01*
X96970000Y40770000D02*
X96970000Y38170000D01*
X94370000Y40770000D02*
X96970000Y40770000D01*
X99570000Y38170000D02*
X99570000Y45910000D01*
X94370000Y40770000D02*
X94370000Y45910000D01*
X94370000Y45910000D02*
X99570000Y45910000D01*
%TO.C,J5*%
X75730000Y38090000D02*
X70530000Y38090000D01*
X75730000Y43230000D02*
X75730000Y38090000D01*
X70530000Y45830000D02*
X70530000Y38090000D01*
X75730000Y43230000D02*
X73130000Y43230000D01*
X73130000Y43230000D02*
X73130000Y45830000D01*
X73130000Y45830000D02*
X70530000Y45830000D01*
X75730000Y44500000D02*
X75730000Y45830000D01*
X75730000Y45830000D02*
X74400000Y45830000D01*
%TO.C,J6*%
X61470000Y30810000D02*
X64130000Y30810000D01*
X61470000Y25670000D02*
X61470000Y30810000D01*
X64130000Y25670000D02*
X64130000Y30810000D01*
X61470000Y25670000D02*
X64130000Y25670000D01*
X61470000Y24400000D02*
X61470000Y23070000D01*
X61470000Y23070000D02*
X62800000Y23070000D01*
%TO.C,J7*%
X19920000Y48130000D02*
X19920000Y45470000D01*
X19920000Y48130000D02*
X32680000Y48130000D01*
X32680000Y48130000D02*
X32680000Y45470000D01*
X19920000Y45470000D02*
X32680000Y45470000D01*
X17320000Y45470000D02*
X18650000Y45470000D01*
X17320000Y46800000D02*
X17320000Y45470000D01*
%TO.C,L1*%
X25738748Y11390000D02*
X26261252Y11390000D01*
X25738748Y13610000D02*
X26261252Y13610000D01*
%TO.C,Q1*%
X96580000Y14240000D02*
X95650000Y14240000D01*
X93420000Y14240000D02*
X94350000Y14240000D01*
X93420000Y14240000D02*
X93420000Y16400000D01*
X96580000Y14240000D02*
X96580000Y15700000D01*
%TO.C,Q3*%
X89780000Y14240000D02*
X89780000Y15700000D01*
X86620000Y14240000D02*
X86620000Y16400000D01*
X86620000Y14240000D02*
X87550000Y14240000D01*
X89780000Y14240000D02*
X88850000Y14240000D01*
%TO.C,Q5*%
X83280000Y14240000D02*
X82350000Y14240000D01*
X80120000Y14240000D02*
X81050000Y14240000D01*
X80120000Y14240000D02*
X80120000Y16400000D01*
X83280000Y14240000D02*
X83280000Y15700000D01*
%TO.C,Q7*%
X76680000Y14240000D02*
X76680000Y15700000D01*
X73520000Y14240000D02*
X73520000Y16400000D01*
X73520000Y14240000D02*
X74450000Y14240000D01*
X76680000Y14240000D02*
X75750000Y14240000D01*
%TO.C,R1*%
X30162779Y25490000D02*
X29837221Y25490000D01*
X30162779Y26510000D02*
X29837221Y26510000D01*
%TO.C,R2*%
X25162779Y27510000D02*
X24837221Y27510000D01*
X25162779Y26490000D02*
X24837221Y26490000D01*
%TO.C,R3*%
X24837221Y25510000D02*
X25162779Y25510000D01*
X24837221Y24490000D02*
X25162779Y24490000D01*
%TO.C,R4*%
X96310000Y25637221D02*
X96310000Y25962779D01*
X95290000Y25637221D02*
X95290000Y25962779D01*
%TO.C,R5*%
X76690000Y27337221D02*
X76690000Y27662779D01*
X77710000Y27337221D02*
X77710000Y27662779D01*
%TO.C,R6*%
X94837221Y17490000D02*
X95162779Y17490000D01*
X94837221Y18510000D02*
X95162779Y18510000D01*
%TO.C,R7*%
X102562779Y12510000D02*
X102237221Y12510000D01*
X102562779Y11490000D02*
X102237221Y11490000D01*
%TO.C,R8*%
X88037221Y18510000D02*
X88362779Y18510000D01*
X88037221Y17490000D02*
X88362779Y17490000D01*
%TO.C,R9*%
X88690000Y2762779D02*
X88690000Y2437221D01*
X89710000Y2762779D02*
X89710000Y2437221D01*
%TO.C,R10*%
X81537221Y18510000D02*
X81862779Y18510000D01*
X81537221Y17490000D02*
X81862779Y17490000D01*
%TO.C,R11*%
X80290000Y2762779D02*
X80290000Y2437221D01*
X81310000Y2762779D02*
X81310000Y2437221D01*
%TO.C,R12*%
X74937221Y18510000D02*
X75262779Y18510000D01*
X74937221Y17490000D02*
X75262779Y17490000D01*
%TO.C,R13*%
X67337221Y12090000D02*
X67662779Y12090000D01*
X67337221Y13110000D02*
X67662779Y13110000D01*
%TO.C,R14*%
X62337221Y33310000D02*
X62662779Y33310000D01*
X62337221Y32290000D02*
X62662779Y32290000D01*
%TO.C,R15*%
X95462779Y49010000D02*
X95137221Y49010000D01*
X95462779Y47990000D02*
X95137221Y47990000D01*
%TO.C,R16*%
X74537221Y49010000D02*
X74862779Y49010000D01*
X74537221Y47990000D02*
X74862779Y47990000D01*
%TO.C,R17*%
X33510000Y26837221D02*
X33510000Y27162779D01*
X32490000Y26837221D02*
X32490000Y27162779D01*
%TO.C,R18*%
X76362779Y30890000D02*
X76037221Y30890000D01*
X76362779Y31910000D02*
X76037221Y31910000D01*
%TO.C,R19*%
X30162779Y27490000D02*
X29837221Y27490000D01*
X30162779Y28510000D02*
X29837221Y28510000D01*
%TO.C,R20*%
X46990000Y32162779D02*
X46990000Y31837221D01*
X48010000Y32162779D02*
X48010000Y31837221D01*
%TO.C,SW1*%
X36950000Y21800000D02*
X36950000Y20500000D01*
X38250000Y21800000D02*
X36950000Y21800000D01*
X44600000Y9550000D02*
X44600000Y19450000D01*
X37900000Y19450000D02*
X37900000Y9550000D01*
X43850000Y21500000D02*
X38650000Y21500000D01*
X38650000Y7500000D02*
X43850000Y7500000D01*
%TO.C,SW2*%
X61500000Y36500000D02*
X61500000Y41000000D01*
X65500000Y35250000D02*
X64000000Y35250000D01*
X68000000Y41000000D02*
X68000000Y36500000D01*
X64000000Y42250000D02*
X65500000Y42250000D01*
%TO.C,U1*%
X23390000Y20100000D02*
X23390000Y21900000D01*
X26610000Y21900000D02*
X26610000Y19450000D01*
%TO.C,U2*%
X78445120Y35728249D02*
X77773369Y36400000D01*
X77773369Y36400000D02*
X78445120Y37071751D01*
X84328249Y29845120D02*
X85000000Y29173369D01*
X85000000Y29173369D02*
X85671751Y29845120D01*
X85671751Y42954880D02*
X85000000Y43626631D01*
X85000000Y43626631D02*
X84328249Y42954880D01*
X91554880Y37071751D02*
X92226631Y36400000D01*
X92226631Y36400000D02*
X91554880Y35728249D01*
X91554880Y35728249D02*
X92502403Y34780725D01*
%TO.C,U3*%
X70600000Y30700000D02*
X69100000Y30700000D01*
X69100000Y30700000D02*
X69100000Y29500000D01*
X72720000Y28500000D02*
X72720000Y29500000D01*
X69480000Y30250000D02*
X69480000Y27880000D01*
%TO.C,Y1*%
X96800000Y31200000D02*
X95500000Y31200000D01*
X95500000Y31200000D02*
X95500000Y28000000D01*
X95500000Y28000000D02*
X96800000Y28000000D01*
X96800000Y28000000D02*
X96800000Y31200000D01*
%TO.C,Y2*%
X98000000Y31400000D02*
X98000000Y24600000D01*
X98000000Y24600000D02*
X102400000Y24600000D01*
X102400000Y24600000D02*
X102400000Y31400000D01*
X98000000Y31400000D02*
X102400000Y31400000D01*
%TO.C,FB1*%
X92110000Y27362779D02*
X92110000Y27037221D01*
X91090000Y27362779D02*
X91090000Y27037221D01*
%TO.C,U4*%
X86360000Y26610000D02*
X86610000Y26610000D01*
X83390000Y23390000D02*
X83390000Y23640000D01*
X83640000Y23390000D02*
X83390000Y23390000D01*
X86610000Y23390000D02*
X86610000Y23640000D01*
X86360000Y23390000D02*
X86610000Y23390000D01*
X83390000Y26610000D02*
X83390000Y26360000D01*
X83640000Y26610000D02*
X83390000Y26610000D01*
%TO.C,J1*%
X15340000Y2690000D02*
X15340000Y7410000D01*
X15340000Y7410000D02*
X21460000Y7410000D01*
X21460000Y7410000D02*
X21460000Y2690000D01*
X21460000Y2690000D02*
X15340000Y2690000D01*
X17100000Y2690000D02*
X17100000Y2490000D01*
X17100000Y2490000D02*
X16800000Y2490000D01*
X16800000Y2490000D02*
X16800000Y2690000D01*
X17100000Y2590000D02*
X16800000Y2590000D01*
X17900000Y2690000D02*
X17900000Y3300000D01*
X17900000Y3300000D02*
X15950000Y3300000D01*
X15950000Y3300000D02*
X15950000Y6800000D01*
X15950000Y6800000D02*
X20850000Y6800000D01*
X20850000Y6800000D02*
X20850000Y3300000D01*
X20850000Y3300000D02*
X18900000Y3300000D01*
X18900000Y3300000D02*
X18900000Y2690000D01*
X15340000Y4000000D02*
X15950000Y4000000D01*
X15340000Y5300000D02*
X15950000Y5300000D01*
X21460000Y4000000D02*
X20850000Y4000000D01*
X21460000Y5300000D02*
X20850000Y5300000D01*
X18300000Y6800000D02*
X18300000Y6300000D01*
X18300000Y6300000D02*
X18500000Y6300000D01*
X18500000Y6300000D02*
X18500000Y6800000D01*
X18400000Y6800000D02*
X18400000Y6300000D01*
X16290000Y2390000D02*
X15040000Y2390000D01*
X15040000Y2390000D02*
X15040000Y3640000D01*
%TO.C,FB2*%
X100929221Y8638000D02*
X101254779Y8638000D01*
X100929221Y7618000D02*
X101254779Y7618000D01*
%TO.C,C1*%
D11*
X22666666Y14642858D02*
X22714285Y14595239D01*
X22857142Y14547620D01*
X22952380Y14547620D01*
X23095238Y14595239D01*
X23190476Y14690477D01*
X23238095Y14785715D01*
X23285714Y14976191D01*
X23285714Y15119048D01*
X23238095Y15309524D01*
X23190476Y15404762D01*
X23095238Y15500000D01*
X22952380Y15547620D01*
X22857142Y15547620D01*
X22714285Y15500000D01*
X22666666Y15452381D01*
X21714285Y14547620D02*
X22285714Y14547620D01*
X22000000Y14547620D02*
X22000000Y15547620D01*
X22095238Y15404762D01*
X22190476Y15309524D01*
X22285714Y15261905D01*
%TO.C,C2*%
X22666666Y16142858D02*
X22714285Y16095239D01*
X22857142Y16047620D01*
X22952380Y16047620D01*
X23095238Y16095239D01*
X23190476Y16190477D01*
X23238095Y16285715D01*
X23285714Y16476191D01*
X23285714Y16619048D01*
X23238095Y16809524D01*
X23190476Y16904762D01*
X23095238Y17000000D01*
X22952380Y17047620D01*
X22857142Y17047620D01*
X22714285Y17000000D01*
X22666666Y16952381D01*
X22285714Y16952381D02*
X22238095Y17000000D01*
X22142857Y17047620D01*
X21904761Y17047620D01*
X21809523Y17000000D01*
X21761904Y16952381D01*
X21714285Y16857143D01*
X21714285Y16761905D01*
X21761904Y16619048D01*
X22333333Y16047620D01*
X21714285Y16047620D01*
%TO.C,C3*%
X22666666Y17642858D02*
X22714285Y17595239D01*
X22857142Y17547620D01*
X22952380Y17547620D01*
X23095238Y17595239D01*
X23190476Y17690477D01*
X23238095Y17785715D01*
X23285714Y17976191D01*
X23285714Y18119048D01*
X23238095Y18309524D01*
X23190476Y18404762D01*
X23095238Y18500000D01*
X22952380Y18547620D01*
X22857142Y18547620D01*
X22714285Y18500000D01*
X22666666Y18452381D01*
X22333333Y18547620D02*
X21714285Y18547620D01*
X22047619Y18166667D01*
X21904761Y18166667D01*
X21809523Y18119048D01*
X21761904Y18071429D01*
X21714285Y17976191D01*
X21714285Y17738096D01*
X21761904Y17642858D01*
X21809523Y17595239D01*
X21904761Y17547620D01*
X22190476Y17547620D01*
X22285714Y17595239D01*
X22333333Y17642858D01*
%TO.C,C4*%
X29166666Y21642858D02*
X29214285Y21595239D01*
X29357142Y21547620D01*
X29452380Y21547620D01*
X29595238Y21595239D01*
X29690476Y21690477D01*
X29738095Y21785715D01*
X29785714Y21976191D01*
X29785714Y22119048D01*
X29738095Y22309524D01*
X29690476Y22404762D01*
X29595238Y22500000D01*
X29452380Y22547620D01*
X29357142Y22547620D01*
X29214285Y22500000D01*
X29166666Y22452381D01*
X28309523Y22214286D02*
X28309523Y21547620D01*
X28547619Y22595239D02*
X28785714Y21880953D01*
X28166666Y21880953D01*
%TO.C,C5*%
X30166666Y14642858D02*
X30214285Y14595239D01*
X30357142Y14547620D01*
X30452380Y14547620D01*
X30595238Y14595239D01*
X30690476Y14690477D01*
X30738095Y14785715D01*
X30785714Y14976191D01*
X30785714Y15119048D01*
X30738095Y15309524D01*
X30690476Y15404762D01*
X30595238Y15500000D01*
X30452380Y15547620D01*
X30357142Y15547620D01*
X30214285Y15500000D01*
X30166666Y15452381D01*
X29261904Y15547620D02*
X29738095Y15547620D01*
X29785714Y15071429D01*
X29738095Y15119048D01*
X29642857Y15166667D01*
X29404761Y15166667D01*
X29309523Y15119048D01*
X29261904Y15071429D01*
X29214285Y14976191D01*
X29214285Y14738096D01*
X29261904Y14642858D01*
X29309523Y14595239D01*
X29404761Y14547620D01*
X29642857Y14547620D01*
X29738095Y14595239D01*
X29785714Y14642858D01*
%TO.C,C6*%
X28666666Y16642858D02*
X28714285Y16595239D01*
X28857142Y16547620D01*
X28952380Y16547620D01*
X29095238Y16595239D01*
X29190476Y16690477D01*
X29238095Y16785715D01*
X29285714Y16976191D01*
X29285714Y17119048D01*
X29238095Y17309524D01*
X29190476Y17404762D01*
X29095238Y17500000D01*
X28952380Y17547620D01*
X28857142Y17547620D01*
X28714285Y17500000D01*
X28666666Y17452381D01*
X27809523Y17547620D02*
X28000000Y17547620D01*
X28095238Y17500000D01*
X28142857Y17452381D01*
X28238095Y17309524D01*
X28285714Y17119048D01*
X28285714Y16738096D01*
X28238095Y16642858D01*
X28190476Y16595239D01*
X28095238Y16547620D01*
X27904761Y16547620D01*
X27809523Y16595239D01*
X27761904Y16642858D01*
X27714285Y16738096D01*
X27714285Y16976191D01*
X27761904Y17071429D01*
X27809523Y17119048D01*
X27904761Y17166667D01*
X28095238Y17166667D01*
X28190476Y17119048D01*
X28238095Y17071429D01*
X28285714Y16976191D01*
%TO.C,C7*%
X26666666Y16642858D02*
X26714285Y16595239D01*
X26857142Y16547620D01*
X26952380Y16547620D01*
X27095238Y16595239D01*
X27190476Y16690477D01*
X27238095Y16785715D01*
X27285714Y16976191D01*
X27285714Y17119048D01*
X27238095Y17309524D01*
X27190476Y17404762D01*
X27095238Y17500000D01*
X26952380Y17547620D01*
X26857142Y17547620D01*
X26714285Y17500000D01*
X26666666Y17452381D01*
X26333333Y17547620D02*
X25666666Y17547620D01*
X26095238Y16547620D01*
%TO.C,C8*%
X101366666Y21042858D02*
X101414285Y20995239D01*
X101557142Y20947620D01*
X101652380Y20947620D01*
X101795238Y20995239D01*
X101890476Y21090477D01*
X101938095Y21185715D01*
X101985714Y21376191D01*
X101985714Y21519048D01*
X101938095Y21709524D01*
X101890476Y21804762D01*
X101795238Y21900000D01*
X101652380Y21947620D01*
X101557142Y21947620D01*
X101414285Y21900000D01*
X101366666Y21852381D01*
X100795238Y21519048D02*
X100890476Y21566667D01*
X100938095Y21614286D01*
X100985714Y21709524D01*
X100985714Y21757143D01*
X100938095Y21852381D01*
X100890476Y21900000D01*
X100795238Y21947620D01*
X100604761Y21947620D01*
X100509523Y21900000D01*
X100461904Y21852381D01*
X100414285Y21757143D01*
X100414285Y21709524D01*
X100461904Y21614286D01*
X100509523Y21566667D01*
X100604761Y21519048D01*
X100795238Y21519048D01*
X100890476Y21471429D01*
X100938095Y21423810D01*
X100985714Y21328572D01*
X100985714Y21138096D01*
X100938095Y21042858D01*
X100890476Y20995239D01*
X100795238Y20947620D01*
X100604761Y20947620D01*
X100509523Y20995239D01*
X100461904Y21042858D01*
X100414285Y21138096D01*
X100414285Y21328572D01*
X100461904Y21423810D01*
X100509523Y21471429D01*
X100604761Y21519048D01*
%TO.C,C9*%
X99166666Y21042858D02*
X99214285Y20995239D01*
X99357142Y20947620D01*
X99452380Y20947620D01*
X99595238Y20995239D01*
X99690476Y21090477D01*
X99738095Y21185715D01*
X99785714Y21376191D01*
X99785714Y21519048D01*
X99738095Y21709524D01*
X99690476Y21804762D01*
X99595238Y21900000D01*
X99452380Y21947620D01*
X99357142Y21947620D01*
X99214285Y21900000D01*
X99166666Y21852381D01*
X98690476Y20947620D02*
X98500000Y20947620D01*
X98404761Y20995239D01*
X98357142Y21042858D01*
X98261904Y21185715D01*
X98214285Y21376191D01*
X98214285Y21757143D01*
X98261904Y21852381D01*
X98309523Y21900000D01*
X98404761Y21947620D01*
X98595238Y21947620D01*
X98690476Y21900000D01*
X98738095Y21852381D01*
X98785714Y21757143D01*
X98785714Y21519048D01*
X98738095Y21423810D01*
X98690476Y21376191D01*
X98595238Y21328572D01*
X98404761Y21328572D01*
X98309523Y21376191D01*
X98261904Y21423810D01*
X98214285Y21519048D01*
%TO.C,C10*%
X90642857Y40242858D02*
X90690476Y40195239D01*
X90833333Y40147620D01*
X90928571Y40147620D01*
X91071428Y40195239D01*
X91166666Y40290477D01*
X91214285Y40385715D01*
X91261904Y40576191D01*
X91261904Y40719048D01*
X91214285Y40909524D01*
X91166666Y41004762D01*
X91071428Y41100000D01*
X90928571Y41147620D01*
X90833333Y41147620D01*
X90690476Y41100000D01*
X90642857Y41052381D01*
X89690476Y40147620D02*
X90261904Y40147620D01*
X89976190Y40147620D02*
X89976190Y41147620D01*
X90071428Y41004762D01*
X90166666Y40909524D01*
X90261904Y40861905D01*
X89071428Y41147620D02*
X88976190Y41147620D01*
X88880952Y41100000D01*
X88833333Y41052381D01*
X88785714Y40957143D01*
X88738095Y40766667D01*
X88738095Y40528572D01*
X88785714Y40338096D01*
X88833333Y40242858D01*
X88880952Y40195239D01*
X88976190Y40147620D01*
X89071428Y40147620D01*
X89166666Y40195239D01*
X89214285Y40242858D01*
X89261904Y40338096D01*
X89309523Y40528572D01*
X89309523Y40766667D01*
X89261904Y40957143D01*
X89214285Y41052381D01*
X89166666Y41100000D01*
X89071428Y41147620D01*
%TO.C,C11*%
X81742857Y26742858D02*
X81790476Y26695239D01*
X81933333Y26647620D01*
X82028571Y26647620D01*
X82171428Y26695239D01*
X82266666Y26790477D01*
X82314285Y26885715D01*
X82361904Y27076191D01*
X82361904Y27219048D01*
X82314285Y27409524D01*
X82266666Y27504762D01*
X82171428Y27600000D01*
X82028571Y27647620D01*
X81933333Y27647620D01*
X81790476Y27600000D01*
X81742857Y27552381D01*
X80790476Y26647620D02*
X81361904Y26647620D01*
X81076190Y26647620D02*
X81076190Y27647620D01*
X81171428Y27504762D01*
X81266666Y27409524D01*
X81361904Y27361905D01*
X79838095Y26647620D02*
X80409523Y26647620D01*
X80123809Y26647620D02*
X80123809Y27647620D01*
X80219047Y27504762D01*
X80314285Y27409524D01*
X80409523Y27361905D01*
%TO.C,C12*%
X73742857Y35142858D02*
X73790476Y35095239D01*
X73933333Y35047620D01*
X74028571Y35047620D01*
X74171428Y35095239D01*
X74266666Y35190477D01*
X74314285Y35285715D01*
X74361904Y35476191D01*
X74361904Y35619048D01*
X74314285Y35809524D01*
X74266666Y35904762D01*
X74171428Y36000000D01*
X74028571Y36047620D01*
X73933333Y36047620D01*
X73790476Y36000000D01*
X73742857Y35952381D01*
X72790476Y35047620D02*
X73361904Y35047620D01*
X73076190Y35047620D02*
X73076190Y36047620D01*
X73171428Y35904762D01*
X73266666Y35809524D01*
X73361904Y35761905D01*
X72409523Y35952381D02*
X72361904Y36000000D01*
X72266666Y36047620D01*
X72028571Y36047620D01*
X71933333Y36000000D01*
X71885714Y35952381D01*
X71838095Y35857143D01*
X71838095Y35761905D01*
X71885714Y35619048D01*
X72457142Y35047620D01*
X71838095Y35047620D01*
%TO.C,C13*%
X78842857Y43842858D02*
X78890476Y43795239D01*
X79033333Y43747620D01*
X79128571Y43747620D01*
X79271428Y43795239D01*
X79366666Y43890477D01*
X79414285Y43985715D01*
X79461904Y44176191D01*
X79461904Y44319048D01*
X79414285Y44509524D01*
X79366666Y44604762D01*
X79271428Y44700000D01*
X79128571Y44747620D01*
X79033333Y44747620D01*
X78890476Y44700000D01*
X78842857Y44652381D01*
X77890476Y43747620D02*
X78461904Y43747620D01*
X78176190Y43747620D02*
X78176190Y44747620D01*
X78271428Y44604762D01*
X78366666Y44509524D01*
X78461904Y44461905D01*
X77557142Y44747620D02*
X76938095Y44747620D01*
X77271428Y44366667D01*
X77128571Y44366667D01*
X77033333Y44319048D01*
X76985714Y44271429D01*
X76938095Y44176191D01*
X76938095Y43938096D01*
X76985714Y43842858D01*
X77033333Y43795239D01*
X77128571Y43747620D01*
X77414285Y43747620D01*
X77509523Y43795239D01*
X77557142Y43842858D01*
%TO.C,C14*%
X90642857Y41642858D02*
X90690476Y41595239D01*
X90833333Y41547620D01*
X90928571Y41547620D01*
X91071428Y41595239D01*
X91166666Y41690477D01*
X91214285Y41785715D01*
X91261904Y41976191D01*
X91261904Y42119048D01*
X91214285Y42309524D01*
X91166666Y42404762D01*
X91071428Y42500000D01*
X90928571Y42547620D01*
X90833333Y42547620D01*
X90690476Y42500000D01*
X90642857Y42452381D01*
X89690476Y41547620D02*
X90261904Y41547620D01*
X89976190Y41547620D02*
X89976190Y42547620D01*
X90071428Y42404762D01*
X90166666Y42309524D01*
X90261904Y42261905D01*
X88833333Y42214286D02*
X88833333Y41547620D01*
X89071428Y42595239D02*
X89309523Y41880953D01*
X88690476Y41880953D01*
%TO.C,C15*%
X92442857Y30842858D02*
X92490476Y30795239D01*
X92633333Y30747620D01*
X92728571Y30747620D01*
X92871428Y30795239D01*
X92966666Y30890477D01*
X93014285Y30985715D01*
X93061904Y31176191D01*
X93061904Y31319048D01*
X93014285Y31509524D01*
X92966666Y31604762D01*
X92871428Y31700000D01*
X92728571Y31747620D01*
X92633333Y31747620D01*
X92490476Y31700000D01*
X92442857Y31652381D01*
X91490476Y30747620D02*
X92061904Y30747620D01*
X91776190Y30747620D02*
X91776190Y31747620D01*
X91871428Y31604762D01*
X91966666Y31509524D01*
X92061904Y31461905D01*
X90585714Y31747620D02*
X91061904Y31747620D01*
X91109523Y31271429D01*
X91061904Y31319048D01*
X90966666Y31366667D01*
X90728571Y31366667D01*
X90633333Y31319048D01*
X90585714Y31271429D01*
X90538095Y31176191D01*
X90538095Y30938096D01*
X90585714Y30842858D01*
X90633333Y30795239D01*
X90728571Y30747620D01*
X90966666Y30747620D01*
X91061904Y30795239D01*
X91109523Y30842858D01*
%TO.C,C16*%
X92442857Y29442858D02*
X92490476Y29395239D01*
X92633333Y29347620D01*
X92728571Y29347620D01*
X92871428Y29395239D01*
X92966666Y29490477D01*
X93014285Y29585715D01*
X93061904Y29776191D01*
X93061904Y29919048D01*
X93014285Y30109524D01*
X92966666Y30204762D01*
X92871428Y30300000D01*
X92728571Y30347620D01*
X92633333Y30347620D01*
X92490476Y30300000D01*
X92442857Y30252381D01*
X91490476Y29347620D02*
X92061904Y29347620D01*
X91776190Y29347620D02*
X91776190Y30347620D01*
X91871428Y30204762D01*
X91966666Y30109524D01*
X92061904Y30061905D01*
X90633333Y30347620D02*
X90823809Y30347620D01*
X90919047Y30300000D01*
X90966666Y30252381D01*
X91061904Y30109524D01*
X91109523Y29919048D01*
X91109523Y29538096D01*
X91061904Y29442858D01*
X91014285Y29395239D01*
X90919047Y29347620D01*
X90728571Y29347620D01*
X90633333Y29395239D01*
X90585714Y29442858D01*
X90538095Y29538096D01*
X90538095Y29776191D01*
X90585714Y29871429D01*
X90633333Y29919048D01*
X90728571Y29966667D01*
X90919047Y29966667D01*
X91014285Y29919048D01*
X91061904Y29871429D01*
X91109523Y29776191D01*
%TO.C,C17*%
X89842857Y25642858D02*
X89890476Y25595239D01*
X90033333Y25547620D01*
X90128571Y25547620D01*
X90271428Y25595239D01*
X90366666Y25690477D01*
X90414285Y25785715D01*
X90461904Y25976191D01*
X90461904Y26119048D01*
X90414285Y26309524D01*
X90366666Y26404762D01*
X90271428Y26500000D01*
X90128571Y26547620D01*
X90033333Y26547620D01*
X89890476Y26500000D01*
X89842857Y26452381D01*
X88890476Y25547620D02*
X89461904Y25547620D01*
X89176190Y25547620D02*
X89176190Y26547620D01*
X89271428Y26404762D01*
X89366666Y26309524D01*
X89461904Y26261905D01*
X88557142Y26547620D02*
X87890476Y26547620D01*
X88319047Y25547620D01*
%TO.C,C18*%
X74757142Y28042858D02*
X74804761Y28090477D01*
X74852380Y28233334D01*
X74852380Y28328572D01*
X74804761Y28471429D01*
X74709523Y28566667D01*
X74614285Y28614286D01*
X74423809Y28661905D01*
X74280952Y28661905D01*
X74090476Y28614286D01*
X73995238Y28566667D01*
X73900000Y28471429D01*
X73852380Y28328572D01*
X73852380Y28233334D01*
X73900000Y28090477D01*
X73947619Y28042858D01*
X74852380Y27090477D02*
X74852380Y27661905D01*
X74852380Y27376191D02*
X73852380Y27376191D01*
X73995238Y27471429D01*
X74090476Y27566667D01*
X74138095Y27661905D01*
X74280952Y26519048D02*
X74233333Y26614286D01*
X74185714Y26661905D01*
X74090476Y26709524D01*
X74042857Y26709524D01*
X73947619Y26661905D01*
X73900000Y26614286D01*
X73852380Y26519048D01*
X73852380Y26328572D01*
X73900000Y26233334D01*
X73947619Y26185715D01*
X74042857Y26138096D01*
X74090476Y26138096D01*
X74185714Y26185715D01*
X74233333Y26233334D01*
X74280952Y26328572D01*
X74280952Y26519048D01*
X74328571Y26614286D01*
X74376190Y26661905D01*
X74471428Y26709524D01*
X74661904Y26709524D01*
X74757142Y26661905D01*
X74804761Y26614286D01*
X74852380Y26519048D01*
X74852380Y26328572D01*
X74804761Y26233334D01*
X74757142Y26185715D01*
X74661904Y26138096D01*
X74471428Y26138096D01*
X74376190Y26185715D01*
X74328571Y26233334D01*
X74280952Y26328572D01*
%TO.C,C19*%
X76942857Y23542858D02*
X76990476Y23495239D01*
X77133333Y23447620D01*
X77228571Y23447620D01*
X77371428Y23495239D01*
X77466666Y23590477D01*
X77514285Y23685715D01*
X77561904Y23876191D01*
X77561904Y24019048D01*
X77514285Y24209524D01*
X77466666Y24304762D01*
X77371428Y24400000D01*
X77228571Y24447620D01*
X77133333Y24447620D01*
X76990476Y24400000D01*
X76942857Y24352381D01*
X75990476Y23447620D02*
X76561904Y23447620D01*
X76276190Y23447620D02*
X76276190Y24447620D01*
X76371428Y24304762D01*
X76466666Y24209524D01*
X76561904Y24161905D01*
X75514285Y23447620D02*
X75323809Y23447620D01*
X75228571Y23495239D01*
X75180952Y23542858D01*
X75085714Y23685715D01*
X75038095Y23876191D01*
X75038095Y24257143D01*
X75085714Y24352381D01*
X75133333Y24400000D01*
X75228571Y24447620D01*
X75419047Y24447620D01*
X75514285Y24400000D01*
X75561904Y24352381D01*
X75609523Y24257143D01*
X75609523Y24019048D01*
X75561904Y23923810D01*
X75514285Y23876191D01*
X75419047Y23828572D01*
X75228571Y23828572D01*
X75133333Y23876191D01*
X75085714Y23923810D01*
X75038095Y24019048D01*
%TO.C,C20*%
X66557142Y30642858D02*
X66604761Y30690477D01*
X66652380Y30833334D01*
X66652380Y30928572D01*
X66604761Y31071429D01*
X66509523Y31166667D01*
X66414285Y31214286D01*
X66223809Y31261905D01*
X66080952Y31261905D01*
X65890476Y31214286D01*
X65795238Y31166667D01*
X65700000Y31071429D01*
X65652380Y30928572D01*
X65652380Y30833334D01*
X65700000Y30690477D01*
X65747619Y30642858D01*
X65747619Y30261905D02*
X65700000Y30214286D01*
X65652380Y30119048D01*
X65652380Y29880953D01*
X65700000Y29785715D01*
X65747619Y29738096D01*
X65842857Y29690477D01*
X65938095Y29690477D01*
X66080952Y29738096D01*
X66652380Y30309524D01*
X66652380Y29690477D01*
X65652380Y29071429D02*
X65652380Y28976191D01*
X65700000Y28880953D01*
X65747619Y28833334D01*
X65842857Y28785715D01*
X66033333Y28738096D01*
X66271428Y28738096D01*
X66461904Y28785715D01*
X66557142Y28833334D01*
X66604761Y28880953D01*
X66652380Y28976191D01*
X66652380Y29071429D01*
X66604761Y29166667D01*
X66557142Y29214286D01*
X66461904Y29261905D01*
X66271428Y29309524D01*
X66033333Y29309524D01*
X65842857Y29261905D01*
X65747619Y29214286D01*
X65700000Y29166667D01*
X65652380Y29071429D01*
%TO.C,C21*%
X68842857Y26442858D02*
X68890476Y26395239D01*
X69033333Y26347620D01*
X69128571Y26347620D01*
X69271428Y26395239D01*
X69366666Y26490477D01*
X69414285Y26585715D01*
X69461904Y26776191D01*
X69461904Y26919048D01*
X69414285Y27109524D01*
X69366666Y27204762D01*
X69271428Y27300000D01*
X69128571Y27347620D01*
X69033333Y27347620D01*
X68890476Y27300000D01*
X68842857Y27252381D01*
X68461904Y27252381D02*
X68414285Y27300000D01*
X68319047Y27347620D01*
X68080952Y27347620D01*
X67985714Y27300000D01*
X67938095Y27252381D01*
X67890476Y27157143D01*
X67890476Y27061905D01*
X67938095Y26919048D01*
X68509523Y26347620D01*
X67890476Y26347620D01*
X66938095Y26347620D02*
X67509523Y26347620D01*
X67223809Y26347620D02*
X67223809Y27347620D01*
X67319047Y27204762D01*
X67414285Y27109524D01*
X67509523Y27061905D01*
%TO.C,C22*%
X96642857Y21042858D02*
X96690476Y20995239D01*
X96833333Y20947620D01*
X96928571Y20947620D01*
X97071428Y20995239D01*
X97166666Y21090477D01*
X97214285Y21185715D01*
X97261904Y21376191D01*
X97261904Y21519048D01*
X97214285Y21709524D01*
X97166666Y21804762D01*
X97071428Y21900000D01*
X96928571Y21947620D01*
X96833333Y21947620D01*
X96690476Y21900000D01*
X96642857Y21852381D01*
X96261904Y21852381D02*
X96214285Y21900000D01*
X96119047Y21947620D01*
X95880952Y21947620D01*
X95785714Y21900000D01*
X95738095Y21852381D01*
X95690476Y21757143D01*
X95690476Y21661905D01*
X95738095Y21519048D01*
X96309523Y20947620D01*
X95690476Y20947620D01*
X95309523Y21852381D02*
X95261904Y21900000D01*
X95166666Y21947620D01*
X94928571Y21947620D01*
X94833333Y21900000D01*
X94785714Y21852381D01*
X94738095Y21757143D01*
X94738095Y21661905D01*
X94785714Y21519048D01*
X95357142Y20947620D01*
X94738095Y20947620D01*
%TO.C,C23*%
X73727857Y33642858D02*
X73775476Y33595239D01*
X73918333Y33547620D01*
X74013571Y33547620D01*
X74156428Y33595239D01*
X74251666Y33690477D01*
X74299285Y33785715D01*
X74346904Y33976191D01*
X74346904Y34119048D01*
X74299285Y34309524D01*
X74251666Y34404762D01*
X74156428Y34500000D01*
X74013571Y34547620D01*
X73918333Y34547620D01*
X73775476Y34500000D01*
X73727857Y34452381D01*
X73346904Y34452381D02*
X73299285Y34500000D01*
X73204047Y34547620D01*
X72965952Y34547620D01*
X72870714Y34500000D01*
X72823095Y34452381D01*
X72775476Y34357143D01*
X72775476Y34261905D01*
X72823095Y34119048D01*
X73394523Y33547620D01*
X72775476Y33547620D01*
X72442142Y34547620D02*
X71823095Y34547620D01*
X72156428Y34166667D01*
X72013571Y34166667D01*
X71918333Y34119048D01*
X71870714Y34071429D01*
X71823095Y33976191D01*
X71823095Y33738096D01*
X71870714Y33642858D01*
X71918333Y33595239D01*
X72013571Y33547620D01*
X72299285Y33547620D01*
X72394523Y33595239D01*
X72442142Y33642858D01*
%TO.C,C24*%
X78842857Y42442858D02*
X78890476Y42395239D01*
X79033333Y42347620D01*
X79128571Y42347620D01*
X79271428Y42395239D01*
X79366666Y42490477D01*
X79414285Y42585715D01*
X79461904Y42776191D01*
X79461904Y42919048D01*
X79414285Y43109524D01*
X79366666Y43204762D01*
X79271428Y43300000D01*
X79128571Y43347620D01*
X79033333Y43347620D01*
X78890476Y43300000D01*
X78842857Y43252381D01*
X78461904Y43252381D02*
X78414285Y43300000D01*
X78319047Y43347620D01*
X78080952Y43347620D01*
X77985714Y43300000D01*
X77938095Y43252381D01*
X77890476Y43157143D01*
X77890476Y43061905D01*
X77938095Y42919048D01*
X78509523Y42347620D01*
X77890476Y42347620D01*
X77033333Y43014286D02*
X77033333Y42347620D01*
X77271428Y43395239D02*
X77509523Y42680953D01*
X76890476Y42680953D01*
%TO.C,C25*%
X68842857Y31842858D02*
X68890476Y31795239D01*
X69033333Y31747620D01*
X69128571Y31747620D01*
X69271428Y31795239D01*
X69366666Y31890477D01*
X69414285Y31985715D01*
X69461904Y32176191D01*
X69461904Y32319048D01*
X69414285Y32509524D01*
X69366666Y32604762D01*
X69271428Y32700000D01*
X69128571Y32747620D01*
X69033333Y32747620D01*
X68890476Y32700000D01*
X68842857Y32652381D01*
X68461904Y32652381D02*
X68414285Y32700000D01*
X68319047Y32747620D01*
X68080952Y32747620D01*
X67985714Y32700000D01*
X67938095Y32652381D01*
X67890476Y32557143D01*
X67890476Y32461905D01*
X67938095Y32319048D01*
X68509523Y31747620D01*
X67890476Y31747620D01*
X66985714Y32747620D02*
X67461904Y32747620D01*
X67509523Y32271429D01*
X67461904Y32319048D01*
X67366666Y32366667D01*
X67128571Y32366667D01*
X67033333Y32319048D01*
X66985714Y32271429D01*
X66938095Y32176191D01*
X66938095Y31938096D01*
X66985714Y31842858D01*
X67033333Y31795239D01*
X67128571Y31747620D01*
X67366666Y31747620D01*
X67461904Y31795239D01*
X67509523Y31842858D01*
%TO.C,C26*%
X30142857Y30642858D02*
X30190476Y30595239D01*
X30333333Y30547620D01*
X30428571Y30547620D01*
X30571428Y30595239D01*
X30666666Y30690477D01*
X30714285Y30785715D01*
X30761904Y30976191D01*
X30761904Y31119048D01*
X30714285Y31309524D01*
X30666666Y31404762D01*
X30571428Y31500000D01*
X30428571Y31547620D01*
X30333333Y31547620D01*
X30190476Y31500000D01*
X30142857Y31452381D01*
X29761904Y31452381D02*
X29714285Y31500000D01*
X29619047Y31547620D01*
X29380952Y31547620D01*
X29285714Y31500000D01*
X29238095Y31452381D01*
X29190476Y31357143D01*
X29190476Y31261905D01*
X29238095Y31119048D01*
X29809523Y30547620D01*
X29190476Y30547620D01*
X28333333Y31547620D02*
X28523809Y31547620D01*
X28619047Y31500000D01*
X28666666Y31452381D01*
X28761904Y31309524D01*
X28809523Y31119048D01*
X28809523Y30738096D01*
X28761904Y30642858D01*
X28714285Y30595239D01*
X28619047Y30547620D01*
X28428571Y30547620D01*
X28333333Y30595239D01*
X28285714Y30642858D01*
X28238095Y30738096D01*
X28238095Y30976191D01*
X28285714Y31071429D01*
X28333333Y31119048D01*
X28428571Y31166667D01*
X28619047Y31166667D01*
X28714285Y31119048D01*
X28761904Y31071429D01*
X28809523Y30976191D01*
%TO.C,C27*%
X21942857Y29942858D02*
X21990476Y29895239D01*
X22133333Y29847620D01*
X22228571Y29847620D01*
X22371428Y29895239D01*
X22466666Y29990477D01*
X22514285Y30085715D01*
X22561904Y30276191D01*
X22561904Y30419048D01*
X22514285Y30609524D01*
X22466666Y30704762D01*
X22371428Y30800000D01*
X22228571Y30847620D01*
X22133333Y30847620D01*
X21990476Y30800000D01*
X21942857Y30752381D01*
X21561904Y30752381D02*
X21514285Y30800000D01*
X21419047Y30847620D01*
X21180952Y30847620D01*
X21085714Y30800000D01*
X21038095Y30752381D01*
X20990476Y30657143D01*
X20990476Y30561905D01*
X21038095Y30419048D01*
X21609523Y29847620D01*
X20990476Y29847620D01*
X20657142Y30847620D02*
X19990476Y30847620D01*
X20419047Y29847620D01*
%TO.C,C28*%
X95042857Y34242858D02*
X95090476Y34195239D01*
X95233333Y34147620D01*
X95328571Y34147620D01*
X95471428Y34195239D01*
X95566666Y34290477D01*
X95614285Y34385715D01*
X95661904Y34576191D01*
X95661904Y34719048D01*
X95614285Y34909524D01*
X95566666Y35004762D01*
X95471428Y35100000D01*
X95328571Y35147620D01*
X95233333Y35147620D01*
X95090476Y35100000D01*
X95042857Y35052381D01*
X94661904Y35052381D02*
X94614285Y35100000D01*
X94519047Y35147620D01*
X94280952Y35147620D01*
X94185714Y35100000D01*
X94138095Y35052381D01*
X94090476Y34957143D01*
X94090476Y34861905D01*
X94138095Y34719048D01*
X94709523Y34147620D01*
X94090476Y34147620D01*
X93519047Y34719048D02*
X93614285Y34766667D01*
X93661904Y34814286D01*
X93709523Y34909524D01*
X93709523Y34957143D01*
X93661904Y35052381D01*
X93614285Y35100000D01*
X93519047Y35147620D01*
X93328571Y35147620D01*
X93233333Y35100000D01*
X93185714Y35052381D01*
X93138095Y34957143D01*
X93138095Y34909524D01*
X93185714Y34814286D01*
X93233333Y34766667D01*
X93328571Y34719048D01*
X93519047Y34719048D01*
X93614285Y34671429D01*
X93661904Y34623810D01*
X93709523Y34528572D01*
X93709523Y34338096D01*
X93661904Y34242858D01*
X93614285Y34195239D01*
X93519047Y34147620D01*
X93328571Y34147620D01*
X93233333Y34195239D01*
X93185714Y34242858D01*
X93138095Y34338096D01*
X93138095Y34528572D01*
X93185714Y34623810D01*
X93233333Y34671429D01*
X93328571Y34719048D01*
%TO.C,D1*%
X46238095Y28047620D02*
X46238095Y29047620D01*
X46000000Y29047620D01*
X45857142Y29000000D01*
X45761904Y28904762D01*
X45714285Y28809524D01*
X45666666Y28619048D01*
X45666666Y28476191D01*
X45714285Y28285715D01*
X45761904Y28190477D01*
X45857142Y28095239D01*
X46000000Y28047620D01*
X46238095Y28047620D01*
X44714285Y28047620D02*
X45285714Y28047620D01*
X45000000Y28047620D02*
X45000000Y29047620D01*
X45095238Y28904762D01*
X45190476Y28809524D01*
X45285714Y28761905D01*
%TO.C,D6*%
X99138095Y46547620D02*
X99138095Y47547620D01*
X98900000Y47547620D01*
X98757142Y47500000D01*
X98661904Y47404762D01*
X98614285Y47309524D01*
X98566666Y47119048D01*
X98566666Y46976191D01*
X98614285Y46785715D01*
X98661904Y46690477D01*
X98757142Y46595239D01*
X98900000Y46547620D01*
X99138095Y46547620D01*
X97709523Y47547620D02*
X97900000Y47547620D01*
X97995238Y47500000D01*
X98042857Y47452381D01*
X98138095Y47309524D01*
X98185714Y47119048D01*
X98185714Y46738096D01*
X98138095Y46642858D01*
X98090476Y46595239D01*
X97995238Y46547620D01*
X97804761Y46547620D01*
X97709523Y46595239D01*
X97661904Y46642858D01*
X97614285Y46738096D01*
X97614285Y46976191D01*
X97661904Y47071429D01*
X97709523Y47119048D01*
X97804761Y47166667D01*
X97995238Y47166667D01*
X98090476Y47119048D01*
X98138095Y47071429D01*
X98185714Y46976191D01*
%TO.C,D7*%
X71738095Y46547620D02*
X71738095Y47547620D01*
X71500000Y47547620D01*
X71357142Y47500000D01*
X71261904Y47404762D01*
X71214285Y47309524D01*
X71166666Y47119048D01*
X71166666Y46976191D01*
X71214285Y46785715D01*
X71261904Y46690477D01*
X71357142Y46595239D01*
X71500000Y46547620D01*
X71738095Y46547620D01*
X70833333Y47547620D02*
X70166666Y47547620D01*
X70595238Y46547620D01*
%TO.C,IC1*%
X26276190Y41347620D02*
X26276190Y42347620D01*
X25228571Y41442858D02*
X25276190Y41395239D01*
X25419047Y41347620D01*
X25514285Y41347620D01*
X25657142Y41395239D01*
X25752380Y41490477D01*
X25800000Y41585715D01*
X25847619Y41776191D01*
X25847619Y41919048D01*
X25800000Y42109524D01*
X25752380Y42204762D01*
X25657142Y42300000D01*
X25514285Y42347620D01*
X25419047Y42347620D01*
X25276190Y42300000D01*
X25228571Y42252381D01*
X24276190Y41347620D02*
X24847619Y41347620D01*
X24561904Y41347620D02*
X24561904Y42347620D01*
X24657142Y42204762D01*
X24752380Y42109524D01*
X24847619Y42061905D01*
%TO.C,J3*%
X104133333Y35747620D02*
X104133333Y35033334D01*
X104180952Y34890477D01*
X104276190Y34795239D01*
X104419047Y34747620D01*
X104514285Y34747620D01*
X103752380Y35747620D02*
X103133333Y35747620D01*
X103466666Y35366667D01*
X103323809Y35366667D01*
X103228571Y35319048D01*
X103180952Y35271429D01*
X103133333Y35176191D01*
X103133333Y34938096D01*
X103180952Y34842858D01*
X103228571Y34795239D01*
X103323809Y34747620D01*
X103609523Y34747620D01*
X103704761Y34795239D01*
X103752380Y34842858D01*
%TO.C,J4*%
X97533333Y37547620D02*
X97533333Y36833334D01*
X97580952Y36690477D01*
X97676190Y36595239D01*
X97819047Y36547620D01*
X97914285Y36547620D01*
X96628571Y37214286D02*
X96628571Y36547620D01*
X96866666Y37595239D02*
X97104761Y36880953D01*
X96485714Y36880953D01*
%TO.C,J5*%
X73333333Y37547620D02*
X73333333Y36833334D01*
X73380952Y36690477D01*
X73476190Y36595239D01*
X73619047Y36547620D01*
X73714285Y36547620D01*
X72380952Y37547620D02*
X72857142Y37547620D01*
X72904761Y37071429D01*
X72857142Y37119048D01*
X72761904Y37166667D01*
X72523809Y37166667D01*
X72428571Y37119048D01*
X72380952Y37071429D01*
X72333333Y36976191D01*
X72333333Y36738096D01*
X72380952Y36642858D01*
X72428571Y36595239D01*
X72523809Y36547620D01*
X72761904Y36547620D01*
X72857142Y36595239D01*
X72904761Y36642858D01*
%TO.C,J6*%
X65433333Y24147620D02*
X65433333Y23433334D01*
X65480952Y23290477D01*
X65576190Y23195239D01*
X65719047Y23147620D01*
X65814285Y23147620D01*
X64528571Y24147620D02*
X64719047Y24147620D01*
X64814285Y24100000D01*
X64861904Y24052381D01*
X64957142Y23909524D01*
X65004761Y23719048D01*
X65004761Y23338096D01*
X64957142Y23242858D01*
X64909523Y23195239D01*
X64814285Y23147620D01*
X64623809Y23147620D01*
X64528571Y23195239D01*
X64480952Y23242858D01*
X64433333Y23338096D01*
X64433333Y23576191D01*
X64480952Y23671429D01*
X64528571Y23719048D01*
X64623809Y23766667D01*
X64814285Y23766667D01*
X64909523Y23719048D01*
X64957142Y23671429D01*
X65004761Y23576191D01*
%TO.C,J7*%
X25833333Y44547620D02*
X25833333Y43833334D01*
X25880952Y43690477D01*
X25976190Y43595239D01*
X26119047Y43547620D01*
X26214285Y43547620D01*
X25452380Y44547620D02*
X24785714Y44547620D01*
X25214285Y43547620D01*
%TO.C,L1*%
X26166666Y9547620D02*
X26642857Y9547620D01*
X26642857Y10547620D01*
X25309523Y9547620D02*
X25880952Y9547620D01*
X25595238Y9547620D02*
X25595238Y10547620D01*
X25690476Y10404762D01*
X25785714Y10309524D01*
X25880952Y10261905D01*
%TO.C,Q1*%
X92295238Y14652381D02*
X92390476Y14700000D01*
X92485714Y14795239D01*
X92628571Y14938096D01*
X92723809Y14985715D01*
X92819047Y14985715D01*
X92771428Y14747620D02*
X92866666Y14795239D01*
X92961904Y14890477D01*
X93009523Y15080953D01*
X93009523Y15414286D01*
X92961904Y15604762D01*
X92866666Y15700000D01*
X92771428Y15747620D01*
X92580952Y15747620D01*
X92485714Y15700000D01*
X92390476Y15604762D01*
X92342857Y15414286D01*
X92342857Y15080953D01*
X92390476Y14890477D01*
X92485714Y14795239D01*
X92580952Y14747620D01*
X92771428Y14747620D01*
X91390476Y14747620D02*
X91961904Y14747620D01*
X91676190Y14747620D02*
X91676190Y15747620D01*
X91771428Y15604762D01*
X91866666Y15509524D01*
X91961904Y15461905D01*
%TO.C,Q3*%
X85495238Y14652381D02*
X85590476Y14700000D01*
X85685714Y14795239D01*
X85828571Y14938096D01*
X85923809Y14985715D01*
X86019047Y14985715D01*
X85971428Y14747620D02*
X86066666Y14795239D01*
X86161904Y14890477D01*
X86209523Y15080953D01*
X86209523Y15414286D01*
X86161904Y15604762D01*
X86066666Y15700000D01*
X85971428Y15747620D01*
X85780952Y15747620D01*
X85685714Y15700000D01*
X85590476Y15604762D01*
X85542857Y15414286D01*
X85542857Y15080953D01*
X85590476Y14890477D01*
X85685714Y14795239D01*
X85780952Y14747620D01*
X85971428Y14747620D01*
X85209523Y15747620D02*
X84590476Y15747620D01*
X84923809Y15366667D01*
X84780952Y15366667D01*
X84685714Y15319048D01*
X84638095Y15271429D01*
X84590476Y15176191D01*
X84590476Y14938096D01*
X84638095Y14842858D01*
X84685714Y14795239D01*
X84780952Y14747620D01*
X85066666Y14747620D01*
X85161904Y14795239D01*
X85209523Y14842858D01*
%TO.C,Q5*%
X78895238Y14652381D02*
X78990476Y14700000D01*
X79085714Y14795239D01*
X79228571Y14938096D01*
X79323809Y14985715D01*
X79419047Y14985715D01*
X79371428Y14747620D02*
X79466666Y14795239D01*
X79561904Y14890477D01*
X79609523Y15080953D01*
X79609523Y15414286D01*
X79561904Y15604762D01*
X79466666Y15700000D01*
X79371428Y15747620D01*
X79180952Y15747620D01*
X79085714Y15700000D01*
X78990476Y15604762D01*
X78942857Y15414286D01*
X78942857Y15080953D01*
X78990476Y14890477D01*
X79085714Y14795239D01*
X79180952Y14747620D01*
X79371428Y14747620D01*
X78038095Y15747620D02*
X78514285Y15747620D01*
X78561904Y15271429D01*
X78514285Y15319048D01*
X78419047Y15366667D01*
X78180952Y15366667D01*
X78085714Y15319048D01*
X78038095Y15271429D01*
X77990476Y15176191D01*
X77990476Y14938096D01*
X78038095Y14842858D01*
X78085714Y14795239D01*
X78180952Y14747620D01*
X78419047Y14747620D01*
X78514285Y14795239D01*
X78561904Y14842858D01*
%TO.C,Q7*%
X72295238Y14652381D02*
X72390476Y14700000D01*
X72485714Y14795239D01*
X72628571Y14938096D01*
X72723809Y14985715D01*
X72819047Y14985715D01*
X72771428Y14747620D02*
X72866666Y14795239D01*
X72961904Y14890477D01*
X73009523Y15080953D01*
X73009523Y15414286D01*
X72961904Y15604762D01*
X72866666Y15700000D01*
X72771428Y15747620D01*
X72580952Y15747620D01*
X72485714Y15700000D01*
X72390476Y15604762D01*
X72342857Y15414286D01*
X72342857Y15080953D01*
X72390476Y14890477D01*
X72485714Y14795239D01*
X72580952Y14747620D01*
X72771428Y14747620D01*
X72009523Y15747620D02*
X71342857Y15747620D01*
X71771428Y14747620D01*
%TO.C,R1*%
X30166666Y24047620D02*
X30500000Y24523810D01*
X30738095Y24047620D02*
X30738095Y25047620D01*
X30357142Y25047620D01*
X30261904Y25000000D01*
X30214285Y24952381D01*
X30166666Y24857143D01*
X30166666Y24714286D01*
X30214285Y24619048D01*
X30261904Y24571429D01*
X30357142Y24523810D01*
X30738095Y24523810D01*
X29214285Y24047620D02*
X29785714Y24047620D01*
X29500000Y24047620D02*
X29500000Y25047620D01*
X29595238Y24904762D01*
X29690476Y24809524D01*
X29785714Y24761905D01*
%TO.C,R2*%
X25166666Y27977620D02*
X25500000Y28453810D01*
X25738095Y27977620D02*
X25738095Y28977620D01*
X25357142Y28977620D01*
X25261904Y28930000D01*
X25214285Y28882381D01*
X25166666Y28787143D01*
X25166666Y28644286D01*
X25214285Y28549048D01*
X25261904Y28501429D01*
X25357142Y28453810D01*
X25738095Y28453810D01*
X24785714Y28882381D02*
X24738095Y28930000D01*
X24642857Y28977620D01*
X24404761Y28977620D01*
X24309523Y28930000D01*
X24261904Y28882381D01*
X24214285Y28787143D01*
X24214285Y28691905D01*
X24261904Y28549048D01*
X24833333Y27977620D01*
X24214285Y27977620D01*
%TO.C,R3*%
X25166666Y23117620D02*
X25500000Y23593810D01*
X25738095Y23117620D02*
X25738095Y24117620D01*
X25357142Y24117620D01*
X25261904Y24070000D01*
X25214285Y24022381D01*
X25166666Y23927143D01*
X25166666Y23784286D01*
X25214285Y23689048D01*
X25261904Y23641429D01*
X25357142Y23593810D01*
X25738095Y23593810D01*
X24833333Y24117620D02*
X24214285Y24117620D01*
X24547619Y23736667D01*
X24404761Y23736667D01*
X24309523Y23689048D01*
X24261904Y23641429D01*
X24214285Y23546191D01*
X24214285Y23308096D01*
X24261904Y23212858D01*
X24309523Y23165239D01*
X24404761Y23117620D01*
X24690476Y23117620D01*
X24785714Y23165239D01*
X24833333Y23212858D01*
%TO.C,R4*%
X95766666Y27747620D02*
X96100000Y28223810D01*
X96338095Y27747620D02*
X96338095Y28747620D01*
X95957142Y28747620D01*
X95861904Y28700000D01*
X95814285Y28652381D01*
X95766666Y28557143D01*
X95766666Y28414286D01*
X95814285Y28319048D01*
X95861904Y28271429D01*
X95957142Y28223810D01*
X96338095Y28223810D01*
X94909523Y28414286D02*
X94909523Y27747620D01*
X95147619Y28795239D02*
X95385714Y28080953D01*
X94766666Y28080953D01*
%TO.C,R5*%
X79152380Y28266667D02*
X78676190Y28600000D01*
X79152380Y28838096D02*
X78152380Y28838096D01*
X78152380Y28457143D01*
X78200000Y28361905D01*
X78247619Y28314286D01*
X78342857Y28266667D01*
X78485714Y28266667D01*
X78580952Y28314286D01*
X78628571Y28361905D01*
X78676190Y28457143D01*
X78676190Y28838096D01*
X78152380Y27361905D02*
X78152380Y27838096D01*
X78628571Y27885715D01*
X78580952Y27838096D01*
X78533333Y27742858D01*
X78533333Y27504762D01*
X78580952Y27409524D01*
X78628571Y27361905D01*
X78723809Y27314286D01*
X78961904Y27314286D01*
X79057142Y27361905D01*
X79104761Y27409524D01*
X79152380Y27504762D01*
X79152380Y27742858D01*
X79104761Y27838096D01*
X79057142Y27885715D01*
%TO.C,R6*%
X92666666Y17547620D02*
X93000000Y18023810D01*
X93238095Y17547620D02*
X93238095Y18547620D01*
X92857142Y18547620D01*
X92761904Y18500000D01*
X92714285Y18452381D01*
X92666666Y18357143D01*
X92666666Y18214286D01*
X92714285Y18119048D01*
X92761904Y18071429D01*
X92857142Y18023810D01*
X93238095Y18023810D01*
X91809523Y18547620D02*
X92000000Y18547620D01*
X92095238Y18500000D01*
X92142857Y18452381D01*
X92238095Y18309524D01*
X92285714Y18119048D01*
X92285714Y17738096D01*
X92238095Y17642858D01*
X92190476Y17595239D01*
X92095238Y17547620D01*
X91904761Y17547620D01*
X91809523Y17595239D01*
X91761904Y17642858D01*
X91714285Y17738096D01*
X91714285Y17976191D01*
X91761904Y18071429D01*
X91809523Y18119048D01*
X91904761Y18166667D01*
X92095238Y18166667D01*
X92190476Y18119048D01*
X92238095Y18071429D01*
X92285714Y17976191D01*
%TO.C,R7*%
X99966666Y11547620D02*
X100300000Y12023810D01*
X100538095Y11547620D02*
X100538095Y12547620D01*
X100157142Y12547620D01*
X100061904Y12500000D01*
X100014285Y12452381D01*
X99966666Y12357143D01*
X99966666Y12214286D01*
X100014285Y12119048D01*
X100061904Y12071429D01*
X100157142Y12023810D01*
X100538095Y12023810D01*
X99633333Y12547620D02*
X98966666Y12547620D01*
X99395238Y11547620D01*
%TO.C,R8*%
X85866666Y17547620D02*
X86200000Y18023810D01*
X86438095Y17547620D02*
X86438095Y18547620D01*
X86057142Y18547620D01*
X85961904Y18500000D01*
X85914285Y18452381D01*
X85866666Y18357143D01*
X85866666Y18214286D01*
X85914285Y18119048D01*
X85961904Y18071429D01*
X86057142Y18023810D01*
X86438095Y18023810D01*
X85295238Y18119048D02*
X85390476Y18166667D01*
X85438095Y18214286D01*
X85485714Y18309524D01*
X85485714Y18357143D01*
X85438095Y18452381D01*
X85390476Y18500000D01*
X85295238Y18547620D01*
X85104761Y18547620D01*
X85009523Y18500000D01*
X84961904Y18452381D01*
X84914285Y18357143D01*
X84914285Y18309524D01*
X84961904Y18214286D01*
X85009523Y18166667D01*
X85104761Y18119048D01*
X85295238Y18119048D01*
X85390476Y18071429D01*
X85438095Y18023810D01*
X85485714Y17928572D01*
X85485714Y17738096D01*
X85438095Y17642858D01*
X85390476Y17595239D01*
X85295238Y17547620D01*
X85104761Y17547620D01*
X85009523Y17595239D01*
X84961904Y17642858D01*
X84914285Y17738096D01*
X84914285Y17928572D01*
X84961904Y18023810D01*
X85009523Y18071429D01*
X85104761Y18119048D01*
%TO.C,R9*%
X91166666Y1047620D02*
X91500000Y1523810D01*
X91738095Y1047620D02*
X91738095Y2047620D01*
X91357142Y2047620D01*
X91261904Y2000000D01*
X91214285Y1952381D01*
X91166666Y1857143D01*
X91166666Y1714286D01*
X91214285Y1619048D01*
X91261904Y1571429D01*
X91357142Y1523810D01*
X91738095Y1523810D01*
X90690476Y1047620D02*
X90500000Y1047620D01*
X90404761Y1095239D01*
X90357142Y1142858D01*
X90261904Y1285715D01*
X90214285Y1476191D01*
X90214285Y1857143D01*
X90261904Y1952381D01*
X90309523Y2000000D01*
X90404761Y2047620D01*
X90595238Y2047620D01*
X90690476Y2000000D01*
X90738095Y1952381D01*
X90785714Y1857143D01*
X90785714Y1619048D01*
X90738095Y1523810D01*
X90690476Y1476191D01*
X90595238Y1428572D01*
X90404761Y1428572D01*
X90309523Y1476191D01*
X90261904Y1523810D01*
X90214285Y1619048D01*
%TO.C,R10*%
X79442857Y17547620D02*
X79776190Y18023810D01*
X80014285Y17547620D02*
X80014285Y18547620D01*
X79633333Y18547620D01*
X79538095Y18500000D01*
X79490476Y18452381D01*
X79442857Y18357143D01*
X79442857Y18214286D01*
X79490476Y18119048D01*
X79538095Y18071429D01*
X79633333Y18023810D01*
X80014285Y18023810D01*
X78490476Y17547620D02*
X79061904Y17547620D01*
X78776190Y17547620D02*
X78776190Y18547620D01*
X78871428Y18404762D01*
X78966666Y18309524D01*
X79061904Y18261905D01*
X77871428Y18547620D02*
X77776190Y18547620D01*
X77680952Y18500000D01*
X77633333Y18452381D01*
X77585714Y18357143D01*
X77538095Y18166667D01*
X77538095Y17928572D01*
X77585714Y17738096D01*
X77633333Y17642858D01*
X77680952Y17595239D01*
X77776190Y17547620D01*
X77871428Y17547620D01*
X77966666Y17595239D01*
X78014285Y17642858D01*
X78061904Y17738096D01*
X78109523Y17928572D01*
X78109523Y18166667D01*
X78061904Y18357143D01*
X78014285Y18452381D01*
X77966666Y18500000D01*
X77871428Y18547620D01*
%TO.C,R11*%
X79142857Y1047620D02*
X79476190Y1523810D01*
X79714285Y1047620D02*
X79714285Y2047620D01*
X79333333Y2047620D01*
X79238095Y2000000D01*
X79190476Y1952381D01*
X79142857Y1857143D01*
X79142857Y1714286D01*
X79190476Y1619048D01*
X79238095Y1571429D01*
X79333333Y1523810D01*
X79714285Y1523810D01*
X78190476Y1047620D02*
X78761904Y1047620D01*
X78476190Y1047620D02*
X78476190Y2047620D01*
X78571428Y1904762D01*
X78666666Y1809524D01*
X78761904Y1761905D01*
X77238095Y1047620D02*
X77809523Y1047620D01*
X77523809Y1047620D02*
X77523809Y2047620D01*
X77619047Y1904762D01*
X77714285Y1809524D01*
X77809523Y1761905D01*
%TO.C,R12*%
X72842857Y17547620D02*
X73176190Y18023810D01*
X73414285Y17547620D02*
X73414285Y18547620D01*
X73033333Y18547620D01*
X72938095Y18500000D01*
X72890476Y18452381D01*
X72842857Y18357143D01*
X72842857Y18214286D01*
X72890476Y18119048D01*
X72938095Y18071429D01*
X73033333Y18023810D01*
X73414285Y18023810D01*
X71890476Y17547620D02*
X72461904Y17547620D01*
X72176190Y17547620D02*
X72176190Y18547620D01*
X72271428Y18404762D01*
X72366666Y18309524D01*
X72461904Y18261905D01*
X71509523Y18452381D02*
X71461904Y18500000D01*
X71366666Y18547620D01*
X71128571Y18547620D01*
X71033333Y18500000D01*
X70985714Y18452381D01*
X70938095Y18357143D01*
X70938095Y18261905D01*
X70985714Y18119048D01*
X71557142Y17547620D01*
X70938095Y17547620D01*
%TO.C,R13*%
X71242857Y12347620D02*
X71576190Y12823810D01*
X71814285Y12347620D02*
X71814285Y13347620D01*
X71433333Y13347620D01*
X71338095Y13300000D01*
X71290476Y13252381D01*
X71242857Y13157143D01*
X71242857Y13014286D01*
X71290476Y12919048D01*
X71338095Y12871429D01*
X71433333Y12823810D01*
X71814285Y12823810D01*
X70290476Y12347620D02*
X70861904Y12347620D01*
X70576190Y12347620D02*
X70576190Y13347620D01*
X70671428Y13204762D01*
X70766666Y13109524D01*
X70861904Y13061905D01*
X69957142Y13347620D02*
X69338095Y13347620D01*
X69671428Y12966667D01*
X69528571Y12966667D01*
X69433333Y12919048D01*
X69385714Y12871429D01*
X69338095Y12776191D01*
X69338095Y12538096D01*
X69385714Y12442858D01*
X69433333Y12395239D01*
X69528571Y12347620D01*
X69814285Y12347620D01*
X69909523Y12395239D01*
X69957142Y12442858D01*
%TO.C,R14*%
X66042857Y32747620D02*
X66376190Y33223810D01*
X66614285Y32747620D02*
X66614285Y33747620D01*
X66233333Y33747620D01*
X66138095Y33700000D01*
X66090476Y33652381D01*
X66042857Y33557143D01*
X66042857Y33414286D01*
X66090476Y33319048D01*
X66138095Y33271429D01*
X66233333Y33223810D01*
X66614285Y33223810D01*
X65090476Y32747620D02*
X65661904Y32747620D01*
X65376190Y32747620D02*
X65376190Y33747620D01*
X65471428Y33604762D01*
X65566666Y33509524D01*
X65661904Y33461905D01*
X64233333Y33414286D02*
X64233333Y32747620D01*
X64471428Y33795239D02*
X64709523Y33080953D01*
X64090476Y33080953D01*
%TO.C,R15*%
X95942857Y46547620D02*
X96276190Y47023810D01*
X96514285Y46547620D02*
X96514285Y47547620D01*
X96133333Y47547620D01*
X96038095Y47500000D01*
X95990476Y47452381D01*
X95942857Y47357143D01*
X95942857Y47214286D01*
X95990476Y47119048D01*
X96038095Y47071429D01*
X96133333Y47023810D01*
X96514285Y47023810D01*
X94990476Y46547620D02*
X95561904Y46547620D01*
X95276190Y46547620D02*
X95276190Y47547620D01*
X95371428Y47404762D01*
X95466666Y47309524D01*
X95561904Y47261905D01*
X94085714Y47547620D02*
X94561904Y47547620D01*
X94609523Y47071429D01*
X94561904Y47119048D01*
X94466666Y47166667D01*
X94228571Y47166667D01*
X94133333Y47119048D01*
X94085714Y47071429D01*
X94038095Y46976191D01*
X94038095Y46738096D01*
X94085714Y46642858D01*
X94133333Y46595239D01*
X94228571Y46547620D01*
X94466666Y46547620D01*
X94561904Y46595239D01*
X94609523Y46642858D01*
%TO.C,R16*%
X75342857Y46547620D02*
X75676190Y47023810D01*
X75914285Y46547620D02*
X75914285Y47547620D01*
X75533333Y47547620D01*
X75438095Y47500000D01*
X75390476Y47452381D01*
X75342857Y47357143D01*
X75342857Y47214286D01*
X75390476Y47119048D01*
X75438095Y47071429D01*
X75533333Y47023810D01*
X75914285Y47023810D01*
X74390476Y46547620D02*
X74961904Y46547620D01*
X74676190Y46547620D02*
X74676190Y47547620D01*
X74771428Y47404762D01*
X74866666Y47309524D01*
X74961904Y47261905D01*
X73533333Y47547620D02*
X73723809Y47547620D01*
X73819047Y47500000D01*
X73866666Y47452381D01*
X73961904Y47309524D01*
X74009523Y47119048D01*
X74009523Y46738096D01*
X73961904Y46642858D01*
X73914285Y46595239D01*
X73819047Y46547620D01*
X73628571Y46547620D01*
X73533333Y46595239D01*
X73485714Y46642858D01*
X73438095Y46738096D01*
X73438095Y46976191D01*
X73485714Y47071429D01*
X73533333Y47119048D01*
X73628571Y47166667D01*
X73819047Y47166667D01*
X73914285Y47119048D01*
X73961904Y47071429D01*
X74009523Y46976191D01*
%TO.C,R17*%
X36142857Y26547620D02*
X36476190Y27023810D01*
X36714285Y26547620D02*
X36714285Y27547620D01*
X36333333Y27547620D01*
X36238095Y27500000D01*
X36190476Y27452381D01*
X36142857Y27357143D01*
X36142857Y27214286D01*
X36190476Y27119048D01*
X36238095Y27071429D01*
X36333333Y27023810D01*
X36714285Y27023810D01*
X35190476Y26547620D02*
X35761904Y26547620D01*
X35476190Y26547620D02*
X35476190Y27547620D01*
X35571428Y27404762D01*
X35666666Y27309524D01*
X35761904Y27261905D01*
X34857142Y27547620D02*
X34190476Y27547620D01*
X34619047Y26547620D01*
%TO.C,R18*%
X79842857Y30747620D02*
X80176190Y31223810D01*
X80414285Y30747620D02*
X80414285Y31747620D01*
X80033333Y31747620D01*
X79938095Y31700000D01*
X79890476Y31652381D01*
X79842857Y31557143D01*
X79842857Y31414286D01*
X79890476Y31319048D01*
X79938095Y31271429D01*
X80033333Y31223810D01*
X80414285Y31223810D01*
X78890476Y30747620D02*
X79461904Y30747620D01*
X79176190Y30747620D02*
X79176190Y31747620D01*
X79271428Y31604762D01*
X79366666Y31509524D01*
X79461904Y31461905D01*
X78319047Y31319048D02*
X78414285Y31366667D01*
X78461904Y31414286D01*
X78509523Y31509524D01*
X78509523Y31557143D01*
X78461904Y31652381D01*
X78414285Y31700000D01*
X78319047Y31747620D01*
X78128571Y31747620D01*
X78033333Y31700000D01*
X77985714Y31652381D01*
X77938095Y31557143D01*
X77938095Y31509524D01*
X77985714Y31414286D01*
X78033333Y31366667D01*
X78128571Y31319048D01*
X78319047Y31319048D01*
X78414285Y31271429D01*
X78461904Y31223810D01*
X78509523Y31128572D01*
X78509523Y30938096D01*
X78461904Y30842858D01*
X78414285Y30795239D01*
X78319047Y30747620D01*
X78128571Y30747620D01*
X78033333Y30795239D01*
X77985714Y30842858D01*
X77938095Y30938096D01*
X77938095Y31128572D01*
X77985714Y31223810D01*
X78033333Y31271429D01*
X78128571Y31319048D01*
%TO.C,R19*%
X30642857Y28977620D02*
X30976190Y29453810D01*
X31214285Y28977620D02*
X31214285Y29977620D01*
X30833333Y29977620D01*
X30738095Y29930000D01*
X30690476Y29882381D01*
X30642857Y29787143D01*
X30642857Y29644286D01*
X30690476Y29549048D01*
X30738095Y29501429D01*
X30833333Y29453810D01*
X31214285Y29453810D01*
X29690476Y28977620D02*
X30261904Y28977620D01*
X29976190Y28977620D02*
X29976190Y29977620D01*
X30071428Y29834762D01*
X30166666Y29739524D01*
X30261904Y29691905D01*
X29214285Y28977620D02*
X29023809Y28977620D01*
X28928571Y29025239D01*
X28880952Y29072858D01*
X28785714Y29215715D01*
X28738095Y29406191D01*
X28738095Y29787143D01*
X28785714Y29882381D01*
X28833333Y29930000D01*
X28928571Y29977620D01*
X29119047Y29977620D01*
X29214285Y29930000D01*
X29261904Y29882381D01*
X29309523Y29787143D01*
X29309523Y29549048D01*
X29261904Y29453810D01*
X29214285Y29406191D01*
X29119047Y29358572D01*
X28928571Y29358572D01*
X28833333Y29406191D01*
X28785714Y29453810D01*
X28738095Y29549048D01*
%TO.C,R20*%
X45642857Y31547620D02*
X45976190Y32023810D01*
X46214285Y31547620D02*
X46214285Y32547620D01*
X45833333Y32547620D01*
X45738095Y32500000D01*
X45690476Y32452381D01*
X45642857Y32357143D01*
X45642857Y32214286D01*
X45690476Y32119048D01*
X45738095Y32071429D01*
X45833333Y32023810D01*
X46214285Y32023810D01*
X45261904Y32452381D02*
X45214285Y32500000D01*
X45119047Y32547620D01*
X44880952Y32547620D01*
X44785714Y32500000D01*
X44738095Y32452381D01*
X44690476Y32357143D01*
X44690476Y32261905D01*
X44738095Y32119048D01*
X45309523Y31547620D01*
X44690476Y31547620D01*
X44071428Y32547620D02*
X43976190Y32547620D01*
X43880952Y32500000D01*
X43833333Y32452381D01*
X43785714Y32357143D01*
X43738095Y32166667D01*
X43738095Y31928572D01*
X43785714Y31738096D01*
X43833333Y31642858D01*
X43880952Y31595239D01*
X43976190Y31547620D01*
X44071428Y31547620D01*
X44166666Y31595239D01*
X44214285Y31642858D01*
X44261904Y31738096D01*
X44309523Y31928572D01*
X44309523Y32166667D01*
X44261904Y32357143D01*
X44214285Y32452381D01*
X44166666Y32500000D01*
X44071428Y32547620D01*
%TO.C,SW1*%
X42333333Y6095239D02*
X42190476Y6047620D01*
X41952380Y6047620D01*
X41857142Y6095239D01*
X41809523Y6142858D01*
X41761904Y6238096D01*
X41761904Y6333334D01*
X41809523Y6428572D01*
X41857142Y6476191D01*
X41952380Y6523810D01*
X42142857Y6571429D01*
X42238095Y6619048D01*
X42285714Y6666667D01*
X42333333Y6761905D01*
X42333333Y6857143D01*
X42285714Y6952381D01*
X42238095Y7000000D01*
X42142857Y7047620D01*
X41904761Y7047620D01*
X41761904Y7000000D01*
X41428571Y7047620D02*
X41190476Y6047620D01*
X41000000Y6761905D01*
X40809523Y6047620D01*
X40571428Y7047620D01*
X39666666Y6047620D02*
X40238095Y6047620D01*
X39952380Y6047620D02*
X39952380Y7047620D01*
X40047619Y6904762D01*
X40142857Y6809524D01*
X40238095Y6761905D01*
%TO.C,SW2*%
X69404761Y40083334D02*
X69452380Y39940477D01*
X69452380Y39702381D01*
X69404761Y39607143D01*
X69357142Y39559524D01*
X69261904Y39511905D01*
X69166666Y39511905D01*
X69071428Y39559524D01*
X69023809Y39607143D01*
X68976190Y39702381D01*
X68928571Y39892858D01*
X68880952Y39988096D01*
X68833333Y40035715D01*
X68738095Y40083334D01*
X68642857Y40083334D01*
X68547619Y40035715D01*
X68500000Y39988096D01*
X68452380Y39892858D01*
X68452380Y39654762D01*
X68500000Y39511905D01*
X68452380Y39178572D02*
X69452380Y38940477D01*
X68738095Y38750000D01*
X69452380Y38559524D01*
X68452380Y38321429D01*
X68547619Y37988096D02*
X68500000Y37940477D01*
X68452380Y37845239D01*
X68452380Y37607143D01*
X68500000Y37511905D01*
X68547619Y37464286D01*
X68642857Y37416667D01*
X68738095Y37416667D01*
X68880952Y37464286D01*
X69452380Y38035715D01*
X69452380Y37416667D01*
%TO.C,U1*%
X22761904Y21547620D02*
X22761904Y20738096D01*
X22714285Y20642858D01*
X22666666Y20595239D01*
X22571428Y20547620D01*
X22380952Y20547620D01*
X22285714Y20595239D01*
X22238095Y20642858D01*
X22190476Y20738096D01*
X22190476Y21547620D01*
X21190476Y20547620D02*
X21761904Y20547620D01*
X21476190Y20547620D02*
X21476190Y21547620D01*
X21571428Y21404762D01*
X21666666Y21309524D01*
X21761904Y21261905D01*
%TO.C,U2*%
X91158563Y41481068D02*
X90586143Y40908648D01*
X90485128Y40874976D01*
X90417784Y40874976D01*
X90316769Y40908648D01*
X90182082Y41043335D01*
X90148410Y41144350D01*
X90148410Y41211694D01*
X90182082Y41312709D01*
X90754502Y41885129D01*
X90384112Y42120831D02*
X90384112Y42188174D01*
X90350441Y42289190D01*
X90182082Y42457548D01*
X90081067Y42491220D01*
X90013723Y42491220D01*
X89912708Y42457548D01*
X89845364Y42390205D01*
X89778021Y42255518D01*
X89778021Y41447396D01*
X89340288Y41885129D01*
%TO.C,U3*%
X71861904Y32047620D02*
X71861904Y31238096D01*
X71814285Y31142858D01*
X71766666Y31095239D01*
X71671428Y31047620D01*
X71480952Y31047620D01*
X71385714Y31095239D01*
X71338095Y31142858D01*
X71290476Y31238096D01*
X71290476Y32047620D01*
X70909523Y32047620D02*
X70290476Y32047620D01*
X70623809Y31666667D01*
X70480952Y31666667D01*
X70385714Y31619048D01*
X70338095Y31571429D01*
X70290476Y31476191D01*
X70290476Y31238096D01*
X70338095Y31142858D01*
X70385714Y31095239D01*
X70480952Y31047620D01*
X70766666Y31047620D01*
X70861904Y31095239D01*
X70909523Y31142858D01*
%TO.C,Y1*%
X96676190Y32523810D02*
X96676190Y32047620D01*
X97009523Y33047620D02*
X96676190Y32523810D01*
X96342857Y33047620D01*
X95485714Y32047620D02*
X96057142Y32047620D01*
X95771428Y32047620D02*
X95771428Y33047620D01*
X95866666Y32904762D01*
X95961904Y32809524D01*
X96057142Y32761905D01*
%TO.C,Y2*%
X100726190Y32523810D02*
X100726190Y32047620D01*
X101059523Y33047620D02*
X100726190Y32523810D01*
X100392857Y33047620D01*
X100107142Y32952381D02*
X100059523Y33000000D01*
X99964285Y33047620D01*
X99726190Y33047620D01*
X99630952Y33000000D01*
X99583333Y32952381D01*
X99535714Y32857143D01*
X99535714Y32761905D01*
X99583333Y32619048D01*
X100154761Y32047620D01*
X99535714Y32047620D01*
%TO.C,FB1*%
X92433333Y24871429D02*
X92766666Y24871429D01*
X92766666Y24347620D02*
X92766666Y25347620D01*
X92290476Y25347620D01*
X91576190Y24871429D02*
X91433333Y24823810D01*
X91385714Y24776191D01*
X91338095Y24680953D01*
X91338095Y24538096D01*
X91385714Y24442858D01*
X91433333Y24395239D01*
X91528571Y24347620D01*
X91909523Y24347620D01*
X91909523Y25347620D01*
X91576190Y25347620D01*
X91480952Y25300000D01*
X91433333Y25252381D01*
X91385714Y25157143D01*
X91385714Y25061905D01*
X91433333Y24966667D01*
X91480952Y24919048D01*
X91576190Y24871429D01*
X91909523Y24871429D01*
X90385714Y24347620D02*
X90957142Y24347620D01*
X90671428Y24347620D02*
X90671428Y25347620D01*
X90766666Y25204762D01*
X90861904Y25109524D01*
X90957142Y25061905D01*
%TO.C,C29*%
X87857142Y22242858D02*
X87904761Y22290477D01*
X87952380Y22433334D01*
X87952380Y22528572D01*
X87904761Y22671429D01*
X87809523Y22766667D01*
X87714285Y22814286D01*
X87523809Y22861905D01*
X87380952Y22861905D01*
X87190476Y22814286D01*
X87095238Y22766667D01*
X87000000Y22671429D01*
X86952380Y22528572D01*
X86952380Y22433334D01*
X87000000Y22290477D01*
X87047619Y22242858D01*
X87047619Y21861905D02*
X87000000Y21814286D01*
X86952380Y21719048D01*
X86952380Y21480953D01*
X87000000Y21385715D01*
X87047619Y21338096D01*
X87142857Y21290477D01*
X87238095Y21290477D01*
X87380952Y21338096D01*
X87952380Y21909524D01*
X87952380Y21290477D01*
X87952380Y20814286D02*
X87952380Y20623810D01*
X87904761Y20528572D01*
X87857142Y20480953D01*
X87714285Y20385715D01*
X87523809Y20338096D01*
X87142857Y20338096D01*
X87047619Y20385715D01*
X87000000Y20433334D01*
X86952380Y20528572D01*
X86952380Y20719048D01*
X87000000Y20814286D01*
X87047619Y20861905D01*
X87142857Y20909524D01*
X87380952Y20909524D01*
X87476190Y20861905D01*
X87523809Y20814286D01*
X87571428Y20719048D01*
X87571428Y20528572D01*
X87523809Y20433334D01*
X87476190Y20385715D01*
X87380952Y20338096D01*
%TO.C,C30*%
X83657142Y22242858D02*
X83704761Y22290477D01*
X83752380Y22433334D01*
X83752380Y22528572D01*
X83704761Y22671429D01*
X83609523Y22766667D01*
X83514285Y22814286D01*
X83323809Y22861905D01*
X83180952Y22861905D01*
X82990476Y22814286D01*
X82895238Y22766667D01*
X82800000Y22671429D01*
X82752380Y22528572D01*
X82752380Y22433334D01*
X82800000Y22290477D01*
X82847619Y22242858D01*
X82752380Y21909524D02*
X82752380Y21290477D01*
X83133333Y21623810D01*
X83133333Y21480953D01*
X83180952Y21385715D01*
X83228571Y21338096D01*
X83323809Y21290477D01*
X83561904Y21290477D01*
X83657142Y21338096D01*
X83704761Y21385715D01*
X83752380Y21480953D01*
X83752380Y21766667D01*
X83704761Y21861905D01*
X83657142Y21909524D01*
X82752380Y20671429D02*
X82752380Y20576191D01*
X82800000Y20480953D01*
X82847619Y20433334D01*
X82942857Y20385715D01*
X83133333Y20338096D01*
X83371428Y20338096D01*
X83561904Y20385715D01*
X83657142Y20433334D01*
X83704761Y20480953D01*
X83752380Y20576191D01*
X83752380Y20671429D01*
X83704761Y20766667D01*
X83657142Y20814286D01*
X83561904Y20861905D01*
X83371428Y20909524D01*
X83133333Y20909524D01*
X82942857Y20861905D01*
X82847619Y20814286D01*
X82800000Y20766667D01*
X82752380Y20671429D01*
%TO.C,C31*%
X80542857Y24442858D02*
X80590476Y24395239D01*
X80733333Y24347620D01*
X80828571Y24347620D01*
X80971428Y24395239D01*
X81066666Y24490477D01*
X81114285Y24585715D01*
X81161904Y24776191D01*
X81161904Y24919048D01*
X81114285Y25109524D01*
X81066666Y25204762D01*
X80971428Y25300000D01*
X80828571Y25347620D01*
X80733333Y25347620D01*
X80590476Y25300000D01*
X80542857Y25252381D01*
X80209523Y25347620D02*
X79590476Y25347620D01*
X79923809Y24966667D01*
X79780952Y24966667D01*
X79685714Y24919048D01*
X79638095Y24871429D01*
X79590476Y24776191D01*
X79590476Y24538096D01*
X79638095Y24442858D01*
X79685714Y24395239D01*
X79780952Y24347620D01*
X80066666Y24347620D01*
X80161904Y24395239D01*
X80209523Y24442858D01*
X78638095Y24347620D02*
X79209523Y24347620D01*
X78923809Y24347620D02*
X78923809Y25347620D01*
X79019047Y25204762D01*
X79114285Y25109524D01*
X79209523Y25061905D01*
%TO.C,U4*%
X85761904Y28347620D02*
X85761904Y27538096D01*
X85714285Y27442858D01*
X85666666Y27395239D01*
X85571428Y27347620D01*
X85380952Y27347620D01*
X85285714Y27395239D01*
X85238095Y27442858D01*
X85190476Y27538096D01*
X85190476Y28347620D01*
X84285714Y28014286D02*
X84285714Y27347620D01*
X84523809Y28395239D02*
X84761904Y27680953D01*
X84142857Y27680953D01*
%TO.C,D2*%
X103738095Y16147620D02*
X103738095Y17147620D01*
X103500000Y17147620D01*
X103357142Y17100000D01*
X103261904Y17004762D01*
X103214285Y16909524D01*
X103166666Y16719048D01*
X103166666Y16576191D01*
X103214285Y16385715D01*
X103261904Y16290477D01*
X103357142Y16195239D01*
X103500000Y16147620D01*
X103738095Y16147620D01*
X102785714Y17052381D02*
X102738095Y17100000D01*
X102642857Y17147620D01*
X102404761Y17147620D01*
X102309523Y17100000D01*
X102261904Y17052381D01*
X102214285Y16957143D01*
X102214285Y16861905D01*
X102261904Y16719048D01*
X102833333Y16147620D01*
X102214285Y16147620D01*
%TO.C,D3*%
X90078018Y10757018D02*
X90578018Y11623044D01*
X90371822Y11742092D01*
X90224294Y11772281D01*
X90094197Y11737421D01*
X90005338Y11678752D01*
X89868861Y11537604D01*
X89797432Y11413887D01*
X89743434Y11225120D01*
X89737054Y11118832D01*
X89771913Y10988734D01*
X89871822Y10876066D01*
X90078018Y10757018D01*
X89794471Y12075425D02*
X89258360Y12384949D01*
X89356559Y11888368D01*
X89232842Y11959796D01*
X89126553Y11966176D01*
X89061505Y11948746D01*
X88972646Y11890077D01*
X88853599Y11683880D01*
X88847219Y11577592D01*
X88864649Y11512544D01*
X88923318Y11423685D01*
X89170754Y11280828D01*
X89277042Y11274448D01*
X89342091Y11291878D01*
%TO.C,D4*%
X81200399Y11495114D02*
X80700399Y12361139D01*
X80494203Y12242092D01*
X80394294Y12129424D01*
X80359435Y11999326D01*
X80365814Y11893038D01*
X80419813Y11704271D01*
X80491242Y11580553D01*
X80627719Y11439405D01*
X80716578Y11380736D01*
X80846675Y11345877D01*
X80994203Y11376066D01*
X81200399Y11495114D01*
X79629887Y11358178D02*
X79963220Y10780828D01*
X79645607Y11807140D02*
X80208946Y11307598D01*
X79672835Y10998075D01*
%TO.C,D5*%
X67538095Y16347620D02*
X67538095Y17347620D01*
X67300000Y17347620D01*
X67157142Y17300000D01*
X67061904Y17204762D01*
X67014285Y17109524D01*
X66966666Y16919048D01*
X66966666Y16776191D01*
X67014285Y16585715D01*
X67061904Y16490477D01*
X67157142Y16395239D01*
X67300000Y16347620D01*
X67538095Y16347620D01*
X66061904Y17347620D02*
X66538095Y17347620D01*
X66585714Y16871429D01*
X66538095Y16919048D01*
X66442857Y16966667D01*
X66204761Y16966667D01*
X66109523Y16919048D01*
X66061904Y16871429D01*
X66014285Y16776191D01*
X66014285Y16538096D01*
X66061904Y16442858D01*
X66109523Y16395239D01*
X66204761Y16347620D01*
X66442857Y16347620D01*
X66538095Y16395239D01*
X66585714Y16442858D01*
%TO.C,Q2*%
X103095238Y13052381D02*
X103190476Y13100000D01*
X103285714Y13195239D01*
X103428571Y13338096D01*
X103523809Y13385715D01*
X103619047Y13385715D01*
X103571428Y13147620D02*
X103666666Y13195239D01*
X103761904Y13290477D01*
X103809523Y13480953D01*
X103809523Y13814286D01*
X103761904Y14004762D01*
X103666666Y14100000D01*
X103571428Y14147620D01*
X103380952Y14147620D01*
X103285714Y14100000D01*
X103190476Y14004762D01*
X103142857Y13814286D01*
X103142857Y13480953D01*
X103190476Y13290477D01*
X103285714Y13195239D01*
X103380952Y13147620D01*
X103571428Y13147620D01*
X102761904Y14052381D02*
X102714285Y14100000D01*
X102619047Y14147620D01*
X102380952Y14147620D01*
X102285714Y14100000D01*
X102238095Y14052381D01*
X102190476Y13957143D01*
X102190476Y13861905D01*
X102238095Y13719048D01*
X102809523Y13147620D01*
X102190476Y13147620D01*
%TO.C,Q4*%
X91973669Y9495968D02*
X92079957Y9489589D01*
X92210054Y9524448D01*
X92405201Y9576738D01*
X92511489Y9570358D01*
X92593968Y9522739D01*
X92433681Y9340352D02*
X92539969Y9333972D01*
X92670066Y9368832D01*
X92806544Y9509979D01*
X92973211Y9798654D01*
X93027209Y9987421D01*
X92992350Y10117519D01*
X92933681Y10206377D01*
X92768723Y10301615D01*
X92662435Y10307995D01*
X92532338Y10273135D01*
X92395860Y10131988D01*
X92229194Y9843313D01*
X92175195Y9654546D01*
X92210054Y9524448D01*
X92268723Y9435590D01*
X92433681Y9340352D01*
X91653553Y10560559D02*
X91320219Y9983209D01*
X92050225Y10771426D02*
X91899279Y10033789D01*
X91363168Y10343313D01*
%TO.C,Q6*%
X78191288Y9591207D02*
X78249957Y9680065D01*
X78284816Y9810163D01*
X78337106Y10005309D01*
X78395775Y10094167D01*
X78478253Y10141786D01*
X78556062Y9911780D02*
X78614731Y10000639D01*
X78649590Y10130736D01*
X78595591Y10319503D01*
X78428925Y10608178D01*
X78292447Y10749326D01*
X78162350Y10784186D01*
X78056062Y10777806D01*
X77891104Y10682568D01*
X77832435Y10593709D01*
X77797576Y10463612D01*
X77851575Y10274845D01*
X78018241Y9986170D01*
X78154719Y9845022D01*
X78284816Y9810163D01*
X78391104Y9816542D01*
X78556062Y9911780D01*
X76942600Y10134949D02*
X77107558Y10230187D01*
X77213846Y10236566D01*
X77278895Y10219137D01*
X77432802Y10143038D01*
X77569279Y10001890D01*
X77759755Y9671976D01*
X77766135Y9565688D01*
X77748705Y9500639D01*
X77690036Y9411780D01*
X77525079Y9316542D01*
X77418791Y9310163D01*
X77353742Y9327592D01*
X77264884Y9386261D01*
X77145836Y9592458D01*
X77139456Y9698746D01*
X77156886Y9763795D01*
X77215555Y9852653D01*
X77380512Y9947891D01*
X77486801Y9954271D01*
X77551849Y9936841D01*
X77640708Y9878172D01*
%TO.C,Q8*%
X66895238Y13452381D02*
X66990476Y13500000D01*
X67085714Y13595239D01*
X67228571Y13738096D01*
X67323809Y13785715D01*
X67419047Y13785715D01*
X67371428Y13547620D02*
X67466666Y13595239D01*
X67561904Y13690477D01*
X67609523Y13880953D01*
X67609523Y14214286D01*
X67561904Y14404762D01*
X67466666Y14500000D01*
X67371428Y14547620D01*
X67180952Y14547620D01*
X67085714Y14500000D01*
X66990476Y14404762D01*
X66942857Y14214286D01*
X66942857Y13880953D01*
X66990476Y13690477D01*
X67085714Y13595239D01*
X67180952Y13547620D01*
X67371428Y13547620D01*
X66371428Y14119048D02*
X66466666Y14166667D01*
X66514285Y14214286D01*
X66561904Y14309524D01*
X66561904Y14357143D01*
X66514285Y14452381D01*
X66466666Y14500000D01*
X66371428Y14547620D01*
X66180952Y14547620D01*
X66085714Y14500000D01*
X66038095Y14452381D01*
X65990476Y14357143D01*
X65990476Y14309524D01*
X66038095Y14214286D01*
X66085714Y14166667D01*
X66180952Y14119048D01*
X66371428Y14119048D01*
X66466666Y14071429D01*
X66514285Y14023810D01*
X66561904Y13928572D01*
X66561904Y13738096D01*
X66514285Y13642858D01*
X66466666Y13595239D01*
X66371428Y13547620D01*
X66180952Y13547620D01*
X66085714Y13595239D01*
X66038095Y13642858D01*
X65990476Y13738096D01*
X65990476Y13928572D01*
X66038095Y14023810D01*
X66085714Y14071429D01*
X66180952Y14119048D01*
%TO.C,J1*%
X18733333Y2147620D02*
X18733333Y1433334D01*
X18780952Y1290477D01*
X18876190Y1195239D01*
X19019047Y1147620D01*
X19114285Y1147620D01*
X17733333Y1147620D02*
X18304761Y1147620D01*
X18019047Y1147620D02*
X18019047Y2147620D01*
X18114285Y2004762D01*
X18209523Y1909524D01*
X18304761Y1861905D01*
%TO.C,FB2*%
X101925333Y6769429D02*
X102258666Y6769429D01*
X102258666Y6245620D02*
X102258666Y7245620D01*
X101782476Y7245620D01*
X101068190Y6769429D02*
X100925333Y6721810D01*
X100877714Y6674191D01*
X100830095Y6578953D01*
X100830095Y6436096D01*
X100877714Y6340858D01*
X100925333Y6293239D01*
X101020571Y6245620D01*
X101401523Y6245620D01*
X101401523Y7245620D01*
X101068190Y7245620D01*
X100972952Y7198000D01*
X100925333Y7150381D01*
X100877714Y7055143D01*
X100877714Y6959905D01*
X100925333Y6864667D01*
X100972952Y6817048D01*
X101068190Y6769429D01*
X101401523Y6769429D01*
X100449142Y7150381D02*
X100401523Y7198000D01*
X100306285Y7245620D01*
X100068190Y7245620D01*
X99972952Y7198000D01*
X99925333Y7150381D01*
X99877714Y7055143D01*
X99877714Y6959905D01*
X99925333Y6817048D01*
X100496761Y6245620D01*
X99877714Y6245620D01*
%TD*%
M02*
