%TF.GenerationSoftware,KiCad,Pcbnew,5.1.6-c6e7f7d~87~ubuntu18.04.1*%
%TF.CreationDate,2020-09-10T12:49:25+09:00*%
%TF.ProjectId,m5mouse,6d356d6f-7573-4652-9e6b-696361645f70,rev?*%
%TF.SameCoordinates,PX4c4b400PY8583b00*%
%TF.FileFunction,Paste,Bot*%
%TF.FilePolarity,Positive*%
%FSLAX46Y46*%
G04 Gerber Fmt 4.6, Leading zero omitted, Abs format (unit mm)*
G04 Created by KiCad (PCBNEW 5.1.6-c6e7f7d~87~ubuntu18.04.1) date 2020-09-10 12:49:25*
%MOMM*%
%LPD*%
G01*
G04 APERTURE LIST*
%ADD10R,3.250000X2.150000*%
%ADD11R,0.950000X2.150000*%
%ADD12R,0.800000X0.900000*%
%ADD13R,0.650000X1.060000*%
%ADD14R,0.250000X0.500000*%
%ADD15R,1.170000X0.950000*%
%ADD16C,0.100000*%
%ADD17R,1.400000X1.800000*%
G04 APERTURE END LIST*
%TO.C,C1*%
G36*
G01*
X24675000Y15327500D02*
X24675000Y15672500D01*
G75*
G02*
X24822500Y15820000I147500J0D01*
G01*
X25117500Y15820000D01*
G75*
G02*
X25265000Y15672500I0J-147500D01*
G01*
X25265000Y15327500D01*
G75*
G02*
X25117500Y15180000I-147500J0D01*
G01*
X24822500Y15180000D01*
G75*
G02*
X24675000Y15327500I0J147500D01*
G01*
G37*
G36*
G01*
X23705000Y15327500D02*
X23705000Y15672500D01*
G75*
G02*
X23852500Y15820000I147500J0D01*
G01*
X24147500Y15820000D01*
G75*
G02*
X24295000Y15672500I0J-147500D01*
G01*
X24295000Y15327500D01*
G75*
G02*
X24147500Y15180000I-147500J0D01*
G01*
X23852500Y15180000D01*
G75*
G02*
X23705000Y15327500I0J147500D01*
G01*
G37*
%TD*%
%TO.C,C2*%
G36*
G01*
X24690000Y16327500D02*
X24690000Y16672500D01*
G75*
G02*
X24837500Y16820000I147500J0D01*
G01*
X25132500Y16820000D01*
G75*
G02*
X25280000Y16672500I0J-147500D01*
G01*
X25280000Y16327500D01*
G75*
G02*
X25132500Y16180000I-147500J0D01*
G01*
X24837500Y16180000D01*
G75*
G02*
X24690000Y16327500I0J147500D01*
G01*
G37*
G36*
G01*
X23720000Y16327500D02*
X23720000Y16672500D01*
G75*
G02*
X23867500Y16820000I147500J0D01*
G01*
X24162500Y16820000D01*
G75*
G02*
X24310000Y16672500I0J-147500D01*
G01*
X24310000Y16327500D01*
G75*
G02*
X24162500Y16180000I-147500J0D01*
G01*
X23867500Y16180000D01*
G75*
G02*
X23720000Y16327500I0J147500D01*
G01*
G37*
%TD*%
%TO.C,C3*%
G36*
G01*
X23720000Y17327500D02*
X23720000Y17672500D01*
G75*
G02*
X23867500Y17820000I147500J0D01*
G01*
X24162500Y17820000D01*
G75*
G02*
X24310000Y17672500I0J-147500D01*
G01*
X24310000Y17327500D01*
G75*
G02*
X24162500Y17180000I-147500J0D01*
G01*
X23867500Y17180000D01*
G75*
G02*
X23720000Y17327500I0J147500D01*
G01*
G37*
G36*
G01*
X24690000Y17327500D02*
X24690000Y17672500D01*
G75*
G02*
X24837500Y17820000I147500J0D01*
G01*
X25132500Y17820000D01*
G75*
G02*
X25280000Y17672500I0J-147500D01*
G01*
X25280000Y17327500D01*
G75*
G02*
X25132500Y17180000I-147500J0D01*
G01*
X24837500Y17180000D01*
G75*
G02*
X24690000Y17327500I0J147500D01*
G01*
G37*
%TD*%
%TO.C,C4*%
G36*
G01*
X27672500Y22190000D02*
X27327500Y22190000D01*
G75*
G02*
X27180000Y22337500I0J147500D01*
G01*
X27180000Y22632500D01*
G75*
G02*
X27327500Y22780000I147500J0D01*
G01*
X27672500Y22780000D01*
G75*
G02*
X27820000Y22632500I0J-147500D01*
G01*
X27820000Y22337500D01*
G75*
G02*
X27672500Y22190000I-147500J0D01*
G01*
G37*
G36*
G01*
X27672500Y21220000D02*
X27327500Y21220000D01*
G75*
G02*
X27180000Y21367500I0J147500D01*
G01*
X27180000Y21662500D01*
G75*
G02*
X27327500Y21810000I147500J0D01*
G01*
X27672500Y21810000D01*
G75*
G02*
X27820000Y21662500I0J-147500D01*
G01*
X27820000Y21367500D01*
G75*
G02*
X27672500Y21220000I-147500J0D01*
G01*
G37*
%TD*%
%TO.C,C5*%
G36*
G01*
X28327500Y15780000D02*
X28672500Y15780000D01*
G75*
G02*
X28820000Y15632500I0J-147500D01*
G01*
X28820000Y15337500D01*
G75*
G02*
X28672500Y15190000I-147500J0D01*
G01*
X28327500Y15190000D01*
G75*
G02*
X28180000Y15337500I0J147500D01*
G01*
X28180000Y15632500D01*
G75*
G02*
X28327500Y15780000I147500J0D01*
G01*
G37*
G36*
G01*
X28327500Y14810000D02*
X28672500Y14810000D01*
G75*
G02*
X28820000Y14662500I0J-147500D01*
G01*
X28820000Y14367500D01*
G75*
G02*
X28672500Y14220000I-147500J0D01*
G01*
X28327500Y14220000D01*
G75*
G02*
X28180000Y14367500I0J147500D01*
G01*
X28180000Y14662500D01*
G75*
G02*
X28327500Y14810000I147500J0D01*
G01*
G37*
%TD*%
%TO.C,C6*%
G36*
G01*
X27327500Y15780000D02*
X27672500Y15780000D01*
G75*
G02*
X27820000Y15632500I0J-147500D01*
G01*
X27820000Y15337500D01*
G75*
G02*
X27672500Y15190000I-147500J0D01*
G01*
X27327500Y15190000D01*
G75*
G02*
X27180000Y15337500I0J147500D01*
G01*
X27180000Y15632500D01*
G75*
G02*
X27327500Y15780000I147500J0D01*
G01*
G37*
G36*
G01*
X27327500Y14810000D02*
X27672500Y14810000D01*
G75*
G02*
X27820000Y14662500I0J-147500D01*
G01*
X27820000Y14367500D01*
G75*
G02*
X27672500Y14220000I-147500J0D01*
G01*
X27327500Y14220000D01*
G75*
G02*
X27180000Y14367500I0J147500D01*
G01*
X27180000Y14662500D01*
G75*
G02*
X27327500Y14810000I147500J0D01*
G01*
G37*
%TD*%
%TO.C,C7*%
G36*
G01*
X26327500Y15780000D02*
X26672500Y15780000D01*
G75*
G02*
X26820000Y15632500I0J-147500D01*
G01*
X26820000Y15337500D01*
G75*
G02*
X26672500Y15190000I-147500J0D01*
G01*
X26327500Y15190000D01*
G75*
G02*
X26180000Y15337500I0J147500D01*
G01*
X26180000Y15632500D01*
G75*
G02*
X26327500Y15780000I147500J0D01*
G01*
G37*
G36*
G01*
X26327500Y14810000D02*
X26672500Y14810000D01*
G75*
G02*
X26820000Y14662500I0J-147500D01*
G01*
X26820000Y14367500D01*
G75*
G02*
X26672500Y14220000I-147500J0D01*
G01*
X26327500Y14220000D01*
G75*
G02*
X26180000Y14367500I0J147500D01*
G01*
X26180000Y14662500D01*
G75*
G02*
X26327500Y14810000I147500J0D01*
G01*
G37*
%TD*%
%TO.C,C8*%
G36*
G01*
X93990000Y33627500D02*
X93990000Y33972500D01*
G75*
G02*
X94137500Y34120000I147500J0D01*
G01*
X94432500Y34120000D01*
G75*
G02*
X94580000Y33972500I0J-147500D01*
G01*
X94580000Y33627500D01*
G75*
G02*
X94432500Y33480000I-147500J0D01*
G01*
X94137500Y33480000D01*
G75*
G02*
X93990000Y33627500I0J147500D01*
G01*
G37*
G36*
G01*
X93020000Y33627500D02*
X93020000Y33972500D01*
G75*
G02*
X93167500Y34120000I147500J0D01*
G01*
X93462500Y34120000D01*
G75*
G02*
X93610000Y33972500I0J-147500D01*
G01*
X93610000Y33627500D01*
G75*
G02*
X93462500Y33480000I-147500J0D01*
G01*
X93167500Y33480000D01*
G75*
G02*
X93020000Y33627500I0J147500D01*
G01*
G37*
%TD*%
%TO.C,Ce*%
G36*
G01*
X88827500Y29380000D02*
X89172500Y29380000D01*
G75*
G02*
X89320000Y29232500I0J-147500D01*
G01*
X89320000Y28937500D01*
G75*
G02*
X89172500Y28790000I-147500J0D01*
G01*
X88827500Y28790000D01*
G75*
G02*
X88680000Y28937500I0J147500D01*
G01*
X88680000Y29232500D01*
G75*
G02*
X88827500Y29380000I147500J0D01*
G01*
G37*
G36*
G01*
X88827500Y28410000D02*
X89172500Y28410000D01*
G75*
G02*
X89320000Y28262500I0J-147500D01*
G01*
X89320000Y27967500D01*
G75*
G02*
X89172500Y27820000I-147500J0D01*
G01*
X88827500Y27820000D01*
G75*
G02*
X88680000Y27967500I0J147500D01*
G01*
X88680000Y28262500D01*
G75*
G02*
X88827500Y28410000I147500J0D01*
G01*
G37*
%TD*%
%TO.C,C10*%
G36*
G01*
X85210000Y41172500D02*
X85210000Y40827500D01*
G75*
G02*
X85062500Y40680000I-147500J0D01*
G01*
X84767500Y40680000D01*
G75*
G02*
X84620000Y40827500I0J147500D01*
G01*
X84620000Y41172500D01*
G75*
G02*
X84767500Y41320000I147500J0D01*
G01*
X85062500Y41320000D01*
G75*
G02*
X85210000Y41172500I0J-147500D01*
G01*
G37*
G36*
G01*
X86180000Y41172500D02*
X86180000Y40827500D01*
G75*
G02*
X86032500Y40680000I-147500J0D01*
G01*
X85737500Y40680000D01*
G75*
G02*
X85590000Y40827500I0J147500D01*
G01*
X85590000Y41172500D01*
G75*
G02*
X85737500Y41320000I147500J0D01*
G01*
X86032500Y41320000D01*
G75*
G02*
X86180000Y41172500I0J-147500D01*
G01*
G37*
%TD*%
%TO.C,C11*%
G36*
G01*
X74680000Y28572500D02*
X74680000Y28227500D01*
G75*
G02*
X74532500Y28080000I-147500J0D01*
G01*
X74237500Y28080000D01*
G75*
G02*
X74090000Y28227500I0J147500D01*
G01*
X74090000Y28572500D01*
G75*
G02*
X74237500Y28720000I147500J0D01*
G01*
X74532500Y28720000D01*
G75*
G02*
X74680000Y28572500I0J-147500D01*
G01*
G37*
G36*
G01*
X73710000Y28572500D02*
X73710000Y28227500D01*
G75*
G02*
X73562500Y28080000I-147500J0D01*
G01*
X73267500Y28080000D01*
G75*
G02*
X73120000Y28227500I0J147500D01*
G01*
X73120000Y28572500D01*
G75*
G02*
X73267500Y28720000I147500J0D01*
G01*
X73562500Y28720000D01*
G75*
G02*
X73710000Y28572500I0J-147500D01*
G01*
G37*
%TD*%
%TO.C,C12*%
G36*
G01*
X67820000Y34827500D02*
X67820000Y35172500D01*
G75*
G02*
X67967500Y35320000I147500J0D01*
G01*
X68262500Y35320000D01*
G75*
G02*
X68410000Y35172500I0J-147500D01*
G01*
X68410000Y34827500D01*
G75*
G02*
X68262500Y34680000I-147500J0D01*
G01*
X67967500Y34680000D01*
G75*
G02*
X67820000Y34827500I0J147500D01*
G01*
G37*
G36*
G01*
X68790000Y34827500D02*
X68790000Y35172500D01*
G75*
G02*
X68937500Y35320000I147500J0D01*
G01*
X69232500Y35320000D01*
G75*
G02*
X69380000Y35172500I0J-147500D01*
G01*
X69380000Y34827500D01*
G75*
G02*
X69232500Y34680000I-147500J0D01*
G01*
X68937500Y34680000D01*
G75*
G02*
X68790000Y34827500I0J147500D01*
G01*
G37*
%TD*%
%TO.C,C13*%
G36*
G01*
X73990000Y44227500D02*
X73990000Y44572500D01*
G75*
G02*
X74137500Y44720000I147500J0D01*
G01*
X74432500Y44720000D01*
G75*
G02*
X74580000Y44572500I0J-147500D01*
G01*
X74580000Y44227500D01*
G75*
G02*
X74432500Y44080000I-147500J0D01*
G01*
X74137500Y44080000D01*
G75*
G02*
X73990000Y44227500I0J147500D01*
G01*
G37*
G36*
G01*
X73020000Y44227500D02*
X73020000Y44572500D01*
G75*
G02*
X73167500Y44720000I147500J0D01*
G01*
X73462500Y44720000D01*
G75*
G02*
X73610000Y44572500I0J-147500D01*
G01*
X73610000Y44227500D01*
G75*
G02*
X73462500Y44080000I-147500J0D01*
G01*
X73167500Y44080000D01*
G75*
G02*
X73020000Y44227500I0J147500D01*
G01*
G37*
%TD*%
%TO.C,C14*%
G36*
G01*
X84620000Y41827500D02*
X84620000Y42172500D01*
G75*
G02*
X84767500Y42320000I147500J0D01*
G01*
X85062500Y42320000D01*
G75*
G02*
X85210000Y42172500I0J-147500D01*
G01*
X85210000Y41827500D01*
G75*
G02*
X85062500Y41680000I-147500J0D01*
G01*
X84767500Y41680000D01*
G75*
G02*
X84620000Y41827500I0J147500D01*
G01*
G37*
G36*
G01*
X85590000Y41827500D02*
X85590000Y42172500D01*
G75*
G02*
X85737500Y42320000I147500J0D01*
G01*
X86032500Y42320000D01*
G75*
G02*
X86180000Y42172500I0J-147500D01*
G01*
X86180000Y41827500D01*
G75*
G02*
X86032500Y41680000I-147500J0D01*
G01*
X85737500Y41680000D01*
G75*
G02*
X85590000Y41827500I0J147500D01*
G01*
G37*
%TD*%
%TO.C,C15*%
G36*
G01*
X83080000Y29572500D02*
X83080000Y29227500D01*
G75*
G02*
X82932500Y29080000I-147500J0D01*
G01*
X82637500Y29080000D01*
G75*
G02*
X82490000Y29227500I0J147500D01*
G01*
X82490000Y29572500D01*
G75*
G02*
X82637500Y29720000I147500J0D01*
G01*
X82932500Y29720000D01*
G75*
G02*
X83080000Y29572500I0J-147500D01*
G01*
G37*
G36*
G01*
X82110000Y29572500D02*
X82110000Y29227500D01*
G75*
G02*
X81962500Y29080000I-147500J0D01*
G01*
X81667500Y29080000D01*
G75*
G02*
X81520000Y29227500I0J147500D01*
G01*
X81520000Y29572500D01*
G75*
G02*
X81667500Y29720000I147500J0D01*
G01*
X81962500Y29720000D01*
G75*
G02*
X82110000Y29572500I0J-147500D01*
G01*
G37*
%TD*%
%TO.C,C16*%
G36*
G01*
X83080000Y28572500D02*
X83080000Y28227500D01*
G75*
G02*
X82932500Y28080000I-147500J0D01*
G01*
X82637500Y28080000D01*
G75*
G02*
X82490000Y28227500I0J147500D01*
G01*
X82490000Y28572500D01*
G75*
G02*
X82637500Y28720000I147500J0D01*
G01*
X82932500Y28720000D01*
G75*
G02*
X83080000Y28572500I0J-147500D01*
G01*
G37*
G36*
G01*
X82110000Y28572500D02*
X82110000Y28227500D01*
G75*
G02*
X81962500Y28080000I-147500J0D01*
G01*
X81667500Y28080000D01*
G75*
G02*
X81520000Y28227500I0J147500D01*
G01*
X81520000Y28572500D01*
G75*
G02*
X81667500Y28720000I147500J0D01*
G01*
X81962500Y28720000D01*
G75*
G02*
X82110000Y28572500I0J-147500D01*
G01*
G37*
%TD*%
%TO.C,C17*%
G36*
G01*
X83080000Y27572500D02*
X83080000Y27227500D01*
G75*
G02*
X82932500Y27080000I-147500J0D01*
G01*
X82637500Y27080000D01*
G75*
G02*
X82490000Y27227500I0J147500D01*
G01*
X82490000Y27572500D01*
G75*
G02*
X82637500Y27720000I147500J0D01*
G01*
X82932500Y27720000D01*
G75*
G02*
X83080000Y27572500I0J-147500D01*
G01*
G37*
G36*
G01*
X82110000Y27572500D02*
X82110000Y27227500D01*
G75*
G02*
X81962500Y27080000I-147500J0D01*
G01*
X81667500Y27080000D01*
G75*
G02*
X81520000Y27227500I0J147500D01*
G01*
X81520000Y27572500D01*
G75*
G02*
X81667500Y27720000I147500J0D01*
G01*
X81962500Y27720000D01*
G75*
G02*
X82110000Y27572500I0J-147500D01*
G01*
G37*
%TD*%
%TO.C,C18*%
G36*
G01*
X76901500Y20010000D02*
X77246500Y20010000D01*
G75*
G02*
X77394000Y19862500I0J-147500D01*
G01*
X77394000Y19567500D01*
G75*
G02*
X77246500Y19420000I-147500J0D01*
G01*
X76901500Y19420000D01*
G75*
G02*
X76754000Y19567500I0J147500D01*
G01*
X76754000Y19862500D01*
G75*
G02*
X76901500Y20010000I147500J0D01*
G01*
G37*
G36*
G01*
X76901500Y20980000D02*
X77246500Y20980000D01*
G75*
G02*
X77394000Y20832500I0J-147500D01*
G01*
X77394000Y20537500D01*
G75*
G02*
X77246500Y20390000I-147500J0D01*
G01*
X76901500Y20390000D01*
G75*
G02*
X76754000Y20537500I0J147500D01*
G01*
X76754000Y20832500D01*
G75*
G02*
X76901500Y20980000I147500J0D01*
G01*
G37*
%TD*%
%TO.C,C19*%
G36*
G01*
X77246500Y18390000D02*
X76901500Y18390000D01*
G75*
G02*
X76754000Y18537500I0J147500D01*
G01*
X76754000Y18832500D01*
G75*
G02*
X76901500Y18980000I147500J0D01*
G01*
X77246500Y18980000D01*
G75*
G02*
X77394000Y18832500I0J-147500D01*
G01*
X77394000Y18537500D01*
G75*
G02*
X77246500Y18390000I-147500J0D01*
G01*
G37*
G36*
G01*
X77246500Y17420000D02*
X76901500Y17420000D01*
G75*
G02*
X76754000Y17567500I0J147500D01*
G01*
X76754000Y17862500D01*
G75*
G02*
X76901500Y18010000I147500J0D01*
G01*
X77246500Y18010000D01*
G75*
G02*
X77394000Y17862500I0J-147500D01*
G01*
X77394000Y17567500D01*
G75*
G02*
X77246500Y17420000I-147500J0D01*
G01*
G37*
%TD*%
%TO.C,C20*%
G36*
G01*
X60810000Y31596500D02*
X60810000Y31251500D01*
G75*
G02*
X60662500Y31104000I-147500J0D01*
G01*
X60367500Y31104000D01*
G75*
G02*
X60220000Y31251500I0J147500D01*
G01*
X60220000Y31596500D01*
G75*
G02*
X60367500Y31744000I147500J0D01*
G01*
X60662500Y31744000D01*
G75*
G02*
X60810000Y31596500I0J-147500D01*
G01*
G37*
G36*
G01*
X61780000Y31596500D02*
X61780000Y31251500D01*
G75*
G02*
X61632500Y31104000I-147500J0D01*
G01*
X61337500Y31104000D01*
G75*
G02*
X61190000Y31251500I0J147500D01*
G01*
X61190000Y31596500D01*
G75*
G02*
X61337500Y31744000I147500J0D01*
G01*
X61632500Y31744000D01*
G75*
G02*
X61780000Y31596500I0J-147500D01*
G01*
G37*
%TD*%
%TO.C,C21*%
G36*
G01*
X60810000Y27350500D02*
X60810000Y27005500D01*
G75*
G02*
X60662500Y26858000I-147500J0D01*
G01*
X60367500Y26858000D01*
G75*
G02*
X60220000Y27005500I0J147500D01*
G01*
X60220000Y27350500D01*
G75*
G02*
X60367500Y27498000I147500J0D01*
G01*
X60662500Y27498000D01*
G75*
G02*
X60810000Y27350500I0J-147500D01*
G01*
G37*
G36*
G01*
X61780000Y27350500D02*
X61780000Y27005500D01*
G75*
G02*
X61632500Y26858000I-147500J0D01*
G01*
X61337500Y26858000D01*
G75*
G02*
X61190000Y27005500I0J147500D01*
G01*
X61190000Y27350500D01*
G75*
G02*
X61337500Y27498000I147500J0D01*
G01*
X61632500Y27498000D01*
G75*
G02*
X61780000Y27350500I0J-147500D01*
G01*
G37*
%TD*%
%TO.C,C22*%
G36*
G01*
X99580000Y24972500D02*
X99580000Y24627500D01*
G75*
G02*
X99432500Y24480000I-147500J0D01*
G01*
X99137500Y24480000D01*
G75*
G02*
X98990000Y24627500I0J147500D01*
G01*
X98990000Y24972500D01*
G75*
G02*
X99137500Y25120000I147500J0D01*
G01*
X99432500Y25120000D01*
G75*
G02*
X99580000Y24972500I0J-147500D01*
G01*
G37*
G36*
G01*
X98610000Y24972500D02*
X98610000Y24627500D01*
G75*
G02*
X98462500Y24480000I-147500J0D01*
G01*
X98167500Y24480000D01*
G75*
G02*
X98020000Y24627500I0J147500D01*
G01*
X98020000Y24972500D01*
G75*
G02*
X98167500Y25120000I147500J0D01*
G01*
X98462500Y25120000D01*
G75*
G02*
X98610000Y24972500I0J-147500D01*
G01*
G37*
%TD*%
%TO.C,C23*%
G36*
G01*
X68410000Y34172500D02*
X68410000Y33827500D01*
G75*
G02*
X68262500Y33680000I-147500J0D01*
G01*
X67967500Y33680000D01*
G75*
G02*
X67820000Y33827500I0J147500D01*
G01*
X67820000Y34172500D01*
G75*
G02*
X67967500Y34320000I147500J0D01*
G01*
X68262500Y34320000D01*
G75*
G02*
X68410000Y34172500I0J-147500D01*
G01*
G37*
G36*
G01*
X69380000Y34172500D02*
X69380000Y33827500D01*
G75*
G02*
X69232500Y33680000I-147500J0D01*
G01*
X68937500Y33680000D01*
G75*
G02*
X68790000Y33827500I0J147500D01*
G01*
X68790000Y34172500D01*
G75*
G02*
X68937500Y34320000I147500J0D01*
G01*
X69232500Y34320000D01*
G75*
G02*
X69380000Y34172500I0J-147500D01*
G01*
G37*
%TD*%
%TO.C,C24*%
G36*
G01*
X74580000Y43572500D02*
X74580000Y43227500D01*
G75*
G02*
X74432500Y43080000I-147500J0D01*
G01*
X74137500Y43080000D01*
G75*
G02*
X73990000Y43227500I0J147500D01*
G01*
X73990000Y43572500D01*
G75*
G02*
X74137500Y43720000I147500J0D01*
G01*
X74432500Y43720000D01*
G75*
G02*
X74580000Y43572500I0J-147500D01*
G01*
G37*
G36*
G01*
X73610000Y43572500D02*
X73610000Y43227500D01*
G75*
G02*
X73462500Y43080000I-147500J0D01*
G01*
X73167500Y43080000D01*
G75*
G02*
X73020000Y43227500I0J147500D01*
G01*
X73020000Y43572500D01*
G75*
G02*
X73167500Y43720000I147500J0D01*
G01*
X73462500Y43720000D01*
G75*
G02*
X73610000Y43572500I0J-147500D01*
G01*
G37*
%TD*%
%TO.C,C25*%
G36*
G01*
X61780000Y32596500D02*
X61780000Y32251500D01*
G75*
G02*
X61632500Y32104000I-147500J0D01*
G01*
X61337500Y32104000D01*
G75*
G02*
X61190000Y32251500I0J147500D01*
G01*
X61190000Y32596500D01*
G75*
G02*
X61337500Y32744000I147500J0D01*
G01*
X61632500Y32744000D01*
G75*
G02*
X61780000Y32596500I0J-147500D01*
G01*
G37*
G36*
G01*
X60810000Y32596500D02*
X60810000Y32251500D01*
G75*
G02*
X60662500Y32104000I-147500J0D01*
G01*
X60367500Y32104000D01*
G75*
G02*
X60220000Y32251500I0J147500D01*
G01*
X60220000Y32596500D01*
G75*
G02*
X60367500Y32744000I147500J0D01*
G01*
X60662500Y32744000D01*
G75*
G02*
X60810000Y32596500I0J-147500D01*
G01*
G37*
%TD*%
%TO.C,C26*%
G36*
G01*
X26610000Y30472500D02*
X26610000Y30127500D01*
G75*
G02*
X26462500Y29980000I-147500J0D01*
G01*
X26167500Y29980000D01*
G75*
G02*
X26020000Y30127500I0J147500D01*
G01*
X26020000Y30472500D01*
G75*
G02*
X26167500Y30620000I147500J0D01*
G01*
X26462500Y30620000D01*
G75*
G02*
X26610000Y30472500I0J-147500D01*
G01*
G37*
G36*
G01*
X27580000Y30472500D02*
X27580000Y30127500D01*
G75*
G02*
X27432500Y29980000I-147500J0D01*
G01*
X27137500Y29980000D01*
G75*
G02*
X26990000Y30127500I0J147500D01*
G01*
X26990000Y30472500D01*
G75*
G02*
X27137500Y30620000I147500J0D01*
G01*
X27432500Y30620000D01*
G75*
G02*
X27580000Y30472500I0J-147500D01*
G01*
G37*
%TD*%
%TO.C,C27*%
G36*
G01*
X23990000Y30127500D02*
X23990000Y30472500D01*
G75*
G02*
X24137500Y30620000I147500J0D01*
G01*
X24432500Y30620000D01*
G75*
G02*
X24580000Y30472500I0J-147500D01*
G01*
X24580000Y30127500D01*
G75*
G02*
X24432500Y29980000I-147500J0D01*
G01*
X24137500Y29980000D01*
G75*
G02*
X23990000Y30127500I0J147500D01*
G01*
G37*
G36*
G01*
X23020000Y30127500D02*
X23020000Y30472500D01*
G75*
G02*
X23167500Y30620000I147500J0D01*
G01*
X23462500Y30620000D01*
G75*
G02*
X23610000Y30472500I0J-147500D01*
G01*
X23610000Y30127500D01*
G75*
G02*
X23462500Y29980000I-147500J0D01*
G01*
X23167500Y29980000D01*
G75*
G02*
X23020000Y30127500I0J147500D01*
G01*
G37*
%TD*%
%TO.C,C28*%
G36*
G01*
X87190000Y34027500D02*
X87190000Y34372500D01*
G75*
G02*
X87337500Y34520000I147500J0D01*
G01*
X87632500Y34520000D01*
G75*
G02*
X87780000Y34372500I0J-147500D01*
G01*
X87780000Y34027500D01*
G75*
G02*
X87632500Y33880000I-147500J0D01*
G01*
X87337500Y33880000D01*
G75*
G02*
X87190000Y34027500I0J147500D01*
G01*
G37*
G36*
G01*
X86220000Y34027500D02*
X86220000Y34372500D01*
G75*
G02*
X86367500Y34520000I147500J0D01*
G01*
X86662500Y34520000D01*
G75*
G02*
X86810000Y34372500I0J-147500D01*
G01*
X86810000Y34027500D01*
G75*
G02*
X86662500Y33880000I-147500J0D01*
G01*
X86367500Y33880000D01*
G75*
G02*
X86220000Y34027500I0J147500D01*
G01*
G37*
%TD*%
%TO.C,D1*%
G36*
G01*
X47756250Y28850000D02*
X47243750Y28850000D01*
G75*
G02*
X47025000Y29068750I0J218750D01*
G01*
X47025000Y29506250D01*
G75*
G02*
X47243750Y29725000I218750J0D01*
G01*
X47756250Y29725000D01*
G75*
G02*
X47975000Y29506250I0J-218750D01*
G01*
X47975000Y29068750D01*
G75*
G02*
X47756250Y28850000I-218750J0D01*
G01*
G37*
G36*
G01*
X47756250Y27275000D02*
X47243750Y27275000D01*
G75*
G02*
X47025000Y27493750I0J218750D01*
G01*
X47025000Y27931250D01*
G75*
G02*
X47243750Y28150000I218750J0D01*
G01*
X47756250Y28150000D01*
G75*
G02*
X47975000Y27931250I0J-218750D01*
G01*
X47975000Y27493750D01*
G75*
G02*
X47756250Y27275000I-218750J0D01*
G01*
G37*
%TD*%
%TO.C,D6*%
G36*
G01*
X90275000Y48243750D02*
X90275000Y48756250D01*
G75*
G02*
X90493750Y48975000I218750J0D01*
G01*
X90931250Y48975000D01*
G75*
G02*
X91150000Y48756250I0J-218750D01*
G01*
X91150000Y48243750D01*
G75*
G02*
X90931250Y48025000I-218750J0D01*
G01*
X90493750Y48025000D01*
G75*
G02*
X90275000Y48243750I0J218750D01*
G01*
G37*
G36*
G01*
X91850000Y48243750D02*
X91850000Y48756250D01*
G75*
G02*
X92068750Y48975000I218750J0D01*
G01*
X92506250Y48975000D01*
G75*
G02*
X92725000Y48756250I0J-218750D01*
G01*
X92725000Y48243750D01*
G75*
G02*
X92506250Y48025000I-218750J0D01*
G01*
X92068750Y48025000D01*
G75*
G02*
X91850000Y48243750I0J218750D01*
G01*
G37*
%TD*%
%TO.C,D7*%
G36*
G01*
X65725000Y48756250D02*
X65725000Y48243750D01*
G75*
G02*
X65506250Y48025000I-218750J0D01*
G01*
X65068750Y48025000D01*
G75*
G02*
X64850000Y48243750I0J218750D01*
G01*
X64850000Y48756250D01*
G75*
G02*
X65068750Y48975000I218750J0D01*
G01*
X65506250Y48975000D01*
G75*
G02*
X65725000Y48756250I0J-218750D01*
G01*
G37*
G36*
G01*
X64150000Y48756250D02*
X64150000Y48243750D01*
G75*
G02*
X63931250Y48025000I-218750J0D01*
G01*
X63493750Y48025000D01*
G75*
G02*
X63275000Y48243750I0J218750D01*
G01*
X63275000Y48756250D01*
G75*
G02*
X63493750Y48975000I218750J0D01*
G01*
X63931250Y48975000D01*
G75*
G02*
X64150000Y48756250I0J-218750D01*
G01*
G37*
%TD*%
D10*
%TO.C,IC1*%
X25300000Y39200000D03*
D11*
X25300000Y33400000D03*
X27600000Y33400000D03*
X23000000Y33400000D03*
%TD*%
%TO.C,L1*%
G36*
G01*
X24300000Y11650000D02*
X24300000Y13350000D01*
G75*
G02*
X24550000Y13600000I250000J0D01*
G01*
X25300000Y13600000D01*
G75*
G02*
X25550000Y13350000I0J-250000D01*
G01*
X25550000Y11650000D01*
G75*
G02*
X25300000Y11400000I-250000J0D01*
G01*
X24550000Y11400000D01*
G75*
G02*
X24300000Y11650000I0J250000D01*
G01*
G37*
G36*
G01*
X26450000Y11650000D02*
X26450000Y13350000D01*
G75*
G02*
X26700000Y13600000I250000J0D01*
G01*
X27450000Y13600000D01*
G75*
G02*
X27700000Y13350000I0J-250000D01*
G01*
X27700000Y11650000D01*
G75*
G02*
X27450000Y11400000I-250000J0D01*
G01*
X26700000Y11400000D01*
G75*
G02*
X26450000Y11650000I0J250000D01*
G01*
G37*
%TD*%
D12*
%TO.C,Q1*%
X87050000Y16000000D03*
X88950000Y16000000D03*
X88000000Y14000000D03*
%TD*%
%TO.C,Q3*%
X81200000Y14000000D03*
X82150000Y16000000D03*
X80250000Y16000000D03*
%TD*%
%TO.C,Q5*%
X73750000Y16000000D03*
X75650000Y16000000D03*
X74700000Y14000000D03*
%TD*%
%TO.C,Q7*%
X68100000Y14000000D03*
X69050000Y16000000D03*
X67150000Y16000000D03*
%TD*%
%TO.C,R1*%
G36*
G01*
X29650000Y26256250D02*
X29650000Y25743750D01*
G75*
G02*
X29431250Y25525000I-218750J0D01*
G01*
X28993750Y25525000D01*
G75*
G02*
X28775000Y25743750I0J218750D01*
G01*
X28775000Y26256250D01*
G75*
G02*
X28993750Y26475000I218750J0D01*
G01*
X29431250Y26475000D01*
G75*
G02*
X29650000Y26256250I0J-218750D01*
G01*
G37*
G36*
G01*
X31225000Y26256250D02*
X31225000Y25743750D01*
G75*
G02*
X31006250Y25525000I-218750J0D01*
G01*
X30568750Y25525000D01*
G75*
G02*
X30350000Y25743750I0J218750D01*
G01*
X30350000Y26256250D01*
G75*
G02*
X30568750Y26475000I218750J0D01*
G01*
X31006250Y26475000D01*
G75*
G02*
X31225000Y26256250I0J-218750D01*
G01*
G37*
%TD*%
%TO.C,R2*%
G36*
G01*
X26225000Y27256250D02*
X26225000Y26743750D01*
G75*
G02*
X26006250Y26525000I-218750J0D01*
G01*
X25568750Y26525000D01*
G75*
G02*
X25350000Y26743750I0J218750D01*
G01*
X25350000Y27256250D01*
G75*
G02*
X25568750Y27475000I218750J0D01*
G01*
X26006250Y27475000D01*
G75*
G02*
X26225000Y27256250I0J-218750D01*
G01*
G37*
G36*
G01*
X24650000Y27256250D02*
X24650000Y26743750D01*
G75*
G02*
X24431250Y26525000I-218750J0D01*
G01*
X23993750Y26525000D01*
G75*
G02*
X23775000Y26743750I0J218750D01*
G01*
X23775000Y27256250D01*
G75*
G02*
X23993750Y27475000I218750J0D01*
G01*
X24431250Y27475000D01*
G75*
G02*
X24650000Y27256250I0J-218750D01*
G01*
G37*
%TD*%
%TO.C,R3*%
G36*
G01*
X25350000Y24743750D02*
X25350000Y25256250D01*
G75*
G02*
X25568750Y25475000I218750J0D01*
G01*
X26006250Y25475000D01*
G75*
G02*
X26225000Y25256250I0J-218750D01*
G01*
X26225000Y24743750D01*
G75*
G02*
X26006250Y24525000I-218750J0D01*
G01*
X25568750Y24525000D01*
G75*
G02*
X25350000Y24743750I0J218750D01*
G01*
G37*
G36*
G01*
X23775000Y24743750D02*
X23775000Y25256250D01*
G75*
G02*
X23993750Y25475000I218750J0D01*
G01*
X24431250Y25475000D01*
G75*
G02*
X24650000Y25256250I0J-218750D01*
G01*
X24650000Y24743750D01*
G75*
G02*
X24431250Y24525000I-218750J0D01*
G01*
X23993750Y24525000D01*
G75*
G02*
X23775000Y24743750I0J218750D01*
G01*
G37*
%TD*%
%TO.C,R4*%
G36*
G01*
X84152598Y28685010D02*
X84514990Y29047403D01*
G75*
G02*
X84824350Y29047403I154680J-154680D01*
G01*
X85133709Y28738044D01*
G75*
G02*
X85133709Y28428684I-154680J-154680D01*
G01*
X84771316Y28066291D01*
G75*
G02*
X84461956Y28066291I-154680J154680D01*
G01*
X84152597Y28375650D01*
G75*
G02*
X84152597Y28685010I154680J154680D01*
G01*
G37*
G36*
G01*
X85266292Y27571316D02*
X85628684Y27933709D01*
G75*
G02*
X85938044Y27933709I154680J-154680D01*
G01*
X86247403Y27624350D01*
G75*
G02*
X86247403Y27314990I-154680J-154680D01*
G01*
X85885010Y26952597D01*
G75*
G02*
X85575650Y26952597I-154680J154680D01*
G01*
X85266291Y27261956D01*
G75*
G02*
X85266291Y27571316I154680J154680D01*
G01*
G37*
%TD*%
%TO.C,R5*%
G36*
G01*
X78838250Y19654000D02*
X78325750Y19654000D01*
G75*
G02*
X78107000Y19872750I0J218750D01*
G01*
X78107000Y20310250D01*
G75*
G02*
X78325750Y20529000I218750J0D01*
G01*
X78838250Y20529000D01*
G75*
G02*
X79057000Y20310250I0J-218750D01*
G01*
X79057000Y19872750D01*
G75*
G02*
X78838250Y19654000I-218750J0D01*
G01*
G37*
G36*
G01*
X78838250Y18079000D02*
X78325750Y18079000D01*
G75*
G02*
X78107000Y18297750I0J218750D01*
G01*
X78107000Y18735250D01*
G75*
G02*
X78325750Y18954000I218750J0D01*
G01*
X78838250Y18954000D01*
G75*
G02*
X79057000Y18735250I0J-218750D01*
G01*
X79057000Y18297750D01*
G75*
G02*
X78838250Y18079000I-218750J0D01*
G01*
G37*
%TD*%
%TO.C,R6*%
G36*
G01*
X86775000Y17743750D02*
X86775000Y18256250D01*
G75*
G02*
X86993750Y18475000I218750J0D01*
G01*
X87431250Y18475000D01*
G75*
G02*
X87650000Y18256250I0J-218750D01*
G01*
X87650000Y17743750D01*
G75*
G02*
X87431250Y17525000I-218750J0D01*
G01*
X86993750Y17525000D01*
G75*
G02*
X86775000Y17743750I0J218750D01*
G01*
G37*
G36*
G01*
X88350000Y17743750D02*
X88350000Y18256250D01*
G75*
G02*
X88568750Y18475000I218750J0D01*
G01*
X89006250Y18475000D01*
G75*
G02*
X89225000Y18256250I0J-218750D01*
G01*
X89225000Y17743750D01*
G75*
G02*
X89006250Y17525000I-218750J0D01*
G01*
X88568750Y17525000D01*
G75*
G02*
X88350000Y17743750I0J218750D01*
G01*
G37*
%TD*%
%TO.C,R7*%
G36*
G01*
X95943750Y13425000D02*
X96456250Y13425000D01*
G75*
G02*
X96675000Y13206250I0J-218750D01*
G01*
X96675000Y12768750D01*
G75*
G02*
X96456250Y12550000I-218750J0D01*
G01*
X95943750Y12550000D01*
G75*
G02*
X95725000Y12768750I0J218750D01*
G01*
X95725000Y13206250D01*
G75*
G02*
X95943750Y13425000I218750J0D01*
G01*
G37*
G36*
G01*
X95943750Y11850000D02*
X96456250Y11850000D01*
G75*
G02*
X96675000Y11631250I0J-218750D01*
G01*
X96675000Y11193750D01*
G75*
G02*
X96456250Y10975000I-218750J0D01*
G01*
X95943750Y10975000D01*
G75*
G02*
X95725000Y11193750I0J218750D01*
G01*
X95725000Y11631250D01*
G75*
G02*
X95943750Y11850000I218750J0D01*
G01*
G37*
%TD*%
%TO.C,R8*%
G36*
G01*
X81550000Y17743750D02*
X81550000Y18256250D01*
G75*
G02*
X81768750Y18475000I218750J0D01*
G01*
X82206250Y18475000D01*
G75*
G02*
X82425000Y18256250I0J-218750D01*
G01*
X82425000Y17743750D01*
G75*
G02*
X82206250Y17525000I-218750J0D01*
G01*
X81768750Y17525000D01*
G75*
G02*
X81550000Y17743750I0J218750D01*
G01*
G37*
G36*
G01*
X79975000Y17743750D02*
X79975000Y18256250D01*
G75*
G02*
X80193750Y18475000I218750J0D01*
G01*
X80631250Y18475000D01*
G75*
G02*
X80850000Y18256250I0J-218750D01*
G01*
X80850000Y17743750D01*
G75*
G02*
X80631250Y17525000I-218750J0D01*
G01*
X80193750Y17525000D01*
G75*
G02*
X79975000Y17743750I0J218750D01*
G01*
G37*
%TD*%
%TO.C,R9*%
G36*
G01*
X81943750Y3825000D02*
X82456250Y3825000D01*
G75*
G02*
X82675000Y3606250I0J-218750D01*
G01*
X82675000Y3168750D01*
G75*
G02*
X82456250Y2950000I-218750J0D01*
G01*
X81943750Y2950000D01*
G75*
G02*
X81725000Y3168750I0J218750D01*
G01*
X81725000Y3606250D01*
G75*
G02*
X81943750Y3825000I218750J0D01*
G01*
G37*
G36*
G01*
X81943750Y2250000D02*
X82456250Y2250000D01*
G75*
G02*
X82675000Y2031250I0J-218750D01*
G01*
X82675000Y1593750D01*
G75*
G02*
X82456250Y1375000I-218750J0D01*
G01*
X81943750Y1375000D01*
G75*
G02*
X81725000Y1593750I0J218750D01*
G01*
X81725000Y2031250D01*
G75*
G02*
X81943750Y2250000I218750J0D01*
G01*
G37*
%TD*%
%TO.C,R10*%
G36*
G01*
X75050000Y17743750D02*
X75050000Y18256250D01*
G75*
G02*
X75268750Y18475000I218750J0D01*
G01*
X75706250Y18475000D01*
G75*
G02*
X75925000Y18256250I0J-218750D01*
G01*
X75925000Y17743750D01*
G75*
G02*
X75706250Y17525000I-218750J0D01*
G01*
X75268750Y17525000D01*
G75*
G02*
X75050000Y17743750I0J218750D01*
G01*
G37*
G36*
G01*
X73475000Y17743750D02*
X73475000Y18256250D01*
G75*
G02*
X73693750Y18475000I218750J0D01*
G01*
X74131250Y18475000D01*
G75*
G02*
X74350000Y18256250I0J-218750D01*
G01*
X74350000Y17743750D01*
G75*
G02*
X74131250Y17525000I-218750J0D01*
G01*
X73693750Y17525000D01*
G75*
G02*
X73475000Y17743750I0J218750D01*
G01*
G37*
%TD*%
%TO.C,R11*%
G36*
G01*
X73543750Y3825000D02*
X74056250Y3825000D01*
G75*
G02*
X74275000Y3606250I0J-218750D01*
G01*
X74275000Y3168750D01*
G75*
G02*
X74056250Y2950000I-218750J0D01*
G01*
X73543750Y2950000D01*
G75*
G02*
X73325000Y3168750I0J218750D01*
G01*
X73325000Y3606250D01*
G75*
G02*
X73543750Y3825000I218750J0D01*
G01*
G37*
G36*
G01*
X73543750Y2250000D02*
X74056250Y2250000D01*
G75*
G02*
X74275000Y2031250I0J-218750D01*
G01*
X74275000Y1593750D01*
G75*
G02*
X74056250Y1375000I-218750J0D01*
G01*
X73543750Y1375000D01*
G75*
G02*
X73325000Y1593750I0J218750D01*
G01*
X73325000Y2031250D01*
G75*
G02*
X73543750Y2250000I218750J0D01*
G01*
G37*
%TD*%
%TO.C,R12*%
G36*
G01*
X68450000Y17743750D02*
X68450000Y18256250D01*
G75*
G02*
X68668750Y18475000I218750J0D01*
G01*
X69106250Y18475000D01*
G75*
G02*
X69325000Y18256250I0J-218750D01*
G01*
X69325000Y17743750D01*
G75*
G02*
X69106250Y17525000I-218750J0D01*
G01*
X68668750Y17525000D01*
G75*
G02*
X68450000Y17743750I0J218750D01*
G01*
G37*
G36*
G01*
X66875000Y17743750D02*
X66875000Y18256250D01*
G75*
G02*
X67093750Y18475000I218750J0D01*
G01*
X67531250Y18475000D01*
G75*
G02*
X67750000Y18256250I0J-218750D01*
G01*
X67750000Y17743750D01*
G75*
G02*
X67531250Y17525000I-218750J0D01*
G01*
X67093750Y17525000D01*
G75*
G02*
X66875000Y17743750I0J218750D01*
G01*
G37*
%TD*%
%TO.C,R13*%
G36*
G01*
X59743750Y13425000D02*
X60256250Y13425000D01*
G75*
G02*
X60475000Y13206250I0J-218750D01*
G01*
X60475000Y12768750D01*
G75*
G02*
X60256250Y12550000I-218750J0D01*
G01*
X59743750Y12550000D01*
G75*
G02*
X59525000Y12768750I0J218750D01*
G01*
X59525000Y13206250D01*
G75*
G02*
X59743750Y13425000I218750J0D01*
G01*
G37*
G36*
G01*
X59743750Y11850000D02*
X60256250Y11850000D01*
G75*
G02*
X60475000Y11631250I0J-218750D01*
G01*
X60475000Y11193750D01*
G75*
G02*
X60256250Y10975000I-218750J0D01*
G01*
X59743750Y10975000D01*
G75*
G02*
X59525000Y11193750I0J218750D01*
G01*
X59525000Y11631250D01*
G75*
G02*
X59743750Y11850000I218750J0D01*
G01*
G37*
%TD*%
%TO.C,R14*%
G36*
G01*
X55850000Y32543750D02*
X55850000Y33056250D01*
G75*
G02*
X56068750Y33275000I218750J0D01*
G01*
X56506250Y33275000D01*
G75*
G02*
X56725000Y33056250I0J-218750D01*
G01*
X56725000Y32543750D01*
G75*
G02*
X56506250Y32325000I-218750J0D01*
G01*
X56068750Y32325000D01*
G75*
G02*
X55850000Y32543750I0J218750D01*
G01*
G37*
G36*
G01*
X54275000Y32543750D02*
X54275000Y33056250D01*
G75*
G02*
X54493750Y33275000I218750J0D01*
G01*
X54931250Y33275000D01*
G75*
G02*
X55150000Y33056250I0J-218750D01*
G01*
X55150000Y32543750D01*
G75*
G02*
X54931250Y32325000I-218750J0D01*
G01*
X54493750Y32325000D01*
G75*
G02*
X54275000Y32543750I0J218750D01*
G01*
G37*
%TD*%
%TO.C,R15*%
G36*
G01*
X89525000Y48756250D02*
X89525000Y48243750D01*
G75*
G02*
X89306250Y48025000I-218750J0D01*
G01*
X88868750Y48025000D01*
G75*
G02*
X88650000Y48243750I0J218750D01*
G01*
X88650000Y48756250D01*
G75*
G02*
X88868750Y48975000I218750J0D01*
G01*
X89306250Y48975000D01*
G75*
G02*
X89525000Y48756250I0J-218750D01*
G01*
G37*
G36*
G01*
X87950000Y48756250D02*
X87950000Y48243750D01*
G75*
G02*
X87731250Y48025000I-218750J0D01*
G01*
X87293750Y48025000D01*
G75*
G02*
X87075000Y48243750I0J218750D01*
G01*
X87075000Y48756250D01*
G75*
G02*
X87293750Y48975000I218750J0D01*
G01*
X87731250Y48975000D01*
G75*
G02*
X87950000Y48756250I0J-218750D01*
G01*
G37*
%TD*%
%TO.C,R16*%
G36*
G01*
X68050000Y48243750D02*
X68050000Y48756250D01*
G75*
G02*
X68268750Y48975000I218750J0D01*
G01*
X68706250Y48975000D01*
G75*
G02*
X68925000Y48756250I0J-218750D01*
G01*
X68925000Y48243750D01*
G75*
G02*
X68706250Y48025000I-218750J0D01*
G01*
X68268750Y48025000D01*
G75*
G02*
X68050000Y48243750I0J218750D01*
G01*
G37*
G36*
G01*
X66475000Y48243750D02*
X66475000Y48756250D01*
G75*
G02*
X66693750Y48975000I218750J0D01*
G01*
X67131250Y48975000D01*
G75*
G02*
X67350000Y48756250I0J-218750D01*
G01*
X67350000Y48243750D01*
G75*
G02*
X67131250Y48025000I-218750J0D01*
G01*
X66693750Y48025000D01*
G75*
G02*
X66475000Y48243750I0J218750D01*
G01*
G37*
%TD*%
%TO.C,R17*%
G36*
G01*
X33256250Y25775000D02*
X32743750Y25775000D01*
G75*
G02*
X32525000Y25993750I0J218750D01*
G01*
X32525000Y26431250D01*
G75*
G02*
X32743750Y26650000I218750J0D01*
G01*
X33256250Y26650000D01*
G75*
G02*
X33475000Y26431250I0J-218750D01*
G01*
X33475000Y25993750D01*
G75*
G02*
X33256250Y25775000I-218750J0D01*
G01*
G37*
G36*
G01*
X33256250Y27350000D02*
X32743750Y27350000D01*
G75*
G02*
X32525000Y27568750I0J218750D01*
G01*
X32525000Y28006250D01*
G75*
G02*
X32743750Y28225000I218750J0D01*
G01*
X33256250Y28225000D01*
G75*
G02*
X33475000Y28006250I0J-218750D01*
G01*
X33475000Y27568750D01*
G75*
G02*
X33256250Y27350000I-218750J0D01*
G01*
G37*
%TD*%
%TO.C,R18*%
G36*
G01*
X68850000Y31656250D02*
X68850000Y31143750D01*
G75*
G02*
X68631250Y30925000I-218750J0D01*
G01*
X68193750Y30925000D01*
G75*
G02*
X67975000Y31143750I0J218750D01*
G01*
X67975000Y31656250D01*
G75*
G02*
X68193750Y31875000I218750J0D01*
G01*
X68631250Y31875000D01*
G75*
G02*
X68850000Y31656250I0J-218750D01*
G01*
G37*
G36*
G01*
X70425000Y31656250D02*
X70425000Y31143750D01*
G75*
G02*
X70206250Y30925000I-218750J0D01*
G01*
X69768750Y30925000D01*
G75*
G02*
X69550000Y31143750I0J218750D01*
G01*
X69550000Y31656250D01*
G75*
G02*
X69768750Y31875000I218750J0D01*
G01*
X70206250Y31875000D01*
G75*
G02*
X70425000Y31656250I0J-218750D01*
G01*
G37*
%TD*%
%TO.C,R19*%
G36*
G01*
X29650000Y28256250D02*
X29650000Y27743750D01*
G75*
G02*
X29431250Y27525000I-218750J0D01*
G01*
X28993750Y27525000D01*
G75*
G02*
X28775000Y27743750I0J218750D01*
G01*
X28775000Y28256250D01*
G75*
G02*
X28993750Y28475000I218750J0D01*
G01*
X29431250Y28475000D01*
G75*
G02*
X29650000Y28256250I0J-218750D01*
G01*
G37*
G36*
G01*
X31225000Y28256250D02*
X31225000Y27743750D01*
G75*
G02*
X31006250Y27525000I-218750J0D01*
G01*
X30568750Y27525000D01*
G75*
G02*
X30350000Y27743750I0J218750D01*
G01*
X30350000Y28256250D01*
G75*
G02*
X30568750Y28475000I218750J0D01*
G01*
X31006250Y28475000D01*
G75*
G02*
X31225000Y28256250I0J-218750D01*
G01*
G37*
%TD*%
%TO.C,R20*%
G36*
G01*
X47243750Y33225000D02*
X47756250Y33225000D01*
G75*
G02*
X47975000Y33006250I0J-218750D01*
G01*
X47975000Y32568750D01*
G75*
G02*
X47756250Y32350000I-218750J0D01*
G01*
X47243750Y32350000D01*
G75*
G02*
X47025000Y32568750I0J218750D01*
G01*
X47025000Y33006250D01*
G75*
G02*
X47243750Y33225000I218750J0D01*
G01*
G37*
G36*
G01*
X47243750Y31650000D02*
X47756250Y31650000D01*
G75*
G02*
X47975000Y31431250I0J-218750D01*
G01*
X47975000Y30993750D01*
G75*
G02*
X47756250Y30775000I-218750J0D01*
G01*
X47243750Y30775000D01*
G75*
G02*
X47025000Y30993750I0J218750D01*
G01*
X47025000Y31431250D01*
G75*
G02*
X47243750Y31650000I218750J0D01*
G01*
G37*
%TD*%
D13*
%TO.C,U1*%
X25950000Y19900000D03*
X25000000Y19900000D03*
X24050000Y19900000D03*
X24050000Y22100000D03*
X25950000Y22100000D03*
X25000000Y22100000D03*
%TD*%
%TO.C,U2*%
G36*
G01*
X85265522Y34543844D02*
X85159456Y34437778D01*
G75*
G02*
X85053390Y34437778I-53033J53033D01*
G01*
X84063440Y35427728D01*
G75*
G02*
X84063440Y35533794I53033J53033D01*
G01*
X84169506Y35639860D01*
G75*
G02*
X84275572Y35639860I53033J-53033D01*
G01*
X85265522Y34649910D01*
G75*
G02*
X85265522Y34543844I-53033J-53033D01*
G01*
G37*
G36*
G01*
X84911969Y34190291D02*
X84805903Y34084225D01*
G75*
G02*
X84699837Y34084225I-53033J53033D01*
G01*
X83709887Y35074175D01*
G75*
G02*
X83709887Y35180241I53033J53033D01*
G01*
X83815953Y35286307D01*
G75*
G02*
X83922019Y35286307I53033J-53033D01*
G01*
X84911969Y34296357D01*
G75*
G02*
X84911969Y34190291I-53033J-53033D01*
G01*
G37*
G36*
G01*
X84558416Y33836738D02*
X84452350Y33730672D01*
G75*
G02*
X84346284Y33730672I-53033J53033D01*
G01*
X83356334Y34720622D01*
G75*
G02*
X83356334Y34826688I53033J53033D01*
G01*
X83462400Y34932754D01*
G75*
G02*
X83568466Y34932754I53033J-53033D01*
G01*
X84558416Y33942804D01*
G75*
G02*
X84558416Y33836738I-53033J-53033D01*
G01*
G37*
G36*
G01*
X84204862Y33483184D02*
X84098796Y33377118D01*
G75*
G02*
X83992730Y33377118I-53033J53033D01*
G01*
X83002780Y34367068D01*
G75*
G02*
X83002780Y34473134I53033J53033D01*
G01*
X83108846Y34579200D01*
G75*
G02*
X83214912Y34579200I53033J-53033D01*
G01*
X84204862Y33589250D01*
G75*
G02*
X84204862Y33483184I-53033J-53033D01*
G01*
G37*
G36*
G01*
X83851309Y33129631D02*
X83745243Y33023565D01*
G75*
G02*
X83639177Y33023565I-53033J53033D01*
G01*
X82649227Y34013515D01*
G75*
G02*
X82649227Y34119581I53033J53033D01*
G01*
X82755293Y34225647D01*
G75*
G02*
X82861359Y34225647I53033J-53033D01*
G01*
X83851309Y33235697D01*
G75*
G02*
X83851309Y33129631I-53033J-53033D01*
G01*
G37*
G36*
G01*
X83497755Y32776077D02*
X83391689Y32670011D01*
G75*
G02*
X83285623Y32670011I-53033J53033D01*
G01*
X82295673Y33659961D01*
G75*
G02*
X82295673Y33766027I53033J53033D01*
G01*
X82401739Y33872093D01*
G75*
G02*
X82507805Y33872093I53033J-53033D01*
G01*
X83497755Y32882143D01*
G75*
G02*
X83497755Y32776077I-53033J-53033D01*
G01*
G37*
G36*
G01*
X83144202Y32422524D02*
X83038136Y32316458D01*
G75*
G02*
X82932070Y32316458I-53033J53033D01*
G01*
X81942120Y33306408D01*
G75*
G02*
X81942120Y33412474I53033J53033D01*
G01*
X82048186Y33518540D01*
G75*
G02*
X82154252Y33518540I53033J-53033D01*
G01*
X83144202Y32528590D01*
G75*
G02*
X83144202Y32422524I-53033J-53033D01*
G01*
G37*
G36*
G01*
X82790649Y32068971D02*
X82684583Y31962905D01*
G75*
G02*
X82578517Y31962905I-53033J53033D01*
G01*
X81588567Y32952855D01*
G75*
G02*
X81588567Y33058921I53033J53033D01*
G01*
X81694633Y33164987D01*
G75*
G02*
X81800699Y33164987I53033J-53033D01*
G01*
X82790649Y32175037D01*
G75*
G02*
X82790649Y32068971I-53033J-53033D01*
G01*
G37*
G36*
G01*
X82437095Y31715417D02*
X82331029Y31609351D01*
G75*
G02*
X82224963Y31609351I-53033J53033D01*
G01*
X81235013Y32599301D01*
G75*
G02*
X81235013Y32705367I53033J53033D01*
G01*
X81341079Y32811433D01*
G75*
G02*
X81447145Y32811433I53033J-53033D01*
G01*
X82437095Y31821483D01*
G75*
G02*
X82437095Y31715417I-53033J-53033D01*
G01*
G37*
G36*
G01*
X82083542Y31361864D02*
X81977476Y31255798D01*
G75*
G02*
X81871410Y31255798I-53033J53033D01*
G01*
X80881460Y32245748D01*
G75*
G02*
X80881460Y32351814I53033J53033D01*
G01*
X80987526Y32457880D01*
G75*
G02*
X81093592Y32457880I53033J-53033D01*
G01*
X82083542Y31467930D01*
G75*
G02*
X82083542Y31361864I-53033J-53033D01*
G01*
G37*
G36*
G01*
X81729989Y31008311D02*
X81623923Y30902245D01*
G75*
G02*
X81517857Y30902245I-53033J53033D01*
G01*
X80527907Y31892195D01*
G75*
G02*
X80527907Y31998261I53033J53033D01*
G01*
X80633973Y32104327D01*
G75*
G02*
X80740039Y32104327I53033J-53033D01*
G01*
X81729989Y31114377D01*
G75*
G02*
X81729989Y31008311I-53033J-53033D01*
G01*
G37*
G36*
G01*
X81376435Y30654757D02*
X81270369Y30548691D01*
G75*
G02*
X81164303Y30548691I-53033J53033D01*
G01*
X80174353Y31538641D01*
G75*
G02*
X80174353Y31644707I53033J53033D01*
G01*
X80280419Y31750773D01*
G75*
G02*
X80386485Y31750773I53033J-53033D01*
G01*
X81376435Y30760823D01*
G75*
G02*
X81376435Y30654757I-53033J-53033D01*
G01*
G37*
G36*
G01*
X81022882Y30301204D02*
X80916816Y30195138D01*
G75*
G02*
X80810750Y30195138I-53033J53033D01*
G01*
X79820800Y31185088D01*
G75*
G02*
X79820800Y31291154I53033J53033D01*
G01*
X79926866Y31397220D01*
G75*
G02*
X80032932Y31397220I53033J-53033D01*
G01*
X81022882Y30407270D01*
G75*
G02*
X81022882Y30301204I-53033J-53033D01*
G01*
G37*
G36*
G01*
X80669328Y29947650D02*
X80563262Y29841584D01*
G75*
G02*
X80457196Y29841584I-53033J53033D01*
G01*
X79467246Y30831534D01*
G75*
G02*
X79467246Y30937600I53033J53033D01*
G01*
X79573312Y31043666D01*
G75*
G02*
X79679378Y31043666I53033J-53033D01*
G01*
X80669328Y30053716D01*
G75*
G02*
X80669328Y29947650I-53033J-53033D01*
G01*
G37*
G36*
G01*
X80315775Y29594097D02*
X80209709Y29488031D01*
G75*
G02*
X80103643Y29488031I-53033J53033D01*
G01*
X79113693Y30477981D01*
G75*
G02*
X79113693Y30584047I53033J53033D01*
G01*
X79219759Y30690113D01*
G75*
G02*
X79325825Y30690113I53033J-53033D01*
G01*
X80315775Y29700163D01*
G75*
G02*
X80315775Y29594097I-53033J-53033D01*
G01*
G37*
G36*
G01*
X79962222Y29240544D02*
X79856156Y29134478D01*
G75*
G02*
X79750090Y29134478I-53033J53033D01*
G01*
X78760140Y30124428D01*
G75*
G02*
X78760140Y30230494I53033J53033D01*
G01*
X78866206Y30336560D01*
G75*
G02*
X78972272Y30336560I53033J-53033D01*
G01*
X79962222Y29346610D01*
G75*
G02*
X79962222Y29240544I-53033J-53033D01*
G01*
G37*
G36*
G01*
X77239860Y30124428D02*
X76249910Y29134478D01*
G75*
G02*
X76143844Y29134478I-53033J53033D01*
G01*
X76037778Y29240544D01*
G75*
G02*
X76037778Y29346610I53033J53033D01*
G01*
X77027728Y30336560D01*
G75*
G02*
X77133794Y30336560I53033J-53033D01*
G01*
X77239860Y30230494D01*
G75*
G02*
X77239860Y30124428I-53033J-53033D01*
G01*
G37*
G36*
G01*
X76886307Y30477981D02*
X75896357Y29488031D01*
G75*
G02*
X75790291Y29488031I-53033J53033D01*
G01*
X75684225Y29594097D01*
G75*
G02*
X75684225Y29700163I53033J53033D01*
G01*
X76674175Y30690113D01*
G75*
G02*
X76780241Y30690113I53033J-53033D01*
G01*
X76886307Y30584047D01*
G75*
G02*
X76886307Y30477981I-53033J-53033D01*
G01*
G37*
G36*
G01*
X76532754Y30831534D02*
X75542804Y29841584D01*
G75*
G02*
X75436738Y29841584I-53033J53033D01*
G01*
X75330672Y29947650D01*
G75*
G02*
X75330672Y30053716I53033J53033D01*
G01*
X76320622Y31043666D01*
G75*
G02*
X76426688Y31043666I53033J-53033D01*
G01*
X76532754Y30937600D01*
G75*
G02*
X76532754Y30831534I-53033J-53033D01*
G01*
G37*
G36*
G01*
X76179200Y31185088D02*
X75189250Y30195138D01*
G75*
G02*
X75083184Y30195138I-53033J53033D01*
G01*
X74977118Y30301204D01*
G75*
G02*
X74977118Y30407270I53033J53033D01*
G01*
X75967068Y31397220D01*
G75*
G02*
X76073134Y31397220I53033J-53033D01*
G01*
X76179200Y31291154D01*
G75*
G02*
X76179200Y31185088I-53033J-53033D01*
G01*
G37*
G36*
G01*
X75825647Y31538641D02*
X74835697Y30548691D01*
G75*
G02*
X74729631Y30548691I-53033J53033D01*
G01*
X74623565Y30654757D01*
G75*
G02*
X74623565Y30760823I53033J53033D01*
G01*
X75613515Y31750773D01*
G75*
G02*
X75719581Y31750773I53033J-53033D01*
G01*
X75825647Y31644707D01*
G75*
G02*
X75825647Y31538641I-53033J-53033D01*
G01*
G37*
G36*
G01*
X75472093Y31892195D02*
X74482143Y30902245D01*
G75*
G02*
X74376077Y30902245I-53033J53033D01*
G01*
X74270011Y31008311D01*
G75*
G02*
X74270011Y31114377I53033J53033D01*
G01*
X75259961Y32104327D01*
G75*
G02*
X75366027Y32104327I53033J-53033D01*
G01*
X75472093Y31998261D01*
G75*
G02*
X75472093Y31892195I-53033J-53033D01*
G01*
G37*
G36*
G01*
X75118540Y32245748D02*
X74128590Y31255798D01*
G75*
G02*
X74022524Y31255798I-53033J53033D01*
G01*
X73916458Y31361864D01*
G75*
G02*
X73916458Y31467930I53033J53033D01*
G01*
X74906408Y32457880D01*
G75*
G02*
X75012474Y32457880I53033J-53033D01*
G01*
X75118540Y32351814D01*
G75*
G02*
X75118540Y32245748I-53033J-53033D01*
G01*
G37*
G36*
G01*
X74764987Y32599301D02*
X73775037Y31609351D01*
G75*
G02*
X73668971Y31609351I-53033J53033D01*
G01*
X73562905Y31715417D01*
G75*
G02*
X73562905Y31821483I53033J53033D01*
G01*
X74552855Y32811433D01*
G75*
G02*
X74658921Y32811433I53033J-53033D01*
G01*
X74764987Y32705367D01*
G75*
G02*
X74764987Y32599301I-53033J-53033D01*
G01*
G37*
G36*
G01*
X74411433Y32952855D02*
X73421483Y31962905D01*
G75*
G02*
X73315417Y31962905I-53033J53033D01*
G01*
X73209351Y32068971D01*
G75*
G02*
X73209351Y32175037I53033J53033D01*
G01*
X74199301Y33164987D01*
G75*
G02*
X74305367Y33164987I53033J-53033D01*
G01*
X74411433Y33058921D01*
G75*
G02*
X74411433Y32952855I-53033J-53033D01*
G01*
G37*
G36*
G01*
X74057880Y33306408D02*
X73067930Y32316458D01*
G75*
G02*
X72961864Y32316458I-53033J53033D01*
G01*
X72855798Y32422524D01*
G75*
G02*
X72855798Y32528590I53033J53033D01*
G01*
X73845748Y33518540D01*
G75*
G02*
X73951814Y33518540I53033J-53033D01*
G01*
X74057880Y33412474D01*
G75*
G02*
X74057880Y33306408I-53033J-53033D01*
G01*
G37*
G36*
G01*
X73704327Y33659961D02*
X72714377Y32670011D01*
G75*
G02*
X72608311Y32670011I-53033J53033D01*
G01*
X72502245Y32776077D01*
G75*
G02*
X72502245Y32882143I53033J53033D01*
G01*
X73492195Y33872093D01*
G75*
G02*
X73598261Y33872093I53033J-53033D01*
G01*
X73704327Y33766027D01*
G75*
G02*
X73704327Y33659961I-53033J-53033D01*
G01*
G37*
G36*
G01*
X73350773Y34013515D02*
X72360823Y33023565D01*
G75*
G02*
X72254757Y33023565I-53033J53033D01*
G01*
X72148691Y33129631D01*
G75*
G02*
X72148691Y33235697I53033J53033D01*
G01*
X73138641Y34225647D01*
G75*
G02*
X73244707Y34225647I53033J-53033D01*
G01*
X73350773Y34119581D01*
G75*
G02*
X73350773Y34013515I-53033J-53033D01*
G01*
G37*
G36*
G01*
X72997220Y34367068D02*
X72007270Y33377118D01*
G75*
G02*
X71901204Y33377118I-53033J53033D01*
G01*
X71795138Y33483184D01*
G75*
G02*
X71795138Y33589250I53033J53033D01*
G01*
X72785088Y34579200D01*
G75*
G02*
X72891154Y34579200I53033J-53033D01*
G01*
X72997220Y34473134D01*
G75*
G02*
X72997220Y34367068I-53033J-53033D01*
G01*
G37*
G36*
G01*
X72643666Y34720622D02*
X71653716Y33730672D01*
G75*
G02*
X71547650Y33730672I-53033J53033D01*
G01*
X71441584Y33836738D01*
G75*
G02*
X71441584Y33942804I53033J53033D01*
G01*
X72431534Y34932754D01*
G75*
G02*
X72537600Y34932754I53033J-53033D01*
G01*
X72643666Y34826688D01*
G75*
G02*
X72643666Y34720622I-53033J-53033D01*
G01*
G37*
G36*
G01*
X72290113Y35074175D02*
X71300163Y34084225D01*
G75*
G02*
X71194097Y34084225I-53033J53033D01*
G01*
X71088031Y34190291D01*
G75*
G02*
X71088031Y34296357I53033J53033D01*
G01*
X72077981Y35286307D01*
G75*
G02*
X72184047Y35286307I53033J-53033D01*
G01*
X72290113Y35180241D01*
G75*
G02*
X72290113Y35074175I-53033J-53033D01*
G01*
G37*
G36*
G01*
X71936560Y35427728D02*
X70946610Y34437778D01*
G75*
G02*
X70840544Y34437778I-53033J53033D01*
G01*
X70734478Y34543844D01*
G75*
G02*
X70734478Y34649910I53033J53033D01*
G01*
X71724428Y35639860D01*
G75*
G02*
X71830494Y35639860I53033J-53033D01*
G01*
X71936560Y35533794D01*
G75*
G02*
X71936560Y35427728I-53033J-53033D01*
G01*
G37*
G36*
G01*
X71936560Y37266206D02*
X71830494Y37160140D01*
G75*
G02*
X71724428Y37160140I-53033J53033D01*
G01*
X70734478Y38150090D01*
G75*
G02*
X70734478Y38256156I53033J53033D01*
G01*
X70840544Y38362222D01*
G75*
G02*
X70946610Y38362222I53033J-53033D01*
G01*
X71936560Y37372272D01*
G75*
G02*
X71936560Y37266206I-53033J-53033D01*
G01*
G37*
G36*
G01*
X72290113Y37619759D02*
X72184047Y37513693D01*
G75*
G02*
X72077981Y37513693I-53033J53033D01*
G01*
X71088031Y38503643D01*
G75*
G02*
X71088031Y38609709I53033J53033D01*
G01*
X71194097Y38715775D01*
G75*
G02*
X71300163Y38715775I53033J-53033D01*
G01*
X72290113Y37725825D01*
G75*
G02*
X72290113Y37619759I-53033J-53033D01*
G01*
G37*
G36*
G01*
X72643666Y37973312D02*
X72537600Y37867246D01*
G75*
G02*
X72431534Y37867246I-53033J53033D01*
G01*
X71441584Y38857196D01*
G75*
G02*
X71441584Y38963262I53033J53033D01*
G01*
X71547650Y39069328D01*
G75*
G02*
X71653716Y39069328I53033J-53033D01*
G01*
X72643666Y38079378D01*
G75*
G02*
X72643666Y37973312I-53033J-53033D01*
G01*
G37*
G36*
G01*
X72997220Y38326866D02*
X72891154Y38220800D01*
G75*
G02*
X72785088Y38220800I-53033J53033D01*
G01*
X71795138Y39210750D01*
G75*
G02*
X71795138Y39316816I53033J53033D01*
G01*
X71901204Y39422882D01*
G75*
G02*
X72007270Y39422882I53033J-53033D01*
G01*
X72997220Y38432932D01*
G75*
G02*
X72997220Y38326866I-53033J-53033D01*
G01*
G37*
G36*
G01*
X73350773Y38680419D02*
X73244707Y38574353D01*
G75*
G02*
X73138641Y38574353I-53033J53033D01*
G01*
X72148691Y39564303D01*
G75*
G02*
X72148691Y39670369I53033J53033D01*
G01*
X72254757Y39776435D01*
G75*
G02*
X72360823Y39776435I53033J-53033D01*
G01*
X73350773Y38786485D01*
G75*
G02*
X73350773Y38680419I-53033J-53033D01*
G01*
G37*
G36*
G01*
X73704327Y39033973D02*
X73598261Y38927907D01*
G75*
G02*
X73492195Y38927907I-53033J53033D01*
G01*
X72502245Y39917857D01*
G75*
G02*
X72502245Y40023923I53033J53033D01*
G01*
X72608311Y40129989D01*
G75*
G02*
X72714377Y40129989I53033J-53033D01*
G01*
X73704327Y39140039D01*
G75*
G02*
X73704327Y39033973I-53033J-53033D01*
G01*
G37*
G36*
G01*
X74057880Y39387526D02*
X73951814Y39281460D01*
G75*
G02*
X73845748Y39281460I-53033J53033D01*
G01*
X72855798Y40271410D01*
G75*
G02*
X72855798Y40377476I53033J53033D01*
G01*
X72961864Y40483542D01*
G75*
G02*
X73067930Y40483542I53033J-53033D01*
G01*
X74057880Y39493592D01*
G75*
G02*
X74057880Y39387526I-53033J-53033D01*
G01*
G37*
G36*
G01*
X74411433Y39741079D02*
X74305367Y39635013D01*
G75*
G02*
X74199301Y39635013I-53033J53033D01*
G01*
X73209351Y40624963D01*
G75*
G02*
X73209351Y40731029I53033J53033D01*
G01*
X73315417Y40837095D01*
G75*
G02*
X73421483Y40837095I53033J-53033D01*
G01*
X74411433Y39847145D01*
G75*
G02*
X74411433Y39741079I-53033J-53033D01*
G01*
G37*
G36*
G01*
X74764987Y40094633D02*
X74658921Y39988567D01*
G75*
G02*
X74552855Y39988567I-53033J53033D01*
G01*
X73562905Y40978517D01*
G75*
G02*
X73562905Y41084583I53033J53033D01*
G01*
X73668971Y41190649D01*
G75*
G02*
X73775037Y41190649I53033J-53033D01*
G01*
X74764987Y40200699D01*
G75*
G02*
X74764987Y40094633I-53033J-53033D01*
G01*
G37*
G36*
G01*
X75118540Y40448186D02*
X75012474Y40342120D01*
G75*
G02*
X74906408Y40342120I-53033J53033D01*
G01*
X73916458Y41332070D01*
G75*
G02*
X73916458Y41438136I53033J53033D01*
G01*
X74022524Y41544202D01*
G75*
G02*
X74128590Y41544202I53033J-53033D01*
G01*
X75118540Y40554252D01*
G75*
G02*
X75118540Y40448186I-53033J-53033D01*
G01*
G37*
G36*
G01*
X75472093Y40801739D02*
X75366027Y40695673D01*
G75*
G02*
X75259961Y40695673I-53033J53033D01*
G01*
X74270011Y41685623D01*
G75*
G02*
X74270011Y41791689I53033J53033D01*
G01*
X74376077Y41897755D01*
G75*
G02*
X74482143Y41897755I53033J-53033D01*
G01*
X75472093Y40907805D01*
G75*
G02*
X75472093Y40801739I-53033J-53033D01*
G01*
G37*
G36*
G01*
X75825647Y41155293D02*
X75719581Y41049227D01*
G75*
G02*
X75613515Y41049227I-53033J53033D01*
G01*
X74623565Y42039177D01*
G75*
G02*
X74623565Y42145243I53033J53033D01*
G01*
X74729631Y42251309D01*
G75*
G02*
X74835697Y42251309I53033J-53033D01*
G01*
X75825647Y41261359D01*
G75*
G02*
X75825647Y41155293I-53033J-53033D01*
G01*
G37*
G36*
G01*
X76179200Y41508846D02*
X76073134Y41402780D01*
G75*
G02*
X75967068Y41402780I-53033J53033D01*
G01*
X74977118Y42392730D01*
G75*
G02*
X74977118Y42498796I53033J53033D01*
G01*
X75083184Y42604862D01*
G75*
G02*
X75189250Y42604862I53033J-53033D01*
G01*
X76179200Y41614912D01*
G75*
G02*
X76179200Y41508846I-53033J-53033D01*
G01*
G37*
G36*
G01*
X76532754Y41862400D02*
X76426688Y41756334D01*
G75*
G02*
X76320622Y41756334I-53033J53033D01*
G01*
X75330672Y42746284D01*
G75*
G02*
X75330672Y42852350I53033J53033D01*
G01*
X75436738Y42958416D01*
G75*
G02*
X75542804Y42958416I53033J-53033D01*
G01*
X76532754Y41968466D01*
G75*
G02*
X76532754Y41862400I-53033J-53033D01*
G01*
G37*
G36*
G01*
X76886307Y42215953D02*
X76780241Y42109887D01*
G75*
G02*
X76674175Y42109887I-53033J53033D01*
G01*
X75684225Y43099837D01*
G75*
G02*
X75684225Y43205903I53033J53033D01*
G01*
X75790291Y43311969D01*
G75*
G02*
X75896357Y43311969I53033J-53033D01*
G01*
X76886307Y42322019D01*
G75*
G02*
X76886307Y42215953I-53033J-53033D01*
G01*
G37*
G36*
G01*
X77239860Y42569506D02*
X77133794Y42463440D01*
G75*
G02*
X77027728Y42463440I-53033J53033D01*
G01*
X76037778Y43453390D01*
G75*
G02*
X76037778Y43559456I53033J53033D01*
G01*
X76143844Y43665522D01*
G75*
G02*
X76249910Y43665522I53033J-53033D01*
G01*
X77239860Y42675572D01*
G75*
G02*
X77239860Y42569506I-53033J-53033D01*
G01*
G37*
G36*
G01*
X79962222Y43453390D02*
X78972272Y42463440D01*
G75*
G02*
X78866206Y42463440I-53033J53033D01*
G01*
X78760140Y42569506D01*
G75*
G02*
X78760140Y42675572I53033J53033D01*
G01*
X79750090Y43665522D01*
G75*
G02*
X79856156Y43665522I53033J-53033D01*
G01*
X79962222Y43559456D01*
G75*
G02*
X79962222Y43453390I-53033J-53033D01*
G01*
G37*
G36*
G01*
X80315775Y43099837D02*
X79325825Y42109887D01*
G75*
G02*
X79219759Y42109887I-53033J53033D01*
G01*
X79113693Y42215953D01*
G75*
G02*
X79113693Y42322019I53033J53033D01*
G01*
X80103643Y43311969D01*
G75*
G02*
X80209709Y43311969I53033J-53033D01*
G01*
X80315775Y43205903D01*
G75*
G02*
X80315775Y43099837I-53033J-53033D01*
G01*
G37*
G36*
G01*
X80669328Y42746284D02*
X79679378Y41756334D01*
G75*
G02*
X79573312Y41756334I-53033J53033D01*
G01*
X79467246Y41862400D01*
G75*
G02*
X79467246Y41968466I53033J53033D01*
G01*
X80457196Y42958416D01*
G75*
G02*
X80563262Y42958416I53033J-53033D01*
G01*
X80669328Y42852350D01*
G75*
G02*
X80669328Y42746284I-53033J-53033D01*
G01*
G37*
G36*
G01*
X81022882Y42392730D02*
X80032932Y41402780D01*
G75*
G02*
X79926866Y41402780I-53033J53033D01*
G01*
X79820800Y41508846D01*
G75*
G02*
X79820800Y41614912I53033J53033D01*
G01*
X80810750Y42604862D01*
G75*
G02*
X80916816Y42604862I53033J-53033D01*
G01*
X81022882Y42498796D01*
G75*
G02*
X81022882Y42392730I-53033J-53033D01*
G01*
G37*
G36*
G01*
X81376435Y42039177D02*
X80386485Y41049227D01*
G75*
G02*
X80280419Y41049227I-53033J53033D01*
G01*
X80174353Y41155293D01*
G75*
G02*
X80174353Y41261359I53033J53033D01*
G01*
X81164303Y42251309D01*
G75*
G02*
X81270369Y42251309I53033J-53033D01*
G01*
X81376435Y42145243D01*
G75*
G02*
X81376435Y42039177I-53033J-53033D01*
G01*
G37*
G36*
G01*
X81729989Y41685623D02*
X80740039Y40695673D01*
G75*
G02*
X80633973Y40695673I-53033J53033D01*
G01*
X80527907Y40801739D01*
G75*
G02*
X80527907Y40907805I53033J53033D01*
G01*
X81517857Y41897755D01*
G75*
G02*
X81623923Y41897755I53033J-53033D01*
G01*
X81729989Y41791689D01*
G75*
G02*
X81729989Y41685623I-53033J-53033D01*
G01*
G37*
G36*
G01*
X82083542Y41332070D02*
X81093592Y40342120D01*
G75*
G02*
X80987526Y40342120I-53033J53033D01*
G01*
X80881460Y40448186D01*
G75*
G02*
X80881460Y40554252I53033J53033D01*
G01*
X81871410Y41544202D01*
G75*
G02*
X81977476Y41544202I53033J-53033D01*
G01*
X82083542Y41438136D01*
G75*
G02*
X82083542Y41332070I-53033J-53033D01*
G01*
G37*
G36*
G01*
X82437095Y40978517D02*
X81447145Y39988567D01*
G75*
G02*
X81341079Y39988567I-53033J53033D01*
G01*
X81235013Y40094633D01*
G75*
G02*
X81235013Y40200699I53033J53033D01*
G01*
X82224963Y41190649D01*
G75*
G02*
X82331029Y41190649I53033J-53033D01*
G01*
X82437095Y41084583D01*
G75*
G02*
X82437095Y40978517I-53033J-53033D01*
G01*
G37*
G36*
G01*
X82790649Y40624963D02*
X81800699Y39635013D01*
G75*
G02*
X81694633Y39635013I-53033J53033D01*
G01*
X81588567Y39741079D01*
G75*
G02*
X81588567Y39847145I53033J53033D01*
G01*
X82578517Y40837095D01*
G75*
G02*
X82684583Y40837095I53033J-53033D01*
G01*
X82790649Y40731029D01*
G75*
G02*
X82790649Y40624963I-53033J-53033D01*
G01*
G37*
G36*
G01*
X83144202Y40271410D02*
X82154252Y39281460D01*
G75*
G02*
X82048186Y39281460I-53033J53033D01*
G01*
X81942120Y39387526D01*
G75*
G02*
X81942120Y39493592I53033J53033D01*
G01*
X82932070Y40483542D01*
G75*
G02*
X83038136Y40483542I53033J-53033D01*
G01*
X83144202Y40377476D01*
G75*
G02*
X83144202Y40271410I-53033J-53033D01*
G01*
G37*
G36*
G01*
X83497755Y39917857D02*
X82507805Y38927907D01*
G75*
G02*
X82401739Y38927907I-53033J53033D01*
G01*
X82295673Y39033973D01*
G75*
G02*
X82295673Y39140039I53033J53033D01*
G01*
X83285623Y40129989D01*
G75*
G02*
X83391689Y40129989I53033J-53033D01*
G01*
X83497755Y40023923D01*
G75*
G02*
X83497755Y39917857I-53033J-53033D01*
G01*
G37*
G36*
G01*
X83851309Y39564303D02*
X82861359Y38574353D01*
G75*
G02*
X82755293Y38574353I-53033J53033D01*
G01*
X82649227Y38680419D01*
G75*
G02*
X82649227Y38786485I53033J53033D01*
G01*
X83639177Y39776435D01*
G75*
G02*
X83745243Y39776435I53033J-53033D01*
G01*
X83851309Y39670369D01*
G75*
G02*
X83851309Y39564303I-53033J-53033D01*
G01*
G37*
G36*
G01*
X84204862Y39210750D02*
X83214912Y38220800D01*
G75*
G02*
X83108846Y38220800I-53033J53033D01*
G01*
X83002780Y38326866D01*
G75*
G02*
X83002780Y38432932I53033J53033D01*
G01*
X83992730Y39422882D01*
G75*
G02*
X84098796Y39422882I53033J-53033D01*
G01*
X84204862Y39316816D01*
G75*
G02*
X84204862Y39210750I-53033J-53033D01*
G01*
G37*
G36*
G01*
X84558416Y38857196D02*
X83568466Y37867246D01*
G75*
G02*
X83462400Y37867246I-53033J53033D01*
G01*
X83356334Y37973312D01*
G75*
G02*
X83356334Y38079378I53033J53033D01*
G01*
X84346284Y39069328D01*
G75*
G02*
X84452350Y39069328I53033J-53033D01*
G01*
X84558416Y38963262D01*
G75*
G02*
X84558416Y38857196I-53033J-53033D01*
G01*
G37*
G36*
G01*
X84911969Y38503643D02*
X83922019Y37513693D01*
G75*
G02*
X83815953Y37513693I-53033J53033D01*
G01*
X83709887Y37619759D01*
G75*
G02*
X83709887Y37725825I53033J53033D01*
G01*
X84699837Y38715775D01*
G75*
G02*
X84805903Y38715775I53033J-53033D01*
G01*
X84911969Y38609709D01*
G75*
G02*
X84911969Y38503643I-53033J-53033D01*
G01*
G37*
G36*
G01*
X85265522Y38150090D02*
X84275572Y37160140D01*
G75*
G02*
X84169506Y37160140I-53033J53033D01*
G01*
X84063440Y37266206D01*
G75*
G02*
X84063440Y37372272I53033J53033D01*
G01*
X85053390Y38362222D01*
G75*
G02*
X85159456Y38362222I53033J-53033D01*
G01*
X85265522Y38256156D01*
G75*
G02*
X85265522Y38150090I-53033J-53033D01*
G01*
G37*
%TD*%
D14*
%TO.C,U3*%
X62850000Y29950000D03*
X63350000Y29950000D03*
X63850000Y29950000D03*
X64350000Y29950000D03*
X64850000Y29950000D03*
X65350000Y29950000D03*
X65350000Y28050000D03*
X64850000Y28050000D03*
X64350000Y28050000D03*
X63850000Y28050000D03*
X63350000Y28050000D03*
X62850000Y28050000D03*
D15*
X64785000Y29000000D03*
X63415000Y29000000D03*
%TD*%
D16*
%TO.C,Y1*%
G36*
X87162563Y31883883D02*
G01*
X88364644Y30681802D01*
X88011091Y30328249D01*
X86809010Y31530330D01*
X87162563Y31883883D01*
G37*
G36*
X86384746Y31106066D02*
G01*
X87586827Y29903985D01*
X87233274Y29550432D01*
X86031193Y30752513D01*
X86384746Y31106066D01*
G37*
G36*
X85606928Y30328248D02*
G01*
X86809009Y29126167D01*
X86455456Y28772614D01*
X85253375Y29974695D01*
X85606928Y30328248D01*
G37*
%TD*%
D17*
%TO.C,Y2*%
X91000000Y27200000D03*
X93400000Y27200000D03*
X93400000Y31600000D03*
X91000000Y31600000D03*
%TD*%
%TO.C,FB1*%
G36*
G01*
X82375000Y21543750D02*
X82375000Y22056250D01*
G75*
G02*
X82593750Y22275000I218750J0D01*
G01*
X83031250Y22275000D01*
G75*
G02*
X83250000Y22056250I0J-218750D01*
G01*
X83250000Y21543750D01*
G75*
G02*
X83031250Y21325000I-218750J0D01*
G01*
X82593750Y21325000D01*
G75*
G02*
X82375000Y21543750I0J218750D01*
G01*
G37*
G36*
G01*
X83950000Y21543750D02*
X83950000Y22056250D01*
G75*
G02*
X84168750Y22275000I218750J0D01*
G01*
X84606250Y22275000D01*
G75*
G02*
X84825000Y22056250I0J-218750D01*
G01*
X84825000Y21543750D01*
G75*
G02*
X84606250Y21325000I-218750J0D01*
G01*
X84168750Y21325000D01*
G75*
G02*
X83950000Y21543750I0J218750D01*
G01*
G37*
%TD*%
%TO.C,C29*%
G36*
G01*
X79827500Y21410000D02*
X80172500Y21410000D01*
G75*
G02*
X80320000Y21262500I0J-147500D01*
G01*
X80320000Y20967500D01*
G75*
G02*
X80172500Y20820000I-147500J0D01*
G01*
X79827500Y20820000D01*
G75*
G02*
X79680000Y20967500I0J147500D01*
G01*
X79680000Y21262500D01*
G75*
G02*
X79827500Y21410000I147500J0D01*
G01*
G37*
G36*
G01*
X79827500Y22380000D02*
X80172500Y22380000D01*
G75*
G02*
X80320000Y22232500I0J-147500D01*
G01*
X80320000Y21937500D01*
G75*
G02*
X80172500Y21790000I-147500J0D01*
G01*
X79827500Y21790000D01*
G75*
G02*
X79680000Y21937500I0J147500D01*
G01*
X79680000Y22232500D01*
G75*
G02*
X79827500Y22380000I147500J0D01*
G01*
G37*
%TD*%
%TO.C,C30*%
G36*
G01*
X77380000Y22172500D02*
X77380000Y21827500D01*
G75*
G02*
X77232500Y21680000I-147500J0D01*
G01*
X76937500Y21680000D01*
G75*
G02*
X76790000Y21827500I0J147500D01*
G01*
X76790000Y22172500D01*
G75*
G02*
X76937500Y22320000I147500J0D01*
G01*
X77232500Y22320000D01*
G75*
G02*
X77380000Y22172500I0J-147500D01*
G01*
G37*
G36*
G01*
X76410000Y22172500D02*
X76410000Y21827500D01*
G75*
G02*
X76262500Y21680000I-147500J0D01*
G01*
X75967500Y21680000D01*
G75*
G02*
X75820000Y21827500I0J147500D01*
G01*
X75820000Y22172500D01*
G75*
G02*
X75967500Y22320000I147500J0D01*
G01*
X76262500Y22320000D01*
G75*
G02*
X76410000Y22172500I0J-147500D01*
G01*
G37*
%TD*%
%TO.C,C31*%
G36*
G01*
X74827500Y24580000D02*
X75172500Y24580000D01*
G75*
G02*
X75320000Y24432500I0J-147500D01*
G01*
X75320000Y24137500D01*
G75*
G02*
X75172500Y23990000I-147500J0D01*
G01*
X74827500Y23990000D01*
G75*
G02*
X74680000Y24137500I0J147500D01*
G01*
X74680000Y24432500D01*
G75*
G02*
X74827500Y24580000I147500J0D01*
G01*
G37*
G36*
G01*
X74827500Y23610000D02*
X75172500Y23610000D01*
G75*
G02*
X75320000Y23462500I0J-147500D01*
G01*
X75320000Y23167500D01*
G75*
G02*
X75172500Y23020000I-147500J0D01*
G01*
X74827500Y23020000D01*
G75*
G02*
X74680000Y23167500I0J147500D01*
G01*
X74680000Y23462500D01*
G75*
G02*
X74827500Y23610000I147500J0D01*
G01*
G37*
%TD*%
D16*
%TO.C,U4*%
G36*
X79157196Y25900769D02*
G01*
X79149693Y25903045D01*
X79142777Y25906741D01*
X79136716Y25911716D01*
X79131741Y25917777D01*
X79128045Y25924693D01*
X79125769Y25932196D01*
X79125000Y25940000D01*
X79125000Y25963431D01*
X79125769Y25971235D01*
X79128045Y25978738D01*
X79131741Y25985654D01*
X79136716Y25991715D01*
X79233285Y26088284D01*
X79239346Y26093259D01*
X79246262Y26096955D01*
X79253765Y26099231D01*
X79261569Y26100000D01*
X79835000Y26100000D01*
X79842804Y26099231D01*
X79850307Y26096955D01*
X79857223Y26093259D01*
X79863284Y26088284D01*
X79868259Y26082223D01*
X79871955Y26075307D01*
X79874231Y26067804D01*
X79875000Y26060000D01*
X79875000Y25940000D01*
X79874231Y25932196D01*
X79871955Y25924693D01*
X79868259Y25917777D01*
X79863284Y25911716D01*
X79857223Y25906741D01*
X79850307Y25903045D01*
X79842804Y25900769D01*
X79835000Y25900000D01*
X79165000Y25900000D01*
X79157196Y25900769D01*
G37*
G36*
G01*
X79875000Y25650000D02*
X79875000Y25550000D01*
G75*
G02*
X79825000Y25500000I-50000J0D01*
G01*
X79175000Y25500000D01*
G75*
G02*
X79125000Y25550000I0J50000D01*
G01*
X79125000Y25650000D01*
G75*
G02*
X79175000Y25700000I50000J0D01*
G01*
X79825000Y25700000D01*
G75*
G02*
X79875000Y25650000I0J-50000D01*
G01*
G37*
G36*
G01*
X79875000Y25250000D02*
X79875000Y25150000D01*
G75*
G02*
X79825000Y25100000I-50000J0D01*
G01*
X79175000Y25100000D01*
G75*
G02*
X79125000Y25150000I0J50000D01*
G01*
X79125000Y25250000D01*
G75*
G02*
X79175000Y25300000I50000J0D01*
G01*
X79825000Y25300000D01*
G75*
G02*
X79875000Y25250000I0J-50000D01*
G01*
G37*
G36*
G01*
X79875000Y24850000D02*
X79875000Y24750000D01*
G75*
G02*
X79825000Y24700000I-50000J0D01*
G01*
X79175000Y24700000D01*
G75*
G02*
X79125000Y24750000I0J50000D01*
G01*
X79125000Y24850000D01*
G75*
G02*
X79175000Y24900000I50000J0D01*
G01*
X79825000Y24900000D01*
G75*
G02*
X79875000Y24850000I0J-50000D01*
G01*
G37*
G36*
G01*
X79875000Y24450000D02*
X79875000Y24350000D01*
G75*
G02*
X79825000Y24300000I-50000J0D01*
G01*
X79175000Y24300000D01*
G75*
G02*
X79125000Y24350000I0J50000D01*
G01*
X79125000Y24450000D01*
G75*
G02*
X79175000Y24500000I50000J0D01*
G01*
X79825000Y24500000D01*
G75*
G02*
X79875000Y24450000I0J-50000D01*
G01*
G37*
G36*
X79253765Y23900769D02*
G01*
X79246262Y23903045D01*
X79239346Y23906741D01*
X79233285Y23911716D01*
X79136716Y24008285D01*
X79131741Y24014346D01*
X79128045Y24021262D01*
X79125769Y24028765D01*
X79125000Y24036569D01*
X79125000Y24060000D01*
X79125769Y24067804D01*
X79128045Y24075307D01*
X79131741Y24082223D01*
X79136716Y24088284D01*
X79142777Y24093259D01*
X79149693Y24096955D01*
X79157196Y24099231D01*
X79165000Y24100000D01*
X79835000Y24100000D01*
X79842804Y24099231D01*
X79850307Y24096955D01*
X79857223Y24093259D01*
X79863284Y24088284D01*
X79868259Y24082223D01*
X79871955Y24075307D01*
X79874231Y24067804D01*
X79875000Y24060000D01*
X79875000Y23940000D01*
X79874231Y23932196D01*
X79871955Y23924693D01*
X79868259Y23917777D01*
X79863284Y23911716D01*
X79857223Y23906741D01*
X79850307Y23903045D01*
X79842804Y23900769D01*
X79835000Y23900000D01*
X79261569Y23900000D01*
X79253765Y23900769D01*
G37*
G36*
X78932196Y23125769D02*
G01*
X78924693Y23128045D01*
X78917777Y23131741D01*
X78911716Y23136716D01*
X78906741Y23142777D01*
X78903045Y23149693D01*
X78900769Y23157196D01*
X78900000Y23165000D01*
X78900000Y23835000D01*
X78900769Y23842804D01*
X78903045Y23850307D01*
X78906741Y23857223D01*
X78911716Y23863284D01*
X78917777Y23868259D01*
X78924693Y23871955D01*
X78932196Y23874231D01*
X78940000Y23875000D01*
X78963431Y23875000D01*
X78971235Y23874231D01*
X78978738Y23871955D01*
X78985654Y23868259D01*
X78991715Y23863284D01*
X79088284Y23766715D01*
X79093259Y23760654D01*
X79096955Y23753738D01*
X79099231Y23746235D01*
X79100000Y23738431D01*
X79100000Y23165000D01*
X79099231Y23157196D01*
X79096955Y23149693D01*
X79093259Y23142777D01*
X79088284Y23136716D01*
X79082223Y23131741D01*
X79075307Y23128045D01*
X79067804Y23125769D01*
X79060000Y23125000D01*
X78940000Y23125000D01*
X78932196Y23125769D01*
G37*
G36*
G01*
X78700000Y23825000D02*
X78700000Y23175000D01*
G75*
G02*
X78650000Y23125000I-50000J0D01*
G01*
X78550000Y23125000D01*
G75*
G02*
X78500000Y23175000I0J50000D01*
G01*
X78500000Y23825000D01*
G75*
G02*
X78550000Y23875000I50000J0D01*
G01*
X78650000Y23875000D01*
G75*
G02*
X78700000Y23825000I0J-50000D01*
G01*
G37*
G36*
G01*
X78300000Y23825000D02*
X78300000Y23175000D01*
G75*
G02*
X78250000Y23125000I-50000J0D01*
G01*
X78150000Y23125000D01*
G75*
G02*
X78100000Y23175000I0J50000D01*
G01*
X78100000Y23825000D01*
G75*
G02*
X78150000Y23875000I50000J0D01*
G01*
X78250000Y23875000D01*
G75*
G02*
X78300000Y23825000I0J-50000D01*
G01*
G37*
G36*
G01*
X77900000Y23825000D02*
X77900000Y23175000D01*
G75*
G02*
X77850000Y23125000I-50000J0D01*
G01*
X77750000Y23125000D01*
G75*
G02*
X77700000Y23175000I0J50000D01*
G01*
X77700000Y23825000D01*
G75*
G02*
X77750000Y23875000I50000J0D01*
G01*
X77850000Y23875000D01*
G75*
G02*
X77900000Y23825000I0J-50000D01*
G01*
G37*
G36*
G01*
X77500000Y23825000D02*
X77500000Y23175000D01*
G75*
G02*
X77450000Y23125000I-50000J0D01*
G01*
X77350000Y23125000D01*
G75*
G02*
X77300000Y23175000I0J50000D01*
G01*
X77300000Y23825000D01*
G75*
G02*
X77350000Y23875000I50000J0D01*
G01*
X77450000Y23875000D01*
G75*
G02*
X77500000Y23825000I0J-50000D01*
G01*
G37*
G36*
X76932196Y23125769D02*
G01*
X76924693Y23128045D01*
X76917777Y23131741D01*
X76911716Y23136716D01*
X76906741Y23142777D01*
X76903045Y23149693D01*
X76900769Y23157196D01*
X76900000Y23165000D01*
X76900000Y23738431D01*
X76900769Y23746235D01*
X76903045Y23753738D01*
X76906741Y23760654D01*
X76911716Y23766715D01*
X77008285Y23863284D01*
X77014346Y23868259D01*
X77021262Y23871955D01*
X77028765Y23874231D01*
X77036569Y23875000D01*
X77060000Y23875000D01*
X77067804Y23874231D01*
X77075307Y23871955D01*
X77082223Y23868259D01*
X77088284Y23863284D01*
X77093259Y23857223D01*
X77096955Y23850307D01*
X77099231Y23842804D01*
X77100000Y23835000D01*
X77100000Y23165000D01*
X77099231Y23157196D01*
X77096955Y23149693D01*
X77093259Y23142777D01*
X77088284Y23136716D01*
X77082223Y23131741D01*
X77075307Y23128045D01*
X77067804Y23125769D01*
X77060000Y23125000D01*
X76940000Y23125000D01*
X76932196Y23125769D01*
G37*
G36*
X76157196Y23900769D02*
G01*
X76149693Y23903045D01*
X76142777Y23906741D01*
X76136716Y23911716D01*
X76131741Y23917777D01*
X76128045Y23924693D01*
X76125769Y23932196D01*
X76125000Y23940000D01*
X76125000Y24060000D01*
X76125769Y24067804D01*
X76128045Y24075307D01*
X76131741Y24082223D01*
X76136716Y24088284D01*
X76142777Y24093259D01*
X76149693Y24096955D01*
X76157196Y24099231D01*
X76165000Y24100000D01*
X76835000Y24100000D01*
X76842804Y24099231D01*
X76850307Y24096955D01*
X76857223Y24093259D01*
X76863284Y24088284D01*
X76868259Y24082223D01*
X76871955Y24075307D01*
X76874231Y24067804D01*
X76875000Y24060000D01*
X76875000Y24036569D01*
X76874231Y24028765D01*
X76871955Y24021262D01*
X76868259Y24014346D01*
X76863284Y24008285D01*
X76766715Y23911716D01*
X76760654Y23906741D01*
X76753738Y23903045D01*
X76746235Y23900769D01*
X76738431Y23900000D01*
X76165000Y23900000D01*
X76157196Y23900769D01*
G37*
G36*
G01*
X76875000Y24450000D02*
X76875000Y24350000D01*
G75*
G02*
X76825000Y24300000I-50000J0D01*
G01*
X76175000Y24300000D01*
G75*
G02*
X76125000Y24350000I0J50000D01*
G01*
X76125000Y24450000D01*
G75*
G02*
X76175000Y24500000I50000J0D01*
G01*
X76825000Y24500000D01*
G75*
G02*
X76875000Y24450000I0J-50000D01*
G01*
G37*
G36*
G01*
X76875000Y24850000D02*
X76875000Y24750000D01*
G75*
G02*
X76825000Y24700000I-50000J0D01*
G01*
X76175000Y24700000D01*
G75*
G02*
X76125000Y24750000I0J50000D01*
G01*
X76125000Y24850000D01*
G75*
G02*
X76175000Y24900000I50000J0D01*
G01*
X76825000Y24900000D01*
G75*
G02*
X76875000Y24850000I0J-50000D01*
G01*
G37*
G36*
G01*
X76875000Y25250000D02*
X76875000Y25150000D01*
G75*
G02*
X76825000Y25100000I-50000J0D01*
G01*
X76175000Y25100000D01*
G75*
G02*
X76125000Y25150000I0J50000D01*
G01*
X76125000Y25250000D01*
G75*
G02*
X76175000Y25300000I50000J0D01*
G01*
X76825000Y25300000D01*
G75*
G02*
X76875000Y25250000I0J-50000D01*
G01*
G37*
G36*
G01*
X76875000Y25650000D02*
X76875000Y25550000D01*
G75*
G02*
X76825000Y25500000I-50000J0D01*
G01*
X76175000Y25500000D01*
G75*
G02*
X76125000Y25550000I0J50000D01*
G01*
X76125000Y25650000D01*
G75*
G02*
X76175000Y25700000I50000J0D01*
G01*
X76825000Y25700000D01*
G75*
G02*
X76875000Y25650000I0J-50000D01*
G01*
G37*
G36*
X76157196Y25900769D02*
G01*
X76149693Y25903045D01*
X76142777Y25906741D01*
X76136716Y25911716D01*
X76131741Y25917777D01*
X76128045Y25924693D01*
X76125769Y25932196D01*
X76125000Y25940000D01*
X76125000Y26060000D01*
X76125769Y26067804D01*
X76128045Y26075307D01*
X76131741Y26082223D01*
X76136716Y26088284D01*
X76142777Y26093259D01*
X76149693Y26096955D01*
X76157196Y26099231D01*
X76165000Y26100000D01*
X76738431Y26100000D01*
X76746235Y26099231D01*
X76753738Y26096955D01*
X76760654Y26093259D01*
X76766715Y26088284D01*
X76863284Y25991715D01*
X76868259Y25985654D01*
X76871955Y25978738D01*
X76874231Y25971235D01*
X76875000Y25963431D01*
X76875000Y25940000D01*
X76874231Y25932196D01*
X76871955Y25924693D01*
X76868259Y25917777D01*
X76863284Y25911716D01*
X76857223Y25906741D01*
X76850307Y25903045D01*
X76842804Y25900769D01*
X76835000Y25900000D01*
X76165000Y25900000D01*
X76157196Y25900769D01*
G37*
G36*
X77028765Y26125769D02*
G01*
X77021262Y26128045D01*
X77014346Y26131741D01*
X77008285Y26136716D01*
X76911716Y26233285D01*
X76906741Y26239346D01*
X76903045Y26246262D01*
X76900769Y26253765D01*
X76900000Y26261569D01*
X76900000Y26835000D01*
X76900769Y26842804D01*
X76903045Y26850307D01*
X76906741Y26857223D01*
X76911716Y26863284D01*
X76917777Y26868259D01*
X76924693Y26871955D01*
X76932196Y26874231D01*
X76940000Y26875000D01*
X77060000Y26875000D01*
X77067804Y26874231D01*
X77075307Y26871955D01*
X77082223Y26868259D01*
X77088284Y26863284D01*
X77093259Y26857223D01*
X77096955Y26850307D01*
X77099231Y26842804D01*
X77100000Y26835000D01*
X77100000Y26165000D01*
X77099231Y26157196D01*
X77096955Y26149693D01*
X77093259Y26142777D01*
X77088284Y26136716D01*
X77082223Y26131741D01*
X77075307Y26128045D01*
X77067804Y26125769D01*
X77060000Y26125000D01*
X77036569Y26125000D01*
X77028765Y26125769D01*
G37*
G36*
G01*
X77500000Y26825000D02*
X77500000Y26175000D01*
G75*
G02*
X77450000Y26125000I-50000J0D01*
G01*
X77350000Y26125000D01*
G75*
G02*
X77300000Y26175000I0J50000D01*
G01*
X77300000Y26825000D01*
G75*
G02*
X77350000Y26875000I50000J0D01*
G01*
X77450000Y26875000D01*
G75*
G02*
X77500000Y26825000I0J-50000D01*
G01*
G37*
G36*
G01*
X77900000Y26825000D02*
X77900000Y26175000D01*
G75*
G02*
X77850000Y26125000I-50000J0D01*
G01*
X77750000Y26125000D01*
G75*
G02*
X77700000Y26175000I0J50000D01*
G01*
X77700000Y26825000D01*
G75*
G02*
X77750000Y26875000I50000J0D01*
G01*
X77850000Y26875000D01*
G75*
G02*
X77900000Y26825000I0J-50000D01*
G01*
G37*
G36*
G01*
X78300000Y26825000D02*
X78300000Y26175000D01*
G75*
G02*
X78250000Y26125000I-50000J0D01*
G01*
X78150000Y26125000D01*
G75*
G02*
X78100000Y26175000I0J50000D01*
G01*
X78100000Y26825000D01*
G75*
G02*
X78150000Y26875000I50000J0D01*
G01*
X78250000Y26875000D01*
G75*
G02*
X78300000Y26825000I0J-50000D01*
G01*
G37*
G36*
G01*
X78700000Y26825000D02*
X78700000Y26175000D01*
G75*
G02*
X78650000Y26125000I-50000J0D01*
G01*
X78550000Y26125000D01*
G75*
G02*
X78500000Y26175000I0J50000D01*
G01*
X78500000Y26825000D01*
G75*
G02*
X78550000Y26875000I50000J0D01*
G01*
X78650000Y26875000D01*
G75*
G02*
X78700000Y26825000I0J-50000D01*
G01*
G37*
G36*
X78932196Y26125769D02*
G01*
X78924693Y26128045D01*
X78917777Y26131741D01*
X78911716Y26136716D01*
X78906741Y26142777D01*
X78903045Y26149693D01*
X78900769Y26157196D01*
X78900000Y26165000D01*
X78900000Y26835000D01*
X78900769Y26842804D01*
X78903045Y26850307D01*
X78906741Y26857223D01*
X78911716Y26863284D01*
X78917777Y26868259D01*
X78924693Y26871955D01*
X78932196Y26874231D01*
X78940000Y26875000D01*
X79060000Y26875000D01*
X79067804Y26874231D01*
X79075307Y26871955D01*
X79082223Y26868259D01*
X79088284Y26863284D01*
X79093259Y26857223D01*
X79096955Y26850307D01*
X79099231Y26842804D01*
X79100000Y26835000D01*
X79100000Y26261569D01*
X79099231Y26253765D01*
X79096955Y26246262D01*
X79093259Y26239346D01*
X79088284Y26233285D01*
X78991715Y26136716D01*
X78985654Y26131741D01*
X78978738Y26128045D01*
X78971235Y26125769D01*
X78963431Y26125000D01*
X78940000Y26125000D01*
X78932196Y26125769D01*
G37*
G36*
G01*
X78795000Y25560000D02*
X78795000Y25240000D01*
G75*
G02*
X78635000Y25080000I-160000J0D01*
G01*
X78245000Y25080000D01*
G75*
G02*
X78085000Y25240000I0J160000D01*
G01*
X78085000Y25560000D01*
G75*
G02*
X78245000Y25720000I160000J0D01*
G01*
X78635000Y25720000D01*
G75*
G02*
X78795000Y25560000I0J-160000D01*
G01*
G37*
G36*
G01*
X78795000Y24760000D02*
X78795000Y24440000D01*
G75*
G02*
X78635000Y24280000I-160000J0D01*
G01*
X78245000Y24280000D01*
G75*
G02*
X78085000Y24440000I0J160000D01*
G01*
X78085000Y24760000D01*
G75*
G02*
X78245000Y24920000I160000J0D01*
G01*
X78635000Y24920000D01*
G75*
G02*
X78795000Y24760000I0J-160000D01*
G01*
G37*
G36*
G01*
X77915000Y25560000D02*
X77915000Y25240000D01*
G75*
G02*
X77755000Y25080000I-160000J0D01*
G01*
X77365000Y25080000D01*
G75*
G02*
X77205000Y25240000I0J160000D01*
G01*
X77205000Y25560000D01*
G75*
G02*
X77365000Y25720000I160000J0D01*
G01*
X77755000Y25720000D01*
G75*
G02*
X77915000Y25560000I0J-160000D01*
G01*
G37*
G36*
G01*
X77915000Y24760000D02*
X77915000Y24440000D01*
G75*
G02*
X77755000Y24280000I-160000J0D01*
G01*
X77365000Y24280000D01*
G75*
G02*
X77205000Y24440000I0J160000D01*
G01*
X77205000Y24760000D01*
G75*
G02*
X77365000Y24920000I160000J0D01*
G01*
X77755000Y24920000D01*
G75*
G02*
X77915000Y24760000I0J-160000D01*
G01*
G37*
%TD*%
%TO.C,FB2*%
G36*
G01*
X91175000Y8943750D02*
X91175000Y9456250D01*
G75*
G02*
X91393750Y9675000I218750J0D01*
G01*
X91831250Y9675000D01*
G75*
G02*
X92050000Y9456250I0J-218750D01*
G01*
X92050000Y8943750D01*
G75*
G02*
X91831250Y8725000I-218750J0D01*
G01*
X91393750Y8725000D01*
G75*
G02*
X91175000Y8943750I0J218750D01*
G01*
G37*
G36*
G01*
X92750000Y8943750D02*
X92750000Y9456250D01*
G75*
G02*
X92968750Y9675000I218750J0D01*
G01*
X93406250Y9675000D01*
G75*
G02*
X93625000Y9456250I0J-218750D01*
G01*
X93625000Y8943750D01*
G75*
G02*
X93406250Y8725000I-218750J0D01*
G01*
X92968750Y8725000D01*
G75*
G02*
X92750000Y8943750I0J218750D01*
G01*
G37*
%TD*%
M02*
