G04 #@! TF.GenerationSoftware,KiCad,Pcbnew,5.1.6-c6e7f7d~87~ubuntu18.04.1*
G04 #@! TF.CreationDate,2020-09-24T13:28:20+09:00*
G04 #@! TF.ProjectId,m5mouse,6d356d6f-7573-4652-9e6b-696361645f70,rev?*
G04 #@! TF.SameCoordinates,Original*
G04 #@! TF.FileFunction,Legend,Bot*
G04 #@! TF.FilePolarity,Positive*
%FSLAX46Y46*%
G04 Gerber Fmt 4.6, Leading zero omitted, Abs format (unit mm)*
G04 Created by KiCad (PCBNEW 5.1.6-c6e7f7d~87~ubuntu18.04.1) date 2020-09-24 13:28:20*
%MOMM*%
%LPD*%
G01*
G04 APERTURE LIST*
%ADD10C,0.120000*%
%ADD11C,0.150000*%
G04 APERTURE END LIST*
D10*
X172300000Y-92235000D02*
X170015000Y-92235000D01*
X170015000Y-92235000D02*
X170015000Y-90765000D01*
X170015000Y-90765000D02*
X172300000Y-90765000D01*
X143700000Y-90765000D02*
X145985000Y-90765000D01*
X145985000Y-90765000D02*
X145985000Y-92235000D01*
X145985000Y-92235000D02*
X143700000Y-92235000D01*
X108650000Y-105550000D02*
X108650000Y-101850000D01*
X101950000Y-105550000D02*
X108650000Y-105550000D01*
X101950000Y-101850000D02*
X101950000Y-105550000D01*
X108650000Y-101850000D02*
X101950000Y-101850000D01*
X167370000Y-101830000D02*
X168700000Y-101830000D01*
X167370000Y-100500000D02*
X167370000Y-101830000D01*
X169970000Y-101830000D02*
X172570000Y-101830000D01*
X169970000Y-99230000D02*
X169970000Y-101830000D01*
X167370000Y-99230000D02*
X169970000Y-99230000D01*
X172570000Y-101830000D02*
X172570000Y-94090000D01*
X167370000Y-99230000D02*
X167370000Y-94090000D01*
X167370000Y-94090000D02*
X172570000Y-94090000D01*
X148730000Y-101910000D02*
X143530000Y-101910000D01*
X148730000Y-96770000D02*
X148730000Y-101910000D01*
X143530000Y-94170000D02*
X143530000Y-101910000D01*
X148730000Y-96770000D02*
X146130000Y-96770000D01*
X146130000Y-96770000D02*
X146130000Y-94170000D01*
X146130000Y-94170000D02*
X143530000Y-94170000D01*
X148730000Y-95500000D02*
X148730000Y-94170000D01*
X148730000Y-94170000D02*
X147400000Y-94170000D01*
X134470000Y-109190000D02*
X137130000Y-109190000D01*
X134470000Y-114330000D02*
X134470000Y-109190000D01*
X137130000Y-114330000D02*
X137130000Y-109190000D01*
X134470000Y-114330000D02*
X137130000Y-114330000D01*
X134470000Y-115600000D02*
X134470000Y-116930000D01*
X134470000Y-116930000D02*
X135800000Y-116930000D01*
X99920000Y-91870000D02*
X99920000Y-94530000D01*
X99920000Y-91870000D02*
X112680000Y-91870000D01*
X112680000Y-91870000D02*
X112680000Y-94530000D01*
X99920000Y-94530000D02*
X112680000Y-94530000D01*
X97320000Y-94530000D02*
X98650000Y-94530000D01*
X97320000Y-93200000D02*
X97320000Y-94530000D01*
X105738748Y-128710000D02*
X106261252Y-128710000D01*
X105738748Y-126490000D02*
X106261252Y-126490000D01*
X169580000Y-125760000D02*
X168650000Y-125760000D01*
X166420000Y-125760000D02*
X167350000Y-125760000D01*
X166420000Y-125760000D02*
X166420000Y-123600000D01*
X169580000Y-125760000D02*
X169580000Y-124300000D01*
X162780000Y-125760000D02*
X162780000Y-124300000D01*
X159620000Y-125760000D02*
X159620000Y-123600000D01*
X159620000Y-125760000D02*
X160550000Y-125760000D01*
X162780000Y-125760000D02*
X161850000Y-125760000D01*
X156280000Y-125760000D02*
X155350000Y-125760000D01*
X153120000Y-125760000D02*
X154050000Y-125760000D01*
X153120000Y-125760000D02*
X153120000Y-123600000D01*
X156280000Y-125760000D02*
X156280000Y-124300000D01*
X149680000Y-125760000D02*
X149680000Y-124300000D01*
X146520000Y-125760000D02*
X146520000Y-123600000D01*
X146520000Y-125760000D02*
X147450000Y-125760000D01*
X149680000Y-125760000D02*
X148750000Y-125760000D01*
X110162779Y-114510000D02*
X109837221Y-114510000D01*
X110162779Y-113490000D02*
X109837221Y-113490000D01*
X105162779Y-112490000D02*
X104837221Y-112490000D01*
X105162779Y-113510000D02*
X104837221Y-113510000D01*
X104837221Y-114490000D02*
X105162779Y-114490000D01*
X104837221Y-115510000D02*
X105162779Y-115510000D01*
X164724273Y-112245522D02*
X164954478Y-112475727D01*
X165445522Y-111524273D02*
X165675727Y-111754478D01*
X158072000Y-120858779D02*
X158072000Y-120533221D01*
X159092000Y-120858779D02*
X159092000Y-120533221D01*
X167837221Y-122510000D02*
X168162779Y-122510000D01*
X167837221Y-121490000D02*
X168162779Y-121490000D01*
X175690000Y-127637221D02*
X175690000Y-127962779D01*
X176710000Y-127637221D02*
X176710000Y-127962779D01*
X161037221Y-121490000D02*
X161362779Y-121490000D01*
X161037221Y-122510000D02*
X161362779Y-122510000D01*
X161690000Y-137237221D02*
X161690000Y-137562779D01*
X162710000Y-137237221D02*
X162710000Y-137562779D01*
X154537221Y-121490000D02*
X154862779Y-121490000D01*
X154537221Y-122510000D02*
X154862779Y-122510000D01*
X153290000Y-137237221D02*
X153290000Y-137562779D01*
X154310000Y-137237221D02*
X154310000Y-137562779D01*
X147937221Y-121490000D02*
X148262779Y-121490000D01*
X147937221Y-122510000D02*
X148262779Y-122510000D01*
X139490000Y-127637221D02*
X139490000Y-127962779D01*
X140510000Y-127637221D02*
X140510000Y-127962779D01*
X135337221Y-106690000D02*
X135662779Y-106690000D01*
X135337221Y-107710000D02*
X135662779Y-107710000D01*
X168462779Y-90990000D02*
X168137221Y-90990000D01*
X168462779Y-92010000D02*
X168137221Y-92010000D01*
X147537221Y-90990000D02*
X147862779Y-90990000D01*
X147537221Y-92010000D02*
X147862779Y-92010000D01*
X113510000Y-113162779D02*
X113510000Y-112837221D01*
X112490000Y-113162779D02*
X112490000Y-112837221D01*
X149362779Y-109110000D02*
X149037221Y-109110000D01*
X149362779Y-108090000D02*
X149037221Y-108090000D01*
X110162779Y-112510000D02*
X109837221Y-112510000D01*
X110162779Y-111490000D02*
X109837221Y-111490000D01*
X121037221Y-114510000D02*
X121362779Y-114510000D01*
X121037221Y-113490000D02*
X121362779Y-113490000D01*
X115350000Y-118200000D02*
X115350000Y-119500000D01*
X116650000Y-118200000D02*
X115350000Y-118200000D01*
X123000000Y-130450000D02*
X123000000Y-120550000D01*
X116300000Y-120550000D02*
X116300000Y-130450000D01*
X122250000Y-118500000D02*
X117050000Y-118500000D01*
X117050000Y-132500000D02*
X122250000Y-132500000D01*
X134500000Y-103500000D02*
X134500000Y-99000000D01*
X138500000Y-104750000D02*
X137000000Y-104750000D01*
X141000000Y-99000000D02*
X141000000Y-103500000D01*
X137000000Y-97750000D02*
X138500000Y-97750000D01*
X103390000Y-119900000D02*
X103390000Y-118100000D01*
X106610000Y-118100000D02*
X106610000Y-120550000D01*
X151445120Y-104271751D02*
X150773369Y-103600000D01*
X150773369Y-103600000D02*
X151445120Y-102928249D01*
X157328249Y-110154880D02*
X158000000Y-110826631D01*
X158000000Y-110826631D02*
X158671751Y-110154880D01*
X158671751Y-97045120D02*
X158000000Y-96373369D01*
X158000000Y-96373369D02*
X157328249Y-97045120D01*
X164554880Y-102928249D02*
X165226631Y-103600000D01*
X165226631Y-103600000D02*
X164554880Y-104271751D01*
X164554880Y-104271751D02*
X165502403Y-105219275D01*
X142480000Y-109750000D02*
X142480000Y-112120000D01*
X145720000Y-111500000D02*
X145720000Y-110500000D01*
X142100000Y-109300000D02*
X142100000Y-110500000D01*
X143600000Y-109300000D02*
X142100000Y-109300000D01*
X168400000Y-109000000D02*
X167480761Y-108080761D01*
X167480761Y-108080761D02*
X165218019Y-110343503D01*
X165218019Y-110343503D02*
X166137258Y-111262742D01*
X166137258Y-111262742D02*
X168400000Y-109000000D01*
X159360000Y-113390000D02*
X159610000Y-113390000D01*
X156390000Y-116610000D02*
X156390000Y-116360000D01*
X156640000Y-116610000D02*
X156390000Y-116610000D01*
X159610000Y-116610000D02*
X159610000Y-116360000D01*
X159360000Y-116610000D02*
X159610000Y-116610000D01*
X156390000Y-113390000D02*
X156390000Y-113640000D01*
X156640000Y-113390000D02*
X156390000Y-113390000D01*
X95340000Y-137310000D02*
X95340000Y-132590000D01*
X95340000Y-132590000D02*
X101460000Y-132590000D01*
X101460000Y-132590000D02*
X101460000Y-137310000D01*
X101460000Y-137310000D02*
X95340000Y-137310000D01*
X97100000Y-137310000D02*
X97100000Y-137510000D01*
X97100000Y-137510000D02*
X96800000Y-137510000D01*
X96800000Y-137510000D02*
X96800000Y-137310000D01*
X97100000Y-137410000D02*
X96800000Y-137410000D01*
X97900000Y-137310000D02*
X97900000Y-136700000D01*
X97900000Y-136700000D02*
X95950000Y-136700000D01*
X95950000Y-136700000D02*
X95950000Y-133200000D01*
X95950000Y-133200000D02*
X100850000Y-133200000D01*
X100850000Y-133200000D02*
X100850000Y-136700000D01*
X100850000Y-136700000D02*
X98900000Y-136700000D01*
X98900000Y-136700000D02*
X98900000Y-137310000D01*
X95340000Y-136000000D02*
X95950000Y-136000000D01*
X95340000Y-134700000D02*
X95950000Y-134700000D01*
X101460000Y-136000000D02*
X100850000Y-136000000D01*
X101460000Y-134700000D02*
X100850000Y-134700000D01*
X98300000Y-133200000D02*
X98300000Y-133700000D01*
X98300000Y-133700000D02*
X98500000Y-133700000D01*
X98500000Y-133700000D02*
X98500000Y-133200000D01*
X98400000Y-133200000D02*
X98400000Y-133700000D01*
X96290000Y-137610000D02*
X95040000Y-137610000D01*
X95040000Y-137610000D02*
X95040000Y-136360000D01*
X104322221Y-124490000D02*
X104647779Y-124490000D01*
X104322221Y-125510000D02*
X104647779Y-125510000D01*
X104337221Y-123910000D02*
X104662779Y-123910000D01*
X104337221Y-122890000D02*
X104662779Y-122890000D01*
X109141422Y-119690000D02*
X109658578Y-119690000D01*
X109141422Y-121110000D02*
X109658578Y-121110000D01*
X109141422Y-123110000D02*
X109658578Y-123110000D01*
X109141422Y-121690000D02*
X109658578Y-121690000D01*
X109141422Y-123690000D02*
X109658578Y-123690000D01*
X109141422Y-125110000D02*
X109658578Y-125110000D01*
X101797936Y-108890000D02*
X103002064Y-108890000D01*
X101797936Y-110710000D02*
X103002064Y-110710000D01*
X125780000Y-114040000D02*
X125780000Y-114040000D01*
X125910000Y-114040000D02*
X125780000Y-114040000D01*
X125910000Y-114040000D02*
X125910000Y-114040000D01*
X125780000Y-114040000D02*
X125910000Y-114040000D01*
X125780000Y-111500000D02*
X125780000Y-111500000D01*
X125910000Y-111500000D02*
X125780000Y-111500000D01*
X125910000Y-111500000D02*
X125910000Y-111500000D01*
X125780000Y-111500000D02*
X125910000Y-111500000D01*
X125910000Y-114330000D02*
X125910000Y-114730000D01*
X127030000Y-114330000D02*
X125910000Y-114330000D01*
X127030000Y-114730000D02*
X127030000Y-114330000D01*
X125910000Y-114730000D02*
X127030000Y-114730000D01*
X125910000Y-111210000D02*
X125910000Y-114330000D01*
X125910000Y-114330000D02*
X129770000Y-114330000D01*
X125910000Y-111210000D02*
X129770000Y-111210000D01*
X129770000Y-114330000D02*
G75*
G03*
X129770000Y-111210000I0J1560000D01*
G01*
X172571267Y-131310000D02*
X172228733Y-131310000D01*
X172571267Y-130290000D02*
X172228733Y-130290000D01*
X177590000Y-114990000D02*
X175390000Y-114990000D01*
X175390000Y-114990000D02*
X175390000Y-116210000D01*
X175390000Y-116210000D02*
X183810000Y-116210000D01*
X183810000Y-116210000D02*
X183810000Y-98490000D01*
X183810000Y-98490000D02*
X175390000Y-98490000D01*
X175390000Y-98490000D02*
X175390000Y-99710000D01*
X175390000Y-99710000D02*
X177590000Y-99710000D01*
X182590000Y-116210000D02*
X182590000Y-114990000D01*
X182590000Y-114990000D02*
X177590000Y-114990000D01*
X177590000Y-114990000D02*
X177590000Y-116210000D01*
X182590000Y-98490000D02*
X182590000Y-99710000D01*
X182590000Y-99710000D02*
X177590000Y-99710000D01*
X177590000Y-99710000D02*
X177590000Y-98490000D01*
X178590000Y-114990000D02*
X178590000Y-99710000D01*
X178590000Y-113600000D02*
X178590000Y-113920000D01*
X178590000Y-113920000D02*
X182010000Y-113920000D01*
X182010000Y-113920000D02*
X182090000Y-113600000D01*
X182090000Y-113600000D02*
X182010000Y-113280000D01*
X182010000Y-113280000D02*
X178590000Y-113280000D01*
X178590000Y-113280000D02*
X178590000Y-113600000D01*
X177590000Y-112430000D02*
X177590000Y-112270000D01*
X178590000Y-111100000D02*
X178590000Y-111420000D01*
X178590000Y-111420000D02*
X182010000Y-111420000D01*
X182010000Y-111420000D02*
X182090000Y-111100000D01*
X182090000Y-111100000D02*
X182010000Y-110780000D01*
X182010000Y-110780000D02*
X178590000Y-110780000D01*
X178590000Y-110780000D02*
X178590000Y-111100000D01*
X177590000Y-109930000D02*
X177590000Y-109770000D01*
X178590000Y-108600000D02*
X178590000Y-108920000D01*
X178590000Y-108920000D02*
X182010000Y-108920000D01*
X182010000Y-108920000D02*
X182090000Y-108600000D01*
X182090000Y-108600000D02*
X182010000Y-108280000D01*
X182010000Y-108280000D02*
X178590000Y-108280000D01*
X178590000Y-108280000D02*
X178590000Y-108600000D01*
X177590000Y-107430000D02*
X177590000Y-107270000D01*
X178590000Y-106100000D02*
X178590000Y-106420000D01*
X178590000Y-106420000D02*
X182010000Y-106420000D01*
X182010000Y-106420000D02*
X182090000Y-106100000D01*
X182090000Y-106100000D02*
X182010000Y-105780000D01*
X182010000Y-105780000D02*
X178590000Y-105780000D01*
X178590000Y-105780000D02*
X178590000Y-106100000D01*
X177590000Y-104930000D02*
X177590000Y-104770000D01*
X178590000Y-103600000D02*
X178590000Y-103920000D01*
X178590000Y-103920000D02*
X182010000Y-103920000D01*
X182010000Y-103920000D02*
X182090000Y-103600000D01*
X182090000Y-103600000D02*
X182010000Y-103280000D01*
X182010000Y-103280000D02*
X178590000Y-103280000D01*
X178590000Y-103280000D02*
X178590000Y-103600000D01*
X177590000Y-102430000D02*
X177590000Y-102270000D01*
X178590000Y-101100000D02*
X178590000Y-101420000D01*
X178590000Y-101420000D02*
X182010000Y-101420000D01*
X182010000Y-101420000D02*
X182090000Y-101100000D01*
X182090000Y-101100000D02*
X182010000Y-100780000D01*
X182010000Y-100780000D02*
X178590000Y-100780000D01*
X178590000Y-100780000D02*
X178590000Y-101100000D01*
X175500000Y-113600000D02*
X174900000Y-113900000D01*
X174900000Y-113900000D02*
X174900000Y-113300000D01*
X174900000Y-113300000D02*
X175500000Y-113600000D01*
X170148008Y-107323744D02*
X169476256Y-106651992D01*
X169476256Y-106651992D02*
X169051992Y-107076256D01*
X169051992Y-107076256D02*
X169723744Y-107748008D01*
X169723744Y-107748008D02*
X170148008Y-107323744D01*
X163437221Y-117690000D02*
X163762779Y-117690000D01*
X163437221Y-118710000D02*
X163762779Y-118710000D01*
D11*
X102666666Y-121857142D02*
X102714285Y-121904761D01*
X102857142Y-121952380D01*
X102952380Y-121952380D01*
X103095238Y-121904761D01*
X103190476Y-121809523D01*
X103238095Y-121714285D01*
X103285714Y-121523809D01*
X103285714Y-121380952D01*
X103238095Y-121190476D01*
X103190476Y-121095238D01*
X103095238Y-121000000D01*
X102952380Y-120952380D01*
X102857142Y-120952380D01*
X102714285Y-121000000D01*
X102666666Y-121047619D01*
X102333333Y-120952380D02*
X101714285Y-120952380D01*
X102047619Y-121333333D01*
X101904761Y-121333333D01*
X101809523Y-121380952D01*
X101761904Y-121428571D01*
X101714285Y-121523809D01*
X101714285Y-121761904D01*
X101761904Y-121857142D01*
X101809523Y-121904761D01*
X101904761Y-121952380D01*
X102190476Y-121952380D01*
X102285714Y-121904761D01*
X102333333Y-121857142D01*
X109166666Y-118357142D02*
X109214285Y-118404761D01*
X109357142Y-118452380D01*
X109452380Y-118452380D01*
X109595238Y-118404761D01*
X109690476Y-118309523D01*
X109738095Y-118214285D01*
X109785714Y-118023809D01*
X109785714Y-117880952D01*
X109738095Y-117690476D01*
X109690476Y-117595238D01*
X109595238Y-117500000D01*
X109452380Y-117452380D01*
X109357142Y-117452380D01*
X109214285Y-117500000D01*
X109166666Y-117547619D01*
X108309523Y-117785714D02*
X108309523Y-118452380D01*
X108547619Y-117404761D02*
X108785714Y-118119047D01*
X108166666Y-118119047D01*
X166224285Y-100407714D02*
X166262380Y-100445809D01*
X166376666Y-100483904D01*
X166452857Y-100483904D01*
X166567142Y-100445809D01*
X166643333Y-100369619D01*
X166681428Y-100293428D01*
X166719523Y-100141047D01*
X166719523Y-100026761D01*
X166681428Y-99874380D01*
X166643333Y-99798190D01*
X166567142Y-99722000D01*
X166452857Y-99683904D01*
X166376666Y-99683904D01*
X166262380Y-99722000D01*
X166224285Y-99760095D01*
X165462380Y-100483904D02*
X165919523Y-100483904D01*
X165690952Y-100483904D02*
X165690952Y-99683904D01*
X165767142Y-99798190D01*
X165843333Y-99874380D01*
X165919523Y-99912476D01*
X164967142Y-99683904D02*
X164890952Y-99683904D01*
X164814761Y-99722000D01*
X164776666Y-99760095D01*
X164738571Y-99836285D01*
X164700476Y-99988666D01*
X164700476Y-100179142D01*
X164738571Y-100331523D01*
X164776666Y-100407714D01*
X164814761Y-100445809D01*
X164890952Y-100483904D01*
X164967142Y-100483904D01*
X165043333Y-100445809D01*
X165081428Y-100407714D01*
X165119523Y-100331523D01*
X165157619Y-100179142D01*
X165157619Y-99988666D01*
X165119523Y-99836285D01*
X165081428Y-99760095D01*
X165043333Y-99722000D01*
X164967142Y-99683904D01*
X154742857Y-113257142D02*
X154790476Y-113304761D01*
X154933333Y-113352380D01*
X155028571Y-113352380D01*
X155171428Y-113304761D01*
X155266666Y-113209523D01*
X155314285Y-113114285D01*
X155361904Y-112923809D01*
X155361904Y-112780952D01*
X155314285Y-112590476D01*
X155266666Y-112495238D01*
X155171428Y-112400000D01*
X155028571Y-112352380D01*
X154933333Y-112352380D01*
X154790476Y-112400000D01*
X154742857Y-112447619D01*
X153790476Y-113352380D02*
X154361904Y-113352380D01*
X154076190Y-113352380D02*
X154076190Y-112352380D01*
X154171428Y-112495238D01*
X154266666Y-112590476D01*
X154361904Y-112638095D01*
X152838095Y-113352380D02*
X153409523Y-113352380D01*
X153123809Y-113352380D02*
X153123809Y-112352380D01*
X153219047Y-112495238D01*
X153314285Y-112590476D01*
X153409523Y-112638095D01*
X146742857Y-104857142D02*
X146790476Y-104904761D01*
X146933333Y-104952380D01*
X147028571Y-104952380D01*
X147171428Y-104904761D01*
X147266666Y-104809523D01*
X147314285Y-104714285D01*
X147361904Y-104523809D01*
X147361904Y-104380952D01*
X147314285Y-104190476D01*
X147266666Y-104095238D01*
X147171428Y-104000000D01*
X147028571Y-103952380D01*
X146933333Y-103952380D01*
X146790476Y-104000000D01*
X146742857Y-104047619D01*
X145790476Y-104952380D02*
X146361904Y-104952380D01*
X146076190Y-104952380D02*
X146076190Y-103952380D01*
X146171428Y-104095238D01*
X146266666Y-104190476D01*
X146361904Y-104238095D01*
X145409523Y-104047619D02*
X145361904Y-104000000D01*
X145266666Y-103952380D01*
X145028571Y-103952380D01*
X144933333Y-104000000D01*
X144885714Y-104047619D01*
X144838095Y-104142857D01*
X144838095Y-104238095D01*
X144885714Y-104380952D01*
X145457142Y-104952380D01*
X144838095Y-104952380D01*
X151842857Y-96157142D02*
X151890476Y-96204761D01*
X152033333Y-96252380D01*
X152128571Y-96252380D01*
X152271428Y-96204761D01*
X152366666Y-96109523D01*
X152414285Y-96014285D01*
X152461904Y-95823809D01*
X152461904Y-95680952D01*
X152414285Y-95490476D01*
X152366666Y-95395238D01*
X152271428Y-95300000D01*
X152128571Y-95252380D01*
X152033333Y-95252380D01*
X151890476Y-95300000D01*
X151842857Y-95347619D01*
X150890476Y-96252380D02*
X151461904Y-96252380D01*
X151176190Y-96252380D02*
X151176190Y-95252380D01*
X151271428Y-95395238D01*
X151366666Y-95490476D01*
X151461904Y-95538095D01*
X150557142Y-95252380D02*
X149938095Y-95252380D01*
X150271428Y-95633333D01*
X150128571Y-95633333D01*
X150033333Y-95680952D01*
X149985714Y-95728571D01*
X149938095Y-95823809D01*
X149938095Y-96061904D01*
X149985714Y-96157142D01*
X150033333Y-96204761D01*
X150128571Y-96252380D01*
X150414285Y-96252380D01*
X150509523Y-96204761D01*
X150557142Y-96157142D01*
X166098857Y-96923142D02*
X166146476Y-96970761D01*
X166289333Y-97018380D01*
X166384571Y-97018380D01*
X166527428Y-96970761D01*
X166622666Y-96875523D01*
X166670285Y-96780285D01*
X166717904Y-96589809D01*
X166717904Y-96446952D01*
X166670285Y-96256476D01*
X166622666Y-96161238D01*
X166527428Y-96066000D01*
X166384571Y-96018380D01*
X166289333Y-96018380D01*
X166146476Y-96066000D01*
X166098857Y-96113619D01*
X165146476Y-97018380D02*
X165717904Y-97018380D01*
X165432190Y-97018380D02*
X165432190Y-96018380D01*
X165527428Y-96161238D01*
X165622666Y-96256476D01*
X165717904Y-96304095D01*
X164289333Y-96351714D02*
X164289333Y-97018380D01*
X164527428Y-95970761D02*
X164765523Y-96685047D01*
X164146476Y-96685047D01*
X163585714Y-109914285D02*
X163614285Y-109942857D01*
X163700000Y-109971428D01*
X163757142Y-109971428D01*
X163842857Y-109942857D01*
X163900000Y-109885714D01*
X163928571Y-109828571D01*
X163957142Y-109714285D01*
X163957142Y-109628571D01*
X163928571Y-109514285D01*
X163900000Y-109457142D01*
X163842857Y-109400000D01*
X163757142Y-109371428D01*
X163700000Y-109371428D01*
X163614285Y-109400000D01*
X163585714Y-109428571D01*
X163014285Y-109971428D02*
X163357142Y-109971428D01*
X163185714Y-109971428D02*
X163185714Y-109371428D01*
X163242857Y-109457142D01*
X163300000Y-109514285D01*
X163357142Y-109542857D01*
X162471428Y-109371428D02*
X162757142Y-109371428D01*
X162785714Y-109657142D01*
X162757142Y-109628571D01*
X162700000Y-109600000D01*
X162557142Y-109600000D01*
X162500000Y-109628571D01*
X162471428Y-109657142D01*
X162442857Y-109714285D01*
X162442857Y-109857142D01*
X162471428Y-109914285D01*
X162500000Y-109942857D01*
X162557142Y-109971428D01*
X162700000Y-109971428D01*
X162757142Y-109942857D01*
X162785714Y-109914285D01*
X160785714Y-112114285D02*
X160814285Y-112142857D01*
X160900000Y-112171428D01*
X160957142Y-112171428D01*
X161042857Y-112142857D01*
X161100000Y-112085714D01*
X161128571Y-112028571D01*
X161157142Y-111914285D01*
X161157142Y-111828571D01*
X161128571Y-111714285D01*
X161100000Y-111657142D01*
X161042857Y-111600000D01*
X160957142Y-111571428D01*
X160900000Y-111571428D01*
X160814285Y-111600000D01*
X160785714Y-111628571D01*
X160214285Y-112171428D02*
X160557142Y-112171428D01*
X160385714Y-112171428D02*
X160385714Y-111571428D01*
X160442857Y-111657142D01*
X160500000Y-111714285D01*
X160557142Y-111742857D01*
X159700000Y-111571428D02*
X159814285Y-111571428D01*
X159871428Y-111600000D01*
X159900000Y-111628571D01*
X159957142Y-111714285D01*
X159985714Y-111828571D01*
X159985714Y-112057142D01*
X159957142Y-112114285D01*
X159928571Y-112142857D01*
X159871428Y-112171428D01*
X159757142Y-112171428D01*
X159700000Y-112142857D01*
X159671428Y-112114285D01*
X159642857Y-112057142D01*
X159642857Y-111914285D01*
X159671428Y-111857142D01*
X159700000Y-111828571D01*
X159757142Y-111800000D01*
X159871428Y-111800000D01*
X159928571Y-111828571D01*
X159957142Y-111857142D01*
X159985714Y-111914285D01*
X162442857Y-114357142D02*
X162490476Y-114404761D01*
X162633333Y-114452380D01*
X162728571Y-114452380D01*
X162871428Y-114404761D01*
X162966666Y-114309523D01*
X163014285Y-114214285D01*
X163061904Y-114023809D01*
X163061904Y-113880952D01*
X163014285Y-113690476D01*
X162966666Y-113595238D01*
X162871428Y-113500000D01*
X162728571Y-113452380D01*
X162633333Y-113452380D01*
X162490476Y-113500000D01*
X162442857Y-113547619D01*
X161490476Y-114452380D02*
X162061904Y-114452380D01*
X161776190Y-114452380D02*
X161776190Y-113452380D01*
X161871428Y-113595238D01*
X161966666Y-113690476D01*
X162061904Y-113738095D01*
X161157142Y-113452380D02*
X160490476Y-113452380D01*
X160919047Y-114452380D01*
X155642857Y-119557142D02*
X155690476Y-119604761D01*
X155833333Y-119652380D01*
X155928571Y-119652380D01*
X156071428Y-119604761D01*
X156166666Y-119509523D01*
X156214285Y-119414285D01*
X156261904Y-119223809D01*
X156261904Y-119080952D01*
X156214285Y-118890476D01*
X156166666Y-118795238D01*
X156071428Y-118700000D01*
X155928571Y-118652380D01*
X155833333Y-118652380D01*
X155690476Y-118700000D01*
X155642857Y-118747619D01*
X154690476Y-119652380D02*
X155261904Y-119652380D01*
X154976190Y-119652380D02*
X154976190Y-118652380D01*
X155071428Y-118795238D01*
X155166666Y-118890476D01*
X155261904Y-118938095D01*
X154119047Y-119080952D02*
X154214285Y-119033333D01*
X154261904Y-118985714D01*
X154309523Y-118890476D01*
X154309523Y-118842857D01*
X154261904Y-118747619D01*
X154214285Y-118700000D01*
X154119047Y-118652380D01*
X153928571Y-118652380D01*
X153833333Y-118700000D01*
X153785714Y-118747619D01*
X153738095Y-118842857D01*
X153738095Y-118890476D01*
X153785714Y-118985714D01*
X153833333Y-119033333D01*
X153928571Y-119080952D01*
X154119047Y-119080952D01*
X154214285Y-119128571D01*
X154261904Y-119176190D01*
X154309523Y-119271428D01*
X154309523Y-119461904D01*
X154261904Y-119557142D01*
X154214285Y-119604761D01*
X154119047Y-119652380D01*
X153928571Y-119652380D01*
X153833333Y-119604761D01*
X153785714Y-119557142D01*
X153738095Y-119461904D01*
X153738095Y-119271428D01*
X153785714Y-119176190D01*
X153833333Y-119128571D01*
X153928571Y-119080952D01*
X155642857Y-120957142D02*
X155690476Y-121004761D01*
X155833333Y-121052380D01*
X155928571Y-121052380D01*
X156071428Y-121004761D01*
X156166666Y-120909523D01*
X156214285Y-120814285D01*
X156261904Y-120623809D01*
X156261904Y-120480952D01*
X156214285Y-120290476D01*
X156166666Y-120195238D01*
X156071428Y-120100000D01*
X155928571Y-120052380D01*
X155833333Y-120052380D01*
X155690476Y-120100000D01*
X155642857Y-120147619D01*
X154690476Y-121052380D02*
X155261904Y-121052380D01*
X154976190Y-121052380D02*
X154976190Y-120052380D01*
X155071428Y-120195238D01*
X155166666Y-120290476D01*
X155261904Y-120338095D01*
X154214285Y-121052380D02*
X154023809Y-121052380D01*
X153928571Y-121004761D01*
X153880952Y-120957142D01*
X153785714Y-120814285D01*
X153738095Y-120623809D01*
X153738095Y-120242857D01*
X153785714Y-120147619D01*
X153833333Y-120100000D01*
X153928571Y-120052380D01*
X154119047Y-120052380D01*
X154214285Y-120100000D01*
X154261904Y-120147619D01*
X154309523Y-120242857D01*
X154309523Y-120480952D01*
X154261904Y-120576190D01*
X154214285Y-120623809D01*
X154119047Y-120671428D01*
X153928571Y-120671428D01*
X153833333Y-120623809D01*
X153785714Y-120576190D01*
X153738095Y-120480952D01*
X144242857Y-108757142D02*
X144290476Y-108804761D01*
X144433333Y-108852380D01*
X144528571Y-108852380D01*
X144671428Y-108804761D01*
X144766666Y-108709523D01*
X144814285Y-108614285D01*
X144861904Y-108423809D01*
X144861904Y-108280952D01*
X144814285Y-108090476D01*
X144766666Y-107995238D01*
X144671428Y-107900000D01*
X144528571Y-107852380D01*
X144433333Y-107852380D01*
X144290476Y-107900000D01*
X144242857Y-107947619D01*
X143861904Y-107947619D02*
X143814285Y-107900000D01*
X143719047Y-107852380D01*
X143480952Y-107852380D01*
X143385714Y-107900000D01*
X143338095Y-107947619D01*
X143290476Y-108042857D01*
X143290476Y-108138095D01*
X143338095Y-108280952D01*
X143909523Y-108852380D01*
X143290476Y-108852380D01*
X142671428Y-107852380D02*
X142576190Y-107852380D01*
X142480952Y-107900000D01*
X142433333Y-107947619D01*
X142385714Y-108042857D01*
X142338095Y-108233333D01*
X142338095Y-108471428D01*
X142385714Y-108661904D01*
X142433333Y-108757142D01*
X142480952Y-108804761D01*
X142576190Y-108852380D01*
X142671428Y-108852380D01*
X142766666Y-108804761D01*
X142814285Y-108757142D01*
X142861904Y-108661904D01*
X142909523Y-108471428D01*
X142909523Y-108233333D01*
X142861904Y-108042857D01*
X142814285Y-107947619D01*
X142766666Y-107900000D01*
X142671428Y-107852380D01*
X141842857Y-114779142D02*
X141890476Y-114826761D01*
X142033333Y-114874380D01*
X142128571Y-114874380D01*
X142271428Y-114826761D01*
X142366666Y-114731523D01*
X142414285Y-114636285D01*
X142461904Y-114445809D01*
X142461904Y-114302952D01*
X142414285Y-114112476D01*
X142366666Y-114017238D01*
X142271428Y-113922000D01*
X142128571Y-113874380D01*
X142033333Y-113874380D01*
X141890476Y-113922000D01*
X141842857Y-113969619D01*
X141461904Y-113969619D02*
X141414285Y-113922000D01*
X141319047Y-113874380D01*
X141080952Y-113874380D01*
X140985714Y-113922000D01*
X140938095Y-113969619D01*
X140890476Y-114064857D01*
X140890476Y-114160095D01*
X140938095Y-114302952D01*
X141509523Y-114874380D01*
X140890476Y-114874380D01*
X139938095Y-114874380D02*
X140509523Y-114874380D01*
X140223809Y-114874380D02*
X140223809Y-113874380D01*
X140319047Y-114017238D01*
X140414285Y-114112476D01*
X140509523Y-114160095D01*
X173357142Y-103357142D02*
X173404761Y-103309523D01*
X173452380Y-103166666D01*
X173452380Y-103071428D01*
X173404761Y-102928571D01*
X173309523Y-102833333D01*
X173214285Y-102785714D01*
X173023809Y-102738095D01*
X172880952Y-102738095D01*
X172690476Y-102785714D01*
X172595238Y-102833333D01*
X172500000Y-102928571D01*
X172452380Y-103071428D01*
X172452380Y-103166666D01*
X172500000Y-103309523D01*
X172547619Y-103357142D01*
X172547619Y-103738095D02*
X172500000Y-103785714D01*
X172452380Y-103880952D01*
X172452380Y-104119047D01*
X172500000Y-104214285D01*
X172547619Y-104261904D01*
X172642857Y-104309523D01*
X172738095Y-104309523D01*
X172880952Y-104261904D01*
X173452380Y-103690476D01*
X173452380Y-104309523D01*
X172547619Y-104690476D02*
X172500000Y-104738095D01*
X172452380Y-104833333D01*
X172452380Y-105071428D01*
X172500000Y-105166666D01*
X172547619Y-105214285D01*
X172642857Y-105261904D01*
X172738095Y-105261904D01*
X172880952Y-105214285D01*
X173452380Y-104642857D01*
X173452380Y-105261904D01*
X146727857Y-106357142D02*
X146775476Y-106404761D01*
X146918333Y-106452380D01*
X147013571Y-106452380D01*
X147156428Y-106404761D01*
X147251666Y-106309523D01*
X147299285Y-106214285D01*
X147346904Y-106023809D01*
X147346904Y-105880952D01*
X147299285Y-105690476D01*
X147251666Y-105595238D01*
X147156428Y-105500000D01*
X147013571Y-105452380D01*
X146918333Y-105452380D01*
X146775476Y-105500000D01*
X146727857Y-105547619D01*
X146346904Y-105547619D02*
X146299285Y-105500000D01*
X146204047Y-105452380D01*
X145965952Y-105452380D01*
X145870714Y-105500000D01*
X145823095Y-105547619D01*
X145775476Y-105642857D01*
X145775476Y-105738095D01*
X145823095Y-105880952D01*
X146394523Y-106452380D01*
X145775476Y-106452380D01*
X145442142Y-105452380D02*
X144823095Y-105452380D01*
X145156428Y-105833333D01*
X145013571Y-105833333D01*
X144918333Y-105880952D01*
X144870714Y-105928571D01*
X144823095Y-106023809D01*
X144823095Y-106261904D01*
X144870714Y-106357142D01*
X144918333Y-106404761D01*
X145013571Y-106452380D01*
X145299285Y-106452380D01*
X145394523Y-106404761D01*
X145442142Y-106357142D01*
X151842857Y-97557142D02*
X151890476Y-97604761D01*
X152033333Y-97652380D01*
X152128571Y-97652380D01*
X152271428Y-97604761D01*
X152366666Y-97509523D01*
X152414285Y-97414285D01*
X152461904Y-97223809D01*
X152461904Y-97080952D01*
X152414285Y-96890476D01*
X152366666Y-96795238D01*
X152271428Y-96700000D01*
X152128571Y-96652380D01*
X152033333Y-96652380D01*
X151890476Y-96700000D01*
X151842857Y-96747619D01*
X151461904Y-96747619D02*
X151414285Y-96700000D01*
X151319047Y-96652380D01*
X151080952Y-96652380D01*
X150985714Y-96700000D01*
X150938095Y-96747619D01*
X150890476Y-96842857D01*
X150890476Y-96938095D01*
X150938095Y-97080952D01*
X151509523Y-97652380D01*
X150890476Y-97652380D01*
X150033333Y-96985714D02*
X150033333Y-97652380D01*
X150271428Y-96604761D02*
X150509523Y-97319047D01*
X149890476Y-97319047D01*
X144242857Y-107357142D02*
X144290476Y-107404761D01*
X144433333Y-107452380D01*
X144528571Y-107452380D01*
X144671428Y-107404761D01*
X144766666Y-107309523D01*
X144814285Y-107214285D01*
X144861904Y-107023809D01*
X144861904Y-106880952D01*
X144814285Y-106690476D01*
X144766666Y-106595238D01*
X144671428Y-106500000D01*
X144528571Y-106452380D01*
X144433333Y-106452380D01*
X144290476Y-106500000D01*
X144242857Y-106547619D01*
X143861904Y-106547619D02*
X143814285Y-106500000D01*
X143719047Y-106452380D01*
X143480952Y-106452380D01*
X143385714Y-106500000D01*
X143338095Y-106547619D01*
X143290476Y-106642857D01*
X143290476Y-106738095D01*
X143338095Y-106880952D01*
X143909523Y-107452380D01*
X143290476Y-107452380D01*
X142385714Y-106452380D02*
X142861904Y-106452380D01*
X142909523Y-106928571D01*
X142861904Y-106880952D01*
X142766666Y-106833333D01*
X142528571Y-106833333D01*
X142433333Y-106880952D01*
X142385714Y-106928571D01*
X142338095Y-107023809D01*
X142338095Y-107261904D01*
X142385714Y-107357142D01*
X142433333Y-107404761D01*
X142528571Y-107452380D01*
X142766666Y-107452380D01*
X142861904Y-107404761D01*
X142909523Y-107357142D01*
X110142857Y-109357142D02*
X110190476Y-109404761D01*
X110333333Y-109452380D01*
X110428571Y-109452380D01*
X110571428Y-109404761D01*
X110666666Y-109309523D01*
X110714285Y-109214285D01*
X110761904Y-109023809D01*
X110761904Y-108880952D01*
X110714285Y-108690476D01*
X110666666Y-108595238D01*
X110571428Y-108500000D01*
X110428571Y-108452380D01*
X110333333Y-108452380D01*
X110190476Y-108500000D01*
X110142857Y-108547619D01*
X109761904Y-108547619D02*
X109714285Y-108500000D01*
X109619047Y-108452380D01*
X109380952Y-108452380D01*
X109285714Y-108500000D01*
X109238095Y-108547619D01*
X109190476Y-108642857D01*
X109190476Y-108738095D01*
X109238095Y-108880952D01*
X109809523Y-109452380D01*
X109190476Y-109452380D01*
X108333333Y-108452380D02*
X108523809Y-108452380D01*
X108619047Y-108500000D01*
X108666666Y-108547619D01*
X108761904Y-108690476D01*
X108809523Y-108880952D01*
X108809523Y-109261904D01*
X108761904Y-109357142D01*
X108714285Y-109404761D01*
X108619047Y-109452380D01*
X108428571Y-109452380D01*
X108333333Y-109404761D01*
X108285714Y-109357142D01*
X108238095Y-109261904D01*
X108238095Y-109023809D01*
X108285714Y-108928571D01*
X108333333Y-108880952D01*
X108428571Y-108833333D01*
X108619047Y-108833333D01*
X108714285Y-108880952D01*
X108761904Y-108928571D01*
X108809523Y-109023809D01*
X168042857Y-104557142D02*
X168090476Y-104604761D01*
X168233333Y-104652380D01*
X168328571Y-104652380D01*
X168471428Y-104604761D01*
X168566666Y-104509523D01*
X168614285Y-104414285D01*
X168661904Y-104223809D01*
X168661904Y-104080952D01*
X168614285Y-103890476D01*
X168566666Y-103795238D01*
X168471428Y-103700000D01*
X168328571Y-103652380D01*
X168233333Y-103652380D01*
X168090476Y-103700000D01*
X168042857Y-103747619D01*
X167661904Y-103747619D02*
X167614285Y-103700000D01*
X167519047Y-103652380D01*
X167280952Y-103652380D01*
X167185714Y-103700000D01*
X167138095Y-103747619D01*
X167090476Y-103842857D01*
X167090476Y-103938095D01*
X167138095Y-104080952D01*
X167709523Y-104652380D01*
X167090476Y-104652380D01*
X166519047Y-104080952D02*
X166614285Y-104033333D01*
X166661904Y-103985714D01*
X166709523Y-103890476D01*
X166709523Y-103842857D01*
X166661904Y-103747619D01*
X166614285Y-103700000D01*
X166519047Y-103652380D01*
X166328571Y-103652380D01*
X166233333Y-103700000D01*
X166185714Y-103747619D01*
X166138095Y-103842857D01*
X166138095Y-103890476D01*
X166185714Y-103985714D01*
X166233333Y-104033333D01*
X166328571Y-104080952D01*
X166519047Y-104080952D01*
X166614285Y-104128571D01*
X166661904Y-104176190D01*
X166709523Y-104271428D01*
X166709523Y-104461904D01*
X166661904Y-104557142D01*
X166614285Y-104604761D01*
X166519047Y-104652380D01*
X166328571Y-104652380D01*
X166233333Y-104604761D01*
X166185714Y-104557142D01*
X166138095Y-104461904D01*
X166138095Y-104271428D01*
X166185714Y-104176190D01*
X166233333Y-104128571D01*
X166328571Y-104080952D01*
X172138095Y-93452380D02*
X172138095Y-92452380D01*
X171900000Y-92452380D01*
X171757142Y-92500000D01*
X171661904Y-92595238D01*
X171614285Y-92690476D01*
X171566666Y-92880952D01*
X171566666Y-93023809D01*
X171614285Y-93214285D01*
X171661904Y-93309523D01*
X171757142Y-93404761D01*
X171900000Y-93452380D01*
X172138095Y-93452380D01*
X170709523Y-92452380D02*
X170900000Y-92452380D01*
X170995238Y-92500000D01*
X171042857Y-92547619D01*
X171138095Y-92690476D01*
X171185714Y-92880952D01*
X171185714Y-93261904D01*
X171138095Y-93357142D01*
X171090476Y-93404761D01*
X170995238Y-93452380D01*
X170804761Y-93452380D01*
X170709523Y-93404761D01*
X170661904Y-93357142D01*
X170614285Y-93261904D01*
X170614285Y-93023809D01*
X170661904Y-92928571D01*
X170709523Y-92880952D01*
X170804761Y-92833333D01*
X170995238Y-92833333D01*
X171090476Y-92880952D01*
X171138095Y-92928571D01*
X171185714Y-93023809D01*
X144738095Y-93452380D02*
X144738095Y-92452380D01*
X144500000Y-92452380D01*
X144357142Y-92500000D01*
X144261904Y-92595238D01*
X144214285Y-92690476D01*
X144166666Y-92880952D01*
X144166666Y-93023809D01*
X144214285Y-93214285D01*
X144261904Y-93309523D01*
X144357142Y-93404761D01*
X144500000Y-93452380D01*
X144738095Y-93452380D01*
X143833333Y-92452380D02*
X143166666Y-92452380D01*
X143595238Y-93452380D01*
X106276190Y-98652380D02*
X106276190Y-97652380D01*
X105228571Y-98557142D02*
X105276190Y-98604761D01*
X105419047Y-98652380D01*
X105514285Y-98652380D01*
X105657142Y-98604761D01*
X105752380Y-98509523D01*
X105800000Y-98414285D01*
X105847619Y-98223809D01*
X105847619Y-98080952D01*
X105800000Y-97890476D01*
X105752380Y-97795238D01*
X105657142Y-97700000D01*
X105514285Y-97652380D01*
X105419047Y-97652380D01*
X105276190Y-97700000D01*
X105228571Y-97747619D01*
X104276190Y-98652380D02*
X104847619Y-98652380D01*
X104561904Y-98652380D02*
X104561904Y-97652380D01*
X104657142Y-97795238D01*
X104752380Y-97890476D01*
X104847619Y-97938095D01*
X170533333Y-102452380D02*
X170533333Y-103166666D01*
X170580952Y-103309523D01*
X170676190Y-103404761D01*
X170819047Y-103452380D01*
X170914285Y-103452380D01*
X169628571Y-102785714D02*
X169628571Y-103452380D01*
X169866666Y-102404761D02*
X170104761Y-103119047D01*
X169485714Y-103119047D01*
X146333333Y-102452380D02*
X146333333Y-103166666D01*
X146380952Y-103309523D01*
X146476190Y-103404761D01*
X146619047Y-103452380D01*
X146714285Y-103452380D01*
X145380952Y-102452380D02*
X145857142Y-102452380D01*
X145904761Y-102928571D01*
X145857142Y-102880952D01*
X145761904Y-102833333D01*
X145523809Y-102833333D01*
X145428571Y-102880952D01*
X145380952Y-102928571D01*
X145333333Y-103023809D01*
X145333333Y-103261904D01*
X145380952Y-103357142D01*
X145428571Y-103404761D01*
X145523809Y-103452380D01*
X145761904Y-103452380D01*
X145857142Y-103404761D01*
X145904761Y-103357142D01*
X138433333Y-115852380D02*
X138433333Y-116566666D01*
X138480952Y-116709523D01*
X138576190Y-116804761D01*
X138719047Y-116852380D01*
X138814285Y-116852380D01*
X137528571Y-115852380D02*
X137719047Y-115852380D01*
X137814285Y-115900000D01*
X137861904Y-115947619D01*
X137957142Y-116090476D01*
X138004761Y-116280952D01*
X138004761Y-116661904D01*
X137957142Y-116757142D01*
X137909523Y-116804761D01*
X137814285Y-116852380D01*
X137623809Y-116852380D01*
X137528571Y-116804761D01*
X137480952Y-116757142D01*
X137433333Y-116661904D01*
X137433333Y-116423809D01*
X137480952Y-116328571D01*
X137528571Y-116280952D01*
X137623809Y-116233333D01*
X137814285Y-116233333D01*
X137909523Y-116280952D01*
X137957142Y-116328571D01*
X138004761Y-116423809D01*
X105833333Y-95452380D02*
X105833333Y-96166666D01*
X105880952Y-96309523D01*
X105976190Y-96404761D01*
X106119047Y-96452380D01*
X106214285Y-96452380D01*
X105452380Y-95452380D02*
X104785714Y-95452380D01*
X105214285Y-96452380D01*
X106166666Y-130552380D02*
X106642857Y-130552380D01*
X106642857Y-129552380D01*
X105309523Y-130552380D02*
X105880952Y-130552380D01*
X105595238Y-130552380D02*
X105595238Y-129552380D01*
X105690476Y-129695238D01*
X105785714Y-129790476D01*
X105880952Y-129838095D01*
X165295238Y-125347619D02*
X165390476Y-125300000D01*
X165485714Y-125204761D01*
X165628571Y-125061904D01*
X165723809Y-125014285D01*
X165819047Y-125014285D01*
X165771428Y-125252380D02*
X165866666Y-125204761D01*
X165961904Y-125109523D01*
X166009523Y-124919047D01*
X166009523Y-124585714D01*
X165961904Y-124395238D01*
X165866666Y-124300000D01*
X165771428Y-124252380D01*
X165580952Y-124252380D01*
X165485714Y-124300000D01*
X165390476Y-124395238D01*
X165342857Y-124585714D01*
X165342857Y-124919047D01*
X165390476Y-125109523D01*
X165485714Y-125204761D01*
X165580952Y-125252380D01*
X165771428Y-125252380D01*
X164390476Y-125252380D02*
X164961904Y-125252380D01*
X164676190Y-125252380D02*
X164676190Y-124252380D01*
X164771428Y-124395238D01*
X164866666Y-124490476D01*
X164961904Y-124538095D01*
X158495238Y-125347619D02*
X158590476Y-125300000D01*
X158685714Y-125204761D01*
X158828571Y-125061904D01*
X158923809Y-125014285D01*
X159019047Y-125014285D01*
X158971428Y-125252380D02*
X159066666Y-125204761D01*
X159161904Y-125109523D01*
X159209523Y-124919047D01*
X159209523Y-124585714D01*
X159161904Y-124395238D01*
X159066666Y-124300000D01*
X158971428Y-124252380D01*
X158780952Y-124252380D01*
X158685714Y-124300000D01*
X158590476Y-124395238D01*
X158542857Y-124585714D01*
X158542857Y-124919047D01*
X158590476Y-125109523D01*
X158685714Y-125204761D01*
X158780952Y-125252380D01*
X158971428Y-125252380D01*
X158209523Y-124252380D02*
X157590476Y-124252380D01*
X157923809Y-124633333D01*
X157780952Y-124633333D01*
X157685714Y-124680952D01*
X157638095Y-124728571D01*
X157590476Y-124823809D01*
X157590476Y-125061904D01*
X157638095Y-125157142D01*
X157685714Y-125204761D01*
X157780952Y-125252380D01*
X158066666Y-125252380D01*
X158161904Y-125204761D01*
X158209523Y-125157142D01*
X151895238Y-125347619D02*
X151990476Y-125300000D01*
X152085714Y-125204761D01*
X152228571Y-125061904D01*
X152323809Y-125014285D01*
X152419047Y-125014285D01*
X152371428Y-125252380D02*
X152466666Y-125204761D01*
X152561904Y-125109523D01*
X152609523Y-124919047D01*
X152609523Y-124585714D01*
X152561904Y-124395238D01*
X152466666Y-124300000D01*
X152371428Y-124252380D01*
X152180952Y-124252380D01*
X152085714Y-124300000D01*
X151990476Y-124395238D01*
X151942857Y-124585714D01*
X151942857Y-124919047D01*
X151990476Y-125109523D01*
X152085714Y-125204761D01*
X152180952Y-125252380D01*
X152371428Y-125252380D01*
X151038095Y-124252380D02*
X151514285Y-124252380D01*
X151561904Y-124728571D01*
X151514285Y-124680952D01*
X151419047Y-124633333D01*
X151180952Y-124633333D01*
X151085714Y-124680952D01*
X151038095Y-124728571D01*
X150990476Y-124823809D01*
X150990476Y-125061904D01*
X151038095Y-125157142D01*
X151085714Y-125204761D01*
X151180952Y-125252380D01*
X151419047Y-125252380D01*
X151514285Y-125204761D01*
X151561904Y-125157142D01*
X145295238Y-125347619D02*
X145390476Y-125300000D01*
X145485714Y-125204761D01*
X145628571Y-125061904D01*
X145723809Y-125014285D01*
X145819047Y-125014285D01*
X145771428Y-125252380D02*
X145866666Y-125204761D01*
X145961904Y-125109523D01*
X146009523Y-124919047D01*
X146009523Y-124585714D01*
X145961904Y-124395238D01*
X145866666Y-124300000D01*
X145771428Y-124252380D01*
X145580952Y-124252380D01*
X145485714Y-124300000D01*
X145390476Y-124395238D01*
X145342857Y-124585714D01*
X145342857Y-124919047D01*
X145390476Y-125109523D01*
X145485714Y-125204761D01*
X145580952Y-125252380D01*
X145771428Y-125252380D01*
X145009523Y-124252380D02*
X144342857Y-124252380D01*
X144771428Y-125252380D01*
X110166666Y-115952380D02*
X110500000Y-115476190D01*
X110738095Y-115952380D02*
X110738095Y-114952380D01*
X110357142Y-114952380D01*
X110261904Y-115000000D01*
X110214285Y-115047619D01*
X110166666Y-115142857D01*
X110166666Y-115285714D01*
X110214285Y-115380952D01*
X110261904Y-115428571D01*
X110357142Y-115476190D01*
X110738095Y-115476190D01*
X109214285Y-115952380D02*
X109785714Y-115952380D01*
X109500000Y-115952380D02*
X109500000Y-114952380D01*
X109595238Y-115095238D01*
X109690476Y-115190476D01*
X109785714Y-115238095D01*
X105166666Y-112022380D02*
X105500000Y-111546190D01*
X105738095Y-112022380D02*
X105738095Y-111022380D01*
X105357142Y-111022380D01*
X105261904Y-111070000D01*
X105214285Y-111117619D01*
X105166666Y-111212857D01*
X105166666Y-111355714D01*
X105214285Y-111450952D01*
X105261904Y-111498571D01*
X105357142Y-111546190D01*
X105738095Y-111546190D01*
X104785714Y-111117619D02*
X104738095Y-111070000D01*
X104642857Y-111022380D01*
X104404761Y-111022380D01*
X104309523Y-111070000D01*
X104261904Y-111117619D01*
X104214285Y-111212857D01*
X104214285Y-111308095D01*
X104261904Y-111450952D01*
X104833333Y-112022380D01*
X104214285Y-112022380D01*
X105166666Y-116882380D02*
X105500000Y-116406190D01*
X105738095Y-116882380D02*
X105738095Y-115882380D01*
X105357142Y-115882380D01*
X105261904Y-115930000D01*
X105214285Y-115977619D01*
X105166666Y-116072857D01*
X105166666Y-116215714D01*
X105214285Y-116310952D01*
X105261904Y-116358571D01*
X105357142Y-116406190D01*
X105738095Y-116406190D01*
X104833333Y-115882380D02*
X104214285Y-115882380D01*
X104547619Y-116263333D01*
X104404761Y-116263333D01*
X104309523Y-116310952D01*
X104261904Y-116358571D01*
X104214285Y-116453809D01*
X104214285Y-116691904D01*
X104261904Y-116787142D01*
X104309523Y-116834761D01*
X104404761Y-116882380D01*
X104690476Y-116882380D01*
X104785714Y-116834761D01*
X104833333Y-116787142D01*
X164497969Y-114137732D02*
X165070389Y-114036717D01*
X164902030Y-114541793D02*
X165609137Y-113834687D01*
X165339763Y-113565312D01*
X165238748Y-113531641D01*
X165171404Y-113531641D01*
X165070389Y-113565312D01*
X164969374Y-113666328D01*
X164935702Y-113767343D01*
X164935702Y-113834687D01*
X164969374Y-113935702D01*
X165238748Y-114205076D01*
X164363282Y-113060236D02*
X163891877Y-113531641D01*
X164801015Y-112959221D02*
X164464297Y-113632656D01*
X164026564Y-113194923D01*
X160766666Y-120852380D02*
X161100000Y-120376190D01*
X161338095Y-120852380D02*
X161338095Y-119852380D01*
X160957142Y-119852380D01*
X160861904Y-119900000D01*
X160814285Y-119947619D01*
X160766666Y-120042857D01*
X160766666Y-120185714D01*
X160814285Y-120280952D01*
X160861904Y-120328571D01*
X160957142Y-120376190D01*
X161338095Y-120376190D01*
X159861904Y-119852380D02*
X160338095Y-119852380D01*
X160385714Y-120328571D01*
X160338095Y-120280952D01*
X160242857Y-120233333D01*
X160004761Y-120233333D01*
X159909523Y-120280952D01*
X159861904Y-120328571D01*
X159814285Y-120423809D01*
X159814285Y-120661904D01*
X159861904Y-120757142D01*
X159909523Y-120804761D01*
X160004761Y-120852380D01*
X160242857Y-120852380D01*
X160338095Y-120804761D01*
X160385714Y-120757142D01*
X165666666Y-122452380D02*
X166000000Y-121976190D01*
X166238095Y-122452380D02*
X166238095Y-121452380D01*
X165857142Y-121452380D01*
X165761904Y-121500000D01*
X165714285Y-121547619D01*
X165666666Y-121642857D01*
X165666666Y-121785714D01*
X165714285Y-121880952D01*
X165761904Y-121928571D01*
X165857142Y-121976190D01*
X166238095Y-121976190D01*
X164809523Y-121452380D02*
X165000000Y-121452380D01*
X165095238Y-121500000D01*
X165142857Y-121547619D01*
X165238095Y-121690476D01*
X165285714Y-121880952D01*
X165285714Y-122261904D01*
X165238095Y-122357142D01*
X165190476Y-122404761D01*
X165095238Y-122452380D01*
X164904761Y-122452380D01*
X164809523Y-122404761D01*
X164761904Y-122357142D01*
X164714285Y-122261904D01*
X164714285Y-122023809D01*
X164761904Y-121928571D01*
X164809523Y-121880952D01*
X164904761Y-121833333D01*
X165095238Y-121833333D01*
X165190476Y-121880952D01*
X165238095Y-121928571D01*
X165285714Y-122023809D01*
X176652380Y-130233333D02*
X176176190Y-129900000D01*
X176652380Y-129661904D02*
X175652380Y-129661904D01*
X175652380Y-130042857D01*
X175700000Y-130138095D01*
X175747619Y-130185714D01*
X175842857Y-130233333D01*
X175985714Y-130233333D01*
X176080952Y-130185714D01*
X176128571Y-130138095D01*
X176176190Y-130042857D01*
X176176190Y-129661904D01*
X175652380Y-130566666D02*
X175652380Y-131233333D01*
X176652380Y-130804761D01*
X158766666Y-123452380D02*
X159100000Y-122976190D01*
X159338095Y-123452380D02*
X159338095Y-122452380D01*
X158957142Y-122452380D01*
X158861904Y-122500000D01*
X158814285Y-122547619D01*
X158766666Y-122642857D01*
X158766666Y-122785714D01*
X158814285Y-122880952D01*
X158861904Y-122928571D01*
X158957142Y-122976190D01*
X159338095Y-122976190D01*
X158195238Y-122880952D02*
X158290476Y-122833333D01*
X158338095Y-122785714D01*
X158385714Y-122690476D01*
X158385714Y-122642857D01*
X158338095Y-122547619D01*
X158290476Y-122500000D01*
X158195238Y-122452380D01*
X158004761Y-122452380D01*
X157909523Y-122500000D01*
X157861904Y-122547619D01*
X157814285Y-122642857D01*
X157814285Y-122690476D01*
X157861904Y-122785714D01*
X157909523Y-122833333D01*
X158004761Y-122880952D01*
X158195238Y-122880952D01*
X158290476Y-122928571D01*
X158338095Y-122976190D01*
X158385714Y-123071428D01*
X158385714Y-123261904D01*
X158338095Y-123357142D01*
X158290476Y-123404761D01*
X158195238Y-123452380D01*
X158004761Y-123452380D01*
X157909523Y-123404761D01*
X157861904Y-123357142D01*
X157814285Y-123261904D01*
X157814285Y-123071428D01*
X157861904Y-122976190D01*
X157909523Y-122928571D01*
X158004761Y-122880952D01*
X164166666Y-138952380D02*
X164500000Y-138476190D01*
X164738095Y-138952380D02*
X164738095Y-137952380D01*
X164357142Y-137952380D01*
X164261904Y-138000000D01*
X164214285Y-138047619D01*
X164166666Y-138142857D01*
X164166666Y-138285714D01*
X164214285Y-138380952D01*
X164261904Y-138428571D01*
X164357142Y-138476190D01*
X164738095Y-138476190D01*
X163690476Y-138952380D02*
X163500000Y-138952380D01*
X163404761Y-138904761D01*
X163357142Y-138857142D01*
X163261904Y-138714285D01*
X163214285Y-138523809D01*
X163214285Y-138142857D01*
X163261904Y-138047619D01*
X163309523Y-138000000D01*
X163404761Y-137952380D01*
X163595238Y-137952380D01*
X163690476Y-138000000D01*
X163738095Y-138047619D01*
X163785714Y-138142857D01*
X163785714Y-138380952D01*
X163738095Y-138476190D01*
X163690476Y-138523809D01*
X163595238Y-138571428D01*
X163404761Y-138571428D01*
X163309523Y-138523809D01*
X163261904Y-138476190D01*
X163214285Y-138380952D01*
X152442857Y-122452380D02*
X152776190Y-121976190D01*
X153014285Y-122452380D02*
X153014285Y-121452380D01*
X152633333Y-121452380D01*
X152538095Y-121500000D01*
X152490476Y-121547619D01*
X152442857Y-121642857D01*
X152442857Y-121785714D01*
X152490476Y-121880952D01*
X152538095Y-121928571D01*
X152633333Y-121976190D01*
X153014285Y-121976190D01*
X151490476Y-122452380D02*
X152061904Y-122452380D01*
X151776190Y-122452380D02*
X151776190Y-121452380D01*
X151871428Y-121595238D01*
X151966666Y-121690476D01*
X152061904Y-121738095D01*
X150871428Y-121452380D02*
X150776190Y-121452380D01*
X150680952Y-121500000D01*
X150633333Y-121547619D01*
X150585714Y-121642857D01*
X150538095Y-121833333D01*
X150538095Y-122071428D01*
X150585714Y-122261904D01*
X150633333Y-122357142D01*
X150680952Y-122404761D01*
X150776190Y-122452380D01*
X150871428Y-122452380D01*
X150966666Y-122404761D01*
X151014285Y-122357142D01*
X151061904Y-122261904D01*
X151109523Y-122071428D01*
X151109523Y-121833333D01*
X151061904Y-121642857D01*
X151014285Y-121547619D01*
X150966666Y-121500000D01*
X150871428Y-121452380D01*
X152142857Y-138952380D02*
X152476190Y-138476190D01*
X152714285Y-138952380D02*
X152714285Y-137952380D01*
X152333333Y-137952380D01*
X152238095Y-138000000D01*
X152190476Y-138047619D01*
X152142857Y-138142857D01*
X152142857Y-138285714D01*
X152190476Y-138380952D01*
X152238095Y-138428571D01*
X152333333Y-138476190D01*
X152714285Y-138476190D01*
X151190476Y-138952380D02*
X151761904Y-138952380D01*
X151476190Y-138952380D02*
X151476190Y-137952380D01*
X151571428Y-138095238D01*
X151666666Y-138190476D01*
X151761904Y-138238095D01*
X150238095Y-138952380D02*
X150809523Y-138952380D01*
X150523809Y-138952380D02*
X150523809Y-137952380D01*
X150619047Y-138095238D01*
X150714285Y-138190476D01*
X150809523Y-138238095D01*
X145842857Y-122452380D02*
X146176190Y-121976190D01*
X146414285Y-122452380D02*
X146414285Y-121452380D01*
X146033333Y-121452380D01*
X145938095Y-121500000D01*
X145890476Y-121547619D01*
X145842857Y-121642857D01*
X145842857Y-121785714D01*
X145890476Y-121880952D01*
X145938095Y-121928571D01*
X146033333Y-121976190D01*
X146414285Y-121976190D01*
X144890476Y-122452380D02*
X145461904Y-122452380D01*
X145176190Y-122452380D02*
X145176190Y-121452380D01*
X145271428Y-121595238D01*
X145366666Y-121690476D01*
X145461904Y-121738095D01*
X144509523Y-121547619D02*
X144461904Y-121500000D01*
X144366666Y-121452380D01*
X144128571Y-121452380D01*
X144033333Y-121500000D01*
X143985714Y-121547619D01*
X143938095Y-121642857D01*
X143938095Y-121738095D01*
X143985714Y-121880952D01*
X144557142Y-122452380D01*
X143938095Y-122452380D01*
X140652380Y-130257142D02*
X140176190Y-129923809D01*
X140652380Y-129685714D02*
X139652380Y-129685714D01*
X139652380Y-130066666D01*
X139700000Y-130161904D01*
X139747619Y-130209523D01*
X139842857Y-130257142D01*
X139985714Y-130257142D01*
X140080952Y-130209523D01*
X140128571Y-130161904D01*
X140176190Y-130066666D01*
X140176190Y-129685714D01*
X140652380Y-131209523D02*
X140652380Y-130638095D01*
X140652380Y-130923809D02*
X139652380Y-130923809D01*
X139795238Y-130828571D01*
X139890476Y-130733333D01*
X139938095Y-130638095D01*
X139652380Y-131542857D02*
X139652380Y-132161904D01*
X140033333Y-131828571D01*
X140033333Y-131971428D01*
X140080952Y-132066666D01*
X140128571Y-132114285D01*
X140223809Y-132161904D01*
X140461904Y-132161904D01*
X140557142Y-132114285D01*
X140604761Y-132066666D01*
X140652380Y-131971428D01*
X140652380Y-131685714D01*
X140604761Y-131590476D01*
X140557142Y-131542857D01*
X139042857Y-107252380D02*
X139376190Y-106776190D01*
X139614285Y-107252380D02*
X139614285Y-106252380D01*
X139233333Y-106252380D01*
X139138095Y-106300000D01*
X139090476Y-106347619D01*
X139042857Y-106442857D01*
X139042857Y-106585714D01*
X139090476Y-106680952D01*
X139138095Y-106728571D01*
X139233333Y-106776190D01*
X139614285Y-106776190D01*
X138090476Y-107252380D02*
X138661904Y-107252380D01*
X138376190Y-107252380D02*
X138376190Y-106252380D01*
X138471428Y-106395238D01*
X138566666Y-106490476D01*
X138661904Y-106538095D01*
X137233333Y-106585714D02*
X137233333Y-107252380D01*
X137471428Y-106204761D02*
X137709523Y-106919047D01*
X137090476Y-106919047D01*
X168942857Y-93452380D02*
X169276190Y-92976190D01*
X169514285Y-93452380D02*
X169514285Y-92452380D01*
X169133333Y-92452380D01*
X169038095Y-92500000D01*
X168990476Y-92547619D01*
X168942857Y-92642857D01*
X168942857Y-92785714D01*
X168990476Y-92880952D01*
X169038095Y-92928571D01*
X169133333Y-92976190D01*
X169514285Y-92976190D01*
X167990476Y-93452380D02*
X168561904Y-93452380D01*
X168276190Y-93452380D02*
X168276190Y-92452380D01*
X168371428Y-92595238D01*
X168466666Y-92690476D01*
X168561904Y-92738095D01*
X167085714Y-92452380D02*
X167561904Y-92452380D01*
X167609523Y-92928571D01*
X167561904Y-92880952D01*
X167466666Y-92833333D01*
X167228571Y-92833333D01*
X167133333Y-92880952D01*
X167085714Y-92928571D01*
X167038095Y-93023809D01*
X167038095Y-93261904D01*
X167085714Y-93357142D01*
X167133333Y-93404761D01*
X167228571Y-93452380D01*
X167466666Y-93452380D01*
X167561904Y-93404761D01*
X167609523Y-93357142D01*
X148342857Y-93452380D02*
X148676190Y-92976190D01*
X148914285Y-93452380D02*
X148914285Y-92452380D01*
X148533333Y-92452380D01*
X148438095Y-92500000D01*
X148390476Y-92547619D01*
X148342857Y-92642857D01*
X148342857Y-92785714D01*
X148390476Y-92880952D01*
X148438095Y-92928571D01*
X148533333Y-92976190D01*
X148914285Y-92976190D01*
X147390476Y-93452380D02*
X147961904Y-93452380D01*
X147676190Y-93452380D02*
X147676190Y-92452380D01*
X147771428Y-92595238D01*
X147866666Y-92690476D01*
X147961904Y-92738095D01*
X146533333Y-92452380D02*
X146723809Y-92452380D01*
X146819047Y-92500000D01*
X146866666Y-92547619D01*
X146961904Y-92690476D01*
X147009523Y-92880952D01*
X147009523Y-93261904D01*
X146961904Y-93357142D01*
X146914285Y-93404761D01*
X146819047Y-93452380D01*
X146628571Y-93452380D01*
X146533333Y-93404761D01*
X146485714Y-93357142D01*
X146438095Y-93261904D01*
X146438095Y-93023809D01*
X146485714Y-92928571D01*
X146533333Y-92880952D01*
X146628571Y-92833333D01*
X146819047Y-92833333D01*
X146914285Y-92880952D01*
X146961904Y-92928571D01*
X147009523Y-93023809D01*
X116142857Y-113452380D02*
X116476190Y-112976190D01*
X116714285Y-113452380D02*
X116714285Y-112452380D01*
X116333333Y-112452380D01*
X116238095Y-112500000D01*
X116190476Y-112547619D01*
X116142857Y-112642857D01*
X116142857Y-112785714D01*
X116190476Y-112880952D01*
X116238095Y-112928571D01*
X116333333Y-112976190D01*
X116714285Y-112976190D01*
X115190476Y-113452380D02*
X115761904Y-113452380D01*
X115476190Y-113452380D02*
X115476190Y-112452380D01*
X115571428Y-112595238D01*
X115666666Y-112690476D01*
X115761904Y-112738095D01*
X114857142Y-112452380D02*
X114190476Y-112452380D01*
X114619047Y-113452380D01*
X152842857Y-109972380D02*
X153176190Y-109496190D01*
X153414285Y-109972380D02*
X153414285Y-108972380D01*
X153033333Y-108972380D01*
X152938095Y-109020000D01*
X152890476Y-109067619D01*
X152842857Y-109162857D01*
X152842857Y-109305714D01*
X152890476Y-109400952D01*
X152938095Y-109448571D01*
X153033333Y-109496190D01*
X153414285Y-109496190D01*
X151890476Y-109972380D02*
X152461904Y-109972380D01*
X152176190Y-109972380D02*
X152176190Y-108972380D01*
X152271428Y-109115238D01*
X152366666Y-109210476D01*
X152461904Y-109258095D01*
X151319047Y-109400952D02*
X151414285Y-109353333D01*
X151461904Y-109305714D01*
X151509523Y-109210476D01*
X151509523Y-109162857D01*
X151461904Y-109067619D01*
X151414285Y-109020000D01*
X151319047Y-108972380D01*
X151128571Y-108972380D01*
X151033333Y-109020000D01*
X150985714Y-109067619D01*
X150938095Y-109162857D01*
X150938095Y-109210476D01*
X150985714Y-109305714D01*
X151033333Y-109353333D01*
X151128571Y-109400952D01*
X151319047Y-109400952D01*
X151414285Y-109448571D01*
X151461904Y-109496190D01*
X151509523Y-109591428D01*
X151509523Y-109781904D01*
X151461904Y-109877142D01*
X151414285Y-109924761D01*
X151319047Y-109972380D01*
X151128571Y-109972380D01*
X151033333Y-109924761D01*
X150985714Y-109877142D01*
X150938095Y-109781904D01*
X150938095Y-109591428D01*
X150985714Y-109496190D01*
X151033333Y-109448571D01*
X151128571Y-109400952D01*
X110642857Y-111022380D02*
X110976190Y-110546190D01*
X111214285Y-111022380D02*
X111214285Y-110022380D01*
X110833333Y-110022380D01*
X110738095Y-110070000D01*
X110690476Y-110117619D01*
X110642857Y-110212857D01*
X110642857Y-110355714D01*
X110690476Y-110450952D01*
X110738095Y-110498571D01*
X110833333Y-110546190D01*
X111214285Y-110546190D01*
X109690476Y-111022380D02*
X110261904Y-111022380D01*
X109976190Y-111022380D02*
X109976190Y-110022380D01*
X110071428Y-110165238D01*
X110166666Y-110260476D01*
X110261904Y-110308095D01*
X109214285Y-111022380D02*
X109023809Y-111022380D01*
X108928571Y-110974761D01*
X108880952Y-110927142D01*
X108785714Y-110784285D01*
X108738095Y-110593809D01*
X108738095Y-110212857D01*
X108785714Y-110117619D01*
X108833333Y-110070000D01*
X108928571Y-110022380D01*
X109119047Y-110022380D01*
X109214285Y-110070000D01*
X109261904Y-110117619D01*
X109309523Y-110212857D01*
X109309523Y-110450952D01*
X109261904Y-110546190D01*
X109214285Y-110593809D01*
X109119047Y-110641428D01*
X108928571Y-110641428D01*
X108833333Y-110593809D01*
X108785714Y-110546190D01*
X108738095Y-110450952D01*
X120747619Y-117142857D02*
X121223809Y-117476190D01*
X120747619Y-117714285D02*
X121747619Y-117714285D01*
X121747619Y-117333333D01*
X121700000Y-117238095D01*
X121652380Y-117190476D01*
X121557142Y-117142857D01*
X121414285Y-117142857D01*
X121319047Y-117190476D01*
X121271428Y-117238095D01*
X121223809Y-117333333D01*
X121223809Y-117714285D01*
X121652380Y-116761904D02*
X121700000Y-116714285D01*
X121747619Y-116619047D01*
X121747619Y-116380952D01*
X121700000Y-116285714D01*
X121652380Y-116238095D01*
X121557142Y-116190476D01*
X121461904Y-116190476D01*
X121319047Y-116238095D01*
X120747619Y-116809523D01*
X120747619Y-116190476D01*
X121747619Y-115571428D02*
X121747619Y-115476190D01*
X121700000Y-115380952D01*
X121652380Y-115333333D01*
X121557142Y-115285714D01*
X121366666Y-115238095D01*
X121128571Y-115238095D01*
X120938095Y-115285714D01*
X120842857Y-115333333D01*
X120795238Y-115380952D01*
X120747619Y-115476190D01*
X120747619Y-115571428D01*
X120795238Y-115666666D01*
X120842857Y-115714285D01*
X120938095Y-115761904D01*
X121128571Y-115809523D01*
X121366666Y-115809523D01*
X121557142Y-115761904D01*
X121652380Y-115714285D01*
X121700000Y-115666666D01*
X121747619Y-115571428D01*
X120733333Y-133904761D02*
X120590476Y-133952380D01*
X120352380Y-133952380D01*
X120257142Y-133904761D01*
X120209523Y-133857142D01*
X120161904Y-133761904D01*
X120161904Y-133666666D01*
X120209523Y-133571428D01*
X120257142Y-133523809D01*
X120352380Y-133476190D01*
X120542857Y-133428571D01*
X120638095Y-133380952D01*
X120685714Y-133333333D01*
X120733333Y-133238095D01*
X120733333Y-133142857D01*
X120685714Y-133047619D01*
X120638095Y-133000000D01*
X120542857Y-132952380D01*
X120304761Y-132952380D01*
X120161904Y-133000000D01*
X119828571Y-132952380D02*
X119590476Y-133952380D01*
X119400000Y-133238095D01*
X119209523Y-133952380D01*
X118971428Y-132952380D01*
X118066666Y-133952380D02*
X118638095Y-133952380D01*
X118352380Y-133952380D02*
X118352380Y-132952380D01*
X118447619Y-133095238D01*
X118542857Y-133190476D01*
X118638095Y-133238095D01*
X142604761Y-99916666D02*
X142652380Y-100059523D01*
X142652380Y-100297619D01*
X142604761Y-100392857D01*
X142557142Y-100440476D01*
X142461904Y-100488095D01*
X142366666Y-100488095D01*
X142271428Y-100440476D01*
X142223809Y-100392857D01*
X142176190Y-100297619D01*
X142128571Y-100107142D01*
X142080952Y-100011904D01*
X142033333Y-99964285D01*
X141938095Y-99916666D01*
X141842857Y-99916666D01*
X141747619Y-99964285D01*
X141700000Y-100011904D01*
X141652380Y-100107142D01*
X141652380Y-100345238D01*
X141700000Y-100488095D01*
X141652380Y-100821428D02*
X142652380Y-101059523D01*
X141938095Y-101250000D01*
X142652380Y-101440476D01*
X141652380Y-101678571D01*
X141747619Y-102011904D02*
X141700000Y-102059523D01*
X141652380Y-102154761D01*
X141652380Y-102392857D01*
X141700000Y-102488095D01*
X141747619Y-102535714D01*
X141842857Y-102583333D01*
X141938095Y-102583333D01*
X142080952Y-102535714D01*
X142652380Y-101964285D01*
X142652380Y-102583333D01*
X102761904Y-118452380D02*
X102761904Y-119261904D01*
X102714285Y-119357142D01*
X102666666Y-119404761D01*
X102571428Y-119452380D01*
X102380952Y-119452380D01*
X102285714Y-119404761D01*
X102238095Y-119357142D01*
X102190476Y-119261904D01*
X102190476Y-118452380D01*
X101190476Y-119452380D02*
X101761904Y-119452380D01*
X101476190Y-119452380D02*
X101476190Y-118452380D01*
X101571428Y-118595238D01*
X101666666Y-118690476D01*
X101761904Y-118738095D01*
X162063973Y-96209522D02*
X161491553Y-96781942D01*
X161390538Y-96815614D01*
X161323194Y-96815614D01*
X161222179Y-96781942D01*
X161087492Y-96647255D01*
X161053820Y-96546240D01*
X161053820Y-96478896D01*
X161087492Y-96377881D01*
X161659912Y-95805461D01*
X161289522Y-95569759D02*
X161289522Y-95502416D01*
X161255851Y-95401400D01*
X161087492Y-95233042D01*
X160986477Y-95199370D01*
X160919133Y-95199370D01*
X160818118Y-95233042D01*
X160750774Y-95300385D01*
X160683431Y-95435072D01*
X160683431Y-96243194D01*
X160245698Y-95805461D01*
X144861904Y-112652380D02*
X144861904Y-113461904D01*
X144814285Y-113557142D01*
X144766666Y-113604761D01*
X144671428Y-113652380D01*
X144480952Y-113652380D01*
X144385714Y-113604761D01*
X144338095Y-113557142D01*
X144290476Y-113461904D01*
X144290476Y-112652380D01*
X143909523Y-112652380D02*
X143290476Y-112652380D01*
X143623809Y-113033333D01*
X143480952Y-113033333D01*
X143385714Y-113080952D01*
X143338095Y-113128571D01*
X143290476Y-113223809D01*
X143290476Y-113461904D01*
X143338095Y-113557142D01*
X143385714Y-113604761D01*
X143480952Y-113652380D01*
X143766666Y-113652380D01*
X143861904Y-113604761D01*
X143909523Y-113557142D01*
X165919881Y-108046446D02*
X166256599Y-108383164D01*
X165785194Y-107440355D02*
X165919881Y-108046446D01*
X165313790Y-107911759D01*
X165414805Y-109224957D02*
X165818866Y-108820896D01*
X165616835Y-109022927D02*
X164909729Y-108315820D01*
X165078087Y-108349492D01*
X165212774Y-108349492D01*
X165313790Y-108315820D01*
X161857142Y-117357142D02*
X161904761Y-117309523D01*
X161952380Y-117166666D01*
X161952380Y-117071428D01*
X161904761Y-116928571D01*
X161809523Y-116833333D01*
X161714285Y-116785714D01*
X161523809Y-116738095D01*
X161380952Y-116738095D01*
X161190476Y-116785714D01*
X161095238Y-116833333D01*
X161000000Y-116928571D01*
X160952380Y-117071428D01*
X160952380Y-117166666D01*
X161000000Y-117309523D01*
X161047619Y-117357142D01*
X161047619Y-117738095D02*
X161000000Y-117785714D01*
X160952380Y-117880952D01*
X160952380Y-118119047D01*
X161000000Y-118214285D01*
X161047619Y-118261904D01*
X161142857Y-118309523D01*
X161238095Y-118309523D01*
X161380952Y-118261904D01*
X161952380Y-117690476D01*
X161952380Y-118309523D01*
X161952380Y-118785714D02*
X161952380Y-118976190D01*
X161904761Y-119071428D01*
X161857142Y-119119047D01*
X161714285Y-119214285D01*
X161523809Y-119261904D01*
X161142857Y-119261904D01*
X161047619Y-119214285D01*
X161000000Y-119166666D01*
X160952380Y-119071428D01*
X160952380Y-118880952D01*
X161000000Y-118785714D01*
X161047619Y-118738095D01*
X161142857Y-118690476D01*
X161380952Y-118690476D01*
X161476190Y-118738095D01*
X161523809Y-118785714D01*
X161571428Y-118880952D01*
X161571428Y-119071428D01*
X161523809Y-119166666D01*
X161476190Y-119214285D01*
X161380952Y-119261904D01*
X154642857Y-118357142D02*
X154690476Y-118404761D01*
X154833333Y-118452380D01*
X154928571Y-118452380D01*
X155071428Y-118404761D01*
X155166666Y-118309523D01*
X155214285Y-118214285D01*
X155261904Y-118023809D01*
X155261904Y-117880952D01*
X155214285Y-117690476D01*
X155166666Y-117595238D01*
X155071428Y-117500000D01*
X154928571Y-117452380D01*
X154833333Y-117452380D01*
X154690476Y-117500000D01*
X154642857Y-117547619D01*
X154309523Y-117452380D02*
X153690476Y-117452380D01*
X154023809Y-117833333D01*
X153880952Y-117833333D01*
X153785714Y-117880952D01*
X153738095Y-117928571D01*
X153690476Y-118023809D01*
X153690476Y-118261904D01*
X153738095Y-118357142D01*
X153785714Y-118404761D01*
X153880952Y-118452380D01*
X154166666Y-118452380D01*
X154261904Y-118404761D01*
X154309523Y-118357142D01*
X153071428Y-117452380D02*
X152976190Y-117452380D01*
X152880952Y-117500000D01*
X152833333Y-117547619D01*
X152785714Y-117642857D01*
X152738095Y-117833333D01*
X152738095Y-118071428D01*
X152785714Y-118261904D01*
X152833333Y-118357142D01*
X152880952Y-118404761D01*
X152976190Y-118452380D01*
X153071428Y-118452380D01*
X153166666Y-118404761D01*
X153214285Y-118357142D01*
X153261904Y-118261904D01*
X153309523Y-118071428D01*
X153309523Y-117833333D01*
X153261904Y-117642857D01*
X153214285Y-117547619D01*
X153166666Y-117500000D01*
X153071428Y-117452380D01*
X153642857Y-116857142D02*
X153690476Y-116904761D01*
X153833333Y-116952380D01*
X153928571Y-116952380D01*
X154071428Y-116904761D01*
X154166666Y-116809523D01*
X154214285Y-116714285D01*
X154261904Y-116523809D01*
X154261904Y-116380952D01*
X154214285Y-116190476D01*
X154166666Y-116095238D01*
X154071428Y-116000000D01*
X153928571Y-115952380D01*
X153833333Y-115952380D01*
X153690476Y-116000000D01*
X153642857Y-116047619D01*
X153309523Y-115952380D02*
X152690476Y-115952380D01*
X153023809Y-116333333D01*
X152880952Y-116333333D01*
X152785714Y-116380952D01*
X152738095Y-116428571D01*
X152690476Y-116523809D01*
X152690476Y-116761904D01*
X152738095Y-116857142D01*
X152785714Y-116904761D01*
X152880952Y-116952380D01*
X153166666Y-116952380D01*
X153261904Y-116904761D01*
X153309523Y-116857142D01*
X151738095Y-116952380D02*
X152309523Y-116952380D01*
X152023809Y-116952380D02*
X152023809Y-115952380D01*
X152119047Y-116095238D01*
X152214285Y-116190476D01*
X152309523Y-116238095D01*
X158761904Y-111652380D02*
X158761904Y-112461904D01*
X158714285Y-112557142D01*
X158666666Y-112604761D01*
X158571428Y-112652380D01*
X158380952Y-112652380D01*
X158285714Y-112604761D01*
X158238095Y-112557142D01*
X158190476Y-112461904D01*
X158190476Y-111652380D01*
X157285714Y-111985714D02*
X157285714Y-112652380D01*
X157523809Y-111604761D02*
X157761904Y-112319047D01*
X157142857Y-112319047D01*
X176738095Y-123852380D02*
X176738095Y-122852380D01*
X176500000Y-122852380D01*
X176357142Y-122900000D01*
X176261904Y-122995238D01*
X176214285Y-123090476D01*
X176166666Y-123280952D01*
X176166666Y-123423809D01*
X176214285Y-123614285D01*
X176261904Y-123709523D01*
X176357142Y-123804761D01*
X176500000Y-123852380D01*
X176738095Y-123852380D01*
X175785714Y-122947619D02*
X175738095Y-122900000D01*
X175642857Y-122852380D01*
X175404761Y-122852380D01*
X175309523Y-122900000D01*
X175261904Y-122947619D01*
X175214285Y-123042857D01*
X175214285Y-123138095D01*
X175261904Y-123280952D01*
X175833333Y-123852380D01*
X175214285Y-123852380D01*
X163078018Y-129242982D02*
X163578018Y-128376956D01*
X163371822Y-128257908D01*
X163224294Y-128227719D01*
X163094197Y-128262579D01*
X163005338Y-128321248D01*
X162868861Y-128462396D01*
X162797432Y-128586113D01*
X162743434Y-128774880D01*
X162737054Y-128881168D01*
X162771913Y-129011266D01*
X162871822Y-129123934D01*
X163078018Y-129242982D01*
X162794471Y-127924575D02*
X162258360Y-127615051D01*
X162356559Y-128111632D01*
X162232842Y-128040204D01*
X162126553Y-128033824D01*
X162061505Y-128051254D01*
X161972646Y-128109923D01*
X161853599Y-128316120D01*
X161847219Y-128422408D01*
X161864649Y-128487456D01*
X161923318Y-128576315D01*
X162170754Y-128719172D01*
X162277042Y-128725552D01*
X162342091Y-128708122D01*
X154200399Y-128504886D02*
X153700399Y-127638861D01*
X153494203Y-127757908D01*
X153394294Y-127870576D01*
X153359435Y-128000674D01*
X153365814Y-128106962D01*
X153419813Y-128295729D01*
X153491242Y-128419447D01*
X153627719Y-128560595D01*
X153716578Y-128619264D01*
X153846675Y-128654123D01*
X153994203Y-128623934D01*
X154200399Y-128504886D01*
X152629887Y-128641822D02*
X152963220Y-129219172D01*
X152645607Y-128192860D02*
X153208946Y-128692402D01*
X152672835Y-129001925D01*
X140538095Y-123652380D02*
X140538095Y-122652380D01*
X140300000Y-122652380D01*
X140157142Y-122700000D01*
X140061904Y-122795238D01*
X140014285Y-122890476D01*
X139966666Y-123080952D01*
X139966666Y-123223809D01*
X140014285Y-123414285D01*
X140061904Y-123509523D01*
X140157142Y-123604761D01*
X140300000Y-123652380D01*
X140538095Y-123652380D01*
X139061904Y-122652380D02*
X139538095Y-122652380D01*
X139585714Y-123128571D01*
X139538095Y-123080952D01*
X139442857Y-123033333D01*
X139204761Y-123033333D01*
X139109523Y-123080952D01*
X139061904Y-123128571D01*
X139014285Y-123223809D01*
X139014285Y-123461904D01*
X139061904Y-123557142D01*
X139109523Y-123604761D01*
X139204761Y-123652380D01*
X139442857Y-123652380D01*
X139538095Y-123604761D01*
X139585714Y-123557142D01*
X176095238Y-126047619D02*
X176190476Y-126000000D01*
X176285714Y-125904761D01*
X176428571Y-125761904D01*
X176523809Y-125714285D01*
X176619047Y-125714285D01*
X176571428Y-125952380D02*
X176666666Y-125904761D01*
X176761904Y-125809523D01*
X176809523Y-125619047D01*
X176809523Y-125285714D01*
X176761904Y-125095238D01*
X176666666Y-125000000D01*
X176571428Y-124952380D01*
X176380952Y-124952380D01*
X176285714Y-125000000D01*
X176190476Y-125095238D01*
X176142857Y-125285714D01*
X176142857Y-125619047D01*
X176190476Y-125809523D01*
X176285714Y-125904761D01*
X176380952Y-125952380D01*
X176571428Y-125952380D01*
X175761904Y-125047619D02*
X175714285Y-125000000D01*
X175619047Y-124952380D01*
X175380952Y-124952380D01*
X175285714Y-125000000D01*
X175238095Y-125047619D01*
X175190476Y-125142857D01*
X175190476Y-125238095D01*
X175238095Y-125380952D01*
X175809523Y-125952380D01*
X175190476Y-125952380D01*
X164973669Y-130504032D02*
X165079957Y-130510411D01*
X165210054Y-130475552D01*
X165405201Y-130423262D01*
X165511489Y-130429642D01*
X165593968Y-130477261D01*
X165433681Y-130659648D02*
X165539969Y-130666028D01*
X165670066Y-130631168D01*
X165806544Y-130490021D01*
X165973211Y-130201346D01*
X166027209Y-130012579D01*
X165992350Y-129882481D01*
X165933681Y-129793623D01*
X165768723Y-129698385D01*
X165662435Y-129692005D01*
X165532338Y-129726865D01*
X165395860Y-129868012D01*
X165229194Y-130156687D01*
X165175195Y-130345454D01*
X165210054Y-130475552D01*
X165268723Y-130564410D01*
X165433681Y-130659648D01*
X164653553Y-129439441D02*
X164320219Y-130016791D01*
X165050225Y-129228574D02*
X164899279Y-129966211D01*
X164363168Y-129656687D01*
X151191288Y-130408793D02*
X151249957Y-130319935D01*
X151284816Y-130189837D01*
X151337106Y-129994691D01*
X151395775Y-129905833D01*
X151478253Y-129858214D01*
X151556062Y-130088220D02*
X151614731Y-129999361D01*
X151649590Y-129869264D01*
X151595591Y-129680497D01*
X151428925Y-129391822D01*
X151292447Y-129250674D01*
X151162350Y-129215814D01*
X151056062Y-129222194D01*
X150891104Y-129317432D01*
X150832435Y-129406291D01*
X150797576Y-129536388D01*
X150851575Y-129725155D01*
X151018241Y-130013830D01*
X151154719Y-130154978D01*
X151284816Y-130189837D01*
X151391104Y-130183458D01*
X151556062Y-130088220D01*
X149942600Y-129865051D02*
X150107558Y-129769813D01*
X150213846Y-129763434D01*
X150278895Y-129780863D01*
X150432802Y-129856962D01*
X150569279Y-129998110D01*
X150759755Y-130328024D01*
X150766135Y-130434312D01*
X150748705Y-130499361D01*
X150690036Y-130588220D01*
X150525079Y-130683458D01*
X150418791Y-130689837D01*
X150353742Y-130672408D01*
X150264884Y-130613739D01*
X150145836Y-130407542D01*
X150139456Y-130301254D01*
X150156886Y-130236205D01*
X150215555Y-130147347D01*
X150380512Y-130052109D01*
X150486801Y-130045729D01*
X150551849Y-130063159D01*
X150640708Y-130121828D01*
X139895238Y-126547619D02*
X139990476Y-126500000D01*
X140085714Y-126404761D01*
X140228571Y-126261904D01*
X140323809Y-126214285D01*
X140419047Y-126214285D01*
X140371428Y-126452380D02*
X140466666Y-126404761D01*
X140561904Y-126309523D01*
X140609523Y-126119047D01*
X140609523Y-125785714D01*
X140561904Y-125595238D01*
X140466666Y-125500000D01*
X140371428Y-125452380D01*
X140180952Y-125452380D01*
X140085714Y-125500000D01*
X139990476Y-125595238D01*
X139942857Y-125785714D01*
X139942857Y-126119047D01*
X139990476Y-126309523D01*
X140085714Y-126404761D01*
X140180952Y-126452380D01*
X140371428Y-126452380D01*
X139371428Y-125880952D02*
X139466666Y-125833333D01*
X139514285Y-125785714D01*
X139561904Y-125690476D01*
X139561904Y-125642857D01*
X139514285Y-125547619D01*
X139466666Y-125500000D01*
X139371428Y-125452380D01*
X139180952Y-125452380D01*
X139085714Y-125500000D01*
X139038095Y-125547619D01*
X138990476Y-125642857D01*
X138990476Y-125690476D01*
X139038095Y-125785714D01*
X139085714Y-125833333D01*
X139180952Y-125880952D01*
X139371428Y-125880952D01*
X139466666Y-125928571D01*
X139514285Y-125976190D01*
X139561904Y-126071428D01*
X139561904Y-126261904D01*
X139514285Y-126357142D01*
X139466666Y-126404761D01*
X139371428Y-126452380D01*
X139180952Y-126452380D01*
X139085714Y-126404761D01*
X139038095Y-126357142D01*
X138990476Y-126261904D01*
X138990476Y-126071428D01*
X139038095Y-125976190D01*
X139085714Y-125928571D01*
X139180952Y-125880952D01*
X98733333Y-137852380D02*
X98733333Y-138566666D01*
X98780952Y-138709523D01*
X98876190Y-138804761D01*
X99019047Y-138852380D01*
X99114285Y-138852380D01*
X97733333Y-138852380D02*
X98304761Y-138852380D01*
X98019047Y-138852380D02*
X98019047Y-137852380D01*
X98114285Y-137995238D01*
X98209523Y-138090476D01*
X98304761Y-138138095D01*
X104651666Y-126787142D02*
X104699285Y-126834761D01*
X104842142Y-126882380D01*
X104937380Y-126882380D01*
X105080238Y-126834761D01*
X105175476Y-126739523D01*
X105223095Y-126644285D01*
X105270714Y-126453809D01*
X105270714Y-126310952D01*
X105223095Y-126120476D01*
X105175476Y-126025238D01*
X105080238Y-125930000D01*
X104937380Y-125882380D01*
X104842142Y-125882380D01*
X104699285Y-125930000D01*
X104651666Y-125977619D01*
X103699285Y-126882380D02*
X104270714Y-126882380D01*
X103985000Y-126882380D02*
X103985000Y-125882380D01*
X104080238Y-126025238D01*
X104175476Y-126120476D01*
X104270714Y-126168095D01*
X104666666Y-125187142D02*
X104714285Y-125234761D01*
X104857142Y-125282380D01*
X104952380Y-125282380D01*
X105095238Y-125234761D01*
X105190476Y-125139523D01*
X105238095Y-125044285D01*
X105285714Y-124853809D01*
X105285714Y-124710952D01*
X105238095Y-124520476D01*
X105190476Y-124425238D01*
X105095238Y-124330000D01*
X104952380Y-124282380D01*
X104857142Y-124282380D01*
X104714285Y-124330000D01*
X104666666Y-124377619D01*
X104285714Y-124377619D02*
X104238095Y-124330000D01*
X104142857Y-124282380D01*
X103904761Y-124282380D01*
X103809523Y-124330000D01*
X103761904Y-124377619D01*
X103714285Y-124472857D01*
X103714285Y-124568095D01*
X103761904Y-124710952D01*
X104333333Y-125282380D01*
X103714285Y-125282380D01*
X109566666Y-122407142D02*
X109614285Y-122454761D01*
X109757142Y-122502380D01*
X109852380Y-122502380D01*
X109995238Y-122454761D01*
X110090476Y-122359523D01*
X110138095Y-122264285D01*
X110185714Y-122073809D01*
X110185714Y-121930952D01*
X110138095Y-121740476D01*
X110090476Y-121645238D01*
X109995238Y-121550000D01*
X109852380Y-121502380D01*
X109757142Y-121502380D01*
X109614285Y-121550000D01*
X109566666Y-121597619D01*
X108661904Y-121502380D02*
X109138095Y-121502380D01*
X109185714Y-121978571D01*
X109138095Y-121930952D01*
X109042857Y-121883333D01*
X108804761Y-121883333D01*
X108709523Y-121930952D01*
X108661904Y-121978571D01*
X108614285Y-122073809D01*
X108614285Y-122311904D01*
X108661904Y-122407142D01*
X108709523Y-122454761D01*
X108804761Y-122502380D01*
X109042857Y-122502380D01*
X109138095Y-122454761D01*
X109185714Y-122407142D01*
X109566666Y-124407142D02*
X109614285Y-124454761D01*
X109757142Y-124502380D01*
X109852380Y-124502380D01*
X109995238Y-124454761D01*
X110090476Y-124359523D01*
X110138095Y-124264285D01*
X110185714Y-124073809D01*
X110185714Y-123930952D01*
X110138095Y-123740476D01*
X110090476Y-123645238D01*
X109995238Y-123550000D01*
X109852380Y-123502380D01*
X109757142Y-123502380D01*
X109614285Y-123550000D01*
X109566666Y-123597619D01*
X108709523Y-123502380D02*
X108900000Y-123502380D01*
X108995238Y-123550000D01*
X109042857Y-123597619D01*
X109138095Y-123740476D01*
X109185714Y-123930952D01*
X109185714Y-124311904D01*
X109138095Y-124407142D01*
X109090476Y-124454761D01*
X108995238Y-124502380D01*
X108804761Y-124502380D01*
X108709523Y-124454761D01*
X108661904Y-124407142D01*
X108614285Y-124311904D01*
X108614285Y-124073809D01*
X108661904Y-123978571D01*
X108709523Y-123930952D01*
X108804761Y-123883333D01*
X108995238Y-123883333D01*
X109090476Y-123930952D01*
X109138095Y-123978571D01*
X109185714Y-124073809D01*
X109566666Y-126407142D02*
X109614285Y-126454761D01*
X109757142Y-126502380D01*
X109852380Y-126502380D01*
X109995238Y-126454761D01*
X110090476Y-126359523D01*
X110138095Y-126264285D01*
X110185714Y-126073809D01*
X110185714Y-125930952D01*
X110138095Y-125740476D01*
X110090476Y-125645238D01*
X109995238Y-125550000D01*
X109852380Y-125502380D01*
X109757142Y-125502380D01*
X109614285Y-125550000D01*
X109566666Y-125597619D01*
X109233333Y-125502380D02*
X108566666Y-125502380D01*
X108995238Y-126502380D01*
X103042857Y-111977142D02*
X103090476Y-112024761D01*
X103233333Y-112072380D01*
X103328571Y-112072380D01*
X103471428Y-112024761D01*
X103566666Y-111929523D01*
X103614285Y-111834285D01*
X103661904Y-111643809D01*
X103661904Y-111500952D01*
X103614285Y-111310476D01*
X103566666Y-111215238D01*
X103471428Y-111120000D01*
X103328571Y-111072380D01*
X103233333Y-111072380D01*
X103090476Y-111120000D01*
X103042857Y-111167619D01*
X102661904Y-111167619D02*
X102614285Y-111120000D01*
X102519047Y-111072380D01*
X102280952Y-111072380D01*
X102185714Y-111120000D01*
X102138095Y-111167619D01*
X102090476Y-111262857D01*
X102090476Y-111358095D01*
X102138095Y-111500952D01*
X102709523Y-112072380D01*
X102090476Y-112072380D01*
X101757142Y-111072380D02*
X101090476Y-111072380D01*
X101519047Y-112072380D01*
X123192380Y-112031904D02*
X122192380Y-112031904D01*
X122192380Y-112270000D01*
X122240000Y-112412857D01*
X122335238Y-112508095D01*
X122430476Y-112555714D01*
X122620952Y-112603333D01*
X122763809Y-112603333D01*
X122954285Y-112555714D01*
X123049523Y-112508095D01*
X123144761Y-112412857D01*
X123192380Y-112270000D01*
X123192380Y-112031904D01*
X123192380Y-113555714D02*
X123192380Y-112984285D01*
X123192380Y-113270000D02*
X122192380Y-113270000D01*
X122335238Y-113174761D01*
X122430476Y-113079523D01*
X122478095Y-112984285D01*
X173042857Y-129822380D02*
X173376190Y-129346190D01*
X173614285Y-129822380D02*
X173614285Y-128822380D01*
X173233333Y-128822380D01*
X173138095Y-128870000D01*
X173090476Y-128917619D01*
X173042857Y-129012857D01*
X173042857Y-129155714D01*
X173090476Y-129250952D01*
X173138095Y-129298571D01*
X173233333Y-129346190D01*
X173614285Y-129346190D01*
X172661904Y-128917619D02*
X172614285Y-128870000D01*
X172519047Y-128822380D01*
X172280952Y-128822380D01*
X172185714Y-128870000D01*
X172138095Y-128917619D01*
X172090476Y-129012857D01*
X172090476Y-129108095D01*
X172138095Y-129250952D01*
X172709523Y-129822380D01*
X172090476Y-129822380D01*
X171138095Y-129822380D02*
X171709523Y-129822380D01*
X171423809Y-129822380D02*
X171423809Y-128822380D01*
X171519047Y-128965238D01*
X171614285Y-129060476D01*
X171709523Y-129108095D01*
X176133333Y-117052380D02*
X176133333Y-117766666D01*
X176180952Y-117909523D01*
X176276190Y-118004761D01*
X176419047Y-118052380D01*
X176514285Y-118052380D01*
X175752380Y-117052380D02*
X175133333Y-117052380D01*
X175466666Y-117433333D01*
X175323809Y-117433333D01*
X175228571Y-117480952D01*
X175180952Y-117528571D01*
X175133333Y-117623809D01*
X175133333Y-117861904D01*
X175180952Y-117957142D01*
X175228571Y-118004761D01*
X175323809Y-118052380D01*
X175609523Y-118052380D01*
X175704761Y-118004761D01*
X175752380Y-117957142D01*
X171119881Y-105846446D02*
X171456599Y-106183164D01*
X170985194Y-105240355D02*
X171119881Y-105846446D01*
X170513790Y-105711759D01*
X170379103Y-105981133D02*
X170311759Y-105981133D01*
X170210744Y-106014805D01*
X170042385Y-106183164D01*
X170008713Y-106284179D01*
X170008713Y-106351522D01*
X170042385Y-106452538D01*
X170109729Y-106519881D01*
X170244416Y-106587225D01*
X171052538Y-106587225D01*
X170614805Y-107024957D01*
X170222233Y-105280812D02*
X170262639Y-105280812D01*
X170343451Y-105240406D01*
X170383857Y-105200000D01*
X170424264Y-105119187D01*
X170424264Y-105038375D01*
X170404061Y-104977766D01*
X170343451Y-104876751D01*
X170282842Y-104816142D01*
X170181827Y-104755532D01*
X170121218Y-104735329D01*
X170040406Y-104735329D01*
X169959593Y-104775735D01*
X169919187Y-104816142D01*
X169878781Y-104896954D01*
X169878781Y-104937360D01*
X169777766Y-105321218D02*
X169797969Y-105260609D01*
X169797969Y-105220203D01*
X169777766Y-105159593D01*
X169757563Y-105139390D01*
X169696954Y-105119187D01*
X169656548Y-105119187D01*
X169595938Y-105139390D01*
X169515126Y-105220203D01*
X169494923Y-105280812D01*
X169494923Y-105321218D01*
X169515126Y-105381827D01*
X169535329Y-105402030D01*
X169595938Y-105422233D01*
X169636345Y-105422233D01*
X169696954Y-105402030D01*
X169777766Y-105321218D01*
X169838375Y-105301015D01*
X169878781Y-105301015D01*
X169939390Y-105321218D01*
X170020203Y-105402030D01*
X170040406Y-105462639D01*
X170040406Y-105503045D01*
X170020203Y-105563654D01*
X169939390Y-105644467D01*
X169878781Y-105664670D01*
X169838375Y-105664670D01*
X169777766Y-105644467D01*
X169696954Y-105563654D01*
X169676751Y-105503045D01*
X169676751Y-105462639D01*
X169696954Y-105402030D01*
X169822233Y-108880812D02*
X169862639Y-108880812D01*
X169943451Y-108840406D01*
X169983857Y-108800000D01*
X170024264Y-108719187D01*
X170024264Y-108638375D01*
X170004061Y-108577766D01*
X169943451Y-108476751D01*
X169882842Y-108416142D01*
X169781827Y-108355532D01*
X169721218Y-108335329D01*
X169640406Y-108335329D01*
X169559593Y-108375735D01*
X169519187Y-108416142D01*
X169478781Y-108496954D01*
X169478781Y-108537360D01*
X169660609Y-109123248D02*
X169579796Y-109204061D01*
X169519187Y-109224264D01*
X169478781Y-109224264D01*
X169377766Y-109204061D01*
X169276751Y-109143451D01*
X169115126Y-108981827D01*
X169094923Y-108921218D01*
X169094923Y-108880812D01*
X169115126Y-108820203D01*
X169195938Y-108739390D01*
X169256548Y-108719187D01*
X169296954Y-108719187D01*
X169357563Y-108739390D01*
X169458578Y-108840406D01*
X169478781Y-108901015D01*
X169478781Y-108941421D01*
X169458578Y-109002030D01*
X169377766Y-109082842D01*
X169317157Y-109103045D01*
X169276751Y-109103045D01*
X169216142Y-109082842D01*
X164433333Y-119558571D02*
X164766666Y-119558571D01*
X164766666Y-120082380D02*
X164766666Y-119082380D01*
X164290476Y-119082380D01*
X163576190Y-119558571D02*
X163433333Y-119606190D01*
X163385714Y-119653809D01*
X163338095Y-119749047D01*
X163338095Y-119891904D01*
X163385714Y-119987142D01*
X163433333Y-120034761D01*
X163528571Y-120082380D01*
X163909523Y-120082380D01*
X163909523Y-119082380D01*
X163576190Y-119082380D01*
X163480952Y-119130000D01*
X163433333Y-119177619D01*
X163385714Y-119272857D01*
X163385714Y-119368095D01*
X163433333Y-119463333D01*
X163480952Y-119510952D01*
X163576190Y-119558571D01*
X163909523Y-119558571D01*
X162385714Y-120082380D02*
X162957142Y-120082380D01*
X162671428Y-120082380D02*
X162671428Y-119082380D01*
X162766666Y-119225238D01*
X162861904Y-119320476D01*
X162957142Y-119368095D01*
M02*
