%TF.GenerationSoftware,KiCad,Pcbnew,5.1.6-c6e7f7d~87~ubuntu18.04.1*%
%TF.CreationDate,2020-09-10T12:49:25+09:00*%
%TF.ProjectId,m5mouse,6d356d6f-7573-4652-9e6b-696361645f70,rev?*%
%TF.SameCoordinates,PX4c4b400PY8583b00*%
%TF.FileFunction,Profile,NP*%
%FSLAX46Y46*%
G04 Gerber Fmt 4.6, Leading zero omitted, Abs format (unit mm)*
G04 Created by KiCad (PCBNEW 5.1.6-c6e7f7d~87~ubuntu18.04.1) date 2020-09-10 12:49:25*
%MOMM*%
%LPD*%
G01*
G04 APERTURE LIST*
%TA.AperFunction,Profile*%
%ADD10C,0.050000*%
%TD*%
G04 APERTURE END LIST*
D10*
X53000000Y11000000D02*
X53000000Y39000000D01*
X50000000Y39000000D02*
X50000000Y11000000D01*
X50000000Y8500000D02*
X53000000Y8500000D01*
X50000000Y41500000D02*
X53000000Y41500000D01*
X53000000Y11000000D02*
G75*
G02*
X50000000Y11000000I-1500000J0D01*
G01*
X50000000Y39000000D02*
G75*
G02*
X53000000Y39000000I1500000J0D01*
G01*
X53000000Y41500000D02*
X53000000Y42000000D01*
X50000000Y8500000D02*
X50000000Y8000000D01*
X90500000Y4050000D02*
X87050000Y6050000D01*
X89500000Y2300000D02*
X90500000Y4050000D01*
X87050000Y6050000D02*
X86050000Y4300000D01*
X86050000Y4300000D02*
X89500000Y2300000D01*
X70050000Y4350000D02*
X66600000Y2350000D01*
X69050000Y6100000D02*
X70050000Y4350000D01*
X65600000Y4100000D02*
X69050000Y6100000D01*
X66600000Y2350000D02*
X65600000Y4100000D01*
X99000000Y9500000D02*
X99000000Y5500000D01*
X101000000Y9500000D02*
X99000000Y9500000D01*
X99000000Y5500000D02*
X101000000Y5500000D01*
X101000000Y5500000D02*
X101000000Y9500000D01*
X55000000Y9500000D02*
X55000000Y5500000D01*
X57000000Y9500000D02*
X55000000Y9500000D01*
X57000000Y5500000D02*
X57000000Y9500000D01*
X55000000Y5500000D02*
X57000000Y5500000D01*
X56000000Y500000D02*
G75*
G02*
X53500000Y3000000I0J2500000D01*
G01*
X53500000Y47000000D02*
X53500000Y42000000D01*
X103000000Y8000000D02*
X102500000Y8000000D01*
X93000000Y500000D02*
X93000000Y0D01*
X100000000Y500000D02*
X93000000Y500000D01*
X53500000Y3000000D02*
X53500000Y8000000D01*
X56000000Y500000D02*
X63000000Y500000D01*
X63000000Y500000D02*
X63000000Y0D01*
X103000000Y42000000D02*
X102500000Y42000000D01*
X93000000Y49500000D02*
X93000000Y50000000D01*
X56000000Y49500000D02*
G75*
G03*
X53500000Y47000000I0J-2500000D01*
G01*
X102500000Y3000000D02*
X102500000Y8000000D01*
X100000000Y49500000D02*
X93000000Y49500000D01*
X100000000Y49500000D02*
G75*
G02*
X102500000Y47000000I0J-2500000D01*
G01*
X102500000Y47000000D02*
X102500000Y42000000D01*
X53000000Y42000000D02*
X53500000Y42000000D01*
X63000000Y49500000D02*
X63000000Y50000000D01*
X63000000Y50000000D02*
X93000000Y50000000D01*
X103000000Y42000000D02*
X103000000Y8000000D01*
X93000000Y0D02*
X63000000Y0D01*
X53000000Y8000000D02*
X53500000Y8000000D01*
X53000000Y8000000D02*
X53000000Y8500000D01*
X100000000Y500000D02*
G75*
G03*
X102500000Y3000000I0J2500000D01*
G01*
X56000000Y49500000D02*
X63000000Y49500000D01*
X49500000Y3000000D02*
X49500000Y8000000D01*
X47000000Y500000D02*
G75*
G03*
X49500000Y3000000I0J2500000D01*
G01*
X47000000Y500000D02*
X40000000Y500000D01*
X40000000Y500000D02*
X40000000Y0D01*
X50000000Y8000000D02*
X49500000Y8000000D01*
X500000Y47000000D02*
X500000Y42000000D01*
X3000000Y49500000D02*
G75*
G03*
X500000Y47000000I0J-2500000D01*
G01*
X3000000Y49500000D02*
X10000000Y49500000D01*
X10000000Y49500000D02*
X10000000Y50000000D01*
X0Y42000000D02*
X500000Y42000000D01*
X49500000Y47000000D02*
X49500000Y42000000D01*
X47000000Y49500000D02*
G75*
G02*
X49500000Y47000000I0J-2500000D01*
G01*
X47000000Y49500000D02*
X40000000Y49500000D01*
X40000000Y49500000D02*
X40000000Y50000000D01*
X50000000Y42000000D02*
X49500000Y42000000D01*
X10000000Y500000D02*
X10000000Y0D01*
X3000000Y500000D02*
X10000000Y500000D01*
X500000Y3000000D02*
X500000Y8000000D01*
X3000000Y500000D02*
G75*
G02*
X500000Y3000000I0J2500000D01*
G01*
X0Y8000000D02*
X500000Y8000000D01*
X40000000Y0D02*
X10000000Y0D01*
X50000000Y42000000D02*
X50000000Y41500000D01*
X10000000Y50000000D02*
X40000000Y50000000D01*
X0Y8000000D02*
X0Y42000000D01*
M02*
