%TF.GenerationSoftware,KiCad,Pcbnew,5.1.6-c6e7f7d~87~ubuntu18.04.1*%
%TF.CreationDate,2020-09-10T12:49:25+09:00*%
%TF.ProjectId,m5mouse,6d356d6f-7573-4652-9e6b-696361645f70,rev?*%
%TF.SameCoordinates,PX4c4b400PY8583b00*%
%TF.FileFunction,Legend,Bot*%
%TF.FilePolarity,Positive*%
%FSLAX46Y46*%
G04 Gerber Fmt 4.6, Leading zero omitted, Abs format (unit mm)*
G04 Created by KiCad (PCBNEW 5.1.6-c6e7f7d~87~ubuntu18.04.1) date 2020-09-10 12:49:25*
%MOMM*%
%LPD*%
G01*
G04 APERTURE LIST*
%ADD10C,0.120000*%
%ADD11C,0.150000*%
G04 APERTURE END LIST*
D10*
%TO.C,D1*%
X48235000Y29300000D02*
X48235000Y27015000D01*
X48235000Y27015000D02*
X46765000Y27015000D01*
X46765000Y27015000D02*
X46765000Y29300000D01*
%TO.C,D6*%
X90015000Y49235000D02*
X92300000Y49235000D01*
X90015000Y47765000D02*
X90015000Y49235000D01*
X92300000Y47765000D02*
X90015000Y47765000D01*
%TO.C,D7*%
X65985000Y47765000D02*
X63700000Y47765000D01*
X65985000Y49235000D02*
X65985000Y47765000D01*
X63700000Y49235000D02*
X65985000Y49235000D01*
%TO.C,IC1*%
X28650000Y38150000D02*
X21950000Y38150000D01*
X21950000Y38150000D02*
X21950000Y34450000D01*
X21950000Y34450000D02*
X28650000Y34450000D01*
X28650000Y34450000D02*
X28650000Y38150000D01*
%TO.C,J3*%
X102610000Y43910000D02*
X102610000Y41410000D01*
X100110000Y43910000D02*
X102610000Y43910000D01*
X100810000Y26890000D02*
X102310000Y26890000D01*
X100810000Y25890000D02*
X100810000Y26890000D01*
X100810000Y42610000D02*
X102310000Y42610000D01*
X100810000Y43610000D02*
X100810000Y42610000D01*
X100000000Y26390000D02*
X100000000Y25890000D01*
X98790000Y26390000D02*
X100000000Y26390000D01*
X98790000Y43110000D02*
X98790000Y26390000D01*
X100000000Y43110000D02*
X98790000Y43110000D01*
X100000000Y43610000D02*
X100000000Y43110000D01*
X98290000Y25890000D02*
X98290000Y43610000D01*
X102310000Y25890000D02*
X98290000Y25890000D01*
X102310000Y43610000D02*
X102310000Y25890000D01*
X98290000Y43610000D02*
X102310000Y43610000D01*
%TO.C,J4*%
X87370000Y45910000D02*
X92570000Y45910000D01*
X87370000Y40770000D02*
X87370000Y45910000D01*
X92570000Y38170000D02*
X92570000Y45910000D01*
X87370000Y40770000D02*
X89970000Y40770000D01*
X89970000Y40770000D02*
X89970000Y38170000D01*
X89970000Y38170000D02*
X92570000Y38170000D01*
X87370000Y39500000D02*
X87370000Y38170000D01*
X87370000Y38170000D02*
X88700000Y38170000D01*
%TO.C,J5*%
X68730000Y45830000D02*
X67400000Y45830000D01*
X68730000Y44500000D02*
X68730000Y45830000D01*
X66130000Y45830000D02*
X63530000Y45830000D01*
X66130000Y43230000D02*
X66130000Y45830000D01*
X68730000Y43230000D02*
X66130000Y43230000D01*
X63530000Y45830000D02*
X63530000Y38090000D01*
X68730000Y43230000D02*
X68730000Y38090000D01*
X68730000Y38090000D02*
X63530000Y38090000D01*
%TO.C,J6*%
X54470000Y23070000D02*
X55800000Y23070000D01*
X54470000Y24400000D02*
X54470000Y23070000D01*
X54470000Y25670000D02*
X57130000Y25670000D01*
X57130000Y25670000D02*
X57130000Y30810000D01*
X54470000Y25670000D02*
X54470000Y30810000D01*
X54470000Y30810000D02*
X57130000Y30810000D01*
%TO.C,J7*%
X17320000Y46800000D02*
X17320000Y45470000D01*
X17320000Y45470000D02*
X18650000Y45470000D01*
X19920000Y45470000D02*
X32680000Y45470000D01*
X32680000Y48130000D02*
X32680000Y45470000D01*
X19920000Y48130000D02*
X32680000Y48130000D01*
X19920000Y48130000D02*
X19920000Y45470000D01*
%TO.C,L1*%
X25738748Y13610000D02*
X26261252Y13610000D01*
X25738748Y11390000D02*
X26261252Y11390000D01*
%TO.C,Q1*%
X89580000Y14240000D02*
X89580000Y15700000D01*
X86420000Y14240000D02*
X86420000Y16400000D01*
X86420000Y14240000D02*
X87350000Y14240000D01*
X89580000Y14240000D02*
X88650000Y14240000D01*
%TO.C,Q3*%
X82780000Y14240000D02*
X81850000Y14240000D01*
X79620000Y14240000D02*
X80550000Y14240000D01*
X79620000Y14240000D02*
X79620000Y16400000D01*
X82780000Y14240000D02*
X82780000Y15700000D01*
%TO.C,Q5*%
X76280000Y14240000D02*
X76280000Y15700000D01*
X73120000Y14240000D02*
X73120000Y16400000D01*
X73120000Y14240000D02*
X74050000Y14240000D01*
X76280000Y14240000D02*
X75350000Y14240000D01*
%TO.C,Q7*%
X69680000Y14240000D02*
X68750000Y14240000D01*
X66520000Y14240000D02*
X67450000Y14240000D01*
X66520000Y14240000D02*
X66520000Y16400000D01*
X69680000Y14240000D02*
X69680000Y15700000D01*
%TO.C,R1*%
X30162779Y26510000D02*
X29837221Y26510000D01*
X30162779Y25490000D02*
X29837221Y25490000D01*
%TO.C,R2*%
X25162779Y26490000D02*
X24837221Y26490000D01*
X25162779Y27510000D02*
X24837221Y27510000D01*
%TO.C,R3*%
X24837221Y24490000D02*
X25162779Y24490000D01*
X24837221Y25510000D02*
X25162779Y25510000D01*
%TO.C,R4*%
X85445522Y28475727D02*
X85675727Y28245522D01*
X84724273Y27754478D02*
X84954478Y27524273D01*
%TO.C,R5*%
X79092000Y19141221D02*
X79092000Y19466779D01*
X78072000Y19141221D02*
X78072000Y19466779D01*
%TO.C,R6*%
X87837221Y18510000D02*
X88162779Y18510000D01*
X87837221Y17490000D02*
X88162779Y17490000D01*
%TO.C,R7*%
X96710000Y12362779D02*
X96710000Y12037221D01*
X95690000Y12362779D02*
X95690000Y12037221D01*
%TO.C,R8*%
X81037221Y17490000D02*
X81362779Y17490000D01*
X81037221Y18510000D02*
X81362779Y18510000D01*
%TO.C,R9*%
X82710000Y2762779D02*
X82710000Y2437221D01*
X81690000Y2762779D02*
X81690000Y2437221D01*
%TO.C,R10*%
X74537221Y17490000D02*
X74862779Y17490000D01*
X74537221Y18510000D02*
X74862779Y18510000D01*
%TO.C,R11*%
X74310000Y2762779D02*
X74310000Y2437221D01*
X73290000Y2762779D02*
X73290000Y2437221D01*
%TO.C,R12*%
X67937221Y17490000D02*
X68262779Y17490000D01*
X67937221Y18510000D02*
X68262779Y18510000D01*
%TO.C,R13*%
X60510000Y12362779D02*
X60510000Y12037221D01*
X59490000Y12362779D02*
X59490000Y12037221D01*
%TO.C,R14*%
X55337221Y32290000D02*
X55662779Y32290000D01*
X55337221Y33310000D02*
X55662779Y33310000D01*
%TO.C,R15*%
X88462779Y47990000D02*
X88137221Y47990000D01*
X88462779Y49010000D02*
X88137221Y49010000D01*
%TO.C,R16*%
X67537221Y47990000D02*
X67862779Y47990000D01*
X67537221Y49010000D02*
X67862779Y49010000D01*
%TO.C,R17*%
X32490000Y26837221D02*
X32490000Y27162779D01*
X33510000Y26837221D02*
X33510000Y27162779D01*
%TO.C,R18*%
X69362779Y31910000D02*
X69037221Y31910000D01*
X69362779Y30890000D02*
X69037221Y30890000D01*
%TO.C,R19*%
X30162779Y28510000D02*
X29837221Y28510000D01*
X30162779Y27490000D02*
X29837221Y27490000D01*
%TO.C,R20*%
X48010000Y32162779D02*
X48010000Y31837221D01*
X46990000Y32162779D02*
X46990000Y31837221D01*
%TO.C,SW1*%
X37650000Y7500000D02*
X42850000Y7500000D01*
X42850000Y21500000D02*
X37650000Y21500000D01*
X36900000Y19450000D02*
X36900000Y9550000D01*
X43600000Y9550000D02*
X43600000Y19450000D01*
X37250000Y21800000D02*
X35950000Y21800000D01*
X35950000Y21800000D02*
X35950000Y20500000D01*
%TO.C,SW2*%
X57000000Y42250000D02*
X58500000Y42250000D01*
X61000000Y41000000D02*
X61000000Y36500000D01*
X58500000Y35250000D02*
X57000000Y35250000D01*
X54500000Y36500000D02*
X54500000Y41000000D01*
%TO.C,U1*%
X26610000Y21900000D02*
X26610000Y19450000D01*
X23390000Y20100000D02*
X23390000Y21900000D01*
%TO.C,U2*%
X84554880Y35728249D02*
X85502403Y34780725D01*
X85226631Y36400000D02*
X84554880Y35728249D01*
X84554880Y37071751D02*
X85226631Y36400000D01*
X78000000Y43626631D02*
X77328249Y42954880D01*
X78671751Y42954880D02*
X78000000Y43626631D01*
X78000000Y29173369D02*
X78671751Y29845120D01*
X77328249Y29845120D02*
X78000000Y29173369D01*
X70773369Y36400000D02*
X71445120Y37071751D01*
X71445120Y35728249D02*
X70773369Y36400000D01*
%TO.C,U3*%
X62480000Y30250000D02*
X62480000Y27880000D01*
X65720000Y28500000D02*
X65720000Y29500000D01*
X62100000Y30700000D02*
X62100000Y29500000D01*
X63600000Y30700000D02*
X62100000Y30700000D01*
%TO.C,Y1*%
X86137258Y28737258D02*
X88400000Y31000000D01*
X85218019Y29656497D02*
X86137258Y28737258D01*
X87480761Y31919239D02*
X85218019Y29656497D01*
X88400000Y31000000D02*
X87480761Y31919239D01*
%TO.C,Y2*%
X90000000Y32800000D02*
X94400000Y32800000D01*
X94400000Y26000000D02*
X94400000Y32800000D01*
X90000000Y26000000D02*
X94400000Y26000000D01*
X90000000Y32800000D02*
X90000000Y26000000D01*
%TO.C,FB1*%
X83437221Y21290000D02*
X83762779Y21290000D01*
X83437221Y22310000D02*
X83762779Y22310000D01*
%TO.C,U4*%
X76640000Y26610000D02*
X76390000Y26610000D01*
X76390000Y26610000D02*
X76390000Y26360000D01*
X79360000Y23390000D02*
X79610000Y23390000D01*
X79610000Y23390000D02*
X79610000Y23640000D01*
X76640000Y23390000D02*
X76390000Y23390000D01*
X76390000Y23390000D02*
X76390000Y23640000D01*
X79360000Y26610000D02*
X79610000Y26610000D01*
%TO.C,J1*%
X15040000Y2390000D02*
X15040000Y3640000D01*
X16290000Y2390000D02*
X15040000Y2390000D01*
X18400000Y6800000D02*
X18400000Y6300000D01*
X18500000Y6300000D02*
X18500000Y6800000D01*
X18300000Y6300000D02*
X18500000Y6300000D01*
X18300000Y6800000D02*
X18300000Y6300000D01*
X21460000Y5300000D02*
X20850000Y5300000D01*
X21460000Y4000000D02*
X20850000Y4000000D01*
X15340000Y5300000D02*
X15950000Y5300000D01*
X15340000Y4000000D02*
X15950000Y4000000D01*
X18900000Y3300000D02*
X18900000Y2690000D01*
X20850000Y3300000D02*
X18900000Y3300000D01*
X20850000Y6800000D02*
X20850000Y3300000D01*
X15950000Y6800000D02*
X20850000Y6800000D01*
X15950000Y3300000D02*
X15950000Y6800000D01*
X17900000Y3300000D02*
X15950000Y3300000D01*
X17900000Y2690000D02*
X17900000Y3300000D01*
X17100000Y2590000D02*
X16800000Y2590000D01*
X16800000Y2490000D02*
X16800000Y2690000D01*
X17100000Y2490000D02*
X16800000Y2490000D01*
X17100000Y2690000D02*
X17100000Y2490000D01*
X21460000Y2690000D02*
X15340000Y2690000D01*
X21460000Y7410000D02*
X21460000Y2690000D01*
X15340000Y7410000D02*
X21460000Y7410000D01*
X15340000Y2690000D02*
X15340000Y7410000D01*
%TO.C,FB2*%
X92237221Y8690000D02*
X92562779Y8690000D01*
X92237221Y9710000D02*
X92562779Y9710000D01*
%TO.C,C1*%
D11*
X22666666Y14642858D02*
X22714285Y14595239D01*
X22857142Y14547620D01*
X22952380Y14547620D01*
X23095238Y14595239D01*
X23190476Y14690477D01*
X23238095Y14785715D01*
X23285714Y14976191D01*
X23285714Y15119048D01*
X23238095Y15309524D01*
X23190476Y15404762D01*
X23095238Y15500000D01*
X22952380Y15547620D01*
X22857142Y15547620D01*
X22714285Y15500000D01*
X22666666Y15452381D01*
X21714285Y14547620D02*
X22285714Y14547620D01*
X22000000Y14547620D02*
X22000000Y15547620D01*
X22095238Y15404762D01*
X22190476Y15309524D01*
X22285714Y15261905D01*
%TO.C,C2*%
X22666666Y16142858D02*
X22714285Y16095239D01*
X22857142Y16047620D01*
X22952380Y16047620D01*
X23095238Y16095239D01*
X23190476Y16190477D01*
X23238095Y16285715D01*
X23285714Y16476191D01*
X23285714Y16619048D01*
X23238095Y16809524D01*
X23190476Y16904762D01*
X23095238Y17000000D01*
X22952380Y17047620D01*
X22857142Y17047620D01*
X22714285Y17000000D01*
X22666666Y16952381D01*
X22285714Y16952381D02*
X22238095Y17000000D01*
X22142857Y17047620D01*
X21904761Y17047620D01*
X21809523Y17000000D01*
X21761904Y16952381D01*
X21714285Y16857143D01*
X21714285Y16761905D01*
X21761904Y16619048D01*
X22333333Y16047620D01*
X21714285Y16047620D01*
%TO.C,C3*%
X22666666Y17642858D02*
X22714285Y17595239D01*
X22857142Y17547620D01*
X22952380Y17547620D01*
X23095238Y17595239D01*
X23190476Y17690477D01*
X23238095Y17785715D01*
X23285714Y17976191D01*
X23285714Y18119048D01*
X23238095Y18309524D01*
X23190476Y18404762D01*
X23095238Y18500000D01*
X22952380Y18547620D01*
X22857142Y18547620D01*
X22714285Y18500000D01*
X22666666Y18452381D01*
X22333333Y18547620D02*
X21714285Y18547620D01*
X22047619Y18166667D01*
X21904761Y18166667D01*
X21809523Y18119048D01*
X21761904Y18071429D01*
X21714285Y17976191D01*
X21714285Y17738096D01*
X21761904Y17642858D01*
X21809523Y17595239D01*
X21904761Y17547620D01*
X22190476Y17547620D01*
X22285714Y17595239D01*
X22333333Y17642858D01*
%TO.C,C4*%
X29166666Y21642858D02*
X29214285Y21595239D01*
X29357142Y21547620D01*
X29452380Y21547620D01*
X29595238Y21595239D01*
X29690476Y21690477D01*
X29738095Y21785715D01*
X29785714Y21976191D01*
X29785714Y22119048D01*
X29738095Y22309524D01*
X29690476Y22404762D01*
X29595238Y22500000D01*
X29452380Y22547620D01*
X29357142Y22547620D01*
X29214285Y22500000D01*
X29166666Y22452381D01*
X28309523Y22214286D02*
X28309523Y21547620D01*
X28547619Y22595239D02*
X28785714Y21880953D01*
X28166666Y21880953D01*
%TO.C,C5*%
X30166666Y14642858D02*
X30214285Y14595239D01*
X30357142Y14547620D01*
X30452380Y14547620D01*
X30595238Y14595239D01*
X30690476Y14690477D01*
X30738095Y14785715D01*
X30785714Y14976191D01*
X30785714Y15119048D01*
X30738095Y15309524D01*
X30690476Y15404762D01*
X30595238Y15500000D01*
X30452380Y15547620D01*
X30357142Y15547620D01*
X30214285Y15500000D01*
X30166666Y15452381D01*
X29261904Y15547620D02*
X29738095Y15547620D01*
X29785714Y15071429D01*
X29738095Y15119048D01*
X29642857Y15166667D01*
X29404761Y15166667D01*
X29309523Y15119048D01*
X29261904Y15071429D01*
X29214285Y14976191D01*
X29214285Y14738096D01*
X29261904Y14642858D01*
X29309523Y14595239D01*
X29404761Y14547620D01*
X29642857Y14547620D01*
X29738095Y14595239D01*
X29785714Y14642858D01*
%TO.C,C6*%
X28666666Y16642858D02*
X28714285Y16595239D01*
X28857142Y16547620D01*
X28952380Y16547620D01*
X29095238Y16595239D01*
X29190476Y16690477D01*
X29238095Y16785715D01*
X29285714Y16976191D01*
X29285714Y17119048D01*
X29238095Y17309524D01*
X29190476Y17404762D01*
X29095238Y17500000D01*
X28952380Y17547620D01*
X28857142Y17547620D01*
X28714285Y17500000D01*
X28666666Y17452381D01*
X27809523Y17547620D02*
X28000000Y17547620D01*
X28095238Y17500000D01*
X28142857Y17452381D01*
X28238095Y17309524D01*
X28285714Y17119048D01*
X28285714Y16738096D01*
X28238095Y16642858D01*
X28190476Y16595239D01*
X28095238Y16547620D01*
X27904761Y16547620D01*
X27809523Y16595239D01*
X27761904Y16642858D01*
X27714285Y16738096D01*
X27714285Y16976191D01*
X27761904Y17071429D01*
X27809523Y17119048D01*
X27904761Y17166667D01*
X28095238Y17166667D01*
X28190476Y17119048D01*
X28238095Y17071429D01*
X28285714Y16976191D01*
%TO.C,C7*%
X26666666Y16642858D02*
X26714285Y16595239D01*
X26857142Y16547620D01*
X26952380Y16547620D01*
X27095238Y16595239D01*
X27190476Y16690477D01*
X27238095Y16785715D01*
X27285714Y16976191D01*
X27285714Y17119048D01*
X27238095Y17309524D01*
X27190476Y17404762D01*
X27095238Y17500000D01*
X26952380Y17547620D01*
X26857142Y17547620D01*
X26714285Y17500000D01*
X26666666Y17452381D01*
X26333333Y17547620D02*
X25666666Y17547620D01*
X26095238Y16547620D01*
%TO.C,C8*%
X93966666Y34642858D02*
X94014285Y34595239D01*
X94157142Y34547620D01*
X94252380Y34547620D01*
X94395238Y34595239D01*
X94490476Y34690477D01*
X94538095Y34785715D01*
X94585714Y34976191D01*
X94585714Y35119048D01*
X94538095Y35309524D01*
X94490476Y35404762D01*
X94395238Y35500000D01*
X94252380Y35547620D01*
X94157142Y35547620D01*
X94014285Y35500000D01*
X93966666Y35452381D01*
X93395238Y35119048D02*
X93490476Y35166667D01*
X93538095Y35214286D01*
X93585714Y35309524D01*
X93585714Y35357143D01*
X93538095Y35452381D01*
X93490476Y35500000D01*
X93395238Y35547620D01*
X93204761Y35547620D01*
X93109523Y35500000D01*
X93061904Y35452381D01*
X93014285Y35357143D01*
X93014285Y35309524D01*
X93061904Y35214286D01*
X93109523Y35166667D01*
X93204761Y35119048D01*
X93395238Y35119048D01*
X93490476Y35071429D01*
X93538095Y35023810D01*
X93585714Y34928572D01*
X93585714Y34738096D01*
X93538095Y34642858D01*
X93490476Y34595239D01*
X93395238Y34547620D01*
X93204761Y34547620D01*
X93109523Y34595239D01*
X93061904Y34642858D01*
X93014285Y34738096D01*
X93014285Y34928572D01*
X93061904Y35023810D01*
X93109523Y35071429D01*
X93204761Y35119048D01*
%TO.C,Ce*%
X89357142Y26634048D02*
X89404761Y26681667D01*
X89452380Y26824524D01*
X89452380Y26919762D01*
X89404761Y27062620D01*
X89309523Y27157858D01*
X89214285Y27205477D01*
X89023809Y27253096D01*
X88880952Y27253096D01*
X88690476Y27205477D01*
X88595238Y27157858D01*
X88500000Y27062620D01*
X88452380Y26919762D01*
X88452380Y26824524D01*
X88500000Y26681667D01*
X88547619Y26634048D01*
X89404761Y25824524D02*
X89452380Y25919762D01*
X89452380Y26110239D01*
X89404761Y26205477D01*
X89309523Y26253096D01*
X88928571Y26253096D01*
X88833333Y26205477D01*
X88785714Y26110239D01*
X88785714Y25919762D01*
X88833333Y25824524D01*
X88928571Y25776905D01*
X89023809Y25776905D01*
X89119047Y26253096D01*
%TO.C,C10*%
X86224285Y39592286D02*
X86262380Y39554191D01*
X86376666Y39516096D01*
X86452857Y39516096D01*
X86567142Y39554191D01*
X86643333Y39630381D01*
X86681428Y39706572D01*
X86719523Y39858953D01*
X86719523Y39973239D01*
X86681428Y40125620D01*
X86643333Y40201810D01*
X86567142Y40278000D01*
X86452857Y40316096D01*
X86376666Y40316096D01*
X86262380Y40278000D01*
X86224285Y40239905D01*
X85462380Y39516096D02*
X85919523Y39516096D01*
X85690952Y39516096D02*
X85690952Y40316096D01*
X85767142Y40201810D01*
X85843333Y40125620D01*
X85919523Y40087524D01*
X84967142Y40316096D02*
X84890952Y40316096D01*
X84814761Y40278000D01*
X84776666Y40239905D01*
X84738571Y40163715D01*
X84700476Y40011334D01*
X84700476Y39820858D01*
X84738571Y39668477D01*
X84776666Y39592286D01*
X84814761Y39554191D01*
X84890952Y39516096D01*
X84967142Y39516096D01*
X85043333Y39554191D01*
X85081428Y39592286D01*
X85119523Y39668477D01*
X85157619Y39820858D01*
X85157619Y40011334D01*
X85119523Y40163715D01*
X85081428Y40239905D01*
X85043333Y40278000D01*
X84967142Y40316096D01*
%TO.C,C11*%
X74742857Y26742858D02*
X74790476Y26695239D01*
X74933333Y26647620D01*
X75028571Y26647620D01*
X75171428Y26695239D01*
X75266666Y26790477D01*
X75314285Y26885715D01*
X75361904Y27076191D01*
X75361904Y27219048D01*
X75314285Y27409524D01*
X75266666Y27504762D01*
X75171428Y27600000D01*
X75028571Y27647620D01*
X74933333Y27647620D01*
X74790476Y27600000D01*
X74742857Y27552381D01*
X73790476Y26647620D02*
X74361904Y26647620D01*
X74076190Y26647620D02*
X74076190Y27647620D01*
X74171428Y27504762D01*
X74266666Y27409524D01*
X74361904Y27361905D01*
X72838095Y26647620D02*
X73409523Y26647620D01*
X73123809Y26647620D02*
X73123809Y27647620D01*
X73219047Y27504762D01*
X73314285Y27409524D01*
X73409523Y27361905D01*
%TO.C,C12*%
X66742857Y35142858D02*
X66790476Y35095239D01*
X66933333Y35047620D01*
X67028571Y35047620D01*
X67171428Y35095239D01*
X67266666Y35190477D01*
X67314285Y35285715D01*
X67361904Y35476191D01*
X67361904Y35619048D01*
X67314285Y35809524D01*
X67266666Y35904762D01*
X67171428Y36000000D01*
X67028571Y36047620D01*
X66933333Y36047620D01*
X66790476Y36000000D01*
X66742857Y35952381D01*
X65790476Y35047620D02*
X66361904Y35047620D01*
X66076190Y35047620D02*
X66076190Y36047620D01*
X66171428Y35904762D01*
X66266666Y35809524D01*
X66361904Y35761905D01*
X65409523Y35952381D02*
X65361904Y36000000D01*
X65266666Y36047620D01*
X65028571Y36047620D01*
X64933333Y36000000D01*
X64885714Y35952381D01*
X64838095Y35857143D01*
X64838095Y35761905D01*
X64885714Y35619048D01*
X65457142Y35047620D01*
X64838095Y35047620D01*
%TO.C,C13*%
X71842857Y43842858D02*
X71890476Y43795239D01*
X72033333Y43747620D01*
X72128571Y43747620D01*
X72271428Y43795239D01*
X72366666Y43890477D01*
X72414285Y43985715D01*
X72461904Y44176191D01*
X72461904Y44319048D01*
X72414285Y44509524D01*
X72366666Y44604762D01*
X72271428Y44700000D01*
X72128571Y44747620D01*
X72033333Y44747620D01*
X71890476Y44700000D01*
X71842857Y44652381D01*
X70890476Y43747620D02*
X71461904Y43747620D01*
X71176190Y43747620D02*
X71176190Y44747620D01*
X71271428Y44604762D01*
X71366666Y44509524D01*
X71461904Y44461905D01*
X70557142Y44747620D02*
X69938095Y44747620D01*
X70271428Y44366667D01*
X70128571Y44366667D01*
X70033333Y44319048D01*
X69985714Y44271429D01*
X69938095Y44176191D01*
X69938095Y43938096D01*
X69985714Y43842858D01*
X70033333Y43795239D01*
X70128571Y43747620D01*
X70414285Y43747620D01*
X70509523Y43795239D01*
X70557142Y43842858D01*
%TO.C,C14*%
X86098857Y43076858D02*
X86146476Y43029239D01*
X86289333Y42981620D01*
X86384571Y42981620D01*
X86527428Y43029239D01*
X86622666Y43124477D01*
X86670285Y43219715D01*
X86717904Y43410191D01*
X86717904Y43553048D01*
X86670285Y43743524D01*
X86622666Y43838762D01*
X86527428Y43934000D01*
X86384571Y43981620D01*
X86289333Y43981620D01*
X86146476Y43934000D01*
X86098857Y43886381D01*
X85146476Y42981620D02*
X85717904Y42981620D01*
X85432190Y42981620D02*
X85432190Y43981620D01*
X85527428Y43838762D01*
X85622666Y43743524D01*
X85717904Y43695905D01*
X84289333Y43648286D02*
X84289333Y42981620D01*
X84527428Y44029239D02*
X84765523Y43314953D01*
X84146476Y43314953D01*
%TO.C,C15*%
X83585714Y30085715D02*
X83614285Y30057143D01*
X83700000Y30028572D01*
X83757142Y30028572D01*
X83842857Y30057143D01*
X83900000Y30114286D01*
X83928571Y30171429D01*
X83957142Y30285715D01*
X83957142Y30371429D01*
X83928571Y30485715D01*
X83900000Y30542858D01*
X83842857Y30600000D01*
X83757142Y30628572D01*
X83700000Y30628572D01*
X83614285Y30600000D01*
X83585714Y30571429D01*
X83014285Y30028572D02*
X83357142Y30028572D01*
X83185714Y30028572D02*
X83185714Y30628572D01*
X83242857Y30542858D01*
X83300000Y30485715D01*
X83357142Y30457143D01*
X82471428Y30628572D02*
X82757142Y30628572D01*
X82785714Y30342858D01*
X82757142Y30371429D01*
X82700000Y30400000D01*
X82557142Y30400000D01*
X82500000Y30371429D01*
X82471428Y30342858D01*
X82442857Y30285715D01*
X82442857Y30142858D01*
X82471428Y30085715D01*
X82500000Y30057143D01*
X82557142Y30028572D01*
X82700000Y30028572D01*
X82757142Y30057143D01*
X82785714Y30085715D01*
%TO.C,C16*%
X80785714Y27885715D02*
X80814285Y27857143D01*
X80900000Y27828572D01*
X80957142Y27828572D01*
X81042857Y27857143D01*
X81100000Y27914286D01*
X81128571Y27971429D01*
X81157142Y28085715D01*
X81157142Y28171429D01*
X81128571Y28285715D01*
X81100000Y28342858D01*
X81042857Y28400000D01*
X80957142Y28428572D01*
X80900000Y28428572D01*
X80814285Y28400000D01*
X80785714Y28371429D01*
X80214285Y27828572D02*
X80557142Y27828572D01*
X80385714Y27828572D02*
X80385714Y28428572D01*
X80442857Y28342858D01*
X80500000Y28285715D01*
X80557142Y28257143D01*
X79700000Y28428572D02*
X79814285Y28428572D01*
X79871428Y28400000D01*
X79900000Y28371429D01*
X79957142Y28285715D01*
X79985714Y28171429D01*
X79985714Y27942858D01*
X79957142Y27885715D01*
X79928571Y27857143D01*
X79871428Y27828572D01*
X79757142Y27828572D01*
X79700000Y27857143D01*
X79671428Y27885715D01*
X79642857Y27942858D01*
X79642857Y28085715D01*
X79671428Y28142858D01*
X79700000Y28171429D01*
X79757142Y28200000D01*
X79871428Y28200000D01*
X79928571Y28171429D01*
X79957142Y28142858D01*
X79985714Y28085715D01*
%TO.C,C17*%
X82442857Y25642858D02*
X82490476Y25595239D01*
X82633333Y25547620D01*
X82728571Y25547620D01*
X82871428Y25595239D01*
X82966666Y25690477D01*
X83014285Y25785715D01*
X83061904Y25976191D01*
X83061904Y26119048D01*
X83014285Y26309524D01*
X82966666Y26404762D01*
X82871428Y26500000D01*
X82728571Y26547620D01*
X82633333Y26547620D01*
X82490476Y26500000D01*
X82442857Y26452381D01*
X81490476Y25547620D02*
X82061904Y25547620D01*
X81776190Y25547620D02*
X81776190Y26547620D01*
X81871428Y26404762D01*
X81966666Y26309524D01*
X82061904Y26261905D01*
X81157142Y26547620D02*
X80490476Y26547620D01*
X80919047Y25547620D01*
%TO.C,C18*%
X75642857Y20442858D02*
X75690476Y20395239D01*
X75833333Y20347620D01*
X75928571Y20347620D01*
X76071428Y20395239D01*
X76166666Y20490477D01*
X76214285Y20585715D01*
X76261904Y20776191D01*
X76261904Y20919048D01*
X76214285Y21109524D01*
X76166666Y21204762D01*
X76071428Y21300000D01*
X75928571Y21347620D01*
X75833333Y21347620D01*
X75690476Y21300000D01*
X75642857Y21252381D01*
X74690476Y20347620D02*
X75261904Y20347620D01*
X74976190Y20347620D02*
X74976190Y21347620D01*
X75071428Y21204762D01*
X75166666Y21109524D01*
X75261904Y21061905D01*
X74119047Y20919048D02*
X74214285Y20966667D01*
X74261904Y21014286D01*
X74309523Y21109524D01*
X74309523Y21157143D01*
X74261904Y21252381D01*
X74214285Y21300000D01*
X74119047Y21347620D01*
X73928571Y21347620D01*
X73833333Y21300000D01*
X73785714Y21252381D01*
X73738095Y21157143D01*
X73738095Y21109524D01*
X73785714Y21014286D01*
X73833333Y20966667D01*
X73928571Y20919048D01*
X74119047Y20919048D01*
X74214285Y20871429D01*
X74261904Y20823810D01*
X74309523Y20728572D01*
X74309523Y20538096D01*
X74261904Y20442858D01*
X74214285Y20395239D01*
X74119047Y20347620D01*
X73928571Y20347620D01*
X73833333Y20395239D01*
X73785714Y20442858D01*
X73738095Y20538096D01*
X73738095Y20728572D01*
X73785714Y20823810D01*
X73833333Y20871429D01*
X73928571Y20919048D01*
%TO.C,C19*%
X75642857Y19042858D02*
X75690476Y18995239D01*
X75833333Y18947620D01*
X75928571Y18947620D01*
X76071428Y18995239D01*
X76166666Y19090477D01*
X76214285Y19185715D01*
X76261904Y19376191D01*
X76261904Y19519048D01*
X76214285Y19709524D01*
X76166666Y19804762D01*
X76071428Y19900000D01*
X75928571Y19947620D01*
X75833333Y19947620D01*
X75690476Y19900000D01*
X75642857Y19852381D01*
X74690476Y18947620D02*
X75261904Y18947620D01*
X74976190Y18947620D02*
X74976190Y19947620D01*
X75071428Y19804762D01*
X75166666Y19709524D01*
X75261904Y19661905D01*
X74214285Y18947620D02*
X74023809Y18947620D01*
X73928571Y18995239D01*
X73880952Y19042858D01*
X73785714Y19185715D01*
X73738095Y19376191D01*
X73738095Y19757143D01*
X73785714Y19852381D01*
X73833333Y19900000D01*
X73928571Y19947620D01*
X74119047Y19947620D01*
X74214285Y19900000D01*
X74261904Y19852381D01*
X74309523Y19757143D01*
X74309523Y19519048D01*
X74261904Y19423810D01*
X74214285Y19376191D01*
X74119047Y19328572D01*
X73928571Y19328572D01*
X73833333Y19376191D01*
X73785714Y19423810D01*
X73738095Y19519048D01*
%TO.C,C20*%
X64242857Y31242858D02*
X64290476Y31195239D01*
X64433333Y31147620D01*
X64528571Y31147620D01*
X64671428Y31195239D01*
X64766666Y31290477D01*
X64814285Y31385715D01*
X64861904Y31576191D01*
X64861904Y31719048D01*
X64814285Y31909524D01*
X64766666Y32004762D01*
X64671428Y32100000D01*
X64528571Y32147620D01*
X64433333Y32147620D01*
X64290476Y32100000D01*
X64242857Y32052381D01*
X63861904Y32052381D02*
X63814285Y32100000D01*
X63719047Y32147620D01*
X63480952Y32147620D01*
X63385714Y32100000D01*
X63338095Y32052381D01*
X63290476Y31957143D01*
X63290476Y31861905D01*
X63338095Y31719048D01*
X63909523Y31147620D01*
X63290476Y31147620D01*
X62671428Y32147620D02*
X62576190Y32147620D01*
X62480952Y32100000D01*
X62433333Y32052381D01*
X62385714Y31957143D01*
X62338095Y31766667D01*
X62338095Y31528572D01*
X62385714Y31338096D01*
X62433333Y31242858D01*
X62480952Y31195239D01*
X62576190Y31147620D01*
X62671428Y31147620D01*
X62766666Y31195239D01*
X62814285Y31242858D01*
X62861904Y31338096D01*
X62909523Y31528572D01*
X62909523Y31766667D01*
X62861904Y31957143D01*
X62814285Y32052381D01*
X62766666Y32100000D01*
X62671428Y32147620D01*
%TO.C,C21*%
X61842857Y25220858D02*
X61890476Y25173239D01*
X62033333Y25125620D01*
X62128571Y25125620D01*
X62271428Y25173239D01*
X62366666Y25268477D01*
X62414285Y25363715D01*
X62461904Y25554191D01*
X62461904Y25697048D01*
X62414285Y25887524D01*
X62366666Y25982762D01*
X62271428Y26078000D01*
X62128571Y26125620D01*
X62033333Y26125620D01*
X61890476Y26078000D01*
X61842857Y26030381D01*
X61461904Y26030381D02*
X61414285Y26078000D01*
X61319047Y26125620D01*
X61080952Y26125620D01*
X60985714Y26078000D01*
X60938095Y26030381D01*
X60890476Y25935143D01*
X60890476Y25839905D01*
X60938095Y25697048D01*
X61509523Y25125620D01*
X60890476Y25125620D01*
X59938095Y25125620D02*
X60509523Y25125620D01*
X60223809Y25125620D02*
X60223809Y26125620D01*
X60319047Y25982762D01*
X60414285Y25887524D01*
X60509523Y25839905D01*
%TO.C,C22*%
X97357142Y26242858D02*
X97404761Y26290477D01*
X97452380Y26433334D01*
X97452380Y26528572D01*
X97404761Y26671429D01*
X97309523Y26766667D01*
X97214285Y26814286D01*
X97023809Y26861905D01*
X96880952Y26861905D01*
X96690476Y26814286D01*
X96595238Y26766667D01*
X96500000Y26671429D01*
X96452380Y26528572D01*
X96452380Y26433334D01*
X96500000Y26290477D01*
X96547619Y26242858D01*
X96547619Y25861905D02*
X96500000Y25814286D01*
X96452380Y25719048D01*
X96452380Y25480953D01*
X96500000Y25385715D01*
X96547619Y25338096D01*
X96642857Y25290477D01*
X96738095Y25290477D01*
X96880952Y25338096D01*
X97452380Y25909524D01*
X97452380Y25290477D01*
X96547619Y24909524D02*
X96500000Y24861905D01*
X96452380Y24766667D01*
X96452380Y24528572D01*
X96500000Y24433334D01*
X96547619Y24385715D01*
X96642857Y24338096D01*
X96738095Y24338096D01*
X96880952Y24385715D01*
X97452380Y24957143D01*
X97452380Y24338096D01*
%TO.C,C23*%
X66727857Y33642858D02*
X66775476Y33595239D01*
X66918333Y33547620D01*
X67013571Y33547620D01*
X67156428Y33595239D01*
X67251666Y33690477D01*
X67299285Y33785715D01*
X67346904Y33976191D01*
X67346904Y34119048D01*
X67299285Y34309524D01*
X67251666Y34404762D01*
X67156428Y34500000D01*
X67013571Y34547620D01*
X66918333Y34547620D01*
X66775476Y34500000D01*
X66727857Y34452381D01*
X66346904Y34452381D02*
X66299285Y34500000D01*
X66204047Y34547620D01*
X65965952Y34547620D01*
X65870714Y34500000D01*
X65823095Y34452381D01*
X65775476Y34357143D01*
X65775476Y34261905D01*
X65823095Y34119048D01*
X66394523Y33547620D01*
X65775476Y33547620D01*
X65442142Y34547620D02*
X64823095Y34547620D01*
X65156428Y34166667D01*
X65013571Y34166667D01*
X64918333Y34119048D01*
X64870714Y34071429D01*
X64823095Y33976191D01*
X64823095Y33738096D01*
X64870714Y33642858D01*
X64918333Y33595239D01*
X65013571Y33547620D01*
X65299285Y33547620D01*
X65394523Y33595239D01*
X65442142Y33642858D01*
%TO.C,C24*%
X71842857Y42442858D02*
X71890476Y42395239D01*
X72033333Y42347620D01*
X72128571Y42347620D01*
X72271428Y42395239D01*
X72366666Y42490477D01*
X72414285Y42585715D01*
X72461904Y42776191D01*
X72461904Y42919048D01*
X72414285Y43109524D01*
X72366666Y43204762D01*
X72271428Y43300000D01*
X72128571Y43347620D01*
X72033333Y43347620D01*
X71890476Y43300000D01*
X71842857Y43252381D01*
X71461904Y43252381D02*
X71414285Y43300000D01*
X71319047Y43347620D01*
X71080952Y43347620D01*
X70985714Y43300000D01*
X70938095Y43252381D01*
X70890476Y43157143D01*
X70890476Y43061905D01*
X70938095Y42919048D01*
X71509523Y42347620D01*
X70890476Y42347620D01*
X70033333Y43014286D02*
X70033333Y42347620D01*
X70271428Y43395239D02*
X70509523Y42680953D01*
X69890476Y42680953D01*
%TO.C,C25*%
X64242857Y32642858D02*
X64290476Y32595239D01*
X64433333Y32547620D01*
X64528571Y32547620D01*
X64671428Y32595239D01*
X64766666Y32690477D01*
X64814285Y32785715D01*
X64861904Y32976191D01*
X64861904Y33119048D01*
X64814285Y33309524D01*
X64766666Y33404762D01*
X64671428Y33500000D01*
X64528571Y33547620D01*
X64433333Y33547620D01*
X64290476Y33500000D01*
X64242857Y33452381D01*
X63861904Y33452381D02*
X63814285Y33500000D01*
X63719047Y33547620D01*
X63480952Y33547620D01*
X63385714Y33500000D01*
X63338095Y33452381D01*
X63290476Y33357143D01*
X63290476Y33261905D01*
X63338095Y33119048D01*
X63909523Y32547620D01*
X63290476Y32547620D01*
X62385714Y33547620D02*
X62861904Y33547620D01*
X62909523Y33071429D01*
X62861904Y33119048D01*
X62766666Y33166667D01*
X62528571Y33166667D01*
X62433333Y33119048D01*
X62385714Y33071429D01*
X62338095Y32976191D01*
X62338095Y32738096D01*
X62385714Y32642858D01*
X62433333Y32595239D01*
X62528571Y32547620D01*
X62766666Y32547620D01*
X62861904Y32595239D01*
X62909523Y32642858D01*
%TO.C,C26*%
X30142857Y30642858D02*
X30190476Y30595239D01*
X30333333Y30547620D01*
X30428571Y30547620D01*
X30571428Y30595239D01*
X30666666Y30690477D01*
X30714285Y30785715D01*
X30761904Y30976191D01*
X30761904Y31119048D01*
X30714285Y31309524D01*
X30666666Y31404762D01*
X30571428Y31500000D01*
X30428571Y31547620D01*
X30333333Y31547620D01*
X30190476Y31500000D01*
X30142857Y31452381D01*
X29761904Y31452381D02*
X29714285Y31500000D01*
X29619047Y31547620D01*
X29380952Y31547620D01*
X29285714Y31500000D01*
X29238095Y31452381D01*
X29190476Y31357143D01*
X29190476Y31261905D01*
X29238095Y31119048D01*
X29809523Y30547620D01*
X29190476Y30547620D01*
X28333333Y31547620D02*
X28523809Y31547620D01*
X28619047Y31500000D01*
X28666666Y31452381D01*
X28761904Y31309524D01*
X28809523Y31119048D01*
X28809523Y30738096D01*
X28761904Y30642858D01*
X28714285Y30595239D01*
X28619047Y30547620D01*
X28428571Y30547620D01*
X28333333Y30595239D01*
X28285714Y30642858D01*
X28238095Y30738096D01*
X28238095Y30976191D01*
X28285714Y31071429D01*
X28333333Y31119048D01*
X28428571Y31166667D01*
X28619047Y31166667D01*
X28714285Y31119048D01*
X28761904Y31071429D01*
X28809523Y30976191D01*
%TO.C,C27*%
X21942857Y29942858D02*
X21990476Y29895239D01*
X22133333Y29847620D01*
X22228571Y29847620D01*
X22371428Y29895239D01*
X22466666Y29990477D01*
X22514285Y30085715D01*
X22561904Y30276191D01*
X22561904Y30419048D01*
X22514285Y30609524D01*
X22466666Y30704762D01*
X22371428Y30800000D01*
X22228571Y30847620D01*
X22133333Y30847620D01*
X21990476Y30800000D01*
X21942857Y30752381D01*
X21561904Y30752381D02*
X21514285Y30800000D01*
X21419047Y30847620D01*
X21180952Y30847620D01*
X21085714Y30800000D01*
X21038095Y30752381D01*
X20990476Y30657143D01*
X20990476Y30561905D01*
X21038095Y30419048D01*
X21609523Y29847620D01*
X20990476Y29847620D01*
X20657142Y30847620D02*
X19990476Y30847620D01*
X20419047Y29847620D01*
%TO.C,C28*%
X88042857Y35242858D02*
X88090476Y35195239D01*
X88233333Y35147620D01*
X88328571Y35147620D01*
X88471428Y35195239D01*
X88566666Y35290477D01*
X88614285Y35385715D01*
X88661904Y35576191D01*
X88661904Y35719048D01*
X88614285Y35909524D01*
X88566666Y36004762D01*
X88471428Y36100000D01*
X88328571Y36147620D01*
X88233333Y36147620D01*
X88090476Y36100000D01*
X88042857Y36052381D01*
X87661904Y36052381D02*
X87614285Y36100000D01*
X87519047Y36147620D01*
X87280952Y36147620D01*
X87185714Y36100000D01*
X87138095Y36052381D01*
X87090476Y35957143D01*
X87090476Y35861905D01*
X87138095Y35719048D01*
X87709523Y35147620D01*
X87090476Y35147620D01*
X86519047Y35719048D02*
X86614285Y35766667D01*
X86661904Y35814286D01*
X86709523Y35909524D01*
X86709523Y35957143D01*
X86661904Y36052381D01*
X86614285Y36100000D01*
X86519047Y36147620D01*
X86328571Y36147620D01*
X86233333Y36100000D01*
X86185714Y36052381D01*
X86138095Y35957143D01*
X86138095Y35909524D01*
X86185714Y35814286D01*
X86233333Y35766667D01*
X86328571Y35719048D01*
X86519047Y35719048D01*
X86614285Y35671429D01*
X86661904Y35623810D01*
X86709523Y35528572D01*
X86709523Y35338096D01*
X86661904Y35242858D01*
X86614285Y35195239D01*
X86519047Y35147620D01*
X86328571Y35147620D01*
X86233333Y35195239D01*
X86185714Y35242858D01*
X86138095Y35338096D01*
X86138095Y35528572D01*
X86185714Y35623810D01*
X86233333Y35671429D01*
X86328571Y35719048D01*
%TO.C,D1*%
X46238095Y28047620D02*
X46238095Y29047620D01*
X46000000Y29047620D01*
X45857142Y29000000D01*
X45761904Y28904762D01*
X45714285Y28809524D01*
X45666666Y28619048D01*
X45666666Y28476191D01*
X45714285Y28285715D01*
X45761904Y28190477D01*
X45857142Y28095239D01*
X46000000Y28047620D01*
X46238095Y28047620D01*
X44714285Y28047620D02*
X45285714Y28047620D01*
X45000000Y28047620D02*
X45000000Y29047620D01*
X45095238Y28904762D01*
X45190476Y28809524D01*
X45285714Y28761905D01*
%TO.C,D6*%
X92138095Y46547620D02*
X92138095Y47547620D01*
X91900000Y47547620D01*
X91757142Y47500000D01*
X91661904Y47404762D01*
X91614285Y47309524D01*
X91566666Y47119048D01*
X91566666Y46976191D01*
X91614285Y46785715D01*
X91661904Y46690477D01*
X91757142Y46595239D01*
X91900000Y46547620D01*
X92138095Y46547620D01*
X90709523Y47547620D02*
X90900000Y47547620D01*
X90995238Y47500000D01*
X91042857Y47452381D01*
X91138095Y47309524D01*
X91185714Y47119048D01*
X91185714Y46738096D01*
X91138095Y46642858D01*
X91090476Y46595239D01*
X90995238Y46547620D01*
X90804761Y46547620D01*
X90709523Y46595239D01*
X90661904Y46642858D01*
X90614285Y46738096D01*
X90614285Y46976191D01*
X90661904Y47071429D01*
X90709523Y47119048D01*
X90804761Y47166667D01*
X90995238Y47166667D01*
X91090476Y47119048D01*
X91138095Y47071429D01*
X91185714Y46976191D01*
%TO.C,D7*%
X64738095Y46547620D02*
X64738095Y47547620D01*
X64500000Y47547620D01*
X64357142Y47500000D01*
X64261904Y47404762D01*
X64214285Y47309524D01*
X64166666Y47119048D01*
X64166666Y46976191D01*
X64214285Y46785715D01*
X64261904Y46690477D01*
X64357142Y46595239D01*
X64500000Y46547620D01*
X64738095Y46547620D01*
X63833333Y47547620D02*
X63166666Y47547620D01*
X63595238Y46547620D01*
%TO.C,IC1*%
X26276190Y41347620D02*
X26276190Y42347620D01*
X25228571Y41442858D02*
X25276190Y41395239D01*
X25419047Y41347620D01*
X25514285Y41347620D01*
X25657142Y41395239D01*
X25752380Y41490477D01*
X25800000Y41585715D01*
X25847619Y41776191D01*
X25847619Y41919048D01*
X25800000Y42109524D01*
X25752380Y42204762D01*
X25657142Y42300000D01*
X25514285Y42347620D01*
X25419047Y42347620D01*
X25276190Y42300000D01*
X25228571Y42252381D01*
X24276190Y41347620D02*
X24847619Y41347620D01*
X24561904Y41347620D02*
X24561904Y42347620D01*
X24657142Y42204762D01*
X24752380Y42109524D01*
X24847619Y42061905D01*
%TO.C,J3*%
X97133333Y35747620D02*
X97133333Y35033334D01*
X97180952Y34890477D01*
X97276190Y34795239D01*
X97419047Y34747620D01*
X97514285Y34747620D01*
X96752380Y35747620D02*
X96133333Y35747620D01*
X96466666Y35366667D01*
X96323809Y35366667D01*
X96228571Y35319048D01*
X96180952Y35271429D01*
X96133333Y35176191D01*
X96133333Y34938096D01*
X96180952Y34842858D01*
X96228571Y34795239D01*
X96323809Y34747620D01*
X96609523Y34747620D01*
X96704761Y34795239D01*
X96752380Y34842858D01*
%TO.C,J4*%
X90533333Y37547620D02*
X90533333Y36833334D01*
X90580952Y36690477D01*
X90676190Y36595239D01*
X90819047Y36547620D01*
X90914285Y36547620D01*
X89628571Y37214286D02*
X89628571Y36547620D01*
X89866666Y37595239D02*
X90104761Y36880953D01*
X89485714Y36880953D01*
%TO.C,J5*%
X66333333Y37547620D02*
X66333333Y36833334D01*
X66380952Y36690477D01*
X66476190Y36595239D01*
X66619047Y36547620D01*
X66714285Y36547620D01*
X65380952Y37547620D02*
X65857142Y37547620D01*
X65904761Y37071429D01*
X65857142Y37119048D01*
X65761904Y37166667D01*
X65523809Y37166667D01*
X65428571Y37119048D01*
X65380952Y37071429D01*
X65333333Y36976191D01*
X65333333Y36738096D01*
X65380952Y36642858D01*
X65428571Y36595239D01*
X65523809Y36547620D01*
X65761904Y36547620D01*
X65857142Y36595239D01*
X65904761Y36642858D01*
%TO.C,J6*%
X58433333Y24147620D02*
X58433333Y23433334D01*
X58480952Y23290477D01*
X58576190Y23195239D01*
X58719047Y23147620D01*
X58814285Y23147620D01*
X57528571Y24147620D02*
X57719047Y24147620D01*
X57814285Y24100000D01*
X57861904Y24052381D01*
X57957142Y23909524D01*
X58004761Y23719048D01*
X58004761Y23338096D01*
X57957142Y23242858D01*
X57909523Y23195239D01*
X57814285Y23147620D01*
X57623809Y23147620D01*
X57528571Y23195239D01*
X57480952Y23242858D01*
X57433333Y23338096D01*
X57433333Y23576191D01*
X57480952Y23671429D01*
X57528571Y23719048D01*
X57623809Y23766667D01*
X57814285Y23766667D01*
X57909523Y23719048D01*
X57957142Y23671429D01*
X58004761Y23576191D01*
%TO.C,J7*%
X25833333Y44547620D02*
X25833333Y43833334D01*
X25880952Y43690477D01*
X25976190Y43595239D01*
X26119047Y43547620D01*
X26214285Y43547620D01*
X25452380Y44547620D02*
X24785714Y44547620D01*
X25214285Y43547620D01*
%TO.C,L1*%
X26166666Y9547620D02*
X26642857Y9547620D01*
X26642857Y10547620D01*
X25309523Y9547620D02*
X25880952Y9547620D01*
X25595238Y9547620D02*
X25595238Y10547620D01*
X25690476Y10404762D01*
X25785714Y10309524D01*
X25880952Y10261905D01*
%TO.C,Q1*%
X85295238Y14652381D02*
X85390476Y14700000D01*
X85485714Y14795239D01*
X85628571Y14938096D01*
X85723809Y14985715D01*
X85819047Y14985715D01*
X85771428Y14747620D02*
X85866666Y14795239D01*
X85961904Y14890477D01*
X86009523Y15080953D01*
X86009523Y15414286D01*
X85961904Y15604762D01*
X85866666Y15700000D01*
X85771428Y15747620D01*
X85580952Y15747620D01*
X85485714Y15700000D01*
X85390476Y15604762D01*
X85342857Y15414286D01*
X85342857Y15080953D01*
X85390476Y14890477D01*
X85485714Y14795239D01*
X85580952Y14747620D01*
X85771428Y14747620D01*
X84390476Y14747620D02*
X84961904Y14747620D01*
X84676190Y14747620D02*
X84676190Y15747620D01*
X84771428Y15604762D01*
X84866666Y15509524D01*
X84961904Y15461905D01*
%TO.C,Q3*%
X78495238Y14652381D02*
X78590476Y14700000D01*
X78685714Y14795239D01*
X78828571Y14938096D01*
X78923809Y14985715D01*
X79019047Y14985715D01*
X78971428Y14747620D02*
X79066666Y14795239D01*
X79161904Y14890477D01*
X79209523Y15080953D01*
X79209523Y15414286D01*
X79161904Y15604762D01*
X79066666Y15700000D01*
X78971428Y15747620D01*
X78780952Y15747620D01*
X78685714Y15700000D01*
X78590476Y15604762D01*
X78542857Y15414286D01*
X78542857Y15080953D01*
X78590476Y14890477D01*
X78685714Y14795239D01*
X78780952Y14747620D01*
X78971428Y14747620D01*
X78209523Y15747620D02*
X77590476Y15747620D01*
X77923809Y15366667D01*
X77780952Y15366667D01*
X77685714Y15319048D01*
X77638095Y15271429D01*
X77590476Y15176191D01*
X77590476Y14938096D01*
X77638095Y14842858D01*
X77685714Y14795239D01*
X77780952Y14747620D01*
X78066666Y14747620D01*
X78161904Y14795239D01*
X78209523Y14842858D01*
%TO.C,Q5*%
X71895238Y14652381D02*
X71990476Y14700000D01*
X72085714Y14795239D01*
X72228571Y14938096D01*
X72323809Y14985715D01*
X72419047Y14985715D01*
X72371428Y14747620D02*
X72466666Y14795239D01*
X72561904Y14890477D01*
X72609523Y15080953D01*
X72609523Y15414286D01*
X72561904Y15604762D01*
X72466666Y15700000D01*
X72371428Y15747620D01*
X72180952Y15747620D01*
X72085714Y15700000D01*
X71990476Y15604762D01*
X71942857Y15414286D01*
X71942857Y15080953D01*
X71990476Y14890477D01*
X72085714Y14795239D01*
X72180952Y14747620D01*
X72371428Y14747620D01*
X71038095Y15747620D02*
X71514285Y15747620D01*
X71561904Y15271429D01*
X71514285Y15319048D01*
X71419047Y15366667D01*
X71180952Y15366667D01*
X71085714Y15319048D01*
X71038095Y15271429D01*
X70990476Y15176191D01*
X70990476Y14938096D01*
X71038095Y14842858D01*
X71085714Y14795239D01*
X71180952Y14747620D01*
X71419047Y14747620D01*
X71514285Y14795239D01*
X71561904Y14842858D01*
%TO.C,Q7*%
X65295238Y14652381D02*
X65390476Y14700000D01*
X65485714Y14795239D01*
X65628571Y14938096D01*
X65723809Y14985715D01*
X65819047Y14985715D01*
X65771428Y14747620D02*
X65866666Y14795239D01*
X65961904Y14890477D01*
X66009523Y15080953D01*
X66009523Y15414286D01*
X65961904Y15604762D01*
X65866666Y15700000D01*
X65771428Y15747620D01*
X65580952Y15747620D01*
X65485714Y15700000D01*
X65390476Y15604762D01*
X65342857Y15414286D01*
X65342857Y15080953D01*
X65390476Y14890477D01*
X65485714Y14795239D01*
X65580952Y14747620D01*
X65771428Y14747620D01*
X65009523Y15747620D02*
X64342857Y15747620D01*
X64771428Y14747620D01*
%TO.C,R1*%
X30166666Y24047620D02*
X30500000Y24523810D01*
X30738095Y24047620D02*
X30738095Y25047620D01*
X30357142Y25047620D01*
X30261904Y25000000D01*
X30214285Y24952381D01*
X30166666Y24857143D01*
X30166666Y24714286D01*
X30214285Y24619048D01*
X30261904Y24571429D01*
X30357142Y24523810D01*
X30738095Y24523810D01*
X29214285Y24047620D02*
X29785714Y24047620D01*
X29500000Y24047620D02*
X29500000Y25047620D01*
X29595238Y24904762D01*
X29690476Y24809524D01*
X29785714Y24761905D01*
%TO.C,R2*%
X25166666Y27977620D02*
X25500000Y28453810D01*
X25738095Y27977620D02*
X25738095Y28977620D01*
X25357142Y28977620D01*
X25261904Y28930000D01*
X25214285Y28882381D01*
X25166666Y28787143D01*
X25166666Y28644286D01*
X25214285Y28549048D01*
X25261904Y28501429D01*
X25357142Y28453810D01*
X25738095Y28453810D01*
X24785714Y28882381D02*
X24738095Y28930000D01*
X24642857Y28977620D01*
X24404761Y28977620D01*
X24309523Y28930000D01*
X24261904Y28882381D01*
X24214285Y28787143D01*
X24214285Y28691905D01*
X24261904Y28549048D01*
X24833333Y27977620D01*
X24214285Y27977620D01*
%TO.C,R3*%
X25166666Y23117620D02*
X25500000Y23593810D01*
X25738095Y23117620D02*
X25738095Y24117620D01*
X25357142Y24117620D01*
X25261904Y24070000D01*
X25214285Y24022381D01*
X25166666Y23927143D01*
X25166666Y23784286D01*
X25214285Y23689048D01*
X25261904Y23641429D01*
X25357142Y23593810D01*
X25738095Y23593810D01*
X24833333Y24117620D02*
X24214285Y24117620D01*
X24547619Y23736667D01*
X24404761Y23736667D01*
X24309523Y23689048D01*
X24261904Y23641429D01*
X24214285Y23546191D01*
X24214285Y23308096D01*
X24261904Y23212858D01*
X24309523Y23165239D01*
X24404761Y23117620D01*
X24690476Y23117620D01*
X24785714Y23165239D01*
X24833333Y23212858D01*
%TO.C,R4*%
X84497969Y25862268D02*
X85070389Y25963283D01*
X84902030Y25458207D02*
X85609137Y26165313D01*
X85339763Y26434688D01*
X85238748Y26468359D01*
X85171404Y26468359D01*
X85070389Y26434688D01*
X84969374Y26333672D01*
X84935702Y26232657D01*
X84935702Y26165313D01*
X84969374Y26064298D01*
X85238748Y25794924D01*
X84363282Y26939764D02*
X83891877Y26468359D01*
X84801015Y27040779D02*
X84464297Y26367344D01*
X84026564Y26805077D01*
%TO.C,R5*%
X80766666Y19147620D02*
X81100000Y19623810D01*
X81338095Y19147620D02*
X81338095Y20147620D01*
X80957142Y20147620D01*
X80861904Y20100000D01*
X80814285Y20052381D01*
X80766666Y19957143D01*
X80766666Y19814286D01*
X80814285Y19719048D01*
X80861904Y19671429D01*
X80957142Y19623810D01*
X81338095Y19623810D01*
X79861904Y20147620D02*
X80338095Y20147620D01*
X80385714Y19671429D01*
X80338095Y19719048D01*
X80242857Y19766667D01*
X80004761Y19766667D01*
X79909523Y19719048D01*
X79861904Y19671429D01*
X79814285Y19576191D01*
X79814285Y19338096D01*
X79861904Y19242858D01*
X79909523Y19195239D01*
X80004761Y19147620D01*
X80242857Y19147620D01*
X80338095Y19195239D01*
X80385714Y19242858D01*
%TO.C,R6*%
X85666666Y17547620D02*
X86000000Y18023810D01*
X86238095Y17547620D02*
X86238095Y18547620D01*
X85857142Y18547620D01*
X85761904Y18500000D01*
X85714285Y18452381D01*
X85666666Y18357143D01*
X85666666Y18214286D01*
X85714285Y18119048D01*
X85761904Y18071429D01*
X85857142Y18023810D01*
X86238095Y18023810D01*
X84809523Y18547620D02*
X85000000Y18547620D01*
X85095238Y18500000D01*
X85142857Y18452381D01*
X85238095Y18309524D01*
X85285714Y18119048D01*
X85285714Y17738096D01*
X85238095Y17642858D01*
X85190476Y17595239D01*
X85095238Y17547620D01*
X84904761Y17547620D01*
X84809523Y17595239D01*
X84761904Y17642858D01*
X84714285Y17738096D01*
X84714285Y17976191D01*
X84761904Y18071429D01*
X84809523Y18119048D01*
X84904761Y18166667D01*
X85095238Y18166667D01*
X85190476Y18119048D01*
X85238095Y18071429D01*
X85285714Y17976191D01*
%TO.C,R7*%
X96652380Y9766667D02*
X96176190Y10100000D01*
X96652380Y10338096D02*
X95652380Y10338096D01*
X95652380Y9957143D01*
X95700000Y9861905D01*
X95747619Y9814286D01*
X95842857Y9766667D01*
X95985714Y9766667D01*
X96080952Y9814286D01*
X96128571Y9861905D01*
X96176190Y9957143D01*
X96176190Y10338096D01*
X95652380Y9433334D02*
X95652380Y8766667D01*
X96652380Y9195239D01*
%TO.C,R8*%
X78766666Y16547620D02*
X79100000Y17023810D01*
X79338095Y16547620D02*
X79338095Y17547620D01*
X78957142Y17547620D01*
X78861904Y17500000D01*
X78814285Y17452381D01*
X78766666Y17357143D01*
X78766666Y17214286D01*
X78814285Y17119048D01*
X78861904Y17071429D01*
X78957142Y17023810D01*
X79338095Y17023810D01*
X78195238Y17119048D02*
X78290476Y17166667D01*
X78338095Y17214286D01*
X78385714Y17309524D01*
X78385714Y17357143D01*
X78338095Y17452381D01*
X78290476Y17500000D01*
X78195238Y17547620D01*
X78004761Y17547620D01*
X77909523Y17500000D01*
X77861904Y17452381D01*
X77814285Y17357143D01*
X77814285Y17309524D01*
X77861904Y17214286D01*
X77909523Y17166667D01*
X78004761Y17119048D01*
X78195238Y17119048D01*
X78290476Y17071429D01*
X78338095Y17023810D01*
X78385714Y16928572D01*
X78385714Y16738096D01*
X78338095Y16642858D01*
X78290476Y16595239D01*
X78195238Y16547620D01*
X78004761Y16547620D01*
X77909523Y16595239D01*
X77861904Y16642858D01*
X77814285Y16738096D01*
X77814285Y16928572D01*
X77861904Y17023810D01*
X77909523Y17071429D01*
X78004761Y17119048D01*
%TO.C,R9*%
X84166666Y1047620D02*
X84500000Y1523810D01*
X84738095Y1047620D02*
X84738095Y2047620D01*
X84357142Y2047620D01*
X84261904Y2000000D01*
X84214285Y1952381D01*
X84166666Y1857143D01*
X84166666Y1714286D01*
X84214285Y1619048D01*
X84261904Y1571429D01*
X84357142Y1523810D01*
X84738095Y1523810D01*
X83690476Y1047620D02*
X83500000Y1047620D01*
X83404761Y1095239D01*
X83357142Y1142858D01*
X83261904Y1285715D01*
X83214285Y1476191D01*
X83214285Y1857143D01*
X83261904Y1952381D01*
X83309523Y2000000D01*
X83404761Y2047620D01*
X83595238Y2047620D01*
X83690476Y2000000D01*
X83738095Y1952381D01*
X83785714Y1857143D01*
X83785714Y1619048D01*
X83738095Y1523810D01*
X83690476Y1476191D01*
X83595238Y1428572D01*
X83404761Y1428572D01*
X83309523Y1476191D01*
X83261904Y1523810D01*
X83214285Y1619048D01*
%TO.C,R10*%
X72442857Y17547620D02*
X72776190Y18023810D01*
X73014285Y17547620D02*
X73014285Y18547620D01*
X72633333Y18547620D01*
X72538095Y18500000D01*
X72490476Y18452381D01*
X72442857Y18357143D01*
X72442857Y18214286D01*
X72490476Y18119048D01*
X72538095Y18071429D01*
X72633333Y18023810D01*
X73014285Y18023810D01*
X71490476Y17547620D02*
X72061904Y17547620D01*
X71776190Y17547620D02*
X71776190Y18547620D01*
X71871428Y18404762D01*
X71966666Y18309524D01*
X72061904Y18261905D01*
X70871428Y18547620D02*
X70776190Y18547620D01*
X70680952Y18500000D01*
X70633333Y18452381D01*
X70585714Y18357143D01*
X70538095Y18166667D01*
X70538095Y17928572D01*
X70585714Y17738096D01*
X70633333Y17642858D01*
X70680952Y17595239D01*
X70776190Y17547620D01*
X70871428Y17547620D01*
X70966666Y17595239D01*
X71014285Y17642858D01*
X71061904Y17738096D01*
X71109523Y17928572D01*
X71109523Y18166667D01*
X71061904Y18357143D01*
X71014285Y18452381D01*
X70966666Y18500000D01*
X70871428Y18547620D01*
%TO.C,R11*%
X72142857Y1047620D02*
X72476190Y1523810D01*
X72714285Y1047620D02*
X72714285Y2047620D01*
X72333333Y2047620D01*
X72238095Y2000000D01*
X72190476Y1952381D01*
X72142857Y1857143D01*
X72142857Y1714286D01*
X72190476Y1619048D01*
X72238095Y1571429D01*
X72333333Y1523810D01*
X72714285Y1523810D01*
X71190476Y1047620D02*
X71761904Y1047620D01*
X71476190Y1047620D02*
X71476190Y2047620D01*
X71571428Y1904762D01*
X71666666Y1809524D01*
X71761904Y1761905D01*
X70238095Y1047620D02*
X70809523Y1047620D01*
X70523809Y1047620D02*
X70523809Y2047620D01*
X70619047Y1904762D01*
X70714285Y1809524D01*
X70809523Y1761905D01*
%TO.C,R12*%
X65842857Y17547620D02*
X66176190Y18023810D01*
X66414285Y17547620D02*
X66414285Y18547620D01*
X66033333Y18547620D01*
X65938095Y18500000D01*
X65890476Y18452381D01*
X65842857Y18357143D01*
X65842857Y18214286D01*
X65890476Y18119048D01*
X65938095Y18071429D01*
X66033333Y18023810D01*
X66414285Y18023810D01*
X64890476Y17547620D02*
X65461904Y17547620D01*
X65176190Y17547620D02*
X65176190Y18547620D01*
X65271428Y18404762D01*
X65366666Y18309524D01*
X65461904Y18261905D01*
X64509523Y18452381D02*
X64461904Y18500000D01*
X64366666Y18547620D01*
X64128571Y18547620D01*
X64033333Y18500000D01*
X63985714Y18452381D01*
X63938095Y18357143D01*
X63938095Y18261905D01*
X63985714Y18119048D01*
X64557142Y17547620D01*
X63938095Y17547620D01*
%TO.C,R13*%
X60652380Y9742858D02*
X60176190Y10076191D01*
X60652380Y10314286D02*
X59652380Y10314286D01*
X59652380Y9933334D01*
X59700000Y9838096D01*
X59747619Y9790477D01*
X59842857Y9742858D01*
X59985714Y9742858D01*
X60080952Y9790477D01*
X60128571Y9838096D01*
X60176190Y9933334D01*
X60176190Y10314286D01*
X60652380Y8790477D02*
X60652380Y9361905D01*
X60652380Y9076191D02*
X59652380Y9076191D01*
X59795238Y9171429D01*
X59890476Y9266667D01*
X59938095Y9361905D01*
X59652380Y8457143D02*
X59652380Y7838096D01*
X60033333Y8171429D01*
X60033333Y8028572D01*
X60080952Y7933334D01*
X60128571Y7885715D01*
X60223809Y7838096D01*
X60461904Y7838096D01*
X60557142Y7885715D01*
X60604761Y7933334D01*
X60652380Y8028572D01*
X60652380Y8314286D01*
X60604761Y8409524D01*
X60557142Y8457143D01*
%TO.C,R14*%
X59042857Y32747620D02*
X59376190Y33223810D01*
X59614285Y32747620D02*
X59614285Y33747620D01*
X59233333Y33747620D01*
X59138095Y33700000D01*
X59090476Y33652381D01*
X59042857Y33557143D01*
X59042857Y33414286D01*
X59090476Y33319048D01*
X59138095Y33271429D01*
X59233333Y33223810D01*
X59614285Y33223810D01*
X58090476Y32747620D02*
X58661904Y32747620D01*
X58376190Y32747620D02*
X58376190Y33747620D01*
X58471428Y33604762D01*
X58566666Y33509524D01*
X58661904Y33461905D01*
X57233333Y33414286D02*
X57233333Y32747620D01*
X57471428Y33795239D02*
X57709523Y33080953D01*
X57090476Y33080953D01*
%TO.C,R15*%
X88942857Y46547620D02*
X89276190Y47023810D01*
X89514285Y46547620D02*
X89514285Y47547620D01*
X89133333Y47547620D01*
X89038095Y47500000D01*
X88990476Y47452381D01*
X88942857Y47357143D01*
X88942857Y47214286D01*
X88990476Y47119048D01*
X89038095Y47071429D01*
X89133333Y47023810D01*
X89514285Y47023810D01*
X87990476Y46547620D02*
X88561904Y46547620D01*
X88276190Y46547620D02*
X88276190Y47547620D01*
X88371428Y47404762D01*
X88466666Y47309524D01*
X88561904Y47261905D01*
X87085714Y47547620D02*
X87561904Y47547620D01*
X87609523Y47071429D01*
X87561904Y47119048D01*
X87466666Y47166667D01*
X87228571Y47166667D01*
X87133333Y47119048D01*
X87085714Y47071429D01*
X87038095Y46976191D01*
X87038095Y46738096D01*
X87085714Y46642858D01*
X87133333Y46595239D01*
X87228571Y46547620D01*
X87466666Y46547620D01*
X87561904Y46595239D01*
X87609523Y46642858D01*
%TO.C,R16*%
X68342857Y46547620D02*
X68676190Y47023810D01*
X68914285Y46547620D02*
X68914285Y47547620D01*
X68533333Y47547620D01*
X68438095Y47500000D01*
X68390476Y47452381D01*
X68342857Y47357143D01*
X68342857Y47214286D01*
X68390476Y47119048D01*
X68438095Y47071429D01*
X68533333Y47023810D01*
X68914285Y47023810D01*
X67390476Y46547620D02*
X67961904Y46547620D01*
X67676190Y46547620D02*
X67676190Y47547620D01*
X67771428Y47404762D01*
X67866666Y47309524D01*
X67961904Y47261905D01*
X66533333Y47547620D02*
X66723809Y47547620D01*
X66819047Y47500000D01*
X66866666Y47452381D01*
X66961904Y47309524D01*
X67009523Y47119048D01*
X67009523Y46738096D01*
X66961904Y46642858D01*
X66914285Y46595239D01*
X66819047Y46547620D01*
X66628571Y46547620D01*
X66533333Y46595239D01*
X66485714Y46642858D01*
X66438095Y46738096D01*
X66438095Y46976191D01*
X66485714Y47071429D01*
X66533333Y47119048D01*
X66628571Y47166667D01*
X66819047Y47166667D01*
X66914285Y47119048D01*
X66961904Y47071429D01*
X67009523Y46976191D01*
%TO.C,R17*%
X36142857Y26547620D02*
X36476190Y27023810D01*
X36714285Y26547620D02*
X36714285Y27547620D01*
X36333333Y27547620D01*
X36238095Y27500000D01*
X36190476Y27452381D01*
X36142857Y27357143D01*
X36142857Y27214286D01*
X36190476Y27119048D01*
X36238095Y27071429D01*
X36333333Y27023810D01*
X36714285Y27023810D01*
X35190476Y26547620D02*
X35761904Y26547620D01*
X35476190Y26547620D02*
X35476190Y27547620D01*
X35571428Y27404762D01*
X35666666Y27309524D01*
X35761904Y27261905D01*
X34857142Y27547620D02*
X34190476Y27547620D01*
X34619047Y26547620D01*
%TO.C,R18*%
X72842857Y30027620D02*
X73176190Y30503810D01*
X73414285Y30027620D02*
X73414285Y31027620D01*
X73033333Y31027620D01*
X72938095Y30980000D01*
X72890476Y30932381D01*
X72842857Y30837143D01*
X72842857Y30694286D01*
X72890476Y30599048D01*
X72938095Y30551429D01*
X73033333Y30503810D01*
X73414285Y30503810D01*
X71890476Y30027620D02*
X72461904Y30027620D01*
X72176190Y30027620D02*
X72176190Y31027620D01*
X72271428Y30884762D01*
X72366666Y30789524D01*
X72461904Y30741905D01*
X71319047Y30599048D02*
X71414285Y30646667D01*
X71461904Y30694286D01*
X71509523Y30789524D01*
X71509523Y30837143D01*
X71461904Y30932381D01*
X71414285Y30980000D01*
X71319047Y31027620D01*
X71128571Y31027620D01*
X71033333Y30980000D01*
X70985714Y30932381D01*
X70938095Y30837143D01*
X70938095Y30789524D01*
X70985714Y30694286D01*
X71033333Y30646667D01*
X71128571Y30599048D01*
X71319047Y30599048D01*
X71414285Y30551429D01*
X71461904Y30503810D01*
X71509523Y30408572D01*
X71509523Y30218096D01*
X71461904Y30122858D01*
X71414285Y30075239D01*
X71319047Y30027620D01*
X71128571Y30027620D01*
X71033333Y30075239D01*
X70985714Y30122858D01*
X70938095Y30218096D01*
X70938095Y30408572D01*
X70985714Y30503810D01*
X71033333Y30551429D01*
X71128571Y30599048D01*
%TO.C,R19*%
X30642857Y28977620D02*
X30976190Y29453810D01*
X31214285Y28977620D02*
X31214285Y29977620D01*
X30833333Y29977620D01*
X30738095Y29930000D01*
X30690476Y29882381D01*
X30642857Y29787143D01*
X30642857Y29644286D01*
X30690476Y29549048D01*
X30738095Y29501429D01*
X30833333Y29453810D01*
X31214285Y29453810D01*
X29690476Y28977620D02*
X30261904Y28977620D01*
X29976190Y28977620D02*
X29976190Y29977620D01*
X30071428Y29834762D01*
X30166666Y29739524D01*
X30261904Y29691905D01*
X29214285Y28977620D02*
X29023809Y28977620D01*
X28928571Y29025239D01*
X28880952Y29072858D01*
X28785714Y29215715D01*
X28738095Y29406191D01*
X28738095Y29787143D01*
X28785714Y29882381D01*
X28833333Y29930000D01*
X28928571Y29977620D01*
X29119047Y29977620D01*
X29214285Y29930000D01*
X29261904Y29882381D01*
X29309523Y29787143D01*
X29309523Y29549048D01*
X29261904Y29453810D01*
X29214285Y29406191D01*
X29119047Y29358572D01*
X28928571Y29358572D01*
X28833333Y29406191D01*
X28785714Y29453810D01*
X28738095Y29549048D01*
%TO.C,R20*%
X45642857Y31547620D02*
X45976190Y32023810D01*
X46214285Y31547620D02*
X46214285Y32547620D01*
X45833333Y32547620D01*
X45738095Y32500000D01*
X45690476Y32452381D01*
X45642857Y32357143D01*
X45642857Y32214286D01*
X45690476Y32119048D01*
X45738095Y32071429D01*
X45833333Y32023810D01*
X46214285Y32023810D01*
X45261904Y32452381D02*
X45214285Y32500000D01*
X45119047Y32547620D01*
X44880952Y32547620D01*
X44785714Y32500000D01*
X44738095Y32452381D01*
X44690476Y32357143D01*
X44690476Y32261905D01*
X44738095Y32119048D01*
X45309523Y31547620D01*
X44690476Y31547620D01*
X44071428Y32547620D02*
X43976190Y32547620D01*
X43880952Y32500000D01*
X43833333Y32452381D01*
X43785714Y32357143D01*
X43738095Y32166667D01*
X43738095Y31928572D01*
X43785714Y31738096D01*
X43833333Y31642858D01*
X43880952Y31595239D01*
X43976190Y31547620D01*
X44071428Y31547620D01*
X44166666Y31595239D01*
X44214285Y31642858D01*
X44261904Y31738096D01*
X44309523Y31928572D01*
X44309523Y32166667D01*
X44261904Y32357143D01*
X44214285Y32452381D01*
X44166666Y32500000D01*
X44071428Y32547620D01*
%TO.C,SW1*%
X41333333Y6095239D02*
X41190476Y6047620D01*
X40952380Y6047620D01*
X40857142Y6095239D01*
X40809523Y6142858D01*
X40761904Y6238096D01*
X40761904Y6333334D01*
X40809523Y6428572D01*
X40857142Y6476191D01*
X40952380Y6523810D01*
X41142857Y6571429D01*
X41238095Y6619048D01*
X41285714Y6666667D01*
X41333333Y6761905D01*
X41333333Y6857143D01*
X41285714Y6952381D01*
X41238095Y7000000D01*
X41142857Y7047620D01*
X40904761Y7047620D01*
X40761904Y7000000D01*
X40428571Y7047620D02*
X40190476Y6047620D01*
X40000000Y6761905D01*
X39809523Y6047620D01*
X39571428Y7047620D01*
X38666666Y6047620D02*
X39238095Y6047620D01*
X38952380Y6047620D02*
X38952380Y7047620D01*
X39047619Y6904762D01*
X39142857Y6809524D01*
X39238095Y6761905D01*
%TO.C,SW2*%
X62604761Y40083334D02*
X62652380Y39940477D01*
X62652380Y39702381D01*
X62604761Y39607143D01*
X62557142Y39559524D01*
X62461904Y39511905D01*
X62366666Y39511905D01*
X62271428Y39559524D01*
X62223809Y39607143D01*
X62176190Y39702381D01*
X62128571Y39892858D01*
X62080952Y39988096D01*
X62033333Y40035715D01*
X61938095Y40083334D01*
X61842857Y40083334D01*
X61747619Y40035715D01*
X61700000Y39988096D01*
X61652380Y39892858D01*
X61652380Y39654762D01*
X61700000Y39511905D01*
X61652380Y39178572D02*
X62652380Y38940477D01*
X61938095Y38750000D01*
X62652380Y38559524D01*
X61652380Y38321429D01*
X61747619Y37988096D02*
X61700000Y37940477D01*
X61652380Y37845239D01*
X61652380Y37607143D01*
X61700000Y37511905D01*
X61747619Y37464286D01*
X61842857Y37416667D01*
X61938095Y37416667D01*
X62080952Y37464286D01*
X62652380Y38035715D01*
X62652380Y37416667D01*
%TO.C,U1*%
X22761904Y21547620D02*
X22761904Y20738096D01*
X22714285Y20642858D01*
X22666666Y20595239D01*
X22571428Y20547620D01*
X22380952Y20547620D01*
X22285714Y20595239D01*
X22238095Y20642858D01*
X22190476Y20738096D01*
X22190476Y21547620D01*
X21190476Y20547620D02*
X21761904Y20547620D01*
X21476190Y20547620D02*
X21476190Y21547620D01*
X21571428Y21404762D01*
X21666666Y21309524D01*
X21761904Y21261905D01*
%TO.C,U2*%
X82063973Y43790478D02*
X81491553Y43218058D01*
X81390538Y43184386D01*
X81323194Y43184386D01*
X81222179Y43218058D01*
X81087492Y43352745D01*
X81053820Y43453760D01*
X81053820Y43521104D01*
X81087492Y43622119D01*
X81659912Y44194539D01*
X81289522Y44430241D02*
X81289522Y44497584D01*
X81255851Y44598600D01*
X81087492Y44766958D01*
X80986477Y44800630D01*
X80919133Y44800630D01*
X80818118Y44766958D01*
X80750774Y44699615D01*
X80683431Y44564928D01*
X80683431Y43756806D01*
X80245698Y44194539D01*
%TO.C,U3*%
X64861904Y27347620D02*
X64861904Y26538096D01*
X64814285Y26442858D01*
X64766666Y26395239D01*
X64671428Y26347620D01*
X64480952Y26347620D01*
X64385714Y26395239D01*
X64338095Y26442858D01*
X64290476Y26538096D01*
X64290476Y27347620D01*
X63909523Y27347620D02*
X63290476Y27347620D01*
X63623809Y26966667D01*
X63480952Y26966667D01*
X63385714Y26919048D01*
X63338095Y26871429D01*
X63290476Y26776191D01*
X63290476Y26538096D01*
X63338095Y26442858D01*
X63385714Y26395239D01*
X63480952Y26347620D01*
X63766666Y26347620D01*
X63861904Y26395239D01*
X63909523Y26442858D01*
%TO.C,Y1*%
X86919881Y32853554D02*
X87256599Y32516836D01*
X86785194Y33459645D02*
X86919881Y32853554D01*
X86313790Y32988241D01*
X86414805Y31675043D02*
X86818866Y32079104D01*
X86616835Y31877073D02*
X85909729Y32584180D01*
X86078087Y32550508D01*
X86212774Y32550508D01*
X86313790Y32584180D01*
%TO.C,Y2*%
X91876190Y33823810D02*
X91876190Y33347620D01*
X92209523Y34347620D02*
X91876190Y33823810D01*
X91542857Y34347620D01*
X91257142Y34252381D02*
X91209523Y34300000D01*
X91114285Y34347620D01*
X90876190Y34347620D01*
X90780952Y34300000D01*
X90733333Y34252381D01*
X90685714Y34157143D01*
X90685714Y34061905D01*
X90733333Y33919048D01*
X91304761Y33347620D01*
X90685714Y33347620D01*
%TO.C,FB1*%
X84433333Y20271429D02*
X84766666Y20271429D01*
X84766666Y19747620D02*
X84766666Y20747620D01*
X84290476Y20747620D01*
X83576190Y20271429D02*
X83433333Y20223810D01*
X83385714Y20176191D01*
X83338095Y20080953D01*
X83338095Y19938096D01*
X83385714Y19842858D01*
X83433333Y19795239D01*
X83528571Y19747620D01*
X83909523Y19747620D01*
X83909523Y20747620D01*
X83576190Y20747620D01*
X83480952Y20700000D01*
X83433333Y20652381D01*
X83385714Y20557143D01*
X83385714Y20461905D01*
X83433333Y20366667D01*
X83480952Y20319048D01*
X83576190Y20271429D01*
X83909523Y20271429D01*
X82385714Y19747620D02*
X82957142Y19747620D01*
X82671428Y19747620D02*
X82671428Y20747620D01*
X82766666Y20604762D01*
X82861904Y20509524D01*
X82957142Y20461905D01*
%TO.C,C29*%
X81857142Y22642858D02*
X81904761Y22690477D01*
X81952380Y22833334D01*
X81952380Y22928572D01*
X81904761Y23071429D01*
X81809523Y23166667D01*
X81714285Y23214286D01*
X81523809Y23261905D01*
X81380952Y23261905D01*
X81190476Y23214286D01*
X81095238Y23166667D01*
X81000000Y23071429D01*
X80952380Y22928572D01*
X80952380Y22833334D01*
X81000000Y22690477D01*
X81047619Y22642858D01*
X81047619Y22261905D02*
X81000000Y22214286D01*
X80952380Y22119048D01*
X80952380Y21880953D01*
X81000000Y21785715D01*
X81047619Y21738096D01*
X81142857Y21690477D01*
X81238095Y21690477D01*
X81380952Y21738096D01*
X81952380Y22309524D01*
X81952380Y21690477D01*
X81952380Y21214286D02*
X81952380Y21023810D01*
X81904761Y20928572D01*
X81857142Y20880953D01*
X81714285Y20785715D01*
X81523809Y20738096D01*
X81142857Y20738096D01*
X81047619Y20785715D01*
X81000000Y20833334D01*
X80952380Y20928572D01*
X80952380Y21119048D01*
X81000000Y21214286D01*
X81047619Y21261905D01*
X81142857Y21309524D01*
X81380952Y21309524D01*
X81476190Y21261905D01*
X81523809Y21214286D01*
X81571428Y21119048D01*
X81571428Y20928572D01*
X81523809Y20833334D01*
X81476190Y20785715D01*
X81380952Y20738096D01*
%TO.C,C30*%
X74642857Y21642858D02*
X74690476Y21595239D01*
X74833333Y21547620D01*
X74928571Y21547620D01*
X75071428Y21595239D01*
X75166666Y21690477D01*
X75214285Y21785715D01*
X75261904Y21976191D01*
X75261904Y22119048D01*
X75214285Y22309524D01*
X75166666Y22404762D01*
X75071428Y22500000D01*
X74928571Y22547620D01*
X74833333Y22547620D01*
X74690476Y22500000D01*
X74642857Y22452381D01*
X74309523Y22547620D02*
X73690476Y22547620D01*
X74023809Y22166667D01*
X73880952Y22166667D01*
X73785714Y22119048D01*
X73738095Y22071429D01*
X73690476Y21976191D01*
X73690476Y21738096D01*
X73738095Y21642858D01*
X73785714Y21595239D01*
X73880952Y21547620D01*
X74166666Y21547620D01*
X74261904Y21595239D01*
X74309523Y21642858D01*
X73071428Y22547620D02*
X72976190Y22547620D01*
X72880952Y22500000D01*
X72833333Y22452381D01*
X72785714Y22357143D01*
X72738095Y22166667D01*
X72738095Y21928572D01*
X72785714Y21738096D01*
X72833333Y21642858D01*
X72880952Y21595239D01*
X72976190Y21547620D01*
X73071428Y21547620D01*
X73166666Y21595239D01*
X73214285Y21642858D01*
X73261904Y21738096D01*
X73309523Y21928572D01*
X73309523Y22166667D01*
X73261904Y22357143D01*
X73214285Y22452381D01*
X73166666Y22500000D01*
X73071428Y22547620D01*
%TO.C,C31*%
X73642857Y23142858D02*
X73690476Y23095239D01*
X73833333Y23047620D01*
X73928571Y23047620D01*
X74071428Y23095239D01*
X74166666Y23190477D01*
X74214285Y23285715D01*
X74261904Y23476191D01*
X74261904Y23619048D01*
X74214285Y23809524D01*
X74166666Y23904762D01*
X74071428Y24000000D01*
X73928571Y24047620D01*
X73833333Y24047620D01*
X73690476Y24000000D01*
X73642857Y23952381D01*
X73309523Y24047620D02*
X72690476Y24047620D01*
X73023809Y23666667D01*
X72880952Y23666667D01*
X72785714Y23619048D01*
X72738095Y23571429D01*
X72690476Y23476191D01*
X72690476Y23238096D01*
X72738095Y23142858D01*
X72785714Y23095239D01*
X72880952Y23047620D01*
X73166666Y23047620D01*
X73261904Y23095239D01*
X73309523Y23142858D01*
X71738095Y23047620D02*
X72309523Y23047620D01*
X72023809Y23047620D02*
X72023809Y24047620D01*
X72119047Y23904762D01*
X72214285Y23809524D01*
X72309523Y23761905D01*
%TO.C,U4*%
X78761904Y28347620D02*
X78761904Y27538096D01*
X78714285Y27442858D01*
X78666666Y27395239D01*
X78571428Y27347620D01*
X78380952Y27347620D01*
X78285714Y27395239D01*
X78238095Y27442858D01*
X78190476Y27538096D01*
X78190476Y28347620D01*
X77285714Y28014286D02*
X77285714Y27347620D01*
X77523809Y28395239D02*
X77761904Y27680953D01*
X77142857Y27680953D01*
%TO.C,D2*%
X96738095Y16147620D02*
X96738095Y17147620D01*
X96500000Y17147620D01*
X96357142Y17100000D01*
X96261904Y17004762D01*
X96214285Y16909524D01*
X96166666Y16719048D01*
X96166666Y16576191D01*
X96214285Y16385715D01*
X96261904Y16290477D01*
X96357142Y16195239D01*
X96500000Y16147620D01*
X96738095Y16147620D01*
X95785714Y17052381D02*
X95738095Y17100000D01*
X95642857Y17147620D01*
X95404761Y17147620D01*
X95309523Y17100000D01*
X95261904Y17052381D01*
X95214285Y16957143D01*
X95214285Y16861905D01*
X95261904Y16719048D01*
X95833333Y16147620D01*
X95214285Y16147620D01*
%TO.C,D3*%
X83078018Y10757018D02*
X83578018Y11623044D01*
X83371822Y11742092D01*
X83224294Y11772281D01*
X83094197Y11737421D01*
X83005338Y11678752D01*
X82868861Y11537604D01*
X82797432Y11413887D01*
X82743434Y11225120D01*
X82737054Y11118832D01*
X82771913Y10988734D01*
X82871822Y10876066D01*
X83078018Y10757018D01*
X82794471Y12075425D02*
X82258360Y12384949D01*
X82356559Y11888368D01*
X82232842Y11959796D01*
X82126553Y11966176D01*
X82061505Y11948746D01*
X81972646Y11890077D01*
X81853599Y11683880D01*
X81847219Y11577592D01*
X81864649Y11512544D01*
X81923318Y11423685D01*
X82170754Y11280828D01*
X82277042Y11274448D01*
X82342091Y11291878D01*
%TO.C,D4*%
X74200399Y11495114D02*
X73700399Y12361139D01*
X73494203Y12242092D01*
X73394294Y12129424D01*
X73359435Y11999326D01*
X73365814Y11893038D01*
X73419813Y11704271D01*
X73491242Y11580553D01*
X73627719Y11439405D01*
X73716578Y11380736D01*
X73846675Y11345877D01*
X73994203Y11376066D01*
X74200399Y11495114D01*
X72629887Y11358178D02*
X72963220Y10780828D01*
X72645607Y11807140D02*
X73208946Y11307598D01*
X72672835Y10998075D01*
%TO.C,D5*%
X60538095Y16347620D02*
X60538095Y17347620D01*
X60300000Y17347620D01*
X60157142Y17300000D01*
X60061904Y17204762D01*
X60014285Y17109524D01*
X59966666Y16919048D01*
X59966666Y16776191D01*
X60014285Y16585715D01*
X60061904Y16490477D01*
X60157142Y16395239D01*
X60300000Y16347620D01*
X60538095Y16347620D01*
X59061904Y17347620D02*
X59538095Y17347620D01*
X59585714Y16871429D01*
X59538095Y16919048D01*
X59442857Y16966667D01*
X59204761Y16966667D01*
X59109523Y16919048D01*
X59061904Y16871429D01*
X59014285Y16776191D01*
X59014285Y16538096D01*
X59061904Y16442858D01*
X59109523Y16395239D01*
X59204761Y16347620D01*
X59442857Y16347620D01*
X59538095Y16395239D01*
X59585714Y16442858D01*
%TO.C,Q2*%
X96095238Y13952381D02*
X96190476Y14000000D01*
X96285714Y14095239D01*
X96428571Y14238096D01*
X96523809Y14285715D01*
X96619047Y14285715D01*
X96571428Y14047620D02*
X96666666Y14095239D01*
X96761904Y14190477D01*
X96809523Y14380953D01*
X96809523Y14714286D01*
X96761904Y14904762D01*
X96666666Y15000000D01*
X96571428Y15047620D01*
X96380952Y15047620D01*
X96285714Y15000000D01*
X96190476Y14904762D01*
X96142857Y14714286D01*
X96142857Y14380953D01*
X96190476Y14190477D01*
X96285714Y14095239D01*
X96380952Y14047620D01*
X96571428Y14047620D01*
X95761904Y14952381D02*
X95714285Y15000000D01*
X95619047Y15047620D01*
X95380952Y15047620D01*
X95285714Y15000000D01*
X95238095Y14952381D01*
X95190476Y14857143D01*
X95190476Y14761905D01*
X95238095Y14619048D01*
X95809523Y14047620D01*
X95190476Y14047620D01*
%TO.C,Q4*%
X84973669Y9495968D02*
X85079957Y9489589D01*
X85210054Y9524448D01*
X85405201Y9576738D01*
X85511489Y9570358D01*
X85593968Y9522739D01*
X85433681Y9340352D02*
X85539969Y9333972D01*
X85670066Y9368832D01*
X85806544Y9509979D01*
X85973211Y9798654D01*
X86027209Y9987421D01*
X85992350Y10117519D01*
X85933681Y10206377D01*
X85768723Y10301615D01*
X85662435Y10307995D01*
X85532338Y10273135D01*
X85395860Y10131988D01*
X85229194Y9843313D01*
X85175195Y9654546D01*
X85210054Y9524448D01*
X85268723Y9435590D01*
X85433681Y9340352D01*
X84653553Y10560559D02*
X84320219Y9983209D01*
X85050225Y10771426D02*
X84899279Y10033789D01*
X84363168Y10343313D01*
%TO.C,Q6*%
X71191288Y9591207D02*
X71249957Y9680065D01*
X71284816Y9810163D01*
X71337106Y10005309D01*
X71395775Y10094167D01*
X71478253Y10141786D01*
X71556062Y9911780D02*
X71614731Y10000639D01*
X71649590Y10130736D01*
X71595591Y10319503D01*
X71428925Y10608178D01*
X71292447Y10749326D01*
X71162350Y10784186D01*
X71056062Y10777806D01*
X70891104Y10682568D01*
X70832435Y10593709D01*
X70797576Y10463612D01*
X70851575Y10274845D01*
X71018241Y9986170D01*
X71154719Y9845022D01*
X71284816Y9810163D01*
X71391104Y9816542D01*
X71556062Y9911780D01*
X69942600Y10134949D02*
X70107558Y10230187D01*
X70213846Y10236566D01*
X70278895Y10219137D01*
X70432802Y10143038D01*
X70569279Y10001890D01*
X70759755Y9671976D01*
X70766135Y9565688D01*
X70748705Y9500639D01*
X70690036Y9411780D01*
X70525079Y9316542D01*
X70418791Y9310163D01*
X70353742Y9327592D01*
X70264884Y9386261D01*
X70145836Y9592458D01*
X70139456Y9698746D01*
X70156886Y9763795D01*
X70215555Y9852653D01*
X70380512Y9947891D01*
X70486801Y9954271D01*
X70551849Y9936841D01*
X70640708Y9878172D01*
%TO.C,Q8*%
X59895238Y13452381D02*
X59990476Y13500000D01*
X60085714Y13595239D01*
X60228571Y13738096D01*
X60323809Y13785715D01*
X60419047Y13785715D01*
X60371428Y13547620D02*
X60466666Y13595239D01*
X60561904Y13690477D01*
X60609523Y13880953D01*
X60609523Y14214286D01*
X60561904Y14404762D01*
X60466666Y14500000D01*
X60371428Y14547620D01*
X60180952Y14547620D01*
X60085714Y14500000D01*
X59990476Y14404762D01*
X59942857Y14214286D01*
X59942857Y13880953D01*
X59990476Y13690477D01*
X60085714Y13595239D01*
X60180952Y13547620D01*
X60371428Y13547620D01*
X59371428Y14119048D02*
X59466666Y14166667D01*
X59514285Y14214286D01*
X59561904Y14309524D01*
X59561904Y14357143D01*
X59514285Y14452381D01*
X59466666Y14500000D01*
X59371428Y14547620D01*
X59180952Y14547620D01*
X59085714Y14500000D01*
X59038095Y14452381D01*
X58990476Y14357143D01*
X58990476Y14309524D01*
X59038095Y14214286D01*
X59085714Y14166667D01*
X59180952Y14119048D01*
X59371428Y14119048D01*
X59466666Y14071429D01*
X59514285Y14023810D01*
X59561904Y13928572D01*
X59561904Y13738096D01*
X59514285Y13642858D01*
X59466666Y13595239D01*
X59371428Y13547620D01*
X59180952Y13547620D01*
X59085714Y13595239D01*
X59038095Y13642858D01*
X58990476Y13738096D01*
X58990476Y13928572D01*
X59038095Y14023810D01*
X59085714Y14071429D01*
X59180952Y14119048D01*
%TO.C,J1*%
X18733333Y2147620D02*
X18733333Y1433334D01*
X18780952Y1290477D01*
X18876190Y1195239D01*
X19019047Y1147620D01*
X19114285Y1147620D01*
X17733333Y1147620D02*
X18304761Y1147620D01*
X18019047Y1147620D02*
X18019047Y2147620D01*
X18114285Y2004762D01*
X18209523Y1909524D01*
X18304761Y1861905D01*
%TO.C,FB2*%
X93233333Y7841429D02*
X93566666Y7841429D01*
X93566666Y7317620D02*
X93566666Y8317620D01*
X93090476Y8317620D01*
X92376190Y7841429D02*
X92233333Y7793810D01*
X92185714Y7746191D01*
X92138095Y7650953D01*
X92138095Y7508096D01*
X92185714Y7412858D01*
X92233333Y7365239D01*
X92328571Y7317620D01*
X92709523Y7317620D01*
X92709523Y8317620D01*
X92376190Y8317620D01*
X92280952Y8270000D01*
X92233333Y8222381D01*
X92185714Y8127143D01*
X92185714Y8031905D01*
X92233333Y7936667D01*
X92280952Y7889048D01*
X92376190Y7841429D01*
X92709523Y7841429D01*
X91757142Y8222381D02*
X91709523Y8270000D01*
X91614285Y8317620D01*
X91376190Y8317620D01*
X91280952Y8270000D01*
X91233333Y8222381D01*
X91185714Y8127143D01*
X91185714Y8031905D01*
X91233333Y7889048D01*
X91804761Y7317620D01*
X91185714Y7317620D01*
%TD*%
M02*
