%TF.GenerationSoftware,KiCad,Pcbnew,5.1.6-c6e7f7d~87~ubuntu18.04.1*%
%TF.CreationDate,2020-09-01T11:59:09+09:00*%
%TF.ProjectId,m5mouse,6d356d6f-7573-4652-9e6b-696361645f70,rev?*%
%TF.SameCoordinates,PX4c4b400PY8583b00*%
%TF.FileFunction,Soldermask,Bot*%
%TF.FilePolarity,Negative*%
%FSLAX46Y46*%
G04 Gerber Fmt 4.6, Leading zero omitted, Abs format (unit mm)*
G04 Created by KiCad (PCBNEW 5.1.6-c6e7f7d~87~ubuntu18.04.1) date 2020-09-01 11:59:09*
%MOMM*%
%LPD*%
G01*
G04 APERTURE LIST*
%ADD10C,2.300000*%
%ADD11C,3.300000*%
%ADD12R,3.350000X2.250000*%
%ADD13R,1.050000X2.250000*%
%ADD14O,2.050000X1.800000*%
%ADD15O,1.800000X1.800000*%
%ADD16R,1.800000X1.800000*%
%ADD17R,0.900000X1.000000*%
%ADD18C,2.100000*%
%ADD19C,1.800000*%
%ADD20R,0.750000X1.160000*%
%ADD21R,0.350000X0.600000*%
%ADD22R,2.750000X1.100000*%
%ADD23R,1.800000X0.600000*%
%ADD24R,1.500000X1.900000*%
%ADD25C,0.100000*%
%ADD26R,1.850000X1.700000*%
%ADD27O,1.300000X1.850000*%
G04 APERTURE END LIST*
D10*
%TO.C,MH9*%
X25000000Y3000000D03*
%TD*%
%TO.C,MH10*%
X85000000Y3000000D03*
%TD*%
%TO.C,MH8*%
X66300000Y46850000D03*
D11*
X63150000Y46850000D03*
%TD*%
D10*
%TO.C,MH5*%
X103700000Y46850000D03*
D11*
X106850000Y46850000D03*
%TD*%
D10*
%TO.C,MH2*%
X43700000Y3150000D03*
D11*
X46850000Y3150000D03*
%TD*%
D10*
%TO.C,MH3*%
X6300000Y3150000D03*
D11*
X3150000Y3150000D03*
%TD*%
D10*
%TO.C,MH4*%
X6300000Y46850000D03*
D11*
X3150000Y46850000D03*
%TD*%
D10*
%TO.C,MH1*%
X43700000Y46850000D03*
D11*
X46850000Y46850000D03*
%TD*%
D10*
%TO.C,MH6*%
X107200000Y20000000D03*
%TD*%
%TO.C,MH7*%
X62800000Y20000000D03*
%TD*%
%TO.C,C1*%
G36*
G01*
X24625000Y15302500D02*
X24625000Y15697500D01*
G75*
G02*
X24797500Y15870000I172500J0D01*
G01*
X25142500Y15870000D01*
G75*
G02*
X25315000Y15697500I0J-172500D01*
G01*
X25315000Y15302500D01*
G75*
G02*
X25142500Y15130000I-172500J0D01*
G01*
X24797500Y15130000D01*
G75*
G02*
X24625000Y15302500I0J172500D01*
G01*
G37*
G36*
G01*
X23655000Y15302500D02*
X23655000Y15697500D01*
G75*
G02*
X23827500Y15870000I172500J0D01*
G01*
X24172500Y15870000D01*
G75*
G02*
X24345000Y15697500I0J-172500D01*
G01*
X24345000Y15302500D01*
G75*
G02*
X24172500Y15130000I-172500J0D01*
G01*
X23827500Y15130000D01*
G75*
G02*
X23655000Y15302500I0J172500D01*
G01*
G37*
%TD*%
%TO.C,C2*%
G36*
G01*
X24640000Y16302500D02*
X24640000Y16697500D01*
G75*
G02*
X24812500Y16870000I172500J0D01*
G01*
X25157500Y16870000D01*
G75*
G02*
X25330000Y16697500I0J-172500D01*
G01*
X25330000Y16302500D01*
G75*
G02*
X25157500Y16130000I-172500J0D01*
G01*
X24812500Y16130000D01*
G75*
G02*
X24640000Y16302500I0J172500D01*
G01*
G37*
G36*
G01*
X23670000Y16302500D02*
X23670000Y16697500D01*
G75*
G02*
X23842500Y16870000I172500J0D01*
G01*
X24187500Y16870000D01*
G75*
G02*
X24360000Y16697500I0J-172500D01*
G01*
X24360000Y16302500D01*
G75*
G02*
X24187500Y16130000I-172500J0D01*
G01*
X23842500Y16130000D01*
G75*
G02*
X23670000Y16302500I0J172500D01*
G01*
G37*
%TD*%
%TO.C,C3*%
G36*
G01*
X23670000Y17302500D02*
X23670000Y17697500D01*
G75*
G02*
X23842500Y17870000I172500J0D01*
G01*
X24187500Y17870000D01*
G75*
G02*
X24360000Y17697500I0J-172500D01*
G01*
X24360000Y17302500D01*
G75*
G02*
X24187500Y17130000I-172500J0D01*
G01*
X23842500Y17130000D01*
G75*
G02*
X23670000Y17302500I0J172500D01*
G01*
G37*
G36*
G01*
X24640000Y17302500D02*
X24640000Y17697500D01*
G75*
G02*
X24812500Y17870000I172500J0D01*
G01*
X25157500Y17870000D01*
G75*
G02*
X25330000Y17697500I0J-172500D01*
G01*
X25330000Y17302500D01*
G75*
G02*
X25157500Y17130000I-172500J0D01*
G01*
X24812500Y17130000D01*
G75*
G02*
X24640000Y17302500I0J172500D01*
G01*
G37*
%TD*%
%TO.C,C4*%
G36*
G01*
X27697500Y22140000D02*
X27302500Y22140000D01*
G75*
G02*
X27130000Y22312500I0J172500D01*
G01*
X27130000Y22657500D01*
G75*
G02*
X27302500Y22830000I172500J0D01*
G01*
X27697500Y22830000D01*
G75*
G02*
X27870000Y22657500I0J-172500D01*
G01*
X27870000Y22312500D01*
G75*
G02*
X27697500Y22140000I-172500J0D01*
G01*
G37*
G36*
G01*
X27697500Y21170000D02*
X27302500Y21170000D01*
G75*
G02*
X27130000Y21342500I0J172500D01*
G01*
X27130000Y21687500D01*
G75*
G02*
X27302500Y21860000I172500J0D01*
G01*
X27697500Y21860000D01*
G75*
G02*
X27870000Y21687500I0J-172500D01*
G01*
X27870000Y21342500D01*
G75*
G02*
X27697500Y21170000I-172500J0D01*
G01*
G37*
%TD*%
%TO.C,C5*%
G36*
G01*
X28302500Y15830000D02*
X28697500Y15830000D01*
G75*
G02*
X28870000Y15657500I0J-172500D01*
G01*
X28870000Y15312500D01*
G75*
G02*
X28697500Y15140000I-172500J0D01*
G01*
X28302500Y15140000D01*
G75*
G02*
X28130000Y15312500I0J172500D01*
G01*
X28130000Y15657500D01*
G75*
G02*
X28302500Y15830000I172500J0D01*
G01*
G37*
G36*
G01*
X28302500Y14860000D02*
X28697500Y14860000D01*
G75*
G02*
X28870000Y14687500I0J-172500D01*
G01*
X28870000Y14342500D01*
G75*
G02*
X28697500Y14170000I-172500J0D01*
G01*
X28302500Y14170000D01*
G75*
G02*
X28130000Y14342500I0J172500D01*
G01*
X28130000Y14687500D01*
G75*
G02*
X28302500Y14860000I172500J0D01*
G01*
G37*
%TD*%
%TO.C,C6*%
G36*
G01*
X27302500Y15830000D02*
X27697500Y15830000D01*
G75*
G02*
X27870000Y15657500I0J-172500D01*
G01*
X27870000Y15312500D01*
G75*
G02*
X27697500Y15140000I-172500J0D01*
G01*
X27302500Y15140000D01*
G75*
G02*
X27130000Y15312500I0J172500D01*
G01*
X27130000Y15657500D01*
G75*
G02*
X27302500Y15830000I172500J0D01*
G01*
G37*
G36*
G01*
X27302500Y14860000D02*
X27697500Y14860000D01*
G75*
G02*
X27870000Y14687500I0J-172500D01*
G01*
X27870000Y14342500D01*
G75*
G02*
X27697500Y14170000I-172500J0D01*
G01*
X27302500Y14170000D01*
G75*
G02*
X27130000Y14342500I0J172500D01*
G01*
X27130000Y14687500D01*
G75*
G02*
X27302500Y14860000I172500J0D01*
G01*
G37*
%TD*%
%TO.C,C7*%
G36*
G01*
X26302500Y15830000D02*
X26697500Y15830000D01*
G75*
G02*
X26870000Y15657500I0J-172500D01*
G01*
X26870000Y15312500D01*
G75*
G02*
X26697500Y15140000I-172500J0D01*
G01*
X26302500Y15140000D01*
G75*
G02*
X26130000Y15312500I0J172500D01*
G01*
X26130000Y15657500D01*
G75*
G02*
X26302500Y15830000I172500J0D01*
G01*
G37*
G36*
G01*
X26302500Y14860000D02*
X26697500Y14860000D01*
G75*
G02*
X26870000Y14687500I0J-172500D01*
G01*
X26870000Y14342500D01*
G75*
G02*
X26697500Y14170000I-172500J0D01*
G01*
X26302500Y14170000D01*
G75*
G02*
X26130000Y14342500I0J172500D01*
G01*
X26130000Y14687500D01*
G75*
G02*
X26302500Y14860000I172500J0D01*
G01*
G37*
%TD*%
%TO.C,C8*%
G36*
G01*
X100202500Y23060000D02*
X100597500Y23060000D01*
G75*
G02*
X100770000Y22887500I0J-172500D01*
G01*
X100770000Y22542500D01*
G75*
G02*
X100597500Y22370000I-172500J0D01*
G01*
X100202500Y22370000D01*
G75*
G02*
X100030000Y22542500I0J172500D01*
G01*
X100030000Y22887500D01*
G75*
G02*
X100202500Y23060000I172500J0D01*
G01*
G37*
G36*
G01*
X100202500Y24030000D02*
X100597500Y24030000D01*
G75*
G02*
X100770000Y23857500I0J-172500D01*
G01*
X100770000Y23512500D01*
G75*
G02*
X100597500Y23340000I-172500J0D01*
G01*
X100202500Y23340000D01*
G75*
G02*
X100030000Y23512500I0J172500D01*
G01*
X100030000Y23857500D01*
G75*
G02*
X100202500Y24030000I172500J0D01*
G01*
G37*
%TD*%
%TO.C,C9*%
G36*
G01*
X99202500Y24030000D02*
X99597500Y24030000D01*
G75*
G02*
X99770000Y23857500I0J-172500D01*
G01*
X99770000Y23512500D01*
G75*
G02*
X99597500Y23340000I-172500J0D01*
G01*
X99202500Y23340000D01*
G75*
G02*
X99030000Y23512500I0J172500D01*
G01*
X99030000Y23857500D01*
G75*
G02*
X99202500Y24030000I172500J0D01*
G01*
G37*
G36*
G01*
X99202500Y23060000D02*
X99597500Y23060000D01*
G75*
G02*
X99770000Y22887500I0J-172500D01*
G01*
X99770000Y22542500D01*
G75*
G02*
X99597500Y22370000I-172500J0D01*
G01*
X99202500Y22370000D01*
G75*
G02*
X99030000Y22542500I0J172500D01*
G01*
X99030000Y22887500D01*
G75*
G02*
X99202500Y23060000I172500J0D01*
G01*
G37*
%TD*%
%TO.C,C10*%
G36*
G01*
X92260000Y41197500D02*
X92260000Y40802500D01*
G75*
G02*
X92087500Y40630000I-172500J0D01*
G01*
X91742500Y40630000D01*
G75*
G02*
X91570000Y40802500I0J172500D01*
G01*
X91570000Y41197500D01*
G75*
G02*
X91742500Y41370000I172500J0D01*
G01*
X92087500Y41370000D01*
G75*
G02*
X92260000Y41197500I0J-172500D01*
G01*
G37*
G36*
G01*
X93230000Y41197500D02*
X93230000Y40802500D01*
G75*
G02*
X93057500Y40630000I-172500J0D01*
G01*
X92712500Y40630000D01*
G75*
G02*
X92540000Y40802500I0J172500D01*
G01*
X92540000Y41197500D01*
G75*
G02*
X92712500Y41370000I172500J0D01*
G01*
X93057500Y41370000D01*
G75*
G02*
X93230000Y41197500I0J-172500D01*
G01*
G37*
%TD*%
%TO.C,C11*%
G36*
G01*
X81730000Y28597500D02*
X81730000Y28202500D01*
G75*
G02*
X81557500Y28030000I-172500J0D01*
G01*
X81212500Y28030000D01*
G75*
G02*
X81040000Y28202500I0J172500D01*
G01*
X81040000Y28597500D01*
G75*
G02*
X81212500Y28770000I172500J0D01*
G01*
X81557500Y28770000D01*
G75*
G02*
X81730000Y28597500I0J-172500D01*
G01*
G37*
G36*
G01*
X80760000Y28597500D02*
X80760000Y28202500D01*
G75*
G02*
X80587500Y28030000I-172500J0D01*
G01*
X80242500Y28030000D01*
G75*
G02*
X80070000Y28202500I0J172500D01*
G01*
X80070000Y28597500D01*
G75*
G02*
X80242500Y28770000I172500J0D01*
G01*
X80587500Y28770000D01*
G75*
G02*
X80760000Y28597500I0J-172500D01*
G01*
G37*
%TD*%
%TO.C,C12*%
G36*
G01*
X74770000Y34802500D02*
X74770000Y35197500D01*
G75*
G02*
X74942500Y35370000I172500J0D01*
G01*
X75287500Y35370000D01*
G75*
G02*
X75460000Y35197500I0J-172500D01*
G01*
X75460000Y34802500D01*
G75*
G02*
X75287500Y34630000I-172500J0D01*
G01*
X74942500Y34630000D01*
G75*
G02*
X74770000Y34802500I0J172500D01*
G01*
G37*
G36*
G01*
X75740000Y34802500D02*
X75740000Y35197500D01*
G75*
G02*
X75912500Y35370000I172500J0D01*
G01*
X76257500Y35370000D01*
G75*
G02*
X76430000Y35197500I0J-172500D01*
G01*
X76430000Y34802500D01*
G75*
G02*
X76257500Y34630000I-172500J0D01*
G01*
X75912500Y34630000D01*
G75*
G02*
X75740000Y34802500I0J172500D01*
G01*
G37*
%TD*%
%TO.C,C13*%
G36*
G01*
X80940000Y44202500D02*
X80940000Y44597500D01*
G75*
G02*
X81112500Y44770000I172500J0D01*
G01*
X81457500Y44770000D01*
G75*
G02*
X81630000Y44597500I0J-172500D01*
G01*
X81630000Y44202500D01*
G75*
G02*
X81457500Y44030000I-172500J0D01*
G01*
X81112500Y44030000D01*
G75*
G02*
X80940000Y44202500I0J172500D01*
G01*
G37*
G36*
G01*
X79970000Y44202500D02*
X79970000Y44597500D01*
G75*
G02*
X80142500Y44770000I172500J0D01*
G01*
X80487500Y44770000D01*
G75*
G02*
X80660000Y44597500I0J-172500D01*
G01*
X80660000Y44202500D01*
G75*
G02*
X80487500Y44030000I-172500J0D01*
G01*
X80142500Y44030000D01*
G75*
G02*
X79970000Y44202500I0J172500D01*
G01*
G37*
%TD*%
%TO.C,C14*%
G36*
G01*
X91570000Y41802500D02*
X91570000Y42197500D01*
G75*
G02*
X91742500Y42370000I172500J0D01*
G01*
X92087500Y42370000D01*
G75*
G02*
X92260000Y42197500I0J-172500D01*
G01*
X92260000Y41802500D01*
G75*
G02*
X92087500Y41630000I-172500J0D01*
G01*
X91742500Y41630000D01*
G75*
G02*
X91570000Y41802500I0J172500D01*
G01*
G37*
G36*
G01*
X92540000Y41802500D02*
X92540000Y42197500D01*
G75*
G02*
X92712500Y42370000I172500J0D01*
G01*
X93057500Y42370000D01*
G75*
G02*
X93230000Y42197500I0J-172500D01*
G01*
X93230000Y41802500D01*
G75*
G02*
X93057500Y41630000I-172500J0D01*
G01*
X92712500Y41630000D01*
G75*
G02*
X92540000Y41802500I0J172500D01*
G01*
G37*
%TD*%
%TO.C,C15*%
G36*
G01*
X90130000Y29597500D02*
X90130000Y29202500D01*
G75*
G02*
X89957500Y29030000I-172500J0D01*
G01*
X89612500Y29030000D01*
G75*
G02*
X89440000Y29202500I0J172500D01*
G01*
X89440000Y29597500D01*
G75*
G02*
X89612500Y29770000I172500J0D01*
G01*
X89957500Y29770000D01*
G75*
G02*
X90130000Y29597500I0J-172500D01*
G01*
G37*
G36*
G01*
X89160000Y29597500D02*
X89160000Y29202500D01*
G75*
G02*
X88987500Y29030000I-172500J0D01*
G01*
X88642500Y29030000D01*
G75*
G02*
X88470000Y29202500I0J172500D01*
G01*
X88470000Y29597500D01*
G75*
G02*
X88642500Y29770000I172500J0D01*
G01*
X88987500Y29770000D01*
G75*
G02*
X89160000Y29597500I0J-172500D01*
G01*
G37*
%TD*%
%TO.C,C16*%
G36*
G01*
X90130000Y28597500D02*
X90130000Y28202500D01*
G75*
G02*
X89957500Y28030000I-172500J0D01*
G01*
X89612500Y28030000D01*
G75*
G02*
X89440000Y28202500I0J172500D01*
G01*
X89440000Y28597500D01*
G75*
G02*
X89612500Y28770000I172500J0D01*
G01*
X89957500Y28770000D01*
G75*
G02*
X90130000Y28597500I0J-172500D01*
G01*
G37*
G36*
G01*
X89160000Y28597500D02*
X89160000Y28202500D01*
G75*
G02*
X88987500Y28030000I-172500J0D01*
G01*
X88642500Y28030000D01*
G75*
G02*
X88470000Y28202500I0J172500D01*
G01*
X88470000Y28597500D01*
G75*
G02*
X88642500Y28770000I172500J0D01*
G01*
X88987500Y28770000D01*
G75*
G02*
X89160000Y28597500I0J-172500D01*
G01*
G37*
%TD*%
%TO.C,C17*%
G36*
G01*
X90130000Y27597500D02*
X90130000Y27202500D01*
G75*
G02*
X89957500Y27030000I-172500J0D01*
G01*
X89612500Y27030000D01*
G75*
G02*
X89440000Y27202500I0J172500D01*
G01*
X89440000Y27597500D01*
G75*
G02*
X89612500Y27770000I172500J0D01*
G01*
X89957500Y27770000D01*
G75*
G02*
X90130000Y27597500I0J-172500D01*
G01*
G37*
G36*
G01*
X89160000Y27597500D02*
X89160000Y27202500D01*
G75*
G02*
X88987500Y27030000I-172500J0D01*
G01*
X88642500Y27030000D01*
G75*
G02*
X88470000Y27202500I0J172500D01*
G01*
X88470000Y27597500D01*
G75*
G02*
X88642500Y27770000I172500J0D01*
G01*
X88987500Y27770000D01*
G75*
G02*
X89160000Y27597500I0J-172500D01*
G01*
G37*
%TD*%
%TO.C,C18*%
G36*
G01*
X75602500Y27660000D02*
X75997500Y27660000D01*
G75*
G02*
X76170000Y27487500I0J-172500D01*
G01*
X76170000Y27142500D01*
G75*
G02*
X75997500Y26970000I-172500J0D01*
G01*
X75602500Y26970000D01*
G75*
G02*
X75430000Y27142500I0J172500D01*
G01*
X75430000Y27487500D01*
G75*
G02*
X75602500Y27660000I172500J0D01*
G01*
G37*
G36*
G01*
X75602500Y28630000D02*
X75997500Y28630000D01*
G75*
G02*
X76170000Y28457500I0J-172500D01*
G01*
X76170000Y28112500D01*
G75*
G02*
X75997500Y27940000I-172500J0D01*
G01*
X75602500Y27940000D01*
G75*
G02*
X75430000Y28112500I0J172500D01*
G01*
X75430000Y28457500D01*
G75*
G02*
X75602500Y28630000I172500J0D01*
G01*
G37*
%TD*%
%TO.C,C19*%
G36*
G01*
X76160000Y25597500D02*
X76160000Y25202500D01*
G75*
G02*
X75987500Y25030000I-172500J0D01*
G01*
X75642500Y25030000D01*
G75*
G02*
X75470000Y25202500I0J172500D01*
G01*
X75470000Y25597500D01*
G75*
G02*
X75642500Y25770000I172500J0D01*
G01*
X75987500Y25770000D01*
G75*
G02*
X76160000Y25597500I0J-172500D01*
G01*
G37*
G36*
G01*
X77130000Y25597500D02*
X77130000Y25202500D01*
G75*
G02*
X76957500Y25030000I-172500J0D01*
G01*
X76612500Y25030000D01*
G75*
G02*
X76440000Y25202500I0J172500D01*
G01*
X76440000Y25597500D01*
G75*
G02*
X76612500Y25770000I172500J0D01*
G01*
X76957500Y25770000D01*
G75*
G02*
X77130000Y25597500I0J-172500D01*
G01*
G37*
%TD*%
%TO.C,C20*%
G36*
G01*
X67860000Y30097500D02*
X67860000Y29702500D01*
G75*
G02*
X67687500Y29530000I-172500J0D01*
G01*
X67342500Y29530000D01*
G75*
G02*
X67170000Y29702500I0J172500D01*
G01*
X67170000Y30097500D01*
G75*
G02*
X67342500Y30270000I172500J0D01*
G01*
X67687500Y30270000D01*
G75*
G02*
X67860000Y30097500I0J-172500D01*
G01*
G37*
G36*
G01*
X68830000Y30097500D02*
X68830000Y29702500D01*
G75*
G02*
X68657500Y29530000I-172500J0D01*
G01*
X68312500Y29530000D01*
G75*
G02*
X68140000Y29702500I0J172500D01*
G01*
X68140000Y30097500D01*
G75*
G02*
X68312500Y30270000I172500J0D01*
G01*
X68657500Y30270000D01*
G75*
G02*
X68830000Y30097500I0J-172500D01*
G01*
G37*
%TD*%
%TO.C,C21*%
G36*
G01*
X67860000Y28597500D02*
X67860000Y28202500D01*
G75*
G02*
X67687500Y28030000I-172500J0D01*
G01*
X67342500Y28030000D01*
G75*
G02*
X67170000Y28202500I0J172500D01*
G01*
X67170000Y28597500D01*
G75*
G02*
X67342500Y28770000I172500J0D01*
G01*
X67687500Y28770000D01*
G75*
G02*
X67860000Y28597500I0J-172500D01*
G01*
G37*
G36*
G01*
X68830000Y28597500D02*
X68830000Y28202500D01*
G75*
G02*
X68657500Y28030000I-172500J0D01*
G01*
X68312500Y28030000D01*
G75*
G02*
X68140000Y28202500I0J172500D01*
G01*
X68140000Y28597500D01*
G75*
G02*
X68312500Y28770000I172500J0D01*
G01*
X68657500Y28770000D01*
G75*
G02*
X68830000Y28597500I0J-172500D01*
G01*
G37*
%TD*%
%TO.C,C22*%
G36*
G01*
X96602500Y24030000D02*
X96997500Y24030000D01*
G75*
G02*
X97170000Y23857500I0J-172500D01*
G01*
X97170000Y23512500D01*
G75*
G02*
X96997500Y23340000I-172500J0D01*
G01*
X96602500Y23340000D01*
G75*
G02*
X96430000Y23512500I0J172500D01*
G01*
X96430000Y23857500D01*
G75*
G02*
X96602500Y24030000I172500J0D01*
G01*
G37*
G36*
G01*
X96602500Y23060000D02*
X96997500Y23060000D01*
G75*
G02*
X97170000Y22887500I0J-172500D01*
G01*
X97170000Y22542500D01*
G75*
G02*
X96997500Y22370000I-172500J0D01*
G01*
X96602500Y22370000D01*
G75*
G02*
X96430000Y22542500I0J172500D01*
G01*
X96430000Y22887500D01*
G75*
G02*
X96602500Y23060000I172500J0D01*
G01*
G37*
%TD*%
%TO.C,C23*%
G36*
G01*
X75460000Y34197500D02*
X75460000Y33802500D01*
G75*
G02*
X75287500Y33630000I-172500J0D01*
G01*
X74942500Y33630000D01*
G75*
G02*
X74770000Y33802500I0J172500D01*
G01*
X74770000Y34197500D01*
G75*
G02*
X74942500Y34370000I172500J0D01*
G01*
X75287500Y34370000D01*
G75*
G02*
X75460000Y34197500I0J-172500D01*
G01*
G37*
G36*
G01*
X76430000Y34197500D02*
X76430000Y33802500D01*
G75*
G02*
X76257500Y33630000I-172500J0D01*
G01*
X75912500Y33630000D01*
G75*
G02*
X75740000Y33802500I0J172500D01*
G01*
X75740000Y34197500D01*
G75*
G02*
X75912500Y34370000I172500J0D01*
G01*
X76257500Y34370000D01*
G75*
G02*
X76430000Y34197500I0J-172500D01*
G01*
G37*
%TD*%
%TO.C,C24*%
G36*
G01*
X81630000Y43597500D02*
X81630000Y43202500D01*
G75*
G02*
X81457500Y43030000I-172500J0D01*
G01*
X81112500Y43030000D01*
G75*
G02*
X80940000Y43202500I0J172500D01*
G01*
X80940000Y43597500D01*
G75*
G02*
X81112500Y43770000I172500J0D01*
G01*
X81457500Y43770000D01*
G75*
G02*
X81630000Y43597500I0J-172500D01*
G01*
G37*
G36*
G01*
X80660000Y43597500D02*
X80660000Y43202500D01*
G75*
G02*
X80487500Y43030000I-172500J0D01*
G01*
X80142500Y43030000D01*
G75*
G02*
X79970000Y43202500I0J172500D01*
G01*
X79970000Y43597500D01*
G75*
G02*
X80142500Y43770000I172500J0D01*
G01*
X80487500Y43770000D01*
G75*
G02*
X80660000Y43597500I0J-172500D01*
G01*
G37*
%TD*%
%TO.C,C25*%
G36*
G01*
X68830000Y31097500D02*
X68830000Y30702500D01*
G75*
G02*
X68657500Y30530000I-172500J0D01*
G01*
X68312500Y30530000D01*
G75*
G02*
X68140000Y30702500I0J172500D01*
G01*
X68140000Y31097500D01*
G75*
G02*
X68312500Y31270000I172500J0D01*
G01*
X68657500Y31270000D01*
G75*
G02*
X68830000Y31097500I0J-172500D01*
G01*
G37*
G36*
G01*
X67860000Y31097500D02*
X67860000Y30702500D01*
G75*
G02*
X67687500Y30530000I-172500J0D01*
G01*
X67342500Y30530000D01*
G75*
G02*
X67170000Y30702500I0J172500D01*
G01*
X67170000Y31097500D01*
G75*
G02*
X67342500Y31270000I172500J0D01*
G01*
X67687500Y31270000D01*
G75*
G02*
X67860000Y31097500I0J-172500D01*
G01*
G37*
%TD*%
%TO.C,C26*%
G36*
G01*
X26660000Y30497500D02*
X26660000Y30102500D01*
G75*
G02*
X26487500Y29930000I-172500J0D01*
G01*
X26142500Y29930000D01*
G75*
G02*
X25970000Y30102500I0J172500D01*
G01*
X25970000Y30497500D01*
G75*
G02*
X26142500Y30670000I172500J0D01*
G01*
X26487500Y30670000D01*
G75*
G02*
X26660000Y30497500I0J-172500D01*
G01*
G37*
G36*
G01*
X27630000Y30497500D02*
X27630000Y30102500D01*
G75*
G02*
X27457500Y29930000I-172500J0D01*
G01*
X27112500Y29930000D01*
G75*
G02*
X26940000Y30102500I0J172500D01*
G01*
X26940000Y30497500D01*
G75*
G02*
X27112500Y30670000I172500J0D01*
G01*
X27457500Y30670000D01*
G75*
G02*
X27630000Y30497500I0J-172500D01*
G01*
G37*
%TD*%
%TO.C,C27*%
G36*
G01*
X23940000Y30102500D02*
X23940000Y30497500D01*
G75*
G02*
X24112500Y30670000I172500J0D01*
G01*
X24457500Y30670000D01*
G75*
G02*
X24630000Y30497500I0J-172500D01*
G01*
X24630000Y30102500D01*
G75*
G02*
X24457500Y29930000I-172500J0D01*
G01*
X24112500Y29930000D01*
G75*
G02*
X23940000Y30102500I0J172500D01*
G01*
G37*
G36*
G01*
X22970000Y30102500D02*
X22970000Y30497500D01*
G75*
G02*
X23142500Y30670000I172500J0D01*
G01*
X23487500Y30670000D01*
G75*
G02*
X23660000Y30497500I0J-172500D01*
G01*
X23660000Y30102500D01*
G75*
G02*
X23487500Y29930000I-172500J0D01*
G01*
X23142500Y29930000D01*
G75*
G02*
X22970000Y30102500I0J172500D01*
G01*
G37*
%TD*%
%TO.C,C28*%
G36*
G01*
X94140000Y33002500D02*
X94140000Y33397500D01*
G75*
G02*
X94312500Y33570000I172500J0D01*
G01*
X94657500Y33570000D01*
G75*
G02*
X94830000Y33397500I0J-172500D01*
G01*
X94830000Y33002500D01*
G75*
G02*
X94657500Y32830000I-172500J0D01*
G01*
X94312500Y32830000D01*
G75*
G02*
X94140000Y33002500I0J172500D01*
G01*
G37*
G36*
G01*
X93170000Y33002500D02*
X93170000Y33397500D01*
G75*
G02*
X93342500Y33570000I172500J0D01*
G01*
X93687500Y33570000D01*
G75*
G02*
X93860000Y33397500I0J-172500D01*
G01*
X93860000Y33002500D01*
G75*
G02*
X93687500Y32830000I-172500J0D01*
G01*
X93342500Y32830000D01*
G75*
G02*
X93170000Y33002500I0J172500D01*
G01*
G37*
%TD*%
%TO.C,D1*%
G36*
G01*
X47781250Y28800000D02*
X47218750Y28800000D01*
G75*
G02*
X46975000Y29043750I0J243750D01*
G01*
X46975000Y29531250D01*
G75*
G02*
X47218750Y29775000I243750J0D01*
G01*
X47781250Y29775000D01*
G75*
G02*
X48025000Y29531250I0J-243750D01*
G01*
X48025000Y29043750D01*
G75*
G02*
X47781250Y28800000I-243750J0D01*
G01*
G37*
G36*
G01*
X47781250Y27225000D02*
X47218750Y27225000D01*
G75*
G02*
X46975000Y27468750I0J243750D01*
G01*
X46975000Y27956250D01*
G75*
G02*
X47218750Y28200000I243750J0D01*
G01*
X47781250Y28200000D01*
G75*
G02*
X48025000Y27956250I0J-243750D01*
G01*
X48025000Y27468750D01*
G75*
G02*
X47781250Y27225000I-243750J0D01*
G01*
G37*
%TD*%
%TO.C,D6*%
G36*
G01*
X97225000Y48218750D02*
X97225000Y48781250D01*
G75*
G02*
X97468750Y49025000I243750J0D01*
G01*
X97956250Y49025000D01*
G75*
G02*
X98200000Y48781250I0J-243750D01*
G01*
X98200000Y48218750D01*
G75*
G02*
X97956250Y47975000I-243750J0D01*
G01*
X97468750Y47975000D01*
G75*
G02*
X97225000Y48218750I0J243750D01*
G01*
G37*
G36*
G01*
X98800000Y48218750D02*
X98800000Y48781250D01*
G75*
G02*
X99043750Y49025000I243750J0D01*
G01*
X99531250Y49025000D01*
G75*
G02*
X99775000Y48781250I0J-243750D01*
G01*
X99775000Y48218750D01*
G75*
G02*
X99531250Y47975000I-243750J0D01*
G01*
X99043750Y47975000D01*
G75*
G02*
X98800000Y48218750I0J243750D01*
G01*
G37*
%TD*%
%TO.C,D7*%
G36*
G01*
X72775000Y48781250D02*
X72775000Y48218750D01*
G75*
G02*
X72531250Y47975000I-243750J0D01*
G01*
X72043750Y47975000D01*
G75*
G02*
X71800000Y48218750I0J243750D01*
G01*
X71800000Y48781250D01*
G75*
G02*
X72043750Y49025000I243750J0D01*
G01*
X72531250Y49025000D01*
G75*
G02*
X72775000Y48781250I0J-243750D01*
G01*
G37*
G36*
G01*
X71200000Y48781250D02*
X71200000Y48218750D01*
G75*
G02*
X70956250Y47975000I-243750J0D01*
G01*
X70468750Y47975000D01*
G75*
G02*
X70225000Y48218750I0J243750D01*
G01*
X70225000Y48781250D01*
G75*
G02*
X70468750Y49025000I243750J0D01*
G01*
X70956250Y49025000D01*
G75*
G02*
X71200000Y48781250I0J-243750D01*
G01*
G37*
%TD*%
D12*
%TO.C,IC1*%
X25300000Y39200000D03*
D13*
X25300000Y33400000D03*
X27600000Y33400000D03*
X23000000Y33400000D03*
%TD*%
%TO.C,J3*%
G36*
G01*
X106239706Y41900000D02*
X107760294Y41900000D01*
G75*
G02*
X108025000Y41635294I0J-264706D01*
G01*
X108025000Y40364706D01*
G75*
G02*
X107760294Y40100000I-264706J0D01*
G01*
X106239706Y40100000D01*
G75*
G02*
X105975000Y40364706I0J264706D01*
G01*
X105975000Y41635294D01*
G75*
G02*
X106239706Y41900000I264706J0D01*
G01*
G37*
D14*
X107000000Y38500000D03*
X107000000Y36000000D03*
X107000000Y33500000D03*
X107000000Y31000000D03*
X107000000Y28500000D03*
%TD*%
D15*
%TO.C,J4*%
X98240000Y44580000D03*
X95700000Y44580000D03*
X98240000Y42040000D03*
X95700000Y42040000D03*
X98240000Y39500000D03*
D16*
X95700000Y39500000D03*
%TD*%
%TO.C,J5*%
X74400000Y44500000D03*
D15*
X71860000Y44500000D03*
X74400000Y41960000D03*
X71860000Y41960000D03*
X74400000Y39420000D03*
X71860000Y39420000D03*
%TD*%
D16*
%TO.C,J6*%
X62800000Y24400000D03*
D15*
X62800000Y26940000D03*
X62800000Y29480000D03*
%TD*%
D16*
%TO.C,J7*%
X18650000Y46800000D03*
D15*
X21190000Y46800000D03*
X23730000Y46800000D03*
X26270000Y46800000D03*
X28810000Y46800000D03*
X31350000Y46800000D03*
%TD*%
D16*
%TO.C,J8*%
X78650000Y46800000D03*
D15*
X81190000Y46800000D03*
X83730000Y46800000D03*
X86270000Y46800000D03*
X88810000Y46800000D03*
X91350000Y46800000D03*
%TD*%
%TO.C,L1*%
G36*
G01*
X24250000Y11620000D02*
X24250000Y13380000D01*
G75*
G02*
X24520000Y13650000I270000J0D01*
G01*
X25330000Y13650000D01*
G75*
G02*
X25600000Y13380000I0J-270000D01*
G01*
X25600000Y11620000D01*
G75*
G02*
X25330000Y11350000I-270000J0D01*
G01*
X24520000Y11350000D01*
G75*
G02*
X24250000Y11620000I0J270000D01*
G01*
G37*
G36*
G01*
X26400000Y11620000D02*
X26400000Y13380000D01*
G75*
G02*
X26670000Y13650000I270000J0D01*
G01*
X27480000Y13650000D01*
G75*
G02*
X27750000Y13380000I0J-270000D01*
G01*
X27750000Y11620000D01*
G75*
G02*
X27480000Y11350000I-270000J0D01*
G01*
X26670000Y11350000D01*
G75*
G02*
X26400000Y11620000I0J270000D01*
G01*
G37*
%TD*%
D17*
%TO.C,Q1*%
X94050000Y16000000D03*
X95950000Y16000000D03*
X95000000Y14000000D03*
%TD*%
%TO.C,Q3*%
X88200000Y14000000D03*
X89150000Y16000000D03*
X87250000Y16000000D03*
%TD*%
%TO.C,Q5*%
X80750000Y16000000D03*
X82650000Y16000000D03*
X81700000Y14000000D03*
%TD*%
%TO.C,Q7*%
X75100000Y14000000D03*
X76050000Y16000000D03*
X74150000Y16000000D03*
%TD*%
%TO.C,R1*%
G36*
G01*
X29700000Y26281250D02*
X29700000Y25718750D01*
G75*
G02*
X29456250Y25475000I-243750J0D01*
G01*
X28968750Y25475000D01*
G75*
G02*
X28725000Y25718750I0J243750D01*
G01*
X28725000Y26281250D01*
G75*
G02*
X28968750Y26525000I243750J0D01*
G01*
X29456250Y26525000D01*
G75*
G02*
X29700000Y26281250I0J-243750D01*
G01*
G37*
G36*
G01*
X31275000Y26281250D02*
X31275000Y25718750D01*
G75*
G02*
X31031250Y25475000I-243750J0D01*
G01*
X30543750Y25475000D01*
G75*
G02*
X30300000Y25718750I0J243750D01*
G01*
X30300000Y26281250D01*
G75*
G02*
X30543750Y26525000I243750J0D01*
G01*
X31031250Y26525000D01*
G75*
G02*
X31275000Y26281250I0J-243750D01*
G01*
G37*
%TD*%
%TO.C,R2*%
G36*
G01*
X26275000Y27281250D02*
X26275000Y26718750D01*
G75*
G02*
X26031250Y26475000I-243750J0D01*
G01*
X25543750Y26475000D01*
G75*
G02*
X25300000Y26718750I0J243750D01*
G01*
X25300000Y27281250D01*
G75*
G02*
X25543750Y27525000I243750J0D01*
G01*
X26031250Y27525000D01*
G75*
G02*
X26275000Y27281250I0J-243750D01*
G01*
G37*
G36*
G01*
X24700000Y27281250D02*
X24700000Y26718750D01*
G75*
G02*
X24456250Y26475000I-243750J0D01*
G01*
X23968750Y26475000D01*
G75*
G02*
X23725000Y26718750I0J243750D01*
G01*
X23725000Y27281250D01*
G75*
G02*
X23968750Y27525000I243750J0D01*
G01*
X24456250Y27525000D01*
G75*
G02*
X24700000Y27281250I0J-243750D01*
G01*
G37*
%TD*%
%TO.C,R3*%
G36*
G01*
X25300000Y24718750D02*
X25300000Y25281250D01*
G75*
G02*
X25543750Y25525000I243750J0D01*
G01*
X26031250Y25525000D01*
G75*
G02*
X26275000Y25281250I0J-243750D01*
G01*
X26275000Y24718750D01*
G75*
G02*
X26031250Y24475000I-243750J0D01*
G01*
X25543750Y24475000D01*
G75*
G02*
X25300000Y24718750I0J243750D01*
G01*
G37*
G36*
G01*
X23725000Y24718750D02*
X23725000Y25281250D01*
G75*
G02*
X23968750Y25525000I243750J0D01*
G01*
X24456250Y25525000D01*
G75*
G02*
X24700000Y25281250I0J-243750D01*
G01*
X24700000Y24718750D01*
G75*
G02*
X24456250Y24475000I-243750J0D01*
G01*
X23968750Y24475000D01*
G75*
G02*
X23725000Y24718750I0J243750D01*
G01*
G37*
%TD*%
%TO.C,R4*%
G36*
G01*
X96081250Y24525000D02*
X95518750Y24525000D01*
G75*
G02*
X95275000Y24768750I0J243750D01*
G01*
X95275000Y25256250D01*
G75*
G02*
X95518750Y25500000I243750J0D01*
G01*
X96081250Y25500000D01*
G75*
G02*
X96325000Y25256250I0J-243750D01*
G01*
X96325000Y24768750D01*
G75*
G02*
X96081250Y24525000I-243750J0D01*
G01*
G37*
G36*
G01*
X96081250Y26100000D02*
X95518750Y26100000D01*
G75*
G02*
X95275000Y26343750I0J243750D01*
G01*
X95275000Y26831250D01*
G75*
G02*
X95518750Y27075000I243750J0D01*
G01*
X96081250Y27075000D01*
G75*
G02*
X96325000Y26831250I0J-243750D01*
G01*
X96325000Y26343750D01*
G75*
G02*
X96081250Y26100000I-243750J0D01*
G01*
G37*
%TD*%
%TO.C,R5*%
G36*
G01*
X77481250Y27800000D02*
X76918750Y27800000D01*
G75*
G02*
X76675000Y28043750I0J243750D01*
G01*
X76675000Y28531250D01*
G75*
G02*
X76918750Y28775000I243750J0D01*
G01*
X77481250Y28775000D01*
G75*
G02*
X77725000Y28531250I0J-243750D01*
G01*
X77725000Y28043750D01*
G75*
G02*
X77481250Y27800000I-243750J0D01*
G01*
G37*
G36*
G01*
X77481250Y26225000D02*
X76918750Y26225000D01*
G75*
G02*
X76675000Y26468750I0J243750D01*
G01*
X76675000Y26956250D01*
G75*
G02*
X76918750Y27200000I243750J0D01*
G01*
X77481250Y27200000D01*
G75*
G02*
X77725000Y26956250I0J-243750D01*
G01*
X77725000Y26468750D01*
G75*
G02*
X77481250Y26225000I-243750J0D01*
G01*
G37*
%TD*%
%TO.C,R6*%
G36*
G01*
X93725000Y17718750D02*
X93725000Y18281250D01*
G75*
G02*
X93968750Y18525000I243750J0D01*
G01*
X94456250Y18525000D01*
G75*
G02*
X94700000Y18281250I0J-243750D01*
G01*
X94700000Y17718750D01*
G75*
G02*
X94456250Y17475000I-243750J0D01*
G01*
X93968750Y17475000D01*
G75*
G02*
X93725000Y17718750I0J243750D01*
G01*
G37*
G36*
G01*
X95300000Y17718750D02*
X95300000Y18281250D01*
G75*
G02*
X95543750Y18525000I243750J0D01*
G01*
X96031250Y18525000D01*
G75*
G02*
X96275000Y18281250I0J-243750D01*
G01*
X96275000Y17718750D01*
G75*
G02*
X96031250Y17475000I-243750J0D01*
G01*
X95543750Y17475000D01*
G75*
G02*
X95300000Y17718750I0J243750D01*
G01*
G37*
%TD*%
%TO.C,R7*%
G36*
G01*
X103675000Y12281250D02*
X103675000Y11718750D01*
G75*
G02*
X103431250Y11475000I-243750J0D01*
G01*
X102943750Y11475000D01*
G75*
G02*
X102700000Y11718750I0J243750D01*
G01*
X102700000Y12281250D01*
G75*
G02*
X102943750Y12525000I243750J0D01*
G01*
X103431250Y12525000D01*
G75*
G02*
X103675000Y12281250I0J-243750D01*
G01*
G37*
G36*
G01*
X102100000Y12281250D02*
X102100000Y11718750D01*
G75*
G02*
X101856250Y11475000I-243750J0D01*
G01*
X101368750Y11475000D01*
G75*
G02*
X101125000Y11718750I0J243750D01*
G01*
X101125000Y12281250D01*
G75*
G02*
X101368750Y12525000I243750J0D01*
G01*
X101856250Y12525000D01*
G75*
G02*
X102100000Y12281250I0J-243750D01*
G01*
G37*
%TD*%
%TO.C,R8*%
G36*
G01*
X88500000Y17718750D02*
X88500000Y18281250D01*
G75*
G02*
X88743750Y18525000I243750J0D01*
G01*
X89231250Y18525000D01*
G75*
G02*
X89475000Y18281250I0J-243750D01*
G01*
X89475000Y17718750D01*
G75*
G02*
X89231250Y17475000I-243750J0D01*
G01*
X88743750Y17475000D01*
G75*
G02*
X88500000Y17718750I0J243750D01*
G01*
G37*
G36*
G01*
X86925000Y17718750D02*
X86925000Y18281250D01*
G75*
G02*
X87168750Y18525000I243750J0D01*
G01*
X87656250Y18525000D01*
G75*
G02*
X87900000Y18281250I0J-243750D01*
G01*
X87900000Y17718750D01*
G75*
G02*
X87656250Y17475000I-243750J0D01*
G01*
X87168750Y17475000D01*
G75*
G02*
X86925000Y17718750I0J243750D01*
G01*
G37*
%TD*%
%TO.C,R9*%
G36*
G01*
X88918750Y3875000D02*
X89481250Y3875000D01*
G75*
G02*
X89725000Y3631250I0J-243750D01*
G01*
X89725000Y3143750D01*
G75*
G02*
X89481250Y2900000I-243750J0D01*
G01*
X88918750Y2900000D01*
G75*
G02*
X88675000Y3143750I0J243750D01*
G01*
X88675000Y3631250D01*
G75*
G02*
X88918750Y3875000I243750J0D01*
G01*
G37*
G36*
G01*
X88918750Y2300000D02*
X89481250Y2300000D01*
G75*
G02*
X89725000Y2056250I0J-243750D01*
G01*
X89725000Y1568750D01*
G75*
G02*
X89481250Y1325000I-243750J0D01*
G01*
X88918750Y1325000D01*
G75*
G02*
X88675000Y1568750I0J243750D01*
G01*
X88675000Y2056250D01*
G75*
G02*
X88918750Y2300000I243750J0D01*
G01*
G37*
%TD*%
%TO.C,R10*%
G36*
G01*
X82000000Y17718750D02*
X82000000Y18281250D01*
G75*
G02*
X82243750Y18525000I243750J0D01*
G01*
X82731250Y18525000D01*
G75*
G02*
X82975000Y18281250I0J-243750D01*
G01*
X82975000Y17718750D01*
G75*
G02*
X82731250Y17475000I-243750J0D01*
G01*
X82243750Y17475000D01*
G75*
G02*
X82000000Y17718750I0J243750D01*
G01*
G37*
G36*
G01*
X80425000Y17718750D02*
X80425000Y18281250D01*
G75*
G02*
X80668750Y18525000I243750J0D01*
G01*
X81156250Y18525000D01*
G75*
G02*
X81400000Y18281250I0J-243750D01*
G01*
X81400000Y17718750D01*
G75*
G02*
X81156250Y17475000I-243750J0D01*
G01*
X80668750Y17475000D01*
G75*
G02*
X80425000Y17718750I0J243750D01*
G01*
G37*
%TD*%
%TO.C,R11*%
G36*
G01*
X80518750Y3875000D02*
X81081250Y3875000D01*
G75*
G02*
X81325000Y3631250I0J-243750D01*
G01*
X81325000Y3143750D01*
G75*
G02*
X81081250Y2900000I-243750J0D01*
G01*
X80518750Y2900000D01*
G75*
G02*
X80275000Y3143750I0J243750D01*
G01*
X80275000Y3631250D01*
G75*
G02*
X80518750Y3875000I243750J0D01*
G01*
G37*
G36*
G01*
X80518750Y2300000D02*
X81081250Y2300000D01*
G75*
G02*
X81325000Y2056250I0J-243750D01*
G01*
X81325000Y1568750D01*
G75*
G02*
X81081250Y1325000I-243750J0D01*
G01*
X80518750Y1325000D01*
G75*
G02*
X80275000Y1568750I0J243750D01*
G01*
X80275000Y2056250D01*
G75*
G02*
X80518750Y2300000I243750J0D01*
G01*
G37*
%TD*%
%TO.C,R12*%
G36*
G01*
X75400000Y17718750D02*
X75400000Y18281250D01*
G75*
G02*
X75643750Y18525000I243750J0D01*
G01*
X76131250Y18525000D01*
G75*
G02*
X76375000Y18281250I0J-243750D01*
G01*
X76375000Y17718750D01*
G75*
G02*
X76131250Y17475000I-243750J0D01*
G01*
X75643750Y17475000D01*
G75*
G02*
X75400000Y17718750I0J243750D01*
G01*
G37*
G36*
G01*
X73825000Y17718750D02*
X73825000Y18281250D01*
G75*
G02*
X74068750Y18525000I243750J0D01*
G01*
X74556250Y18525000D01*
G75*
G02*
X74800000Y18281250I0J-243750D01*
G01*
X74800000Y17718750D01*
G75*
G02*
X74556250Y17475000I-243750J0D01*
G01*
X74068750Y17475000D01*
G75*
G02*
X73825000Y17718750I0J243750D01*
G01*
G37*
%TD*%
%TO.C,R13*%
G36*
G01*
X66225000Y12318750D02*
X66225000Y12881250D01*
G75*
G02*
X66468750Y13125000I243750J0D01*
G01*
X66956250Y13125000D01*
G75*
G02*
X67200000Y12881250I0J-243750D01*
G01*
X67200000Y12318750D01*
G75*
G02*
X66956250Y12075000I-243750J0D01*
G01*
X66468750Y12075000D01*
G75*
G02*
X66225000Y12318750I0J243750D01*
G01*
G37*
G36*
G01*
X67800000Y12318750D02*
X67800000Y12881250D01*
G75*
G02*
X68043750Y13125000I243750J0D01*
G01*
X68531250Y13125000D01*
G75*
G02*
X68775000Y12881250I0J-243750D01*
G01*
X68775000Y12318750D01*
G75*
G02*
X68531250Y12075000I-243750J0D01*
G01*
X68043750Y12075000D01*
G75*
G02*
X67800000Y12318750I0J243750D01*
G01*
G37*
%TD*%
%TO.C,R14*%
G36*
G01*
X62800000Y32518750D02*
X62800000Y33081250D01*
G75*
G02*
X63043750Y33325000I243750J0D01*
G01*
X63531250Y33325000D01*
G75*
G02*
X63775000Y33081250I0J-243750D01*
G01*
X63775000Y32518750D01*
G75*
G02*
X63531250Y32275000I-243750J0D01*
G01*
X63043750Y32275000D01*
G75*
G02*
X62800000Y32518750I0J243750D01*
G01*
G37*
G36*
G01*
X61225000Y32518750D02*
X61225000Y33081250D01*
G75*
G02*
X61468750Y33325000I243750J0D01*
G01*
X61956250Y33325000D01*
G75*
G02*
X62200000Y33081250I0J-243750D01*
G01*
X62200000Y32518750D01*
G75*
G02*
X61956250Y32275000I-243750J0D01*
G01*
X61468750Y32275000D01*
G75*
G02*
X61225000Y32518750I0J243750D01*
G01*
G37*
%TD*%
%TO.C,R15*%
G36*
G01*
X96575000Y48781250D02*
X96575000Y48218750D01*
G75*
G02*
X96331250Y47975000I-243750J0D01*
G01*
X95843750Y47975000D01*
G75*
G02*
X95600000Y48218750I0J243750D01*
G01*
X95600000Y48781250D01*
G75*
G02*
X95843750Y49025000I243750J0D01*
G01*
X96331250Y49025000D01*
G75*
G02*
X96575000Y48781250I0J-243750D01*
G01*
G37*
G36*
G01*
X95000000Y48781250D02*
X95000000Y48218750D01*
G75*
G02*
X94756250Y47975000I-243750J0D01*
G01*
X94268750Y47975000D01*
G75*
G02*
X94025000Y48218750I0J243750D01*
G01*
X94025000Y48781250D01*
G75*
G02*
X94268750Y49025000I243750J0D01*
G01*
X94756250Y49025000D01*
G75*
G02*
X95000000Y48781250I0J-243750D01*
G01*
G37*
%TD*%
%TO.C,R16*%
G36*
G01*
X75000000Y48218750D02*
X75000000Y48781250D01*
G75*
G02*
X75243750Y49025000I243750J0D01*
G01*
X75731250Y49025000D01*
G75*
G02*
X75975000Y48781250I0J-243750D01*
G01*
X75975000Y48218750D01*
G75*
G02*
X75731250Y47975000I-243750J0D01*
G01*
X75243750Y47975000D01*
G75*
G02*
X75000000Y48218750I0J243750D01*
G01*
G37*
G36*
G01*
X73425000Y48218750D02*
X73425000Y48781250D01*
G75*
G02*
X73668750Y49025000I243750J0D01*
G01*
X74156250Y49025000D01*
G75*
G02*
X74400000Y48781250I0J-243750D01*
G01*
X74400000Y48218750D01*
G75*
G02*
X74156250Y47975000I-243750J0D01*
G01*
X73668750Y47975000D01*
G75*
G02*
X73425000Y48218750I0J243750D01*
G01*
G37*
%TD*%
%TO.C,R17*%
G36*
G01*
X33281250Y25725000D02*
X32718750Y25725000D01*
G75*
G02*
X32475000Y25968750I0J243750D01*
G01*
X32475000Y26456250D01*
G75*
G02*
X32718750Y26700000I243750J0D01*
G01*
X33281250Y26700000D01*
G75*
G02*
X33525000Y26456250I0J-243750D01*
G01*
X33525000Y25968750D01*
G75*
G02*
X33281250Y25725000I-243750J0D01*
G01*
G37*
G36*
G01*
X33281250Y27300000D02*
X32718750Y27300000D01*
G75*
G02*
X32475000Y27543750I0J243750D01*
G01*
X32475000Y28031250D01*
G75*
G02*
X32718750Y28275000I243750J0D01*
G01*
X33281250Y28275000D01*
G75*
G02*
X33525000Y28031250I0J-243750D01*
G01*
X33525000Y27543750D01*
G75*
G02*
X33281250Y27300000I-243750J0D01*
G01*
G37*
%TD*%
%TO.C,R18*%
G36*
G01*
X75900000Y31681250D02*
X75900000Y31118750D01*
G75*
G02*
X75656250Y30875000I-243750J0D01*
G01*
X75168750Y30875000D01*
G75*
G02*
X74925000Y31118750I0J243750D01*
G01*
X74925000Y31681250D01*
G75*
G02*
X75168750Y31925000I243750J0D01*
G01*
X75656250Y31925000D01*
G75*
G02*
X75900000Y31681250I0J-243750D01*
G01*
G37*
G36*
G01*
X77475000Y31681250D02*
X77475000Y31118750D01*
G75*
G02*
X77231250Y30875000I-243750J0D01*
G01*
X76743750Y30875000D01*
G75*
G02*
X76500000Y31118750I0J243750D01*
G01*
X76500000Y31681250D01*
G75*
G02*
X76743750Y31925000I243750J0D01*
G01*
X77231250Y31925000D01*
G75*
G02*
X77475000Y31681250I0J-243750D01*
G01*
G37*
%TD*%
%TO.C,R19*%
G36*
G01*
X29700000Y28281250D02*
X29700000Y27718750D01*
G75*
G02*
X29456250Y27475000I-243750J0D01*
G01*
X28968750Y27475000D01*
G75*
G02*
X28725000Y27718750I0J243750D01*
G01*
X28725000Y28281250D01*
G75*
G02*
X28968750Y28525000I243750J0D01*
G01*
X29456250Y28525000D01*
G75*
G02*
X29700000Y28281250I0J-243750D01*
G01*
G37*
G36*
G01*
X31275000Y28281250D02*
X31275000Y27718750D01*
G75*
G02*
X31031250Y27475000I-243750J0D01*
G01*
X30543750Y27475000D01*
G75*
G02*
X30300000Y27718750I0J243750D01*
G01*
X30300000Y28281250D01*
G75*
G02*
X30543750Y28525000I243750J0D01*
G01*
X31031250Y28525000D01*
G75*
G02*
X31275000Y28281250I0J-243750D01*
G01*
G37*
%TD*%
%TO.C,R20*%
G36*
G01*
X47218750Y33275000D02*
X47781250Y33275000D01*
G75*
G02*
X48025000Y33031250I0J-243750D01*
G01*
X48025000Y32543750D01*
G75*
G02*
X47781250Y32300000I-243750J0D01*
G01*
X47218750Y32300000D01*
G75*
G02*
X46975000Y32543750I0J243750D01*
G01*
X46975000Y33031250D01*
G75*
G02*
X47218750Y33275000I243750J0D01*
G01*
G37*
G36*
G01*
X47218750Y31700000D02*
X47781250Y31700000D01*
G75*
G02*
X48025000Y31456250I0J-243750D01*
G01*
X48025000Y30968750D01*
G75*
G02*
X47781250Y30725000I-243750J0D01*
G01*
X47218750Y30725000D01*
G75*
G02*
X46975000Y30968750I0J243750D01*
G01*
X46975000Y31456250D01*
G75*
G02*
X47218750Y31700000I243750J0D01*
G01*
G37*
%TD*%
D18*
%TO.C,SW1*%
X38250000Y20500000D03*
X38250000Y8500000D03*
X44250000Y8500000D03*
X44250000Y20500000D03*
D19*
X40000000Y18500000D03*
X40000000Y14500000D03*
X40000000Y10500000D03*
%TD*%
D18*
%TO.C,SW2*%
X62500000Y35500000D03*
X67000000Y35500000D03*
X62500000Y42000000D03*
X67000000Y42000000D03*
%TD*%
D20*
%TO.C,U1*%
X25950000Y19900000D03*
X25000000Y19900000D03*
X24050000Y19900000D03*
X24050000Y22100000D03*
X25950000Y22100000D03*
X25000000Y22100000D03*
%TD*%
%TO.C,U2*%
G36*
G01*
X92318555Y34526167D02*
X92177134Y34384745D01*
G75*
G02*
X92035712Y34384745I-70711J70711D01*
G01*
X91010407Y35410050D01*
G75*
G02*
X91010407Y35551472I70711J70711D01*
G01*
X91151828Y35692893D01*
G75*
G02*
X91293250Y35692893I70711J-70711D01*
G01*
X92318555Y34667588D01*
G75*
G02*
X92318555Y34526166I-70711J-70711D01*
G01*
G37*
G36*
G01*
X91965002Y34172614D02*
X91823581Y34031192D01*
G75*
G02*
X91682159Y34031192I-70711J70711D01*
G01*
X90656854Y35056497D01*
G75*
G02*
X90656854Y35197919I70711J70711D01*
G01*
X90798275Y35339340D01*
G75*
G02*
X90939697Y35339340I70711J-70711D01*
G01*
X91965002Y34314035D01*
G75*
G02*
X91965002Y34172613I-70711J-70711D01*
G01*
G37*
G36*
G01*
X91611449Y33819061D02*
X91470028Y33677639D01*
G75*
G02*
X91328606Y33677639I-70711J70711D01*
G01*
X90303301Y34702944D01*
G75*
G02*
X90303301Y34844366I70711J70711D01*
G01*
X90444722Y34985787D01*
G75*
G02*
X90586144Y34985787I70711J-70711D01*
G01*
X91611449Y33960482D01*
G75*
G02*
X91611449Y33819060I-70711J-70711D01*
G01*
G37*
G36*
G01*
X91257895Y33465507D02*
X91116474Y33324085D01*
G75*
G02*
X90975052Y33324085I-70711J70711D01*
G01*
X89949747Y34349390D01*
G75*
G02*
X89949747Y34490812I70711J70711D01*
G01*
X90091168Y34632233D01*
G75*
G02*
X90232590Y34632233I70711J-70711D01*
G01*
X91257895Y33606928D01*
G75*
G02*
X91257895Y33465506I-70711J-70711D01*
G01*
G37*
G36*
G01*
X90904342Y33111954D02*
X90762921Y32970532D01*
G75*
G02*
X90621499Y32970532I-70711J70711D01*
G01*
X89596194Y33995837D01*
G75*
G02*
X89596194Y34137259I70711J70711D01*
G01*
X89737615Y34278680D01*
G75*
G02*
X89879037Y34278680I70711J-70711D01*
G01*
X90904342Y33253375D01*
G75*
G02*
X90904342Y33111953I-70711J-70711D01*
G01*
G37*
G36*
G01*
X90550788Y32758400D02*
X90409367Y32616978D01*
G75*
G02*
X90267945Y32616978I-70711J70711D01*
G01*
X89242640Y33642283D01*
G75*
G02*
X89242640Y33783705I70711J70711D01*
G01*
X89384061Y33925126D01*
G75*
G02*
X89525483Y33925126I70711J-70711D01*
G01*
X90550788Y32899821D01*
G75*
G02*
X90550788Y32758399I-70711J-70711D01*
G01*
G37*
G36*
G01*
X90197235Y32404847D02*
X90055814Y32263425D01*
G75*
G02*
X89914392Y32263425I-70711J70711D01*
G01*
X88889087Y33288730D01*
G75*
G02*
X88889087Y33430152I70711J70711D01*
G01*
X89030508Y33571573D01*
G75*
G02*
X89171930Y33571573I70711J-70711D01*
G01*
X90197235Y32546268D01*
G75*
G02*
X90197235Y32404846I-70711J-70711D01*
G01*
G37*
G36*
G01*
X89843682Y32051294D02*
X89702261Y31909872D01*
G75*
G02*
X89560839Y31909872I-70711J70711D01*
G01*
X88535534Y32935177D01*
G75*
G02*
X88535534Y33076599I70711J70711D01*
G01*
X88676955Y33218020D01*
G75*
G02*
X88818377Y33218020I70711J-70711D01*
G01*
X89843682Y32192715D01*
G75*
G02*
X89843682Y32051293I-70711J-70711D01*
G01*
G37*
G36*
G01*
X89490128Y31697740D02*
X89348707Y31556318D01*
G75*
G02*
X89207285Y31556318I-70711J70711D01*
G01*
X88181980Y32581623D01*
G75*
G02*
X88181980Y32723045I70711J70711D01*
G01*
X88323401Y32864466D01*
G75*
G02*
X88464823Y32864466I70711J-70711D01*
G01*
X89490128Y31839161D01*
G75*
G02*
X89490128Y31697739I-70711J-70711D01*
G01*
G37*
G36*
G01*
X89136575Y31344187D02*
X88995154Y31202765D01*
G75*
G02*
X88853732Y31202765I-70711J70711D01*
G01*
X87828427Y32228070D01*
G75*
G02*
X87828427Y32369492I70711J70711D01*
G01*
X87969848Y32510913D01*
G75*
G02*
X88111270Y32510913I70711J-70711D01*
G01*
X89136575Y31485608D01*
G75*
G02*
X89136575Y31344186I-70711J-70711D01*
G01*
G37*
G36*
G01*
X88783022Y30990634D02*
X88641601Y30849212D01*
G75*
G02*
X88500179Y30849212I-70711J70711D01*
G01*
X87474874Y31874517D01*
G75*
G02*
X87474874Y32015939I70711J70711D01*
G01*
X87616295Y32157360D01*
G75*
G02*
X87757717Y32157360I70711J-70711D01*
G01*
X88783022Y31132055D01*
G75*
G02*
X88783022Y30990633I-70711J-70711D01*
G01*
G37*
G36*
G01*
X88429468Y30637080D02*
X88288047Y30495658D01*
G75*
G02*
X88146625Y30495658I-70711J70711D01*
G01*
X87121320Y31520963D01*
G75*
G02*
X87121320Y31662385I70711J70711D01*
G01*
X87262741Y31803806D01*
G75*
G02*
X87404163Y31803806I70711J-70711D01*
G01*
X88429468Y30778501D01*
G75*
G02*
X88429468Y30637079I-70711J-70711D01*
G01*
G37*
G36*
G01*
X88075915Y30283527D02*
X87934494Y30142105D01*
G75*
G02*
X87793072Y30142105I-70711J70711D01*
G01*
X86767767Y31167410D01*
G75*
G02*
X86767767Y31308832I70711J70711D01*
G01*
X86909188Y31450253D01*
G75*
G02*
X87050610Y31450253I70711J-70711D01*
G01*
X88075915Y30424948D01*
G75*
G02*
X88075915Y30283526I-70711J-70711D01*
G01*
G37*
G36*
G01*
X87722361Y29929973D02*
X87580940Y29788551D01*
G75*
G02*
X87439518Y29788551I-70711J70711D01*
G01*
X86414213Y30813856D01*
G75*
G02*
X86414213Y30955278I70711J70711D01*
G01*
X86555634Y31096699D01*
G75*
G02*
X86697056Y31096699I70711J-70711D01*
G01*
X87722361Y30071394D01*
G75*
G02*
X87722361Y29929972I-70711J-70711D01*
G01*
G37*
G36*
G01*
X87368808Y29576420D02*
X87227387Y29434998D01*
G75*
G02*
X87085965Y29434998I-70711J70711D01*
G01*
X86060660Y30460303D01*
G75*
G02*
X86060660Y30601725I70711J70711D01*
G01*
X86202081Y30743146D01*
G75*
G02*
X86343503Y30743146I70711J-70711D01*
G01*
X87368808Y29717841D01*
G75*
G02*
X87368808Y29576419I-70711J-70711D01*
G01*
G37*
G36*
G01*
X87015255Y29222867D02*
X86873834Y29081445D01*
G75*
G02*
X86732412Y29081445I-70711J70711D01*
G01*
X85707107Y30106750D01*
G75*
G02*
X85707107Y30248172I70711J70711D01*
G01*
X85848528Y30389593D01*
G75*
G02*
X85989950Y30389593I70711J-70711D01*
G01*
X87015255Y29364288D01*
G75*
G02*
X87015255Y29222866I-70711J-70711D01*
G01*
G37*
G36*
G01*
X84292893Y30106750D02*
X83267588Y29081445D01*
G75*
G02*
X83126166Y29081445I-70711J70711D01*
G01*
X82984745Y29222866D01*
G75*
G02*
X82984745Y29364288I70711J70711D01*
G01*
X84010050Y30389593D01*
G75*
G02*
X84151472Y30389593I70711J-70711D01*
G01*
X84292893Y30248172D01*
G75*
G02*
X84292893Y30106750I-70711J-70711D01*
G01*
G37*
G36*
G01*
X83939340Y30460303D02*
X82914035Y29434998D01*
G75*
G02*
X82772613Y29434998I-70711J70711D01*
G01*
X82631192Y29576419D01*
G75*
G02*
X82631192Y29717841I70711J70711D01*
G01*
X83656497Y30743146D01*
G75*
G02*
X83797919Y30743146I70711J-70711D01*
G01*
X83939340Y30601725D01*
G75*
G02*
X83939340Y30460303I-70711J-70711D01*
G01*
G37*
G36*
G01*
X83585787Y30813856D02*
X82560482Y29788551D01*
G75*
G02*
X82419060Y29788551I-70711J70711D01*
G01*
X82277639Y29929972D01*
G75*
G02*
X82277639Y30071394I70711J70711D01*
G01*
X83302944Y31096699D01*
G75*
G02*
X83444366Y31096699I70711J-70711D01*
G01*
X83585787Y30955278D01*
G75*
G02*
X83585787Y30813856I-70711J-70711D01*
G01*
G37*
G36*
G01*
X83232233Y31167410D02*
X82206928Y30142105D01*
G75*
G02*
X82065506Y30142105I-70711J70711D01*
G01*
X81924085Y30283526D01*
G75*
G02*
X81924085Y30424948I70711J70711D01*
G01*
X82949390Y31450253D01*
G75*
G02*
X83090812Y31450253I70711J-70711D01*
G01*
X83232233Y31308832D01*
G75*
G02*
X83232233Y31167410I-70711J-70711D01*
G01*
G37*
G36*
G01*
X82878680Y31520963D02*
X81853375Y30495658D01*
G75*
G02*
X81711953Y30495658I-70711J70711D01*
G01*
X81570532Y30637079D01*
G75*
G02*
X81570532Y30778501I70711J70711D01*
G01*
X82595837Y31803806D01*
G75*
G02*
X82737259Y31803806I70711J-70711D01*
G01*
X82878680Y31662385D01*
G75*
G02*
X82878680Y31520963I-70711J-70711D01*
G01*
G37*
G36*
G01*
X82525126Y31874517D02*
X81499821Y30849212D01*
G75*
G02*
X81358399Y30849212I-70711J70711D01*
G01*
X81216978Y30990633D01*
G75*
G02*
X81216978Y31132055I70711J70711D01*
G01*
X82242283Y32157360D01*
G75*
G02*
X82383705Y32157360I70711J-70711D01*
G01*
X82525126Y32015939D01*
G75*
G02*
X82525126Y31874517I-70711J-70711D01*
G01*
G37*
G36*
G01*
X82171573Y32228070D02*
X81146268Y31202765D01*
G75*
G02*
X81004846Y31202765I-70711J70711D01*
G01*
X80863425Y31344186D01*
G75*
G02*
X80863425Y31485608I70711J70711D01*
G01*
X81888730Y32510913D01*
G75*
G02*
X82030152Y32510913I70711J-70711D01*
G01*
X82171573Y32369492D01*
G75*
G02*
X82171573Y32228070I-70711J-70711D01*
G01*
G37*
G36*
G01*
X81818020Y32581623D02*
X80792715Y31556318D01*
G75*
G02*
X80651293Y31556318I-70711J70711D01*
G01*
X80509872Y31697739D01*
G75*
G02*
X80509872Y31839161I70711J70711D01*
G01*
X81535177Y32864466D01*
G75*
G02*
X81676599Y32864466I70711J-70711D01*
G01*
X81818020Y32723045D01*
G75*
G02*
X81818020Y32581623I-70711J-70711D01*
G01*
G37*
G36*
G01*
X81464466Y32935177D02*
X80439161Y31909872D01*
G75*
G02*
X80297739Y31909872I-70711J70711D01*
G01*
X80156318Y32051293D01*
G75*
G02*
X80156318Y32192715I70711J70711D01*
G01*
X81181623Y33218020D01*
G75*
G02*
X81323045Y33218020I70711J-70711D01*
G01*
X81464466Y33076599D01*
G75*
G02*
X81464466Y32935177I-70711J-70711D01*
G01*
G37*
G36*
G01*
X81110913Y33288730D02*
X80085608Y32263425D01*
G75*
G02*
X79944186Y32263425I-70711J70711D01*
G01*
X79802765Y32404846D01*
G75*
G02*
X79802765Y32546268I70711J70711D01*
G01*
X80828070Y33571573D01*
G75*
G02*
X80969492Y33571573I70711J-70711D01*
G01*
X81110913Y33430152D01*
G75*
G02*
X81110913Y33288730I-70711J-70711D01*
G01*
G37*
G36*
G01*
X80757360Y33642283D02*
X79732055Y32616978D01*
G75*
G02*
X79590633Y32616978I-70711J70711D01*
G01*
X79449212Y32758399D01*
G75*
G02*
X79449212Y32899821I70711J70711D01*
G01*
X80474517Y33925126D01*
G75*
G02*
X80615939Y33925126I70711J-70711D01*
G01*
X80757360Y33783705D01*
G75*
G02*
X80757360Y33642283I-70711J-70711D01*
G01*
G37*
G36*
G01*
X80403806Y33995837D02*
X79378501Y32970532D01*
G75*
G02*
X79237079Y32970532I-70711J70711D01*
G01*
X79095658Y33111953D01*
G75*
G02*
X79095658Y33253375I70711J70711D01*
G01*
X80120963Y34278680D01*
G75*
G02*
X80262385Y34278680I70711J-70711D01*
G01*
X80403806Y34137259D01*
G75*
G02*
X80403806Y33995837I-70711J-70711D01*
G01*
G37*
G36*
G01*
X80050253Y34349390D02*
X79024948Y33324085D01*
G75*
G02*
X78883526Y33324085I-70711J70711D01*
G01*
X78742105Y33465506D01*
G75*
G02*
X78742105Y33606928I70711J70711D01*
G01*
X79767410Y34632233D01*
G75*
G02*
X79908832Y34632233I70711J-70711D01*
G01*
X80050253Y34490812D01*
G75*
G02*
X80050253Y34349390I-70711J-70711D01*
G01*
G37*
G36*
G01*
X79696699Y34702944D02*
X78671394Y33677639D01*
G75*
G02*
X78529972Y33677639I-70711J70711D01*
G01*
X78388551Y33819060D01*
G75*
G02*
X78388551Y33960482I70711J70711D01*
G01*
X79413856Y34985787D01*
G75*
G02*
X79555278Y34985787I70711J-70711D01*
G01*
X79696699Y34844366D01*
G75*
G02*
X79696699Y34702944I-70711J-70711D01*
G01*
G37*
G36*
G01*
X79343146Y35056497D02*
X78317841Y34031192D01*
G75*
G02*
X78176419Y34031192I-70711J70711D01*
G01*
X78034998Y34172613D01*
G75*
G02*
X78034998Y34314035I70711J70711D01*
G01*
X79060303Y35339340D01*
G75*
G02*
X79201725Y35339340I70711J-70711D01*
G01*
X79343146Y35197919D01*
G75*
G02*
X79343146Y35056497I-70711J-70711D01*
G01*
G37*
G36*
G01*
X78989593Y35410050D02*
X77964288Y34384745D01*
G75*
G02*
X77822866Y34384745I-70711J70711D01*
G01*
X77681445Y34526166D01*
G75*
G02*
X77681445Y34667588I70711J70711D01*
G01*
X78706750Y35692893D01*
G75*
G02*
X78848172Y35692893I70711J-70711D01*
G01*
X78989593Y35551472D01*
G75*
G02*
X78989593Y35410050I-70711J-70711D01*
G01*
G37*
G36*
G01*
X78989593Y37248529D02*
X78848172Y37107107D01*
G75*
G02*
X78706750Y37107107I-70711J70711D01*
G01*
X77681445Y38132412D01*
G75*
G02*
X77681445Y38273834I70711J70711D01*
G01*
X77822866Y38415255D01*
G75*
G02*
X77964288Y38415255I70711J-70711D01*
G01*
X78989593Y37389950D01*
G75*
G02*
X78989593Y37248528I-70711J-70711D01*
G01*
G37*
G36*
G01*
X79343146Y37602082D02*
X79201725Y37460660D01*
G75*
G02*
X79060303Y37460660I-70711J70711D01*
G01*
X78034998Y38485965D01*
G75*
G02*
X78034998Y38627387I70711J70711D01*
G01*
X78176419Y38768808D01*
G75*
G02*
X78317841Y38768808I70711J-70711D01*
G01*
X79343146Y37743503D01*
G75*
G02*
X79343146Y37602081I-70711J-70711D01*
G01*
G37*
G36*
G01*
X79696699Y37955635D02*
X79555278Y37814213D01*
G75*
G02*
X79413856Y37814213I-70711J70711D01*
G01*
X78388551Y38839518D01*
G75*
G02*
X78388551Y38980940I70711J70711D01*
G01*
X78529972Y39122361D01*
G75*
G02*
X78671394Y39122361I70711J-70711D01*
G01*
X79696699Y38097056D01*
G75*
G02*
X79696699Y37955634I-70711J-70711D01*
G01*
G37*
G36*
G01*
X80050253Y38309189D02*
X79908832Y38167767D01*
G75*
G02*
X79767410Y38167767I-70711J70711D01*
G01*
X78742105Y39193072D01*
G75*
G02*
X78742105Y39334494I70711J70711D01*
G01*
X78883526Y39475915D01*
G75*
G02*
X79024948Y39475915I70711J-70711D01*
G01*
X80050253Y38450610D01*
G75*
G02*
X80050253Y38309188I-70711J-70711D01*
G01*
G37*
G36*
G01*
X80403806Y38662742D02*
X80262385Y38521320D01*
G75*
G02*
X80120963Y38521320I-70711J70711D01*
G01*
X79095658Y39546625D01*
G75*
G02*
X79095658Y39688047I70711J70711D01*
G01*
X79237079Y39829468D01*
G75*
G02*
X79378501Y39829468I70711J-70711D01*
G01*
X80403806Y38804163D01*
G75*
G02*
X80403806Y38662741I-70711J-70711D01*
G01*
G37*
G36*
G01*
X80757360Y39016296D02*
X80615939Y38874874D01*
G75*
G02*
X80474517Y38874874I-70711J70711D01*
G01*
X79449212Y39900179D01*
G75*
G02*
X79449212Y40041601I70711J70711D01*
G01*
X79590633Y40183022D01*
G75*
G02*
X79732055Y40183022I70711J-70711D01*
G01*
X80757360Y39157717D01*
G75*
G02*
X80757360Y39016295I-70711J-70711D01*
G01*
G37*
G36*
G01*
X81110913Y39369849D02*
X80969492Y39228427D01*
G75*
G02*
X80828070Y39228427I-70711J70711D01*
G01*
X79802765Y40253732D01*
G75*
G02*
X79802765Y40395154I70711J70711D01*
G01*
X79944186Y40536575D01*
G75*
G02*
X80085608Y40536575I70711J-70711D01*
G01*
X81110913Y39511270D01*
G75*
G02*
X81110913Y39369848I-70711J-70711D01*
G01*
G37*
G36*
G01*
X81464466Y39723402D02*
X81323045Y39581980D01*
G75*
G02*
X81181623Y39581980I-70711J70711D01*
G01*
X80156318Y40607285D01*
G75*
G02*
X80156318Y40748707I70711J70711D01*
G01*
X80297739Y40890128D01*
G75*
G02*
X80439161Y40890128I70711J-70711D01*
G01*
X81464466Y39864823D01*
G75*
G02*
X81464466Y39723401I-70711J-70711D01*
G01*
G37*
G36*
G01*
X81818020Y40076956D02*
X81676599Y39935534D01*
G75*
G02*
X81535177Y39935534I-70711J70711D01*
G01*
X80509872Y40960839D01*
G75*
G02*
X80509872Y41102261I70711J70711D01*
G01*
X80651293Y41243682D01*
G75*
G02*
X80792715Y41243682I70711J-70711D01*
G01*
X81818020Y40218377D01*
G75*
G02*
X81818020Y40076955I-70711J-70711D01*
G01*
G37*
G36*
G01*
X82171573Y40430509D02*
X82030152Y40289087D01*
G75*
G02*
X81888730Y40289087I-70711J70711D01*
G01*
X80863425Y41314392D01*
G75*
G02*
X80863425Y41455814I70711J70711D01*
G01*
X81004846Y41597235D01*
G75*
G02*
X81146268Y41597235I70711J-70711D01*
G01*
X82171573Y40571930D01*
G75*
G02*
X82171573Y40430508I-70711J-70711D01*
G01*
G37*
G36*
G01*
X82525126Y40784062D02*
X82383705Y40642640D01*
G75*
G02*
X82242283Y40642640I-70711J70711D01*
G01*
X81216978Y41667945D01*
G75*
G02*
X81216978Y41809367I70711J70711D01*
G01*
X81358399Y41950788D01*
G75*
G02*
X81499821Y41950788I70711J-70711D01*
G01*
X82525126Y40925483D01*
G75*
G02*
X82525126Y40784061I-70711J-70711D01*
G01*
G37*
G36*
G01*
X82878680Y41137616D02*
X82737259Y40996194D01*
G75*
G02*
X82595837Y40996194I-70711J70711D01*
G01*
X81570532Y42021499D01*
G75*
G02*
X81570532Y42162921I70711J70711D01*
G01*
X81711953Y42304342D01*
G75*
G02*
X81853375Y42304342I70711J-70711D01*
G01*
X82878680Y41279037D01*
G75*
G02*
X82878680Y41137615I-70711J-70711D01*
G01*
G37*
G36*
G01*
X83232233Y41491169D02*
X83090812Y41349747D01*
G75*
G02*
X82949390Y41349747I-70711J70711D01*
G01*
X81924085Y42375052D01*
G75*
G02*
X81924085Y42516474I70711J70711D01*
G01*
X82065506Y42657895D01*
G75*
G02*
X82206928Y42657895I70711J-70711D01*
G01*
X83232233Y41632590D01*
G75*
G02*
X83232233Y41491168I-70711J-70711D01*
G01*
G37*
G36*
G01*
X83585787Y41844723D02*
X83444366Y41703301D01*
G75*
G02*
X83302944Y41703301I-70711J70711D01*
G01*
X82277639Y42728606D01*
G75*
G02*
X82277639Y42870028I70711J70711D01*
G01*
X82419060Y43011449D01*
G75*
G02*
X82560482Y43011449I70711J-70711D01*
G01*
X83585787Y41986144D01*
G75*
G02*
X83585787Y41844722I-70711J-70711D01*
G01*
G37*
G36*
G01*
X83939340Y42198276D02*
X83797919Y42056854D01*
G75*
G02*
X83656497Y42056854I-70711J70711D01*
G01*
X82631192Y43082159D01*
G75*
G02*
X82631192Y43223581I70711J70711D01*
G01*
X82772613Y43365002D01*
G75*
G02*
X82914035Y43365002I70711J-70711D01*
G01*
X83939340Y42339697D01*
G75*
G02*
X83939340Y42198275I-70711J-70711D01*
G01*
G37*
G36*
G01*
X84292893Y42551829D02*
X84151472Y42410407D01*
G75*
G02*
X84010050Y42410407I-70711J70711D01*
G01*
X82984745Y43435712D01*
G75*
G02*
X82984745Y43577134I70711J70711D01*
G01*
X83126166Y43718555D01*
G75*
G02*
X83267588Y43718555I70711J-70711D01*
G01*
X84292893Y42693250D01*
G75*
G02*
X84292893Y42551828I-70711J-70711D01*
G01*
G37*
G36*
G01*
X87015255Y43435712D02*
X85989950Y42410407D01*
G75*
G02*
X85848528Y42410407I-70711J70711D01*
G01*
X85707107Y42551828D01*
G75*
G02*
X85707107Y42693250I70711J70711D01*
G01*
X86732412Y43718555D01*
G75*
G02*
X86873834Y43718555I70711J-70711D01*
G01*
X87015255Y43577134D01*
G75*
G02*
X87015255Y43435712I-70711J-70711D01*
G01*
G37*
G36*
G01*
X87368808Y43082159D02*
X86343503Y42056854D01*
G75*
G02*
X86202081Y42056854I-70711J70711D01*
G01*
X86060660Y42198275D01*
G75*
G02*
X86060660Y42339697I70711J70711D01*
G01*
X87085965Y43365002D01*
G75*
G02*
X87227387Y43365002I70711J-70711D01*
G01*
X87368808Y43223581D01*
G75*
G02*
X87368808Y43082159I-70711J-70711D01*
G01*
G37*
G36*
G01*
X87722361Y42728606D02*
X86697056Y41703301D01*
G75*
G02*
X86555634Y41703301I-70711J70711D01*
G01*
X86414213Y41844722D01*
G75*
G02*
X86414213Y41986144I70711J70711D01*
G01*
X87439518Y43011449D01*
G75*
G02*
X87580940Y43011449I70711J-70711D01*
G01*
X87722361Y42870028D01*
G75*
G02*
X87722361Y42728606I-70711J-70711D01*
G01*
G37*
G36*
G01*
X88075915Y42375052D02*
X87050610Y41349747D01*
G75*
G02*
X86909188Y41349747I-70711J70711D01*
G01*
X86767767Y41491168D01*
G75*
G02*
X86767767Y41632590I70711J70711D01*
G01*
X87793072Y42657895D01*
G75*
G02*
X87934494Y42657895I70711J-70711D01*
G01*
X88075915Y42516474D01*
G75*
G02*
X88075915Y42375052I-70711J-70711D01*
G01*
G37*
G36*
G01*
X88429468Y42021499D02*
X87404163Y40996194D01*
G75*
G02*
X87262741Y40996194I-70711J70711D01*
G01*
X87121320Y41137615D01*
G75*
G02*
X87121320Y41279037I70711J70711D01*
G01*
X88146625Y42304342D01*
G75*
G02*
X88288047Y42304342I70711J-70711D01*
G01*
X88429468Y42162921D01*
G75*
G02*
X88429468Y42021499I-70711J-70711D01*
G01*
G37*
G36*
G01*
X88783022Y41667945D02*
X87757717Y40642640D01*
G75*
G02*
X87616295Y40642640I-70711J70711D01*
G01*
X87474874Y40784061D01*
G75*
G02*
X87474874Y40925483I70711J70711D01*
G01*
X88500179Y41950788D01*
G75*
G02*
X88641601Y41950788I70711J-70711D01*
G01*
X88783022Y41809367D01*
G75*
G02*
X88783022Y41667945I-70711J-70711D01*
G01*
G37*
G36*
G01*
X89136575Y41314392D02*
X88111270Y40289087D01*
G75*
G02*
X87969848Y40289087I-70711J70711D01*
G01*
X87828427Y40430508D01*
G75*
G02*
X87828427Y40571930I70711J70711D01*
G01*
X88853732Y41597235D01*
G75*
G02*
X88995154Y41597235I70711J-70711D01*
G01*
X89136575Y41455814D01*
G75*
G02*
X89136575Y41314392I-70711J-70711D01*
G01*
G37*
G36*
G01*
X89490128Y40960839D02*
X88464823Y39935534D01*
G75*
G02*
X88323401Y39935534I-70711J70711D01*
G01*
X88181980Y40076955D01*
G75*
G02*
X88181980Y40218377I70711J70711D01*
G01*
X89207285Y41243682D01*
G75*
G02*
X89348707Y41243682I70711J-70711D01*
G01*
X89490128Y41102261D01*
G75*
G02*
X89490128Y40960839I-70711J-70711D01*
G01*
G37*
G36*
G01*
X89843682Y40607285D02*
X88818377Y39581980D01*
G75*
G02*
X88676955Y39581980I-70711J70711D01*
G01*
X88535534Y39723401D01*
G75*
G02*
X88535534Y39864823I70711J70711D01*
G01*
X89560839Y40890128D01*
G75*
G02*
X89702261Y40890128I70711J-70711D01*
G01*
X89843682Y40748707D01*
G75*
G02*
X89843682Y40607285I-70711J-70711D01*
G01*
G37*
G36*
G01*
X90197235Y40253732D02*
X89171930Y39228427D01*
G75*
G02*
X89030508Y39228427I-70711J70711D01*
G01*
X88889087Y39369848D01*
G75*
G02*
X88889087Y39511270I70711J70711D01*
G01*
X89914392Y40536575D01*
G75*
G02*
X90055814Y40536575I70711J-70711D01*
G01*
X90197235Y40395154D01*
G75*
G02*
X90197235Y40253732I-70711J-70711D01*
G01*
G37*
G36*
G01*
X90550788Y39900179D02*
X89525483Y38874874D01*
G75*
G02*
X89384061Y38874874I-70711J70711D01*
G01*
X89242640Y39016295D01*
G75*
G02*
X89242640Y39157717I70711J70711D01*
G01*
X90267945Y40183022D01*
G75*
G02*
X90409367Y40183022I70711J-70711D01*
G01*
X90550788Y40041601D01*
G75*
G02*
X90550788Y39900179I-70711J-70711D01*
G01*
G37*
G36*
G01*
X90904342Y39546625D02*
X89879037Y38521320D01*
G75*
G02*
X89737615Y38521320I-70711J70711D01*
G01*
X89596194Y38662741D01*
G75*
G02*
X89596194Y38804163I70711J70711D01*
G01*
X90621499Y39829468D01*
G75*
G02*
X90762921Y39829468I70711J-70711D01*
G01*
X90904342Y39688047D01*
G75*
G02*
X90904342Y39546625I-70711J-70711D01*
G01*
G37*
G36*
G01*
X91257895Y39193072D02*
X90232590Y38167767D01*
G75*
G02*
X90091168Y38167767I-70711J70711D01*
G01*
X89949747Y38309188D01*
G75*
G02*
X89949747Y38450610I70711J70711D01*
G01*
X90975052Y39475915D01*
G75*
G02*
X91116474Y39475915I70711J-70711D01*
G01*
X91257895Y39334494D01*
G75*
G02*
X91257895Y39193072I-70711J-70711D01*
G01*
G37*
G36*
G01*
X91611449Y38839518D02*
X90586144Y37814213D01*
G75*
G02*
X90444722Y37814213I-70711J70711D01*
G01*
X90303301Y37955634D01*
G75*
G02*
X90303301Y38097056I70711J70711D01*
G01*
X91328606Y39122361D01*
G75*
G02*
X91470028Y39122361I70711J-70711D01*
G01*
X91611449Y38980940D01*
G75*
G02*
X91611449Y38839518I-70711J-70711D01*
G01*
G37*
G36*
G01*
X91965002Y38485965D02*
X90939697Y37460660D01*
G75*
G02*
X90798275Y37460660I-70711J70711D01*
G01*
X90656854Y37602081D01*
G75*
G02*
X90656854Y37743503I70711J70711D01*
G01*
X91682159Y38768808D01*
G75*
G02*
X91823581Y38768808I70711J-70711D01*
G01*
X91965002Y38627387D01*
G75*
G02*
X91965002Y38485965I-70711J-70711D01*
G01*
G37*
G36*
G01*
X92318555Y38132412D02*
X91293250Y37107107D01*
G75*
G02*
X91151828Y37107107I-70711J70711D01*
G01*
X91010407Y37248528D01*
G75*
G02*
X91010407Y37389950I70711J70711D01*
G01*
X92035712Y38415255D01*
G75*
G02*
X92177134Y38415255I70711J-70711D01*
G01*
X92318555Y38273834D01*
G75*
G02*
X92318555Y38132412I-70711J-70711D01*
G01*
G37*
%TD*%
D21*
%TO.C,U3*%
X69850000Y29950000D03*
X70350000Y29950000D03*
X70850000Y29950000D03*
X71350000Y29950000D03*
X71850000Y29950000D03*
X72350000Y29950000D03*
X72350000Y28050000D03*
X71850000Y28050000D03*
X71350000Y28050000D03*
X70850000Y28050000D03*
X70350000Y28050000D03*
X69850000Y28050000D03*
D22*
X71100000Y29000000D03*
%TD*%
D23*
%TO.C,Y1*%
X96150000Y30700000D03*
X96150000Y29600000D03*
X96150000Y28500000D03*
%TD*%
D24*
%TO.C,Y2*%
X99000000Y25800000D03*
X101400000Y25800000D03*
X101400000Y30200000D03*
X99000000Y30200000D03*
%TD*%
%TO.C,FB1*%
G36*
G01*
X91318750Y28475000D02*
X91881250Y28475000D01*
G75*
G02*
X92125000Y28231250I0J-243750D01*
G01*
X92125000Y27743750D01*
G75*
G02*
X91881250Y27500000I-243750J0D01*
G01*
X91318750Y27500000D01*
G75*
G02*
X91075000Y27743750I0J243750D01*
G01*
X91075000Y28231250D01*
G75*
G02*
X91318750Y28475000I243750J0D01*
G01*
G37*
G36*
G01*
X91318750Y26900000D02*
X91881250Y26900000D01*
G75*
G02*
X92125000Y26656250I0J-243750D01*
G01*
X92125000Y26168750D01*
G75*
G02*
X91881250Y25925000I-243750J0D01*
G01*
X91318750Y25925000D01*
G75*
G02*
X91075000Y26168750I0J243750D01*
G01*
X91075000Y26656250D01*
G75*
G02*
X91318750Y26900000I243750J0D01*
G01*
G37*
%TD*%
%TO.C,C29*%
G36*
G01*
X85802500Y20860000D02*
X86197500Y20860000D01*
G75*
G02*
X86370000Y20687500I0J-172500D01*
G01*
X86370000Y20342500D01*
G75*
G02*
X86197500Y20170000I-172500J0D01*
G01*
X85802500Y20170000D01*
G75*
G02*
X85630000Y20342500I0J172500D01*
G01*
X85630000Y20687500D01*
G75*
G02*
X85802500Y20860000I172500J0D01*
G01*
G37*
G36*
G01*
X85802500Y21830000D02*
X86197500Y21830000D01*
G75*
G02*
X86370000Y21657500I0J-172500D01*
G01*
X86370000Y21312500D01*
G75*
G02*
X86197500Y21140000I-172500J0D01*
G01*
X85802500Y21140000D01*
G75*
G02*
X85630000Y21312500I0J172500D01*
G01*
X85630000Y21657500D01*
G75*
G02*
X85802500Y21830000I172500J0D01*
G01*
G37*
%TD*%
%TO.C,C30*%
G36*
G01*
X84602500Y21830000D02*
X84997500Y21830000D01*
G75*
G02*
X85170000Y21657500I0J-172500D01*
G01*
X85170000Y21312500D01*
G75*
G02*
X84997500Y21140000I-172500J0D01*
G01*
X84602500Y21140000D01*
G75*
G02*
X84430000Y21312500I0J172500D01*
G01*
X84430000Y21657500D01*
G75*
G02*
X84602500Y21830000I172500J0D01*
G01*
G37*
G36*
G01*
X84602500Y20860000D02*
X84997500Y20860000D01*
G75*
G02*
X85170000Y20687500I0J-172500D01*
G01*
X85170000Y20342500D01*
G75*
G02*
X84997500Y20170000I-172500J0D01*
G01*
X84602500Y20170000D01*
G75*
G02*
X84430000Y20342500I0J172500D01*
G01*
X84430000Y20687500D01*
G75*
G02*
X84602500Y20860000I172500J0D01*
G01*
G37*
%TD*%
%TO.C,C31*%
G36*
G01*
X81802500Y25230000D02*
X82197500Y25230000D01*
G75*
G02*
X82370000Y25057500I0J-172500D01*
G01*
X82370000Y24712500D01*
G75*
G02*
X82197500Y24540000I-172500J0D01*
G01*
X81802500Y24540000D01*
G75*
G02*
X81630000Y24712500I0J172500D01*
G01*
X81630000Y25057500D01*
G75*
G02*
X81802500Y25230000I172500J0D01*
G01*
G37*
G36*
G01*
X81802500Y24260000D02*
X82197500Y24260000D01*
G75*
G02*
X82370000Y24087500I0J-172500D01*
G01*
X82370000Y23742500D01*
G75*
G02*
X82197500Y23570000I-172500J0D01*
G01*
X81802500Y23570000D01*
G75*
G02*
X81630000Y23742500I0J172500D01*
G01*
X81630000Y24087500D01*
G75*
G02*
X81802500Y24260000I172500J0D01*
G01*
G37*
%TD*%
D25*
%TO.C,U4*%
G36*
X86160097Y25850241D02*
G01*
X86152293Y25851010D01*
X86142682Y25852922D01*
X86135179Y25855198D01*
X86126127Y25858947D01*
X86119211Y25862643D01*
X86111054Y25868093D01*
X86104993Y25873068D01*
X86098068Y25879993D01*
X86093093Y25886054D01*
X86087643Y25894211D01*
X86083947Y25901127D01*
X86080198Y25910179D01*
X86077922Y25917682D01*
X86076010Y25927293D01*
X86075241Y25935097D01*
X86075000Y25940000D01*
X86075000Y25963431D01*
X86075241Y25968334D01*
X86076010Y25976138D01*
X86077922Y25985749D01*
X86080198Y25993252D01*
X86083947Y26002304D01*
X86087643Y26009220D01*
X86093093Y26017377D01*
X86098068Y26023438D01*
X86101361Y26027070D01*
X86197930Y26123639D01*
X86201562Y26126932D01*
X86207623Y26131907D01*
X86215780Y26137357D01*
X86222696Y26141053D01*
X86231748Y26144802D01*
X86239251Y26147078D01*
X86248862Y26148990D01*
X86256666Y26149759D01*
X86261569Y26150000D01*
X86835000Y26150000D01*
X86839903Y26149759D01*
X86847707Y26148990D01*
X86857318Y26147078D01*
X86864821Y26144802D01*
X86873873Y26141053D01*
X86880789Y26137357D01*
X86888946Y26131907D01*
X86895007Y26126932D01*
X86901932Y26120007D01*
X86906907Y26113946D01*
X86912357Y26105789D01*
X86916053Y26098873D01*
X86919802Y26089821D01*
X86922078Y26082318D01*
X86923990Y26072707D01*
X86924759Y26064903D01*
X86925000Y26060000D01*
X86925000Y25940000D01*
X86924759Y25935097D01*
X86923990Y25927293D01*
X86922078Y25917682D01*
X86919802Y25910179D01*
X86916053Y25901127D01*
X86912357Y25894211D01*
X86906907Y25886054D01*
X86901932Y25879993D01*
X86895007Y25873068D01*
X86888946Y25868093D01*
X86880789Y25862643D01*
X86873873Y25858947D01*
X86864821Y25855198D01*
X86857318Y25852922D01*
X86847707Y25851010D01*
X86839903Y25850241D01*
X86835000Y25850000D01*
X86165000Y25850000D01*
X86160097Y25850241D01*
G37*
G36*
G01*
X86925000Y25675000D02*
X86925000Y25525000D01*
G75*
G02*
X86850000Y25450000I-75000J0D01*
G01*
X86150000Y25450000D01*
G75*
G02*
X86075000Y25525000I0J75000D01*
G01*
X86075000Y25675000D01*
G75*
G02*
X86150000Y25750000I75000J0D01*
G01*
X86850000Y25750000D01*
G75*
G02*
X86925000Y25675000I0J-75000D01*
G01*
G37*
G36*
G01*
X86925000Y25275000D02*
X86925000Y25125000D01*
G75*
G02*
X86850000Y25050000I-75000J0D01*
G01*
X86150000Y25050000D01*
G75*
G02*
X86075000Y25125000I0J75000D01*
G01*
X86075000Y25275000D01*
G75*
G02*
X86150000Y25350000I75000J0D01*
G01*
X86850000Y25350000D01*
G75*
G02*
X86925000Y25275000I0J-75000D01*
G01*
G37*
G36*
G01*
X86925000Y24875000D02*
X86925000Y24725000D01*
G75*
G02*
X86850000Y24650000I-75000J0D01*
G01*
X86150000Y24650000D01*
G75*
G02*
X86075000Y24725000I0J75000D01*
G01*
X86075000Y24875000D01*
G75*
G02*
X86150000Y24950000I75000J0D01*
G01*
X86850000Y24950000D01*
G75*
G02*
X86925000Y24875000I0J-75000D01*
G01*
G37*
G36*
G01*
X86925000Y24475000D02*
X86925000Y24325000D01*
G75*
G02*
X86850000Y24250000I-75000J0D01*
G01*
X86150000Y24250000D01*
G75*
G02*
X86075000Y24325000I0J75000D01*
G01*
X86075000Y24475000D01*
G75*
G02*
X86150000Y24550000I75000J0D01*
G01*
X86850000Y24550000D01*
G75*
G02*
X86925000Y24475000I0J-75000D01*
G01*
G37*
G36*
X86256666Y23850241D02*
G01*
X86248862Y23851010D01*
X86239251Y23852922D01*
X86231748Y23855198D01*
X86222696Y23858947D01*
X86215780Y23862643D01*
X86207623Y23868093D01*
X86201562Y23873068D01*
X86197930Y23876361D01*
X86101361Y23972930D01*
X86098068Y23976562D01*
X86093093Y23982623D01*
X86087643Y23990780D01*
X86083947Y23997696D01*
X86080198Y24006748D01*
X86077922Y24014251D01*
X86076010Y24023862D01*
X86075241Y24031666D01*
X86075000Y24036569D01*
X86075000Y24060000D01*
X86075241Y24064903D01*
X86076010Y24072707D01*
X86077922Y24082318D01*
X86080198Y24089821D01*
X86083947Y24098873D01*
X86087643Y24105789D01*
X86093093Y24113946D01*
X86098068Y24120007D01*
X86104993Y24126932D01*
X86111054Y24131907D01*
X86119211Y24137357D01*
X86126127Y24141053D01*
X86135179Y24144802D01*
X86142682Y24147078D01*
X86152293Y24148990D01*
X86160097Y24149759D01*
X86165000Y24150000D01*
X86835000Y24150000D01*
X86839903Y24149759D01*
X86847707Y24148990D01*
X86857318Y24147078D01*
X86864821Y24144802D01*
X86873873Y24141053D01*
X86880789Y24137357D01*
X86888946Y24131907D01*
X86895007Y24126932D01*
X86901932Y24120007D01*
X86906907Y24113946D01*
X86912357Y24105789D01*
X86916053Y24098873D01*
X86919802Y24089821D01*
X86922078Y24082318D01*
X86923990Y24072707D01*
X86924759Y24064903D01*
X86925000Y24060000D01*
X86925000Y23940000D01*
X86924759Y23935097D01*
X86923990Y23927293D01*
X86922078Y23917682D01*
X86919802Y23910179D01*
X86916053Y23901127D01*
X86912357Y23894211D01*
X86906907Y23886054D01*
X86901932Y23879993D01*
X86895007Y23873068D01*
X86888946Y23868093D01*
X86880789Y23862643D01*
X86873873Y23858947D01*
X86864821Y23855198D01*
X86857318Y23852922D01*
X86847707Y23851010D01*
X86839903Y23850241D01*
X86835000Y23850000D01*
X86261569Y23850000D01*
X86256666Y23850241D01*
G37*
G36*
X85935097Y23075241D02*
G01*
X85927293Y23076010D01*
X85917682Y23077922D01*
X85910179Y23080198D01*
X85901127Y23083947D01*
X85894211Y23087643D01*
X85886054Y23093093D01*
X85879993Y23098068D01*
X85873068Y23104993D01*
X85868093Y23111054D01*
X85862643Y23119211D01*
X85858947Y23126127D01*
X85855198Y23135179D01*
X85852922Y23142682D01*
X85851010Y23152293D01*
X85850241Y23160097D01*
X85850000Y23165000D01*
X85850000Y23835000D01*
X85850241Y23839903D01*
X85851010Y23847707D01*
X85852922Y23857318D01*
X85855198Y23864821D01*
X85858947Y23873873D01*
X85862643Y23880789D01*
X85868093Y23888946D01*
X85873068Y23895007D01*
X85879993Y23901932D01*
X85886054Y23906907D01*
X85894211Y23912357D01*
X85901127Y23916053D01*
X85910179Y23919802D01*
X85917682Y23922078D01*
X85927293Y23923990D01*
X85935097Y23924759D01*
X85940000Y23925000D01*
X85963431Y23925000D01*
X85968334Y23924759D01*
X85976138Y23923990D01*
X85985749Y23922078D01*
X85993252Y23919802D01*
X86002304Y23916053D01*
X86009220Y23912357D01*
X86017377Y23906907D01*
X86023438Y23901932D01*
X86027070Y23898639D01*
X86123639Y23802070D01*
X86126932Y23798438D01*
X86131907Y23792377D01*
X86137357Y23784220D01*
X86141053Y23777304D01*
X86144802Y23768252D01*
X86147078Y23760749D01*
X86148990Y23751138D01*
X86149759Y23743334D01*
X86150000Y23738431D01*
X86150000Y23165000D01*
X86149759Y23160097D01*
X86148990Y23152293D01*
X86147078Y23142682D01*
X86144802Y23135179D01*
X86141053Y23126127D01*
X86137357Y23119211D01*
X86131907Y23111054D01*
X86126932Y23104993D01*
X86120007Y23098068D01*
X86113946Y23093093D01*
X86105789Y23087643D01*
X86098873Y23083947D01*
X86089821Y23080198D01*
X86082318Y23077922D01*
X86072707Y23076010D01*
X86064903Y23075241D01*
X86060000Y23075000D01*
X85940000Y23075000D01*
X85935097Y23075241D01*
G37*
G36*
G01*
X85750000Y23850000D02*
X85750000Y23150000D01*
G75*
G02*
X85675000Y23075000I-75000J0D01*
G01*
X85525000Y23075000D01*
G75*
G02*
X85450000Y23150000I0J75000D01*
G01*
X85450000Y23850000D01*
G75*
G02*
X85525000Y23925000I75000J0D01*
G01*
X85675000Y23925000D01*
G75*
G02*
X85750000Y23850000I0J-75000D01*
G01*
G37*
G36*
G01*
X85350000Y23850000D02*
X85350000Y23150000D01*
G75*
G02*
X85275000Y23075000I-75000J0D01*
G01*
X85125000Y23075000D01*
G75*
G02*
X85050000Y23150000I0J75000D01*
G01*
X85050000Y23850000D01*
G75*
G02*
X85125000Y23925000I75000J0D01*
G01*
X85275000Y23925000D01*
G75*
G02*
X85350000Y23850000I0J-75000D01*
G01*
G37*
G36*
G01*
X84950000Y23850000D02*
X84950000Y23150000D01*
G75*
G02*
X84875000Y23075000I-75000J0D01*
G01*
X84725000Y23075000D01*
G75*
G02*
X84650000Y23150000I0J75000D01*
G01*
X84650000Y23850000D01*
G75*
G02*
X84725000Y23925000I75000J0D01*
G01*
X84875000Y23925000D01*
G75*
G02*
X84950000Y23850000I0J-75000D01*
G01*
G37*
G36*
G01*
X84550000Y23850000D02*
X84550000Y23150000D01*
G75*
G02*
X84475000Y23075000I-75000J0D01*
G01*
X84325000Y23075000D01*
G75*
G02*
X84250000Y23150000I0J75000D01*
G01*
X84250000Y23850000D01*
G75*
G02*
X84325000Y23925000I75000J0D01*
G01*
X84475000Y23925000D01*
G75*
G02*
X84550000Y23850000I0J-75000D01*
G01*
G37*
G36*
X83935097Y23075241D02*
G01*
X83927293Y23076010D01*
X83917682Y23077922D01*
X83910179Y23080198D01*
X83901127Y23083947D01*
X83894211Y23087643D01*
X83886054Y23093093D01*
X83879993Y23098068D01*
X83873068Y23104993D01*
X83868093Y23111054D01*
X83862643Y23119211D01*
X83858947Y23126127D01*
X83855198Y23135179D01*
X83852922Y23142682D01*
X83851010Y23152293D01*
X83850241Y23160097D01*
X83850000Y23165000D01*
X83850000Y23738431D01*
X83850241Y23743334D01*
X83851010Y23751138D01*
X83852922Y23760749D01*
X83855198Y23768252D01*
X83858947Y23777304D01*
X83862643Y23784220D01*
X83868093Y23792377D01*
X83873068Y23798438D01*
X83876361Y23802070D01*
X83972930Y23898639D01*
X83976562Y23901932D01*
X83982623Y23906907D01*
X83990780Y23912357D01*
X83997696Y23916053D01*
X84006748Y23919802D01*
X84014251Y23922078D01*
X84023862Y23923990D01*
X84031666Y23924759D01*
X84036569Y23925000D01*
X84060000Y23925000D01*
X84064903Y23924759D01*
X84072707Y23923990D01*
X84082318Y23922078D01*
X84089821Y23919802D01*
X84098873Y23916053D01*
X84105789Y23912357D01*
X84113946Y23906907D01*
X84120007Y23901932D01*
X84126932Y23895007D01*
X84131907Y23888946D01*
X84137357Y23880789D01*
X84141053Y23873873D01*
X84144802Y23864821D01*
X84147078Y23857318D01*
X84148990Y23847707D01*
X84149759Y23839903D01*
X84150000Y23835000D01*
X84150000Y23165000D01*
X84149759Y23160097D01*
X84148990Y23152293D01*
X84147078Y23142682D01*
X84144802Y23135179D01*
X84141053Y23126127D01*
X84137357Y23119211D01*
X84131907Y23111054D01*
X84126932Y23104993D01*
X84120007Y23098068D01*
X84113946Y23093093D01*
X84105789Y23087643D01*
X84098873Y23083947D01*
X84089821Y23080198D01*
X84082318Y23077922D01*
X84072707Y23076010D01*
X84064903Y23075241D01*
X84060000Y23075000D01*
X83940000Y23075000D01*
X83935097Y23075241D01*
G37*
G36*
X83160097Y23850241D02*
G01*
X83152293Y23851010D01*
X83142682Y23852922D01*
X83135179Y23855198D01*
X83126127Y23858947D01*
X83119211Y23862643D01*
X83111054Y23868093D01*
X83104993Y23873068D01*
X83098068Y23879993D01*
X83093093Y23886054D01*
X83087643Y23894211D01*
X83083947Y23901127D01*
X83080198Y23910179D01*
X83077922Y23917682D01*
X83076010Y23927293D01*
X83075241Y23935097D01*
X83075000Y23940000D01*
X83075000Y24060000D01*
X83075241Y24064903D01*
X83076010Y24072707D01*
X83077922Y24082318D01*
X83080198Y24089821D01*
X83083947Y24098873D01*
X83087643Y24105789D01*
X83093093Y24113946D01*
X83098068Y24120007D01*
X83104993Y24126932D01*
X83111054Y24131907D01*
X83119211Y24137357D01*
X83126127Y24141053D01*
X83135179Y24144802D01*
X83142682Y24147078D01*
X83152293Y24148990D01*
X83160097Y24149759D01*
X83165000Y24150000D01*
X83835000Y24150000D01*
X83839903Y24149759D01*
X83847707Y24148990D01*
X83857318Y24147078D01*
X83864821Y24144802D01*
X83873873Y24141053D01*
X83880789Y24137357D01*
X83888946Y24131907D01*
X83895007Y24126932D01*
X83901932Y24120007D01*
X83906907Y24113946D01*
X83912357Y24105789D01*
X83916053Y24098873D01*
X83919802Y24089821D01*
X83922078Y24082318D01*
X83923990Y24072707D01*
X83924759Y24064903D01*
X83925000Y24060000D01*
X83925000Y24036569D01*
X83924759Y24031666D01*
X83923990Y24023862D01*
X83922078Y24014251D01*
X83919802Y24006748D01*
X83916053Y23997696D01*
X83912357Y23990780D01*
X83906907Y23982623D01*
X83901932Y23976562D01*
X83898639Y23972930D01*
X83802070Y23876361D01*
X83798438Y23873068D01*
X83792377Y23868093D01*
X83784220Y23862643D01*
X83777304Y23858947D01*
X83768252Y23855198D01*
X83760749Y23852922D01*
X83751138Y23851010D01*
X83743334Y23850241D01*
X83738431Y23850000D01*
X83165000Y23850000D01*
X83160097Y23850241D01*
G37*
G36*
G01*
X83925000Y24475000D02*
X83925000Y24325000D01*
G75*
G02*
X83850000Y24250000I-75000J0D01*
G01*
X83150000Y24250000D01*
G75*
G02*
X83075000Y24325000I0J75000D01*
G01*
X83075000Y24475000D01*
G75*
G02*
X83150000Y24550000I75000J0D01*
G01*
X83850000Y24550000D01*
G75*
G02*
X83925000Y24475000I0J-75000D01*
G01*
G37*
G36*
G01*
X83925000Y24875000D02*
X83925000Y24725000D01*
G75*
G02*
X83850000Y24650000I-75000J0D01*
G01*
X83150000Y24650000D01*
G75*
G02*
X83075000Y24725000I0J75000D01*
G01*
X83075000Y24875000D01*
G75*
G02*
X83150000Y24950000I75000J0D01*
G01*
X83850000Y24950000D01*
G75*
G02*
X83925000Y24875000I0J-75000D01*
G01*
G37*
G36*
G01*
X83925000Y25275000D02*
X83925000Y25125000D01*
G75*
G02*
X83850000Y25050000I-75000J0D01*
G01*
X83150000Y25050000D01*
G75*
G02*
X83075000Y25125000I0J75000D01*
G01*
X83075000Y25275000D01*
G75*
G02*
X83150000Y25350000I75000J0D01*
G01*
X83850000Y25350000D01*
G75*
G02*
X83925000Y25275000I0J-75000D01*
G01*
G37*
G36*
G01*
X83925000Y25675000D02*
X83925000Y25525000D01*
G75*
G02*
X83850000Y25450000I-75000J0D01*
G01*
X83150000Y25450000D01*
G75*
G02*
X83075000Y25525000I0J75000D01*
G01*
X83075000Y25675000D01*
G75*
G02*
X83150000Y25750000I75000J0D01*
G01*
X83850000Y25750000D01*
G75*
G02*
X83925000Y25675000I0J-75000D01*
G01*
G37*
G36*
X83160097Y25850241D02*
G01*
X83152293Y25851010D01*
X83142682Y25852922D01*
X83135179Y25855198D01*
X83126127Y25858947D01*
X83119211Y25862643D01*
X83111054Y25868093D01*
X83104993Y25873068D01*
X83098068Y25879993D01*
X83093093Y25886054D01*
X83087643Y25894211D01*
X83083947Y25901127D01*
X83080198Y25910179D01*
X83077922Y25917682D01*
X83076010Y25927293D01*
X83075241Y25935097D01*
X83075000Y25940000D01*
X83075000Y26060000D01*
X83075241Y26064903D01*
X83076010Y26072707D01*
X83077922Y26082318D01*
X83080198Y26089821D01*
X83083947Y26098873D01*
X83087643Y26105789D01*
X83093093Y26113946D01*
X83098068Y26120007D01*
X83104993Y26126932D01*
X83111054Y26131907D01*
X83119211Y26137357D01*
X83126127Y26141053D01*
X83135179Y26144802D01*
X83142682Y26147078D01*
X83152293Y26148990D01*
X83160097Y26149759D01*
X83165000Y26150000D01*
X83738431Y26150000D01*
X83743334Y26149759D01*
X83751138Y26148990D01*
X83760749Y26147078D01*
X83768252Y26144802D01*
X83777304Y26141053D01*
X83784220Y26137357D01*
X83792377Y26131907D01*
X83798438Y26126932D01*
X83802070Y26123639D01*
X83898639Y26027070D01*
X83901932Y26023438D01*
X83906907Y26017377D01*
X83912357Y26009220D01*
X83916053Y26002304D01*
X83919802Y25993252D01*
X83922078Y25985749D01*
X83923990Y25976138D01*
X83924759Y25968334D01*
X83925000Y25963431D01*
X83925000Y25940000D01*
X83924759Y25935097D01*
X83923990Y25927293D01*
X83922078Y25917682D01*
X83919802Y25910179D01*
X83916053Y25901127D01*
X83912357Y25894211D01*
X83906907Y25886054D01*
X83901932Y25879993D01*
X83895007Y25873068D01*
X83888946Y25868093D01*
X83880789Y25862643D01*
X83873873Y25858947D01*
X83864821Y25855198D01*
X83857318Y25852922D01*
X83847707Y25851010D01*
X83839903Y25850241D01*
X83835000Y25850000D01*
X83165000Y25850000D01*
X83160097Y25850241D01*
G37*
G36*
X84031666Y26075241D02*
G01*
X84023862Y26076010D01*
X84014251Y26077922D01*
X84006748Y26080198D01*
X83997696Y26083947D01*
X83990780Y26087643D01*
X83982623Y26093093D01*
X83976562Y26098068D01*
X83972930Y26101361D01*
X83876361Y26197930D01*
X83873068Y26201562D01*
X83868093Y26207623D01*
X83862643Y26215780D01*
X83858947Y26222696D01*
X83855198Y26231748D01*
X83852922Y26239251D01*
X83851010Y26248862D01*
X83850241Y26256666D01*
X83850000Y26261569D01*
X83850000Y26835000D01*
X83850241Y26839903D01*
X83851010Y26847707D01*
X83852922Y26857318D01*
X83855198Y26864821D01*
X83858947Y26873873D01*
X83862643Y26880789D01*
X83868093Y26888946D01*
X83873068Y26895007D01*
X83879993Y26901932D01*
X83886054Y26906907D01*
X83894211Y26912357D01*
X83901127Y26916053D01*
X83910179Y26919802D01*
X83917682Y26922078D01*
X83927293Y26923990D01*
X83935097Y26924759D01*
X83940000Y26925000D01*
X84060000Y26925000D01*
X84064903Y26924759D01*
X84072707Y26923990D01*
X84082318Y26922078D01*
X84089821Y26919802D01*
X84098873Y26916053D01*
X84105789Y26912357D01*
X84113946Y26906907D01*
X84120007Y26901932D01*
X84126932Y26895007D01*
X84131907Y26888946D01*
X84137357Y26880789D01*
X84141053Y26873873D01*
X84144802Y26864821D01*
X84147078Y26857318D01*
X84148990Y26847707D01*
X84149759Y26839903D01*
X84150000Y26835000D01*
X84150000Y26165000D01*
X84149759Y26160097D01*
X84148990Y26152293D01*
X84147078Y26142682D01*
X84144802Y26135179D01*
X84141053Y26126127D01*
X84137357Y26119211D01*
X84131907Y26111054D01*
X84126932Y26104993D01*
X84120007Y26098068D01*
X84113946Y26093093D01*
X84105789Y26087643D01*
X84098873Y26083947D01*
X84089821Y26080198D01*
X84082318Y26077922D01*
X84072707Y26076010D01*
X84064903Y26075241D01*
X84060000Y26075000D01*
X84036569Y26075000D01*
X84031666Y26075241D01*
G37*
G36*
G01*
X84550000Y26850000D02*
X84550000Y26150000D01*
G75*
G02*
X84475000Y26075000I-75000J0D01*
G01*
X84325000Y26075000D01*
G75*
G02*
X84250000Y26150000I0J75000D01*
G01*
X84250000Y26850000D01*
G75*
G02*
X84325000Y26925000I75000J0D01*
G01*
X84475000Y26925000D01*
G75*
G02*
X84550000Y26850000I0J-75000D01*
G01*
G37*
G36*
G01*
X84950000Y26850000D02*
X84950000Y26150000D01*
G75*
G02*
X84875000Y26075000I-75000J0D01*
G01*
X84725000Y26075000D01*
G75*
G02*
X84650000Y26150000I0J75000D01*
G01*
X84650000Y26850000D01*
G75*
G02*
X84725000Y26925000I75000J0D01*
G01*
X84875000Y26925000D01*
G75*
G02*
X84950000Y26850000I0J-75000D01*
G01*
G37*
G36*
G01*
X85350000Y26850000D02*
X85350000Y26150000D01*
G75*
G02*
X85275000Y26075000I-75000J0D01*
G01*
X85125000Y26075000D01*
G75*
G02*
X85050000Y26150000I0J75000D01*
G01*
X85050000Y26850000D01*
G75*
G02*
X85125000Y26925000I75000J0D01*
G01*
X85275000Y26925000D01*
G75*
G02*
X85350000Y26850000I0J-75000D01*
G01*
G37*
G36*
G01*
X85750000Y26850000D02*
X85750000Y26150000D01*
G75*
G02*
X85675000Y26075000I-75000J0D01*
G01*
X85525000Y26075000D01*
G75*
G02*
X85450000Y26150000I0J75000D01*
G01*
X85450000Y26850000D01*
G75*
G02*
X85525000Y26925000I75000J0D01*
G01*
X85675000Y26925000D01*
G75*
G02*
X85750000Y26850000I0J-75000D01*
G01*
G37*
G36*
X85935097Y26075241D02*
G01*
X85927293Y26076010D01*
X85917682Y26077922D01*
X85910179Y26080198D01*
X85901127Y26083947D01*
X85894211Y26087643D01*
X85886054Y26093093D01*
X85879993Y26098068D01*
X85873068Y26104993D01*
X85868093Y26111054D01*
X85862643Y26119211D01*
X85858947Y26126127D01*
X85855198Y26135179D01*
X85852922Y26142682D01*
X85851010Y26152293D01*
X85850241Y26160097D01*
X85850000Y26165000D01*
X85850000Y26835000D01*
X85850241Y26839903D01*
X85851010Y26847707D01*
X85852922Y26857318D01*
X85855198Y26864821D01*
X85858947Y26873873D01*
X85862643Y26880789D01*
X85868093Y26888946D01*
X85873068Y26895007D01*
X85879993Y26901932D01*
X85886054Y26906907D01*
X85894211Y26912357D01*
X85901127Y26916053D01*
X85910179Y26919802D01*
X85917682Y26922078D01*
X85927293Y26923990D01*
X85935097Y26924759D01*
X85940000Y26925000D01*
X86060000Y26925000D01*
X86064903Y26924759D01*
X86072707Y26923990D01*
X86082318Y26922078D01*
X86089821Y26919802D01*
X86098873Y26916053D01*
X86105789Y26912357D01*
X86113946Y26906907D01*
X86120007Y26901932D01*
X86126932Y26895007D01*
X86131907Y26888946D01*
X86137357Y26880789D01*
X86141053Y26873873D01*
X86144802Y26864821D01*
X86147078Y26857318D01*
X86148990Y26847707D01*
X86149759Y26839903D01*
X86150000Y26835000D01*
X86150000Y26261569D01*
X86149759Y26256666D01*
X86148990Y26248862D01*
X86147078Y26239251D01*
X86144802Y26231748D01*
X86141053Y26222696D01*
X86137357Y26215780D01*
X86131907Y26207623D01*
X86126932Y26201562D01*
X86123639Y26197930D01*
X86027070Y26101361D01*
X86023438Y26098068D01*
X86017377Y26093093D01*
X86009220Y26087643D01*
X86002304Y26083947D01*
X85993252Y26080198D01*
X85985749Y26077922D01*
X85976138Y26076010D01*
X85968334Y26075241D01*
X85963431Y26075000D01*
X85940000Y26075000D01*
X85935097Y26075241D01*
G37*
D26*
X85000000Y25000000D03*
%TD*%
D15*
%TO.C,D2*%
X105460000Y16000000D03*
D16*
X108000000Y16000000D03*
%TD*%
D25*
%TO.C,D3*%
G36*
X89729423Y9829423D02*
G01*
X88829423Y8270577D01*
X87270577Y9170577D01*
X88170577Y10729423D01*
X89729423Y9829423D01*
G37*
G36*
G01*
X88009423Y6850295D02*
X88009423Y6850295D01*
G75*
G02*
X86780000Y6520872I-779423J450000D01*
G01*
X86780000Y6520872D01*
G75*
G02*
X86450577Y7750295I450000J779423D01*
G01*
X86450577Y7750295D01*
G75*
G02*
X87680000Y8079718I779423J-450000D01*
G01*
X87680000Y8079718D01*
G75*
G02*
X88009423Y6850295I-450000J-779423D01*
G01*
G37*
%TD*%
%TO.C,D4*%
G36*
G01*
X83549423Y7750295D02*
X83549423Y7750295D01*
G75*
G02*
X83220000Y6520872I-779423J-450000D01*
G01*
X83220000Y6520872D01*
G75*
G02*
X81990577Y6850295I-450000J779423D01*
G01*
X81990577Y6850295D01*
G75*
G02*
X82320000Y8079718I779423J450000D01*
G01*
X82320000Y8079718D01*
G75*
G02*
X83549423Y7750295I450000J-779423D01*
G01*
G37*
G36*
X81829423Y10729423D02*
G01*
X82729423Y9170577D01*
X81170577Y8270577D01*
X80270577Y9829423D01*
X81829423Y10729423D01*
G37*
%TD*%
D16*
%TO.C,D5*%
X62000000Y16000000D03*
D15*
X64540000Y16000000D03*
%TD*%
D16*
%TO.C,Q2*%
X108000000Y13000000D03*
D15*
X105460000Y13000000D03*
%TD*%
%TO.C,Q4*%
G36*
G01*
X90509423Y5350295D02*
X90509423Y5350295D01*
G75*
G02*
X89280000Y5020872I-779423J450000D01*
G01*
X89280000Y5020872D01*
G75*
G02*
X88950577Y6250295I450000J779423D01*
G01*
X88950577Y6250295D01*
G75*
G02*
X90180000Y6579718I779423J-450000D01*
G01*
X90180000Y6579718D01*
G75*
G02*
X90509423Y5350295I-450000J-779423D01*
G01*
G37*
D25*
G36*
X92229423Y8329423D02*
G01*
X91329423Y6770577D01*
X89770577Y7670577D01*
X90670577Y9229423D01*
X92229423Y8329423D01*
G37*
%TD*%
%TO.C,Q6*%
G36*
X79329423Y9229423D02*
G01*
X80229423Y7670577D01*
X78670577Y6770577D01*
X77770577Y8329423D01*
X79329423Y9229423D01*
G37*
G36*
G01*
X81049423Y6250295D02*
X81049423Y6250295D01*
G75*
G02*
X80720000Y5020872I-779423J-450000D01*
G01*
X80720000Y5020872D01*
G75*
G02*
X79490577Y5350295I-450000J779423D01*
G01*
X79490577Y5350295D01*
G75*
G02*
X79820000Y6579718I779423J450000D01*
G01*
X79820000Y6579718D01*
G75*
G02*
X81049423Y6250295I450000J-779423D01*
G01*
G37*
%TD*%
D15*
%TO.C,Q8*%
X64540000Y13000000D03*
D16*
X62000000Y13000000D03*
%TD*%
%TO.C,J1*%
G36*
G01*
X16750000Y3845832D02*
X16750000Y5154168D01*
G75*
G02*
X17020832Y5425000I270832J0D01*
G01*
X17779168Y5425000D01*
G75*
G02*
X18050000Y5154168I0J-270832D01*
G01*
X18050000Y3845832D01*
G75*
G02*
X17779168Y3575000I-270832J0D01*
G01*
X17020832Y3575000D01*
G75*
G02*
X16750000Y3845832I0J270832D01*
G01*
G37*
D27*
X19400000Y4500000D03*
%TD*%
%TO.C,FB2*%
G36*
G01*
X99817000Y7846750D02*
X99817000Y8409250D01*
G75*
G02*
X100060750Y8653000I243750J0D01*
G01*
X100548250Y8653000D01*
G75*
G02*
X100792000Y8409250I0J-243750D01*
G01*
X100792000Y7846750D01*
G75*
G02*
X100548250Y7603000I-243750J0D01*
G01*
X100060750Y7603000D01*
G75*
G02*
X99817000Y7846750I0J243750D01*
G01*
G37*
G36*
G01*
X101392000Y7846750D02*
X101392000Y8409250D01*
G75*
G02*
X101635750Y8653000I243750J0D01*
G01*
X102123250Y8653000D01*
G75*
G02*
X102367000Y8409250I0J-243750D01*
G01*
X102367000Y7846750D01*
G75*
G02*
X102123250Y7603000I-243750J0D01*
G01*
X101635750Y7603000D01*
G75*
G02*
X101392000Y7846750I0J243750D01*
G01*
G37*
%TD*%
M02*
