G04 #@! TF.GenerationSoftware,KiCad,Pcbnew,5.1.7-a382d34a8~88~ubuntu18.04.1*
G04 #@! TF.CreationDate,2021-01-25T19:44:07+09:00*
G04 #@! TF.ProjectId,m5mouse,6d356d6f-7573-4652-9e6b-696361645f70,rev?*
G04 #@! TF.SameCoordinates,Original*
G04 #@! TF.FileFunction,Legend,Bot*
G04 #@! TF.FilePolarity,Positive*
%FSLAX46Y46*%
G04 Gerber Fmt 4.6, Leading zero omitted, Abs format (unit mm)*
G04 Created by KiCad (PCBNEW 5.1.7-a382d34a8~88~ubuntu18.04.1) date 2021-01-25 19:44:07*
%MOMM*%
%LPD*%
G01*
G04 APERTURE LIST*
%ADD10C,0.120000*%
%ADD11C,0.150000*%
G04 APERTURE END LIST*
D10*
X172300000Y-92235000D02*
X170015000Y-92235000D01*
X170015000Y-92235000D02*
X170015000Y-90765000D01*
X170015000Y-90765000D02*
X172300000Y-90765000D01*
X143700000Y-90765000D02*
X145985000Y-90765000D01*
X145985000Y-90765000D02*
X145985000Y-92235000D01*
X145985000Y-92235000D02*
X143700000Y-92235000D01*
X122550000Y-103050000D02*
X126250000Y-103050000D01*
X122550000Y-96350000D02*
X122550000Y-103050000D01*
X126250000Y-96350000D02*
X122550000Y-96350000D01*
X126250000Y-103050000D02*
X126250000Y-96350000D01*
X167370000Y-101830000D02*
X168700000Y-101830000D01*
X167370000Y-100500000D02*
X167370000Y-101830000D01*
X169970000Y-101830000D02*
X172570000Y-101830000D01*
X169970000Y-99230000D02*
X169970000Y-101830000D01*
X167370000Y-99230000D02*
X169970000Y-99230000D01*
X172570000Y-101830000D02*
X172570000Y-94090000D01*
X167370000Y-99230000D02*
X167370000Y-94090000D01*
X167370000Y-94090000D02*
X172570000Y-94090000D01*
X148730000Y-101910000D02*
X143530000Y-101910000D01*
X148730000Y-96770000D02*
X148730000Y-101910000D01*
X143530000Y-94170000D02*
X143530000Y-101910000D01*
X148730000Y-96770000D02*
X146130000Y-96770000D01*
X146130000Y-96770000D02*
X146130000Y-94170000D01*
X146130000Y-94170000D02*
X143530000Y-94170000D01*
X148730000Y-95500000D02*
X148730000Y-94170000D01*
X148730000Y-94170000D02*
X147400000Y-94170000D01*
X99920000Y-91870000D02*
X99920000Y-94530000D01*
X99920000Y-91870000D02*
X112680000Y-91870000D01*
X112680000Y-91870000D02*
X112680000Y-94530000D01*
X99920000Y-94530000D02*
X112680000Y-94530000D01*
X97320000Y-94530000D02*
X98650000Y-94530000D01*
X97320000Y-93200000D02*
X97320000Y-94530000D01*
X120438748Y-120710000D02*
X120961252Y-120710000D01*
X120438748Y-118490000D02*
X120961252Y-118490000D01*
X169580000Y-125760000D02*
X168650000Y-125760000D01*
X166420000Y-125760000D02*
X167350000Y-125760000D01*
X166420000Y-125760000D02*
X166420000Y-123600000D01*
X169580000Y-125760000D02*
X169580000Y-124300000D01*
X162780000Y-125760000D02*
X162780000Y-124300000D01*
X159620000Y-125760000D02*
X159620000Y-123600000D01*
X159620000Y-125760000D02*
X160550000Y-125760000D01*
X162780000Y-125760000D02*
X161850000Y-125760000D01*
X156280000Y-125760000D02*
X155350000Y-125760000D01*
X153120000Y-125760000D02*
X154050000Y-125760000D01*
X153120000Y-125760000D02*
X153120000Y-123600000D01*
X156280000Y-125760000D02*
X156280000Y-124300000D01*
X149680000Y-125760000D02*
X149680000Y-124300000D01*
X146520000Y-125760000D02*
X146520000Y-123600000D01*
X146520000Y-125760000D02*
X147450000Y-125760000D01*
X149680000Y-125760000D02*
X148750000Y-125760000D01*
X125662779Y-106210000D02*
X125337221Y-106210000D01*
X125662779Y-105190000D02*
X125337221Y-105190000D01*
X119890000Y-105437221D02*
X119890000Y-105762779D01*
X120910000Y-105437221D02*
X120910000Y-105762779D01*
X118090000Y-105762779D02*
X118090000Y-105437221D01*
X119110000Y-105762779D02*
X119110000Y-105437221D01*
X164724273Y-112245522D02*
X164954478Y-112475727D01*
X165445522Y-111524273D02*
X165675727Y-111754478D01*
X158072000Y-120858779D02*
X158072000Y-120533221D01*
X159092000Y-120858779D02*
X159092000Y-120533221D01*
X167837221Y-122510000D02*
X168162779Y-122510000D01*
X167837221Y-121490000D02*
X168162779Y-121490000D01*
X175690000Y-127637221D02*
X175690000Y-127962779D01*
X176710000Y-127637221D02*
X176710000Y-127962779D01*
X161037221Y-121490000D02*
X161362779Y-121490000D01*
X161037221Y-122510000D02*
X161362779Y-122510000D01*
X161690000Y-137237221D02*
X161690000Y-137562779D01*
X162710000Y-137237221D02*
X162710000Y-137562779D01*
X154537221Y-121490000D02*
X154862779Y-121490000D01*
X154537221Y-122510000D02*
X154862779Y-122510000D01*
X153290000Y-137237221D02*
X153290000Y-137562779D01*
X154310000Y-137237221D02*
X154310000Y-137562779D01*
X147937221Y-121490000D02*
X148262779Y-121490000D01*
X147937221Y-122510000D02*
X148262779Y-122510000D01*
X139490000Y-127637221D02*
X139490000Y-127962779D01*
X140510000Y-127637221D02*
X140510000Y-127962779D01*
X135337221Y-106690000D02*
X135662779Y-106690000D01*
X135337221Y-107710000D02*
X135662779Y-107710000D01*
X168462779Y-90990000D02*
X168137221Y-90990000D01*
X168462779Y-92010000D02*
X168137221Y-92010000D01*
X147537221Y-90990000D02*
X147862779Y-90990000D01*
X147537221Y-92010000D02*
X147862779Y-92010000D01*
X128510000Y-105162779D02*
X128510000Y-104837221D01*
X127490000Y-105162779D02*
X127490000Y-104837221D01*
X149362779Y-109110000D02*
X149037221Y-109110000D01*
X149362779Y-108090000D02*
X149037221Y-108090000D01*
X125662779Y-104710000D02*
X125337221Y-104710000D01*
X125662779Y-103690000D02*
X125337221Y-103690000D01*
X127337221Y-108310000D02*
X127662779Y-108310000D01*
X127337221Y-107290000D02*
X127662779Y-107290000D01*
X117890000Y-110700000D02*
X117890000Y-108900000D01*
X121110000Y-108900000D02*
X121110000Y-111350000D01*
X151445120Y-104271751D02*
X150773369Y-103600000D01*
X150773369Y-103600000D02*
X151445120Y-102928249D01*
X157328249Y-110154880D02*
X158000000Y-110826631D01*
X158000000Y-110826631D02*
X158671751Y-110154880D01*
X158671751Y-97045120D02*
X158000000Y-96373369D01*
X158000000Y-96373369D02*
X157328249Y-97045120D01*
X164554880Y-102928249D02*
X165226631Y-103600000D01*
X165226631Y-103600000D02*
X164554880Y-104271751D01*
X164554880Y-104271751D02*
X165502403Y-105219275D01*
X142480000Y-109750000D02*
X142480000Y-112120000D01*
X145720000Y-111500000D02*
X145720000Y-110500000D01*
X142100000Y-109300000D02*
X142100000Y-110500000D01*
X143600000Y-109300000D02*
X142100000Y-109300000D01*
X168400000Y-109000000D02*
X167480761Y-108080761D01*
X167480761Y-108080761D02*
X165218019Y-110343503D01*
X165218019Y-110343503D02*
X166137258Y-111262742D01*
X166137258Y-111262742D02*
X168400000Y-109000000D01*
X159360000Y-113390000D02*
X159610000Y-113390000D01*
X156390000Y-116610000D02*
X156390000Y-116360000D01*
X156640000Y-116610000D02*
X156390000Y-116610000D01*
X159610000Y-116610000D02*
X159610000Y-116360000D01*
X159360000Y-116610000D02*
X159610000Y-116610000D01*
X156390000Y-113390000D02*
X156390000Y-113640000D01*
X156640000Y-113390000D02*
X156390000Y-113390000D01*
X118822221Y-115290000D02*
X119147779Y-115290000D01*
X118822221Y-116310000D02*
X119147779Y-116310000D01*
X118837221Y-114710000D02*
X119162779Y-114710000D01*
X118837221Y-113690000D02*
X119162779Y-113690000D01*
X124041422Y-107290000D02*
X124558578Y-107290000D01*
X124041422Y-108710000D02*
X124558578Y-108710000D01*
X124041422Y-110610000D02*
X124558578Y-110610000D01*
X124041422Y-109190000D02*
X124558578Y-109190000D01*
X124041422Y-111190000D02*
X124558578Y-111190000D01*
X124041422Y-112610000D02*
X124558578Y-112610000D01*
X119410000Y-98297936D02*
X119410000Y-99502064D01*
X117590000Y-98297936D02*
X117590000Y-99502064D01*
X125880000Y-122040000D02*
X125880000Y-122040000D01*
X126010000Y-122040000D02*
X125880000Y-122040000D01*
X126010000Y-122040000D02*
X126010000Y-122040000D01*
X125880000Y-122040000D02*
X126010000Y-122040000D01*
X125880000Y-119500000D02*
X125880000Y-119500000D01*
X126010000Y-119500000D02*
X125880000Y-119500000D01*
X126010000Y-119500000D02*
X126010000Y-119500000D01*
X125880000Y-119500000D02*
X126010000Y-119500000D01*
X126010000Y-122330000D02*
X126010000Y-122730000D01*
X127130000Y-122330000D02*
X126010000Y-122330000D01*
X127130000Y-122730000D02*
X127130000Y-122330000D01*
X126010000Y-122730000D02*
X127130000Y-122730000D01*
X126010000Y-119210000D02*
X126010000Y-122330000D01*
X126010000Y-122330000D02*
X129870000Y-122330000D01*
X126010000Y-119210000D02*
X129870000Y-119210000D01*
X129870000Y-122330000D02*
G75*
G03*
X129870000Y-119210000I0J1560000D01*
G01*
X172571267Y-131310000D02*
X172228733Y-131310000D01*
X172571267Y-130290000D02*
X172228733Y-130290000D01*
X177590000Y-112290000D02*
X175390000Y-112290000D01*
X175390000Y-112290000D02*
X175390000Y-113510000D01*
X175390000Y-113510000D02*
X183810000Y-113510000D01*
X183810000Y-113510000D02*
X183810000Y-95790000D01*
X183810000Y-95790000D02*
X175390000Y-95790000D01*
X175390000Y-95790000D02*
X175390000Y-97010000D01*
X175390000Y-97010000D02*
X177590000Y-97010000D01*
X182590000Y-113510000D02*
X182590000Y-112290000D01*
X182590000Y-112290000D02*
X177590000Y-112290000D01*
X177590000Y-112290000D02*
X177590000Y-113510000D01*
X182590000Y-95790000D02*
X182590000Y-97010000D01*
X182590000Y-97010000D02*
X177590000Y-97010000D01*
X177590000Y-97010000D02*
X177590000Y-95790000D01*
X178590000Y-112290000D02*
X178590000Y-97010000D01*
X178590000Y-110900000D02*
X178590000Y-111220000D01*
X178590000Y-111220000D02*
X182010000Y-111220000D01*
X182010000Y-111220000D02*
X182090000Y-110900000D01*
X182090000Y-110900000D02*
X182010000Y-110580000D01*
X182010000Y-110580000D02*
X178590000Y-110580000D01*
X178590000Y-110580000D02*
X178590000Y-110900000D01*
X177590000Y-109730000D02*
X177590000Y-109570000D01*
X178590000Y-108400000D02*
X178590000Y-108720000D01*
X178590000Y-108720000D02*
X182010000Y-108720000D01*
X182010000Y-108720000D02*
X182090000Y-108400000D01*
X182090000Y-108400000D02*
X182010000Y-108080000D01*
X182010000Y-108080000D02*
X178590000Y-108080000D01*
X178590000Y-108080000D02*
X178590000Y-108400000D01*
X177590000Y-107230000D02*
X177590000Y-107070000D01*
X178590000Y-105900000D02*
X178590000Y-106220000D01*
X178590000Y-106220000D02*
X182010000Y-106220000D01*
X182010000Y-106220000D02*
X182090000Y-105900000D01*
X182090000Y-105900000D02*
X182010000Y-105580000D01*
X182010000Y-105580000D02*
X178590000Y-105580000D01*
X178590000Y-105580000D02*
X178590000Y-105900000D01*
X177590000Y-104730000D02*
X177590000Y-104570000D01*
X178590000Y-103400000D02*
X178590000Y-103720000D01*
X178590000Y-103720000D02*
X182010000Y-103720000D01*
X182010000Y-103720000D02*
X182090000Y-103400000D01*
X182090000Y-103400000D02*
X182010000Y-103080000D01*
X182010000Y-103080000D02*
X178590000Y-103080000D01*
X178590000Y-103080000D02*
X178590000Y-103400000D01*
X177590000Y-102230000D02*
X177590000Y-102070000D01*
X178590000Y-100900000D02*
X178590000Y-101220000D01*
X178590000Y-101220000D02*
X182010000Y-101220000D01*
X182010000Y-101220000D02*
X182090000Y-100900000D01*
X182090000Y-100900000D02*
X182010000Y-100580000D01*
X182010000Y-100580000D02*
X178590000Y-100580000D01*
X178590000Y-100580000D02*
X178590000Y-100900000D01*
X177590000Y-99730000D02*
X177590000Y-99570000D01*
X178590000Y-98400000D02*
X178590000Y-98720000D01*
X178590000Y-98720000D02*
X182010000Y-98720000D01*
X182010000Y-98720000D02*
X182090000Y-98400000D01*
X182090000Y-98400000D02*
X182010000Y-98080000D01*
X182010000Y-98080000D02*
X178590000Y-98080000D01*
X178590000Y-98080000D02*
X178590000Y-98400000D01*
X175500000Y-110900000D02*
X174900000Y-111200000D01*
X174900000Y-111200000D02*
X174900000Y-110600000D01*
X174900000Y-110600000D02*
X175500000Y-110900000D01*
X170148008Y-107323744D02*
X169476256Y-106651992D01*
X169476256Y-106651992D02*
X169051992Y-107076256D01*
X169051992Y-107076256D02*
X169723744Y-107748008D01*
X169723744Y-107748008D02*
X170148008Y-107323744D01*
X163437221Y-117690000D02*
X163762779Y-117690000D01*
X163437221Y-118710000D02*
X163762779Y-118710000D01*
D11*
X128500000Y-131000000D02*
X128500000Y-133300000D01*
X128500000Y-124700000D02*
X128500000Y-126900000D01*
X123900000Y-124700000D02*
X123900000Y-133300000D01*
D10*
X136770000Y-99550000D02*
X136770000Y-102950000D01*
X136770000Y-97910000D02*
X136770000Y-98450000D01*
X139600000Y-105110000D02*
X140110000Y-105110000D01*
X140110000Y-104590000D02*
X140110000Y-105110000D01*
X139600000Y-104590000D02*
X140110000Y-104590000D01*
X136770000Y-104050000D02*
X136770000Y-104590000D01*
X139600000Y-97390000D02*
X140110000Y-97390000D01*
X139600000Y-97910000D02*
X140110000Y-97910000D01*
X136770000Y-104590000D02*
X137000000Y-104590000D01*
X133100000Y-97390000D02*
X137000000Y-97390000D01*
X140110000Y-97390000D02*
X140110000Y-97910000D01*
X133100000Y-105110000D02*
X137000000Y-105110000D01*
X133100000Y-97390000D02*
X133100000Y-105110000D01*
X136770000Y-97910000D02*
X137000000Y-97910000D01*
X121360000Y-124640000D02*
X121360000Y-123425000D01*
X121300000Y-128600000D02*
X121300000Y-130860000D01*
X120800000Y-128600000D02*
X120800000Y-130860000D01*
X118200000Y-127000000D02*
X117200000Y-127000000D01*
X118200000Y-128600000D02*
X118200000Y-127000000D01*
X117200000Y-128600000D02*
X118200000Y-128600000D01*
X117200000Y-127000000D02*
X117200000Y-128600000D01*
X120800000Y-127000000D02*
X121800000Y-127000000D01*
X120800000Y-128600000D02*
X120800000Y-127000000D01*
X121800000Y-128600000D02*
X120800000Y-128600000D01*
X121800000Y-127000000D02*
X121800000Y-128600000D01*
X116440000Y-124640000D02*
X117360000Y-124640000D01*
X122560000Y-124640000D02*
X121640000Y-124640000D01*
X119000000Y-126500000D02*
X119000000Y-130860000D01*
X120000000Y-126500000D02*
X119000000Y-126500000D01*
X120000000Y-130860000D02*
X120000000Y-126500000D01*
X117360000Y-124640000D02*
X117640000Y-124640000D01*
X117360000Y-123040000D02*
X117360000Y-124640000D01*
X116440000Y-123040000D02*
X117360000Y-123040000D01*
X116440000Y-130860000D02*
X116440000Y-123040000D01*
X122560000Y-130860000D02*
X116440000Y-130860000D01*
X122560000Y-123040000D02*
X122560000Y-130860000D01*
X121640000Y-123040000D02*
X122560000Y-123040000D01*
X121640000Y-124640000D02*
X121640000Y-123040000D01*
X121360000Y-124640000D02*
X121640000Y-124640000D01*
X91170000Y-120230000D02*
X93830000Y-120230000D01*
X91170000Y-120230000D02*
X91170000Y-115090000D01*
X91170000Y-115090000D02*
X93830000Y-115090000D01*
X93830000Y-120230000D02*
X93830000Y-115090000D01*
X93830000Y-122830000D02*
X93830000Y-121500000D01*
X92500000Y-122830000D02*
X93830000Y-122830000D01*
X121270000Y-115750000D02*
X121270000Y-117080000D01*
X121270000Y-117080000D02*
X122600000Y-117080000D01*
X123870000Y-117080000D02*
X129010000Y-117080000D01*
X129010000Y-114420000D02*
X129010000Y-117080000D01*
X123870000Y-114420000D02*
X129010000Y-114420000D01*
X123870000Y-114420000D02*
X123870000Y-117080000D01*
D11*
X116925000Y-113067857D02*
X116960714Y-113103571D01*
X117067857Y-113139285D01*
X117139285Y-113139285D01*
X117246428Y-113103571D01*
X117317857Y-113032142D01*
X117353571Y-112960714D01*
X117389285Y-112817857D01*
X117389285Y-112710714D01*
X117353571Y-112567857D01*
X117317857Y-112496428D01*
X117246428Y-112425000D01*
X117139285Y-112389285D01*
X117067857Y-112389285D01*
X116960714Y-112425000D01*
X116925000Y-112460714D01*
X116675000Y-112389285D02*
X116210714Y-112389285D01*
X116460714Y-112675000D01*
X116353571Y-112675000D01*
X116282142Y-112710714D01*
X116246428Y-112746428D01*
X116210714Y-112817857D01*
X116210714Y-112996428D01*
X116246428Y-113067857D01*
X116282142Y-113103571D01*
X116353571Y-113139285D01*
X116567857Y-113139285D01*
X116639285Y-113103571D01*
X116675000Y-113067857D01*
X122267857Y-105875000D02*
X122303571Y-105839285D01*
X122339285Y-105732142D01*
X122339285Y-105660714D01*
X122303571Y-105553571D01*
X122232142Y-105482142D01*
X122160714Y-105446428D01*
X122017857Y-105410714D01*
X121910714Y-105410714D01*
X121767857Y-105446428D01*
X121696428Y-105482142D01*
X121625000Y-105553571D01*
X121589285Y-105660714D01*
X121589285Y-105732142D01*
X121625000Y-105839285D01*
X121660714Y-105875000D01*
X121839285Y-106517857D02*
X122339285Y-106517857D01*
X121553571Y-106339285D02*
X122089285Y-106160714D01*
X122089285Y-106625000D01*
X166224285Y-100407714D02*
X166262380Y-100445809D01*
X166376666Y-100483904D01*
X166452857Y-100483904D01*
X166567142Y-100445809D01*
X166643333Y-100369619D01*
X166681428Y-100293428D01*
X166719523Y-100141047D01*
X166719523Y-100026761D01*
X166681428Y-99874380D01*
X166643333Y-99798190D01*
X166567142Y-99722000D01*
X166452857Y-99683904D01*
X166376666Y-99683904D01*
X166262380Y-99722000D01*
X166224285Y-99760095D01*
X165462380Y-100483904D02*
X165919523Y-100483904D01*
X165690952Y-100483904D02*
X165690952Y-99683904D01*
X165767142Y-99798190D01*
X165843333Y-99874380D01*
X165919523Y-99912476D01*
X164967142Y-99683904D02*
X164890952Y-99683904D01*
X164814761Y-99722000D01*
X164776666Y-99760095D01*
X164738571Y-99836285D01*
X164700476Y-99988666D01*
X164700476Y-100179142D01*
X164738571Y-100331523D01*
X164776666Y-100407714D01*
X164814761Y-100445809D01*
X164890952Y-100483904D01*
X164967142Y-100483904D01*
X165043333Y-100445809D01*
X165081428Y-100407714D01*
X165119523Y-100331523D01*
X165157619Y-100179142D01*
X165157619Y-99988666D01*
X165119523Y-99836285D01*
X165081428Y-99760095D01*
X165043333Y-99722000D01*
X164967142Y-99683904D01*
X154742857Y-113257142D02*
X154790476Y-113304761D01*
X154933333Y-113352380D01*
X155028571Y-113352380D01*
X155171428Y-113304761D01*
X155266666Y-113209523D01*
X155314285Y-113114285D01*
X155361904Y-112923809D01*
X155361904Y-112780952D01*
X155314285Y-112590476D01*
X155266666Y-112495238D01*
X155171428Y-112400000D01*
X155028571Y-112352380D01*
X154933333Y-112352380D01*
X154790476Y-112400000D01*
X154742857Y-112447619D01*
X153790476Y-113352380D02*
X154361904Y-113352380D01*
X154076190Y-113352380D02*
X154076190Y-112352380D01*
X154171428Y-112495238D01*
X154266666Y-112590476D01*
X154361904Y-112638095D01*
X152838095Y-113352380D02*
X153409523Y-113352380D01*
X153123809Y-113352380D02*
X153123809Y-112352380D01*
X153219047Y-112495238D01*
X153314285Y-112590476D01*
X153409523Y-112638095D01*
X146742857Y-104857142D02*
X146790476Y-104904761D01*
X146933333Y-104952380D01*
X147028571Y-104952380D01*
X147171428Y-104904761D01*
X147266666Y-104809523D01*
X147314285Y-104714285D01*
X147361904Y-104523809D01*
X147361904Y-104380952D01*
X147314285Y-104190476D01*
X147266666Y-104095238D01*
X147171428Y-104000000D01*
X147028571Y-103952380D01*
X146933333Y-103952380D01*
X146790476Y-104000000D01*
X146742857Y-104047619D01*
X145790476Y-104952380D02*
X146361904Y-104952380D01*
X146076190Y-104952380D02*
X146076190Y-103952380D01*
X146171428Y-104095238D01*
X146266666Y-104190476D01*
X146361904Y-104238095D01*
X145409523Y-104047619D02*
X145361904Y-104000000D01*
X145266666Y-103952380D01*
X145028571Y-103952380D01*
X144933333Y-104000000D01*
X144885714Y-104047619D01*
X144838095Y-104142857D01*
X144838095Y-104238095D01*
X144885714Y-104380952D01*
X145457142Y-104952380D01*
X144838095Y-104952380D01*
X151842857Y-96157142D02*
X151890476Y-96204761D01*
X152033333Y-96252380D01*
X152128571Y-96252380D01*
X152271428Y-96204761D01*
X152366666Y-96109523D01*
X152414285Y-96014285D01*
X152461904Y-95823809D01*
X152461904Y-95680952D01*
X152414285Y-95490476D01*
X152366666Y-95395238D01*
X152271428Y-95300000D01*
X152128571Y-95252380D01*
X152033333Y-95252380D01*
X151890476Y-95300000D01*
X151842857Y-95347619D01*
X150890476Y-96252380D02*
X151461904Y-96252380D01*
X151176190Y-96252380D02*
X151176190Y-95252380D01*
X151271428Y-95395238D01*
X151366666Y-95490476D01*
X151461904Y-95538095D01*
X150557142Y-95252380D02*
X149938095Y-95252380D01*
X150271428Y-95633333D01*
X150128571Y-95633333D01*
X150033333Y-95680952D01*
X149985714Y-95728571D01*
X149938095Y-95823809D01*
X149938095Y-96061904D01*
X149985714Y-96157142D01*
X150033333Y-96204761D01*
X150128571Y-96252380D01*
X150414285Y-96252380D01*
X150509523Y-96204761D01*
X150557142Y-96157142D01*
X166098857Y-96923142D02*
X166146476Y-96970761D01*
X166289333Y-97018380D01*
X166384571Y-97018380D01*
X166527428Y-96970761D01*
X166622666Y-96875523D01*
X166670285Y-96780285D01*
X166717904Y-96589809D01*
X166717904Y-96446952D01*
X166670285Y-96256476D01*
X166622666Y-96161238D01*
X166527428Y-96066000D01*
X166384571Y-96018380D01*
X166289333Y-96018380D01*
X166146476Y-96066000D01*
X166098857Y-96113619D01*
X165146476Y-97018380D02*
X165717904Y-97018380D01*
X165432190Y-97018380D02*
X165432190Y-96018380D01*
X165527428Y-96161238D01*
X165622666Y-96256476D01*
X165717904Y-96304095D01*
X164289333Y-96351714D02*
X164289333Y-97018380D01*
X164527428Y-95970761D02*
X164765523Y-96685047D01*
X164146476Y-96685047D01*
X163585714Y-109914285D02*
X163614285Y-109942857D01*
X163700000Y-109971428D01*
X163757142Y-109971428D01*
X163842857Y-109942857D01*
X163900000Y-109885714D01*
X163928571Y-109828571D01*
X163957142Y-109714285D01*
X163957142Y-109628571D01*
X163928571Y-109514285D01*
X163900000Y-109457142D01*
X163842857Y-109400000D01*
X163757142Y-109371428D01*
X163700000Y-109371428D01*
X163614285Y-109400000D01*
X163585714Y-109428571D01*
X163014285Y-109971428D02*
X163357142Y-109971428D01*
X163185714Y-109971428D02*
X163185714Y-109371428D01*
X163242857Y-109457142D01*
X163300000Y-109514285D01*
X163357142Y-109542857D01*
X162471428Y-109371428D02*
X162757142Y-109371428D01*
X162785714Y-109657142D01*
X162757142Y-109628571D01*
X162700000Y-109600000D01*
X162557142Y-109600000D01*
X162500000Y-109628571D01*
X162471428Y-109657142D01*
X162442857Y-109714285D01*
X162442857Y-109857142D01*
X162471428Y-109914285D01*
X162500000Y-109942857D01*
X162557142Y-109971428D01*
X162700000Y-109971428D01*
X162757142Y-109942857D01*
X162785714Y-109914285D01*
X160785714Y-112114285D02*
X160814285Y-112142857D01*
X160900000Y-112171428D01*
X160957142Y-112171428D01*
X161042857Y-112142857D01*
X161100000Y-112085714D01*
X161128571Y-112028571D01*
X161157142Y-111914285D01*
X161157142Y-111828571D01*
X161128571Y-111714285D01*
X161100000Y-111657142D01*
X161042857Y-111600000D01*
X160957142Y-111571428D01*
X160900000Y-111571428D01*
X160814285Y-111600000D01*
X160785714Y-111628571D01*
X160214285Y-112171428D02*
X160557142Y-112171428D01*
X160385714Y-112171428D02*
X160385714Y-111571428D01*
X160442857Y-111657142D01*
X160500000Y-111714285D01*
X160557142Y-111742857D01*
X159700000Y-111571428D02*
X159814285Y-111571428D01*
X159871428Y-111600000D01*
X159900000Y-111628571D01*
X159957142Y-111714285D01*
X159985714Y-111828571D01*
X159985714Y-112057142D01*
X159957142Y-112114285D01*
X159928571Y-112142857D01*
X159871428Y-112171428D01*
X159757142Y-112171428D01*
X159700000Y-112142857D01*
X159671428Y-112114285D01*
X159642857Y-112057142D01*
X159642857Y-111914285D01*
X159671428Y-111857142D01*
X159700000Y-111828571D01*
X159757142Y-111800000D01*
X159871428Y-111800000D01*
X159928571Y-111828571D01*
X159957142Y-111857142D01*
X159985714Y-111914285D01*
X162442857Y-114357142D02*
X162490476Y-114404761D01*
X162633333Y-114452380D01*
X162728571Y-114452380D01*
X162871428Y-114404761D01*
X162966666Y-114309523D01*
X163014285Y-114214285D01*
X163061904Y-114023809D01*
X163061904Y-113880952D01*
X163014285Y-113690476D01*
X162966666Y-113595238D01*
X162871428Y-113500000D01*
X162728571Y-113452380D01*
X162633333Y-113452380D01*
X162490476Y-113500000D01*
X162442857Y-113547619D01*
X161490476Y-114452380D02*
X162061904Y-114452380D01*
X161776190Y-114452380D02*
X161776190Y-113452380D01*
X161871428Y-113595238D01*
X161966666Y-113690476D01*
X162061904Y-113738095D01*
X161157142Y-113452380D02*
X160490476Y-113452380D01*
X160919047Y-114452380D01*
X155642857Y-119557142D02*
X155690476Y-119604761D01*
X155833333Y-119652380D01*
X155928571Y-119652380D01*
X156071428Y-119604761D01*
X156166666Y-119509523D01*
X156214285Y-119414285D01*
X156261904Y-119223809D01*
X156261904Y-119080952D01*
X156214285Y-118890476D01*
X156166666Y-118795238D01*
X156071428Y-118700000D01*
X155928571Y-118652380D01*
X155833333Y-118652380D01*
X155690476Y-118700000D01*
X155642857Y-118747619D01*
X154690476Y-119652380D02*
X155261904Y-119652380D01*
X154976190Y-119652380D02*
X154976190Y-118652380D01*
X155071428Y-118795238D01*
X155166666Y-118890476D01*
X155261904Y-118938095D01*
X154119047Y-119080952D02*
X154214285Y-119033333D01*
X154261904Y-118985714D01*
X154309523Y-118890476D01*
X154309523Y-118842857D01*
X154261904Y-118747619D01*
X154214285Y-118700000D01*
X154119047Y-118652380D01*
X153928571Y-118652380D01*
X153833333Y-118700000D01*
X153785714Y-118747619D01*
X153738095Y-118842857D01*
X153738095Y-118890476D01*
X153785714Y-118985714D01*
X153833333Y-119033333D01*
X153928571Y-119080952D01*
X154119047Y-119080952D01*
X154214285Y-119128571D01*
X154261904Y-119176190D01*
X154309523Y-119271428D01*
X154309523Y-119461904D01*
X154261904Y-119557142D01*
X154214285Y-119604761D01*
X154119047Y-119652380D01*
X153928571Y-119652380D01*
X153833333Y-119604761D01*
X153785714Y-119557142D01*
X153738095Y-119461904D01*
X153738095Y-119271428D01*
X153785714Y-119176190D01*
X153833333Y-119128571D01*
X153928571Y-119080952D01*
X155642857Y-120957142D02*
X155690476Y-121004761D01*
X155833333Y-121052380D01*
X155928571Y-121052380D01*
X156071428Y-121004761D01*
X156166666Y-120909523D01*
X156214285Y-120814285D01*
X156261904Y-120623809D01*
X156261904Y-120480952D01*
X156214285Y-120290476D01*
X156166666Y-120195238D01*
X156071428Y-120100000D01*
X155928571Y-120052380D01*
X155833333Y-120052380D01*
X155690476Y-120100000D01*
X155642857Y-120147619D01*
X154690476Y-121052380D02*
X155261904Y-121052380D01*
X154976190Y-121052380D02*
X154976190Y-120052380D01*
X155071428Y-120195238D01*
X155166666Y-120290476D01*
X155261904Y-120338095D01*
X154214285Y-121052380D02*
X154023809Y-121052380D01*
X153928571Y-121004761D01*
X153880952Y-120957142D01*
X153785714Y-120814285D01*
X153738095Y-120623809D01*
X153738095Y-120242857D01*
X153785714Y-120147619D01*
X153833333Y-120100000D01*
X153928571Y-120052380D01*
X154119047Y-120052380D01*
X154214285Y-120100000D01*
X154261904Y-120147619D01*
X154309523Y-120242857D01*
X154309523Y-120480952D01*
X154261904Y-120576190D01*
X154214285Y-120623809D01*
X154119047Y-120671428D01*
X153928571Y-120671428D01*
X153833333Y-120623809D01*
X153785714Y-120576190D01*
X153738095Y-120480952D01*
X135082142Y-112067857D02*
X135117857Y-112103571D01*
X135225000Y-112139285D01*
X135296428Y-112139285D01*
X135403571Y-112103571D01*
X135475000Y-112032142D01*
X135510714Y-111960714D01*
X135546428Y-111817857D01*
X135546428Y-111710714D01*
X135510714Y-111567857D01*
X135475000Y-111496428D01*
X135403571Y-111425000D01*
X135296428Y-111389285D01*
X135225000Y-111389285D01*
X135117857Y-111425000D01*
X135082142Y-111460714D01*
X134796428Y-111460714D02*
X134760714Y-111425000D01*
X134689285Y-111389285D01*
X134510714Y-111389285D01*
X134439285Y-111425000D01*
X134403571Y-111460714D01*
X134367857Y-111532142D01*
X134367857Y-111603571D01*
X134403571Y-111710714D01*
X134832142Y-112139285D01*
X134367857Y-112139285D01*
X133903571Y-111389285D02*
X133832142Y-111389285D01*
X133760714Y-111425000D01*
X133725000Y-111460714D01*
X133689285Y-111532142D01*
X133653571Y-111675000D01*
X133653571Y-111853571D01*
X133689285Y-111996428D01*
X133725000Y-112067857D01*
X133760714Y-112103571D01*
X133832142Y-112139285D01*
X133903571Y-112139285D01*
X133975000Y-112103571D01*
X134010714Y-112067857D01*
X134046428Y-111996428D01*
X134082142Y-111853571D01*
X134082142Y-111675000D01*
X134046428Y-111532142D01*
X134010714Y-111460714D01*
X133975000Y-111425000D01*
X133903571Y-111389285D01*
X141642857Y-114357142D02*
X141690476Y-114404761D01*
X141833333Y-114452380D01*
X141928571Y-114452380D01*
X142071428Y-114404761D01*
X142166666Y-114309523D01*
X142214285Y-114214285D01*
X142261904Y-114023809D01*
X142261904Y-113880952D01*
X142214285Y-113690476D01*
X142166666Y-113595238D01*
X142071428Y-113500000D01*
X141928571Y-113452380D01*
X141833333Y-113452380D01*
X141690476Y-113500000D01*
X141642857Y-113547619D01*
X141261904Y-113547619D02*
X141214285Y-113500000D01*
X141119047Y-113452380D01*
X140880952Y-113452380D01*
X140785714Y-113500000D01*
X140738095Y-113547619D01*
X140690476Y-113642857D01*
X140690476Y-113738095D01*
X140738095Y-113880952D01*
X141309523Y-114452380D01*
X140690476Y-114452380D01*
X139738095Y-114452380D02*
X140309523Y-114452380D01*
X140023809Y-114452380D02*
X140023809Y-113452380D01*
X140119047Y-113595238D01*
X140214285Y-113690476D01*
X140309523Y-113738095D01*
X173357142Y-103357142D02*
X173404761Y-103309523D01*
X173452380Y-103166666D01*
X173452380Y-103071428D01*
X173404761Y-102928571D01*
X173309523Y-102833333D01*
X173214285Y-102785714D01*
X173023809Y-102738095D01*
X172880952Y-102738095D01*
X172690476Y-102785714D01*
X172595238Y-102833333D01*
X172500000Y-102928571D01*
X172452380Y-103071428D01*
X172452380Y-103166666D01*
X172500000Y-103309523D01*
X172547619Y-103357142D01*
X172547619Y-103738095D02*
X172500000Y-103785714D01*
X172452380Y-103880952D01*
X172452380Y-104119047D01*
X172500000Y-104214285D01*
X172547619Y-104261904D01*
X172642857Y-104309523D01*
X172738095Y-104309523D01*
X172880952Y-104261904D01*
X173452380Y-103690476D01*
X173452380Y-104309523D01*
X172547619Y-104690476D02*
X172500000Y-104738095D01*
X172452380Y-104833333D01*
X172452380Y-105071428D01*
X172500000Y-105166666D01*
X172547619Y-105214285D01*
X172642857Y-105261904D01*
X172738095Y-105261904D01*
X172880952Y-105214285D01*
X173452380Y-104642857D01*
X173452380Y-105261904D01*
X146727857Y-106357142D02*
X146775476Y-106404761D01*
X146918333Y-106452380D01*
X147013571Y-106452380D01*
X147156428Y-106404761D01*
X147251666Y-106309523D01*
X147299285Y-106214285D01*
X147346904Y-106023809D01*
X147346904Y-105880952D01*
X147299285Y-105690476D01*
X147251666Y-105595238D01*
X147156428Y-105500000D01*
X147013571Y-105452380D01*
X146918333Y-105452380D01*
X146775476Y-105500000D01*
X146727857Y-105547619D01*
X146346904Y-105547619D02*
X146299285Y-105500000D01*
X146204047Y-105452380D01*
X145965952Y-105452380D01*
X145870714Y-105500000D01*
X145823095Y-105547619D01*
X145775476Y-105642857D01*
X145775476Y-105738095D01*
X145823095Y-105880952D01*
X146394523Y-106452380D01*
X145775476Y-106452380D01*
X145442142Y-105452380D02*
X144823095Y-105452380D01*
X145156428Y-105833333D01*
X145013571Y-105833333D01*
X144918333Y-105880952D01*
X144870714Y-105928571D01*
X144823095Y-106023809D01*
X144823095Y-106261904D01*
X144870714Y-106357142D01*
X144918333Y-106404761D01*
X145013571Y-106452380D01*
X145299285Y-106452380D01*
X145394523Y-106404761D01*
X145442142Y-106357142D01*
X151842857Y-97557142D02*
X151890476Y-97604761D01*
X152033333Y-97652380D01*
X152128571Y-97652380D01*
X152271428Y-97604761D01*
X152366666Y-97509523D01*
X152414285Y-97414285D01*
X152461904Y-97223809D01*
X152461904Y-97080952D01*
X152414285Y-96890476D01*
X152366666Y-96795238D01*
X152271428Y-96700000D01*
X152128571Y-96652380D01*
X152033333Y-96652380D01*
X151890476Y-96700000D01*
X151842857Y-96747619D01*
X151461904Y-96747619D02*
X151414285Y-96700000D01*
X151319047Y-96652380D01*
X151080952Y-96652380D01*
X150985714Y-96700000D01*
X150938095Y-96747619D01*
X150890476Y-96842857D01*
X150890476Y-96938095D01*
X150938095Y-97080952D01*
X151509523Y-97652380D01*
X150890476Y-97652380D01*
X150033333Y-96985714D02*
X150033333Y-97652380D01*
X150271428Y-96604761D02*
X150509523Y-97319047D01*
X149890476Y-97319047D01*
X135082142Y-113067857D02*
X135117857Y-113103571D01*
X135225000Y-113139285D01*
X135296428Y-113139285D01*
X135403571Y-113103571D01*
X135475000Y-113032142D01*
X135510714Y-112960714D01*
X135546428Y-112817857D01*
X135546428Y-112710714D01*
X135510714Y-112567857D01*
X135475000Y-112496428D01*
X135403571Y-112425000D01*
X135296428Y-112389285D01*
X135225000Y-112389285D01*
X135117857Y-112425000D01*
X135082142Y-112460714D01*
X134796428Y-112460714D02*
X134760714Y-112425000D01*
X134689285Y-112389285D01*
X134510714Y-112389285D01*
X134439285Y-112425000D01*
X134403571Y-112460714D01*
X134367857Y-112532142D01*
X134367857Y-112603571D01*
X134403571Y-112710714D01*
X134832142Y-113139285D01*
X134367857Y-113139285D01*
X133689285Y-112389285D02*
X134046428Y-112389285D01*
X134082142Y-112746428D01*
X134046428Y-112710714D01*
X133975000Y-112675000D01*
X133796428Y-112675000D01*
X133725000Y-112710714D01*
X133689285Y-112746428D01*
X133653571Y-112817857D01*
X133653571Y-112996428D01*
X133689285Y-113067857D01*
X133725000Y-113103571D01*
X133796428Y-113139285D01*
X133975000Y-113139285D01*
X134046428Y-113103571D01*
X134082142Y-113067857D01*
X119042857Y-102357142D02*
X119090476Y-102404761D01*
X119233333Y-102452380D01*
X119328571Y-102452380D01*
X119471428Y-102404761D01*
X119566666Y-102309523D01*
X119614285Y-102214285D01*
X119661904Y-102023809D01*
X119661904Y-101880952D01*
X119614285Y-101690476D01*
X119566666Y-101595238D01*
X119471428Y-101500000D01*
X119328571Y-101452380D01*
X119233333Y-101452380D01*
X119090476Y-101500000D01*
X119042857Y-101547619D01*
X118661904Y-101547619D02*
X118614285Y-101500000D01*
X118519047Y-101452380D01*
X118280952Y-101452380D01*
X118185714Y-101500000D01*
X118138095Y-101547619D01*
X118090476Y-101642857D01*
X118090476Y-101738095D01*
X118138095Y-101880952D01*
X118709523Y-102452380D01*
X118090476Y-102452380D01*
X117233333Y-101452380D02*
X117423809Y-101452380D01*
X117519047Y-101500000D01*
X117566666Y-101547619D01*
X117661904Y-101690476D01*
X117709523Y-101880952D01*
X117709523Y-102261904D01*
X117661904Y-102357142D01*
X117614285Y-102404761D01*
X117519047Y-102452380D01*
X117328571Y-102452380D01*
X117233333Y-102404761D01*
X117185714Y-102357142D01*
X117138095Y-102261904D01*
X117138095Y-102023809D01*
X117185714Y-101928571D01*
X117233333Y-101880952D01*
X117328571Y-101833333D01*
X117519047Y-101833333D01*
X117614285Y-101880952D01*
X117661904Y-101928571D01*
X117709523Y-102023809D01*
X168042857Y-104557142D02*
X168090476Y-104604761D01*
X168233333Y-104652380D01*
X168328571Y-104652380D01*
X168471428Y-104604761D01*
X168566666Y-104509523D01*
X168614285Y-104414285D01*
X168661904Y-104223809D01*
X168661904Y-104080952D01*
X168614285Y-103890476D01*
X168566666Y-103795238D01*
X168471428Y-103700000D01*
X168328571Y-103652380D01*
X168233333Y-103652380D01*
X168090476Y-103700000D01*
X168042857Y-103747619D01*
X167661904Y-103747619D02*
X167614285Y-103700000D01*
X167519047Y-103652380D01*
X167280952Y-103652380D01*
X167185714Y-103700000D01*
X167138095Y-103747619D01*
X167090476Y-103842857D01*
X167090476Y-103938095D01*
X167138095Y-104080952D01*
X167709523Y-104652380D01*
X167090476Y-104652380D01*
X166519047Y-104080952D02*
X166614285Y-104033333D01*
X166661904Y-103985714D01*
X166709523Y-103890476D01*
X166709523Y-103842857D01*
X166661904Y-103747619D01*
X166614285Y-103700000D01*
X166519047Y-103652380D01*
X166328571Y-103652380D01*
X166233333Y-103700000D01*
X166185714Y-103747619D01*
X166138095Y-103842857D01*
X166138095Y-103890476D01*
X166185714Y-103985714D01*
X166233333Y-104033333D01*
X166328571Y-104080952D01*
X166519047Y-104080952D01*
X166614285Y-104128571D01*
X166661904Y-104176190D01*
X166709523Y-104271428D01*
X166709523Y-104461904D01*
X166661904Y-104557142D01*
X166614285Y-104604761D01*
X166519047Y-104652380D01*
X166328571Y-104652380D01*
X166233333Y-104604761D01*
X166185714Y-104557142D01*
X166138095Y-104461904D01*
X166138095Y-104271428D01*
X166185714Y-104176190D01*
X166233333Y-104128571D01*
X166328571Y-104080952D01*
X172138095Y-93452380D02*
X172138095Y-92452380D01*
X171900000Y-92452380D01*
X171757142Y-92500000D01*
X171661904Y-92595238D01*
X171614285Y-92690476D01*
X171566666Y-92880952D01*
X171566666Y-93023809D01*
X171614285Y-93214285D01*
X171661904Y-93309523D01*
X171757142Y-93404761D01*
X171900000Y-93452380D01*
X172138095Y-93452380D01*
X170709523Y-92452380D02*
X170900000Y-92452380D01*
X170995238Y-92500000D01*
X171042857Y-92547619D01*
X171138095Y-92690476D01*
X171185714Y-92880952D01*
X171185714Y-93261904D01*
X171138095Y-93357142D01*
X171090476Y-93404761D01*
X170995238Y-93452380D01*
X170804761Y-93452380D01*
X170709523Y-93404761D01*
X170661904Y-93357142D01*
X170614285Y-93261904D01*
X170614285Y-93023809D01*
X170661904Y-92928571D01*
X170709523Y-92880952D01*
X170804761Y-92833333D01*
X170995238Y-92833333D01*
X171090476Y-92880952D01*
X171138095Y-92928571D01*
X171185714Y-93023809D01*
X144738095Y-93452380D02*
X144738095Y-92452380D01*
X144500000Y-92452380D01*
X144357142Y-92500000D01*
X144261904Y-92595238D01*
X144214285Y-92690476D01*
X144166666Y-92880952D01*
X144166666Y-93023809D01*
X144214285Y-93214285D01*
X144261904Y-93309523D01*
X144357142Y-93404761D01*
X144500000Y-93452380D01*
X144738095Y-93452380D01*
X143833333Y-92452380D02*
X143166666Y-92452380D01*
X143595238Y-93452380D01*
X128576190Y-97252380D02*
X128576190Y-96252380D01*
X127528571Y-97157142D02*
X127576190Y-97204761D01*
X127719047Y-97252380D01*
X127814285Y-97252380D01*
X127957142Y-97204761D01*
X128052380Y-97109523D01*
X128100000Y-97014285D01*
X128147619Y-96823809D01*
X128147619Y-96680952D01*
X128100000Y-96490476D01*
X128052380Y-96395238D01*
X127957142Y-96300000D01*
X127814285Y-96252380D01*
X127719047Y-96252380D01*
X127576190Y-96300000D01*
X127528571Y-96347619D01*
X126576190Y-97252380D02*
X127147619Y-97252380D01*
X126861904Y-97252380D02*
X126861904Y-96252380D01*
X126957142Y-96395238D01*
X127052380Y-96490476D01*
X127147619Y-96538095D01*
X170533333Y-102452380D02*
X170533333Y-103166666D01*
X170580952Y-103309523D01*
X170676190Y-103404761D01*
X170819047Y-103452380D01*
X170914285Y-103452380D01*
X169628571Y-102785714D02*
X169628571Y-103452380D01*
X169866666Y-102404761D02*
X170104761Y-103119047D01*
X169485714Y-103119047D01*
X146333333Y-102452380D02*
X146333333Y-103166666D01*
X146380952Y-103309523D01*
X146476190Y-103404761D01*
X146619047Y-103452380D01*
X146714285Y-103452380D01*
X145380952Y-102452380D02*
X145857142Y-102452380D01*
X145904761Y-102928571D01*
X145857142Y-102880952D01*
X145761904Y-102833333D01*
X145523809Y-102833333D01*
X145428571Y-102880952D01*
X145380952Y-102928571D01*
X145333333Y-103023809D01*
X145333333Y-103261904D01*
X145380952Y-103357142D01*
X145428571Y-103404761D01*
X145523809Y-103452380D01*
X145761904Y-103452380D01*
X145857142Y-103404761D01*
X145904761Y-103357142D01*
X114533333Y-92652380D02*
X114533333Y-93366666D01*
X114580952Y-93509523D01*
X114676190Y-93604761D01*
X114819047Y-93652380D01*
X114914285Y-93652380D01*
X114152380Y-92652380D02*
X113485714Y-92652380D01*
X113914285Y-93652380D01*
X117566666Y-120052380D02*
X118042857Y-120052380D01*
X118042857Y-119052380D01*
X116709523Y-120052380D02*
X117280952Y-120052380D01*
X116995238Y-120052380D02*
X116995238Y-119052380D01*
X117090476Y-119195238D01*
X117185714Y-119290476D01*
X117280952Y-119338095D01*
X165295238Y-125347619D02*
X165390476Y-125300000D01*
X165485714Y-125204761D01*
X165628571Y-125061904D01*
X165723809Y-125014285D01*
X165819047Y-125014285D01*
X165771428Y-125252380D02*
X165866666Y-125204761D01*
X165961904Y-125109523D01*
X166009523Y-124919047D01*
X166009523Y-124585714D01*
X165961904Y-124395238D01*
X165866666Y-124300000D01*
X165771428Y-124252380D01*
X165580952Y-124252380D01*
X165485714Y-124300000D01*
X165390476Y-124395238D01*
X165342857Y-124585714D01*
X165342857Y-124919047D01*
X165390476Y-125109523D01*
X165485714Y-125204761D01*
X165580952Y-125252380D01*
X165771428Y-125252380D01*
X164390476Y-125252380D02*
X164961904Y-125252380D01*
X164676190Y-125252380D02*
X164676190Y-124252380D01*
X164771428Y-124395238D01*
X164866666Y-124490476D01*
X164961904Y-124538095D01*
X158495238Y-125347619D02*
X158590476Y-125300000D01*
X158685714Y-125204761D01*
X158828571Y-125061904D01*
X158923809Y-125014285D01*
X159019047Y-125014285D01*
X158971428Y-125252380D02*
X159066666Y-125204761D01*
X159161904Y-125109523D01*
X159209523Y-124919047D01*
X159209523Y-124585714D01*
X159161904Y-124395238D01*
X159066666Y-124300000D01*
X158971428Y-124252380D01*
X158780952Y-124252380D01*
X158685714Y-124300000D01*
X158590476Y-124395238D01*
X158542857Y-124585714D01*
X158542857Y-124919047D01*
X158590476Y-125109523D01*
X158685714Y-125204761D01*
X158780952Y-125252380D01*
X158971428Y-125252380D01*
X158209523Y-124252380D02*
X157590476Y-124252380D01*
X157923809Y-124633333D01*
X157780952Y-124633333D01*
X157685714Y-124680952D01*
X157638095Y-124728571D01*
X157590476Y-124823809D01*
X157590476Y-125061904D01*
X157638095Y-125157142D01*
X157685714Y-125204761D01*
X157780952Y-125252380D01*
X158066666Y-125252380D01*
X158161904Y-125204761D01*
X158209523Y-125157142D01*
X151895238Y-125347619D02*
X151990476Y-125300000D01*
X152085714Y-125204761D01*
X152228571Y-125061904D01*
X152323809Y-125014285D01*
X152419047Y-125014285D01*
X152371428Y-125252380D02*
X152466666Y-125204761D01*
X152561904Y-125109523D01*
X152609523Y-124919047D01*
X152609523Y-124585714D01*
X152561904Y-124395238D01*
X152466666Y-124300000D01*
X152371428Y-124252380D01*
X152180952Y-124252380D01*
X152085714Y-124300000D01*
X151990476Y-124395238D01*
X151942857Y-124585714D01*
X151942857Y-124919047D01*
X151990476Y-125109523D01*
X152085714Y-125204761D01*
X152180952Y-125252380D01*
X152371428Y-125252380D01*
X151038095Y-124252380D02*
X151514285Y-124252380D01*
X151561904Y-124728571D01*
X151514285Y-124680952D01*
X151419047Y-124633333D01*
X151180952Y-124633333D01*
X151085714Y-124680952D01*
X151038095Y-124728571D01*
X150990476Y-124823809D01*
X150990476Y-125061904D01*
X151038095Y-125157142D01*
X151085714Y-125204761D01*
X151180952Y-125252380D01*
X151419047Y-125252380D01*
X151514285Y-125204761D01*
X151561904Y-125157142D01*
X145295238Y-125347619D02*
X145390476Y-125300000D01*
X145485714Y-125204761D01*
X145628571Y-125061904D01*
X145723809Y-125014285D01*
X145819047Y-125014285D01*
X145771428Y-125252380D02*
X145866666Y-125204761D01*
X145961904Y-125109523D01*
X146009523Y-124919047D01*
X146009523Y-124585714D01*
X145961904Y-124395238D01*
X145866666Y-124300000D01*
X145771428Y-124252380D01*
X145580952Y-124252380D01*
X145485714Y-124300000D01*
X145390476Y-124395238D01*
X145342857Y-124585714D01*
X145342857Y-124919047D01*
X145390476Y-125109523D01*
X145485714Y-125204761D01*
X145580952Y-125252380D01*
X145771428Y-125252380D01*
X145009523Y-124252380D02*
X144342857Y-124252380D01*
X144771428Y-125252380D01*
X123325000Y-105139285D02*
X123575000Y-104782142D01*
X123753571Y-105139285D02*
X123753571Y-104389285D01*
X123467857Y-104389285D01*
X123396428Y-104425000D01*
X123360714Y-104460714D01*
X123325000Y-104532142D01*
X123325000Y-104639285D01*
X123360714Y-104710714D01*
X123396428Y-104746428D01*
X123467857Y-104782142D01*
X123753571Y-104782142D01*
X122610714Y-105139285D02*
X123039285Y-105139285D01*
X122825000Y-105139285D02*
X122825000Y-104389285D01*
X122896428Y-104496428D01*
X122967857Y-104567857D01*
X123039285Y-104603571D01*
X120525000Y-103939285D02*
X120775000Y-103582142D01*
X120953571Y-103939285D02*
X120953571Y-103189285D01*
X120667857Y-103189285D01*
X120596428Y-103225000D01*
X120560714Y-103260714D01*
X120525000Y-103332142D01*
X120525000Y-103439285D01*
X120560714Y-103510714D01*
X120596428Y-103546428D01*
X120667857Y-103582142D01*
X120953571Y-103582142D01*
X120239285Y-103260714D02*
X120203571Y-103225000D01*
X120132142Y-103189285D01*
X119953571Y-103189285D01*
X119882142Y-103225000D01*
X119846428Y-103260714D01*
X119810714Y-103332142D01*
X119810714Y-103403571D01*
X119846428Y-103510714D01*
X120275000Y-103939285D01*
X119810714Y-103939285D01*
X117652380Y-105433333D02*
X117176190Y-105100000D01*
X117652380Y-104861904D02*
X116652380Y-104861904D01*
X116652380Y-105242857D01*
X116700000Y-105338095D01*
X116747619Y-105385714D01*
X116842857Y-105433333D01*
X116985714Y-105433333D01*
X117080952Y-105385714D01*
X117128571Y-105338095D01*
X117176190Y-105242857D01*
X117176190Y-104861904D01*
X116652380Y-105766666D02*
X116652380Y-106385714D01*
X117033333Y-106052380D01*
X117033333Y-106195238D01*
X117080952Y-106290476D01*
X117128571Y-106338095D01*
X117223809Y-106385714D01*
X117461904Y-106385714D01*
X117557142Y-106338095D01*
X117604761Y-106290476D01*
X117652380Y-106195238D01*
X117652380Y-105909523D01*
X117604761Y-105814285D01*
X117557142Y-105766666D01*
X164497969Y-114137732D02*
X165070389Y-114036717D01*
X164902030Y-114541793D02*
X165609137Y-113834687D01*
X165339763Y-113565312D01*
X165238748Y-113531641D01*
X165171404Y-113531641D01*
X165070389Y-113565312D01*
X164969374Y-113666328D01*
X164935702Y-113767343D01*
X164935702Y-113834687D01*
X164969374Y-113935702D01*
X165238748Y-114205076D01*
X164363282Y-113060236D02*
X163891877Y-113531641D01*
X164801015Y-112959221D02*
X164464297Y-113632656D01*
X164026564Y-113194923D01*
X160766666Y-120852380D02*
X161100000Y-120376190D01*
X161338095Y-120852380D02*
X161338095Y-119852380D01*
X160957142Y-119852380D01*
X160861904Y-119900000D01*
X160814285Y-119947619D01*
X160766666Y-120042857D01*
X160766666Y-120185714D01*
X160814285Y-120280952D01*
X160861904Y-120328571D01*
X160957142Y-120376190D01*
X161338095Y-120376190D01*
X159861904Y-119852380D02*
X160338095Y-119852380D01*
X160385714Y-120328571D01*
X160338095Y-120280952D01*
X160242857Y-120233333D01*
X160004761Y-120233333D01*
X159909523Y-120280952D01*
X159861904Y-120328571D01*
X159814285Y-120423809D01*
X159814285Y-120661904D01*
X159861904Y-120757142D01*
X159909523Y-120804761D01*
X160004761Y-120852380D01*
X160242857Y-120852380D01*
X160338095Y-120804761D01*
X160385714Y-120757142D01*
X165666666Y-122452380D02*
X166000000Y-121976190D01*
X166238095Y-122452380D02*
X166238095Y-121452380D01*
X165857142Y-121452380D01*
X165761904Y-121500000D01*
X165714285Y-121547619D01*
X165666666Y-121642857D01*
X165666666Y-121785714D01*
X165714285Y-121880952D01*
X165761904Y-121928571D01*
X165857142Y-121976190D01*
X166238095Y-121976190D01*
X164809523Y-121452380D02*
X165000000Y-121452380D01*
X165095238Y-121500000D01*
X165142857Y-121547619D01*
X165238095Y-121690476D01*
X165285714Y-121880952D01*
X165285714Y-122261904D01*
X165238095Y-122357142D01*
X165190476Y-122404761D01*
X165095238Y-122452380D01*
X164904761Y-122452380D01*
X164809523Y-122404761D01*
X164761904Y-122357142D01*
X164714285Y-122261904D01*
X164714285Y-122023809D01*
X164761904Y-121928571D01*
X164809523Y-121880952D01*
X164904761Y-121833333D01*
X165095238Y-121833333D01*
X165190476Y-121880952D01*
X165238095Y-121928571D01*
X165285714Y-122023809D01*
X176652380Y-130233333D02*
X176176190Y-129900000D01*
X176652380Y-129661904D02*
X175652380Y-129661904D01*
X175652380Y-130042857D01*
X175700000Y-130138095D01*
X175747619Y-130185714D01*
X175842857Y-130233333D01*
X175985714Y-130233333D01*
X176080952Y-130185714D01*
X176128571Y-130138095D01*
X176176190Y-130042857D01*
X176176190Y-129661904D01*
X175652380Y-130566666D02*
X175652380Y-131233333D01*
X176652380Y-130804761D01*
X158766666Y-123452380D02*
X159100000Y-122976190D01*
X159338095Y-123452380D02*
X159338095Y-122452380D01*
X158957142Y-122452380D01*
X158861904Y-122500000D01*
X158814285Y-122547619D01*
X158766666Y-122642857D01*
X158766666Y-122785714D01*
X158814285Y-122880952D01*
X158861904Y-122928571D01*
X158957142Y-122976190D01*
X159338095Y-122976190D01*
X158195238Y-122880952D02*
X158290476Y-122833333D01*
X158338095Y-122785714D01*
X158385714Y-122690476D01*
X158385714Y-122642857D01*
X158338095Y-122547619D01*
X158290476Y-122500000D01*
X158195238Y-122452380D01*
X158004761Y-122452380D01*
X157909523Y-122500000D01*
X157861904Y-122547619D01*
X157814285Y-122642857D01*
X157814285Y-122690476D01*
X157861904Y-122785714D01*
X157909523Y-122833333D01*
X158004761Y-122880952D01*
X158195238Y-122880952D01*
X158290476Y-122928571D01*
X158338095Y-122976190D01*
X158385714Y-123071428D01*
X158385714Y-123261904D01*
X158338095Y-123357142D01*
X158290476Y-123404761D01*
X158195238Y-123452380D01*
X158004761Y-123452380D01*
X157909523Y-123404761D01*
X157861904Y-123357142D01*
X157814285Y-123261904D01*
X157814285Y-123071428D01*
X157861904Y-122976190D01*
X157909523Y-122928571D01*
X158004761Y-122880952D01*
X164166666Y-138952380D02*
X164500000Y-138476190D01*
X164738095Y-138952380D02*
X164738095Y-137952380D01*
X164357142Y-137952380D01*
X164261904Y-138000000D01*
X164214285Y-138047619D01*
X164166666Y-138142857D01*
X164166666Y-138285714D01*
X164214285Y-138380952D01*
X164261904Y-138428571D01*
X164357142Y-138476190D01*
X164738095Y-138476190D01*
X163690476Y-138952380D02*
X163500000Y-138952380D01*
X163404761Y-138904761D01*
X163357142Y-138857142D01*
X163261904Y-138714285D01*
X163214285Y-138523809D01*
X163214285Y-138142857D01*
X163261904Y-138047619D01*
X163309523Y-138000000D01*
X163404761Y-137952380D01*
X163595238Y-137952380D01*
X163690476Y-138000000D01*
X163738095Y-138047619D01*
X163785714Y-138142857D01*
X163785714Y-138380952D01*
X163738095Y-138476190D01*
X163690476Y-138523809D01*
X163595238Y-138571428D01*
X163404761Y-138571428D01*
X163309523Y-138523809D01*
X163261904Y-138476190D01*
X163214285Y-138380952D01*
X152442857Y-122452380D02*
X152776190Y-121976190D01*
X153014285Y-122452380D02*
X153014285Y-121452380D01*
X152633333Y-121452380D01*
X152538095Y-121500000D01*
X152490476Y-121547619D01*
X152442857Y-121642857D01*
X152442857Y-121785714D01*
X152490476Y-121880952D01*
X152538095Y-121928571D01*
X152633333Y-121976190D01*
X153014285Y-121976190D01*
X151490476Y-122452380D02*
X152061904Y-122452380D01*
X151776190Y-122452380D02*
X151776190Y-121452380D01*
X151871428Y-121595238D01*
X151966666Y-121690476D01*
X152061904Y-121738095D01*
X150871428Y-121452380D02*
X150776190Y-121452380D01*
X150680952Y-121500000D01*
X150633333Y-121547619D01*
X150585714Y-121642857D01*
X150538095Y-121833333D01*
X150538095Y-122071428D01*
X150585714Y-122261904D01*
X150633333Y-122357142D01*
X150680952Y-122404761D01*
X150776190Y-122452380D01*
X150871428Y-122452380D01*
X150966666Y-122404761D01*
X151014285Y-122357142D01*
X151061904Y-122261904D01*
X151109523Y-122071428D01*
X151109523Y-121833333D01*
X151061904Y-121642857D01*
X151014285Y-121547619D01*
X150966666Y-121500000D01*
X150871428Y-121452380D01*
X152142857Y-138952380D02*
X152476190Y-138476190D01*
X152714285Y-138952380D02*
X152714285Y-137952380D01*
X152333333Y-137952380D01*
X152238095Y-138000000D01*
X152190476Y-138047619D01*
X152142857Y-138142857D01*
X152142857Y-138285714D01*
X152190476Y-138380952D01*
X152238095Y-138428571D01*
X152333333Y-138476190D01*
X152714285Y-138476190D01*
X151190476Y-138952380D02*
X151761904Y-138952380D01*
X151476190Y-138952380D02*
X151476190Y-137952380D01*
X151571428Y-138095238D01*
X151666666Y-138190476D01*
X151761904Y-138238095D01*
X150238095Y-138952380D02*
X150809523Y-138952380D01*
X150523809Y-138952380D02*
X150523809Y-137952380D01*
X150619047Y-138095238D01*
X150714285Y-138190476D01*
X150809523Y-138238095D01*
X149442857Y-120852380D02*
X149776190Y-120376190D01*
X150014285Y-120852380D02*
X150014285Y-119852380D01*
X149633333Y-119852380D01*
X149538095Y-119900000D01*
X149490476Y-119947619D01*
X149442857Y-120042857D01*
X149442857Y-120185714D01*
X149490476Y-120280952D01*
X149538095Y-120328571D01*
X149633333Y-120376190D01*
X150014285Y-120376190D01*
X148490476Y-120852380D02*
X149061904Y-120852380D01*
X148776190Y-120852380D02*
X148776190Y-119852380D01*
X148871428Y-119995238D01*
X148966666Y-120090476D01*
X149061904Y-120138095D01*
X148109523Y-119947619D02*
X148061904Y-119900000D01*
X147966666Y-119852380D01*
X147728571Y-119852380D01*
X147633333Y-119900000D01*
X147585714Y-119947619D01*
X147538095Y-120042857D01*
X147538095Y-120138095D01*
X147585714Y-120280952D01*
X148157142Y-120852380D01*
X147538095Y-120852380D01*
X140652380Y-130257142D02*
X140176190Y-129923809D01*
X140652380Y-129685714D02*
X139652380Y-129685714D01*
X139652380Y-130066666D01*
X139700000Y-130161904D01*
X139747619Y-130209523D01*
X139842857Y-130257142D01*
X139985714Y-130257142D01*
X140080952Y-130209523D01*
X140128571Y-130161904D01*
X140176190Y-130066666D01*
X140176190Y-129685714D01*
X140652380Y-131209523D02*
X140652380Y-130638095D01*
X140652380Y-130923809D02*
X139652380Y-130923809D01*
X139795238Y-130828571D01*
X139890476Y-130733333D01*
X139938095Y-130638095D01*
X139652380Y-131542857D02*
X139652380Y-132161904D01*
X140033333Y-131828571D01*
X140033333Y-131971428D01*
X140080952Y-132066666D01*
X140128571Y-132114285D01*
X140223809Y-132161904D01*
X140461904Y-132161904D01*
X140557142Y-132114285D01*
X140604761Y-132066666D01*
X140652380Y-131971428D01*
X140652380Y-131685714D01*
X140604761Y-131590476D01*
X140557142Y-131542857D01*
X139242857Y-107652380D02*
X139576190Y-107176190D01*
X139814285Y-107652380D02*
X139814285Y-106652380D01*
X139433333Y-106652380D01*
X139338095Y-106700000D01*
X139290476Y-106747619D01*
X139242857Y-106842857D01*
X139242857Y-106985714D01*
X139290476Y-107080952D01*
X139338095Y-107128571D01*
X139433333Y-107176190D01*
X139814285Y-107176190D01*
X138290476Y-107652380D02*
X138861904Y-107652380D01*
X138576190Y-107652380D02*
X138576190Y-106652380D01*
X138671428Y-106795238D01*
X138766666Y-106890476D01*
X138861904Y-106938095D01*
X137433333Y-106985714D02*
X137433333Y-107652380D01*
X137671428Y-106604761D02*
X137909523Y-107319047D01*
X137290476Y-107319047D01*
X168942857Y-93452380D02*
X169276190Y-92976190D01*
X169514285Y-93452380D02*
X169514285Y-92452380D01*
X169133333Y-92452380D01*
X169038095Y-92500000D01*
X168990476Y-92547619D01*
X168942857Y-92642857D01*
X168942857Y-92785714D01*
X168990476Y-92880952D01*
X169038095Y-92928571D01*
X169133333Y-92976190D01*
X169514285Y-92976190D01*
X167990476Y-93452380D02*
X168561904Y-93452380D01*
X168276190Y-93452380D02*
X168276190Y-92452380D01*
X168371428Y-92595238D01*
X168466666Y-92690476D01*
X168561904Y-92738095D01*
X167085714Y-92452380D02*
X167561904Y-92452380D01*
X167609523Y-92928571D01*
X167561904Y-92880952D01*
X167466666Y-92833333D01*
X167228571Y-92833333D01*
X167133333Y-92880952D01*
X167085714Y-92928571D01*
X167038095Y-93023809D01*
X167038095Y-93261904D01*
X167085714Y-93357142D01*
X167133333Y-93404761D01*
X167228571Y-93452380D01*
X167466666Y-93452380D01*
X167561904Y-93404761D01*
X167609523Y-93357142D01*
X148342857Y-93452380D02*
X148676190Y-92976190D01*
X148914285Y-93452380D02*
X148914285Y-92452380D01*
X148533333Y-92452380D01*
X148438095Y-92500000D01*
X148390476Y-92547619D01*
X148342857Y-92642857D01*
X148342857Y-92785714D01*
X148390476Y-92880952D01*
X148438095Y-92928571D01*
X148533333Y-92976190D01*
X148914285Y-92976190D01*
X147390476Y-93452380D02*
X147961904Y-93452380D01*
X147676190Y-93452380D02*
X147676190Y-92452380D01*
X147771428Y-92595238D01*
X147866666Y-92690476D01*
X147961904Y-92738095D01*
X146533333Y-92452380D02*
X146723809Y-92452380D01*
X146819047Y-92500000D01*
X146866666Y-92547619D01*
X146961904Y-92690476D01*
X147009523Y-92880952D01*
X147009523Y-93261904D01*
X146961904Y-93357142D01*
X146914285Y-93404761D01*
X146819047Y-93452380D01*
X146628571Y-93452380D01*
X146533333Y-93404761D01*
X146485714Y-93357142D01*
X146438095Y-93261904D01*
X146438095Y-93023809D01*
X146485714Y-92928571D01*
X146533333Y-92880952D01*
X146628571Y-92833333D01*
X146819047Y-92833333D01*
X146914285Y-92880952D01*
X146961904Y-92928571D01*
X147009523Y-93023809D01*
X129739285Y-104517857D02*
X129382142Y-104267857D01*
X129739285Y-104089285D02*
X128989285Y-104089285D01*
X128989285Y-104375000D01*
X129025000Y-104446428D01*
X129060714Y-104482142D01*
X129132142Y-104517857D01*
X129239285Y-104517857D01*
X129310714Y-104482142D01*
X129346428Y-104446428D01*
X129382142Y-104375000D01*
X129382142Y-104089285D01*
X129739285Y-105232142D02*
X129739285Y-104803571D01*
X129739285Y-105017857D02*
X128989285Y-105017857D01*
X129096428Y-104946428D01*
X129167857Y-104875000D01*
X129203571Y-104803571D01*
X128989285Y-105482142D02*
X128989285Y-105982142D01*
X129739285Y-105660714D01*
X152842857Y-109972380D02*
X153176190Y-109496190D01*
X153414285Y-109972380D02*
X153414285Y-108972380D01*
X153033333Y-108972380D01*
X152938095Y-109020000D01*
X152890476Y-109067619D01*
X152842857Y-109162857D01*
X152842857Y-109305714D01*
X152890476Y-109400952D01*
X152938095Y-109448571D01*
X153033333Y-109496190D01*
X153414285Y-109496190D01*
X151890476Y-109972380D02*
X152461904Y-109972380D01*
X152176190Y-109972380D02*
X152176190Y-108972380D01*
X152271428Y-109115238D01*
X152366666Y-109210476D01*
X152461904Y-109258095D01*
X151319047Y-109400952D02*
X151414285Y-109353333D01*
X151461904Y-109305714D01*
X151509523Y-109210476D01*
X151509523Y-109162857D01*
X151461904Y-109067619D01*
X151414285Y-109020000D01*
X151319047Y-108972380D01*
X151128571Y-108972380D01*
X151033333Y-109020000D01*
X150985714Y-109067619D01*
X150938095Y-109162857D01*
X150938095Y-109210476D01*
X150985714Y-109305714D01*
X151033333Y-109353333D01*
X151128571Y-109400952D01*
X151319047Y-109400952D01*
X151414285Y-109448571D01*
X151461904Y-109496190D01*
X151509523Y-109591428D01*
X151509523Y-109781904D01*
X151461904Y-109877142D01*
X151414285Y-109924761D01*
X151319047Y-109972380D01*
X151128571Y-109972380D01*
X151033333Y-109924761D01*
X150985714Y-109877142D01*
X150938095Y-109781904D01*
X150938095Y-109591428D01*
X150985714Y-109496190D01*
X151033333Y-109448571D01*
X151128571Y-109400952D01*
X123282142Y-104139285D02*
X123532142Y-103782142D01*
X123710714Y-104139285D02*
X123710714Y-103389285D01*
X123425000Y-103389285D01*
X123353571Y-103425000D01*
X123317857Y-103460714D01*
X123282142Y-103532142D01*
X123282142Y-103639285D01*
X123317857Y-103710714D01*
X123353571Y-103746428D01*
X123425000Y-103782142D01*
X123710714Y-103782142D01*
X122567857Y-104139285D02*
X122996428Y-104139285D01*
X122782142Y-104139285D02*
X122782142Y-103389285D01*
X122853571Y-103496428D01*
X122925000Y-103567857D01*
X122996428Y-103603571D01*
X122210714Y-104139285D02*
X122067857Y-104139285D01*
X121996428Y-104103571D01*
X121960714Y-104067857D01*
X121889285Y-103960714D01*
X121853571Y-103817857D01*
X121853571Y-103532142D01*
X121889285Y-103460714D01*
X121925000Y-103425000D01*
X121996428Y-103389285D01*
X122139285Y-103389285D01*
X122210714Y-103425000D01*
X122246428Y-103460714D01*
X122282142Y-103532142D01*
X122282142Y-103710714D01*
X122246428Y-103782142D01*
X122210714Y-103817857D01*
X122139285Y-103853571D01*
X121996428Y-103853571D01*
X121925000Y-103817857D01*
X121889285Y-103782142D01*
X121853571Y-103710714D01*
X128042857Y-109852380D02*
X128376190Y-109376190D01*
X128614285Y-109852380D02*
X128614285Y-108852380D01*
X128233333Y-108852380D01*
X128138095Y-108900000D01*
X128090476Y-108947619D01*
X128042857Y-109042857D01*
X128042857Y-109185714D01*
X128090476Y-109280952D01*
X128138095Y-109328571D01*
X128233333Y-109376190D01*
X128614285Y-109376190D01*
X127661904Y-108947619D02*
X127614285Y-108900000D01*
X127519047Y-108852380D01*
X127280952Y-108852380D01*
X127185714Y-108900000D01*
X127138095Y-108947619D01*
X127090476Y-109042857D01*
X127090476Y-109138095D01*
X127138095Y-109280952D01*
X127709523Y-109852380D01*
X127090476Y-109852380D01*
X126471428Y-108852380D02*
X126376190Y-108852380D01*
X126280952Y-108900000D01*
X126233333Y-108947619D01*
X126185714Y-109042857D01*
X126138095Y-109233333D01*
X126138095Y-109471428D01*
X126185714Y-109661904D01*
X126233333Y-109757142D01*
X126280952Y-109804761D01*
X126376190Y-109852380D01*
X126471428Y-109852380D01*
X126566666Y-109804761D01*
X126614285Y-109757142D01*
X126661904Y-109661904D01*
X126709523Y-109471428D01*
X126709523Y-109233333D01*
X126661904Y-109042857D01*
X126614285Y-108947619D01*
X126566666Y-108900000D01*
X126471428Y-108852380D01*
X116452380Y-109038095D02*
X117261904Y-109038095D01*
X117357142Y-109085714D01*
X117404761Y-109133333D01*
X117452380Y-109228571D01*
X117452380Y-109419047D01*
X117404761Y-109514285D01*
X117357142Y-109561904D01*
X117261904Y-109609523D01*
X116452380Y-109609523D01*
X117452380Y-110609523D02*
X117452380Y-110038095D01*
X117452380Y-110323809D02*
X116452380Y-110323809D01*
X116595238Y-110228571D01*
X116690476Y-110133333D01*
X116738095Y-110038095D01*
X162063973Y-96209522D02*
X161491553Y-96781942D01*
X161390538Y-96815614D01*
X161323194Y-96815614D01*
X161222179Y-96781942D01*
X161087492Y-96647255D01*
X161053820Y-96546240D01*
X161053820Y-96478896D01*
X161087492Y-96377881D01*
X161659912Y-95805461D01*
X161289522Y-95569759D02*
X161289522Y-95502416D01*
X161255851Y-95401400D01*
X161087492Y-95233042D01*
X160986477Y-95199370D01*
X160919133Y-95199370D01*
X160818118Y-95233042D01*
X160750774Y-95300385D01*
X160683431Y-95435072D01*
X160683431Y-96243194D01*
X160245698Y-95805461D01*
X144861904Y-112652380D02*
X144861904Y-113461904D01*
X144814285Y-113557142D01*
X144766666Y-113604761D01*
X144671428Y-113652380D01*
X144480952Y-113652380D01*
X144385714Y-113604761D01*
X144338095Y-113557142D01*
X144290476Y-113461904D01*
X144290476Y-112652380D01*
X143909523Y-112652380D02*
X143290476Y-112652380D01*
X143623809Y-113033333D01*
X143480952Y-113033333D01*
X143385714Y-113080952D01*
X143338095Y-113128571D01*
X143290476Y-113223809D01*
X143290476Y-113461904D01*
X143338095Y-113557142D01*
X143385714Y-113604761D01*
X143480952Y-113652380D01*
X143766666Y-113652380D01*
X143861904Y-113604761D01*
X143909523Y-113557142D01*
X165919881Y-108046446D02*
X166256599Y-108383164D01*
X165785194Y-107440355D02*
X165919881Y-108046446D01*
X165313790Y-107911759D01*
X165414805Y-109224957D02*
X165818866Y-108820896D01*
X165616835Y-109022927D02*
X164909729Y-108315820D01*
X165078087Y-108349492D01*
X165212774Y-108349492D01*
X165313790Y-108315820D01*
X161857142Y-117357142D02*
X161904761Y-117309523D01*
X161952380Y-117166666D01*
X161952380Y-117071428D01*
X161904761Y-116928571D01*
X161809523Y-116833333D01*
X161714285Y-116785714D01*
X161523809Y-116738095D01*
X161380952Y-116738095D01*
X161190476Y-116785714D01*
X161095238Y-116833333D01*
X161000000Y-116928571D01*
X160952380Y-117071428D01*
X160952380Y-117166666D01*
X161000000Y-117309523D01*
X161047619Y-117357142D01*
X161047619Y-117738095D02*
X161000000Y-117785714D01*
X160952380Y-117880952D01*
X160952380Y-118119047D01*
X161000000Y-118214285D01*
X161047619Y-118261904D01*
X161142857Y-118309523D01*
X161238095Y-118309523D01*
X161380952Y-118261904D01*
X161952380Y-117690476D01*
X161952380Y-118309523D01*
X161952380Y-118785714D02*
X161952380Y-118976190D01*
X161904761Y-119071428D01*
X161857142Y-119119047D01*
X161714285Y-119214285D01*
X161523809Y-119261904D01*
X161142857Y-119261904D01*
X161047619Y-119214285D01*
X161000000Y-119166666D01*
X160952380Y-119071428D01*
X160952380Y-118880952D01*
X161000000Y-118785714D01*
X161047619Y-118738095D01*
X161142857Y-118690476D01*
X161380952Y-118690476D01*
X161476190Y-118738095D01*
X161523809Y-118785714D01*
X161571428Y-118880952D01*
X161571428Y-119071428D01*
X161523809Y-119166666D01*
X161476190Y-119214285D01*
X161380952Y-119261904D01*
X154642857Y-118357142D02*
X154690476Y-118404761D01*
X154833333Y-118452380D01*
X154928571Y-118452380D01*
X155071428Y-118404761D01*
X155166666Y-118309523D01*
X155214285Y-118214285D01*
X155261904Y-118023809D01*
X155261904Y-117880952D01*
X155214285Y-117690476D01*
X155166666Y-117595238D01*
X155071428Y-117500000D01*
X154928571Y-117452380D01*
X154833333Y-117452380D01*
X154690476Y-117500000D01*
X154642857Y-117547619D01*
X154309523Y-117452380D02*
X153690476Y-117452380D01*
X154023809Y-117833333D01*
X153880952Y-117833333D01*
X153785714Y-117880952D01*
X153738095Y-117928571D01*
X153690476Y-118023809D01*
X153690476Y-118261904D01*
X153738095Y-118357142D01*
X153785714Y-118404761D01*
X153880952Y-118452380D01*
X154166666Y-118452380D01*
X154261904Y-118404761D01*
X154309523Y-118357142D01*
X153071428Y-117452380D02*
X152976190Y-117452380D01*
X152880952Y-117500000D01*
X152833333Y-117547619D01*
X152785714Y-117642857D01*
X152738095Y-117833333D01*
X152738095Y-118071428D01*
X152785714Y-118261904D01*
X152833333Y-118357142D01*
X152880952Y-118404761D01*
X152976190Y-118452380D01*
X153071428Y-118452380D01*
X153166666Y-118404761D01*
X153214285Y-118357142D01*
X153261904Y-118261904D01*
X153309523Y-118071428D01*
X153309523Y-117833333D01*
X153261904Y-117642857D01*
X153214285Y-117547619D01*
X153166666Y-117500000D01*
X153071428Y-117452380D01*
X153642857Y-116857142D02*
X153690476Y-116904761D01*
X153833333Y-116952380D01*
X153928571Y-116952380D01*
X154071428Y-116904761D01*
X154166666Y-116809523D01*
X154214285Y-116714285D01*
X154261904Y-116523809D01*
X154261904Y-116380952D01*
X154214285Y-116190476D01*
X154166666Y-116095238D01*
X154071428Y-116000000D01*
X153928571Y-115952380D01*
X153833333Y-115952380D01*
X153690476Y-116000000D01*
X153642857Y-116047619D01*
X153309523Y-115952380D02*
X152690476Y-115952380D01*
X153023809Y-116333333D01*
X152880952Y-116333333D01*
X152785714Y-116380952D01*
X152738095Y-116428571D01*
X152690476Y-116523809D01*
X152690476Y-116761904D01*
X152738095Y-116857142D01*
X152785714Y-116904761D01*
X152880952Y-116952380D01*
X153166666Y-116952380D01*
X153261904Y-116904761D01*
X153309523Y-116857142D01*
X151738095Y-116952380D02*
X152309523Y-116952380D01*
X152023809Y-116952380D02*
X152023809Y-115952380D01*
X152119047Y-116095238D01*
X152214285Y-116190476D01*
X152309523Y-116238095D01*
X158761904Y-111652380D02*
X158761904Y-112461904D01*
X158714285Y-112557142D01*
X158666666Y-112604761D01*
X158571428Y-112652380D01*
X158380952Y-112652380D01*
X158285714Y-112604761D01*
X158238095Y-112557142D01*
X158190476Y-112461904D01*
X158190476Y-111652380D01*
X157285714Y-111985714D02*
X157285714Y-112652380D01*
X157523809Y-111604761D02*
X157761904Y-112319047D01*
X157142857Y-112319047D01*
X176738095Y-123852380D02*
X176738095Y-122852380D01*
X176500000Y-122852380D01*
X176357142Y-122900000D01*
X176261904Y-122995238D01*
X176214285Y-123090476D01*
X176166666Y-123280952D01*
X176166666Y-123423809D01*
X176214285Y-123614285D01*
X176261904Y-123709523D01*
X176357142Y-123804761D01*
X176500000Y-123852380D01*
X176738095Y-123852380D01*
X175785714Y-122947619D02*
X175738095Y-122900000D01*
X175642857Y-122852380D01*
X175404761Y-122852380D01*
X175309523Y-122900000D01*
X175261904Y-122947619D01*
X175214285Y-123042857D01*
X175214285Y-123138095D01*
X175261904Y-123280952D01*
X175833333Y-123852380D01*
X175214285Y-123852380D01*
X163078018Y-129242982D02*
X163578018Y-128376956D01*
X163371822Y-128257908D01*
X163224294Y-128227719D01*
X163094197Y-128262579D01*
X163005338Y-128321248D01*
X162868861Y-128462396D01*
X162797432Y-128586113D01*
X162743434Y-128774880D01*
X162737054Y-128881168D01*
X162771913Y-129011266D01*
X162871822Y-129123934D01*
X163078018Y-129242982D01*
X162794471Y-127924575D02*
X162258360Y-127615051D01*
X162356559Y-128111632D01*
X162232842Y-128040204D01*
X162126553Y-128033824D01*
X162061505Y-128051254D01*
X161972646Y-128109923D01*
X161853599Y-128316120D01*
X161847219Y-128422408D01*
X161864649Y-128487456D01*
X161923318Y-128576315D01*
X162170754Y-128719172D01*
X162277042Y-128725552D01*
X162342091Y-128708122D01*
X154200399Y-128504886D02*
X153700399Y-127638861D01*
X153494203Y-127757908D01*
X153394294Y-127870576D01*
X153359435Y-128000674D01*
X153365814Y-128106962D01*
X153419813Y-128295729D01*
X153491242Y-128419447D01*
X153627719Y-128560595D01*
X153716578Y-128619264D01*
X153846675Y-128654123D01*
X153994203Y-128623934D01*
X154200399Y-128504886D01*
X152629887Y-128641822D02*
X152963220Y-129219172D01*
X152645607Y-128192860D02*
X153208946Y-128692402D01*
X152672835Y-129001925D01*
X140538095Y-123652380D02*
X140538095Y-122652380D01*
X140300000Y-122652380D01*
X140157142Y-122700000D01*
X140061904Y-122795238D01*
X140014285Y-122890476D01*
X139966666Y-123080952D01*
X139966666Y-123223809D01*
X140014285Y-123414285D01*
X140061904Y-123509523D01*
X140157142Y-123604761D01*
X140300000Y-123652380D01*
X140538095Y-123652380D01*
X139061904Y-122652380D02*
X139538095Y-122652380D01*
X139585714Y-123128571D01*
X139538095Y-123080952D01*
X139442857Y-123033333D01*
X139204761Y-123033333D01*
X139109523Y-123080952D01*
X139061904Y-123128571D01*
X139014285Y-123223809D01*
X139014285Y-123461904D01*
X139061904Y-123557142D01*
X139109523Y-123604761D01*
X139204761Y-123652380D01*
X139442857Y-123652380D01*
X139538095Y-123604761D01*
X139585714Y-123557142D01*
X176095238Y-126047619D02*
X176190476Y-126000000D01*
X176285714Y-125904761D01*
X176428571Y-125761904D01*
X176523809Y-125714285D01*
X176619047Y-125714285D01*
X176571428Y-125952380D02*
X176666666Y-125904761D01*
X176761904Y-125809523D01*
X176809523Y-125619047D01*
X176809523Y-125285714D01*
X176761904Y-125095238D01*
X176666666Y-125000000D01*
X176571428Y-124952380D01*
X176380952Y-124952380D01*
X176285714Y-125000000D01*
X176190476Y-125095238D01*
X176142857Y-125285714D01*
X176142857Y-125619047D01*
X176190476Y-125809523D01*
X176285714Y-125904761D01*
X176380952Y-125952380D01*
X176571428Y-125952380D01*
X175761904Y-125047619D02*
X175714285Y-125000000D01*
X175619047Y-124952380D01*
X175380952Y-124952380D01*
X175285714Y-125000000D01*
X175238095Y-125047619D01*
X175190476Y-125142857D01*
X175190476Y-125238095D01*
X175238095Y-125380952D01*
X175809523Y-125952380D01*
X175190476Y-125952380D01*
X164973669Y-130504032D02*
X165079957Y-130510411D01*
X165210054Y-130475552D01*
X165405201Y-130423262D01*
X165511489Y-130429642D01*
X165593968Y-130477261D01*
X165433681Y-130659648D02*
X165539969Y-130666028D01*
X165670066Y-130631168D01*
X165806544Y-130490021D01*
X165973211Y-130201346D01*
X166027209Y-130012579D01*
X165992350Y-129882481D01*
X165933681Y-129793623D01*
X165768723Y-129698385D01*
X165662435Y-129692005D01*
X165532338Y-129726865D01*
X165395860Y-129868012D01*
X165229194Y-130156687D01*
X165175195Y-130345454D01*
X165210054Y-130475552D01*
X165268723Y-130564410D01*
X165433681Y-130659648D01*
X164653553Y-129439441D02*
X164320219Y-130016791D01*
X165050225Y-129228574D02*
X164899279Y-129966211D01*
X164363168Y-129656687D01*
X151191288Y-130408793D02*
X151249957Y-130319935D01*
X151284816Y-130189837D01*
X151337106Y-129994691D01*
X151395775Y-129905833D01*
X151478253Y-129858214D01*
X151556062Y-130088220D02*
X151614731Y-129999361D01*
X151649590Y-129869264D01*
X151595591Y-129680497D01*
X151428925Y-129391822D01*
X151292447Y-129250674D01*
X151162350Y-129215814D01*
X151056062Y-129222194D01*
X150891104Y-129317432D01*
X150832435Y-129406291D01*
X150797576Y-129536388D01*
X150851575Y-129725155D01*
X151018241Y-130013830D01*
X151154719Y-130154978D01*
X151284816Y-130189837D01*
X151391104Y-130183458D01*
X151556062Y-130088220D01*
X149942600Y-129865051D02*
X150107558Y-129769813D01*
X150213846Y-129763434D01*
X150278895Y-129780863D01*
X150432802Y-129856962D01*
X150569279Y-129998110D01*
X150759755Y-130328024D01*
X150766135Y-130434312D01*
X150748705Y-130499361D01*
X150690036Y-130588220D01*
X150525079Y-130683458D01*
X150418791Y-130689837D01*
X150353742Y-130672408D01*
X150264884Y-130613739D01*
X150145836Y-130407542D01*
X150139456Y-130301254D01*
X150156886Y-130236205D01*
X150215555Y-130147347D01*
X150380512Y-130052109D01*
X150486801Y-130045729D01*
X150551849Y-130063159D01*
X150640708Y-130121828D01*
X139895238Y-125947619D02*
X139990476Y-125900000D01*
X140085714Y-125804761D01*
X140228571Y-125661904D01*
X140323809Y-125614285D01*
X140419047Y-125614285D01*
X140371428Y-125852380D02*
X140466666Y-125804761D01*
X140561904Y-125709523D01*
X140609523Y-125519047D01*
X140609523Y-125185714D01*
X140561904Y-124995238D01*
X140466666Y-124900000D01*
X140371428Y-124852380D01*
X140180952Y-124852380D01*
X140085714Y-124900000D01*
X139990476Y-124995238D01*
X139942857Y-125185714D01*
X139942857Y-125519047D01*
X139990476Y-125709523D01*
X140085714Y-125804761D01*
X140180952Y-125852380D01*
X140371428Y-125852380D01*
X139371428Y-125280952D02*
X139466666Y-125233333D01*
X139514285Y-125185714D01*
X139561904Y-125090476D01*
X139561904Y-125042857D01*
X139514285Y-124947619D01*
X139466666Y-124900000D01*
X139371428Y-124852380D01*
X139180952Y-124852380D01*
X139085714Y-124900000D01*
X139038095Y-124947619D01*
X138990476Y-125042857D01*
X138990476Y-125090476D01*
X139038095Y-125185714D01*
X139085714Y-125233333D01*
X139180952Y-125280952D01*
X139371428Y-125280952D01*
X139466666Y-125328571D01*
X139514285Y-125376190D01*
X139561904Y-125471428D01*
X139561904Y-125661904D01*
X139514285Y-125757142D01*
X139466666Y-125804761D01*
X139371428Y-125852380D01*
X139180952Y-125852380D01*
X139085714Y-125804761D01*
X139038095Y-125757142D01*
X138990476Y-125661904D01*
X138990476Y-125471428D01*
X139038095Y-125376190D01*
X139085714Y-125328571D01*
X139180952Y-125280952D01*
X116925000Y-116067857D02*
X116960714Y-116103571D01*
X117067857Y-116139285D01*
X117139285Y-116139285D01*
X117246428Y-116103571D01*
X117317857Y-116032142D01*
X117353571Y-115960714D01*
X117389285Y-115817857D01*
X117389285Y-115710714D01*
X117353571Y-115567857D01*
X117317857Y-115496428D01*
X117246428Y-115425000D01*
X117139285Y-115389285D01*
X117067857Y-115389285D01*
X116960714Y-115425000D01*
X116925000Y-115460714D01*
X116210714Y-116139285D02*
X116639285Y-116139285D01*
X116425000Y-116139285D02*
X116425000Y-115389285D01*
X116496428Y-115496428D01*
X116567857Y-115567857D01*
X116639285Y-115603571D01*
X116925000Y-114467857D02*
X116960714Y-114503571D01*
X117067857Y-114539285D01*
X117139285Y-114539285D01*
X117246428Y-114503571D01*
X117317857Y-114432142D01*
X117353571Y-114360714D01*
X117389285Y-114217857D01*
X117389285Y-114110714D01*
X117353571Y-113967857D01*
X117317857Y-113896428D01*
X117246428Y-113825000D01*
X117139285Y-113789285D01*
X117067857Y-113789285D01*
X116960714Y-113825000D01*
X116925000Y-113860714D01*
X116639285Y-113860714D02*
X116603571Y-113825000D01*
X116532142Y-113789285D01*
X116353571Y-113789285D01*
X116282142Y-113825000D01*
X116246428Y-113860714D01*
X116210714Y-113932142D01*
X116210714Y-114003571D01*
X116246428Y-114110714D01*
X116675000Y-114539285D01*
X116210714Y-114539285D01*
X122125000Y-108267857D02*
X122160714Y-108303571D01*
X122267857Y-108339285D01*
X122339285Y-108339285D01*
X122446428Y-108303571D01*
X122517857Y-108232142D01*
X122553571Y-108160714D01*
X122589285Y-108017857D01*
X122589285Y-107910714D01*
X122553571Y-107767857D01*
X122517857Y-107696428D01*
X122446428Y-107625000D01*
X122339285Y-107589285D01*
X122267857Y-107589285D01*
X122160714Y-107625000D01*
X122125000Y-107660714D01*
X121446428Y-107589285D02*
X121803571Y-107589285D01*
X121839285Y-107946428D01*
X121803571Y-107910714D01*
X121732142Y-107875000D01*
X121553571Y-107875000D01*
X121482142Y-107910714D01*
X121446428Y-107946428D01*
X121410714Y-108017857D01*
X121410714Y-108196428D01*
X121446428Y-108267857D01*
X121482142Y-108303571D01*
X121553571Y-108339285D01*
X121732142Y-108339285D01*
X121803571Y-108303571D01*
X121839285Y-108267857D01*
X122125000Y-110067857D02*
X122160714Y-110103571D01*
X122267857Y-110139285D01*
X122339285Y-110139285D01*
X122446428Y-110103571D01*
X122517857Y-110032142D01*
X122553571Y-109960714D01*
X122589285Y-109817857D01*
X122589285Y-109710714D01*
X122553571Y-109567857D01*
X122517857Y-109496428D01*
X122446428Y-109425000D01*
X122339285Y-109389285D01*
X122267857Y-109389285D01*
X122160714Y-109425000D01*
X122125000Y-109460714D01*
X121482142Y-109389285D02*
X121625000Y-109389285D01*
X121696428Y-109425000D01*
X121732142Y-109460714D01*
X121803571Y-109567857D01*
X121839285Y-109710714D01*
X121839285Y-109996428D01*
X121803571Y-110067857D01*
X121767857Y-110103571D01*
X121696428Y-110139285D01*
X121553571Y-110139285D01*
X121482142Y-110103571D01*
X121446428Y-110067857D01*
X121410714Y-109996428D01*
X121410714Y-109817857D01*
X121446428Y-109746428D01*
X121482142Y-109710714D01*
X121553571Y-109675000D01*
X121696428Y-109675000D01*
X121767857Y-109710714D01*
X121803571Y-109746428D01*
X121839285Y-109817857D01*
X122125000Y-112267857D02*
X122160714Y-112303571D01*
X122267857Y-112339285D01*
X122339285Y-112339285D01*
X122446428Y-112303571D01*
X122517857Y-112232142D01*
X122553571Y-112160714D01*
X122589285Y-112017857D01*
X122589285Y-111910714D01*
X122553571Y-111767857D01*
X122517857Y-111696428D01*
X122446428Y-111625000D01*
X122339285Y-111589285D01*
X122267857Y-111589285D01*
X122160714Y-111625000D01*
X122125000Y-111660714D01*
X121875000Y-111589285D02*
X121375000Y-111589285D01*
X121696428Y-112339285D01*
X117037142Y-98257142D02*
X117084761Y-98209523D01*
X117132380Y-98066666D01*
X117132380Y-97971428D01*
X117084761Y-97828571D01*
X116989523Y-97733333D01*
X116894285Y-97685714D01*
X116703809Y-97638095D01*
X116560952Y-97638095D01*
X116370476Y-97685714D01*
X116275238Y-97733333D01*
X116180000Y-97828571D01*
X116132380Y-97971428D01*
X116132380Y-98066666D01*
X116180000Y-98209523D01*
X116227619Y-98257142D01*
X116227619Y-98638095D02*
X116180000Y-98685714D01*
X116132380Y-98780952D01*
X116132380Y-99019047D01*
X116180000Y-99114285D01*
X116227619Y-99161904D01*
X116322857Y-99209523D01*
X116418095Y-99209523D01*
X116560952Y-99161904D01*
X117132380Y-98590476D01*
X117132380Y-99209523D01*
X116132380Y-99542857D02*
X116132380Y-100209523D01*
X117132380Y-99780952D01*
X129138095Y-118852380D02*
X129138095Y-117852380D01*
X128900000Y-117852380D01*
X128757142Y-117900000D01*
X128661904Y-117995238D01*
X128614285Y-118090476D01*
X128566666Y-118280952D01*
X128566666Y-118423809D01*
X128614285Y-118614285D01*
X128661904Y-118709523D01*
X128757142Y-118804761D01*
X128900000Y-118852380D01*
X129138095Y-118852380D01*
X127614285Y-118852380D02*
X128185714Y-118852380D01*
X127900000Y-118852380D02*
X127900000Y-117852380D01*
X127995238Y-117995238D01*
X128090476Y-118090476D01*
X128185714Y-118138095D01*
X173042857Y-129822380D02*
X173376190Y-129346190D01*
X173614285Y-129822380D02*
X173614285Y-128822380D01*
X173233333Y-128822380D01*
X173138095Y-128870000D01*
X173090476Y-128917619D01*
X173042857Y-129012857D01*
X173042857Y-129155714D01*
X173090476Y-129250952D01*
X173138095Y-129298571D01*
X173233333Y-129346190D01*
X173614285Y-129346190D01*
X172661904Y-128917619D02*
X172614285Y-128870000D01*
X172519047Y-128822380D01*
X172280952Y-128822380D01*
X172185714Y-128870000D01*
X172138095Y-128917619D01*
X172090476Y-129012857D01*
X172090476Y-129108095D01*
X172138095Y-129250952D01*
X172709523Y-129822380D01*
X172090476Y-129822380D01*
X171138095Y-129822380D02*
X171709523Y-129822380D01*
X171423809Y-129822380D02*
X171423809Y-128822380D01*
X171519047Y-128965238D01*
X171614285Y-129060476D01*
X171709523Y-129108095D01*
X173933333Y-110652380D02*
X173933333Y-111366666D01*
X173980952Y-111509523D01*
X174076190Y-111604761D01*
X174219047Y-111652380D01*
X174314285Y-111652380D01*
X173552380Y-110652380D02*
X172933333Y-110652380D01*
X173266666Y-111033333D01*
X173123809Y-111033333D01*
X173028571Y-111080952D01*
X172980952Y-111128571D01*
X172933333Y-111223809D01*
X172933333Y-111461904D01*
X172980952Y-111557142D01*
X173028571Y-111604761D01*
X173123809Y-111652380D01*
X173409523Y-111652380D01*
X173504761Y-111604761D01*
X173552380Y-111557142D01*
X171119881Y-105846446D02*
X171456599Y-106183164D01*
X170985194Y-105240355D02*
X171119881Y-105846446D01*
X170513790Y-105711759D01*
X170379103Y-105981133D02*
X170311759Y-105981133D01*
X170210744Y-106014805D01*
X170042385Y-106183164D01*
X170008713Y-106284179D01*
X170008713Y-106351522D01*
X170042385Y-106452538D01*
X170109729Y-106519881D01*
X170244416Y-106587225D01*
X171052538Y-106587225D01*
X170614805Y-107024957D01*
X170222233Y-105280812D02*
X170262639Y-105280812D01*
X170343451Y-105240406D01*
X170383857Y-105200000D01*
X170424264Y-105119187D01*
X170424264Y-105038375D01*
X170404061Y-104977766D01*
X170343451Y-104876751D01*
X170282842Y-104816142D01*
X170181827Y-104755532D01*
X170121218Y-104735329D01*
X170040406Y-104735329D01*
X169959593Y-104775735D01*
X169919187Y-104816142D01*
X169878781Y-104896954D01*
X169878781Y-104937360D01*
X169777766Y-105321218D02*
X169797969Y-105260609D01*
X169797969Y-105220203D01*
X169777766Y-105159593D01*
X169757563Y-105139390D01*
X169696954Y-105119187D01*
X169656548Y-105119187D01*
X169595938Y-105139390D01*
X169515126Y-105220203D01*
X169494923Y-105280812D01*
X169494923Y-105321218D01*
X169515126Y-105381827D01*
X169535329Y-105402030D01*
X169595938Y-105422233D01*
X169636345Y-105422233D01*
X169696954Y-105402030D01*
X169777766Y-105321218D01*
X169838375Y-105301015D01*
X169878781Y-105301015D01*
X169939390Y-105321218D01*
X170020203Y-105402030D01*
X170040406Y-105462639D01*
X170040406Y-105503045D01*
X170020203Y-105563654D01*
X169939390Y-105644467D01*
X169878781Y-105664670D01*
X169838375Y-105664670D01*
X169777766Y-105644467D01*
X169696954Y-105563654D01*
X169676751Y-105503045D01*
X169676751Y-105462639D01*
X169696954Y-105402030D01*
X169822233Y-108880812D02*
X169862639Y-108880812D01*
X169943451Y-108840406D01*
X169983857Y-108800000D01*
X170024264Y-108719187D01*
X170024264Y-108638375D01*
X170004061Y-108577766D01*
X169943451Y-108476751D01*
X169882842Y-108416142D01*
X169781827Y-108355532D01*
X169721218Y-108335329D01*
X169640406Y-108335329D01*
X169559593Y-108375735D01*
X169519187Y-108416142D01*
X169478781Y-108496954D01*
X169478781Y-108537360D01*
X169660609Y-109123248D02*
X169579796Y-109204061D01*
X169519187Y-109224264D01*
X169478781Y-109224264D01*
X169377766Y-109204061D01*
X169276751Y-109143451D01*
X169115126Y-108981827D01*
X169094923Y-108921218D01*
X169094923Y-108880812D01*
X169115126Y-108820203D01*
X169195938Y-108739390D01*
X169256548Y-108719187D01*
X169296954Y-108719187D01*
X169357563Y-108739390D01*
X169458578Y-108840406D01*
X169478781Y-108901015D01*
X169478781Y-108941421D01*
X169458578Y-109002030D01*
X169377766Y-109082842D01*
X169317157Y-109103045D01*
X169276751Y-109103045D01*
X169216142Y-109082842D01*
X164433333Y-119558571D02*
X164766666Y-119558571D01*
X164766666Y-120082380D02*
X164766666Y-119082380D01*
X164290476Y-119082380D01*
X163576190Y-119558571D02*
X163433333Y-119606190D01*
X163385714Y-119653809D01*
X163338095Y-119749047D01*
X163338095Y-119891904D01*
X163385714Y-119987142D01*
X163433333Y-120034761D01*
X163528571Y-120082380D01*
X163909523Y-120082380D01*
X163909523Y-119082380D01*
X163576190Y-119082380D01*
X163480952Y-119130000D01*
X163433333Y-119177619D01*
X163385714Y-119272857D01*
X163385714Y-119368095D01*
X163433333Y-119463333D01*
X163480952Y-119510952D01*
X163576190Y-119558571D01*
X163909523Y-119558571D01*
X162385714Y-120082380D02*
X162957142Y-120082380D01*
X162671428Y-120082380D02*
X162671428Y-119082380D01*
X162766666Y-119225238D01*
X162861904Y-119320476D01*
X162957142Y-119368095D01*
X123004761Y-131866666D02*
X123052380Y-132009523D01*
X123052380Y-132247619D01*
X123004761Y-132342857D01*
X122957142Y-132390476D01*
X122861904Y-132438095D01*
X122766666Y-132438095D01*
X122671428Y-132390476D01*
X122623809Y-132342857D01*
X122576190Y-132247619D01*
X122528571Y-132057142D01*
X122480952Y-131961904D01*
X122433333Y-131914285D01*
X122338095Y-131866666D01*
X122242857Y-131866666D01*
X122147619Y-131914285D01*
X122100000Y-131961904D01*
X122052380Y-132057142D01*
X122052380Y-132295238D01*
X122100000Y-132438095D01*
X122052380Y-132771428D02*
X123052380Y-133009523D01*
X122338095Y-133200000D01*
X123052380Y-133390476D01*
X122052380Y-133628571D01*
X123052380Y-134533333D02*
X123052380Y-133961904D01*
X123052380Y-134247619D02*
X122052380Y-134247619D01*
X122195238Y-134152380D01*
X122290476Y-134057142D01*
X122338095Y-133961904D01*
X137884761Y-99916666D02*
X137932380Y-100059523D01*
X137932380Y-100297619D01*
X137884761Y-100392857D01*
X137837142Y-100440476D01*
X137741904Y-100488095D01*
X137646666Y-100488095D01*
X137551428Y-100440476D01*
X137503809Y-100392857D01*
X137456190Y-100297619D01*
X137408571Y-100107142D01*
X137360952Y-100011904D01*
X137313333Y-99964285D01*
X137218095Y-99916666D01*
X137122857Y-99916666D01*
X137027619Y-99964285D01*
X136980000Y-100011904D01*
X136932380Y-100107142D01*
X136932380Y-100345238D01*
X136980000Y-100488095D01*
X136932380Y-100821428D02*
X137932380Y-101059523D01*
X137218095Y-101250000D01*
X137932380Y-101440476D01*
X136932380Y-101678571D01*
X137027619Y-102011904D02*
X136980000Y-102059523D01*
X136932380Y-102154761D01*
X136932380Y-102392857D01*
X136980000Y-102488095D01*
X137027619Y-102535714D01*
X137122857Y-102583333D01*
X137218095Y-102583333D01*
X137360952Y-102535714D01*
X137932380Y-101964285D01*
X137932380Y-102583333D01*
X119833333Y-121402380D02*
X119833333Y-122116666D01*
X119880952Y-122259523D01*
X119976190Y-122354761D01*
X120119047Y-122402380D01*
X120214285Y-122402380D01*
X118833333Y-122402380D02*
X119404761Y-122402380D01*
X119119047Y-122402380D02*
X119119047Y-121402380D01*
X119214285Y-121545238D01*
X119309523Y-121640476D01*
X119404761Y-121688095D01*
X93009523Y-123722380D02*
X93009523Y-124436666D01*
X93057142Y-124579523D01*
X93152380Y-124674761D01*
X93295238Y-124722380D01*
X93390476Y-124722380D01*
X92009523Y-124722380D02*
X92580952Y-124722380D01*
X92295238Y-124722380D02*
X92295238Y-123722380D01*
X92390476Y-123865238D01*
X92485714Y-123960476D01*
X92580952Y-124008095D01*
X91390476Y-123722380D02*
X91295238Y-123722380D01*
X91200000Y-123770000D01*
X91152380Y-123817619D01*
X91104761Y-123912857D01*
X91057142Y-124103333D01*
X91057142Y-124341428D01*
X91104761Y-124531904D01*
X91152380Y-124627142D01*
X91200000Y-124674761D01*
X91295238Y-124722380D01*
X91390476Y-124722380D01*
X91485714Y-124674761D01*
X91533333Y-124627142D01*
X91580952Y-124531904D01*
X91628571Y-124341428D01*
X91628571Y-124103333D01*
X91580952Y-123912857D01*
X91533333Y-123817619D01*
X91485714Y-123770000D01*
X91390476Y-123722380D01*
X128809523Y-112652380D02*
X128809523Y-113366666D01*
X128857142Y-113509523D01*
X128952380Y-113604761D01*
X129095238Y-113652380D01*
X129190476Y-113652380D01*
X127809523Y-113652380D02*
X128380952Y-113652380D01*
X128095238Y-113652380D02*
X128095238Y-112652380D01*
X128190476Y-112795238D01*
X128285714Y-112890476D01*
X128380952Y-112938095D01*
X126857142Y-113652380D02*
X127428571Y-113652380D01*
X127142857Y-113652380D02*
X127142857Y-112652380D01*
X127238095Y-112795238D01*
X127333333Y-112890476D01*
X127428571Y-112938095D01*
M02*
